<svg xmlns="http://www.w3.org/2000/svg" xmlns:xlink="http://www.w3.org/1999/xlink" width="416.883" height="416.883" viewBox="0 0 416.883 416.883"><defs><style>.a,.m{fill:none;}.b{opacity:0.73;}.c{fill:#fff;}.d{fill:#c8eefb;}.e{fill:#5084da;}.f{fill:#5193f4;}.g,.v,.x{opacity:0.4;}.h{opacity:0.228;}.i{fill:#605aca;}.ab,.ag,.i,.m,.t{opacity:0.5;}.j{fill:#4ca1ff;}.k{fill:#4a84d8;}.l{fill:#00ad9f;}.m{stroke:#4ca1ff;stroke-miterlimit:10;}.n{fill:#7ee8d4;}.o{fill:#5a4fd1;opacity:0.37;}.p{fill:#0056ec;}.q{clip-path:url(#a);}.r{opacity:0.09;}.s,.t{fill:#94ebff;}.aa,.ae,.af,.ao,.s{opacity:0.3;}.ao,.u,.v{fill:#f9714e;}.w,.x{fill:#ffb255;}.af,.y{fill:#ffc2d3;}.ab,.z{fill:#2e2c84;}.ac{fill:#001f64;}.ad,.ae{fill:#8fc2ff;}.ag{fill:#ffc87c;}.ah{fill:#f9acc8;}.ai{opacity:0.1;}.aj{fill:#4b48b5;}.ak{fill:#568edb;}.al{fill:#5e9ce4;}.am{opacity:0.16;}.an{fill:#4e84d9;}</style><clipPath id="a"><circle class="a" cx="20.549" cy="20.549" r="20.549"/></clipPath></defs><g class="b"><rect class="c" width="416.883" height="416.883"/><g transform="translate(24.693 52.762)"><path class="d" d="M382.782,171.543c5.535,10.063,13.585,19.552,14.281,30.9,1.117,18.222-16.649,31.961-23.914,48.848-8.919,20.729-1.439,45.152-9.333,66.256-5.72,15.294-19.753,27.509-36.242,31.552-12.358,3.03-25.357,1.661-38.116,1.785-36.225.354-72.311,12.879-108.043,7.193-17.645-2.809-34.325-9.976-52.05-12.276-21.255-2.757-46.021.578-61.211-13.868-21.222-20.181-5.467-57.288-21.394-81.5-5.128-7.8-13.39-13.9-16.16-22.713-3.237-10.3,2.007-21.283,8.518-30.066s14.567-16.871,18.094-27.088c3.2-9.276,1.246-19.36-2.692-28.376C48.485,128.376,65.28,96.706,98.6,99.08c15.272,1.088,22.146-16.6,38.9-21.5,19.182-5.614,43.262-1.1,57.4,3.6,14.361,4.773,32.112,7.281,40.345-4.913,11.622-17.217,46.269-19.912,61.827,8.048,5.683,10.214,10.743,18.159,22.838,17.38C385.448,97.463,374.555,156.588,382.782,171.543ZM204.119,77.074c0,2.345,0,6.368,10.337,5.71,3.172-.2,5.755-1.9,5.755-4.246s-2.576-4.246-5.755-4.246S204.119,73.327,204.119,77.074ZM102.29,88.45a2.163,2.163,0,0,0-.683.821A6.115,6.115,0,0,1,98.6,91.432,5.341,5.341,0,0,0,96.65,92.46a2.105,2.105,0,0,0,.2,3.034,4.081,4.081,0,0,0,2.745.6,17.4,17.4,0,0,0,9.88-3.692C113.115,89.506,104.291,87.367,102.29,88.45Zm-9.808,5.4c-1.211-.795-2.774-.337-3.98.284a1.083,1.083,0,0,0-.606.591c-.158.57.563.975,1.15,1.158a4.685,4.685,0,0,0,2.823.263C92.78,95.847,93.694,94.647,92.483,93.854ZM46.765,168.608c-.9-2.733-3.013-4.092-6.217-2.535a11.745,11.745,0,0,0-4.386,4.386c-1.844,2.8-3.43,5.992-3.042,9.275a8.726,8.726,0,0,0,3.709,6.06,4.892,4.892,0,0,0,2.866,1,5.441,5.441,0,0,0,3.045-1.336,30.159,30.159,0,0,0,5.269-5.793,7.652,7.652,0,0,0,1.823-3.537C50.163,173.324,47.589,171.123,46.765,168.608Zm335.152,84.2a4.4,4.4,0,0,0-2.125,1.477,4.289,4.289,0,0,0-.539,1.907,38.007,38.007,0,0,0-.232,4.143c0,1.515.163,3.2,1.327,4.226,1.568,1.389,4.059.9,6.113.329a5.973,5.973,0,0,0,3.137-1.6,4.986,4.986,0,0,0,.893-2.349c.5-2.765,2.02-6.954.333-8.386S384.856,251.606,381.917,252.8ZM266.128,359.878a4.81,4.81,0,0,0-1.063,1.319,2.905,2.905,0,0,0,1.5,3.85,6.109,6.109,0,0,0,2.38.283c6.9-.093,14.308-.345,19.816-4.3.672-.483,1.367-1.161,1.248-1.955-.144-.961-1.337-1.377-2.335-1.57C280.775,356.172,271.668,354.685,266.128,359.878ZM135.235,349.233c-6-.809-15.536-1.954-15.533,2.9,0,1.831,8.464,3.593,9.863,3.93a112.992,112.992,0,0,1,12.618,4.152c7.852,2.9,14.14-1.007,7.922-5.387A31.921,31.921,0,0,0,135.235,349.233Z" transform="translate(-29.616 -63.281)"/></g><g transform="translate(6.598 107.455)"><g transform="translate(310.252 93.906)"><g transform="translate(8.649)"><path class="e" d="M392.275,264.206a106.96,106.96,0,0,0,27.139-6.681c.418-.171.671,2.666.671,2.666s1.943-3.794,2.62-4.113c7.147-3.37,13.7-8.068,17.215-14.57,0,0,1.731,39.872-49.524,48.728Z" transform="translate(-390.396 -241.508)"/></g><g transform="translate(3.576 68.182)"><path class="e" d="M408.309,323.284s16.915,8.966,49.993,10.525c0,0-22.5,20.536-73.991,13.466L386,323.886Z" transform="translate(-384.312 -323.284)"/></g><g transform="translate(3.909 30.312)"><path class="f" d="M384.711,292.969a101,101,0,0,1,20.031-9.09c.494-.168,1.539,2.754,1.539,2.754s1.693-3.805,2.588-4.073c14.806-4.434,35.067-7.329,56.889-1.17,0,0-6.611,9.21-20.142,19.292-.577.429-4.4.09-4.4.09s1.6,1.933,1.078,2.3a129.585,129.585,0,0,1-54.9,21.657Z" transform="translate(-384.711 -277.863)"/></g><g class="g" transform="translate(0 33.839)"><path class="e" d="M464.979,282.094a190.042,190.042,0,0,1-19.918,11.035c-6.829,3.336-13.849,6.268-20.958,8.955-3.548,1.363-7.178,2.5-10.776,3.721l-5.461,1.636c-.911.268-1.818.554-2.734.805l-2.765.694a186.173,186.173,0,0,1-22.343,4.394l5.573-1.149,2.786-.562c.925-.205,1.842-.449,2.763-.67l5.526-1.317,5.474-1.515c3.659-.974,7.252-2.174,10.874-3.271,3.574-1.247,7.175-2.415,10.7-3.8,7.113-2.59,14.1-5.525,20.982-8.685q5.168-2.361,10.239-4.928Q460.023,284.894,464.979,282.094Z" transform="translate(-380.023 -282.094)"/><g transform="translate(38.683 4.249)"><path class="e" d="M426.419,304.319c1.413-1.32,2.781-2.664,4.15-4s2.692-2.709,3.978-4.115,2.515-2.856,3.713-4.336c1.17-1.5,2.275-3.054,3.332-4.678a25.152,25.152,0,0,1-2.633,5.182,38.407,38.407,0,0,1-3.6,4.578A40.762,40.762,0,0,1,426.419,304.319Z" transform="translate(-426.419 -287.19)"/></g><g transform="translate(18.198 11.131)"><path class="e" d="M401.849,311.837a36.677,36.677,0,0,0,4.271-3.326,33.586,33.586,0,0,0,3.7-3.865,31.689,31.689,0,0,0,3.07-4.374,46.812,46.812,0,0,0,2.455-4.829,20.387,20.387,0,0,1-1.694,5.234,21.9,21.9,0,0,1-2.98,4.672,22.771,22.771,0,0,1-4.006,3.824A18.306,18.306,0,0,1,401.849,311.837Z" transform="translate(-401.849 -295.444)"/></g><g transform="translate(38.683 20.229)"><path class="e" d="M426.419,307.5a71,71,0,0,0,7.841-.04c1.294-.067,2.58-.219,3.865-.406,1.293-.167,2.558-.465,3.88-.7a14.793,14.793,0,0,1-3.7,1.545,19.141,19.141,0,0,1-3.971.664,21.3,21.3,0,0,1-4.019-.115A15.653,15.653,0,0,1,426.419,307.5Z" transform="translate(-426.419 -306.356)"/></g><g transform="translate(18.613 27.554)"><path class="e" d="M402.347,315.142c1.592.191,3.172.343,4.742.506,1.573.143,3.14.275,4.708.343s3.133.069,4.7.028a47.04,47.04,0,0,0,4.719-.471,17.433,17.433,0,0,1-4.638,1.329,27.72,27.72,0,0,1-4.833.217A29.6,29.6,0,0,1,402.347,315.142Z" transform="translate(-402.347 -315.142)"/></g></g><g class="h" transform="translate(14.312 10.361)"><path class="i" d="M435.783,253.935a29.652,29.652,0,0,1-6.5,9.938,43.121,43.121,0,0,1-9.425,7.364l-2.644,1.414c-.878.479-1.818.825-2.728,1.236a49.21,49.21,0,0,1-5.621,2.036c-.937.339-1.921.519-2.885.762l-2.9.69c-1.964.308-3.929.6-5.891.841,1.924-.494,3.859-.885,5.77-1.369l2.836-.834a29.422,29.422,0,0,0,2.809-.9c1.828-.721,3.709-1.3,5.463-2.186.882-.424,1.808-.76,2.661-1.241l2.578-1.406a50.056,50.056,0,0,0,9.377-7,28.879,28.879,0,0,0,2.045-2.108c.323-.368.661-.725.973-1.1l.909-1.157A28.579,28.579,0,0,0,435.783,253.935Z" transform="translate(-397.189 -253.935)"/></g><g transform="translate(11.378 75.282)"><path class="j" d="M449.053,338.04c-2.318.445-4.663.72-7.008,1q-3.524.341-7.065.518a120.81,120.81,0,0,1-14.178-.2c-2.358-.2-4.712-.47-7.05-.846a64.148,64.148,0,0,1-6.965-1.4A48.259,48.259,0,0,1,393.67,331.8a51.618,51.618,0,0,0,6.537,2.63,63.41,63.41,0,0,0,6.777,1.853,98.959,98.959,0,0,0,13.906,1.971c4.672.413,9.37.5,14.066.455S444.355,338.443,449.053,338.04Z" transform="translate(-393.67 -331.8)"/><g transform="translate(18.043 5.886)"><path class="j" d="M430.48,347.478a17.713,17.713,0,0,1-9.054-1.79,13.959,13.959,0,0,1-3.784-2.8,10.572,10.572,0,0,1-2.331-4.025,17.357,17.357,0,0,0,2.931,3.407,18.741,18.741,0,0,0,3.68,2.437,28.726,28.726,0,0,0,4.148,1.649A44.1,44.1,0,0,0,430.48,347.478Z" transform="translate(-415.31 -338.859)"/></g><g transform="translate(7.937 3.539)"><path class="j" d="M416.133,347.743a17.714,17.714,0,0,1-8.452-3.708,13.958,13.958,0,0,1-3.087-3.557,10.573,10.573,0,0,1-1.4-4.434,17.4,17.4,0,0,0,2.124,3.961,18.765,18.765,0,0,0,3.066,3.176,28.656,28.656,0,0,0,3.693,2.508A43.759,43.759,0,0,0,416.133,347.743Z" transform="translate(-403.19 -336.044)"/></g></g></g><g transform="translate(0 124.92)"><path class="k" d="M69.945,296.289c-6-2.881-8.869-10.557-13.8-12.207-6.1-2.11-7.817,4.71-17.687,3.023-8.284-1.415-10.8-10.732-24.651-7.849-4.229.88-7.036,4.455-5.448,8.742,1.188,4.267,7.064,6.967,10.56,9.146,3.1,1.751,5.846,2.69,7.684,5.946.019.034.038.071.055.106,1.236,2.646.742,5.006,3.63,6.942,6.764,4.948,15.189-2.909,22.884-2.679,5.427.163,5.275,5.8,11.8,7.429,6.463,1.616,4.342-4.169,17.9,1.085a.946.946,0,0,0,1.224-.543h0a.946.946,0,0,0-.2-.991C74.412,304.507,78.771,300.53,69.945,296.289Z" transform="translate(-7.913 -278.706)"/><path class="l" d="M69.945,296.289c-6-2.881-8.869-10.557-13.8-12.207-6.1-2.11-7.817,4.71-17.687,3.023-8.284-1.415-10.8-10.732-24.651-7.849-4.229.88-7.036,4.455-5.448,8.742,1.188,4.267,7.064,6.967,10.56,9.146,3.1,1.751,5.846,2.69,7.684,5.946.019.034.038.071.055.106,1.236,2.646.742,5.006,3.63,6.942,6.764,4.948,15.189-2.909,22.884-2.679,5.427.163,5.275,5.8,11.8,7.429,6.463,1.616,4.342-4.169,17.9,1.085a.946.946,0,0,0,1.224-.543h0a.946.946,0,0,0-.2-.991C74.412,304.507,78.771,300.53,69.945,296.289Z" transform="translate(-7.913 -278.706)"/><path class="m" d="M79.087,310.846c-3.162-1.533-5.509-4.3-8.068-6.713s-5.709-4.613-9.222-4.518c-2.155.058-4.309.988-6.412.509-2.773-.63-4.666-3.545-7.485-3.922-1.576-.21-3.135.426-4.721.531-4.53.3-8.071-3.56-11.78-6.177a24.418,24.418,0,0,0-14.381-4.423" transform="translate(-9.427 -279.94)"/></g><g transform="translate(31.671 53.625)"><path class="n" d="M72.643,258.988a7.916,7.916,0,0,0,1.468.91c2.41,1.188,5.171,1.353,7.089,3.516,1.28,1.362,1.974,3.187,2.931,4.807a8.71,8.71,0,0,0,.656,1.026c2.965,4.066,5.882,4.538,9,4.468,1.281-.03,2.606-.153,3.968-.152a13.2,13.2,0,0,1,6.693,1.58,18.246,18.246,0,0,1,4.752,3.866.994.994,0,0,0,1.261.083,1.075,1.075,0,0,0,.49-1.092,15.055,15.055,0,0,0-4.432-8.068C101,264.7,92.841,264.289,92.347,253.5c-.1-2.312.387-3.951.018-5.6a5.811,5.811,0,0,0-1.413-2.589c-1.671-1.8-4.073-2.6-6.213-4.036-5.795-4.133-3.033-10.9-3.548-17.331-.344-5.254-5.068-8.673-8.93-11.647-4.828-3.553-4.817-9.963-8.076-14.726s-11.348-6.688-15.656-.282c-4.574,6.394-2.062,14.389-.747,20.874a15.065,15.065,0,0,0,1.732,4.572c2.41,4.21,6.548,7.208,10.122,10.774a25.6,25.6,0,0,1,5.322,7.47,22.011,22.011,0,0,1,1.652,5.233c.078.433.161.86.245,1.288C67.688,251.995,68.672,256,72.643,258.988Z" transform="translate(-45.9 -193.196)"/><path class="m" d="M53.639,198.281c.191,4.973.463,10.2,3.267,14.1,3.014,4.2,8.683,6.431,10.425,11.34.622,1.75.718,3.794,1.939,5.177a16.125,16.125,0,0,0,3.144,2.175c4.857,3.359,4.678,10.833,9,14.784a19.73,19.73,0,0,1,2.355,2.132c1.518,1.928,1.312,4.719,1.727,7.193a17.279,17.279,0,0,0,6.619,10.362c3.28,2.635,7.2,4.482,11.078,6.309" transform="translate(-47.186 -194.042)"/><path class="o" d="M106.148,284.47a13.2,13.2,0,0,1,6.693,1.58c.213-3.312,1.327-4,2.07-5.212-5.525-5.228-13.681-5.643-14.176-16.436-.1-2.312.387-3.951.018-5.6-1.648,3.461-4.606,4.171-4.373,7.7.2,3.645,4.863,7.019,5.7,11.616C102.766,281.922,104.166,282.89,106.148,284.47Z" transform="translate(-54.289 -204.102)"/></g><g transform="translate(314.09 49.512)"><path class="n" d="M389.616,235.348a7.567,7.567,0,0,0-.154,1.646c.008,2.57,1.041,5.006,0,7.569-.621,1.676-1.889,3.047-2.87,4.557a8.162,8.162,0,0,0-.6,1c-2.222,4.271-1.385,6.971,0,9.616.571,1.084,1.24,2.167,1.819,3.335a12.624,12.624,0,0,1,1.495,6.406,17.462,17.462,0,0,1-1.29,5.716.952.952,0,0,0,.466,1.116,1.029,1.029,0,0,0,1.144-.045,14.4,14.4,0,0,0,5.026-7.231c2.127-6.959-.988-14.122,8.048-19.14,1.937-1.073,3.55-1.35,4.8-2.367a5.576,5.576,0,0,0,1.617-2.313c.831-2.2.492-4.595.813-7.04,1.075-6.723,8.045-7.236,13.339-10.415,4.354-2.531,5.273-8.033,6.177-12.608.989-5.649,6.484-8.367,9.178-13.186s.9-12.567-6.421-13.532c-7.425-1.2-13.205,4.358-18.2,8.244a14.421,14.421,0,0,0-3.18,3.428c-2.581,3.857-3.388,8.678-4.922,13.258a24.48,24.48,0,0,1-4.135,7.737A21.031,21.031,0,0,1,398,224.74c-.338.251-.669.5-1,.758C393.5,228.128,390.486,230.675,389.616,235.348Z" transform="translate(-384.626 -188.264)"/><path class="m" d="M435.126,192.469c-4.18,2.28-8.542,4.737-10.691,8.8-2.311,4.368-1.813,10.176-5.278,13.758-1.236,1.277-2.946,2.229-3.61,3.864a15.407,15.407,0,0,0-.526,3.619c-.81,5.59-7.29,8.619-8.835,14a18.812,18.812,0,0,1-.823,2.925c-1.005,2.122-3.485,3.133-5.428,4.541a16.528,16.528,0,0,0-6.06,10.081,51.98,51.98,0,0,0-.69,12.176" transform="translate(-386.04 -188.963)"/></g><g transform="translate(68.469 7.843)"><rect class="p" width="41.003" height="28.199" transform="translate(112.794 173.433)"/><rect class="i" width="41.003" height="10.22" transform="translate(112.794 173.433)"/><path class="p" d="M282.273,379.587H199.046a4.759,4.759,0,0,0,0,9.518h83.227a4.759,4.759,0,0,0,4.759-4.759h0A4.76,4.76,0,0,0,282.273,379.587Z" transform="translate(-107.364 -178.399)"/><path class="i" d="M287.033,385.069a4.76,4.76,0,0,1-4.761,4.755H199.047a4.76,4.76,0,0,1-4.762-4.755,4.223,4.223,0,0,1,.151-1.155,4.744,4.744,0,0,0,4.611,3.608h83.226a4.743,4.743,0,0,0,4.61-3.608A4.19,4.19,0,0,1,287.033,385.069Z" transform="translate(-107.364 -179.118)"/><rect class="c" width="262.422" height="175.281" rx="3.5" transform="translate(2.084 2.085)"/><path class="p" d="M351.622,142.455a.835.835,0,0,1,.834.834V312.734a.835.835,0,0,1-.834.834H95.037a.835.835,0,0,1-.834-.834V143.289a.835.835,0,0,1,.834-.834H351.622m0-4.169H95.037a5,5,0,0,0-5,5V312.734a5,5,0,0,0,5,5H351.622a5,5,0,0,0,5-5V143.289a5,5,0,0,0-5-5Z" transform="translate(-90.034 -138.286)"/><g transform="translate(0 157.538)"><path class="p" d="M356.624,343.8V327.233H90.034V343.8a5.643,5.643,0,0,0,5.645,5.645h255.3A5.643,5.643,0,0,0,356.624,343.8Z" transform="translate(-90.034 -327.233)"/></g><g transform="translate(112.746 17.699)"><circle class="d" cx="20.549" cy="20.549" r="20.549"/><g class="q"><path class="e" d="M255.457,176.952a7.941,7.941,0,1,1-7.941-7.941A7.941,7.941,0,0,1,255.457,176.952ZM259.5,210.2V196.328a9.548,9.548,0,0,0-9.548-9.548h-4.87a9.548,9.548,0,0,0-9.548,9.548V210.2a2.646,2.646,0,0,0,2.646,2.646h18.674A2.646,2.646,0,0,0,259.5,210.2Z" transform="translate(-226.967 -161.093)"/></g></g><path class="d" d="M287.648,233.6H189.316a8.131,8.131,0,0,1-8.131-8.131h0a8.131,8.131,0,0,1,8.131-8.131h98.332a8.131,8.131,0,0,1,8.131,8.131h0A8.131,8.131,0,0,1,287.648,233.6Z" transform="translate(-105.186 -151.427)"/><path class="e" d="M286.113,228.79H194.607a2.123,2.123,0,0,1-2.123-2.124h0a2.124,2.124,0,0,1,2.123-2.124h91.506a2.124,2.124,0,0,1,2.124,2.124h0A2.123,2.123,0,0,1,286.113,228.79Z" transform="translate(-107.065 -152.625)"/><path class="d" d="M287.743,268.678H189.41a8.131,8.131,0,0,1-8.131-8.131h0a8.131,8.131,0,0,1,8.131-8.131h98.333a8.131,8.131,0,0,1,8.131,8.131h0A8.131,8.131,0,0,1,287.743,268.678Z" transform="translate(-105.202 -157.258)"/><path class="e" d="M193.626,264.04h0a2.124,2.124,0,0,1-2.124-2.124h0a2.124,2.124,0,0,1,2.124-2.124h0a2.123,2.123,0,0,1,2.124,2.124h0A2.124,2.124,0,0,1,193.626,264.04Zm8.438-2.124h0a2.124,2.124,0,0,0-2.124-2.124h0a2.123,2.123,0,0,0-2.124,2.124h0a2.124,2.124,0,0,0,2.124,2.124h0A2.124,2.124,0,0,0,202.063,261.917Zm6.313,0h0a2.123,2.123,0,0,0-2.123-2.124h0a2.123,2.123,0,0,0-2.124,2.124h0a2.124,2.124,0,0,0,2.124,2.124h0A2.124,2.124,0,0,0,208.377,261.917Zm6.314,0h0a2.123,2.123,0,0,0-2.124-2.124h0a2.123,2.123,0,0,0-2.123,2.124h0a2.124,2.124,0,0,0,2.123,2.124h0A2.124,2.124,0,0,0,214.691,261.917Zm6.314,0h0a2.123,2.123,0,0,0-2.124-2.124h0a2.123,2.123,0,0,0-2.124,2.124h0a2.124,2.124,0,0,0,2.124,2.124h0A2.124,2.124,0,0,0,221,261.917Zm6.313,0h0a2.123,2.123,0,0,0-2.123-2.124h0a2.123,2.123,0,0,0-2.124,2.124h0a2.124,2.124,0,0,0,2.124,2.124h0A2.124,2.124,0,0,0,227.318,261.917Zm6.314,0h0a2.123,2.123,0,0,0-2.124-2.124h0a2.123,2.123,0,0,0-2.123,2.124h0a2.124,2.124,0,0,0,2.123,2.124h0A2.124,2.124,0,0,0,233.632,261.917Z" transform="translate(-106.901 -158.485)"/><path class="e" d="M259.465,305.425h-27.93a8.131,8.131,0,0,1-8.131-8.131h0a8.131,8.131,0,0,1,8.131-8.131h27.93a8.131,8.131,0,0,1,8.131,8.131h0A8.132,8.132,0,0,1,259.465,305.425Z" transform="translate(-112.205 -163.367)"/></g><path class="r" d="M362,344.078v-9.294a5.537,5.537,0,0,0-5.537-5.537h-.483v-8.614a22.963,22.963,0,0,0-45.926,0v8.614h-.482a5.537,5.537,0,0,0-5.537,5.537v9.294Zm-44.357-23.445a15.375,15.375,0,1,1,30.749,0v8.614H317.638Z" transform="translate(-57.138 -156.938)"/><path class="r" d="M378.273,244.167a14.651,14.651,0,0,0-8.313-3.293c-.01-.305-.009-.607,0-1,1.7-.273,3.153-1.759,4-3.764,2.292-2.208,3.849-4.942,3.1-8.387a.669.669,0,0,1,.083-.506c-.986-1.764-2.8-2.612-4.821-4.439-6.779-6.142-14.835,2.392-11.784,5.906a6.308,6.308,0,0,1,.854,1.936c-.005.022-.013.036-.018.059a2.916,2.916,0,0,0,.5,2.318,10.111,10.111,0,0,1,.061,1.038.605.605,0,0,1,.039.1,4.142,4.142,0,0,0,.57,1.445A5.385,5.385,0,0,0,366,239.639c.161.054.325.106.5.147a2.505,2.505,0,0,1,.073,1.107,13.328,13.328,0,0,0-5.424,1.816c-12.958,6.264-25.769,26.448-24.358,30.9s5,9.66,7.4,13.14l.379-.067q.291,1.006.582,2.012a1.39,1.39,0,0,0,1.8,1.2,2.517,2.517,0,0,0,1.622-.462,1.733,1.733,0,0,0,.473-.863,3.661,3.661,0,0,0-.43-2.6l.282-.049s-5.585-8.359-5.382-13.456c.074-1.862,4.435-6.25,7.981-9.52-.082,1.135-.126,2.29-.126,3.463l-1.7,40.624s1.467.289,3.818.665l2.281,24.26h9.183l.218-22.853.359.026.319.023q.678.049,1.36.088l.463.026c.165.009.329.02.494.028l.9,22.662h9.053l1.854-23.08.034-.007c.374-.06.742-.125,1.1-.2.159-.033.313-.068.468-.1q.451-.1.882-.213c.156-.042.31-.083.461-.128.289-.083.567-.174.84-.269.126-.044.256-.086.379-.132.384-.145.755-.3,1.1-.468l-.186-43.941c0-.948-.029-1.869-.083-2.767,0-.068-.009-.134-.013-.2q-.081-1.256-.231-2.445c-.01-.078-.02-.158-.031-.236s-.018-.143-.028-.215c1.791.355,4.122.784,7.17,1.3a12.987,12.987,0,0,0,5.752-.356V249.6C390.006,250.467,381.515,246.124,378.273,244.167Z" transform="translate(-62.566 -144.13)"/><g transform="translate(177.9 96.333)"><circle class="s" cx="14.123" cy="14.123" r="14.123"/><circle class="t" cx="7.665" cy="7.665" r="7.665" transform="translate(6.459 6.459)"/></g><g transform="translate(241.164 140.733)"><path class="u" d="M327.343,297.671a22.989,22.989,0,0,0-22.963,22.963v22.083h45.925V320.634A22.989,22.989,0,0,0,327.343,297.671Zm-15.375,37.457V320.634a15.375,15.375,0,1,1,30.749,0v14.494Z" transform="translate(-298.36 -297.671)"/><path class="v" d="M328.265,303.114a18.357,18.357,0,0,0-18.336,18.336v17.632H346.6V321.45A18.357,18.357,0,0,0,328.265,303.114Zm15.375,32.919H312.891V321.539a15.375,15.375,0,0,1,30.749,0Z" transform="translate(-299.283 -298.576)"/><rect class="w" width="57.965" height="46.24" rx="6.766" transform="translate(0 31.577)"/><path class="u" d="M338.668,357.752a8.427,8.427,0,1,0-12.306,7.476v9.111h7.758v-9.111A8.421,8.421,0,0,0,338.668,357.752Z" transform="translate(-301.259 -306.258)"/><path class="x" d="M349.651,335.544H335.725a86.739,86.739,0,0,1-13.794,26.214c-5.6,7.277-14.418,16.512-24.393,16.318a5.534,5.534,0,0,0,5.221,3.707h46.891a5.537,5.537,0,0,0,5.537-5.536V341.08A5.537,5.537,0,0,0,349.651,335.544Z" transform="translate(-297.223 -303.967)"/></g><g transform="translate(268.386 76.489)"><path class="y" d="M338.641,297.428l1.106,3.819a1.389,1.389,0,0,0,1.8,1.2,2.52,2.52,0,0,0,1.622-.462,1.732,1.732,0,0,0,.473-.863,3.748,3.748,0,0,0-.529-2.777,11.116,11.116,0,0,0-1.887-2.194" transform="translate(-331.278 -233.175)"/><path class="y" d="M420.96,243.849a30.458,30.458,0,0,1,1.814-5.18,2.535,2.535,0,0,1,.286,1.843,4.175,4.175,0,0,1,2.031-2.145.338.338,0,0,1,.555.275,5.873,5.873,0,0,1-3.5,6.89" transform="translate(-344.962 -223.557)"/><path class="e" d="M374.976,387.308c3.244.79,5.96,1.745,7.449,3.081h-12.5l.239-2.9Z" transform="translate(-336.478 -248.328)"/><path class="e" d="M356.159,387.308c-3.244.79-5.96,1.745-7.449,3.081h12.5l-.239-2.9Z" transform="translate(-332.952 -248.328)"/><g transform="translate(14.659 64.243)"><path class="z" d="M377.806,299.545l-5.9,73.372a20.072,20.072,0,0,1-2.772.5,12.291,12.291,0,0,1-1.62-.225c-.684-.139-1.279-.278-1.279-.278l-2.206-55.463h-2.769l-.529,55.463a12,12,0,0,1-3.007.439,16.073,16.073,0,0,1-3.26-.439l-7.076-75.247Z" transform="translate(-347.392 -297.671)"/></g><g class="aa" transform="translate(23.381 64.781)"><path class="ab" d="M368.243,298.956l-10.384-.64c-.127,13.514,1.906,61.805,2.114,75.131a12.463,12.463,0,0,0,2.5-.423L363,317.562h2.769l2.206,55.463s.6.139,1.279.278c.2.036.407.072.608.1C369.865,358.3,368.5,305.168,368.243,298.956Z" transform="translate(-357.853 -298.316)"/></g><g transform="translate(23.193)"><path class="ac" d="M359.686,234.039a.693.693,0,0,1,.04.1c.446,2.426,2.749,3.669,5.308,4.376,2.08.574,2.563.825,4.233-.38,3.465-2.5,6.548-5.825,5.547-10.406a.669.669,0,0,1,.083-.506c-.986-1.764-2.8-2.611-4.821-4.439-6.779-6.142-14.835,2.392-11.784,5.906A10.805,10.805,0,0,1,359.686,234.039Z" transform="translate(-357.628 -220.619)"/></g><path class="ad" d="M380.772,267.438c0-13.947-5.773-22.62-16.829-22.62s-16.856,11.662-16.856,25.609l-1.7,40.624s25.773,5.111,35.57.328Z" transform="translate(-332.4 -224.642)"/><path class="ae" d="M382.594,269.876a36.632,36.632,0,0,0-1.345-10.391c-.981,15.178-2.312,55.589-24.9,55.427,8.4,1.05,20.421,1.841,26.434-1.095Z" transform="translate(-334.221 -227.08)"/><path class="y" d="M371.943,233.863c-.414-2.745-2.859-5.5-5.846-4.07a6.037,6.037,0,0,1-5.463.184c-.046.529-.111,1.3-.169,2.108-.331-.606-.884-.7-1.05.059-.178.811.042,2.32.915,2.6,0,.141,0,.283,0,.4.041,2.052.879,5.316,4.208,6.1a3.348,3.348,0,0,1-.09,1.926c.184.644,2.772,1.058,3.628.3a15.169,15.169,0,0,1-.068-2.134c1.969-.316,3.613-2.257,4.356-4.752C375.334,234.921,373.209,231.883,371.943,233.863Z" transform="translate(-334.722 -222.079)"/><path class="af" d="M372.876,234.156a6.112,6.112,0,0,0-1.35-2.991c.082,4.769-1.949,9.2-6.555,10.227.162.054.325.106.5.147a3.348,3.348,0,0,1-.09,1.926c.184.644,2.772,1.058,3.628.3a15.169,15.169,0,0,1-.068-2.134c1.969-.316,3.613-2.257,4.356-4.752C376.267,235.214,374.142,232.176,372.876,234.156Z" transform="translate(-335.655 -222.372)"/><path class="ad" d="M354.275,247.113c-12.959,6.264-25.769,26.448-24.358,30.9s5,9.66,7.4,13.14l4.707-.829s-5.585-8.359-5.382-13.456c.125-3.145,12.481-13.5,12.481-13.5Z" transform="translate(-329.81 -225.023)"/><path class="ad" d="M378.3,246.953c2.03,1.458,18.961,11.6,28.271,2.644,6.724-6.47,7.4-7.72,7.4-7.72l2.307,4.084s-10.523,18.57-23.252,16.422-13.052-2.809-13.052-2.809Z" transform="translate(-337.871 -224.153)"/></g><g transform="translate(87.512 79.343)"><path class="r" d="M124.887,326.471a20.388,20.388,0,0,0-11.573,8.747h34.4a20.385,20.385,0,0,0-11.573-8.747V242.206h-11.25v1.374H112.873v10.143h12.014v2.415H112.873v10.143h12.014Z" transform="translate(-112.873 -227.061)"/><g transform="translate(4.705 15.144)"><rect class="w" width="14.41" height="10.143" transform="translate(17.07 11.517) rotate(180)"/><rect class="w" width="14.41" height="10.143" transform="translate(17.07 24.076) rotate(180)"/><rect class="ag" width="3.673" height="10.143" transform="translate(17.07 11.517) rotate(180)"/><rect class="ag" width="3.673" height="10.143" transform="translate(17.07 24.076) rotate(180)"/><rect class="w" width="11.25" height="88.161" transform="translate(25.923 88.161) rotate(180)"/><rect class="ag" width="1.721" height="88.161" rx="0.822" transform="translate(21.159 91.197) rotate(-180)"/><g transform="translate(0 83.466)"><path class="w" d="M118.516,362.611a20.3,20.3,0,1,1,20.3,20.3A20.321,20.321,0,0,1,118.516,362.611Zm10.467,0a9.831,9.831,0,1,0,9.831-9.832A9.842,9.842,0,0,0,128.983,362.611Z" transform="translate(-118.516 -342.313)"/></g><path class="ag" d="M129.923,364.507A10.788,10.788,0,1,0,140.71,353.72,10.8,10.8,0,0,0,129.923,364.507Zm.956,0a9.831,9.831,0,1,1,9.831,9.832A9.842,9.842,0,0,1,130.879,364.507Z" transform="translate(-120.412 -260.743)"/></g><g transform="translate(23.851)"><path class="r" d="M216.448,258.1c-3.56,3.155-16.394,16.6-18.746,9.281-1.863-5.791-5.769-13.76-8.058-16.433a10.928,10.928,0,0,0-5.553-3.4v-.926c2.227-.01,5.707-.445,5.707-8.465a14.387,14.387,0,0,0-.647-5.068,2.451,2.451,0,0,0,.151-2.76,8.055,8.055,0,0,0-3.347-2.4c-2.574-1.14-5.936-1.671-8.405-.073a10.668,10.668,0,0,0-3.1-2.713,7.5,7.5,0,0,0-3.389-1.093c-2.373-.047-4.435,1.774-5.53,3.878a8.664,8.664,0,0,0-.941,5.584,6.234,6.234,0,0,0,3.318,4.461,2.975,2.975,0,0,0,1.642.324,3.409,3.409,0,0,0,1.889-1.142c1.266-1.318,1.482-2.891,2.414-4.316a1.577,1.577,0,0,1,.518-.484,10.272,10.272,0,0,0-.437,2.856,17.08,17.08,0,0,0,2.23,7.909,4.568,4.568,0,0,0,1.325,1.731,3.263,3.263,0,0,0,2.69.4l-.257,1.965a14.243,14.243,0,0,0-5.218,1.524v-.006c-9.647,2.217-16.923,25.9-29.825,24.332v.032c-1.568-.438-3.291-.562-3.381.975-.178,3.007,1.692,3.393,3.381,3.144v.063a24.625,24.625,0,0,0,18.852-8.51c-3.47,19.562-2.084,45.179-2.084,45.179.93.135,1.856.256,2.779.37L166,332.236h8.216l.02-17.1c1.658.068,3.305.1,4.938.091l.193,17.011H188.9l1.841-17.839c1.688-.238,3.36-.522,5.013-.868-.34-10.76-.384-24.824-1.1-37.006a3.958,3.958,0,0,0,1.765,1.013c1.12.277,5.943,5.84,9.413,1.611,3.52-4.29,10.874-13.143,13.569-17.706C218.813,259.936,217.259,259.49,216.448,258.1Z" transform="translate(-141.48 -224.042)"/><path class="ah" d="M193.782,248.6l-.542,4.151,4.366.479v-4.379Z" transform="translate(-150.084 -228.125)"/><path class="ai" d="M152.345,284.769s-5.779-2.847-5.946,0c-.319,5.394,5.946,2.354,5.946,2.354Z" transform="translate(-142.296 -233.926)"/><path class="y" d="M153.327,283.788s-5.78-2.848-5.947,0c-.319,5.394,5.947,2.354,5.947,2.354Z" transform="translate(-142.459 -233.763)"/><g transform="translate(39.755 7.133)"><path class="y" d="M189.161,239.572c0,3.774,3.9,8.467,7.669,8.467,2.221,0,5.8-.333,5.8-8.467,0-8.551-2.867-6.833-6.641-6.833A6.833,6.833,0,0,0,189.161,239.572Z" transform="translate(-189.161 -232.598)"/></g><path class="af" d="M194.9,242.77a29.753,29.753,0,0,1,1.59-10.015c-.165.006-.332.01-.5.01a6.833,6.833,0,0,0-6.832,6.833c0,3.7,3.749,8.278,7.454,8.45A7.621,7.621,0,0,1,194.9,242.77Z" transform="translate(-149.406 -225.49)"/><path class="w" d="M200.714,234.141c-.6.09-1.25-.2-1.818.03-.908.367-.969,1.751-1.806,2.26-1.046.635-2.621-.464-3.534.352-.538.481-.475,1.328-.419,2.052a15.4,15.4,0,0,1-.624,5.671c-.13.425.431,1.186.1,1.476-.557.483-2.165.06-2.769-.362a4.625,4.625,0,0,1-1.325-1.749,17.382,17.382,0,0,1-2.23-7.99,9.054,9.054,0,0,1,3.421-7.3c2.485-1.779,5.962-1.239,8.607-.056a8.065,8.065,0,0,1,3.346,2.424C202.27,231.966,202.175,233.923,200.714,234.141Z" transform="translate(-148.928 -224.606)"/><path class="ag" d="M200.759,229.823c-.89.8-1.788,2.233-2.459,2.7a10.377,10.377,0,0,1-3.093,1.1c-4.859,1.492-5.2,8.945-3.073,12.923a1.639,1.639,0,0,0,1.242-.173c.334-.29-.227-1.051-.1-1.476a15.4,15.4,0,0,0,.624-5.671c-.056-.724-.118-1.571.419-2.052.914-.816,2.489.283,3.534-.352.837-.509.9-1.893,1.806-2.26.568-.228,1.213.06,1.818-.03,1.461-.218,1.556-2.175.945-3.192A5.217,5.217,0,0,0,200.759,229.823Z" transform="translate(-149.694 -225.003)"/><path class="w" d="M184.914,225.147a7.453,7.453,0,0,0-3.39-1.1c-2.372-.047-4.434,1.792-5.53,3.918a8.828,8.828,0,0,0-.94,5.64,6.3,6.3,0,0,0,3.318,4.507,2.952,2.952,0,0,0,1.641.326,3.392,3.392,0,0,0,1.889-1.154c1.267-1.332,1.483-2.92,2.414-4.361.753-1.165,2.4-.686,3.507-1.446C190.619,229.546,186.636,226.1,184.914,225.147Z" transform="translate(-147.039 -224.042)"/><path class="ag" d="M186.585,231.242c-.509-.263-.906-.738-1.41-.991-.72-.785-4.411-1.194-5.18,3.944a6.109,6.109,0,0,1-2.623,3.885,5.437,5.437,0,0,0,1.407.983,2.952,2.952,0,0,0,1.641.326,3.4,3.4,0,0,0,1.889-1.154c1.267-1.332,1.483-2.92,2.414-4.361.753-1.165,2.4-.686,3.507-1.446a2.238,2.238,0,0,0,.794-.9A2.975,2.975,0,0,1,186.585,231.242Z" transform="translate(-147.446 -224.996)"/><path class="u" d="M184.494,387.308c3.243.79,5.959,1.745,7.449,3.081h-12.5l.239-2.9Z" transform="translate(-147.79 -251.182)"/><path class="u" d="M197.938,387.308c3.244.79,5.96,1.745,7.449,3.081h-12.5l.239-2.9Z" transform="translate(-150.025 -251.182)"/><path class="ai" d="M236.839,261.5a1.63,1.63,0,0,0-.262-.117,1.6,1.6,0,0,0-1.291.485,21.6,21.6,0,0,0-2.536,2.188h0a3.012,3.012,0,0,0-.485.539,2.022,2.022,0,0,0-.151,2.168,1.838,1.838,0,0,0,1.495.878,3.873,3.873,0,0,0,2.626-1.147,1.833,1.833,0,0,0,.113-2.228,1.8,1.8,0,0,0-1.151-.947,9.778,9.778,0,0,0,1.493-1.1.877.877,0,0,0,.263-.34A.317.317,0,0,0,236.839,261.5Z" transform="translate(-156.506 -230.245)"/><g transform="translate(75.552 30.155)"><g transform="translate(0 1.9)"><path class="y" d="M236.578,263.5a1.834,1.834,0,0,1-.113,2.229,3.867,3.867,0,0,1-2.626,1.146,1.839,1.839,0,0,1-1.495-.878,2.024,2.024,0,0,1,.151-2.167C233.4,262.51,235.655,261.773,236.578,263.5Z" transform="translate(-232.095 -262.488)"/></g><g transform="translate(0.881)"><path class="y" d="M235.283,262.376a9.742,9.742,0,0,0,1.813-1.3.869.869,0,0,0,.263-.34.315.315,0,0,0-.118-.38,1.132,1.132,0,0,0-1.552.369,21.446,21.446,0,0,0-2.536,2.188A4.518,4.518,0,0,0,235.283,262.376Z" transform="translate(-233.152 -260.209)"/></g></g><g transform="translate(51.794 26.903)"><path class="u" d="M214.447,273.211a111.41,111.41,0,0,0,12.511-10.121.633.633,0,0,1,.905.063c.77.915,2.028,2.28,1.9,2.855a1.961,1.961,0,0,1-.521.82l-11.763,13.036a12.834,12.834,0,0,1-2.53,2.343,4.335,4.335,0,0,1-3.293.694c-1.887-.467-2.943-2.41-3.971-4.06-5.066-8.137-4.231-11.078-3.613-13.585.431-1.744.975-3.463,1.29-5.235.1-.559-1.24-3.673-.476-3.712,2.288,2.673,5.718,10.816,8.057,16.433A1.026,1.026,0,0,0,214.447,273.211Z" transform="translate(-203.6 -256.309)"/></g><g transform="translate(26.047 68.112)"><path class="aj" d="M172.72,307.442l5.9,66.86a21.847,21.847,0,0,0,2.772.459,13.524,13.524,0,0,0,1.62-.205c.683-.127,1.278-.253,1.278-.253l.059-50.541h4.875l.571,50.541a13.074,13.074,0,0,0,3.007.4,17.54,17.54,0,0,0,3.26-.4l7.076-68.569Z" transform="translate(-172.72 -305.734)"/><g transform="translate(15.165 6.716)"><path class="ak" d="M190.909,313.791c.035,2.265-.122,4.309.667,6.366a3.984,3.984,0,0,0,4.021,2.615c2.919-.06,4.944-1.652,4.956-4.6a28.973,28.973,0,0,1,.379-4.384Z" transform="translate(-190.909 -313.789)"/></g><g transform="translate(1.322 6.722)"><path class="ak" d="M174.306,313.8a25.34,25.34,0,0,0,.494,6.368c.437,1.61,1.418,2.664,2.813,2.633,2.033-.046,3.167-2.306,3.431-4.576.043-.375.111-4.375.243-4.381Z" transform="translate(-174.306 -313.796)"/></g><g transform="translate(0.088 3.957)"><path class="al" d="M184.359,324.544l.022,0a.123.123,0,0,0,.1-.142c-.781-4.542-.244-13.238-.239-13.325a.12.12,0,0,0-.035-.093.128.128,0,0,0-.093-.036c-.079,0-7.867.366-11.136-.461a.12.12,0,0,0-.148.089.121.121,0,0,0,.088.148c3.06.774,10.011.519,11.072.474-.065,1.129-.483,8.989.25,13.248A.123.123,0,0,0,184.359,324.544Z" transform="translate(-172.825 -310.48)"/></g><g transform="translate(12.081 2.661)"><path class="al" d="M187.727,324.286h.011a.123.123,0,0,0,.111-.133,72.742,72.742,0,0,1-.171-13.173,103.343,103.343,0,0,0,16.775-1.813.122.122,0,0,0,.1-.142.12.12,0,0,0-.142-.1,102.7,102.7,0,0,1-16.843,1.811.12.12,0,0,0-.12.111,72.621,72.621,0,0,0,.159,13.325A.122.122,0,0,0,187.727,324.286Z" transform="translate(-187.209 -308.925)"/></g><g class="am" transform="translate(8.77 17.864)"><path class="an" d="M184.756,378.118c.683-.127,1.278-.253,1.278-.253l.059-50.541h.409a.294.294,0,0,0-.409-.127,5.07,5.07,0,0,0-2,1.874,3.875,3.875,0,0,0-.761,2.2C182.941,346.845,183.848,358.7,184.756,378.118Z" transform="translate(-183.238 -327.16)"/></g><g transform="translate(22.728 3.771)"><path class="al" d="M200.089,373.651a.122.122,0,0,1-.109-.133l.1-1a.118.118,0,0,1,.133-.108.122.122,0,0,1,.108.133l-.1,1a.121.121,0,0,1-.121.11Zm.3-2.945a.121.121,0,0,1-.108-.133l.2-1.941a.114.114,0,0,1,.133-.109.121.121,0,0,1,.109.133l-.2,1.942a.122.122,0,0,1-.121.11Zm.4-3.884a.122.122,0,0,1-.108-.133l.2-1.942a.122.122,0,0,1,.242.025l-.2,1.941a.122.122,0,0,1-.122.11Zm.4-3.884a.121.121,0,0,1-.108-.133l.2-1.943c.007-.067.071-.128.133-.108a.121.121,0,0,1,.108.133l-.2,1.943a.121.121,0,0,1-.121.109Zm.4-3.885a.12.12,0,0,1-.108-.133l.2-1.943a.117.117,0,0,1,.133-.108.122.122,0,0,1,.109.133l-.2,1.943a.122.122,0,0,1-.121.11Zm.4-3.884a.121.121,0,0,1-.108-.133l.2-1.942c.006-.067.067-.13.133-.108a.121.121,0,0,1,.108.133l-.2,1.941a.12.12,0,0,1-.121.11Zm.4-3.885a.121.121,0,0,1-.108-.133l.2-1.942a.117.117,0,0,1,.133-.108.121.121,0,0,1,.108.133l-.2,1.942a.121.121,0,0,1-.121.109Zm.4-3.884a.122.122,0,0,1-.109-.133l.2-1.941c.007-.068.071-.131.133-.109a.122.122,0,0,1,.109.133l-.2,1.942a.121.121,0,0,1-.121.109Zm.4-3.883a.121.121,0,0,1-.108-.133l.2-1.943a.115.115,0,0,1,.133-.108.121.121,0,0,1,.108.133l-.2,1.942a.12.12,0,0,1-.121.11Zm.4-3.884a.121.121,0,0,1-.108-.133l.2-1.943a.12.12,0,0,1,.121-.109h.012a.121.121,0,0,1,.108.133l-.2,1.943a.121.121,0,0,1-.121.109Zm.4-3.885a.122.122,0,0,1-.109-.133l.2-1.941c.007-.067.072-.129.133-.109a.12.12,0,0,1,.108.133l-.2,1.942a.121.121,0,0,1-.121.11Zm.4-3.884a.121.121,0,0,1-.108-.133l.2-1.942a.116.116,0,0,1,.133-.108.121.121,0,0,1,.108.133l-.2,1.941a.121.121,0,0,1-.121.11Zm.4-3.884a.121.121,0,0,1-.108-.133l.2-1.943a.113.113,0,0,1,.134-.108.121.121,0,0,1,.108.133l-.2,1.943a.121.121,0,0,1-.121.109Zm.4-3.884a.121.121,0,0,1-.109-.134l.2-1.942a.119.119,0,0,1,.133-.109.12.12,0,0,1,.108.133l-.2,1.943a.121.121,0,0,1-.122.11Zm.4-3.885a.121.121,0,0,1-.108-.133l.2-1.942c.007-.067.071-.131.133-.108a.121.121,0,0,1,.108.133l-.2,1.941a.121.121,0,0,1-.121.11Zm.4-3.885a.122.122,0,0,1-.109-.133l.2-1.942a.115.115,0,0,1,.133-.108.122.122,0,0,1,.109.133l-.2,1.942a.121.121,0,0,1-.121.109Zm.4-3.884a.121.121,0,0,1-.109-.133l.2-1.941c.006-.067.067-.131.133-.109a.121.121,0,0,1,.108.133l-.2,1.942a.12.12,0,0,1-.121.109Z" transform="translate(-199.979 -310.257)"/></g></g><path class="u" d="M181.263,253.65c-9.646,2.217-16.922,25.9-29.825,24.332V282.2c6.039,0,14.285-1.928,21.046-11.194C182.261,257.6,181.263,253.65,181.263,253.65Z" transform="translate(-143.135 -228.964)"/><path class="ao" d="M181.263,253.65c-9.646,2.217-16.922,25.9-29.825,24.332V282.2c6.039,0,14.285-1.928,21.046-11.194C182.261,257.6,181.263,253.65,181.263,253.65Z" transform="translate(-143.135 -228.964)"/><path class="u" d="M199.5,255.553c5.923,6.789,5.429,41.209,6.1,62.584-10.676,2.24-22.121,2.146-34.108.414,0,0-1.864-34.44,4.14-53.949C179.71,251.357,193.247,248.39,199.5,255.553Z" transform="translate(-146.424 -228.65)"/><path class="ao" d="M179.665,302.376A75.808,75.808,0,0,1,176.472,280c.018-6.391.176-13.331,1.854-19.64a21.043,21.043,0,0,0-2.692,5.673c-6,19.508-4.14,53.949-4.14,53.949a116.781,116.781,0,0,0,17.736,1.279A57.159,57.159,0,0,1,179.665,302.376Z" transform="translate(-146.424 -230.079)"/></g></g></g></g></svg>