<svg xmlns="http://www.w3.org/2000/svg" width="33.163" height="33.163" viewBox="0 0 33.163 33.163"><defs><style>.a{fill:#5a5a5a;}</style></defs><g transform="translate(11.607 11.054)"><rect class="a" width="1.105" height="1.105"/></g><g transform="translate(11.607 13.265)"><rect class="a" width="1.105" height="1.105"/></g><g transform="translate(11.607 15.476)"><rect class="a" width="1.105" height="1.105"/></g><g transform="translate(11.607 17.687)"><rect class="a" width="1.105" height="1.105"/></g><g transform="translate(13.818 11.054)"><rect class="a" width="1.105" height="1.105"/></g><g transform="translate(13.818 13.265)"><rect class="a" width="1.105" height="1.105"/></g><g transform="translate(13.818 15.476)"><rect class="a" width="1.105" height="1.105"/></g><g transform="translate(13.818 17.687)"><rect class="a" width="1.105" height="1.105"/></g><g transform="translate(16.029 11.054)"><rect class="a" width="1.105" height="1.105"/></g><g transform="translate(16.029 13.265)"><rect class="a" width="1.105" height="1.105"/></g><g transform="translate(16.029 15.476)"><rect class="a" width="1.105" height="1.105"/></g><g transform="translate(16.029 17.687)"><rect class="a" width="1.105" height="1.105"/></g><g transform="translate(18.239 11.054)"><rect class="a" width="1.105" height="1.105"/></g><g transform="translate(13.818 8.843)"><rect class="a" width="1.105" height="1.105"/></g><g transform="translate(16.029 8.843)"><rect class="a" width="1.105" height="1.105"/></g><g transform="translate(18.239 8.843)"><rect class="a" width="1.105" height="1.105"/></g><g transform="translate(18.239 13.265)"><rect class="a" width="1.105" height="1.105"/></g><g transform="translate(18.239 15.476)"><rect class="a" width="1.105" height="1.105"/></g><g transform="translate(18.239 17.687)"><rect class="a" width="1.105" height="1.105"/></g><g transform="translate(20.45 11.054)"><rect class="a" width="1.105" height="1.105"/></g><g transform="translate(20.45 13.265)"><rect class="a" width="1.105" height="1.105"/></g><g transform="translate(20.45 15.476)"><rect class="a" width="1.105" height="1.105"/></g><g transform="translate(20.45 17.687)"><rect class="a" width="1.105" height="1.105"/></g><g transform="translate(0 0)"><g transform="translate(0 0)"><path class="a" d="M32.611,8.291H24.319V.553A.552.552,0,0,0,23.767,0H9.4a.552.552,0,0,0-.553.552h0V8.291H.553A.552.552,0,0,0,0,8.843H0v19.9a.552.552,0,0,0,.552.553H1.708a3.317,3.317,0,0,0-.05.553V32.61a.552.552,0,0,0,.552.553H30.952a.552.552,0,0,0,.553-.552h0V29.846a3.3,3.3,0,0,0-.05-.553H32.61a.552.552,0,0,0,.553-.552h0V8.843A.552.552,0,0,0,32.611,8.291ZM23.767,23.767a1.105,1.105,0,1,1-1.105-1.105A1.105,1.105,0,0,1,23.767,23.767ZM10.5,22.661A1.105,1.105,0,1,1,9.4,23.767,1.105,1.105,0,0,1,10.5,22.661Zm-3.316,9.4H2.764V29.846a2.211,2.211,0,0,1,4.422,0ZM3.869,25.425A1.105,1.105,0,1,1,4.974,26.53,1.105,1.105,0,0,1,3.869,25.425Zm3.4,2.033a3.332,3.332,0,0,0-.7-.515,2.211,2.211,0,1,0-3.2,0,3.338,3.338,0,0,0-1.268,1.245h-1V9.4H8.843V22.32A2.181,2.181,0,0,0,8.9,25.285,3.326,3.326,0,0,0,7.269,27.458Zm5.443,4.6H8.291V28.188a2.211,2.211,0,1,1,4.422,0Zm6.633,0H13.818V28.188a2.764,2.764,0,1,1,5.527,0Zm-4.422-9.4a1.658,1.658,0,1,1,1.658,1.658A1.658,1.658,0,0,1,14.923,22.661Zm5.024,3.627a3.893,3.893,0,0,0-1.586-1.531,2.764,2.764,0,1,0-3.561,0,3.893,3.893,0,0,0-1.586,1.531,3.338,3.338,0,0,0-1.114-1,2.195,2.195,0,0,0-2.152-3.651V1.105H23.214V21.634a2.2,2.2,0,0,0-2.152,3.651A3.338,3.338,0,0,0,19.947,26.288Zm4.925,3.558v2.211H20.45V28.188a2.211,2.211,0,1,1,4.422,0ZM30.4,32.057H25.977V29.846a2.211,2.211,0,0,1,4.422,0Zm-3.316-6.633a1.105,1.105,0,1,1,1.105,1.105A1.105,1.105,0,0,1,27.083,25.425Zm4.974,2.764h-1a3.338,3.338,0,0,0-1.268-1.245,2.211,2.211,0,1,0-3.2,0,3.33,3.33,0,0,0-.7.515,3.325,3.325,0,0,0-1.633-2.173,2.181,2.181,0,0,0,.059-2.965V9.4h7.738V28.188Z" transform="translate(0 0)"/></g></g><g transform="translate(25.977 12.712)"><rect class="a" width="1.105" height="8.843"/></g><g transform="translate(29.294 12.712)"><rect class="a" width="1.105" height="8.843"/></g><g transform="translate(2.764 12.712)"><rect class="a" width="1.105" height="8.843"/></g><g transform="translate(6.08 12.712)"><rect class="a" width="1.105" height="8.843"/></g><g transform="translate(12.712 2.211)"><path class="a" d="M191.186,32h-6.633a.552.552,0,0,0-.553.552h0v4.422a.552.552,0,0,0,.552.553h6.633a.552.552,0,0,0,.553-.552h0V32.553A.552.552,0,0,0,191.186,32Zm-.553,4.422h-5.527V33.105h5.527Z" transform="translate(-184 -32)"/></g></svg>