<svg xmlns="http://www.w3.org/2000/svg" xmlns:xlink="http://www.w3.org/1999/xlink" width="401.226" height="446.267" viewBox="0 0 401.226 446.267"><defs><style>.a{fill:url(#a);}.b{fill:#fff;}.c{fill:url(#e);}.d{fill:url(#f);}.e{fill:#5c5049;}.f{fill:#fab46c;}.g{fill:#fccca2;}.h{fill:#d4c3bd;}.i{fill:#de9673;}.j{fill:#2f4563;}.k{fill:#eea886;}.l{fill:#e6d3cc;}.m{fill:#ded1c5;}.n{fill:#bc8551;}.o{fill:#a77860;}.p{fill:#23344a;}.q{fill:#807066;}.r{fill:url(#g);}</style><linearGradient id="a" y1="0.5" x2="1" y2="0.5" gradientUnits="objectBoundingBox"><stop offset="0" stop-color="#40d5e6"/><stop offset="1" stop-color="#57f"/></linearGradient><linearGradient id="e" y1="0.5" x2="1" y2="0.5" gradientUnits="objectBoundingBox"><stop offset="0" stop-color="#ff9340"/><stop offset="1" stop-color="#ffce45"/></linearGradient><linearGradient id="f" y1="0.5" x2="1" y2="0.5" gradientUnits="objectBoundingBox"><stop offset="0" stop-color="#c97332"/><stop offset="1" stop-color="#ffce45"/></linearGradient><linearGradient id="g" x1="0.502" y1="0.452" x2="0.499" y2="-0.078" gradientUnits="objectBoundingBox"><stop offset="0" stop-color="#ffebe3"/><stop offset="1" stop-color="#eddad4"/></linearGradient></defs><g transform="translate(-826.002 -254.191)"><g transform="translate(843.722 254.191)"><g transform="translate(185.537 5.211)"><path class="a" d="M219.4,178.635c10.422-4.983,20.794,28.194,20.794,28.194,17.716,23.407,42.471-7.731,40.05,27.26-4.237,61.228,70.475,19.254,36.007,83.177s30.435,36.146,9.016,87.69,6.341,113.021-25.887,87.757c0,0-28.38-62.23-57.647-81.484s17.534-42.1,8.378-68.254c-13.3-37.984-45.346-36.49-22.241-77.312S183.971,195.578,219.4,178.635Z" transform="translate(-208.84 -178.125)"/><g transform="translate(41.953 64.912)"><path class="b" d="M289.071,437.548c-13.972-9.823-30.32-78.29-31.3-119.072-.5-20.89-6.674-29.593-12.124-37.273-5.206-7.339-9.705-13.678-7.087-28.231,5.01-27.818-8.155-39.825-8.288-39.939l1.523-1.74c.587.513,14.295,12.9,9.042,42.088-2.45,13.6,1.587,19.285,6.7,26.486,5.359,7.554,12.034,16.958,12.547,38.551,1.049,43.769,17.765,108.414,30.318,117.242Z" transform="translate(-230.276 -211.293)"/></g><g transform="translate(88.667 159.096)"><path class="a" d="M271.452,396.565a29.66,29.66,0,0,1-5.907-.642c-5.384-1.086-8.915-3.928-10.492-8.443-3.767-10.768,4.959-28.264,12.04-36.7.117-.141,11.972-14.629,10.707-34.709-.213-3.364-.56-6.482-.869-9.228-.89-7.948-1.536-13.69,1.879-17.524,3.008-3.38,8.815-4.844,19.414-4.895,18.593-.088,25.945-7.785,31.852-13.97,2.509-2.626,4.879-5.108,7.758-6.68h0c9.265-5.059,19.08-5.8,23.336-1.769,2.022,1.918,3.728,5.672.38,12.672-3.061,6.4-7.028,10.447-10.22,13.7-4.29,4.38-7.124,7.273-5.648,13.038.343,1.352.744,2.718,1.145,4.09,2.867,9.805,6.116,20.916-10.664,28.458-3.56,1.6-6.8,2.873-9.664,4-11.713,4.593-18.782,7.37-26.763,24.217-1.544,3.261-2.908,6.349-4.227,9.339C289.216,385.778,284.455,396.563,271.452,396.565ZM338.942,265.8c-2.564,1.4-4.709,3.646-7.194,6.247-6.21,6.5-13.939,14.592-33.512,14.688-9.746.045-15.2,1.315-17.7,4.116-2.726,3.067-2.133,8.378-1.311,15.731.313,2.773.665,5.92.883,9.341a55.181,55.181,0,0,1-11.242,36.336c-7.014,8.349-14.952,24.963-11.633,34.457,1.29,3.689,4.239,6.024,8.772,6.942,15.8,3.192,20.16-6.693,27.39-23.074,1.325-3,2.7-6.108,4.253-9.4,8.373-17.675,16.183-20.741,28.008-25.378,2.838-1.116,6.053-2.378,9.562-3.953,14.943-6.717,12.248-15.939,9.394-25.7-.409-1.4-.814-2.791-1.168-4.167-1.8-7.026,1.75-10.647,6.235-15.228,3.233-3.3,6.893-7.03,9.786-13.081,1.519-3.171,2.769-7.48.117-9.995-3.492-3.311-12.365-2.4-20.64,2.118Z" transform="translate(-254.145 -259.417)"/></g><g transform="translate(98.009 177.546)"><path class="a" d="M261.225,400.88l-2.307-.119c.115-2.167,3.026-53.267,23.542-68.219,22.507-16.406,29.6-34.04,32.983-45.875,3.983-13.944,24.252-17.671,25.114-17.823l.4,2.278c-.194.033-19.708,3.63-23.294,16.181-3.472,12.161-10.76,30.276-33.844,47.108C264.185,348.719,261.253,400.362,261.225,400.88Z" transform="translate(-258.918 -268.844)"/></g><path class="a" d="M322.621,205.02c-14.58-5-11.551,23.1-17.714,43.9s-68.546,9.073-42.358,61.144-33.118,17.416-15.406,62.856,1.542,94.037,20.8,81.678,10.817-69.585,30.838-76.384,23.294-14.727,3.468-33.212,51.951-36.839,34.236-74.161S339.468,210.8,322.621,205.02Z" transform="translate(-175.397 -152.944)"/><g transform="translate(92.417 117.257)"><path class="b" d="M265.12,420.257c-1.836-7.781-17.495-76.239-2.885-84.514,12.882-7.294,12.565-35.662,10.555-62.447-1.777-23.712,28.675-34.8,29.973-35.257l.773,2.178c-.3.108-30.089,10.956-28.441,32.907,2.063,27.509,2.284,56.7-11.719,64.628-11.1,6.286-.881,61.3,3.992,81.973Z" transform="translate(-256.061 -238.039)"/></g><path class="c" d="M320.742,318.689l-20.817,78.986H253.4l-20.819-78.986Z" transform="translate(-186.119 -43.592)"/><path class="d" d="M320.743,318.689s-45.833,8.605-45.833,78.985H253.4l-20.818-78.985Z" transform="translate(-186.119 -43.591)"/></g><g transform="translate(0)"><g transform="translate(159.26 231.685)"><path class="e" d="M212.947,420.518,194.928,300.68l3.469-.531,18.019,119.835Z" transform="translate(-194.928 -300.148)"/></g><g transform="translate(137.256 231.685)"><path class="e" d="M201.7,420.518,183.685,300.68l3.473-.531,18.017,119.835Z" transform="translate(-183.685 -300.148)"/></g><g transform="translate(43.427 231.685)"><path class="e" d="M139.213,420.518l-3.471-.535,18.019-119.835,3.469.531Z" transform="translate(-135.743 -300.148)"/></g><path class="f" d="M221.238,374.921l14.115-148.5s-24.685-3.227-39.6-2.433L173.33,374.921Z" transform="translate(-56.34 -141.481)"/><rect class="f" width="47.909" height="7.549" transform="translate(116.989 225.89)"/><path class="f" d="M160.978,368.78l-7.49-141.514s62.481-6.785,100.856-.937Z" transform="translate(-75.331 -141.392)"/><path class="g" d="M212.474,221.815s9.649-28.292-8.762-37.062-34.044,3.908-37,10.768-2.172,19.334.346,28.034,2.153,21.945-3.319,26.372-12.253,11.784-11.919,26.76c.207,9.288,36.553-23.763,36.553-23.763Z" transform="translate(-76.935 -181.767)"/><path class="h" d="M173.844,373.4s-.573,20,2.282,21.2,13.661-5.748,18.426-12.625-5.971-22.879-7.735-31.7c-.738-3.7-9.134-10.347-13.226-8.445s-7.085,6.789-7.085,6.789S176.927,355.749,173.844,373.4Z" transform="translate(-62.871 -28.902)"/><g transform="translate(103.636 312.916)"><path class="i" d="M166.507,348.443a110.407,110.407,0,0,1,5.37,12.118c1.822,5.294,2.163,19.955,3.311,20.972s10.2-3.55,11.412-9.032-2.464-16.44-5.959-22.2a35.875,35.875,0,0,0-7.049-8.646S167.415,342.856,166.507,348.443Z" transform="translate(-166.507 -341.654)"/></g><path class="h" d="M176.885,345.969l9.732,14.2-1.844,1.261-7.521-10.976Z" transform="translate(-52.938 -24.608)"/><path class="i" d="M176.847,268.345s4.758,8.034,0,13.884-36.751,21.92-36.516,31.2,6.094,23.81,8.2,27.5,9.876,18.98,13.911,27.932,27.378,51.767,31.942,61.418,1.754-38.6,1.754-38.6L172.8,323.226,227.335,270.1S220.732,255.406,176.847,268.345Z" transform="translate(-87.925 -104.002)"/><path class="j" d="M189.385,219.8s-15.13,3.354-21.135,6.866-19.344,19.657-19.344,26.6,58.328,13.43,58.328,13.43l11.058,40.365s29.482-7.2,32.993-13.165-11.61-48.434-13.717-57.386S224.433,221.523,212.15,219.8A84.513,84.513,0,0,0,189.385,219.8Z" transform="translate(-79.717 -146.096)"/><path class="k" d="M220.127,266.417s-1.053,6.9,1.754,9.827,15.743,19.982,8.893,36.739c-6.29,15.387-18.487,15.093-18.487,15.093H193.411s5.48,27.7,3.713,45.945-10.1,59.932-10.271,62.036-7.981,8.691-10.263,5.357c0,0-.211-25.1-1.442-34.572s-6.455-47.383-8.036-53-10.88-22.64-10.88-24.4-9.085-29.229,10.748-36.248S193.818,266.564,220.127,266.417Z" transform="translate(-74.693 -100.748)"/><path class="l" d="M166.523,377.973s-13.019,15.183-11.555,17.915,14.236,4.12,22.268,1.771,9.743-21.546,13.925-29.517c1.752-3.335-.6-13.788-4.977-14.882s-9.776.826-9.776.826S180.017,366.187,166.523,377.973Z" transform="translate(-74.025 -17.951)"/><g transform="translate(88.319 334.214)"><path class="k" d="M172.745,354.458a110.31,110.31,0,0,1-3.448,12.8c-1.912,5.263-10.864,16.874-10.611,18.387s10.165,3.656,14.553.155,8.421-14.33,9.328-21.01a35.923,35.923,0,0,0-.045-11.155S176.965,350.684,172.745,354.458Z" transform="translate(-158.68 -352.536)"/></g><path class="l" d="M175.161,360.7,173.8,377.861l-2.227-.178,1.055-13.262Z" transform="translate(-58.025 -10.509)"/><path class="j" d="M244.044,316.237c-5.938,15.59-18.487,15.093-18.487,15.093H206.683s-7.875-12.477-27.157-14.622a57.14,57.14,0,0,0-14.539.346c-.065.01-.131.018-.2.029-25.619,3.795-20.669,13.2-20.593,13.443-2.127-5.2-4.364-13.467-3.826-17.919,2.456-20.278,31.756-24.53,36.516-30.38s0-13.884,0-13.884c43.886-12.939,50.487,1.754,50.487,1.754,1.922-.266,6.854-3.106,8.95-3.12,0,0,2.2,4.8,3.742,9.128C241.43,279.925,250.487,299.32,244.044,316.237Z" transform="translate(-87.964 -104.002)"/><path class="m" d="M225.8,233.164l6.492,60.372H146.825l-6.494-60.372Z" transform="translate(-87.924 -132.574)"/><rect class="m" width="14.275" height="5.432" transform="translate(136.892 155.53)"/><rect class="n" width="235.409" height="8.217" transform="translate(0 160.962)"/><path class="k" d="M184.833,185.945s19.148,5.664,16.412,32.237-15.242,25.206-16.412,25.4-16.021,1.174-20.712-31.065S184.833,185.945,184.833,185.945Z" transform="translate(-65.707 -178.134)"/><path class="k" d="M189.651,215.664s-1.012,8.8.681,14.269-22.3,5.621-22.289,1.121c.014-5.11,2.454-9.38.157-18.137S189.651,215.664,189.651,215.664Z" transform="translate(-61.401 -155.101)"/><path class="g" d="M180.569,198.6s10.406,16.551,21.356,20.387c0,0,5.979-27.769-18.716-33.592s-20.829,28.053-18.986,37.085A73.348,73.348,0,0,1,180.569,198.6Z" transform="translate(-66.386 -178.936)"/><path class="o" d="M169.574,213.285s7.576,7.893,17.266.822c0,0-.8,5.045-7.77,5.7S169.574,213.285,169.574,213.285Z" transform="translate(-59.935 -151.601)"/><path class="p" d="M164.766,196.682s5.478-10.606,14.725-11.079,14.747,7.549,14.747,7.549a15.724,15.724,0,0,0-14.737-9.032C168.377,184.119,164.766,196.682,164.766,196.682Z" transform="translate(-64.537 -179.516)"/><path class="k" d="M193.76,219.88s-.341,18.395-14.925,18.941-11.551-17.639-11.551-17.639S177.955,216.856,193.76,219.88Z" transform="translate(-62.378 -146.316)"/><rect class="q" width="6.047" height="188.759" transform="translate(229.362 169.178)"/><rect class="q" width="6.045" height="188.759" transform="translate(0 169.178)"/></g></g><path class="r" d="M86.187,346.4H443.175s28.109-2.337,13.576,22.314-70.474,18.768-105.15,54.064-29.1-16.668-74.616-19.607S92.52,395.319,91.265,373.751,71.057,346.9,86.187,346.4Z" transform="translate(745.645 265.443)"/></g></svg>