<svg xmlns="http://www.w3.org/2000/svg" width="59.005" height="54.572" viewBox="0 0 59.005 54.572"><defs><style>.a{fill:#10a9f5;}</style></defs><g transform="translate(-8.9 -12)"><path class="a" d="M67.4,65.192H65.943V63.3a2.232,2.232,0,1,0-2.907-2.107A2.281,2.281,0,0,0,64.49,63.3v1.962H60.566V63.375a2.879,2.879,0,0,0,2.18-2.761,2.691,2.691,0,0,0-1.163-2.253,2.3,2.3,0,0,0,.654-1.671,2.4,2.4,0,0,0-4.8,0,2.646,2.646,0,0,0,.654,1.671,2.789,2.789,0,0,0-1.163,2.253,2.9,2.9,0,0,0,2.035,2.761v1.889H56.206V23.554a.687.687,0,0,0-.727-.727h-.363a4.249,4.249,0,0,0-1.889-2.834c-.073-1.6-1.09-2.979-2.253-2.979h-.581V12.727a.727.727,0,0,0-1.453,0v4.215h-.8c-1.09,0-2.107,1.453-2.253,2.979A4.249,4.249,0,0,0,44,22.755h-.363a.687.687,0,0,0-.727.727v9.81H37.094V26.315a.687.687,0,0,0-.727-.727h-.291a4.125,4.125,0,0,0-1.962-3.2c-.073-1.6-1.09-2.979-2.253-2.979h-.8V15.2a.727.727,0,1,0-1.453,0v4.215h-.8c-1.09,0-2.107,1.453-2.253,2.979a4.25,4.25,0,0,0-1.962,3.2h-.291a.687.687,0,0,0-.727.727V38.232H22.2l-.581-7.485a.717.717,0,0,0-.727-.654H19.073a.717.717,0,0,0-.727.654l-.509,7.485h-.581a.687.687,0,0,0-.727.727V65.192H12.461V63.23A2.886,2.886,0,0,0,14.713,60.4a2.824,2.824,0,0,0-1.163-2.325,2.407,2.407,0,0,0,.727-1.744,2.5,2.5,0,0,0-2.471-2.471,2.45,2.45,0,0,0-2.471,2.471,2.537,2.537,0,0,0,.727,1.744,2.88,2.88,0,0,0,.945,5.087v1.962H9.772a.727.727,0,1,0,0,1.453H67.178a.687.687,0,0,0,.727-.727C67.9,65.41,67.76,65.192,67.4,65.192Zm-55.372-9.81A1.039,1.039,0,0,1,13.042,56.4a1.017,1.017,0,1,1-2.035,0A1.039,1.039,0,0,1,12.025,55.382ZM10.571,60.4a1.453,1.453,0,1,1,1.453,1.453A1.458,1.458,0,0,1,10.571,60.4Zm18.385-39.53h2.979a1.952,1.952,0,0,1,.727,1.163H28.3A2.477,2.477,0,0,1,28.956,20.865Zm-.945,2.616h4.941a2.578,2.578,0,0,1,1.744,2.18H26.267A2.578,2.578,0,0,1,28.011,23.481Zm-8.066,8.066h.509l.509,6.685H19.509Zm5.087,33.644H22.489V61.849a1.308,1.308,0,1,1,2.616,0v3.343Zm4.869,0H26.485V61.849a2.761,2.761,0,1,0-5.523,0v3.343H18.129V39.686h11.7V65.192Zm5.813,0h-4.36V38.959a.687.687,0,0,0-.727-.727H25.25V27.115H35.714Zm12.426-46.8h2.979a1.952,1.952,0,0,1,.727,1.163h-4.36A1.975,1.975,0,0,1,48.14,18.395ZM47.2,21.011h4.941c.509,0,1.381.727,1.671,1.744H45.524C45.814,21.737,46.686,21.011,47.2,21.011ZM44.361,65.192H41.818V61.849a1.308,1.308,0,1,1,2.616,0v3.343Zm4.578,0H45.814V61.849a2.761,2.761,0,1,0-5.523,0v3.343H37.167V34.744H48.939Zm5.959,0H50.392V34.018a.687.687,0,0,0-.727-.727H44.434V24.281H54.9Zm4.941-9.519a.945.945,0,1,1-.945.945A.962.962,0,0,1,59.839,55.672Zm-1.381,4.869a1.38,1.38,0,0,1,1.381-1.381,1.381,1.381,0,0,1,0,2.761A1.38,1.38,0,0,1,58.458,60.541Zm6.831,1.381a.8.8,0,1,1,.8-.8A.806.806,0,0,1,65.289,61.922Z"/><path class="a" d="M25.427,55.571a.687.687,0,0,0,.727-.727V53.827a.727.727,0,1,0-1.453,0v1.017A.728.728,0,0,0,25.427,55.571Z" transform="translate(-4.319 -11.234)"/><path class="a" d="M29.527,55.571a.687.687,0,0,0,.727-.727V53.827a.727.727,0,1,0-1.453,0v1.017A.687.687,0,0,0,29.527,55.571Z" transform="translate(-5.439 -11.234)"/><path class="a" d="M33.527,55.571a.687.687,0,0,0,.727-.727V53.827a.727.727,0,0,0-1.453,0v1.017A.728.728,0,0,0,33.527,55.571Z" transform="translate(-6.533 -11.234)"/><path class="a" d="M25.427,61.271a.687.687,0,0,0,.727-.727V59.527a.727.727,0,1,0-1.453,0v1.017A.781.781,0,0,0,25.427,61.271Z" transform="translate(-4.319 -12.792)"/><path class="a" d="M29.527,61.271a.687.687,0,0,0,.727-.727V59.527a.727.727,0,1,0-1.453,0v1.017A.728.728,0,0,0,29.527,61.271Z" transform="translate(-5.439 -12.792)"/><path class="a" d="M33.527,61.271a.687.687,0,0,0,.727-.727V59.527a.727.727,0,0,0-1.453,0v1.017A.781.781,0,0,0,33.527,61.271Z" transform="translate(-6.533 -12.792)"/><path class="a" d="M25.427,66.871a.687.687,0,0,0,.727-.727V65.127a.727.727,0,1,0-1.453,0v1.017A.781.781,0,0,0,25.427,66.871Z" transform="translate(-4.319 -14.323)"/><path class="a" d="M29.527,66.871a.687.687,0,0,0,.727-.727V65.127a.727.727,0,1,0-1.453,0v1.017A.728.728,0,0,0,29.527,66.871Z" transform="translate(-5.439 -14.323)"/><path class="a" d="M33.527,66.871a.687.687,0,0,0,.727-.727V65.127a.727.727,0,0,0-1.453,0v1.017A.781.781,0,0,0,33.527,66.871Z" transform="translate(-6.533 -14.323)"/><path class="a" d="M25.427,72.471a.687.687,0,0,0,.727-.727V70.727a.727.727,0,1,0-1.453,0v1.017A.728.728,0,0,0,25.427,72.471Z" transform="translate(-4.319 -15.854)"/><path class="a" d="M29.527,72.471a.687.687,0,0,0,.727-.727V70.727a.727.727,0,1,0-1.453,0v1.017A.687.687,0,0,0,29.527,72.471Z" transform="translate(-5.439 -15.854)"/><path class="a" d="M33.527,72.471a.687.687,0,0,0,.727-.727V70.727a.727.727,0,0,0-1.453,0v1.017A.728.728,0,0,0,33.527,72.471Z" transform="translate(-6.533 -15.854)"/><path class="a" d="M51.627,50.061a.687.687,0,0,0,.727-.727V48.027a.727.727,0,1,0-1.453,0v1.308A.728.728,0,0,0,51.627,50.061Z" transform="translate(-11.48 -9.649)"/><path class="a" d="M55.627,50.061a.687.687,0,0,0,.727-.727V48.027a.727.727,0,0,0-1.453,0v1.308A.781.781,0,0,0,55.627,50.061Z" transform="translate(-12.574 -9.649)"/><path class="a" d="M59.727,50.061a.687.687,0,0,0,.727-.727V48.027a.727.727,0,0,0-1.453,0v1.308A.728.728,0,0,0,59.727,50.061Z" transform="translate(-13.694 -9.649)"/><path class="a" d="M51.627,57.561a.687.687,0,0,0,.727-.727V55.527a.727.727,0,0,0-1.453,0v1.308A.687.687,0,0,0,51.627,57.561Z" transform="translate(-11.48 -11.699)"/><path class="a" d="M55.627,57.561a.687.687,0,0,0,.727-.727V55.527a.727.727,0,0,0-1.453,0v1.308A.728.728,0,0,0,55.627,57.561Z" transform="translate(-12.574 -11.699)"/><path class="a" d="M59.727,57.561a.687.687,0,0,0,.727-.727V55.527a.727.727,0,0,0-1.453,0v1.308A.687.687,0,0,0,59.727,57.561Z" transform="translate(-13.694 -11.699)"/><path class="a" d="M51.627,65.061a.687.687,0,0,0,.727-.727V63.027a.727.727,0,1,0-1.453,0v1.308A.687.687,0,0,0,51.627,65.061Z" transform="translate(-11.48 -13.749)"/><path class="a" d="M55.627,65.061a.687.687,0,0,0,.727-.727V63.027a.727.727,0,1,0-1.453,0v1.308A.728.728,0,0,0,55.627,65.061Z" transform="translate(-12.574 -13.749)"/><path class="a" d="M59.727,65.061a.687.687,0,0,0,.727-.727V63.027a.727.727,0,0,0-1.453,0v1.308A.687.687,0,0,0,59.727,65.061Z" transform="translate(-13.694 -13.749)"/><path class="a" d="M51.627,72.661a.687.687,0,0,0,.727-.727V70.627a.727.727,0,1,0-1.453,0v1.308A.728.728,0,0,0,51.627,72.661Z" transform="translate(-11.48 -15.826)"/><path class="a" d="M55.627,72.661a.687.687,0,0,0,.727-.727V70.627a.727.727,0,1,0-1.453,0v1.308A.781.781,0,0,0,55.627,72.661Z" transform="translate(-12.574 -15.826)"/><path class="a" d="M59.727,72.661a.687.687,0,0,0,.727-.727V70.627a.727.727,0,1,0-1.453,0v1.308A.728.728,0,0,0,59.727,72.661Z" transform="translate(-13.694 -15.826)"/><path class="a" d="M60.627,33.071a.687.687,0,0,0,.727-.727V31.327a.727.727,0,0,0-1.453,0v1.017A.781.781,0,0,0,60.627,33.071Z" transform="translate(-13.94 -5.084)"/><path class="a" d="M64.727,33.071a.687.687,0,0,0,.727-.727V31.327a.727.727,0,0,0-1.453,0v1.017A.728.728,0,0,0,64.727,33.071Z" transform="translate(-15.061 -5.084)"/><path class="a" d="M68.727,33.071a.687.687,0,0,0,.727-.727V31.327a.727.727,0,0,0-1.453,0v1.017A.781.781,0,0,0,68.727,33.071Z" transform="translate(-16.154 -5.084)"/><path class="a" d="M60.627,38.571a.687.687,0,0,0,.727-.727V36.827a.727.727,0,0,0-1.453,0v1.017A.728.728,0,0,0,60.627,38.571Z" transform="translate(-13.94 -6.587)"/><path class="a" d="M64.727,38.571a.687.687,0,0,0,.727-.727V36.827a.727.727,0,0,0-1.453,0v1.017A.687.687,0,0,0,64.727,38.571Z" transform="translate(-15.061 -6.587)"/><path class="a" d="M68.727,38.571a.687.687,0,0,0,.727-.727V36.827a.727.727,0,0,0-1.453,0v1.017A.728.728,0,0,0,68.727,38.571Z" transform="translate(-16.154 -6.587)"/><path class="a" d="M68.727,44.171a.687.687,0,0,0,.727-.727V42.427a.727.727,0,1,0-1.453,0v1.017A.728.728,0,0,0,68.727,44.171Z" transform="translate(-16.154 -8.118)"/><path class="a" d="M68.727,49.771a.687.687,0,0,0,.727-.727V48.027a.727.727,0,0,0-1.453,0v1.017A.728.728,0,0,0,68.727,49.771Z" transform="translate(-16.154 -9.649)"/><path class="a" d="M68.727,55.371a.687.687,0,0,0,.727-.727V53.627a.727.727,0,0,0-1.453,0v1.017A.728.728,0,0,0,68.727,55.371Z" transform="translate(-16.154 -11.18)"/><path class="a" d="M68.727,60.971a.687.687,0,0,0,.727-.727V59.227a.727.727,0,0,0-1.453,0v1.017A.728.728,0,0,0,68.727,60.971Z" transform="translate(-16.154 -12.71)"/><path class="a" d="M68.727,66.471a.687.687,0,0,0,.727-.727V64.727a.727.727,0,0,0-1.453,0v1.017A.781.781,0,0,0,68.727,66.471Z" transform="translate(-16.154 -14.214)"/><path class="a" d="M68.727,72.071a.687.687,0,0,0,.727-.727V70.327a.727.727,0,0,0-1.453,0v1.017A.781.781,0,0,0,68.727,72.071Z" transform="translate(-16.154 -15.744)"/><path class="a" d="M68.727,77.671a.687.687,0,0,0,.727-.727V75.927a.727.727,0,0,0-1.453,0v1.017A.781.781,0,0,0,68.727,77.671Z" transform="translate(-16.154 -17.275)"/><path class="a" d="M34.527,37.053a.687.687,0,0,0,.727-.727v-.8a.727.727,0,1,0-1.453,0v.8A.687.687,0,0,0,34.527,37.053Z" transform="translate(-6.806 -6.232)"/><path class="a" d="M38.527,37.053a.687.687,0,0,0,.727-.727v-.8a.727.727,0,0,0-1.453,0v.8A.728.728,0,0,0,38.527,37.053Z" transform="translate(-7.899 -6.232)"/><path class="a" d="M42.627,37.053a.687.687,0,0,0,.727-.727v-.8a.727.727,0,1,0-1.453,0v.8A.687.687,0,0,0,42.627,37.053Z" transform="translate(-9.02 -6.232)"/><path class="a" d="M34.527,41.453a.687.687,0,0,0,.727-.727v-.8a.727.727,0,1,0-1.453,0v.8A.728.728,0,0,0,34.527,41.453Z" transform="translate(-6.806 -7.435)"/><path class="a" d="M38.527,41.453a.687.687,0,0,0,.727-.727v-.8a.727.727,0,0,0-1.453,0v.8A.781.781,0,0,0,38.527,41.453Z" transform="translate(-7.899 -7.435)"/><path class="a" d="M42.627,41.453a.687.687,0,0,0,.727-.727v-.8a.727.727,0,1,0-1.453,0v.8A.728.728,0,0,0,42.627,41.453Z" transform="translate(-9.02 -7.435)"/><path class="a" d="M34.527,45.753a.687.687,0,0,0,.727-.727v-.8a.727.727,0,1,0-1.453,0v.8A.687.687,0,0,0,34.527,45.753Z" transform="translate(-6.806 -8.61)"/><path class="a" d="M38.527,45.753a.687.687,0,0,0,.727-.727v-.8a.727.727,0,0,0-1.453,0v.8A.728.728,0,0,0,38.527,45.753Z" transform="translate(-7.899 -8.61)"/><path class="a" d="M42.627,45.753a.687.687,0,0,0,.727-.727v-.8a.727.727,0,0,0-1.453,0v.8A.687.687,0,0,0,42.627,45.753Z" transform="translate(-9.02 -8.61)"/><path class="a" d="M42.627,50.653a.687.687,0,0,0,.727-.727v-.8a.727.727,0,1,0-1.453,0v.8A.728.728,0,0,0,42.627,50.653Z" transform="translate(-9.02 -9.95)"/><path class="a" d="M42.627,54.953a.687.687,0,0,0,.727-.727v-.8a.727.727,0,1,0-1.453,0v.8A.687.687,0,0,0,42.627,54.953Z" transform="translate(-9.02 -11.125)"/><path class="a" d="M42.627,59.353a.687.687,0,0,0,.727-.727v-.8a.727.727,0,1,0-1.453,0v.8A.728.728,0,0,0,42.627,59.353Z" transform="translate(-9.02 -12.328)"/><path class="a" d="M42.627,63.653a.687.687,0,0,0,.727-.727v-.8a.727.727,0,1,0-1.453,0v.8A.687.687,0,0,0,42.627,63.653Z" transform="translate(-9.02 -13.503)"/><path class="a" d="M42.627,68.053a.687.687,0,0,0,.727-.727v-.8a.727.727,0,1,0-1.453,0v.8A.728.728,0,0,0,42.627,68.053Z" transform="translate(-9.02 -14.706)"/><path class="a" d="M42.627,72.353a.687.687,0,0,0,.727-.727v-.8a.727.727,0,1,0-1.453,0v.8A.687.687,0,0,0,42.627,72.353Z" transform="translate(-9.02 -15.881)"/><path class="a" d="M42.627,76.753a.687.687,0,0,0,.727-.727v-.8a.727.727,0,0,0-1.453,0v.8A.728.728,0,0,0,42.627,76.753Z" transform="translate(-9.02 -17.084)"/><path class="a" d="M21.4,30.353A2.253,2.253,0,1,0,23.653,28.1,2.264,2.264,0,0,0,21.4,30.353Zm3.052,0a.8.8,0,1,1-.8-.8A.806.806,0,0,1,24.452,30.353Z" transform="translate(-3.417 -4.401)"/><path class="a" d="M17.515,22.931A3.415,3.415,0,1,0,14.1,19.515,3.411,3.411,0,0,0,17.515,22.931Zm0-5.377a1.962,1.962,0,1,1-1.962,1.962A1.954,1.954,0,0,1,17.515,17.553Z" transform="translate(-1.421 -1.121)"/></g></svg>