<svg xmlns="http://www.w3.org/2000/svg" width="25" height="21.973" viewBox="0 0 25 21.973"><defs><style>.a{fill:#5a5a5a;}</style></defs><path class="a" d="M24.272,2.93H17.627V2.2A2.2,2.2,0,0,0,15.43,0H9.571a2.2,2.2,0,0,0-2.2,2.2V2.93H.733A.734.734,0,0,0,0,3.662V19.775a2.2,2.2,0,0,0,2.2,2.2H22.8a2.2,2.2,0,0,0,2.2-2.2V3.675a.711.711,0,0,0-.728-.745ZM8.838,2.2a.733.733,0,0,1,.732-.732H15.43a.733.733,0,0,1,.732.732V2.93H8.838Zm14.413,2.2-2.275,6.823a.731.731,0,0,1-.695.5h-4.12v-.732a.732.732,0,0,0-.732-.732H9.571a.732.732,0,0,0-.732.732v.732H4.718a.731.731,0,0,1-.695-.5L1.749,4.395ZM14.7,11.719v1.465H10.3V11.719Zm8.838,8.057a.733.733,0,0,1-.732.732H2.2a.733.733,0,0,1-.732-.732V8.175l1.169,3.506a2.194,2.194,0,0,0,2.084,1.5h4.12v.732a.732.732,0,0,0,.732.732H15.43a.732.732,0,0,0,.732-.732v-.732h4.12a2.194,2.194,0,0,0,2.084-1.5l1.169-3.506Zm0,0"/></svg>