<svg xmlns="http://www.w3.org/2000/svg" width="23.515" height="36.406" viewBox="0 0 23.515 36.406"><defs><style>.a{fill:#5a5a5a;}</style></defs><g transform="translate(-86.186)"><path class="a" d="M108.034,20.475l-1.667-.5a.967.967,0,0,0-.529-.906l-2.557-1.519a13.657,13.657,0,0,0,1.009-1.786,3.429,3.429,0,0,0,2.336-2.341c.57-1.643.115-3.253-1.029-3.777.285-.9.943-3.538-.329-5.533A5.3,5.3,0,0,0,101.02,1.9a5.392,5.392,0,0,0-4.1-1.9,7.564,7.564,0,0,0-3.794,1.155c-4.137,2.421-3.371,6.935-2.935,8.551a2.23,2.23,0,0,0-1.062,1.43,3.982,3.982,0,0,0,.136,2.29,3.422,3.422,0,0,0,2.331,2.335,13.616,13.616,0,0,0,1.011,1.79l-2.56,1.521a1.071,1.071,0,0,0-.528.907l-1.663.5a2.332,2.332,0,0,0-1.667,2.235v1.938a11.757,11.757,0,1,0,23.514,0V22.71A2.332,2.332,0,0,0,108.034,20.475ZM105.207,20l-3.558,4.686L99.206,20.91a7.037,7.037,0,0,0,3.367-2.4ZM93.729,2.189A6.391,6.391,0,0,1,96.917,1.2a4.166,4.166,0,0,1,3.3,1.612.6.6,0,0,0,.453.259,4.328,4.328,0,0,1,3.586,1.687c.92,1.442.515,3.631.265,4.51-2.606-.6-5.405-3.35-5.436-3.379a.58.58,0,0,0-.469-.17.6.6,0,0,0-.435.244c-1.517,2.083-5.446,3.119-6.847,3.432C90.947,8.048,90.231,4.235,93.729,2.189ZM92.548,14.966a.634.634,0,0,0-.574-.36c-.5,0-1.225-.551-1.58-1.574a2.821,2.821,0,0,1-.109-1.59,1.024,1.024,0,0,1,.558-.736.821.821,0,0,1,.147-.024l.009,0,.036,0c.229-.04,5.3-.955,7.688-3.5a16.135,16.135,0,0,0,6.123,3.475s.161.039.2.051c.53.185.846,1.186.45,2.326-.357,1.022-1.082,1.574-1.6,1.574a.6.6,0,0,0-.56.36c-1.042,2.391-3.007,4.945-5.4,4.945S93.59,17.356,92.548,14.966Zm6.646,9.4-.365.322h-1.8l-.365-.322.636-2.253.64-.956.6.956ZM93.32,18.52a7.021,7.021,0,0,0,3.363,2.391l-2.429,3.8-3.6-4.608Zm4.647,16.254a.114.114,0,0,1-.105-.07L96.61,31.747l.681-4.556h1.352l.681,4.556L98.072,34.7A.114.114,0,0,1,97.967,34.774ZM108.5,24.649a10.568,10.568,0,0,1-9.671,10.514,1.255,1.255,0,0,0,.067-.109l1.351-3.19-.833-5.572h-2.9l-.833,5.572,1.351,3.19a.974.974,0,0,0,.068.111,10.567,10.567,0,0,1-9.719-10.517V22.71a1.127,1.127,0,0,1,.812-1.087l1.8-.537,3.343,4.4a1.132,1.132,0,0,0,.9.447h.042a1.128,1.128,0,0,0,.905-.514l.477-.737,1.027.908h2.48l1.043-.921.485.751a1.128,1.128,0,0,0,.905.513h.042a1.133,1.133,0,0,0,.9-.446l3.343-4.4,1.807.539a1.128,1.128,0,0,1,.811,1.087v1.938Z"/></g></svg>