<svg xmlns="http://www.w3.org/2000/svg" xmlns:xlink="http://www.w3.org/1999/xlink" width="148.767" height="116.115" viewBox="0 0 148.767 116.115"><defs><clipPath id="a"><path d="M459.594,251.962s10-26.858-9.562-27.537c-16.373-.57-6.333-16.109-19.415-19.209-11.915-2.822-15.559,14.689-7.683,18.663,4.918,2.481,8.684,9.169,6.848,16.5S431.443,255.544,459.594,251.962Z" transform="translate(-418.755 -204.91)" fill="none"/></clipPath><clipPath id="b"><path d="M461.557,270.022s-7.946-30.468-27.305-16.915c-16.2,11.343-16.689-9.36-31.368-2.585-13.371,6.171-5.409,23.956,4.812,21.7a15.374,15.374,0,0,1,17.44,9.325C428.169,289.216,436.69,293.47,461.557,270.022Z" transform="translate(-395.836 -249.127)" fill="none"/></clipPath><clipPath id="c"><path d="M557.413,253.507s26.564,10.757,27.8-8.778c1.033-16.35,16.282-5.874,19.75-18.863,3.159-11.831-14.241-15.969-18.437-8.209-2.62,4.847-9.411,8.42-16.685,6.378S554.631,225.266,557.413,253.507Z" transform="translate(-556.844 -213.702)" fill="none"/></clipPath><clipPath id="d"><path d="M555.386,270.051s12.566-14.659,21.494-10.039c6.577,3.4,9.16,7.495,13.365,2.223,5.348-6.705,17.737-3.8,19.393,6.307,1.479,9.029-9.692,12.947-14.636,10.9s-7.79,2.328-10.2,6.2-12.415,14.967-23.2,5.036C550.7,280.632,555.386,270.051,555.386,270.051Z" transform="translate(-554.384 -258.616)" fill="none"/></clipPath><clipPath id="e"><path d="M469.033,237.89l-6.384-8.9s8.388-7.115,15.053-9.209c9.092-2.858,53.262,1.849,57.4,4.837,3.764,2.719,7.539,26.216,2.874,45.724-.454,1.9-6.446,9.861-9.713,11.369C523.8,283.768,469.033,237.89,469.033,237.89Z" transform="translate(-462.649 -218.893)" fill="none"/></clipPath><clipPath id="f"><path d="M505.268,257.795l10.853,1.013L516,284.374l-10.853-1.013Z" transform="translate(-505.147 -257.795)" fill="none"/></clipPath><clipPath id="g"><path d="M521.771,199.194c.24-4.825.422-19.1.422-19.1s.456-12.666-11.785-12.787c-7.239-.072-10.776,5.245-11.179,10.5-.285,3.721-.378,15.711-.642,18.37-.149,1.5-.135,3.382-5.708,3.785-2.726.2-5.641-1.246-5.73-2.378-.1-1.243-.557-13.129-.022-21.024.506-7.459,1.657-21.925,24.164-21.464,22.88.468,23.672,17.389,23.3,25.934-.535,12.41-.545,15.99-.822,18.939-.178,1.9-3.511,3.464-6.579,3.231C524.313,202.981,521.677,201.086,521.771,199.194Z" transform="translate(-486.873 -155.086)" fill="none"/></clipPath></defs><g transform="translate(-203.911 -304.531)"><g transform="translate(-191.924 149.446)"><g transform="translate(409.334 184.431)"><path d="M459.594,251.962s10-26.858-9.562-27.537c-16.373-.57-6.333-16.109-19.415-19.209-11.915-2.822-15.559,14.689-7.683,18.663,4.918,2.481,8.684,9.169,6.848,16.5S431.443,255.544,459.594,251.962Z" transform="translate(-418.755 -204.91)" fill="#8dbe34" fill-rule="evenodd"/><g transform="translate(0 0)"><g clip-path="url(#a)"><g transform="translate(-2.61 -3.277)"><path d="M425.563,209.826a27.047,27.047,0,0,1,2.717-10.459s.033-.065.058.034a25.329,25.329,0,0,0-2.423,10.868l-.032.053.405.627.044.019.194.305a.128.128,0,0,1-.018.014q.7,1.075,1.4,2.146c-.027-3.853,1.688-7.667,3.328-10.5.324-.561.66-1.114.995-1.667,0,0,.144-.253.208.144-2.136,4.081-4.295,8.349-4.138,12.627q1.522,2.328,3.056,4.644a8.141,8.141,0,0,1,.159-1.382c1.014-4.659,3.917-8.6,6.807-12.018,0,0,.283-.392.288-.052l-.438.583c-.594.8-1.179,1.613-1.747,2.431-.072.1-.072.1-.147.207-2.255,3.152-4.225,6.694-4.667,10.616q1.677,2.531,3.361,5.056a13.916,13.916,0,0,1,.055-2.491q.08-.526.187-1.047a21.811,21.811,0,0,1,.8-2.821s.859-2.083,1.525-3.3a32.338,32.338,0,0,1,2.234-3.49s.28-.416.339.147c-.08.122-.16.244-.239.368-2.528,3.967-4.474,8.678-4.632,13.03q1.132,1.7,2.265,3.393a28.939,28.939,0,0,1,5.6-11.6s.133-.174.155.141a31.677,31.677,0,0,0-5.454,11.91q1.573,2.354,3.146,4.712a26.93,26.93,0,0,1,1.312-6.115,36.239,36.239,0,0,1,3.167-6.46l1.264-1.838s.29-.456.343.048c-.507.8-1.2,1.977-1.2,1.977-.082.132-.162.265-.243.4a28.673,28.673,0,0,0-4.235,11.6c-.028.269-.062.587-.09.861q1.511,2.27,3.017,4.547a44.879,44.879,0,0,1,7.242-17.045s.26-.413.283-.153a49.757,49.757,0,0,0-7.234,17.638q1.2,1.815,2.391,3.638c.137-.574.26-1.041.26-1.041a37.382,37.382,0,0,1,10.5-15.334,1.058,1.058,0,0,1,.345-.043l-.026.3A37.411,37.411,0,0,0,447.8,241.3s-.257.68-.5,1.4q1.755,2.687,3.491,5.4s.826,1.316,1.515,2.443c0,0,.617,1.2,1.267,2.506,0,0,.351.572-.2.418-.5-.737-1.013-1.452-1.543-2.158,0,0-1.646-2.59-2.8-4.417q-1-1.58-2-3.154c-.616.058-1.55.14-2.3.175a54.057,54.057,0,0,0-8.17.835,35.712,35.712,0,0,0-10.319,3.808l-.118,0a41.869,41.869,0,0,1,16.766-5.228l.143-.015a16.5,16.5,0,0,1,2.935-.121c.244.027.509.065.75.1l.009-.045q-1.345-2.1-2.7-4.2l-.645.053c-.815-.065-1.631-.128-2.447-.175,0,0-1.543-.133-2.855-.128a34.3,34.3,0,0,0-13.7,3.287l-.244-.024a36.168,36.168,0,0,1,16.763-3.855c.845.054,1.69.13,2.533.2,0,0,.058.017.221.059q-1.3-2.009-2.608-4.013c-5.542.645-11.089.107-16.965,3.226l-.244.017.044-.141a23.41,23.41,0,0,1,9.557-3.265c2.423-.228,4.893-.064,7.345-.239q-1.614-2.475-3.232-4.945c-.524.086-1.283.2-1.885.25a43.978,43.978,0,0,0-11.7,2.279l-.341-.022a2.519,2.519,0,0,1,.616-.386,38.092,38.092,0,0,1,13.1-2.451l-2.419-3.7c-.888.139-2.5.385-3.4.488a27.289,27.289,0,0,0-8.3,1.981l-.2-.084a1.311,1.311,0,0,1,.434-.406,20.148,20.148,0,0,1,5.159-1.732s1.437-.226,2.4-.312c1.232-.108,2.467-.243,3.694-.256q-1.6-2.454-3.2-4.908c-.085-.01,0,0-.221,0,0,0-1.545.382-2.558.68-2.972.848-6.023,1.588-8.714,3.213l-.212-.015.045-.177a28.354,28.354,0,0,1,7.88-3.423,12,12,0,0,1,3.493-.724q-.952-1.464-1.9-2.93a.542.542,0,0,1-.065-.011,19.387,19.387,0,0,0-7.292.16,39.648,39.648,0,0,0-7.476,2.138l-.163-.077a1.93,1.93,0,0,1,.5-.37c3.7-1.643,7.6-2.861,11.3-2.722a16.137,16.137,0,0,1,2.867.375q-1.518-2.351-3.021-4.709a18.81,18.81,0,0,0-11.286-.062s-.549-.179.271-.458A17.3,17.3,0,0,1,421,209.74a14.493,14.493,0,0,1,4.576.919q-2.163-3.4-4.284-6.827l-.146-.237s-.194-.335.306-.236Q423.489,206.613,425.563,209.826Z" transform="translate(-414.323 -199.346)" fill="#d8f4a7" fill-rule="evenodd"/></g></g></g></g><g transform="translate(395.836 210.473)"><path d="M461.557,270.022s-7.946-30.468-27.305-16.915c-16.2,11.343-16.689-9.36-31.368-2.585-13.371,6.171-5.409,23.956,4.812,21.7a15.374,15.374,0,0,1,17.44,9.325C428.169,289.216,436.69,293.47,461.557,270.022Z" transform="translate(-395.836 -249.127)" fill="#d9f4a7" fill-rule="evenodd"/><g transform="translate(0 0)"><g clip-path="url(#b)"><g transform="translate(-1.46 -3.793)"><path d="M403.263,256.179a26.912,26.912,0,0,1-4.232-11.014s-.012-.08.078-.013a25.105,25.105,0,0,0,4.785,11.155l0,.069.8.249.055-.015.388.124a.147.147,0,0,1-.008.025q1.378.427,2.756.848c-2.553-3.314-3.4-7.854-3.669-11.491-.054-.72-.092-1.441-.132-2.162,0,0-.026-.323.3-.026.611,5.075,1.323,10.328,4.281,13.916q3,.914,6,1.809a7.966,7.966,0,0,1-.752-1.31c-2.076-4.764-1.858-10.276-1.3-15.318,0,0,.017-.543.245-.254-.014.274-.028.547-.041.822-.049,1.123-.082,2.247-.1,3.367,0,.143,0,.142-.006.284-.113,4.357.306,8.846,2.451,12.559q3.281.979,6.565,1.944a13.54,13.54,0,0,1-1.58-2.195c-.179-.342-.347-.69-.506-1.041a21.715,21.715,0,0,1-1.08-3.017s-.535-2.424-.686-3.954a34.526,34.526,0,0,1-.13-4.635s0-.562.424-.118q0,.245.01.49c.158,5.259,1.366,10.742,4.068,14.622l4.415,1.3a29.981,29.981,0,0,1-2.2-14.086s.015-.246.243.01a32.639,32.639,0,0,0,2.538,14.247q3.066.9,6.132,1.8a26.606,26.606,0,0,1-2.741-6.24,37.471,37.471,0,0,1-1.174-7.879l.016-2.5s-.019-.6.363-.207c.033,1.058.135,2.579.135,2.579.008.174.017.347.026.521a29.027,29.027,0,0,0,3.517,13.1l.478.81q2.95.872,5.9,1.753a45.965,45.965,0,0,1-4.178-19.983s-.019-.545.174-.336a50.806,50.806,0,0,0,4.574,20.49q2.349.7,4.7,1.419c-.244-.6-.432-1.088-.432-1.088-1.987-6.684-1.575-13.981.092-20.855a1.4,1.4,0,0,1,.306-.287l.171.278c-1.545,6.76-1.92,13.923.1,20.591,0,0,.2.775.436,1.567q3.459,1.057,6.916,2.147s1.661.541,3.067,1.018c0,0,1.385.594,2.869,1.253,0,0,.714.241.08.507-.963-.28-1.932-.525-2.907-.752,0,0-3.291-1.051-5.6-1.8q-2-.645-4.007-1.28c-.557.5-1.406,1.241-2.111,1.816a72.2,72.2,0,0,0-7.352,6.629,46,46,0,0,0-7.479,10.755l-.112.088a54.407,54.407,0,0,1,12.781-16.642l.128-.116a22,22,0,0,1,2.759-2.226c.254-.154.535-.312.793-.453l-.021-.045q-2.678-.846-5.361-1.679l-.589.512c-.83.533-1.661,1.068-2.481,1.618,0,0-1.578,1-2.845,1.953a45.045,45.045,0,0,0-11.088,12.747l-.251.155a47.54,47.54,0,0,1,13.678-15.452c.853-.565,1.719-1.109,2.584-1.654,0,0,.068-.028.253-.109q-2.575-.8-5.154-1.587c-4.934,4.564-10.651,8.109-14.286,15.055l-.224.191-.049-.154a30.267,30.267,0,0,1,7.1-9.734c2.193-1.949,4.689-3.591,6.944-5.516q-3.183-.974-6.368-1.942c-.449.454-1.108,1.1-1.658,1.578a58.157,58.157,0,0,0-9.819,10.431l-.345.227a3.091,3.091,0,0,1,.342-.78,50.392,50.392,0,0,1,11.053-11.586l-4.762-1.449c-.768.763-2.162,2.138-2.97,2.884a35.845,35.845,0,0,0-6.72,7.71l-.249.072a1.494,1.494,0,0,1,.153-.665,26.085,26.085,0,0,1,3.852-5.228s1.241-1.235,2.119-2.007c1.12-.984,2.226-1.994,3.4-2.892q-3.16-.963-6.315-1.932c-.088.052,0,0-.21.164,0,0-1.243,1.446-2.027,2.437-2.317,2.882-4.781,5.728-6.318,9.08l-.215.14-.072-.186a36.082,36.082,0,0,1,5.373-8.658,15.859,15.859,0,0,1,2.9-3.152q-1.879-.579-3.757-1.163a.657.657,0,0,1-.07.038,25.988,25.988,0,0,0-6.946,5.409,51.906,51.906,0,0,0-5.825,7.254l-.208.052a2.317,2.317,0,0,1,.241-.683c2.5-4.093,5.473-7.97,9.141-10.524a21.653,21.653,0,0,1,3.017-1.747q-3.009-.937-6.01-1.891a25.137,25.137,0,0,0-10.952,8.1s-.648.241-.038-.592a22.922,22.922,0,0,1,5.178-5.25,19.256,19.256,0,0,1,5.027-2.512q-4.323-1.381-8.619-2.811l-.3-.1s-.408-.15.141-.425Q399.15,254.9,403.263,256.179Z" transform="translate(-393.356 -242.686)" fill="#8ebe34" fill-rule="evenodd"/></g></g></g></g><g transform="translate(490.664 189.609)"><path d="M557.413,253.507s26.564,10.757,27.8-8.778c1.033-16.35,16.282-5.874,19.75-18.863,3.159-11.831-14.241-15.969-18.437-8.209-2.62,4.847-9.411,8.42-16.685,6.378S554.631,225.266,557.413,253.507Z" transform="translate(-556.844 -213.702)" fill="#8dbe34" fill-rule="evenodd"/><g clip-path="url(#c)"><g transform="translate(-3.124 -2.748)"><path d="M595.979,220.522a27.043,27.043,0,0,1,10.378,3.012s.065.035-.035.058a25.321,25.321,0,0,0-10.795-2.73l-.052-.034-.638.388-.021.044-.31.185a.111.111,0,0,1-.014-.018q-1.095.665-2.185,1.334c3.852.082,7.616,1.9,10.4,3.624.552.34,1.095.691,1.639,1.042,0,0,.249.151-.15.2-4.019-2.25-8.224-4.53-12.5-4.494q-2.37,1.456-4.728,2.924a8.125,8.125,0,0,1,1.376.2c4.629,1.146,8.49,4.159,11.82,7.144,0,0,.383.294.044.29l-.571-.455c-.783-.616-1.578-1.224-2.38-1.816-.1-.075-.1-.075-.2-.152-3.086-2.343-6.572-4.413-10.48-4.966q-2.578,1.6-5.148,3.216a13.875,13.875,0,0,1,2.487.126q.524.095,1.042.217a21.662,21.662,0,0,1,2.8.876s2.058.918,3.251,1.618a32.338,32.338,0,0,1,3.426,2.332s.407.292-.157.335l-.36-.249c-3.894-2.639-8.548-4.718-12.894-5l-3.456,2.168A28.939,28.939,0,0,1,589,237.867s.17.138-.145.151a31.67,31.67,0,0,0-11.751-5.789q-2.4,1.505-4.8,3.011a26.931,26.931,0,0,1,6.075,1.485,36.185,36.185,0,0,1,6.367,3.349l1.8,1.315s.448.3-.058.342c-.783-.53-1.942-1.257-1.942-1.257-.13-.085-.26-.17-.391-.254a28.677,28.677,0,0,0-11.48-4.562l-.858-.114q-2.313,1.446-4.631,2.887a44.9,44.9,0,0,1,16.833,7.722s.405.272.144.288a49.753,49.753,0,0,0-17.425-7.731q-1.848,1.147-3.7,2.287c.57.153,1.033.289,1.033.289a37.382,37.382,0,0,1,15.03,10.927,1.048,1.048,0,0,1,.034.346l-.3-.034a37.4,37.4,0,0,0-14.949-10.666s-.672-.277-1.382-.536q-2.736,1.678-5.495,3.337s-1.339.789-2.485,1.445c0,0-1.219.582-2.541,1.2,0,0-.582.335-.412-.213.751-.475,1.481-.972,2.2-1.481,0,0,2.636-1.572,4.495-2.67q1.608-.953,3.211-1.915c-.041-.617-.1-1.553-.111-2.307a53.918,53.918,0,0,0-.6-8.191,35.72,35.72,0,0,0-3.514-10.424v-.118A41.865,41.865,0,0,1,562,236.892l.011.143a16.45,16.45,0,0,1,.038,2.938c-.034.244-.08.507-.124.746l.045.011q2.138-1.285,4.27-2.579l-.035-.647c.088-.813.174-1.626.244-2.441,0,0,.177-1.538.209-2.851a34.3,34.3,0,0,0-2.9-13.787l.031-.243a36.163,36.163,0,0,1,3.378,16.865c-.078.843-.177,1.685-.276,2.527,0,0-.019.058-.066.22q2.045-1.244,4.086-2.494c-.488-5.557.207-11.088-2.743-17.049l-.011-.244.14.048a23.414,23.414,0,0,1,2.993,9.646c.159,2.428-.075,4.893.031,7.349q2.52-1.543,5.035-3.09c-.072-.526-.165-1.288-.2-1.891a43.987,43.987,0,0,0-1.946-11.762l.032-.34a2.518,2.518,0,0,1,.369.627,38.1,38.1,0,0,1,2.078,13.159l3.763-2.313c-.114-.892-.314-2.507-.392-3.417a27.275,27.275,0,0,0-1.745-8.347l.089-.2a1.308,1.308,0,0,1,.393.445,20.146,20.146,0,0,1,1.585,5.206s.186,1.443.243,2.411c.074,1.234.173,2.473.151,3.7q2.5-1.535,5-3.062c.012-.084,0,0,0-.221,0,0-.337-1.555-.607-2.576-.763-2.995-1.416-6.066-2.965-8.8l.021-.211.175.05a28.344,28.344,0,0,1,3.2,7.973,12,12,0,0,1,.625,3.513q1.49-.91,2.982-1.815a.584.584,0,0,1,.012-.065,19.386,19.386,0,0,0,.047-7.294,39.732,39.732,0,0,0-1.925-7.533l.081-.161a1.933,1.933,0,0,1,.356.512c1.537,3.741,2.644,7.68,2.4,11.374a16.119,16.119,0,0,1-.456,2.854q2.393-1.45,4.793-2.886a18.809,18.809,0,0,0,.382-11.28s.2-.544.451.284a17.292,17.292,0,0,1,.845,6.072,14.489,14.489,0,0,1-1.049,4.548q3.462-2.066,6.945-4.089l.241-.139s.34-.184.227.313Q599.25,218.54,595.979,220.522Z" transform="translate(-551.539 -209.035)" fill="#d8f4a7" fill-rule="evenodd"/></g></g></g><g transform="translate(489.215 216.062)"><path d="M555.386,270.051s12.566-14.659,21.494-10.039c6.577,3.4,9.16,7.495,13.365,2.223,5.348-6.705,17.737-3.8,19.393,6.307,1.479,9.029-9.692,12.947-14.636,10.9s-7.79,2.328-10.2,6.2-12.415,14.967-23.2,5.036C550.7,280.632,555.386,270.051,555.386,270.051Z" transform="translate(-554.384 -258.616)" fill="#d9f4a7" fill-rule="evenodd"/><g transform="translate(0 0)"><g clip-path="url(#d)"><g transform="translate(-9.531 -6.388)"><path d="M594.548,263.791a26.906,26.906,0,0,1,9.52,6.97s.053.061-.058.054a25.1,25.1,0,0,0-10.061-6.791l-.04-.057-.81.225-.039.042-.392.105a.172.172,0,0,1-.007-.025q-1.39.386-2.776.779c3.94,1.406,7.106,4.767,9.3,7.677.435.576.857,1.162,1.281,1.747,0,0,.2.258-.235.183-3.261-3.936-6.7-7.969-11.131-9.386q-3.016.854-6.025,1.726a8.007,8.007,0,0,1,1.342.7c4.324,2.883,7.122,7.637,9.385,12.177,0,0,.28.466-.068.346q-.2-.357-.41-.713-.849-1.456-1.742-2.883c-.077-.12-.075-.12-.149-.243-2.262-3.725-5.044-7.273-8.857-9.234q-3.288.952-6.573,1.918a13.534,13.534,0,0,1,2.516.991c.335.19.665.392.989.6a21.674,21.674,0,0,1,2.54,1.952s1.762,1.749,2.717,2.954a34.522,34.522,0,0,1,2.617,3.827s.305.472-.293.329q-.136-.2-.274-.407c-2.979-4.337-6.962-8.294-11.334-10.095q-2.208.648-4.415,1.3a29.981,29.981,0,0,1,9.472,10.655s.121.215-.209.123a32.639,32.639,0,0,0-9.845-10.607q-3.065.9-6.132,1.8a26.63,26.63,0,0,1,5.682,3.763,37.528,37.528,0,0,1,5.251,5.99l1.341,2.114s.343.5-.194.37c-.6-.872-1.51-2.1-1.51-2.1-.1-.142-.2-.283-.3-.423a29.049,29.049,0,0,0-10.048-9.115l-.84-.422q-2.953.863-5.91,1.719a45.965,45.965,0,0,1,14.328,14.543s.311.448.035.377a50.8,50.8,0,0,0-14.934-14.755q-2.356.679-4.718,1.349c.528.369.952.682.952.682,5.288,4.546,8.891,10.9,11.209,17.587a1.4,1.4,0,0,1-.1.406l-.294-.141c-2.359-6.521-5.92-12.747-11.228-17.26,0,0-.585-.544-1.214-1.082q-3.481.983-6.978,1.938s-1.69.444-3.13.8c0,0-1.487.249-3.09.5,0,0-.731.184-.342-.383.961-.286,1.908-.6,2.851-.941,0,0,3.337-.9,5.685-1.517q2.032-.541,4.063-1.092c.2-.719.511-1.8.792-2.67a72.16,72.16,0,0,0,2.594-9.552,45.976,45.976,0,0,0,.469-13.092l.047-.135a54.393,54.393,0,0,1-1.742,20.912l-.045.167a22.1,22.1,0,0,1-1.114,3.365c-.131.266-.282.551-.422.809l.042.027q2.71-.738,5.417-1.49l.218-.75c.41-.9.818-1.8,1.21-2.7,0,0,.786-1.7,1.335-3.182a45.05,45.05,0,0,0,2.426-16.72l.127-.267a47.54,47.54,0,0,1-3.14,20.4c-.412.936-.845,1.863-1.277,2.789,0,0-.042.059-.154.229q2.6-.724,5.193-1.455c1.68-6.509,4.568-12.583,3.867-20.391l.085-.282.125.1a30.273,30.273,0,0,1-.7,12.027c-.789,2.825-2,5.557-2.854,8.4q3.2-.9,6.406-1.812c.133-.625.336-1.526.54-2.225a58.2,58.2,0,0,0,2.613-14.085l.167-.378a3.076,3.076,0,0,1,.134.841,50.39,50.39,0,0,1-3.024,15.725l4.789-1.358c.233-1.057.661-2.968.938-4.033a35.849,35.849,0,0,0,1.478-10.12l.17-.2a1.5,1.5,0,0,1,.231.643,26.086,26.086,0,0,1-.41,6.48s-.375,1.71-.7,2.835c-.409,1.434-.793,2.881-1.3,4.274q3.18-.9,6.357-1.793a1.209,1.209,0,0,0,.088-.252s.263-1.889.386-3.146c.389-3.677.922-7.4.4-11.054l.105-.234.16.117a36.047,36.047,0,0,1,.167,10.188,15.868,15.868,0,0,1-.734,4.221q1.894-.531,3.788-1.056a.755.755,0,0,1,.038-.07,25.978,25.978,0,0,0,2.914-8.307,51.946,51.946,0,0,0,.973-9.252l.147-.156a2.3,2.3,0,0,1,.167.705c.117,4.792-.289,9.664-1.991,13.8a21.642,21.642,0,0,1-1.591,3.1q3.038-.84,6.077-1.662a25.137,25.137,0,0,0,4.824-12.742s.415-.554.353.477a22.937,22.937,0,0,1-1.514,7.217,19.263,19.263,0,0,1-2.868,4.833q4.382-1.179,8.769-2.3l.3-.077s.423-.095.111.434Q598.7,262.643,594.548,263.791Z" transform="translate(-538.201 -247.769)" fill="#8ebe34" fill-rule="evenodd"/></g></g></g></g><g transform="translate(433.035 155.086)"><path d="M469.033,237.89l-6.384-8.9s8.388-7.115,15.053-9.209c9.092-2.858,53.262,1.849,57.4,4.837,3.764,2.719,7.539,26.216,2.874,45.724-.454,1.9-6.446,9.861-9.713,11.369C523.8,283.768,469.033,237.89,469.033,237.89Z" transform="translate(-460.498 -181.312)" fill="#897fdb" fill-rule="evenodd"/><g transform="translate(2.151 37.58)"><g clip-path="url(#e)"><g transform="translate(57.875 2.106)"><path d="M562,238.511s10.043-6.987,14.637-15.094,14.736,37.933,5.226,54.5-20.944,15.965-20.944,15.965S563.237,238.7,562,238.511Z" transform="translate(-560.915 -222.468)" fill="#7b61d2" fill-rule="evenodd"/></g></g></g><path d="M461.148,234.948c-3.037,2.653-2.84,44.451.476,46.912,3.914,2.906,61.621,9.85,65.517,6.2,2.725-2.55,4.24-44.271-2.424-48.031C517.29,235.841,465.917,230.782,461.148,234.948Z" transform="translate(-458.997 -187.272)" fill="#4d2cb1" fill-rule="evenodd"/><g transform="translate(27.181 60.492)"><path d="M505.268,257.795l10.853,1.013L516,284.374l-10.853-1.013Z" transform="translate(-505.147 -257.795)" fill="#897fdb" fill-rule="evenodd"/><g clip-path="url(#f)"><g transform="translate(3.694 -0.152)"><path d="M511.549,257.536l7.471.7-.13,27.4-7.47-.7Z" transform="translate(-511.419 -257.536)" fill="#7b61d2" fill-rule="evenodd"/></g></g></g><g transform="translate(14.451 38.656)"><ellipse cx="7.758" cy="3.663" rx="7.758" ry="3.663" fill="#4d2cb1"/></g><g transform="translate(48.843 41.082)"><ellipse cx="3.914" cy="7.964" rx="3.914" ry="7.964" transform="translate(0 7.815) rotate(-86.683)" fill="#4d2cb1"/></g><g transform="translate(16.418)"><path d="M521.771,199.194c.24-4.825.422-19.1.422-19.1s.456-12.666-11.785-12.787c-7.239-.072-10.776,5.245-11.179,10.5-.285,3.721-.378,15.711-.642,18.37-.149,1.5-.135,3.382-5.708,3.785-2.726.2-5.641-1.246-5.73-2.378-.1-1.243-.557-13.129-.022-21.024.506-7.459,1.657-21.925,24.164-21.464,22.88.468,23.672,17.389,23.3,25.934-.535,12.41-.545,15.99-.822,18.939-.178,1.9-3.511,3.464-6.579,3.231C524.313,202.981,521.677,201.086,521.771,199.194Z" transform="translate(-486.873 -155.086)" fill="#d6bff2" fill-rule="evenodd"/><g clip-path="url(#g)"><g transform="translate(-3.698 -8.79)"><path d="M481.682,185.712s4.192,3.974,8.3.477c0,0,.02-8.644.578-15.144.306-3.564.18-10.377,6.47-13.8,10.859-5.907,14.886,2.693,24.317-6.444,3.171-3.072,3.439-13.694-13.407-9.792S476.415,159.465,481.682,185.712Z" transform="translate(-480.594 -140.161)" fill="#ebdff9" fill-rule="evenodd"/></g></g></g></g></g><ellipse cx="45.422" cy="6.695" rx="45.422" ry="6.695" transform="translate(232.314 407.256)" fill="#e8f0f9"/></g></svg>