<svg xmlns="http://www.w3.org/2000/svg" width="44" height="50.788" viewBox="0 0 44 50.788"><defs><style>.a,.b{fill:#009bff;}.a{fill-rule:evenodd;}.c{fill:#c9bd2e;}</style></defs><g transform="translate(0 0)"><g transform="translate(0 0)"><path class="a" d="M13.351,958.558V1006.1H36.967a11.233,11.233,0,0,1-.731-1.159H14.51V959.718H48.134v28.867a11.138,11.138,0,0,1,1.159.274v-30.3Z" transform="translate(-13.351 -958.558)"/><path class="a" d="M28.513,1006.37v1.158H46.877v-1.158Z" transform="translate(-19.723 -978.653)"/><path class="a" d="M28.513,1014.181v1.158H44.3a11.3,11.3,0,0,1,1.258-1.158Z" transform="translate(-19.723 -981.936)"/><path class="b" d="M38.325,987.889v3.62h6.987v-3.62H44.155v2.462H39.482v-2.462Z" transform="translate(-23.847 -970.885)"/><path class="b" d="M42.875,981.553a2.036,2.036,0,1,0,2.037,2.036A2.043,2.043,0,0,0,42.875,981.553Zm0,1.157a.879.879,0,1,1-.879.879A.868.868,0,0,1,42.875,982.71Z" transform="translate(-24.904 -968.223)"/><path class="b" d="M39.007,975.127a7.371,7.371,0,1,0,7.372,7.371A7.379,7.379,0,0,0,39.007,975.127Zm0,1.157a6.214,6.214,0,1,1-6.213,6.214A6.2,6.2,0,0,1,39.007,976.284Z" transform="translate(-21.036 -965.522)"/><path class="a" d="M28.513,1021.992v1.158h13.2a11.131,11.131,0,0,1,.4-1.158Z" transform="translate(-19.723 -985.219)"/><path class="b" d="M39.1,975.343a7.245,7.245,0,1,0,7.245,7.245A7.252,7.252,0,0,0,39.1,975.343Zm0,.906a6.34,6.34,0,1,1-6.339,6.339,6.333,6.333,0,0,1,6.339-6.339Z" transform="translate(-21.127 -965.613)"/><path class="c" d="M62.81,1012.594a9.731,9.731,0,1,0,9.731,9.732,9.731,9.731,0,0,0-9.731-9.732Zm3.689,6.247.82.82-6.148,6.149-.82-.82L58.3,1022.94l.82-.82,2.051,2.049,5.328-5.33Z" transform="translate(-30.048 -981.268)"/></g></g></svg>