<svg xmlns="http://www.w3.org/2000/svg" width="15.941" height="19.281" viewBox="0 0 15.941 19.281"><defs><style>.a{fill:#3188fc;}</style></defs><g transform="translate(-248.88 -247.629)"><g transform="translate(248.88 247.63)"><path class="a" d="M212.269,37.142a1.916,1.916,0,0,0,1.4-.6,2.036,2.036,0,0,0,0-2.826L212.575,32.6a.429.429,0,0,0-.607-.009l-.009.009-1.09,1.116a2.035,2.035,0,0,0,0,2.822A1.932,1.932,0,0,0,212.269,37.142Zm-.78-2.822.78-.8.775.793a1.171,1.171,0,0,1,0,1.629,1.073,1.073,0,0,1-1.512.039l-.039-.039A1.169,1.169,0,0,1,211.489,34.32Z" transform="translate(-204.298 -32.475)"/><path class="a" d="M84.8,147.093H81.118V144.3a1.293,1.293,0,0,0-1.28-1.3H78.089a1.29,1.29,0,0,0-1.28,1.3v2.792H73.13a2.15,2.15,0,0,0-2.137,2.163v4.955a.407.407,0,0,0,.4.422h.5l.414,1.357a2.152,2.152,0,0,0,2.059,1.529h9.19a2.163,2.163,0,0,0,2.059-1.529l.414-1.357h.487a.406.406,0,0,0,.414-.4v-4.972A2.15,2.15,0,0,0,84.8,147.093ZM77.671,144.3a.431.431,0,0,1,.414-.439h1.753a.425.425,0,0,1,.418.435v2.8H77.671Zm-4.541,3.653H84.793a1.286,1.286,0,0,1,1.275,1.3v2.352a3.49,3.49,0,0,1-1.271-.375,4.769,4.769,0,0,0-4.127,0,3.927,3.927,0,0,1-3.421,0,4.769,4.769,0,0,0-4.127,0,3.49,3.49,0,0,1-1.271.375v-2.352A1.293,1.293,0,0,1,73.13,147.955Zm-1.275,5.816v-1.3a4.485,4.485,0,0,0,1.629-.452,3.908,3.908,0,0,1,3.412,0,4.788,4.788,0,0,0,4.136,0,3.484,3.484,0,0,1,1.71-.392,3.447,3.447,0,0,1,1.7.392,4.4,4.4,0,0,0,1.629.452v1.3Zm12.938,1.96a1.3,1.3,0,0,1-1.236.926h-9.19a1.306,1.306,0,0,1-1.236-.926l-.336-1.1H85.129Z" transform="translate(-70.993 -138.238)"/></g></g></svg>