<svg xmlns="http://www.w3.org/2000/svg" width="18.046" height="17.021" viewBox="0 0 18.046 17.021"><defs><style>.a{fill:#3188fc;}</style></defs><g transform="translate(-41.027 -41.54)"><g transform="translate(38.527 36.34)"><path class="a" d="M13.582,52.7v.152a2.068,2.068,0,0,1-4.137,0V52.7L2.88,51.433A.909.909,0,0,1,2.5,51.3v5.731a2.543,2.543,0,0,0,2.543,2.543H18a2.543,2.543,0,0,0,2.543-2.543V51.3a2.232,2.232,0,0,1-.38.133Z" transform="translate(0 -37.352)"/><path class="a" d="M18.022,8.805H15.707V7.857A2.664,2.664,0,0,0,13.05,5.2H9.976A2.664,2.664,0,0,0,7.32,7.857v.949H5a2.5,2.5,0,0,0-2.5,2.5v1.063a.73.73,0,0,0,.569.7l6.376,1.233a2.069,2.069,0,0,1,4.137,0l6.357-1.233a.728.728,0,0,0,.588-.7V11.291A2.5,2.5,0,0,0,18.022,8.805ZM9.274,7.838a.693.693,0,0,1,.683-.683H13.05a.693.693,0,0,1,.683.683v.949H9.274Z"/><path class="a" d="M46.587,50.182V49.044a1.044,1.044,0,0,0-2.087,0v1.139a1.044,1.044,0,0,0,2.087,0Z" transform="translate(-34.03 -34.679)"/></g></g></svg>