<svg xmlns="http://www.w3.org/2000/svg" width="13.32" height="14.895" viewBox="0 0 13.32 14.895"><defs><style>.a{fill:#717171;}</style></defs><g transform="translate(0 -0.001)"><path class="a" d="M23.829,30.209H14.371a1.933,1.933,0,0,1-1.931-1.931V18.821a1.933,1.933,0,0,1,1.931-1.931h9.458a1.933,1.933,0,0,1,1.931,1.931v9.457a1.933,1.933,0,0,1-1.931,1.931ZM14.371,17.6a1.224,1.224,0,0,0-1.222,1.222v9.457A1.224,1.224,0,0,0,14.371,29.5h9.458a1.224,1.224,0,0,0,1.222-1.222V18.821A1.224,1.224,0,0,0,23.829,17.6Z" transform="translate(-12.44 -15.314)"/><path class="a" d="M63.915,11.862a.355.355,0,0,1-.355-.355V8.355a.355.355,0,0,1,.709,0v3.153A.355.355,0,0,1,63.915,11.862Z" transform="translate(-54.495 -8)"/><path class="a" d="M32.795,11.862a.355.355,0,0,1-.355-.355V8.355a.355.355,0,1,1,.709,0v3.153A.355.355,0,0,1,32.795,11.862Z" transform="translate(-28.894 -8)"/><path class="a" d="M25.406,42.039H12.795a.355.355,0,1,1,0-.709H25.406a.355.355,0,0,1,0,.709Z" transform="translate(-12.44 -35.42)"/></g></svg>