<svg xmlns="http://www.w3.org/2000/svg" width="21.394" height="21.393" viewBox="0 0 21.394 21.393"><defs><style>.a{fill:#fcfbff;}</style></defs><g transform="translate(0 0)"><path class="a" d="M20.734,10.66a2.1,2.1,0,0,1-.349-2.45,2.1,2.1,0,0,0,.058-1.853,2.076,2.076,0,0,0-1.427-1.17,2.084,2.084,0,0,1-1.608-1.871,2.092,2.092,0,0,0-.945-1.591,2.057,2.057,0,0,0-1.827-.206,2.062,2.062,0,0,1-2.355-.7,2.062,2.062,0,0,0-3.3,0,2.062,2.062,0,0,1-2.355.7A2.057,2.057,0,0,0,4.8,1.726a2.092,2.092,0,0,0-.946,1.591A2.084,2.084,0,0,1,2.249,5.187,2.076,2.076,0,0,0,.822,6.357,2.1,2.1,0,0,0,.88,8.21a2.1,2.1,0,0,1-.35,2.45A2.1,2.1,0,0,0,1,13.95,2.1,2.1,0,0,1,2.019,16.2,2.1,2.1,0,0,0,2.482,18a2.064,2.064,0,0,0,1.7.717,2.071,2.071,0,0,1,2.065,1.338,2.08,2.08,0,0,0,1.352,1.257,2.058,2.058,0,0,0,1.811-.321,2.059,2.059,0,0,1,2.455,0,2.058,2.058,0,0,0,1.811.321,2.079,2.079,0,0,0,1.351-1.257,2.072,2.072,0,0,1,2.065-1.338,2.064,2.064,0,0,0,1.7-.717,2.1,2.1,0,0,0,.463-1.795,2.1,2.1,0,0,1,1.02-2.251,2.1,2.1,0,0,0,.469-3.29ZM8.858,15.951,4.31,11.364,6.247,9.411l2.612,2.634,6.029-6.079,1.938,1.952Z" transform="translate(0.064)"/></g></svg>