<svg xmlns="http://www.w3.org/2000/svg" width="19.277" height="13.898" viewBox="0 0 19.277 13.898"><defs><style>.a{fill:#d8d8d8;}</style></defs><g transform="translate(-694.818 -254.051)"><g transform="translate(692.361 -717.311)"><path class="a" d="M12.1,971.362a5.6,5.6,0,0,1,5.569,4.952,4.482,4.482,0,0,1-.413,8.945H6.268a3.811,3.811,0,1,1,0-7.621h.266a5.605,5.605,0,0,1,5.562-6.276Zm0,4.707a.448.448,0,0,0-.448.448v4.819l-1.716-1.562a.478.478,0,0,0-.637.028.455.455,0,0,0,.035.637l2.466,2.242a.391.391,0,0,0,.3.112.487.487,0,0,0,.3-.112l2.466-2.242a.461.461,0,0,0,.035-.637.469.469,0,0,0-.637-.028l-1.716,1.562v-4.819A.448.448,0,0,0,12.1,976.069Z"/></g></g></svg>