<svg xmlns="http://www.w3.org/2000/svg" width="25.683" height="19.785" viewBox="0 0 25.683 19.785"><defs><style>.a{fill:#fff;}</style></defs><g transform="translate(0 0)"><g transform="translate(0 0)"><path class="a" d="M13.952,18.029h.628a8.985,8.985,0,0,0,5.741-2.093l4.465,1.339a.7.7,0,0,0,.809-1l-2.456-4.4A9.02,9.02,0,0,0,9.271,1.754h-.1A8.853,8.853,0,0,0,1.611,15.211L.055,18.845a.7.7,0,0,0,.907.921l3.7-1.528a8.853,8.853,0,0,0,4.507,1.235,8.734,8.734,0,0,0,4.786-1.444Zm8.26-8.992a7.674,7.674,0,0,1-.488,2.686.7.7,0,0,0,.042.586l1.779,3.2-3.188-.956a.7.7,0,0,0-.7.153,7.59,7.59,0,0,1-5.106,1.967,6.975,6.975,0,0,1-.732-.035h0A7.625,7.625,0,0,1,9.829,3.066h0A7.625,7.625,0,0,1,22.2,9.037Z" transform="translate(0.002 -0.033)"/><path class="a" d="M15.618,17.755h6.941a.7.7,0,0,0,0-1.4H15.618a.7.7,0,0,0,0,1.4Z" transform="translate(-4.511 -4.97)"/><path class="a" d="M15.618,9.755h6.941a.7.7,0,1,0,0-1.4H15.618a.7.7,0,1,0,0,1.4Z" transform="translate(-4.511 -2.551)"/><path class="a" d="M15.618,13.755h6.941a.7.7,0,1,0,0-1.4H15.618a.7.7,0,0,0,0,1.4Z" transform="translate(-4.511 -3.761)"/></g></g></svg>