<svg xmlns="http://www.w3.org/2000/svg" width="19.529" height="19.453" viewBox="0 0 19.529 19.453"><defs><style>.a{fill:#fff;}</style></defs><g transform="translate(0 0)"><g transform="translate(0 0)"><path class="a" d="M70.1,324.922h-2.9l.067,3.529s0,.007,0,.01a2.586,2.586,0,0,0,2.583,2.583l11.7.038a3.581,3.581,0,0,1-1.129-2.607v-3.553H70.1Z" transform="translate(-67.193 -311.628)"/><path class="a" d="M146.906,87.18a2.614,2.614,0,0,0,2.638-2.583V68.784a1.035,1.035,0,0,0-1.034-1.034H134.59a1.037,1.037,0,0,0-1.034,1.025l-.118,11.235h10.313a.517.517,0,0,1,.517.517V84.6A2.614,2.614,0,0,0,146.906,87.18ZM136.619,71.451H146.3a.517.517,0,1,1,0,1.034h-9.678a.517.517,0,0,1,0-1.034Zm0,5.013a.517.517,0,0,1,0-1.034h9.6a.517.517,0,0,1,0,1.034Z" transform="translate(-130.014 -67.75)"/></g></g></svg>