<svg xmlns="http://www.w3.org/2000/svg" width="17.05" height="17.512" viewBox="0 0 17.05 17.512"><defs><style>.a{fill:#575757;}</style></defs><g transform="translate(-265.823 214.192)"><g transform="translate(254.523 -224.493)"><path class="a" d="M22.814,27.813A3.075,3.075,0,0,0,25.9,24.835l.353-10.9h1.654a.441.441,0,1,0,0-.882H23.277v-.993A1.77,1.77,0,0,0,21.512,10.3H18.16A1.77,1.77,0,0,0,16.4,12.065v.993H11.741a.441.441,0,0,0,0,.882H13.4l.353,10.9a3.075,3.075,0,0,0,3.088,2.978ZM17.277,12.065a.885.885,0,0,1,.882-.882h3.353a.885.885,0,0,1,.882.882v.993H17.277ZM14.653,24.791,14.3,13.917H25.394l-.375,10.874a2.214,2.214,0,0,1-2.206,2.139H16.858A2.2,2.2,0,0,1,14.653,24.791Z"/><path class="a" d="M48.441,46.477a.442.442,0,0,0,.441-.441V39.441a.441.441,0,1,0-.882,0v6.595A.442.442,0,0,0,48.441,46.477Z" transform="translate(-28.605 -22.37)"/><path class="a" d="M36.441,46.477a.442.442,0,0,0,.441-.441V39.441a.441.441,0,1,0-.882,0v6.595A.442.442,0,0,0,36.441,46.477Z" transform="translate(-19.252 -22.37)"/><path class="a" d="M60.441,46.477a.442.442,0,0,0,.441-.441V39.441a.441.441,0,1,0-.882,0v6.595A.442.442,0,0,0,60.441,46.477Z" transform="translate(-37.958 -22.37)"/></g></g></svg>