<svg xmlns="http://www.w3.org/2000/svg" width="25.25" height="25.25" viewBox="0 0 25.25 25.25"><defs><style>.a{fill:#3188fc;}</style></defs><g transform="translate(0 -0.016)"><path class="a" d="M21.159,201.257,12.9,198.546a1.666,1.666,0,0,0-2.235-1.694L4.9,191.871a.421.421,0,0,0-.64.108L3.614,193.1a2.52,2.52,0,0,0-3.066,1.1l-.21.364a2.524,2.524,0,0,0,.943,3.459l6.425,3.293a1.686,1.686,0,0,0,.3,1.42l-1.325,2.3a.421.421,0,0,0,.473.617l1.318-.353.353,1.318a.421.421,0,0,0,.351.308.445.445,0,0,0,.055,0,.422.422,0,0,0,.365-.21l1.815-3.143,4.424,2.858a2.525,2.525,0,0,0,3.451-.926l.21-.364,1.894-3.28a.421.421,0,0,0-.234-.61Zm-9.51-3.556a.841.841,0,0,1,.308,1.15l-1.894,3.282a.842.842,0,0,1-1.458-.842l1.894-3.28a.842.842,0,0,1,1.152-.31Zm-6.91-4.86,4.214,3.643-4.6-2.972ZM.9,196.269a1.675,1.675,0,0,1,.168-1.277l.21-.364A1.683,1.683,0,0,1,3.558,194l6.035,3.9-1.535,2.659-6.376-3.267A1.671,1.671,0,0,1,.9,196.269Zm8.481,9.152-.2-.743a.421.421,0,0,0-.516-.3l-.744.2.762-1.319a1.674,1.674,0,0,0,1.774-.3l.25.161Zm6.9.3-5.326-3.441,1.578-2.732,5.624,2.884a1.683,1.683,0,0,1,.616,2.3l-.21.364a1.683,1.683,0,0,1-2.281.626Zm3.426-2.609a2.513,2.513,0,0,0-1.148-1.421l-2.172-1.111,4.02,1.32Zm0,0" transform="translate(0 -181.666)"/><path class="a" d="M145.961,4.646l.522-1.613a.421.421,0,0,0-.21-.505l-1.509-.771-.771-1.51a.421.421,0,0,0-.505-.21L141.874.56,140.261.038a.421.421,0,0,0-.5.21l-.771,1.509-1.51.771c-.007,0-.012.01-.018.014h-7.365a2.106,2.106,0,0,0-2.1,2.1v5.786a.421.421,0,1,0,.842,0V4.646a1.262,1.262,0,0,1,1.262-1.262h7.288l.408,1.262-.522,1.613a.421.421,0,0,0,.21.5l1.51.771.771,1.51a.421.421,0,0,0,.505.21l1.611-.524.421.136v9.243a.421.421,0,0,0,.842,0V9.141l.352.114a.421.421,0,0,0,.5-.21l.771-1.51,1.51-.771a.421.421,0,0,0,.21-.505Zm-.842.129.453,1.4-1.312.67a.419.419,0,0,0-.183.183l-.671,1.312L142,7.89a.415.415,0,0,0-.259,0l-1.4.453-.67-1.312a.419.419,0,0,0-.183-.183l-1.312-.67.453-1.4a.411.411,0,0,0,0-.259l-.453-1.4,1.312-.67a.419.419,0,0,0,.183-.183l.67-1.312,1.4.454a.418.418,0,0,0,.259,0l1.4-.454.67,1.312a.42.42,0,0,0,.183.183l1.312.67-.454,1.4a.423.423,0,0,0,0,.259Zm0,0" transform="translate(-121.256 0)"/><path class="a" d="M354.092,48.047a2.1,2.1,0,1,0,2.1,2.1A2.1,2.1,0,0,0,354.092,48.047Zm0,3.366a1.262,1.262,0,1,1,1.262-1.262A1.262,1.262,0,0,1,354.092,51.413Zm0,0" transform="translate(-333.473 -45.505)"/><path class="a" d="M192.409,192.889h7.154a.421.421,0,1,0,0-.842h-7.154a.421.421,0,1,0,0,.842Zm0,0" transform="translate(-181.89 -181.93)"/><path class="a" d="M222.3,232.047h-5.891a.421.421,0,0,0,0,.842H222.3a.421.421,0,0,0,0-.842Zm0,0" transform="translate(-204.627 -219.826)"/><path class="a" d="M275.354,272.047h-2.946a.421.421,0,1,0,0,.842h2.946a.421.421,0,0,0,0-.842Zm0,0" transform="translate(-257.681 -257.722)"/><path class="a" d="M193.25,112.889h2.525a.421.421,0,0,0,0-.842H193.25a1.262,1.262,0,0,0,0,2.525h2.525a.421.421,0,0,0,0-.842H193.25a.421.421,0,0,1,0-.842Zm0,0" transform="translate(-181.89 -106.138)"/></g></svg>