<svg xmlns="http://www.w3.org/2000/svg" width="15.317" height="15.996" viewBox="0 0 15.317 15.996"><defs><style>.a{fill:#575757;}</style></defs><g transform="translate(-11.5 -9.5)"><g transform="translate(11.5 9.5)"><path class="a" d="M25.768,24.745a2.519,2.519,0,0,1-2.524,2.524H15.072a2.519,2.519,0,0,1-2.524-2.524V16.572a2.519,2.519,0,0,1,2.524-2.524H20.8V13H15.072A3.575,3.575,0,0,0,11.5,16.572v8.173a3.575,3.575,0,0,0,3.572,3.572h8.173a3.575,3.575,0,0,0,3.572-3.572V17.97H25.768Z" transform="translate(-11.5 -12.321)"/><path class="a" d="M43.6,18.6l2.213-.039,6.581-6.581-.019-.019a1.58,1.58,0,0,0,.311-.932A1.525,1.525,0,0,0,51.152,9.5h0a1.58,1.58,0,0,0-.932.311h0l-.136.136-.019.019-.019.019-6.406,6.406Zm1.068-1.767,5.571-5.571.272.194L50.8,10.7a.471.471,0,0,1,.7,0,.455.455,0,0,1,.136.33.486.486,0,0,1-.155.349c-.019.019-.058.058-.078.058l-.718.33.214.194-5.533,5.571-.7.019Z" transform="translate(-37.369 -9.5)"/></g></g></svg>