<svg xmlns="http://www.w3.org/2000/svg" width="75.8" height="54.68" viewBox="0 0 75.8 54.68"><defs><style>.a{fill:#009dfe;}.b{fill:#fff;stroke:#707070;}.c{fill:#70c70c;fill-rule:evenodd;}.d{stroke:none;}.e{fill:none;}</style></defs><g transform="translate(-645 -338)"><g transform="translate(700 368)"><g transform="translate(-66 -1010.362)"><path class="a" d="M37,979.362a5.034,5.034,0,0,0-5,5v36a5.034,5.034,0,0,0,5,5H91a5.034,5.034,0,0,0,5-5v-36a5.034,5.034,0,0,0-5-5H37Zm0,4H91a.957.957,0,0,1,1,1v36a.957.957,0,0,1-1,1H37a.957.957,0,0,1-1-1v-36A.957.957,0,0,1,37,983.362Zm7.781,5.969a2,2,0,0,0-1.188,3.437l10.063,10-10,9.094a2,2,0,1,0,2.688,2.969l10.156-9.25,3.031,3a6.353,6.353,0,0,0,8.906,0l3.031-3,10.188,9.25a2,2,0,1,0,2.688-2.969l-10.031-9.125,10.094-9.969a2,2,0,1,0-2.813-2.844l-16,15.813a2.689,2.689,0,0,1-3.25,0L46.406,989.925a2,2,0,0,0-1.625-.594Z" transform="translate(-21 1)"/><g class="b" transform="translate(60 1007.362)"><circle class="d" cx="13" cy="13" r="13"/><circle class="e" cx="13" cy="13" r="12.5"/></g><g transform="translate(55.119 1003.362)"><g transform="translate(0)"><path class="c" d="M1030.84,1015a15.84,15.84,0,1,1-15.84,15.84A15.839,15.839,0,0,1,1030.84,1015Zm-9.333,15.268a.732.732,0,0,1,1.117-.946l5.338,6.3,12.144-11.138a.733.733,0,0,1,.994,1.077l-12.708,11.655a.735.735,0,0,1-1.057-.064Z" transform="translate(-1015 -1015)"/></g></g></g></g></g></svg>