<svg xmlns="http://www.w3.org/2000/svg" width="92" height="46" viewBox="0 0 92 46"><defs><style>.a{fill:#009dfe;}</style></defs><g transform="translate(62 31)"><g transform="translate(-66 -1010.362)"><path class="a" d="M37,979.362a5.034,5.034,0,0,0-5,5v36a5.034,5.034,0,0,0,5,5H91a5.034,5.034,0,0,0,5-5v-36a5.034,5.034,0,0,0-5-5H37Zm0,4H91a.957.957,0,0,1,1,1v36a.957.957,0,0,1-1,1H37a.957.957,0,0,1-1-1v-36A.957.957,0,0,1,37,983.362Zm-31,5a2,2,0,0,0,0,4H26a2,2,0,0,0,0-4Zm38.781.969a2,2,0,0,0-1.188,3.437l10.063,10-10,9.094a2,2,0,1,0,2.688,2.969l10.156-9.25,3.031,3a6.353,6.353,0,0,0,8.906,0l3.031-3,10.188,9.25a2,2,0,1,0,2.688-2.969l-10.031-9.125,10.094-9.969a2,2,0,1,0-2.813-2.844l-16,15.813a2.689,2.689,0,0,1-3.25,0L46.406,989.925a2,2,0,0,0-1.625-.594ZM10,1000.36a2,2,0,0,0,0,4H26a2,2,0,0,0,0-4Zm4,12a2,2,0,0,0,0,4H26a2,2,0,0,0,0-4Z"/></g></g></svg>