<svg xmlns="http://www.w3.org/2000/svg" xmlns:xlink="http://www.w3.org/1999/xlink" width="317.747" height="169.735" viewBox="0 0 317.747 169.735"><defs><linearGradient id="a" x1="0.5" x2="0.5" y2="1" gradientUnits="objectBoundingBox"><stop offset="0" stop-color="#cbdffe"/><stop offset="1" stop-color="#f8f8ff"/><stop offset="1" stop-color="#f1f1f2"/></linearGradient><linearGradient id="b" y1="0.5" x2="1" y2="0.5" gradientUnits="objectBoundingBox"><stop offset="0" stop-color="#d6e3f3"/><stop offset="1" stop-color="#94b0dc"/></linearGradient><linearGradient id="d" x1="0.09" y1="-0.959" x2="0.91" y2="1.959" xlink:href="#b"/><linearGradient id="e" x1="-0.066" y1="0.291" x2="0.92" y2="0.636" xlink:href="#b"/></defs><g transform="translate(-593 -588.678)"><g transform="translate(593 637.487)"><g transform="translate(0 -43.487)"><g transform="translate(0 43.487)"><ellipse cx="45.422" cy="6.695" rx="45.422" ry="6.695" transform="translate(116.314 80.768)" fill="#e8f0f9"/><path d="M-455.581,379.95c-.054.279-11.181-.323-11.8-.339-8.8-.233-17.609-.479-26.382-1.264-9.734-.871-19.318-2.888-29.038-3.863-9.977-1-20.007-1.251-30.019-1.691-15.279-.67-30.574-.957-45.867-.957q-9.5,0-18.995.157-8.992.15-17.982.454-8.359.285-16.712.725-7.6.4-15.184.97c-6.339.482-12.669,1.064-18.981,1.818-2.139.255-4.274.533-6.4.856-2.054.312-4.078.769-6.14,1.058a122.486,122.486,0,0,1-14.021.8c-4.854.115-9.708.173-14.564.237-3.156.043-6.312.088-9.468.157-.535.011-1.072.036-1.607.036q-9.609.211-19.216.461-7.08.184-14.159.389c.606-.018,5.3-16.074,5.8-17.375,4.055-10.616,19.469-49.216,35.236-30.613,9.132,10.776,11.023,24.9,15.364,37.816,0,0,4.277,12.708,15.721,1.732,6.42-6.158,12.961-13.336,21.346-16.8a16.409,16.409,0,0,1,11.62-.753c5.225,1.779,7.856,6.428,11.8,9.868,2.894,2.525,7.472,5.082,8.4-.519a17.988,17.988,0,0,1,14.6-14.836c7.888-1.618,15.949-.316,23.491,2.229a108.018,108.018,0,0,1,10.915,4.42c1.222.567,2.456,1.105,3.666,1.7.986.483,1.915,1.086,2.919,1.53,1.128.5,2.338,1.185,3.611.881A18.426,18.426,0,0,0-585,358.072c1.1-.459,2.171-1.005,3.246-1.517,2.209-1.051,4.408-2.123,6.635-3.134a75.729,75.729,0,0,1,11.083-4.143c5.756-1.6,11.832-2.63,17.811-1.955a24.352,24.352,0,0,1,7.771,2.078c4.135,2,7.33,4.5,12.223,3.67,3.827-.651,5.613-3.636,6.378-7.176,1.387-6.416,1.034-12.534,4.391-18.421a36.16,36.16,0,0,1,12.522-13.037,22.475,22.475,0,0,1,20.829-1.452,40.4,40.4,0,0,1,4.919,2.592C-446.682,334.294-455.58,379.949-455.581,379.95Z" transform="translate(772.119 -311.088)" fill="url(#a)"/><g transform="translate(59.167 75.737)"><rect width="12.201" height="1.981" transform="translate(13.543 41.751)" fill="url(#b)"/><path d="M-620.067,452.989a11.931,11.931,0,0,1,.323,2.757,11.066,11.066,0,0,1-8.708,11.047v8.195h-3.8v-8.195a11.053,11.053,0,0,1-8.727-11.047,11.851,11.851,0,0,1,.323-2.757,12.917,12.917,0,0,1-2.719-7.948,13.016,13.016,0,0,1,13.005-13.024,13.02,13.02,0,0,1,13.025,13.024A12.921,12.921,0,0,1-620.067,452.989Z" transform="translate(643.378 -432.017)" fill="url(#b)"/></g><g transform="translate(28.348 50.32)"><rect width="7.174" height="1.165" transform="translate(7.516 24.103)" fill="url(#d)"/><path d="M-733.175,386.945a7.02,7.02,0,0,1,.19,1.621,6.508,6.508,0,0,1-5.121,6.5v4.818h-2.236v-4.818a6.5,6.5,0,0,1-5.131-6.5,6.984,6.984,0,0,1,.19-1.621,7.6,7.6,0,0,1-1.6-4.673,7.653,7.653,0,0,1,7.647-7.658,7.656,7.656,0,0,1,7.658,7.658A7.6,7.6,0,0,1-733.175,386.945Z" transform="translate(746.882 -374.613)" fill="url(#e)"/></g><g transform="translate(269.987 50.32)"><rect width="7.174" height="1.165" transform="translate(7.516 24.103)" fill="url(#b)"/><path d="M-415.6,386.945a7.024,7.024,0,0,1,.19,1.621,6.508,6.508,0,0,1-5.121,6.5v4.818h-2.236v-4.818a6.5,6.5,0,0,1-5.131-6.5,6.982,6.982,0,0,1,.19-1.621,7.6,7.6,0,0,1-1.6-4.673,7.653,7.653,0,0,1,7.647-7.658A7.656,7.656,0,0,1-414,382.271,7.6,7.6,0,0,1-415.6,386.945Z" transform="translate(429.308 -374.613)" fill="url(#b)"/></g></g></g></g><g transform="translate(685.95 588.678)"><g transform="translate(111.206 34.8)"><g transform="translate(0)"><path d="M350.825,117.05V131.8l9.365-6.957Z" transform="translate(-350.825 -117.05)" fill="url(#b)"/></g></g><g transform="translate(56.532 0)"><path d="M182.088,2.066a8.926,8.926,0,0,0-11.387-.03l-3.776,3.211h19Z" transform="translate(-166.925 0)" fill="url(#b)"/></g><g transform="translate(9.824 48.624)"><g transform="translate(0)"><path d="M74.875,198.9a14.572,14.572,0,0,1-8.83,2.914,14.854,14.854,0,0,1-8.86-2.914L9.825,163.55v60.621a8.9,8.9,0,0,0,8.83,8.949h94.692a8.9,8.9,0,0,0,8.83-8.949V163.55Z" transform="translate(-9.824 -163.55)" fill="url(#b)"/></g></g><g transform="translate(11.46 35.067)"><path d="M15.325,125.472l9.068,6.749V117.95Z" transform="translate(-15.325 -117.95)" fill="url(#b)"/></g><g transform="translate(26.474 11.193)"><path d="M65.825,37.65V80.224l34.19,25.45a9.149,9.149,0,0,0,10.733,0l33.863-25.241V37.65ZM86.934,61.435h16.055a2.973,2.973,0,0,1,0,5.946H86.934a2.973,2.973,0,0,1,0-5.946ZM123.8,82.246H86.934a2.973,2.973,0,0,1,0-5.946H123.8a2.973,2.973,0,1,1,0,5.946Z" transform="translate(-65.825 -37.65)" fill="url(#b)"/></g></g></g></svg>