<svg xmlns="http://www.w3.org/2000/svg" xmlns:xlink="http://www.w3.org/1999/xlink" width="308.712" height="185.284" viewBox="0 0 308.712 185.284"><defs><linearGradient id="a" x1="0.5" x2="0.5" y2="1" gradientUnits="objectBoundingBox"><stop offset="0" stop-color="#cbdffe"/><stop offset="1" stop-color="#f8f8ff"/><stop offset="1" stop-color="#f1f1f2"/></linearGradient><linearGradient id="b" x1="0.008" y1="0.508" x2="0.991" y2="0.508" gradientUnits="objectBoundingBox"><stop offset="0" stop-color="#d6e3f3"/><stop offset="1" stop-color="#a3bce1"/></linearGradient><filter id="c" x="87.779" y="37.732" width="78.212" height="99.202" filterUnits="userSpaceOnUse"><feOffset input="SourceAlpha"/><feGaussianBlur stdDeviation="1.5" result="d"/><feFlood flood-opacity="0.161"/><feComposite operator="in" in2="d"/><feComposite in="SourceGraphic"/></filter><linearGradient id="e" x1="0.019" y1="0.49" x2="1.01" y2="0.49" gradientUnits="objectBoundingBox"><stop offset="0" stop-color="#94b0dc"/><stop offset="1" stop-color="#94b0dc"/></linearGradient><linearGradient id="f" x1="-0.008" y1="0.478" x2="0.996" y2="0.478" gradientUnits="objectBoundingBox"><stop offset="0" stop-color="#94b0dc"/><stop offset="1" stop-color="#d6e3f3"/></linearGradient><linearGradient id="g" x1="-0.054" y1="0.726" x2="0.939" y2="0.726" xlink:href="#f"/></defs><g transform="translate(-105 -98)"><g transform="translate(105 98)"><g transform="translate(-100.651 -287.739)"><path d="M100.651,397.878s0-78.258,61.879-59.376c0,0,3.185-61.424,50.5-49.139,3.535.918,7.08,3.428,9.958,5.545A53.706,53.706,0,0,1,240.1,316.5a79.5,79.5,0,0,1,3.66,10.849c4.509-1.454,9.079-2.714,13.578-4.192,4.561-1.5,9.018-3.313,13.639-4.631,11.273-3.216,26.272-14.846,34.853-2.477a8.619,8.619,0,0,0,2.423-.216,9.791,9.791,0,0,0,2.177-1.063,63.419,63.419,0,0,1,8.354-3.956,48.14,48.14,0,0,1,8.325-2.532,26.1,26.1,0,0,1,11.472-.006c7.6,1.922,14.1,9.637,17.17,16.535,2.635,5.918,1.826,12.384,1.618,18.662l-.534,16.133-.251,7.564s1.593,3.867,5.233-1.138,41.859-29.8,47.547,31.849c-.02-.222-3.217-.831-3.454-.889q-4.425-1.084-8.9-1.953c-8.012-1.561-16.238-2.768-24.421-2.557a34,34,0,0,0-10.665,1.669,13.823,13.823,0,0,0-3.883,2.068,9.32,9.32,0,0,0-1.446,1.4c-.38.465-.663,1.352-1.091,1.718-.787.673-2.814.73-3.842.954-4.194.524-8.478,1.848-12.619,2.749l-12.67,2.758-28.921,6.3-25.334,5.516-11.713,2.55-.051.012-82.2-36.765S122.093,387.983,100.651,397.878Z" fill="url(#a)"/><g transform="translate(185.83 327.48)"><g transform="matrix(1, 0, 0, 1, -85.18, -39.74)" filter="url(#c)"><path d="M218.417,401.719l67.4,30.119,1.816-75.494-67.767-14.708Z" transform="translate(-126.14 -299.4)" fill="url(#b)"/></g><path d="M306.244,357.535l-1.816,75.494,63.956-23.641L367.1,347.141Z" transform="translate(-229.933 -340.336)" fill="url(#e)"/><path d="M308.2,363.933c-.078-.25.228-.263.391-.292l.7-.121c2.482-.428,1.724-.018,4.214-.377q1.375-.2,2.747-.41l4.257-.65,4.654-.711,4.9-.748,4.993-.762,4.937-.755,4.73-.722,4.372-.668,3.863-.59,3.2-.49,2.394-.365,1.432-.219.353-.054,8.431,23.334-50.183,17.955" transform="translate(-230.745 -342.253)" fill="#6f8ec8" opacity="0.51"/><path d="M225.192,350.907C225.6,350.778,284,363.5,284,363.5l-7.1,32.146-58.519-24.389Z" transform="translate(-211.311 -341.151)" fill="#6f8ec8" opacity="0.5"/><path d="M307.958,356.951q4.083-.833,8.186-1.568,1.509-.267,3.015-.549l4.674-.867,5.108-.948,5.377-1L339.8,351,345.218,350l5.192-.963,4.8-.891,4.24-.787,3.517-.652,2.627-.487,1.572-.292.387-.072,11.48,25.846L319.2,392.124l-.239-.669-.665-1.864-1.007-2.823-1.265-3.545-1.438-4.029-1.526-4.278-1.531-4.29-1.45-4.064-1.286-3.6-1.037-2.906a2.365,2.365,0,0,0-.229-.641l-.244-.684c-.158-.44-.339-.865-.508-1.3-.1-.255.237-.283.417-.32Z" transform="translate(-230.438 -340.058)" fill="url(#f)"/><path d="M218.028,341.641c.445-.127,65.59,14.167,65.59,14.167L273.4,388.172l-64.047-22.6Z" transform="translate(-209.357 -339.146)" fill="url(#g)"/><path d="M220.5,340.956l64.628-2.5,63.756,5.8-60.8,11.4Z" transform="translate(-211.768 -338.457)" fill="#809ac1"/></g><g transform="translate(340.825 373.099)"><path d="M427.887,416.083c0,7.368-4.129,13.436-9.384,14.076v6.786h-1.939v-6.786c-5.254-.64-9.4-6.708-9.4-14.076,0-7.793,4.654-19.408,10.373-19.408S427.887,408.289,427.887,416.083Z" transform="translate(-407.161 -396.675)" fill="#67cee5"/><rect width="15.329" height="1.81" transform="translate(11.36 38.459)" fill="#e1e2e5"/></g><g transform="translate(117.538 378.361)"><path d="M136.879,417.135c0,5.217-2.924,9.515-6.645,9.968v4.806h-1.374V427.1c-3.72-.453-6.659-4.751-6.659-9.968,0-5.52,3.295-13.744,7.345-13.744S136.879,411.615,136.879,417.135Z" transform="translate(-122.202 -403.391)" fill="#67cee5"/><rect width="10.855" height="1.282" transform="translate(8.044 27.235)" fill="#e1e2e5"/></g><g transform="translate(212.05 421.802)"><path d="M269.18,483.517c0,9.371-5.252,17.09-11.935,17.9v8.631h-2.466V501.42c-6.683-.813-11.961-8.532-11.961-17.9,0-9.914,5.918-24.686,13.194-24.686S269.18,473.6,269.18,483.517Z" transform="translate(-242.818 -458.831)" fill="#67cee5"/><rect width="19.497" height="2.303" transform="translate(14.448 48.918)" fill="#e1e2e5"/></g><path d="M190.032,464.972v0Z" transform="translate(-19.344 -38.075)" fill="#232528"/></g><g transform="translate(140.588 25.382) rotate(-68)"><rect width="2.916" height="13.51" rx="1.458" transform="translate(9.886 0) rotate(47.035)" fill="#80abf1"/><rect width="3.524" height="13.51" rx="1.739" transform="translate(18.152 10.811) rotate(69.395)" fill="#80abf1"/><rect width="2.916" height="13.51" rx="1.458" transform="matrix(0.1, 0.995, -0.995, 0.1, 20.64, 25.141)" fill="#80abf1"/></g></g></g></svg>