<svg xmlns="http://www.w3.org/2000/svg" xmlns:xlink="http://www.w3.org/1999/xlink" width="281.586" height="193.873" viewBox="0 0 281.586 193.873"><defs><linearGradient id="a" x1="0.5" x2="0.5" y2="1" gradientUnits="objectBoundingBox"><stop offset="0" stop-color="#cbdffe"/><stop offset="1" stop-color="#f8f8ff"/><stop offset="1" stop-color="#f1f1f2"/></linearGradient><linearGradient id="b" x1="84.679" y1="0.084" x2="86.06" y2="0.722" gradientUnits="objectBoundingBox"><stop offset="0" stop-color="#d6e3f3"/><stop offset="1" stop-color="#152f5b"/></linearGradient><linearGradient id="c" x1="-0.129" y1="0.084" x2="1.251" y2="0.722" gradientUnits="objectBoundingBox"><stop offset="0" stop-color="#7998ce"/><stop offset="1" stop-color="#d6e3f3"/></linearGradient><linearGradient id="d" x1="0" y1="0.5" x2="1" y2="0.5" xlink:href="#c"/><linearGradient id="e" x1="1" y1="0.5" x2="0" y2="0.5" gradientUnits="objectBoundingBox"><stop offset="0" stop-color="#6e8dc8"/><stop offset="0" stop-color="#fcfcfc"/><stop offset="1" stop-color="#d0def1"/></linearGradient><linearGradient id="g" y1="0.5" x2="1" y2="0.5" gradientUnits="objectBoundingBox"><stop offset="0" stop-color="#d6e3f3"/><stop offset="1" stop-color="#7998ce"/></linearGradient><linearGradient id="i" y1="0.5" x2="1" y2="0.5" gradientUnits="objectBoundingBox"><stop offset="0" stop-color="#94b0dc"/><stop offset="1" stop-color="#d6e3f3"/></linearGradient></defs><g transform="translate(-515 -78)"><g transform="translate(515 78)"><g transform="translate(17.595)"><path d="M129.772,431.817c.317-.183.5-2.456.57-2.8q.8-3.73,1.749-7.425,1.347-5.287,2.963-10.5c1.261-4.055,2.652-8.073,4.214-12.023a113.588,113.588,0,0,1,5.5-12,63.778,63.778,0,0,1,6.829-10.418,31.447,31.447,0,0,1,8.191-7.289,18.169,18.169,0,0,1,9.591-2.609,22.279,22.279,0,0,1,11.028,3.622c8.894,5.485,15.743,14.617,21.166,23.379q.911,1.471,1.771,2.973a10.522,10.522,0,0,0,1.371,2.03,3.159,3.159,0,0,0,4.286.638c1.912-1.248,3.171-3.483,4.176-5.466,2.493-4.915,4.26-10.024,7.06-14.828a127.876,127.876,0,0,1,12.672-17.653c5.538-6.6,11.842-12.856,19.3-17.271,6.529-3.867,14.248-6.175,21.775-4.124a28.413,28.413,0,0,1,12.662,7.927s12.036,26.146,16.6,17.016,17.016-50.217,46.9-36.936,20.75,62.667,20.75,62.667.188,2.709,3.112,1.037c6.2-3.541,12.267-12.864,19.848-13.5,4.532-.38,12.016,12.131,13.2,15.664,5.569,16.552,1.114,19.513,4.3,36.432,0,0-89.229-17.845-119.524-15.77C291.834,414.594,163.387,412.518,129.772,431.817Z" transform="translate(-147.367 -287.558)" fill="url(#a)"/><g transform="translate(71.714 0)"><ellipse cx="21.88" cy="4.434" rx="21.88" ry="4.434" transform="translate(67.173 139.164)" fill="#e8f0f9"/><g transform="translate(0 18.538)"><path d="M333.755,343.662l4.751,5.643,6.913-5.836c0-.2,1.055-.89,1.231-1.039L348,341.292l2.7-2.277c1.411-1.191,2.812-2.477,4.286-3.62a25.325,25.325,0,0,0,3.9-3.231,7.675,7.675,0,0,0,1.677-4.882v-26.9H341.026v7.376h12.127v19.5c.09-.072.142-.116.216,0a14.49,14.49,0,0,0-2.086,1.607l-2.43,2.051L342.6,336.2l-5.908,4.988Z" transform="translate(-250.26 -294.117)" fill="url(#b)"/><path d="M250.822,343.662,246.07,349.3l-6.913-5.836c0-.2-1.055-.89-1.23-1.039l-1.348-1.138-2.7-2.277c-1.411-1.191-2.812-2.477-4.286-3.62a25.329,25.329,0,0,1-3.9-3.231,7.679,7.679,0,0,1-1.676-4.882v-26.9h19.529v7.376H231.424v19.5c-.09-.072-.143-.116-.217,0a14.448,14.448,0,0,1,2.087,1.607l2.43,2.051,6.255,5.282,5.908,4.988Z" transform="translate(-224.022 -294.117)" fill="url(#c)"/><path d="M321.879,292.149v44.987c0,22.984-16.585,41.785-36.86,41.785s-36.86-18.8-36.86-41.785V292.149Z" transform="translate(-229.793 -292.149)" fill="url(#d)"/><path d="M294.323,319.906l5.272,10.683,11.789,1.713-8.531,8.315,2.014,11.742-10.545-5.544-10.545,5.544,2.014-11.742-8.531-8.315,11.789-1.713Z" transform="translate(-236.752 -298.786)" fill="url(#e)"/><rect width="15.913" height="22.35" transform="translate(47.649 85.583)" fill="url(#d)"/><rect width="35.928" height="10.746" rx="2.047" transform="translate(37.642 107.789)" fill="url(#g)"/><rect width="55.778" height="10.746" rx="2.047" transform="translate(27.717 116.73)" fill="url(#d)"/></g><g transform="translate(40.301)"><rect width="5.906" height="5.906" rx="1.31" fill="#80abf1"/><rect width="5.906" height="5.906" rx="1.217" transform="translate(12.304)" fill="#80abf1"/><rect width="5.906" height="5.906" rx="1.249" transform="translate(23.788)" fill="#80abf1"/></g></g><g transform="translate(2.011 120.739)"><ellipse cx="6.563" cy="1.378" rx="6.563" ry="1.378" transform="translate(6.459 33.858)" fill="#e8f0f9"/><path d="M161.653,420h-6.645v6.823h-2.224V420h-6.318l7.86-29.515Z" transform="translate(-146.466 -390.481)" fill="url(#i)"/></g><g transform="translate(226.314 98.316)"><ellipse cx="6.563" cy="1.378" rx="6.563" ry="1.378" transform="translate(9.042 43.187)" fill="#e8f0f9"/><path d="M460.259,397.942h-8.315v8.537h-2.783v-8.537h-7.905l9.835-36.931Z" transform="translate(-441.256 -361.01)" fill="url(#i)"/></g><g transform="translate(42.916 135.354)"><ellipse cx="12.555" cy="2.637" rx="12.555" ry="2.637" transform="translate(10.511 53.246)" fill="#e8f0f9"/><path d="M224.461,456.788h-10.6v10.888h-3.549V456.788H200.225l12.543-47.1Z" transform="translate(-200.225 -409.688)" fill="url(#i)"/></g></g></g></g></svg>