<svg xmlns="http://www.w3.org/2000/svg" xmlns:xlink="http://www.w3.org/1999/xlink" width="296.021" height="188.235" viewBox="0 0 296.021 188.235"><defs><linearGradient id="a" x1="0.5" x2="0.5" y2="1" gradientUnits="objectBoundingBox"><stop offset="0" stop-color="#cbdffe"/><stop offset="1" stop-color="#f8f8ff"/><stop offset="1" stop-color="#f1f1f2"/></linearGradient><linearGradient id="b" y1="0.5" x2="1" y2="0.5" gradientUnits="objectBoundingBox"><stop offset="0" stop-color="#d6e3f3"/><stop offset="1" stop-color="#94b0dc"/></linearGradient></defs><g transform="translate(-1505 -574.049)"><g transform="translate(1505 644.715)"><g transform="translate(0 -72.715)"><ellipse cx="48.19" cy="6.777" rx="48.19" ry="6.777" transform="translate(98.235 142.861)" fill="#e8f0f9"/><path d="M100.562,384.075c-1.708.386,13.656-81.29,44.871-39.669,7.243,9.656,17.577,19.034,30.429,18.656,8.345-.245,15.965-4.552,22.062-10,7.89-7.047,12.933-16.581,20.808-23.7a62.089,62.089,0,0,1,18.939-12.059c20.59-8,40.943,1.168,56.272,15.4a131.089,131.089,0,0,1,12.117,13c4.832,5.891,12.337,11.566,20.349,10.827,15.635-1.44,17.5-21.594,28.832-29.09a20.207,20.207,0,0,1,22.612.062c5.829,4.142,9.5,10.834,12.007,17.374,4.063,10.6,5.706,22.086,6.593,33.342q-10.234-.922-20.476-1.781-22.531-1.914-45.079-3.621c-15.055-1.125-30.122-2.21-45.205-2.882-16.208-.721-32.374.8-48.553,1.7-16.535.922-33.069,1.862-49.593,2.974-17.539,1.18-35.077,2.506-52.557,4.377C123.481,380.217,111.868,381.52,100.562,384.075Z" transform="translate(-100.433 -241.62)" fill="url(#a)"/></g><g transform="translate(246.174 32.645)"><path d="M427.887,416.083c0,7.368-4.129,13.436-9.384,14.076v6.786h-1.939v-6.786c-5.254-.64-9.4-6.708-9.4-14.076,0-7.793,4.654-19.408,10.373-19.408S427.887,408.289,427.887,416.083Z" transform="translate(-407.161 -396.675)" fill="#67cee5"/><rect width="15.329" height="1.81" transform="translate(11.36 38.459)" fill="#e1e2e5"/></g><g transform="translate(22.887 37.908)"><path d="M136.879,417.135c0,5.217-2.924,9.515-6.645,9.968v4.806h-1.374V427.1c-3.72-.453-6.659-4.751-6.659-9.968,0-5.52,3.295-13.744,7.345-13.744S136.879,411.615,136.879,417.135Z" transform="translate(-122.202 -403.391)" fill="#67cee5"/><rect width="10.855" height="1.282" transform="translate(8.044 27.235)" fill="#e1e2e5"/></g><g transform="translate(51.399 66.349)"><path d="M269.18,483.517c0,9.371-5.252,17.09-11.935,17.9v8.631h-2.466V501.42c-6.683-.813-11.961-8.532-11.961-17.9,0-9.914,5.918-24.686,13.194-24.686S269.18,473.6,269.18,483.517Z" transform="translate(-242.818 -458.831)" fill="#67cee5"/><rect width="19.497" height="2.303" transform="translate(14.448 48.918)" fill="#e1e2e5"/></g></g><g transform="translate(1572.944 569.782)"><g transform="translate(0 4.267)"><path d="M138.5,92.618a2.317,2.317,0,0,0-1.759-.809H22.731l-4.216-18.3c0-.081.026-.158.026-.241a9.374,9.374,0,1,0-3.229,6.976L18.6,94.526c.007.042-.009.083,0,.123l13.906,60.258s0,0,0,0l4.267,18.536a2.318,2.318,0,0,0,2.26,1.8h7.553a11.587,11.587,0,0,0,22.706,0H92.941a11.587,11.587,0,0,0,22.706,0h7.187a2.318,2.318,0,0,0,0-4.635h-7.187a11.587,11.587,0,0,0-22.706,0H69.294a11.587,11.587,0,0,0-22.706,0H40.88l-3.2-13.906h89.791a2.317,2.317,0,0,0,2.29-1.965l9.27-60.258A2.312,2.312,0,0,0,138.5,92.618Z" transform="translate(0 -47.775)" fill="url(#b)"/><path d="M283.42,43.614a2.281,2.281,0,0,0,.5.053,2.318,2.318,0,0,0,2.262-1.824c2.58-11.836,12.877-21.116,25-23.218L305.28,26a2.318,2.318,0,1,0,3.62,2.895l9.27-11.588a2.367,2.367,0,0,0,.137-.264,2.231,2.231,0,0,0,.192-.3,1.061,1.061,0,0,0,.033-.141,2.022,2.022,0,0,0,.086-.436,2.3,2.3,0,0,0,.035-.436,2.13,2.13,0,0,0-.083-.431,2.529,2.529,0,0,0-.07-.327c-.016-.039-.049-.072-.067-.111a2.414,2.414,0,0,0-.234-.348,2.167,2.167,0,0,0-.2-.3l-9.268-9.268a2.317,2.317,0,1,0-3.277,3.277l5.718,5.718c-14.425,2.1-26.437,12.756-29.522,26.914A2.319,2.319,0,0,0,283.42,43.614Z" transform="translate(-205.115 -4.267)" fill="url(#b)"/></g></g></g></svg>