<svg xmlns="http://www.w3.org/2000/svg" xmlns:xlink="http://www.w3.org/1999/xlink" width="296.021" height="175.282" viewBox="0 0 296.021 175.282"><defs><linearGradient id="a" x1="0.5" x2="0.5" y2="1" gradientUnits="objectBoundingBox"><stop offset="0" stop-color="#cbdffe"/><stop offset="1" stop-color="#f8f8ff"/><stop offset="1" stop-color="#f1f1f2"/></linearGradient><linearGradient id="b" x1="0.814" y1="0.949" x2="0.293" y2="0.204" gradientUnits="objectBoundingBox"><stop offset="0.002" stop-color="#d0def1"/><stop offset="1" stop-color="#f1f6fb"/></linearGradient><linearGradient id="c" x1="0.127" y1="0.144" x2="0.746" y2="0.735" gradientUnits="objectBoundingBox"><stop offset="0" stop-color="#d0def1"/><stop offset="1" stop-color="#a3bce1"/></linearGradient></defs><g transform="translate(-926 -87.002)"><g transform="translate(926 88)"><g transform="translate(0 -16)"><ellipse cx="39.19" cy="5.777" rx="39.19" ry="5.777" transform="translate(100.235 136.861)" fill="#e8f0f9"/><path d="M100.562,384.075c-1.708.386,13.656-81.29,44.871-39.669,7.243,9.656,17.577,19.034,30.429,18.656,8.345-.245,15.965-4.552,22.062-10,7.89-7.047,12.933-16.581,20.808-23.7a62.089,62.089,0,0,1,18.939-12.059c20.59-8,40.943,1.168,56.272,15.4a131.089,131.089,0,0,1,12.117,13c4.832,5.891,12.337,11.566,20.349,10.827,15.635-1.44,17.5-21.594,28.832-29.09a20.207,20.207,0,0,1,22.612.062c5.829,4.142,9.5,10.834,12.007,17.374,4.063,10.6,5.706,22.086,6.593,33.342q-10.234-.922-20.476-1.781-22.531-1.914-45.079-3.621c-15.055-1.125-30.122-2.21-45.205-2.882-16.208-.721-32.374.8-48.553,1.7-16.535.922-33.069,1.862-49.593,2.974-17.539,1.18-35.077,2.506-52.557,4.377C123.481,380.217,111.868,381.52,100.562,384.075Z" transform="translate(-100.433 -241.62)" fill="url(#a)"/><g transform="translate(70.322 20)"><g transform="translate(0 14.599)"><rect width="126.257" height="85.159" rx="3.479" transform="translate(0 11.236)" opacity="0.53" fill="url(#b)"/><rect width="124.869" height="85.159" rx="3.479" transform="translate(14.749)" fill="#6f8ec8"/><rect width="126.257" height="85.159" rx="3.479" transform="translate(10.784)" fill="url(#c)"/></g><g transform="translate(136.769 -4)"><path d="M361.176,228.385A14.359,14.359,0,0,1,374.4,241.34" transform="translate(-359.87 -221.069)" fill="none" stroke="#80abf1" stroke-linejoin="bevel" stroke-width="2"/><path d="M359.46,218.77a23.425,23.425,0,0,1,21.375,18.022,25.046,25.046,0,0,1,.578,3.471" transform="translate(-359.46 -218.77)" fill="none" stroke="#80abf1" stroke-miterlimit="10" stroke-width="2"/></g><g transform="translate(26.393 33.172)"><rect width="32.602" height="48.013" rx="2.113" fill="#a5c1dc"/><g transform="translate(0.144 9.326)"><path d="M252.3,319.408H219.845c1.4-10.955,8.108-19.259,16.217-19.284h.024C244.17,300.124,250.907,308.453,252.3,319.408Z" transform="translate(-219.845 -280.72)" fill="#76a5c5"/><ellipse cx="9.741" cy="9.741" rx="9.741" ry="9.741" transform="translate(6.446)" fill="#76a5c5"/></g></g><g transform="translate(68.102 36.087)"><rect width="52.459" height="8.99" fill="#8fa9d0"/><rect width="52.459" height="8.99" transform="translate(0 16.153)" fill="#8fa9d0"/><rect width="33.491" height="8.99" transform="translate(0 33.194)" fill="#8fa9d0"/></g></g></g><g transform="translate(246.174 89.36)"><path d="M427.887,416.083c0,7.368-4.129,13.436-9.384,14.076v6.786h-1.939v-6.786c-5.254-.64-9.4-6.708-9.4-14.076,0-7.793,4.654-19.408,10.373-19.408S427.887,408.289,427.887,416.083Z" transform="translate(-407.161 -396.675)" fill="#67cee5"/><rect width="15.329" height="1.81" transform="translate(11.36 38.459)" fill="#e1e2e5"/></g><g transform="translate(22.887 94.622)"><path d="M136.879,417.135c0,5.217-2.924,9.515-6.645,9.968v4.806h-1.374V427.1c-3.72-.453-6.659-4.751-6.659-9.968,0-5.52,3.295-13.744,7.345-13.744S136.879,411.615,136.879,417.135Z" transform="translate(-122.202 -403.391)" fill="#67cee5"/><rect width="10.855" height="1.282" transform="translate(8.044 27.235)" fill="#e1e2e5"/></g><g transform="translate(51.399 123.064)"><path d="M269.18,483.517c0,9.371-5.252,17.09-11.935,17.9v8.631h-2.466V501.42c-6.683-.813-11.961-8.532-11.961-17.9,0-9.914,5.918-24.686,13.194-24.686S269.18,473.6,269.18,483.517Z" transform="translate(-242.818 -458.831)" fill="#67cee5"/><rect width="19.497" height="2.303" transform="translate(14.448 48.918)" fill="#e1e2e5"/></g></g></g></svg>