<svg xmlns="http://www.w3.org/2000/svg" xmlns:xlink="http://www.w3.org/1999/xlink" width="289.118" height="173.873" viewBox="0 0 289.118 173.873"><defs><linearGradient id="a" x1="0.5" x2="0.5" y2="1" gradientUnits="objectBoundingBox"><stop offset="0" stop-color="#cbdffe"/><stop offset="1" stop-color="#f8f8ff"/><stop offset="1" stop-color="#f1f1f2"/></linearGradient><linearGradient id="b" y1="0.5" x2="1" y2="0.5" gradientUnits="objectBoundingBox"><stop offset="0" stop-color="#94b0dc"/><stop offset="1" stop-color="#d6e3f3"/></linearGradient></defs><g transform="translate(-1348 -98)"><g transform="translate(1348 98)"><path d="M408.092,386.005c-37.713-14.106-76.107-19.111-116.179-21.079q-15.9-.781-31.82-.771c-57.743,0-108.91,7.491-140.6,18.994.247-.09.4-4,.452-4.4,1.967-15.521,7.632-33.564,20.983-43,11.424-8.074,26.194-8.113,39.174-4.154,17.628,5.377,31.011,19.414,48.11,24.854,14.556,4.629,30.755-1.224,42.562-10.913,11.212-9.2,18.659-22.239,27.923-33.238,9.739-11.564,25.163-24.69,41.393-18.62,15.954,5.968,23.755,22.287,26.892,37.864a118.248,118.248,0,0,1,2.506,22.655,6.287,6.287,0,0,0,.336,2.47,2.062,2.062,0,0,0,1.924,1.347,2.516,2.516,0,0,0,1.856-1.717A44.108,44.108,0,0,1,384.5,341.548c3.976-3.692,9.866-7.2,14.9-3.274,6.942,5.409,8.831,14.325,9.155,22.675.173,4.444-.088,8.89-.342,13.326C407.986,378.23,407.069,382.08,408.092,386.005Z" transform="translate(-119.493 -266.227)" fill="url(#a)"/><g transform="translate(20.523 100.739)"><ellipse cx="6.563" cy="1.378" rx="6.563" ry="1.378" transform="translate(6.459 33.858)" fill="#e8f0f9"/><path d="M161.653,420h-6.645v6.823h-2.224V420h-6.318l7.86-29.515Z" transform="translate(-146.466 -390.481)" fill="url(#b)"/></g><g transform="translate(244.826 78.316)"><ellipse cx="6.563" cy="1.378" rx="6.563" ry="1.378" transform="translate(9.042 43.187)" fill="#e8f0f9"/><path d="M460.259,397.942h-8.315v8.537h-2.783v-8.537h-7.905l9.835-36.931Z" transform="translate(-441.256 -361.01)" fill="url(#b)"/></g><g transform="translate(61.428 115.354)"><ellipse cx="12.555" cy="2.637" rx="12.555" ry="2.637" transform="translate(10.511 53.246)" fill="#e8f0f9"/><path d="M224.461,456.788h-10.6v10.888h-3.549V456.788H200.225l12.543-47.1Z" transform="translate(-200.225 -409.688)" fill="url(#b)"/></g><g transform="translate(91.025 0)"><path d="M317.153,338.441q14.752,6.414,29.506,12.823a.725.725,0,0,1,.548,1.019c-1.273,5.652-3.047,11.474-6.207,16.381a20.788,20.788,0,0,1-5.415,5.865c-.543.381-7.267,3.309-7.267,2.659,0,3.283-31.523.657-32.18-6.567s-3.284-11.821,0-18.388S317.153,338.441,317.153,338.441Z" transform="translate(-252.369 -277.298)" fill="#8da9d8"/><path d="M252.251,288.107c3.335-7.294,7.026-14.146,10.078-20.083,1.364-2.652,2.84-5.431,5.363-7.023,7.466-4.711,19.754,4.493,26.812,7.672,9.267,4.174,18.589,8.293,28.032,12.006,1.937.762,3.883,2.032,4.5,4.021.664,2.143-.42,4.444-1.812,6.2-4.631,5.85-7.614,11.839-10.8,18.592-4.95,10.5-9.78,23.3-7.083,35.05,2.633,11.473,9.432,14.784,19.493,7.7-13.453,9.466-26.219,10.507-43.12,10.458-11.276-.033-22.688-6.39-30.427-14.616C237.041,330.821,243.455,307.347,252.251,288.107Z" transform="translate(-240.115 -258.467)" fill="#93afdb"/><path d="M248.689,286.445c2.469-5.4,5.1-10.724,7.856-15.986,2.1-4.008,4.059-9.531,8.453-11.553a11.319,11.319,0,0,1,6.345-.654c7.879,1.144,14.729,6.576,21.869,9.78,8.517,3.822,17.071,7.569,25.761,10.986,1.938.762,3.883,2.032,4.5,4.021.664,2.143-.42,4.444-1.812,6.2-4.632,5.85-7.615,11.839-10.8,18.592-4.95,10.5-9.78,23.3-7.084,35.05,2.633,11.473,11.925,17.022,21.985,9.943-20.186,14.2-48.158,15.844-68.168.3-8.384-6.512-17.1-17.458-18.244-28.317-1.378-13.08,3.68-25.856,8.963-37.545Q248.5,286.856,248.689,286.445Z" transform="translate(-239.122 -258.084)" fill="url(#b)"/></g><ellipse cx="39.19" cy="5.777" rx="39.19" ry="5.777" transform="translate(105.369 113.132)" fill="#e8f0f9"/><g transform="translate(180.468 15.91)"><rect width="2.646" height="6.686" rx="1.323" transform="translate(4.893 0) rotate(47.035)" fill="#80abf1"/><rect width="2.646" height="6.686" rx="1.323" transform="translate(8.984 5.351) rotate(69.395)" fill="#80abf1"/><rect width="2.646" height="6.686" rx="1.323" transform="matrix(0.1, 0.995, -0.995, 0.1, 10.095, 11.245)" fill="#80abf1"/></g><g transform="translate(103.409 12.302)"><line x2="39.502" y2="16.515" transform="translate(3.107 33.16)" fill="none" stroke="#7899c3" stroke-miterlimit="10" stroke-width="7"/><line x2="26.087" y2="11.073" transform="translate(0 42.506)" fill="none" stroke="#7899c3" stroke-miterlimit="10" stroke-width="7"/><rect width="43.687" height="28.51" rx="3.218" transform="translate(16.656 0) rotate(23.676)" fill="#7899c3"/></g></g></g></svg>