<svg xmlns="http://www.w3.org/2000/svg" width="24.175" height="18.398" viewBox="0 0 24.175 18.398"><defs><style>.a{fill:#3188fc;}</style></defs><path class="a" d="M21.224,57.75H2.956A2.959,2.959,0,0,0,0,60.706V73.192a2.959,2.959,0,0,0,2.956,2.956H21.219a2.959,2.959,0,0,0,2.956-2.956V60.711A2.956,2.956,0,0,0,21.224,57.75ZM22.83,73.192A1.607,1.607,0,0,1,21.224,74.8H2.956a1.607,1.607,0,0,1-1.606-1.606V60.711a1.608,1.608,0,0,1,1.606-1.606H21.219a1.608,1.608,0,0,1,1.606,1.606v12.48Z" transform="translate(0 -57.75)"/><path class="a" d="M68.21,115.388l5.913-5.3a.677.677,0,0,0-.905-1.005L65.064,116.4l-1.591-1.421c-.005,0-.01-.01-.01-.015a1,1,0,0,0-.11-.1l-6.473-5.792a.677.677,0,0,0-.9,1.01l5.983,5.347L56,121.01a.678.678,0,0,0-.03.955.691.691,0,0,0,.5.215.677.677,0,0,0,.46-.18l6.048-5.657,1.641,1.466a.674.674,0,0,0,.9-.005l1.686-1.511,6.013,5.712a.677.677,0,0,0,.955-.025.678.678,0,0,0-.025-.955Z" transform="translate(-52.964 -106.344)"/></svg>