<svg xmlns="http://www.w3.org/2000/svg" width="33.906" height="40.348" viewBox="0 0 33.906 40.348"><defs><style>.a{fill:#10a9f5;}</style></defs><g transform="translate(0 0)"><path class="a" d="M66.476,123.02a.847.847,0,0,0-1.18,0l-3.234,3.134a.848.848,0,1,0,1.18,1.217l1.8-1.741v5.833a.848.848,0,1,0,1.7,0V125.63l1.8,1.741a.848.848,0,0,0,1.18-1.217Zm0,0" transform="translate(-56.561 -112.374)"/><path class="a" d="M94.8,304.7h8.763a.848.848,0,1,0,0-1.7H94.8a.848.848,0,1,0,0,1.7Zm0,0" transform="translate(-85.986 -277.317)"/><path class="a" d="M93.949,346.848a.848.848,0,0,0,.848.848h19.782a.848.848,0,1,0,0-1.7H94.8A.848.848,0,0,0,93.949,346.848Zm0,0" transform="translate(-85.986 -316.672)"/><path class="a" d="M114.579,389H94.8a.848.848,0,1,0,0,1.7h19.782a.848.848,0,1,0,0-1.7Zm0,0" transform="translate(-85.986 -356.028)"/><path class="a" d="M.813,22.8H3.475V36.1A4.242,4.242,0,0,0,7.7,40.347h22A4.222,4.222,0,0,0,33.9,36.1V10.183a.832.832,0,0,0-.222-.59L24.639.263A.833.833,0,0,0,24.04,0H7.7A4.242,4.242,0,0,0,3.475,4.248v3.3H.813A.821.821,0,0,0,0,8.395v13.6a.789.789,0,0,0,.813.811ZM24.92,2.948l6.168,6.376H25.735a.812.812,0,0,1-.815-.836ZM5.17,4.248A2.545,2.545,0,0,1,7.7,1.7H23.225V8.488a2.509,2.509,0,0,0,2.51,2.532h6.474V36.1A2.525,2.525,0,0,1,29.7,38.652H7.7A2.545,2.545,0,0,1,5.17,36.1V22.8H17.845a.852.852,0,0,0,.887-.811V8.395a.885.885,0,0,0-.887-.851H5.17ZM1.7,9.239H17.037V21.106H1.7Zm0,0" transform="translate(0 0)"/></g></svg>