<svg xmlns="http://www.w3.org/2000/svg" width="648" height="528" viewBox="0 0 648 528"><g transform="translate(-186 -204)"><g transform="translate(186 204)" opacity="0.42"><path d="M94.632,1.234A6.869,6.869,0,0,0,92.421.64,35.875,35.875,0,0,0,85.512,0,127.593,127.593,0,0,0,64.15,1.918C59.7,2.685,54.328,5.268,49.9,3.865,42.2,1.422,34.41,1.542,27.1,5.03c-6.684,3.19-11.759,9.249-14.72,15.8A40.124,40.124,0,0,0,9.607,27.9c-.219.5-.43,1.006-.62,1.518-.539,1.455-1.023,2.935-1.472,4.418-.192.633-.675,2.029-.1,2.3a42.026,42.026,0,0,0-2.4,5.227C3.042,46.593.891,52.327.2,57.867a25.792,25.792,0,0,0-.028,6.17C.289,65.053.24,67.1.93,67.868c1.463,1.639,2.214-.656,2.049-1.748C1.72,57.79,4.152,49.968,7.034,42.138a49.265,49.265,0,0,1,8.357-13.89,35.081,35.081,0,0,1,9.56-8.321,149.532,149.532,0,0,1,14.56-7.211c3.242-1.469,6.489-2.9,9.822-4.164a9.8,9.8,0,0,1,2.729-1.006C53.8,7.539,56.262,8.82,57.94,9.3c5.521,1.568,11.113,3.576,16.819,4.377a21.708,21.708,0,0,0,10.512-1.283,9.842,9.842,0,0,0,1.654-.9,24.015,24.015,0,0,0,7.038-3.979,28.056,28.056,0,0,0,3.3-3.551A1.859,1.859,0,0,0,97.7,2.792c.226-.118.376-.256.41-.417.249-1.189-2.022-1.211-3.475-1.141" transform="translate(543.394 131.331)" fill="#89c5cc"/><path d="M11.042,0c-1.8,0-3.589.034-5.384.126C4.29.2,2.2-.081,1.042.767c-1.2.881-1.119,2.685-.93,3.959,1,6.738,3.423,12.713,8.5,17.489,7.813,7.354,16.767,11.092,27.361,12.76,7.442,1.172,14.311-.447,19.787-5.71a81.957,81.957,0,0,1,8.573,23.83,56.812,56.812,0,0,1,.854,12.246c-.084,2.657-.23,5.307-.515,7.951-.124,1.149-.712,2.888-.259,3.974a1.827,1.827,0,0,0,3.123.313c.668-.9.544-2.682.681-3.752.227-1.779.437-3.559.587-5.346.244-2.893.423-5.793.409-8.7a64.575,64.575,0,0,0-3.491-19.268C61.888,28.632,55.677,18.07,46.019,9.781c-5.938-5.1-12.732-7.163-20.44-8.274A102.988,102.988,0,0,0,11.042,0" transform="translate(50.914 238.662) rotate(-39)" fill="#dde3e9"/><path d="M75.468,167.318c-1.463-11.6-3.011-23.141-5.84-34.52-1.667-6.705-3.8-13.27-5.744-19.9q.261,1.247.462,2.508c-.675-1.977-2.084-3.869-2.9-5.839-.9-2.2-1.632-4.48-2.323-6.749-1.349-4.428-2.622-8.864-4.141-13.242C53.3,84.7,51.348,79.9,49.533,75.068a117.814,117.814,0,0,0-4.988-12.326c-1.093-2.134-2.073-4.427-3.145-6.6-.359-.728-3.441-8.861-3.418-8.861.509,0,2.419,3.615,2.736,4.147.925,1.551,1.711,3.165,2.5,4.783a21.272,21.272,0,0,1,1.737-5.564c.263-.545,2.112-4.562,2.715-4.562.3,0-2.478,7.587-2.829,8.253a13.728,13.728,0,0,0-1.006,1.8c-.3.93-.146.7.1,1.536a44.093,44.093,0,0,0,2.1,4.52,32.156,32.156,0,0,0,2.043,4.743c2.151,4.2,3.681,9.324,5.32,13.854a29.63,29.63,0,0,1,1.8-6.465c.2-.5,1.788-5.111,2.246-5.111.515,0-1.455,7.39-1.723,8.028-.5,1.186-1.28,2.333-1.694,3.54-.454,1.325.345,2.517.854,3.872,1.873,4.986,3.516,10.021,5.017,15.124,8.7-3.807,10.428-15.024,10.993-23.3A57.8,57.8,0,0,0,68.93,58.668C66.995,50.949,63.742,43.5,60.292,36.32A80.031,80.031,0,0,0,44.08,13.943,85.6,85.6,0,0,0,32.595,4.769a24.457,24.457,0,0,0-6.29-3.244A22.8,22.8,0,0,0,23.131.749c-.817-.144-2.484-.9-3.161-.709-5.529,1.527-9.685,4.069-12.905,8.8a41.332,41.332,0,0,0-5.99,15.076A47.971,47.971,0,0,0,.633,41.536,108.993,108.993,0,0,0,4.056,54.785c4.722,15.5,12.993,32.122,27.826,40.63a45.176,45.176,0,0,0,15.6,5.221c1.288.2,2.576.393,3.879.467.879.05,3.768-.532,4.4-.153.872.52,1.374,3.466,1.755,4.535,2.891,8.121,5.477,16.334,7.823,24.62,2.5,8.816,4.48,17.718,6.134,26.718.7,3.828,1.388,7.65,1.972,11.5.136.9,0,3.712.872,4.5a1.054,1.054,0,0,0,1.663-.316c.571-1.064-.361-4-.511-5.192" transform="matrix(0.799, -0.602, 0.602, 0.799, 0, 110.504)" fill="#c1dee2"/><path d="M79.593.61a43.607,43.607,0,0,0-9.86-.58A61.288,61.288,0,0,0,24.521,21.461c-9.385,11.1-11.965,24.9-13.819,38.846-.184,1.385-.263,2.761-.366,4.149-.022.3-.056.563-.091.814a1.791,1.791,0,0,0-.68,2.245A92.676,92.676,0,0,0,5.433,78.342C2,89.274-1.489,100.413.661,111.909A160.471,160.471,0,0,1,3.484,92.892c.073-.357.151-.712.233-1.065.008-.037.016-.075.025-.111a41.559,41.559,0,0,1,1.736-5.573l.022-.059c.093-.239.193-.478.29-.716.2-.493.411-.985.631-1.475q.112-.25.215-.5c1.03-2.521,1.464-5.362,2.387-7.97q.331-.89.693-1.772l.043-.1c.653-1.582,1.375-3.144,2.138-4.69a5.773,5.773,0,0,0,.994-1.786,11.162,11.162,0,0,0,.824-1.592q.674-1.3,1.35-2.6l-.041.015q.679-1.249,1.358-2.487l.3-.545.485-.868c1.511-2.7,3.113-5.349,4.777-7.963.594-.933,2.012-2.271,2.284-3.319.01-.039.012-.075.018-.113A59.482,59.482,0,0,1,37,34.15c-.6.651-1.883,2.859-2.222,3.3-1.036,1.339-2.161,2.585-3.29,3.846a81.881,81.881,0,0,0-5.75,7.055,134.044,134.044,0,0,0-8.592,14.091c-.025.028-.052.055-.076.084-1.315,1.619-2.143,4.067-3.089,5.919,3.746-1.733,7.888-2.862,11.732-4.4a96.438,96.438,0,0,0,11.164-5.25A124.592,124.592,0,0,0,51.146,49.7,56.522,56.522,0,0,0,64.525,37.436c4.547-5.488,8.715-11.024,11.292-17.687A53.073,53.073,0,0,0,78.67,9.606c.026-.151.059-.314.095-.484a33.21,33.21,0,0,0,1.6-3.661c.72-1.979,2.42-4.156-.769-4.852" transform="translate(549.874 165.551)" fill="#69a1ac"/><path d="M49.688,75.909c.2,0,.428-.157.666-.466.549-.714.107-3.037-.13-4.284-.042-.223-.079-.414-.1-.543a26.86,26.86,0,0,0-.711-3.247,93.74,93.74,0,0,0-3.458-9.533c-.473-1.161-.969-2.365-1.473-3.578-.094-.225-.174-.392-.239-.526-.231-.48-.231-.48.239-.993l.083-.091a6.5,6.5,0,0,1,.856-.739,7.963,7.963,0,0,0,.719-.6,16.116,16.116,0,0,0,3.931-6.519,16.368,16.368,0,0,0,.709-7.132,28.066,28.066,0,0,0-1.832-6.994,56.19,56.19,0,0,0-5.7-11,50.784,50.784,0,0,0-8.082-9.5A44.032,44.032,0,0,0,21.76,2.306,28.414,28.414,0,0,0,13.182.3C12.77.266,12.343.251,11.914.251A23.259,23.259,0,0,0,9.066.437C8.8.47,8.519.524,8.249.577A8.391,8.391,0,0,1,7.091.748l-.183.01c-.129.007-.228.013-.316.013-.355,0-.5-.1-.942-.543A.648.648,0,0,0,5.223,0a.385.385,0,0,0-.346.3A1.059,1.059,0,0,0,5.167,1.4a7.905,7.905,0,0,0-3.623,3.2A11.41,11.41,0,0,0,.124,9.171a32.967,32.967,0,0,0,.785,9.8,44.956,44.956,0,0,0,3.175,9.78A51.5,51.5,0,0,0,9.206,37.5,74.028,74.028,0,0,0,23.68,52.175,21.151,21.151,0,0,0,33.4,56.623a11.325,11.325,0,0,0,1.852.154,12.4,12.4,0,0,0,3.886-.651c.1-.032.222-.068.366-.11.592-.171,1.486-.429,1.708-.8.2-.332.014-.619-.218-.983-.068-.107-.139-.218-.206-.339q-.384-.7-.767-1.394c-.673-1.226-1.369-2.493-2.066-3.733-.11-.2-.226-.454-.35-.727a4.757,4.757,0,0,0-1.062-1.725.654.654,0,0,0-.175-.017,1.372,1.372,0,0,1-.556-.092c-.118-.075-.137-.288-.149-.429-.006-.071-.011-.127-.027-.136a6.035,6.035,0,0,0-2.1-.484c-.354-.041-.689-.081-.954-.137-.73-.156-1.591-.352-2.441-.618a27.088,27.088,0,0,1-2.562-.952c-.178-.076-.434-.223-.705-.379a4.854,4.854,0,0,0-1.436-.66,23.453,23.453,0,0,1,5.483.984,21.375,21.375,0,0,1,2.86,1c.112.048.3.151.512.27a4.758,4.758,0,0,0,1.5.651.244.244,0,0,0,.125-.028A55.837,55.837,0,0,0,32.1,39.855c-.711-.9-1.463-1.869-2.142-2.869-.044-.065-.152-.259-.288-.5a7.537,7.537,0,0,0-1.194-1.835c.433,0,1.373,1.015,1.936,1.62.163.176.3.326.393.412a26.2,26.2,0,0,1,2.065,2.206,50.123,50.123,0,0,1,3.066,4.158c1.358,2.03,2.553,4.147,3.659,6.141.255.46.529.93.795,1.384a27.491,27.491,0,0,1,1.982,3.843.232.232,0,0,1,.138-.058c.148,0,.218.239.287.469a2.466,2.466,0,0,0,.078.236c.359.862.711,1.7,1.056,2.544.729,1.773,1.312,3.237,1.834,4.607l.028.073c.613,1.607,1.247,3.268,1.758,4.936A28.258,28.258,0,0,1,48.6,72c.081.647.138,1.3.169,1.943C48.8,74.47,49.061,75.909,49.688,75.909ZM46.7,45.689a17.5,17.5,0,0,1-2.773,4.627c.647-.958,1.2-1.838,1.7-2.69.113-.193.33-.6.539-.984C46.43,46.157,46.676,45.7,46.7,45.689ZM34.33,32.2c.295,0,.61,2.635.642,3.073a12.84,12.84,0,0,1-.5,4.324l0,.007,0-.007a16.576,16.576,0,0,0-.132-2.076c-.185-2.068-.439-4.9-.092-5.279A.115.115,0,0,1,34.33,32.2Z" transform="matrix(0.53, -0.848, 0.848, 0.53, 42.583, 197.591)" fill="#89c5cc"/><g transform="translate(126.823 22.197)"><rect width="147" height="280" rx="8" transform="translate(0.177 -0.197)" fill="#f2f2f2"/><circle cx="14" cy="14" r="14" transform="translate(59.177 233.803)" fill="#fff"/><g transform="translate(59.246 14.798)"><circle cx="2" cy="2" r="2" transform="translate(-0.069 0.005)" fill="#fff"/><rect width="20" height="4" rx="2" transform="translate(7.931 0.005)" fill="#fff"/></g><g transform="translate(12.96 25.896)"><rect width="121" height="50" rx="4" transform="translate(0.217 -0.093)" fill="#fff"/><g transform="translate(36.103 14.983)"><rect width="67.577" height="7.491" rx="3" fill="#dde3e9"/><rect width="45.36" height="7.491" rx="3" transform="translate(0 12.486)" fill="#dde3e9"/></g><circle cx="11" cy="11" r="11" transform="translate(8.217 13.907)" fill="#c5cfd6"/><g transform="translate(0 57.342)"><rect width="121" height="39" rx="4" transform="translate(0.217 -0.435)" fill="#fff"/><g transform="translate(36.103 11.653)"><rect width="67.577" height="5.827" rx="2.913" fill="#dde3e9"/><rect width="45.36" height="5.827" rx="2.913" transform="translate(0 9.711)" fill="#dde3e9"/></g><circle cx="11" cy="11" r="11" transform="translate(8.217 8.565)" fill="#c5cfd6"/></g><g transform="translate(0 103.585)"><rect width="121" height="39" rx="4" transform="translate(0.217 0.322)" fill="#fff"/><g transform="translate(36.103 11.653)"><rect width="67.577" height="5.827" rx="2.913" fill="#dde3e9"/><rect width="45.36" height="5.827" rx="2.913" transform="translate(0 9.711)" fill="#dde3e9"/></g><circle cx="11" cy="11" r="11" transform="translate(8.217 8.322)" fill="#afb9c5"/></g><g transform="translate(0 149.828)"><rect width="121" height="39" rx="4" transform="translate(0.217 0.079)" fill="#fff"/><g transform="translate(36.103 11.653)"><rect width="67.577" height="5.827" rx="2.913" fill="#dde3e9"/><rect width="45.36" height="5.827" rx="2.913" transform="translate(0 9.711)" fill="#dde3e9"/></g><circle cx="11" cy="11" r="11" transform="translate(8.217 8.079)" fill="#c5cfd6"/></g></g></g><g transform="translate(143.486 46.243)"><g transform="translate(0 201.621)"><path d="M7.535,0C6.309,0,5.086.025,3.861.088,2.928.137,1.5-.056.711.525c-.821.6-.764,1.84-.636,2.713.678,4.617,2.332,8.71,5.793,11.981,5.329,5.036,11.438,7.6,18.667,8.735,5.078.8,9.766-.311,13.5-3.919a56.261,56.261,0,0,1,5.843,16.326,39.079,39.079,0,0,1,.579,8.391c-.058,1.82-.159,3.637-.354,5.448-.085.787-.487,1.979-.178,2.723a1.244,1.244,0,0,0,2.131.213,6.109,6.109,0,0,0,.466-2.571c.155-1.219.3-2.439.4-3.663.167-1.982.291-3.97.282-5.959a44.391,44.391,0,0,0-2.377-13.2A45.316,45.316,0,0,0,31.4,6.688c-4.05-3.491-8.686-4.9-13.946-5.663A69.98,69.98,0,0,0,7.535,0" transform="translate(3.703)" fill="#89c5cc"/><path d="M30.152,0C16.915,0,8,10.658,3.785,21.736,2.2,25.911,1.824,30.5,1.211,34.881c-.2,1.407-.124,3.551-.7,4.8-.207.455-.683.618-.456,1.237a1,1,0,0,0,.813.679c.833.153,2.01-.753,2.724-1.11,5.921-2.967,9.811-7.554,12.985-13.166a56.009,56.009,0,0,0,5.132-10.909,37.675,37.675,0,0,0,1.373-7.21,27.426,27.426,0,0,0,.183-2.888A5.819,5.819,0,0,0,22.5,4.036a19.521,19.521,0,0,1,13.876-.395,17.776,17.776,0,0,1,9.5,8.581,16.362,16.362,0,0,1,1.167,3.163,10.879,10.879,0,0,0,.533,2.279c.826,1.561,2.565.517,2.4-.935A18.783,18.783,0,0,0,44.226,5.792,20.7,20.7,0,0,0,30.152,0" transform="translate(0 32.37)" fill="#89c5cc"/></g><rect width="147" height="280" rx="8" transform="translate(44.514 -0.243)" fill="#dde3e9"/><circle cx="14" cy="14" r="14" transform="translate(103.514 233.757)" fill="#fff"/><g transform="translate(103.68 14.798)"><circle cx="2" cy="2" r="2" transform="translate(-0.166 -0.041)" fill="#fff"/><rect width="20" height="4" rx="2" transform="translate(7.834 -0.041)" fill="#fff"/></g><g transform="translate(57.394 25.896)"><rect width="121" height="50" rx="4" transform="translate(0.12 -0.14)" fill="#fff"/><g transform="translate(8.331 14.983)"><rect width="67.577" height="7.491" rx="3" fill="#dde3e9"/><rect width="45.36" height="7.491" rx="3" transform="translate(0 12.486)" fill="#dde3e9"/></g><g transform="translate(101.829 18.497)"><circle cx="6.5" cy="6.5" r="6.5" transform="translate(0.291 0.363)" fill="#dde3e9"/><circle cx="3" cy="3" r="3" transform="translate(3.291 3.363)" fill="#f2f2f2"/></g><g transform="translate(0 57.342)"><rect width="121" height="39" rx="4" transform="translate(0.12 -0.481)" fill="#fff"/><g transform="translate(36.103 11.653)"><rect width="67.577" height="5.827" rx="2.913" fill="#dde3e9"/><rect width="45.36" height="5.827" rx="2.913" transform="translate(0 9.711)" fill="#dde3e9"/></g><circle cx="11" cy="11" r="11" transform="translate(8.12 8.519)" fill="#c5cfd6"/></g><g transform="translate(0 103.585)"><rect width="121" height="39" rx="4" transform="translate(0.12 0.275)" fill="#fff"/><g transform="translate(8.331 11.653)"><rect width="67.577" height="5.827" rx="2.913" fill="#dde3e9"/><rect width="45.36" height="5.827" rx="2.913" transform="translate(0 9.711)" fill="#afb9c5"/></g><g transform="translate(101.829 12.948)"><circle cx="6.5" cy="6.5" r="6.5" transform="translate(0.291 0.327)" fill="#dde3e9"/><circle cx="3" cy="3" r="3" transform="translate(3.291 3.327)" fill="#f2f2f2"/></g></g><g transform="translate(0 149.828)"><rect width="121" height="39" rx="4" transform="translate(0.12 0.032)" fill="#fff"/><g transform="translate(36.103 11.653)"><rect width="67.577" height="5.827" rx="2.913" fill="#dde3e9"/><rect width="45.36" height="5.827" rx="2.913" transform="translate(0 9.711)" fill="#dde3e9"/></g><circle cx="11" cy="11" r="11" transform="translate(8.12 8.032)" fill="#c5cfd6"/></g></g></g><g transform="translate(249.017 69.365)"><rect width="310" height="320" rx="8" transform="translate(-0.017 -0.365)" fill="#f2f2f2"/><rect width="64" height="75" rx="8" transform="translate(230.983 39.635)" fill="#fff"/><g transform="translate(239.76 53.642)"><circle cx="15" cy="15" r="15" transform="translate(8.223 -0.007)" fill="#dde3e9"/><rect width="46" height="6" rx="3" transform="translate(0.223 32.993)" fill="#dde3e9"/><rect width="32" height="5" rx="2.5" transform="translate(7.223 42.993)" fill="#dde3e9"/></g><path d="M8,0H302a8,8,0,0,1,8,8V25a0,0,0,0,1,0,0H0a0,0,0,0,1,0,0V8A8,8,0,0,1,8,0Z" transform="translate(-0.017 -0.365)" fill="#c5cfd6"/><g transform="translate(8.331 9.249)"><ellipse cx="4" cy="3.5" rx="4" ry="3.5" transform="translate(-0.349 0.386)" fill="#f2f2f2"/><ellipse cx="4" cy="3.5" rx="4" ry="3.5" transform="translate(10.651 0.386)" fill="#f2f2f2"/><circle cx="3.5" cy="3.5" r="3.5" transform="translate(22.651 0.386)" fill="#f2f2f2"/></g><g transform="translate(230.503 122.082)"><rect width="64" height="180" rx="8" transform="translate(0.48 -0.447)" fill="#fff"/><g transform="translate(16.663 16.648)"><rect width="32" height="24" rx="4" transform="translate(-0.183 -0.095)" fill="#dde3e9"/><rect width="32" height="23" rx="4" transform="translate(-0.183 31.905)" fill="#afb9c5"/><rect width="32" height="23" rx="4" transform="translate(-0.183 61.905)" fill="#dde3e9"/><rect width="32" height="23" rx="4" transform="translate(-0.183 122.905)" fill="#dde3e9"/><rect width="32" height="23" rx="4" transform="translate(-0.183 92.905)" fill="#c5cfd6"/></g></g><g transform="translate(14.811 40.694)"><rect width="208" height="44" rx="4" transform="translate(0.171 -0.059)" fill="#fff"/><g transform="translate(8.331 13.041)"><rect width="154.594" height="6.52" rx="3" fill="#dde3e9"/><rect width="103.769" height="6.52" rx="3" transform="translate(0 10.867)" fill="#dde3e9"/></g><g transform="translate(179.546 15.26)"><ellipse cx="6.48" cy="6.474" rx="6.48" ry="6.474" fill="#dde3e9"/><ellipse cx="2.777" cy="2.775" rx="2.777" ry="2.775" transform="translate(3.703 3.699)" fill="#f2f2f2"/></g><g transform="translate(0 50.868)"><rect width="208" height="36" rx="4" transform="translate(0.171 0.073)" fill="#fff"/><g transform="translate(8.331 10.821)"><rect width="154.594" height="5.41" rx="2.705" fill="#dde3e9"/><rect width="103.769" height="5.41" rx="2.705" transform="translate(0 9.017)" fill="#dde3e9"/></g><g transform="translate(179.546 11.561)"><ellipse cx="6.48" cy="6.474" rx="6.48" ry="6.474" fill="#dde3e9"/><ellipse cx="2.777" cy="2.775" rx="2.777" ry="2.775" transform="translate(3.703 3.699)" fill="#f2f2f2"/></g></g><g transform="translate(0 94.336)"><rect width="208" height="36" rx="4" transform="translate(0.171 -0.395)" fill="#fff"/><g transform="translate(8.331 10.821)"><rect width="154.594" height="5.41" rx="2.705" fill="#dde3e9"/><rect width="103.769" height="5.41" rx="2.705" transform="translate(0 9.017)" fill="#dde3e9"/></g><g transform="translate(179.546 11.561)"><ellipse cx="6.48" cy="6.474" rx="6.48" ry="6.474" fill="#dde3e9"/><ellipse cx="2.777" cy="2.775" rx="2.777" ry="2.775" transform="translate(3.703 3.699)" fill="#afb9c5"/></g></g><g transform="translate(0 224.742)"><rect width="208" height="36" rx="4" transform="translate(0.171 0.199)" fill="#fff"/><g transform="translate(8.331 10.821)"><rect width="154.594" height="5.41" rx="2.705" fill="#dde3e9"/><rect width="103.769" height="5.41" rx="2.705" transform="translate(0 9.017)" fill="#dde3e9"/></g><g transform="translate(179.546 11.561)"><ellipse cx="6.48" cy="6.474" rx="6.48" ry="6.474" fill="#dde3e9"/><ellipse cx="2.777" cy="2.775" rx="2.777" ry="2.775" transform="translate(3.703 3.699)" fill="#f2f2f2"/></g></g><g transform="translate(0 181.274)"><rect width="208" height="36" rx="4" transform="translate(0.171 -0.333)" fill="#fff"/><g transform="translate(8.331 10.821)"><rect width="154.594" height="5.41" rx="2.705" fill="#dde3e9"/><rect width="103.769" height="5.41" rx="2.705" transform="translate(0 9.017)" fill="#dde3e9"/></g><g transform="translate(179.546 11.561)"><ellipse cx="6.48" cy="6.474" rx="6.48" ry="6.474" fill="#dde3e9"/><ellipse cx="2.777" cy="2.775" rx="2.777" ry="2.775" transform="translate(3.703 3.699)" fill="#f2f2f2"/></g></g><g transform="translate(0 137.805)"><rect width="208" height="36" rx="4" transform="translate(0.171 0.136)" fill="#fff"/><g transform="translate(8.331 10.821)"><rect width="154.594" height="5.41" rx="2.705" fill="#dde3e9"/><rect width="103.769" height="5.41" rx="2.705" transform="translate(0 9.017)" fill="#dde3e9"/></g><g transform="translate(179.546 11.561)"><ellipse cx="6.48" cy="6.474" rx="6.48" ry="6.474" fill="#dde3e9"/><ellipse cx="2.777" cy="2.775" rx="2.777" ry="2.775" transform="translate(3.703 3.699)" fill="#f2f2f2"/></g></g></g></g><path d="M118.478,3.122C114.827.648,109.971,0,105.6,0,88.535,0,72.494,6.326,58.636,15.752a109.819,109.819,0,0,0-20.384,18.59,54.441,54.441,0,0,0-8.733,12.986,44.711,44.711,0,0,0-3.173,10.005,102.718,102.718,0,0,0-1.8,12.769c-.118,1.683-1.1,10.615,1.7,10.766a3.86,3.86,0,0,0,0,.618c-6.082,9.5-9.84,20.637-13.325,31.195a212.315,212.315,0,0,0-7.488,27.956A304.376,304.376,0,0,0,.887,178.545C.732,181.273.626,184,.534,186.734Q.418,190.228.3,193.723c-.085,2.611-.546,5.617-.13,8.213.362,2.26,2.32,1.918,2.406-.331.1-2.717.088-5.438.206-8.157q.237-5.412.5-10.823a252.831,252.831,0,0,1,14.363-73.413A171.1,171.1,0,0,1,30.118,81.707,191.784,191.784,0,0,1,45.437,59.351c5.334-6.826,10.879-13.494,17.414-19.277A133.923,133.923,0,0,1,79.985,27.489C87.6,22.658,95.2,17.943,103.453,14.235c4.288-1.928,8.658-3.654,12.98-5.5.778-.333,1.611-.656,2.359-1.041,2.495-1.285,1.674-3.222-.314-4.568" transform="translate(517.474 223.818)" fill="#c1dee2"/><path d="M-61.437,0A47.161,47.161,0,0,1-41.978,3.647a86.509,86.509,0,0,1,15.393,8.931c6.852,4.808,12.249,10.4,16.026,17.818,2.257,4.429,3.912,10.7,2.4,15.528-1.785,5.69-6.688,10.436-13.144,9.433-3.993-.619-7.652-3.26-10.687-5.745a40.389,40.389,0,0,1-8.935-10.518c-3.914-6.477-6.214-13.8-9.539-20.566-1.578-3.212-3.1-6.447-4.992-9.5A15.327,15.327,0,0,0-58.81,4.9c-.759-.6-3.961-1.641-2.736-2.99-17.95.235-33.852,14.009-37.3,31.057-.321,1.589-.572,3.191-.837,4.79-.167,1.01-.1,4.733-1,5.377-1.992,1.423-1.155-2.9-1.069-3.521q.331-2.412.7-4.819A40.1,40.1,0,0,1-89.332,11.73C-81.917,4.615-71.913,0-61.437,0" transform="translate(628.731 314.454)" fill="#89c5cc"/><g transform="translate(59.246 259.887)"><path d="M9.2,33.051C26.479,62.014,46.6,90.058,58.691,121.724c-.487-3.732-1-7.461-1.581-11.184C54.043,90.8,50.232,71.209,46.226,51.64c-2.04-9.964-4.2-19.891-6.409-29.818-1.19-5.332-2.365-10.667-3.58-15.993C35.943,4.537,35.69,2.284,35.322,0,47.068,38.508,58.395,77.046,66.68,116.48q1.63,7.763,2.771,15.5c.259-1.176.514-2.353.794-3.526A227.751,227.751,0,0,1,84.613,87.284,124.777,124.777,0,0,1,94.634,69.112c2.414-3.573,8.107-7.82,10.309-11.479C92.9,79.7,88.551,107.314,81.6,131.306c-1.7,5.855-3.405,11.7-5.079,17.556,10.487-21.011,26.757-38.275,49.378-45.756-27.382,18.076-43.807,49.731-54.874,82.107-.036.384-.08.768-.117,1.152,3.257-6.175,7.359-11.761,12.919-15.673,11.9-8.375,25.1-5.935,36.645,1.249-9.06-5.754-25.433-.514-33.056,5.334-5.457,4.186-10.121,9.8-14.171,15.281-.97,1.313-2.294,2.846-3.693,4.481a201.845,201.845,0,0,1-9.681,37.878c.747-3.6.207-9.349.414-12.029.023-.29.041-.581.063-.87q-1.032,4.115-1.992,8.124a111.093,111.093,0,0,0,2.5-15.779q.208-3.462.418-6.924-.068-6.57-.531-13.182c-1.083-4.281-2.3-8.319-3.3-11.676a150.864,150.864,0,0,0-15.409-34.553A136.428,136.428,0,0,0,20.777,121.1c-4.425-4.363-9.057-8.518-13.623-12.731C5.5,106.843,2.552,103.1,0,101.146c18.589,10.239,37.722,21.316,51.282,37.813q-2.385-9.149-5.143-18.005C36.872,91.057,25.171,60.072,9.2,33.051Z" fill="#dde3e9"/><path d="M0,0C0,33.2,2.632,60.116,37.954,60.116S75.909,33.2,75.909,0" transform="translate(27.771 196.996)" fill="#c5cfd6"/></g><g transform="translate(480.446)"><rect width="6" height="23" rx="3" transform="translate(-0.446 30)" fill="#dde3e9"/><rect width="6" height="38" rx="3" transform="translate(12.554 15)" fill="#dde3e9"/><rect width="6" height="46" rx="3" transform="translate(25.554 7)" fill="#dde3e9"/><rect width="6" height="38" rx="3" transform="translate(38.554 15)" fill="#dde3e9"/><rect width="6" height="53" rx="3" transform="translate(51.554)" fill="#c5cfd6"/></g><g transform="translate(62.023 301.506) rotate(180)"><path d="M0,18.734A18.683,18.683,0,0,1,18.514,0V18.734L5.862,32.37A18.556,18.556,0,0,1,0,18.734Z" transform="translate(37.029 36.995) rotate(180)" fill="#f2f2f2"/><path d="M12.777,0h18.7a18.5,18.5,0,0,1-5.088,12.641A18.853,18.853,0,0,1,12.777,18.5,19.12,19.12,0,0,1,0,13.463Z" transform="translate(31.782 18.497) rotate(180)" fill="#afb9c5"/><path d="M18.514,18.5H37.028A18.562,18.562,0,0,0,18.514,0V18.5Zm-1.851-1.85v0L9.257,0A16.982,16.982,0,0,0,0,9.249l16.661,7.4Z" transform="translate(37.028 36.995) rotate(180)" fill="#c5cfd6"/></g><g transform="translate(592.457 257.113)"><path d="M34.961,34.386a9.728,9.728,0,1,1-7.1-16.351V0A27.888,27.888,0,0,0,0,27.746,27.888,27.888,0,0,0,27.86,55.492a27.5,27.5,0,0,0,20.278-8.784Z" fill="#f2f2f2"/><path d="M0,0V18.035a9.716,9.716,0,0,1,9.72,9.711H27.771A27.844,27.844,0,0,0,0,0Z" transform="translate(27.771)" fill="#afb9c5"/><path d="M3.793,0A9.837,9.837,0,0,1,0,7.76L11.351,22.2A28.119,28.119,0,0,0,22.217,0Z" transform="translate(33.326 27.746)" fill="#c5cfd6"/></g><g transform="translate(423.977 10.174)"><path d="M26.893,26.362A7.471,7.471,0,1,1,21.43,13.827V0A21.417,21.417,0,0,0,0,21.272,21.417,21.417,0,0,0,21.43,42.544a21.183,21.183,0,0,0,15.6-6.735Z" fill="#f2f2f2"/><path d="M0,0V13.827a7.449,7.449,0,0,1,7.452,7.445H21.291A21.347,21.347,0,0,0,0,0Z" transform="translate(21.291)" fill="#afb9c5"/><path d="M2.844,0A7.378,7.378,0,0,1,0,5.82L8.513,16.648A21.089,21.089,0,0,0,16.663,0Z" transform="translate(25.92 21.272)" fill="#c5cfd6"/></g><g transform="translate(69.429 4.624)"><path d="M1.006.986C1,1,1,1,.993,1.016c.006-.009.013-.046.013-.03" transform="translate(43.435 47.094)" fill="#c5cfd6"/><path d="M1,1A.08.08,0,0,0,1,1.01C1,1,1.012.973,1,1" transform="translate(43.435 47.094)" fill="#c5cfd6"/><path d="M1.057.832c-.013.037-.03.072-.044.109C1.02.923,1.028.908,1.035.89c-.193.481-.07.168.022-.057" transform="translate(43.439 47.106)" fill="#c5cfd6"/><path d="M1.019.953,1,1c-.054.1.022-.052.022-.052" transform="translate(43.436 47.097)" fill="#c5cfd6"/><path d="M1,1H1V1Z" transform="translate(43.434 47.093)" fill="#c5cfd6"/><path d="M1,1S1,1,1,1,1,1,1,1" transform="translate(43.434 47.093)" fill="#c5cfd6"/><path d="M.989,1.014c-.011.022.052-.085,0,0" transform="translate(43.435 47.095)" fill="#c5cfd6"/><path d="M1,1,1,1S1,1,1,1" transform="translate(43.434 47.093)" fill="#c5cfd6"/><rect width="88" height="58" rx="4" transform="translate(-0.429 0.376)" fill="#dde3e9"/><g transform="translate(7.406 16.648)"><path d="M25.92,0,0,41.619H51.84Z" fill="#afb9c5"/><path d="M22.68,0,0,30.521H45.36Z" transform="translate(28.697 11.098)" fill="#c5cfd6"/></g><circle cx="8" cy="8" r="8" transform="translate(60.571 11.376)" fill="#fff"/></g><g transform="translate(621.154 463.358) rotate(180)"><path d="M0,0c0,.009.007.018.013.03C.007.025,0-.012,0,0" transform="translate(65.732 15.74) rotate(180)" fill="#c5cfd6"/><path d="M.006.012a.08.08,0,0,1,0,.009c0-.009-.017-.037,0-.009" transform="translate(65.73 15.733) rotate(180)" fill="#c5cfd6"/><path d="M0,0C.013.037.03.072.044.109.037.091.03.076.022.057.215.538.093.226,0,0" transform="translate(65.788 15.878) rotate(180)" fill="#c5cfd6"/><path d="M0,0,.022.052C.076.155,0,0,0,0" transform="translate(65.746 15.766) rotate(180)" fill="#c5cfd6"/><path d="M0,0H0V0Z" transform="translate(65.726 15.724) rotate(180)" fill="#c5cfd6"/><path d="M0,0S0,0,0,0,0,0,0,0" transform="translate(65.727 15.725) rotate(180)" fill="#c5cfd6"/><path d="M.021.033c.011.022-.052-.085,0,0" transform="translate(65.737 15.741) rotate(180)" fill="#c5cfd6"/><path d="M0,0,0,0S0,0,0,0" transform="translate(65.728 15.725) rotate(180)" fill="#c5cfd6"/><rect width="131" height="87" rx="4" transform="translate(131.154 87.358) rotate(180)" fill="#dde3e9"/><g transform="translate(10.804)"><path d="M38.005,0,76.01,61.966H0Z" transform="translate(76.01 61.966) rotate(180)" fill="#afb9c5"/><path d="M33.6,0,67.2,45.368H0Z" transform="translate(110.789 45.368) rotate(180)" fill="#c5cfd6"/></g><circle cx="12.5" cy="12.5" r="12.5" transform="translate(115.154 70.358) rotate(180)" fill="#fff"/></g></g><g transform="translate(22 -34.303)"><g transform="translate(428 273.303)"><g transform="translate(61.664 35.4)"><path d="M0,83,9.442,39.214C4.177,33.065.612,25.528,1.208,17.084,2.924-7.248,36.97-1.9,43.592,10.385s5.836,43.432-2.723,45.627c-3.414.875-10.685-1.269-18.086-5.707L27.429,83Z" transform="translate(0.336 -0.4)" fill="#b28b67"/></g><path d="M-57.329,27.294a8.565,8.565,0,0,1-1.786-3.318,33.56,33.56,0,0,1-1.143-3.768c-.575-2.568-.581-5.522,1.251-7.517A8.619,8.619,0,0,1-53.3,10.218a10.491,10.491,0,0,1,4.048.513c1.289.424,2.4,1.269,3.651,1.793A16.336,16.336,0,0,1-43.673,4.5,8,8,0,0,1-37.713.609a11.816,11.816,0,0,1,7.259,1.462c.564.305,1.124.625,1.659.987a4.649,4.649,0,0,0,1.44.792c.586.138.877-.2,1.257-.628a9.556,9.556,0,0,1,1.482-1.334,8.732,8.732,0,0,1,8.171-1.4,7.593,7.593,0,0,1,3.331,2.408c.76,1,1.3,2.578,2.351,3.273.445.295.759-.1,1.165-.385.609-.434,1.189-.913,1.805-1.335A8.269,8.269,0,0,1-4.987,3.176c1.469-.34,3.5-.26,3.919,1.664a7.941,7.941,0,0,1-.014,2.224c-.07,1-.143,2-.23,3A21.644,21.644,0,0,1-1.6,12.3a3.27,3.27,0,0,0-.145,1.534c.213.5,1.194.214,1.613.232a6.375,6.375,0,0,1,2.425.533,2.61,2.61,0,0,1,1.468,1.358A2.439,2.439,0,0,1,3.8,17.229a3.808,3.808,0,0,0,.078,1.31c1.112-.548,4.966-1.765,5.451.229a3.118,3.118,0,0,1-.487,1.973,17.1,17.1,0,0,1-1.8,2.735A24.451,24.451,0,0,1,2.26,28.118a3.136,3.136,0,0,1,.818,5.252A3.885,3.885,0,0,1,.224,34.2,6.308,6.308,0,0,0-.955,34.1a2.821,2.821,0,0,1-.535.18,15.9,15.9,0,0,1-4.376-.556,14.429,14.429,0,0,1-6.674-3.49,2.058,2.058,0,0,0-1.544-.709c-.574.006-1.137.163-1.711.178-1.517.039-2.885-.7-4.294-1.2A16.2,16.2,0,0,1-21.5,34.222c-.635,1.4-1.961,1.6-3.264,1.722-4.166.392-8.347-.045-12.519-.04,4.038.913,8.211,1.289,12.213,2.363,1.809.485.428,1.7-.346,2.55a14.7,14.7,0,0,0-2.878,4.933c-1.975-2.575-5.467-4.272-8.561-3.481-3.418.874-5.825,5.5-3.639,8.819,1.269,1.929,3.56,2.674,5.467,3.5-1.487,1.546-1.847,3.83-2.742,5.754A4.118,4.118,0,0,1-39.812,62.7a2.4,2.4,0,0,0-1.082.431c-.357.369-.442.781-.9,1.1a5.064,5.064,0,0,1-6.274-.483c-1.458-1.493-1.079-3.855.139-5.369-1.939-.808-5.471-1.847-4.7-4.868-4.2-.279-14.4-7.092-8.763-12.071-3.094-1.749-5.937-6.023-3.95-9.79,1.531-2.9,5.09-4.2,8.01-4.352" transform="translate(108.251 17.129)" fill="#191847"/></g><g transform="translate(334 493.303)"><path d="M0,0,84.852,141.857l63.615,119.928h13.7L55.581,0Z" transform="translate(148.45)" fill="#997659"/><g transform="translate(285 227)"><path d="M5.108,5.7A2.284,2.284,0,0,0,2.179,7.24L0,14.919a73.359,73.359,0,0,0,1.029,9.015H65.436s2.511-8.3-2.9-8.962-8.987-1.2-8.987-1.2L23.615.431a1.142,1.142,0,0,0-1.521.608L20.17,5.707s-5.007,2.336-8.138,2.336Z" transform="translate(1.142 21.744)" fill="#e4e4e4"/></g><path d="M144.909,242.581l26.424-7.993s-17.366-51.914-42.568-114.259S74.631,0,74.631,0H0S32.165,73.347,68.2,133.291,144.909,242.581,144.909,242.581Z" transform="translate(134.34 0)" fill="#db2721"/><path d="M129.867,0c-8.008,49.85-23.455,113.538-24.912,115.5Q103.5,117.469,0,150.673l2.96,12.083q123.42-17.807,130.064-27.631C139.667,125.3,172.839,47.69,185.688,0Z" transform="translate(13.006 0)" fill="#b28b67"/><path d="M0,140.228l5.213,19.46q92.311,8.1,113.122-11.7T165.772,0H94.607Q77.737,104.972,75.744,109.379T0,140.228Z" transform="translate(37.26 0)" fill="#ff4133"/><g transform="matrix(0.174, 0.985, -0.985, 0.174, 44.421, 137.59)"><path d="M4.474,5.033A2,2,0,0,0,1.908,6.381L0,13.106A64.242,64.242,0,0,0,.9,21H57.3s2.2-7.268-2.538-7.848-7.87-1.047-7.87-1.047L20.68.419a1,1,0,0,0-1.332.532L17.663,5.039s-4.385,2.046-7.127,2.046Z" transform="translate(1 19)" fill="#e4e4e4"/></g></g><g transform="translate(378 380.303)"><path d="M1.227,86.783c-1.116-.688-2.338-3.28.615-5.3C9.2,76.433,19.8,67.6,21.236,64.7,24.166,58.752,34.145.808,34.145.808l20.9.083s-19.354,62.48-20.9,66.3c-2.314,5.735,2.583,14.468,4.676,19.162-3.3,1.477-4.834-.409-6.512-2.294-1.789-2.01-3.745-4.019-8.184-1.954-5.68,2.643-10.377,6.838-15.975,6.837A12.989,12.989,0,0,1,1.227,86.783ZM181.155,30.53l-31.587-13.1L156.618,0l31.9,23.423A85.839,85.839,0,0,1,210.2,32.137c1.372,1.249,3.029,3.779-2.658,3.343s-11.687-.642-12.472,1.3,2.657,4.259,1.07,6.876a.754.754,0,0,1-.692.373Q192.645,44.027,181.155,30.53Z" transform="translate(34.163 92.211)" fill="#b28b67"/><path d="M0,2.231,8.485,0c34.377,24.814,52.145,76.707,93.78,101.378l-8.407,12.513C25.158,111.423,2.652,48.2,0,2.231Z" transform="matrix(0.996, 0.087, -0.087, 0.996, 127.889, 3.109)" fill="#e87613"/><path d="M0,114H76.511c3.5,0,2.837-5.048,2.332-7.6C73.011,77,50.241,45.312,50.241,3.461L28.172,0C9.917,29.358,3.6,65.5,0,114Z" transform="translate(90)" fill="#dde3e9"/><path d="M.133,159.513c-1.765-57.079,19.846-101,37.932-127.487a11.605,11.605,0,0,1-9.932-6.1C20.067,11.37,22.98,3.356,31.6.722S47.909,3.514,61.644,3.514a10.705,10.705,0,0,1,1.638.117l7.324.418s29.733,100.77,16.4,134.465H26.53a191.9,191.9,0,0,1-9.988,21Z" transform="translate(54.867 -3.513)" fill="#ff9b21"/><path d="M22.348,34.5H-.255C3.89,24.547,8.463,12.251,13.336-2.044,15.365,15.573,18.4,27.868,22.347,34.5Z" transform="translate(81.652 100.498)" fill="rgba(0,0,0,0.1)"/></g></g></g></svg>