<svg xmlns="http://www.w3.org/2000/svg" width="577.851" height="502.293" viewBox="0 0 577.851 502.293"><g transform="translate(-228.937 -162)"><g transform="translate(228.937 162)" opacity="0.34"><g transform="translate(11.296 204.859)" opacity="0.346"><path d="M-102.534,144.026C-107.936,79.652-397.805-44.6-451.618,16.378s-2.078,175.4,110.694,204.707S-97.131,208.4-102.534,144.026Z" transform="translate(473 0)" fill="#f2f2f2"/><path d="M.111,122.355C4.855,67.668,259.381-37.885,306.632,13.914S341.924,174.666,242.9,199.56-4.633,177.043.111,122.355Z" transform="translate(233.201 63.497)" fill="#dde3e9"/></g><g transform="translate(208.49)"><g transform="translate(0 120.754)"><ellipse cx="40.619" cy="21.484" rx="40.619" ry="21.484" transform="translate(6.69 11.458)" fill="#f2f2f2"/><path d="M94.618,47.742A47.311,47.311,0,1,0,0,47.742" transform="translate(0 0)" fill="#dde3e9"/></g><rect width="5" height="128" transform="translate(44.573)" fill="#dde3e9"/></g><g transform="translate(282.625)" opacity="0.7"><g transform="translate(0 88.92)"><ellipse cx="30.362" cy="17.338" rx="30.362" ry="17.338" transform="translate(5.001 9.247)" fill="#f2f2f2"/><path d="M70.725,38.529C70.725,17.25,54.892,0,35.362,0S0,17.25,0,38.529" fill="#dde3e9"/></g><rect width="5" height="110" transform="translate(33.438)" fill="#dde3e9"/></g><g transform="translate(0 275.04)"><g transform="translate(21.982 0)"><path d="M23.184.165a16.18,16.18,0,0,1,8.206.863c5.414,2.3,6.953,8.686,6.879,13.88-.08,5.59-1.268,11.7,2.986,16.2,1.956,2.071,4.388,3.655,6.308,5.764a27.245,27.245,0,0,1,4.854,7.6c2.189,5.086,3.263,11.067,1.261,16.4-1.762,4.7-6.2,8.937-5.238,14.278,1,5.572,6.622,9.832,10.138,13.982,3.978,4.7,7.642,10.7,8.243,16.859.577,5.9-1.995,11.872-5.942,16.334-7.886,8.916-19.739,13.287-31.692,13.259-5.075-.012-10.82-.241-15.2-2.965a8.371,8.371,0,0,1-2.872-3.1,10.112,10.112,0,0,0-2.777-2.777,16.473,16.473,0,0,1-5.29-7.059c-4.337-10.726-.871-23.994,5.2-33.519,1.439-2.257,2.616-4.428,1.917-7.118C9.437,76.243,7.645,73.71,6.06,71.3a62.36,62.36,0,0,1-4.579-7.24A16.415,16.415,0,0,1,.063,55.57,28.857,28.857,0,0,1,6.287,40.424C9.559,36.122,13.4,32,13.41,26.368,13.42,20.393,9.421,15.078,11.125,9a11.575,11.575,0,0,1,4.4-6.6C17.719.953,20.609.48,23.184.165Z" transform="translate(0 0)" fill="#dde3e9"/><path d="M1.325,1.123A1.378,1.378,0,0,1,3.079.049c.987.276.968,1.2.942,2.018a27.1,27.1,0,0,0,.893,7.425c1.262,5.091,3.595,9.782,5.442,14.673s2.713,9.932,1.63,15.1c-1.021,4.875-2.625,9.624-3.67,14.505-.921,4.3-1.9,8.839-.5,13.13C9.168,71.034,12.152,74.4,14.3,78.13a52.9,52.9,0,0,1,6.685,25.122,46.933,46.933,0,0,1-.939,12.249c-.548,2.313-1.283,5.44-3.268,7.037-.915.737-2.48.991-3.25-.1-.723-1.023-.089-2.607.141-3.7a55.994,55.994,0,0,0,.956-14.337,51.72,51.72,0,0,0-2.242-13.711,46.386,46.386,0,0,0-5.847-11.41C4.064,75.615,1.493,71.939.471,67.593-.567,63.178.276,58.687,1.4,54.357c1.193-4.58,2.755-9.029,4.37-13.484A23.64,23.64,0,0,0,7.037,27.878C5.321,18.9.726,10.473,1.325,1.123Z" transform="translate(20.071 8.594)" fill="#c5cfd6"/></g><g transform="translate(30.584 9.548)"><path d="M86.869,1.511A20.546,20.546,0,0,1,96.037,6.8c5.135,5.529,3.56,13.886.725,19.99-3.051,6.569-7.675,13.173-5.069,20.711,1.2,3.465,3.213,6.6,4.349,10.1A35.175,35.175,0,0,1,97.714,69.1c-.124,7.152-2.028,14.784-7.2,20.053-4.552,4.639-12,7.349-13.7,14.163-1.776,7.109,2.566,15.069,4.493,21.8,2.182,7.622,3.3,16.625.749,24.222-2.446,7.281-8.621,13-15.611,16.229-13.966,6.445-30.182,5.454-44.186-.79-5.946-2.651-12.563-5.908-16.258-11.406a10.749,10.749,0,0,1-1.728-5.159,12.97,12.97,0,0,0-1.788-4.728,21.219,21.219,0,0,1-2.471-11.1c.588-14.938,11.673-28.829,23.833-36.937,2.881-1.921,5.411-3.877,6.015-7.421.63-3.7-.132-7.626-.715-11.3-.576-3.635-1.469-7.256-1.541-10.942a21.417,21.417,0,0,1,2.828-10.774C33.876,48.67,39.4,43.856,45.751,40.339c6.115-3.387,12.8-6.259,15.792-12.921,3.172-7.061,1.295-15.425,6.506-21.723A15.075,15.075,0,0,1,76.709.174C80.042-.4,83.683.544,86.869,1.511Z" transform="translate(0)" fill="#dde3e9"/><path d="M49.365.774A1.758,1.758,0,0,1,51.979.421c1.01.844.5,1.925.044,2.884a35.515,35.515,0,0,0-2.848,9.261c-1.193,6.69-.925,13.466-1.328,20.226s-2.034,13.182-6.011,18.738c-3.75,5.239-8.115,10.022-11.9,15.256-3.332,4.613-6.857,9.472-7.466,15.288-.587,5.6,1.139,11.145,1.694,16.69,1.15,11.48-1.036,22.665-5.352,33.251A61.364,61.364,0,0,1,11.3,146.028c-1.853,2.453-4.352,5.77-7.51,6.623-1.456.393-3.42-.125-3.748-1.82-.309-1.59,1.263-3.134,2.1-4.3a73.223,73.223,0,0,0,8.634-16.478,67.781,67.781,0,0,0,4.566-17.411,60.629,60.629,0,0,0-.855-16.574c-.969-5.639-2.048-11.338-.965-17.021,1.1-5.771,4.441-10.649,8.03-15.186,3.8-4.8,7.954-9.249,12.179-13.68A30.888,30.888,0,0,0,42.02,35.449C44.719,23.918,43.764,11.533,49.365.774Z" transform="translate(30.584 12.413)" fill="#c5cfd6"/></g><g transform="translate(0 53.471)"><path d="M12.717,0c5.633,0,10.586,2.983,14,7.217,3.995,4.956,4.8,11.008,6.424,16.914a15.1,15.1,0,0,0,4.628,7.854c2.213,1.816,5.022,2.18,7.671,3.067A17.893,17.893,0,0,1,56.7,46.309c2.059,6.358-.122,12.77.254,19.213.345,5.917,6.185,9.609,10.883,12.446,4.633,2.8,8.807,5.416,10.2,10.865,1.48,5.779,1.976,12.231-.073,17.94-3.412,9.506-13.4,13.692-23.049,14.341-8.757.589-19.769-.336-26.345-6.687-3.935-3.8-5.361-9.115-5.184-14.4a43.808,43.808,0,0,1,1.6-9.724,43.835,43.835,0,0,0,1.635-6.822c.611-6.192-5.117-7.381-9.993-9.081A23.772,23.772,0,0,1,3.081,62.471C.272,57.177-.906,51.235.778,45.407a19.917,19.917,0,0,1,4.535-7.973c.931-1.011,2.244-1.854,3.084-2.916a3.931,3.931,0,0,0,.343-3.438C7.49,25.715,3.6,21.272,2.2,15.916.945,11.081,1.688,5.065,6.112,1.946A11.562,11.562,0,0,1,12.717,0Z" transform="translate(0)" fill="#c5cfd6"/><path d="M3.19.612c5.971,6.354,7.594,14.975,8.07,23.331.267,4.686-.011,9.628,1.367,14.173,1.179,3.89,3.943,6.864,6.792,9.674,5.735,5.657,12.131,11.409,13.808,19.6.984,4.8.32,9.768,1.68,14.52a39.924,39.924,0,0,0,6.062,12.211c2.132,2.937,4.91,5.186,7.241,7.924.711.836,1.73,2.066,1.436,3.246-.343,1.382-2.105,1.819-3.355,1.6-2.914-.506-5.368-3.286-7.273-5.307a45.717,45.717,0,0,1-7.079-9.7,40.757,40.757,0,0,1-4.592-12.605c-.763-4.609-.383-9.413-2.125-13.836C22.292,58,15.183,53.6,10.043,47.8c-6.4-7.229-5.449-16.225-4.793-25.117C5.61,17.8,5.969,12.281,3.5,7.82,2.554,6.117.45,4.529.045,2.593-.327.819,1.7-.973,3.19.612Z" transform="translate(17.203 13.368)" fill="#afb9c5"/></g><path d="M0,0C0,36.34,5.936,55.381,37.274,55.381S74.548,36.34,74.548,0Z" transform="translate(26.761 171.872)" fill="#89c5cc"/></g><g transform="translate(425.287 233.027)"><g transform="translate(11.549 0)"><path d="M.364.2C8.806,20.24,23.157,34.165,30.758,55c4.507,12.358,6.386,25.795,6.5,39.556.062,7.475-.068,14.954-.1,22.429-.034,7.289-.232,14.532-.852,21.775-.622,7.281-1.319,14.476-1.626,21.8-.239,5.708-.349,12.348-2.285,17.555-1.54,4.141-5.455,4.748-6.493-.275a40.11,40.11,0,0,1-.441-8.778c.082-3.681.3-7.357.405-11.037.439-14.769-.13-29.541.167-44.317.291-14.436,2.148-28.856.093-43.2-1.7-11.842-6.008-22.01-10.963-31.758C10.393,29.381,5.2,20.23,1.983,9.562A51.367,51.367,0,0,1,0,.029Q.225-.076.364.2Z" transform="translate(2.867)" fill="#c1dee2"/><path d="M.93.589C2.6,1.8,3.536,3.559,4.666,5.3c1.405,2.164,3.057,4.118,4.462,6.283,2.929,4.515,5.5,9.307,8.173,14.005A91.674,91.674,0,0,1,28.125,54.326C30.1,65.017,30.633,76.052,31.462,86.9c.879,11.5,1.764,23.084,1.881,34.629.052,5.172.332,10.663-.29,15.8-.387,3.2-1.831,5.922-5.087,5.9-6.916-.055-10.163-7.708-11.52-13.985a117.747,117.747,0,0,1-2.079-28.511c.382-11.4,2.362-22.623,3.219-33.976.908-12.019.395-23.825-3.741-35.141C11.756,25.9,9.33,20.314,7.153,14.633A54.864,54.864,0,0,0,4.214,7.478C2.821,4.972,1.091,2.7,0,0Z" transform="translate(0 39.149)" fill="#89c5cc"/><path d="M16.567.494,17.2,0a63.136,63.136,0,0,1-2.557,7.01,57.16,57.16,0,0,0-1.653,6.813c-1.2,5.424-2.585,10.726-3.717,16.2-2.242,10.825-1.818,22.487-.348,34.5,1.389,11.345,3.585,22.672,4.631,34.015a156.021,156.021,0,0,1,.413,28.081c-.562,6.1-2.405,13.373-7.427,12.757-2.364-.29-3.6-3.133-4.094-6.342-.8-5.155-.965-10.574-1.276-15.7C.48,105.888.342,94.483.2,83.16.075,72.477-.282,61.582.432,51.167A97.971,97.971,0,0,1,6.359,23.709c1.623-4.4,3.17-8.906,4.994-13.1.875-2.012,1.943-3.79,2.818-5.8C14.874,3.188,15.434,1.529,16.567.494Z" transform="translate(64.035 15.278)" fill="#c1dee2"/><path d="M.2.288c.915-1.534,2.928,3.525,3.234,4.161q-.194-.475-.391-.948a42.085,42.085,0,0,1,4.509,9.613c1.022,3.423,1.9,6.915,2.858,10.363,1.8,6.468,4.119,12.753,5.749,19.279a62.678,62.678,0,0,1,1.6,19.19,163.778,163.778,0,0,0-.178,20.612c.223,3.264,1.284,6.3,2.012,9.446s1.3,6.332,2.163,9.438c.2-.4.223.948.222,1.051a6.516,6.516,0,0,1-.364,2.162,5.825,5.825,0,0,1-3.671,4.021c-3.3.943-6.371-2.059-7.436-5.229a86.685,86.685,0,0,1-3.1-14.356,67.618,67.618,0,0,1-.627-13.238c.391-8.764,1.978-17.414,2.408-26.176.467-9.539-1.424-18.5-3.008-27.787A81.078,81.078,0,0,0,3.208,8.721,36.994,36.994,0,0,0,1,3.878C.534,2.971-.412,1.354.2.288Z" transform="translate(2.867 72.568)" fill="#c1dee2"/><path d="M9.8,34.085C9.419,45.013,8.766,55.858,7.308,66.671,5.819,77.705,4.11,88.7,2.678,99.746,1.284,110.5-.177,121.426.018,132.327c.143,8.029-1.189,21.612,7.737,25.575,9.04,4.013,10.979-13.125,11.573-18.782,1.138-10.853.769-21.82.217-32.733-.567-11.2-1.513-22.342-2.685-33.5-1.3-12.395-2.324-24.845-3.144-37.275-.406-6.148-.506-12.286-.394-18.436.106-5.8-.115-11.666-2.18-17.176l-.324.235" transform="translate(20.071 23.871)" fill="#69a1ac"/><path d="M11.548,5.686C9.922,8.052,8.283,10.4,6.748,12.9,4,17.386,1.517,22.374.769,28.786-.795,42.2.46,56.7.763,70.527c.062,2.826-.3,5.567.819,8.256,1.011,2.439,2.9,4.3,4.7,4.288,3.857-.022,3.268-9.457,3.275-13.61.012-7.279-.805-14.632-.735-21.9a151.939,151.939,0,0,1,1.554-21.272A122.462,122.462,0,0,1,15.033,6.5c.284-.861,2.321-7.517.4-6.37" transform="translate(64.99 86.891)" fill="#89c5cc"/><path d="M13.631,0c-2.536,0-2.52,12.629-2.6,14.251-.275,5.854-.211,11.709-.385,17.564-.381,12.777-.85,25.666-2.771,38.3-1.034,6.8-2.233,13.568-3.523,20.315C3.062,97.192,1.326,103.951.475,110.8c-.817,6.587-.355,13.3-.243,19.925a174.263,174.263,0,0,0,1.187,19.935c.215,1.63.468,3.253.739,4.873a38.594,38.594,0,0,0,.475,4.306c.611,2.054,3.23,2.727,4.993,2.406,4.772-.87,7.819-6.856,9.449-11.229,2.082-5.584,3.186-11.642,4.276-17.527a153.049,153.049,0,0,0,2.3-20.224c.69-13.8-.2-27.606-1.185-41.357-.55-7.648-1.186-15.262-2.158-22.862-.968-7.568-2.211-15.1-3.02-22.692-.588-5.516-1.167-11.039-1.548-16.576C15.647,8.459,15.57,0,13.631,0" transform="translate(45.876 21.007)" fill="#69a1ac"/><path d="M25.748,112.8c-.413-13.259-5.748-71.5-6.962-87.532-.3-4.013-3.226-20.723-3.6-25.272-1.028,1.286-.94,21.3-.929,25.9.012,4.549-.553,9.024-.843,13.549-.3,4.617-7.128,64.247-8.015,68.684C3.631,116.96,2.45,126.017,1.54,135.041c-.887,8.8-2.266,18.076-1.079,26.918a27.007,27.007,0,0,0,1.407,5.908c.759,2.02,1.28,3.889,1.89,6,.981,3.406,2.756,6.394,5.482,7.8,5.59,2.883,8.592-3.643,10.114-9.324a151.9,151.9,0,0,0,4.722-27.822c.809-10.542,2-21.105,1.673-31.72" transform="translate(30.584 0)" fill="#89c5cc"/></g><g transform="translate(0 151.635)"><rect width="86" height="86" rx="2" transform="translate(9.776 0.337)" fill="#fff"/><rect width="10" height="107" rx="2" transform="translate(-0.224 10.337)" fill="#c5cfd6"/><rect width="9" height="107" rx="2" transform="translate(47.776 10.337)" fill="#c5cfd6"/><rect width="10" height="107" rx="2" transform="translate(95.776 10.337)" fill="#c5cfd6"/></g></g></g><g transform="translate(357.525 313.07)" opacity="0.65"><path d="M268.528,277.235H29.549A29.667,29.667,0,0,1,0,247.451V137.092a11.844,11.844,0,0,1,3.653-8.563L130.288,7.534a27.1,27.1,0,0,1,37.5,0L288.528,122.9a30.959,30.959,0,0,1,9.548,22.384V247.451a29.9,29.9,0,0,1-8.655,21.06,29.431,29.431,0,0,1-20.894,8.723Z" transform="translate(0.311 0)" fill="#1f28cf"/><path d="M0,0H295.592V120.346a17.914,17.914,0,0,1-17.843,17.984H17.843A17.914,17.914,0,0,1,0,120.346Z" transform="translate(0.311 138.904)" opacity="0.1"/><rect width="219.831" height="221.58" rx="4.855" transform="translate(39.122 44.075)" fill="#6c63ff"/><path d="M219.831,0V121.775H0V0L109.916,53.548,219.831,0Z" transform="translate(39.122 143.88)" opacity="0.1"/><path d="M149.038,69.187,8.2.574A5.675,5.675,0,0,0,2.678.881,5.77,5.77,0,0,0,0,5.76V123.81a18.057,18.057,0,0,0,5.226,12.717,17.771,17.771,0,0,0,12.617,5.268H280.234a17.772,17.772,0,0,0,12.617-5.268,18.057,18.057,0,0,0,5.226-12.717V7.782a7.041,7.041,0,0,0-3.267-5.954,6.925,6.925,0,0,0-6.74-.374Z" transform="translate(0 135.127)" fill="#2b44ff"/><rect width="61.478" height="8.763" transform="translate(58.063 64.418)" fill="#f2f2f2"/><rect width="182.572" height="5.007" transform="translate(53.095 96.34)" fill="#f2f2f2"/><rect width="182.572" height="5.007" transform="translate(53.095 113.241)" fill="#f2f2f2"/><rect width="182.572" height="5.007" transform="translate(53.095 130.141)" fill="#f2f2f2"/><ellipse cx="25.461" cy="25.71" rx="25.461" ry="25.71" transform="translate(22.666 21.855)" fill="#fff"/><path d="M30.428,61.342A30.672,30.672,0,0,1,30.428,0,30.2,30.2,0,0,1,51.919,9.009,30.686,30.686,0,0,1,30.428,61.342ZM12.962,26.895,8.588,31.306,24.181,47.024l28.1-28.3-4.374-4.408L24.2,38.22Z" transform="translate(17.698 17.473)" fill="#ff9b21"/></g></g></svg>