<svg xmlns="http://www.w3.org/2000/svg" xmlns:xlink="http://www.w3.org/1999/xlink" width="626" height="575" viewBox="0 0 626 575"><defs><filter id="a" x="139.151" y="79.018" width="366.921" height="152.414" filterUnits="userSpaceOnUse"><feOffset input="SourceAlpha"/><feGaussianBlur stdDeviation="10" result="b"/><feFlood flood-opacity="0.161"/><feComposite operator="in" in2="b"/><feComposite in="SourceGraphic"/></filter><filter id="c" x="85.151" y="195.018" width="366.921" height="152.414" filterUnits="userSpaceOnUse"><feOffset input="SourceAlpha"/><feGaussianBlur stdDeviation="10" result="d"/><feFlood flood-opacity="0.161"/><feComposite operator="in" in2="d"/><feComposite in="SourceGraphic"/></filter><filter id="e" x="139.151" y="311.018" width="366.921" height="152.414" filterUnits="userSpaceOnUse"><feOffset input="SourceAlpha"/><feGaussianBlur stdDeviation="10" result="f"/><feFlood flood-opacity="0.122"/><feComposite operator="in" in2="f"/><feComposite in="SourceGraphic"/></filter></defs><g transform="translate(-168 -168)"><g transform="translate(168 168)" opacity="0.14"><g transform="translate(46.527 284.963)" opacity="0.505"><path d="M533.081,130.048c7.774,58.126-180.758,96.039-343.032,69.58S-46.668,69.844,30.767,14.789,525.307,71.922,533.081,130.048Z" transform="translate(0 0)" fill="#f2f2f2"/></g><path d="M163.262,219.85a39.534,39.534,0,0,1-.846,5.074A15.149,15.149,0,0,0,163.262,219.85ZM154.1,180.1c-4.921-10.423-11.941-19.43-20.029-27.446,1.616-5.871,17.334-15.039,7.4-19.893-5.277-2.566-10.282,2.413-11.143,7.452-.59,3.463.808,7.7,2.227,10.96q-3.811-3.66-7.874-7.058c-3.736-3.131-7.552-6.161-11.4-9.15,5.769-6.015,10.657-22.6,2.383-24.841-12.218-3.293-5.27,18.62-4.214,22.74a.654.654,0,0,0,.549-.241c-.047.385-.1.8-.178,1.213-7.364-5.687-14.826-11.25-22.067-17.089a31.711,31.711,0,0,0,2.227-3.281,35.584,35.584,0,0,0,4.311-7.029c1.736-4,3.282-10.325-1.983-12.35-5.725-2.208-8.015,4.97-7.834,9.172.126,2.9,1.061,5.622,1.622,8.447.176.881-.111,4.909,1.009,3.124a8.573,8.573,0,0,0,.037,1.422q-1.949-1.581-3.875-3.2a1.5,1.5,0,0,0,.083-.489,1.454,1.454,0,0,0-2.15-1.258q-2.543-2.175-5.031-4.422c-3.506-3.183-7.064-6.459-10.6-9.809.7-.663.361-1.514,1.007-2.212s1.964-1.134,2.731-1.792A19.341,19.341,0,0,0,75.866,86.8c1.8-3.77,3.966-11.6-1.939-13.039-6.087-1.49-8.74,6.073-8.883,10.722a118.223,118.223,0,0,0,1.735,11.853C60.229,90.1,53.767,83.622,47.873,76.994c1.676-.1,6.252-3.787,7.164-4.775,2.225-2.409,5.689-7.655,1.437-10.113-3.78-2.18-8.107,1.491-9.5,4.91a46.933,46.933,0,0,0-.816,8.024c-2.443-2.814-4.782-5.651-6.968-8.5q-2.188-2.846-4.123-5.853a2.736,2.736,0,0,0,.765-.836c6.044-1.354,13.319-11.271,5.984-14.2-3.492-1.395-7.02,2.047-8.552,4.793A35.445,35.445,0,0,0,32.2,55.943a114.236,114.236,0,0,1-9.121-21.071,1.333,1.333,0,0,0,.975-1.289c2.872-1.842,5.136-3.369,7.033-6.722,1.179-2.082,3.25-6.807-.581-7.728-4.986-1.2-7.677,6.459-7.885,10.172-.024.431.043,1.677.119,2.819a1.65,1.65,0,0,0-.512.036c-1.368-4.535-2.511-9.141-3.472-13.765,2.635-1,2.361-15.094.472-17-4.223-4.275-6.7,2.35-6.3,5.763.463,4.024,2.486,7.6,4.836,10.746.252.333.184.32.219-.164a.964.964,0,0,0,.26.527,61.215,61.215,0,0,0,.1,6.193,143.291,143.291,0,0,0,2.686,16.022q.434,1.921.962,3.807a31.283,31.283,0,0,0-6.4-3.649c-3.018-1.167-7.638-2.354-10.45.037a4.931,4.931,0,0,0-.176,7.384c2.5,2.518,6.814,2.2,10.022,1.769,1.451-.193,9.2-1.224,7.289-2.4a6.29,6.29,0,0,1,.774.32q.3.921.634,1.835c-.044.029-.081.06-.129.089.052-.026.088-.053.133-.079a71.468,71.468,0,0,0,8.944,17.15,16.822,16.822,0,0,0-4.084-.864c-4.087-.3-12.462,3.3-7.637,8.466,4.626,4.952,11.113-.961,16.015-1.986A231.339,231.339,0,0,0,53.548,90.83a1.318,1.318,0,0,0-.773.715c-2.281-1.011-4.681-2.5-6.76-2.83-3-.473-9.106-.536-11.209,2.237-2.588,3.409.508,5.906,3.8,6.361,4.774.66,10.839-1.972,15.3-3.77a1.5,1.5,0,0,0,1.4-.55l.294-.113c5.932,5.87,12.067,11.526,18.161,17.053h-.188a15.735,15.735,0,0,0-5-1.971c-4.113-.777-8.89-.531-12.032,2.579s-4.024,8.272-.456,11.377c7.142,6.217,16.372-9.295,19.767-10.1,6.19,5.555,12.7,10.706,19.295,15.742a11.259,11.259,0,0,0-2.238-.336c-6.226-.268-20.368,8.086-12.374,15.156,6.966,6.161,13.977-6.768,19.087-11.429,6.215,4.69,12.461,9.344,18.548,14.2a16.955,16.955,0,0,0-9.637.566c-3.463,1.249-9,4.2-6.53,8.836,2.516,4.712,9.221,2.157,12.692.437,1.893-.938,5.63-3.964,8.978-5.332,9.741,8.274,18.288,17.5,24.971,28.549a102.271,102.271,0,0,1,9.891,22.015c1.557,4.906,4.547,13.127,4.376,19.628C164.673,206.763,159.453,191.43,154.1,180.1ZM17.764,25.169c-.518,0-2.464-5.256-3.076-6.033a17.53,17.53,0,0,0-6.936-5.027c-4.26-1.841-9.671.837-7.077,6.157,2.071,4.247,7.682,5.1,12.542,5.1C14.878,25.367,16.451,25.268,17.764,25.169Z" transform="translate(343.388 131.912) rotate(3)" fill="#f2f2f2"/><path d="M0,158.583a18.479,18.479,0,0,0,.846,3.382A7.142,7.142,0,0,1,0,158.583Zm6.769-28.357A70.541,70.541,0,0,1,21.4,110.38C20.217,106.136,8.741,99.506,16,96c3.853-1.855,7.508,1.744,8.136,5.389.431,2.5-.59,5.569-1.626,7.925q2.782-2.646,5.75-5.1c2.728-2.264,5.514-4.455,8.324-6.616C32.368,93.24,28.8,81.246,34.84,79.628c8.921-2.381,3.847,13.464,3.076,16.444a.481.481,0,0,1-.4-.174c.034.278.076.576.129.877,5.377-4.112,10.826-8.134,16.113-12.356a22.95,22.95,0,0,1-1.626-2.373,25.648,25.648,0,0,1-3.148-5.082c-1.268-2.895-2.4-7.466,1.448-8.93,4.181-1.6,5.852,3.594,5.719,6.632a39.948,39.948,0,0,1-1.185,6.109c-.128.637.081,3.549-.736,2.259A6.19,6.19,0,0,1,54.2,84.06q1.424-1.143,2.829-2.31a1.085,1.085,0,0,1-.06-.353,1.062,1.062,0,0,1,1.57-.91q1.857-1.572,3.673-3.2c2.56-2.3,5.158-4.67,7.743-7.093-.508-.479-.263-1.094-.735-1.6s-1.434-.82-1.994-1.295A13.99,13.99,0,0,1,63.9,62.763c-1.313-2.727-2.9-8.386,1.415-9.429,4.444-1.077,6.382,4.391,6.486,7.754a84.627,84.627,0,0,1-1.267,8.57c4.783-4.5,9.5-9.189,13.805-13.982-1.224-.075-4.564-2.738-5.231-3.452-1.625-1.742-4.154-5.536-1.049-7.313,2.76-1.575,5.92,1.078,6.933,3.55a33.524,33.524,0,0,1,.6,5.8c1.784-2.035,3.491-4.086,5.089-6.15q1.6-2.057,3.01-4.231a1.981,1.981,0,0,1-.559-.605c-4.413-.979-9.726-8.15-4.369-10.271C91.306,32,93.883,34.486,95,36.471a25.38,25.38,0,0,1,.776,3.982,82.121,82.121,0,0,0,6.66-15.236.965.965,0,0,1-.712-.932,13.221,13.221,0,0,1-5.135-4.861c-.86-1.505-2.372-4.922.425-5.587,3.64-.866,5.605,4.671,5.757,7.355.018.312-.031,1.213-.087,2.038a1.23,1.23,0,0,1,.373.027c1-3.279,1.834-6.61,2.535-9.953-1.923-.725-1.723-10.913-.344-12.294,3.083-3.092,4.89,1.7,4.6,4.167a16.293,16.293,0,0,1-3.532,7.77c-.183.24-.134.231-.16-.119a.69.69,0,0,1-.19.381,43.72,43.72,0,0,1-.071,4.479,102.685,102.685,0,0,1-1.96,11.584q-.317,1.39-.7,2.753a22.93,22.93,0,0,1,4.675-2.638c2.2-.843,5.577-1.7,7.63.027a3.543,3.543,0,0,1,.128,5.339c-1.827,1.82-4.975,1.587-7.317,1.279-1.06-.139-6.718-.884-5.323-1.735a4.672,4.672,0,0,0-.566.232q-.223.666-.463,1.326c.033.021.06.043.094.065-.037-.019-.064-.039-.1-.058a51.509,51.509,0,0,1-6.531,12.4,12.4,12.4,0,0,1,2.982-.626c2.984-.217,9.1,2.387,5.577,6.122-3.378,3.581-8.115-.7-11.694-1.436A167.916,167.916,0,0,1,80.192,65.679a.961.961,0,0,1,.564.517c1.666-.731,3.418-1.808,4.937-2.046,2.19-.342,6.648-.387,8.184,1.617,1.889,2.466-.371,4.271-2.775,4.6-3.485.477-7.914-1.426-11.174-2.726a1.1,1.1,0,0,1-1.023-.4l-.215-.081c-4.331,4.245-8.812,8.335-13.261,12.331h.138a11.564,11.564,0,0,1,3.651-1.425c3-.562,6.492-.383,8.785,1.865s2.938,5.981.334,8.227c-5.215,4.5-11.954-6.721-14.434-7.3-4.519,4.016-9.27,7.741-14.088,11.382A8.236,8.236,0,0,1,51.449,92c4.545-.194,14.872,5.846,9.035,10.958C55.4,107.408,50.278,98.06,46.547,94.69c-4.538,3.392-9.1,6.757-13.543,10.268a12.5,12.5,0,0,1,7.036.41c2.529.9,6.574,3.039,4.768,6.39-1.837,3.406-6.732,1.558-9.267.316-1.382-.678-4.11-2.867-6.555-3.856A84.8,84.8,0,0,0,10.753,128.86a73.61,73.61,0,0,0-7.222,15.918c-1.137,3.548-3.32,9.492-3.2,14.192C-.946,149.508,2.865,138.421,6.773,130.226ZM105.957,17.809c.37,0,1.759-3.755,2.2-4.31a12.524,12.524,0,0,1,4.955-3.59c3.043-1.315,6.908.6,5.055,4.4-1.48,3.034-5.49,3.644-8.961,3.644C108.017,17.95,106.894,17.879,105.957,17.809Z" transform="translate(82.971 29.38) rotate(-3)" fill="#c1dee2" opacity="0.2"/><g transform="translate(408.483 176.209)" opacity="0.7"><path d="M22.921.035C34.47.647,47.97,8.841,47.884,21.45c-.063,9.161-1.289,18.174-.863,27.373a73.691,73.691,0,0,0,4.425,21.469c2.389,6.659,8.16,12.721,9.1,19.666.6,4.425-.629,10.432-2.521,14.5-2.3,4.946-1.322,4.639,1.736,9.313,5.993,9.161,11.278,18.464,14.6,29,4.785,15.178,7.138,32.579,3.127,48.222-.51,1.986-1.624,9.19-4.457,9.4-3.164.24-1.277-3.749-.971-5.069,1.953-8.424,3.676-15.786,3.313-24.588-1.4-33.962-23.088-58.521-35.734-88.549-.705-1.554-2.153-5.23-3.172-7.663-1.609-3.84-2.885-10.959-5.3-13.934-4.543-5.605-.948,5.081-.163,7.132.992,2.594,2.093,5.355,3.148,7.647C38.962,85.99,44.36,97.595,49.333,108.54c-26.82,3.212-41.958-30.2-46.812-51.635-4-17.658-6.739-58.247,20.4-56.87" transform="matrix(0.995, -0.105, 0.105, 0.995, 0, 99.928)" fill="#69a1ac"/><path d="M86.122.1C66.815,1.634,54.42,14.368,48.651,32.179c-3.11,9.6-3.466,19.459-5.194,29.323-2.6,14.841-8.193,26.087-19.124,36.66A36.9,36.9,0,0,0,16.678,108.4a43.589,43.589,0,0,0-8.837,12.624c-2.876,6.345-3.69,13.959-.369,20.285.893,1.7,3.12,5.115,5.429,6.666-8.643,18.4-13.4,38.552-12.86,58.678.324,12.149.917,24.3,1.609,36.438.186,3.258,1.248,8.638,2.842,3.174,1.459-5-.371-12.844-.54-18.065-.824-25.436-1.528-48.563,8.947-72.328q1.648-3.736,3.476-7.413a2.467,2.467,0,0,0,.2-.14c.046.036.088.074.134.109.078-.138.184-.3.307-.486a6.556,6.556,0,0,0,.941-1.318c.929-1.287,1.981-2.8,1.986-3.627,0-.006,0-.016,0-.023a342.434,342.434,0,0,1,21.5-30.381c-.057.071,8.229-11.206,6.948-4.969-.618,3.005-6.712,8.729-9.174,11.912a296.777,296.777,0,0,0-17.153,24.733c-.715.411-1.725,2.427-2.456,3.929-.4.761-.78,1.528-1.15,2.2,18.828,6.218,33.474-6.307,43.461-20.875.012-.017.023-.035.034-.052,3.039-4.026,6.152-8.023,10.042-11.2,6.489-5.31,13.438-6.247,21.089-8.86,20.864-7.126,29.735-34.154,32.552-54.209C128.816,32.566,113.267-2.128,86.122.1" transform="translate(91.471 65.629)" fill="#89c5cc"/><path d="M82.976,1.934c-22.491,17.656-35.951,44.638-47.2,70.2-12.562,28.552-22.342,57.962-26.9,88.842C5.885,181.267,2.46,201.624.8,222.075a217.886,217.886,0,0,0-.747,21.868c.012.6.331,16.87,3.3,13.506,1.687-1.913-.3-16.875-.266-19.316a312.812,312.812,0,0,1,3.7-41c3.285-22.381,5.756-44.758,11.164-66.757a76.228,76.228,0,0,1,2.817-9.9c1.328-3.347.044-1.985,2.976-2.972,2.848-.96,6.11-.307,9.106-1.592,11.884-5.1,19.882-21.361,25.814-31.936,6.785-12.092,11.733-25.308,16.046-38.431a284.056,284.056,0,0,0,7.947-29.212A78.182,78.182,0,0,1,84.86,6.894c.285-.814,1.332-2.178,1.406-2.924C86.422,2.391,85.6,1.335,85.712,0Q84.324.94,82.976,1.934" transform="translate(57.018 12.004) rotate(-8)" fill="#89c5cc"/><path d="M0,0A61.741,61.741,0,0,0,61.754,61.728,61.741,61.741,0,0,0,123.508,0" transform="translate(31.409 277.026)" fill="#89c5cc"/><path d="M64.7,76.949a9.483,9.483,0,0,1-6.472-2.273,12.981,12.981,0,0,1-3.487-5.6C53.155,64.5,53,58.881,52.905,55.163c-.259-9.679-1.254-19.771-10.119-27.437-1.044-.9-2.157-1.761-3.234-2.591-.961-.741-1.953-1.507-2.893-2.3l-.45-.378c-3.021-2.537-6.145-5.161-6.527-9.311-.213-2.306.159-4,1.1-5.038a4.782,4.782,0,0,1,3.741-1.328,15.394,15.394,0,0,1,3.178.389c.167.036.616.206,1.237.442,1.773.672,4.739,1.8,6.321,1.8.486,0,.806-.11.95-.326a.944.944,0,0,0-.042-.884c-.365-.876-1.619-1.65-3.727-2.3C38.205,5.434,34.2,5.02,31.817,5.02a7.9,7.9,0,0,0-1.542.11C22.373,6.862,15.9,12.8,11.046,22.787c-4.79,9.845-6.62,20.8-7.285,26.454-.18,1.532-.343,3.191-.5,5.073H0A110.017,110.017,0,0,1,1.21,42.09c.926-5.476,3.278-16.035,8.627-25.222A37.434,37.434,0,0,1,18.266,6.616a23.441,23.441,0,0,1,11.7-5.245A17.324,17.324,0,0,1,31.85,1.3c1.227,0,2.706.047,4.163.132A10.863,10.863,0,0,1,40.629.072C41.275.024,41.937,0,42.6,0A33.518,33.518,0,0,1,53.73,2.038,47.956,47.956,0,0,1,64.363,7.444a55.481,55.481,0,0,1,9.189,7.708,46.589,46.589,0,0,1,6.8,8.945,34.508,34.508,0,0,1,4.241,17.211A55.7,55.7,0,0,1,81.625,59,40.51,40.51,0,0,1,75.673,70.7c-3.195,4.1-6.834,6.207-10.818,6.252Z" transform="translate(94.855 222.908)" fill="#69a1ac"/></g><g transform="translate(18.611 66.801)" opacity="0.5"><path d="M55.175,19.824C58.73,14.758,65.327,1.89,70.331.079c3.223-1.166,2.283,10.9,2.323,13.2a192.725,192.725,0,0,1-1.782,26.565C68.943,55.755,62.638,69.928,53.99,83.472c-4.45,6.969-9.67,14.024-16.9,18.372-3.328,2-7.332,2.338-10.618,4.063-3.827,2.009-1.743.385-3.468,4.371-2.4,5.535-3.162,12.676-4.27,18.582C13.646,155.973,1.327,299.291,3.462,326.869c.19,2.444-3.22,3.029-3.39.045C-.833,311.091,7,201.522,10.946,165.69S18.893,98.2,22.9,85.805c4.862-15.04,13.643-33.127,20.953-47.152A166.766,166.766,0,0,1,55.175,19.824Z" transform="translate(95.592 74.412)" fill="#69a1ac"/><path d="M84.945,1.926c9.25-6.788,19.263,6.023,10.893,12.813-4.628,3.753-9.465,2.418-12.189-.71-1.768,2.154-3.423,4.407-5.013,6.309-4.844,5.8-9.423,11.733-13.8,17.807C55.746,50.765,47.956,64.1,39.81,77.184c-8.038,12.917-16.013,25.9-23.3,39.144C10.34,127.549,2.113,140.75,0,153.051c3.206-26.09,15.372-51.166,29.86-74.166C44.23,56.074,60.721,31.162,82.971,13.16A7.875,7.875,0,0,1,84.945,1.926Z" transform="translate(92.208 268.051)" fill="#c1dee2"/><path d="M1.618.026C6.8,1.038,15.253,12.743,19.52,17.2A167.059,167.059,0,0,1,33.529,34.07,285.26,285.26,0,0,1,58.314,74.479a375.505,375.505,0,0,1,27.577,71.738,295.816,295.816,0,0,1,8.367,47.055c.3,2.979,3.423,25.949-1.079,26.568-4.05.557-2.8-17.441-2.994-19.89-2.208-27.621-8.824-54.5-18.027-80.531-2-5.671-3.867-12.618-7.072-17.722-2.309-3.676-.017-2.394-4.073-3.785-3.484-1.2-7.453-.9-11.02-2.366C42.243,92.369,36.038,86.2,30.6,80,20.028,67.944,11.652,54.9,7.286,39.455A195.135,195.135,0,0,1,1.4,13.446C1.083,11.164-1.716-.626,1.618.026Z" transform="translate(0 206.324)" fill="#69a1ac"/><path d="M11.9,11.6c19.5,33.8,35.522,70.932,45.869,108.54,6.269,22.786,10.653,46.168,15.008,69.381C79.517,225.461,85.9,261.4,87.71,297.981c1.826,36.793,5.436,79.229-6.617,114.666,6.02-35.978.289-74.275-.726-110.476-.485-17.282-1.89-34.4-3.734-51.576-1.789-16.667-4.712-33.254-7.434-49.789q-1.989-12.08-4.136-24.131c-.423-2.4-.6-9.513-2.124-11.151s-9.345-2.321-11.8-3.531a63.343,63.343,0,0,1-13.7-9.555c-7.883-7.011-14.742-16.171-20.155-25.2C4.763,106.344-.244,80.847.009,56.649.058,51.951,7.616,1.361,4.581.665Q4.855.344,5.1,0,8.547,5.77,11.9,11.6Z" transform="translate(10.151)" fill="#89c5cc"/><path d="M139.451,3.287c.3-.434,2.259-3.451,1.273-3.258,2.008-.393-2.761,3.327,2.241,1.045-2.375,2.242-1,5.155-.973,8.173A73.159,73.159,0,0,1,140.3,23.8a99.768,99.768,0,0,1-6.786,22c-6.875,15.361-18.549,30.149-32.408,39.753-6.842,4.742-13.547,6.356-21.351,8.539-4.929,1.379-5.32,3.928-7.936,8.709-5.447,9.958-10.8,19.879-15.6,30.173-5.736,12.292-11.3,24.6-16.556,37.1C21.969,212.207,7.567,255.856,0,301.029c-.185-26.62,5.976-54.037,13.747-79.411,5.661-18.487,13.03-36.307,20.89-53.947,1.9-4.274,4.791-9.771,5.6-14.489.566-3.306-1.165-6.485-1.958-9.967-3.091-13.561-2.87-28.754-.155-42.387,2.993-15.034,11.647-22.011,26.287-24.141,5.354-.779,12.159-.493,17.069-2.775,5.349-2.485,7.555-10.653,10.6-15.9A216.192,216.192,0,0,1,121.1,18.556a94.125,94.125,0,0,1,9.926-9.128C133.248,7.655,137.938,5.471,139.451,3.287Z" transform="translate(93.054 130.221)" fill="#89c5cc"/><path d="M.837,4.845A4.229,4.229,0,0,1,5.021,0H56.977a4.229,4.229,0,0,1,4.184,4.845L57.145,32.063A16.917,16.917,0,0,1,40.407,46.507H21.59A16.917,16.917,0,0,1,4.852,32.063Z" transform="translate(63.324 402.5)" fill="#c1dee2"/></g><g transform="translate(27.07 442.243)"><path d="M0,0C0,18,1.421,32.593,20.5,32.593S40.991,18,40.991,0" transform="translate(13.043 40.974)" fill="#f2f2f2"/><path d="M39.212,29.743a37.679,37.679,0,0,0-1.873,3.692,50.5,50.5,0,0,1,.512-7.8c.665-4.506,1.681-8.99,2.636-13.465.686-3.217.643-8.994,3.247-11.557.714-.554.886.533.886,1,.009.1,0-1.925-.7-1.572-4.12,2.127-5.455,8.815-6.774,12.164a64.425,64.425,0,0,0-4.236,14.97,33.519,33.519,0,0,0-.285,3.851c-.14-.343-.272-.688-.417-1.03a69.518,69.518,0,0,0-9.59-16.032C21.638,12.73,9.25.549,8.28,2.414a1.285,1.285,0,0,0,.6.674c.018.02.018.009.008-.021.728,1.175,2.8,2.989,3.441,4.019a77.742,77.742,0,0,1,4.163,8.036c2.706,5.7,5.216,11.455,7.65,17.223.567,1.344,1.157,2.68,1.76,4.011C19.691,27.4,11.406,19.272,0,14.618c3.9,1.981,6.45,5.708,9.08,8.562,3.173,3.442,6.515,6.791,9.694,10.23,3.75,4.056,8.161,8.327,11.768,12.816,3.493,7.331,6.888,14.67,8.984,22.377-.859-2.663-.067-6.342-.214-9.136a61.7,61.7,0,0,0-.733-6.632,13.614,13.614,0,0,1,.992,2.911c-.157-1.55-.338-3.091-.532-4.624.5-1.435.989-2.774,1.32-3.877A99.582,99.582,0,0,1,46.823,30.6a148.522,148.522,0,0,1,8.644-14.762c1.484-2.237,2.988-4.466,4.482-6.7.978-1.462,1.91-3.8,3.272-5.2-8.8,8.046-18.422,16.149-24.008,25.8" transform="translate(0 0)" fill="#f2f2f2"/></g><g transform="translate(418.743 0.228)"><path d="M67.23,109.866c.2-8.783-3.4-16.877-7.385-24.517C52.086,70.476,48.206,61.578,49.457,43.916c.736-10.388,1.616-21.363-3.689-30.8C41.906,6.25,33.805-1.1,25.251.141,11.711,3.223,4.154,16.119,1.257,28.925-2.333,44.8,1.782,56.64,13.773,66.811c6.757,5.73,10.569,11.632,12.412,20.357,1.475,6.977,1.058,14.979,3.58,21.689,3.771,10.031,10.579,16.158,20.818,18.022-3.7-19.883-8.89-40.427-17.216-58.861-.747-1.824-6.117-9.621-3.883-11.591,2.46-2.168,6.523,10.3,6.491,10.221,2.36,5.54,4.351,11.259,6.265,17l-.032,0q2.964,8.845,5.74,17.851c.714,2.516,1.383,5.046,1.977,7.61.872,3.762.976,13.67,3.447,16.613a5.329,5.329,0,0,0,1.609,1.341c.99,4.149,1.914,8.307,2.725,12.473,2.115,10.882,3.339,22.043,1.97,33.108-.4,3.229-4.509,14.46-3.146,17.328,2.49,5.245,3.889-2.842,4.42-5.248,4.39-19.924,2.8-38.63-2-58.138,4.406-3.034,8.193-13.168,8.274-16.726" transform="matrix(0.951, -0.309, 0.309, 0.951, 83.678, 20.765)" fill="#f2f2f2"/><path d="M9.966.1c6.429.942,12.5,9.07,15.494,14.489A96.147,96.147,0,0,1,33.7,36.305c3.21,12.133,3.646,25.6,3.688,38.024.005,1.5.321,19.787-1.817,19.487-2.118-.3-.78-19.282-.962-23.213-.386-8.39.187-16.664-1.782-24.947a79.116,79.116,0,0,0-10.5-24.07c-.606-.951-1.888-4.486-3.344-3.67-1.424.8,2.522,5.508,3.083,6.423a81.145,81.145,0,0,1,5.988,11.895A62.7,62.7,0,0,1,32.742,60.3c-4.892.75-9.155-2.116-10.8-6.891-1.419-4.127-1.558-8.927-3.169-12.83a19.044,19.044,0,0,0-5.033-6.9C8.049,28.589,2.106,27.315.407,18.868-.924,12.245.725-1.252,9.966.1" transform="matrix(0.53, -0.848, 0.848, 0.53, 39.583, 122.691)" fill="#f2f2f2"/><path d="M12.154,46.507a5.832,5.832,0,0,0,3.954-1.374,7.834,7.834,0,0,0,2.13-3.386,28.873,28.873,0,0,0,1.123-8.407c.158-5.85.765-11.948,6.181-16.582.639-.547,1.322-1.067,1.981-1.57.585-.446,1.19-.908,1.763-1.386l.26-.216.017-.014c1.845-1.533,3.752-3.119,3.986-5.626a3.885,3.885,0,0,0-.666-3.036A2.931,2.931,0,0,0,30.589,4.1a9.5,9.5,0,0,0-1.942.235c-.1.022-.378.125-.758.268a14.963,14.963,0,0,1-3.86,1.085c-.3,0-.494-.067-.581-.2a.567.567,0,0,1,.027-.533c.224-.53.99-1,2.277-1.39,2.59-.279,5.035-.529,6.491-.529a4.871,4.871,0,0,1,.944.067c4.827,1.047,8.78,4.638,11.748,10.672a51.8,51.8,0,0,1,4.451,15.989c.115.964.218,2.017.317,3.217h1.989a65.325,65.325,0,0,0-.747-7.539A47.057,47.057,0,0,0,45.674,10.2,22.681,22.681,0,0,0,40.524,4,14.4,14.4,0,0,0,33.377.828,10.728,10.728,0,0,0,32.226.786c-.752,0-1.656.029-2.546.08a6.673,6.673,0,0,0-2.82-.823c-.395-.029-.8-.043-1.2-.043a20.675,20.675,0,0,0-6.8,1.232A29.42,29.42,0,0,0,12.36,4.5,33.814,33.814,0,0,0,6.746,9.158a28.193,28.193,0,0,0-4.155,5.406A20.679,20.679,0,0,0,0,24.966,33.344,33.344,0,0,0,1.815,35.661a24.386,24.386,0,0,0,3.636,7.067c1.952,2.48,4.175,3.751,6.609,3.779Z" transform="translate(0 34.442)" fill="#f2f2f2"/></g></g><g transform="translate(337.151 277.018)"><g transform="matrix(1, 0, 0, 1, -169.15, -109.02)" filter="url(#a)"><path d="M2.941,0H303.98a2.941,2.941,0,0,1,2.941,2.941V89.473a2.941,2.941,0,0,1-2.941,2.941H2.941A2.941,2.941,0,0,1,0,89.473V2.941A2.941,2.941,0,0,1,2.941,0Z" transform="translate(169.15 109.02)" fill="#fff"/></g><rect width="71.004" height="16.039" transform="translate(37.411 19.857)" fill="#6c63ff" opacity="0.33"/><rect width="217.593" height="8.401" transform="translate(37.411 45.825)" fill="#6c63ff" opacity="0.3"/><rect width="87.037" height="8.401" transform="translate(37.411 64.155)" fill="#6c63ff" opacity="0.3"/></g><g transform="translate(283.151 393.018)"><g transform="matrix(1, 0, 0, 1, -115.15, -225.02)" filter="url(#c)"><path d="M2.941,0H303.98a2.941,2.941,0,0,1,2.941,2.941V89.473a2.941,2.941,0,0,1-2.941,2.941H2.941A2.941,2.941,0,0,1,0,89.473V2.941A2.941,2.941,0,0,1,2.941,0Z" transform="translate(115.15 225.02)" fill="#fff"/></g><rect width="71.004" height="16.039" transform="translate(37.411 19.857)" fill="#6c63ff" opacity="0.55"/><rect width="217.593" height="8.401" transform="translate(37.411 45.825)" fill="#6c63ff" opacity="0.3"/><rect width="87.037" height="8.401" transform="translate(37.411 64.155)" fill="#6c63ff" opacity="0.3"/></g><g transform="translate(337.151 509.018)"><g transform="matrix(1, 0, 0, 1, -169.15, -341.02)" filter="url(#e)"><path d="M2.941,0H303.98a2.941,2.941,0,0,1,2.941,2.941V89.473a2.941,2.941,0,0,1-2.941,2.941H2.941A2.941,2.941,0,0,1,0,89.473V2.941A2.941,2.941,0,0,1,2.941,0Z" transform="translate(169.15 341.02)" fill="#fff"/></g><rect width="71.004" height="16.039" transform="translate(37.411 19.857)" fill="#6c63ff" opacity="0.13"/><rect width="217.593" height="8.401" transform="translate(37.411 45.825)" fill="#6c63ff" opacity="0.3"/><rect width="87.037" height="8.401" transform="translate(37.411 64.155)" fill="#6c63ff" opacity="0.3"/></g></g></svg>