<svg xmlns="http://www.w3.org/2000/svg" width="618" height="568" viewBox="0 0 618 568"><g transform="translate(-216 -163)"><g transform="translate(216 163)" opacity="0.34"><g transform="translate(411.376 68.418)"><ellipse cx="51.5" cy="51" rx="51.5" ry="51" transform="translate(-0.376 -0.418)" fill="#f2f2f2"/><circle cx="2.5" cy="2.5" r="2.5" transform="translate(48.624 8.582)" fill="rgba(0,0,0,0.1)"/><circle cx="3" cy="3" r="3" transform="translate(7.624 47.582)" fill="rgba(0,0,0,0.1)"/><circle cx="3" cy="3" r="3" transform="translate(88.624 47.582)" fill="rgba(0,0,0,0.1)"/><ellipse cx="2.5" cy="3" rx="2.5" ry="3" transform="translate(48.624 88.582)" fill="rgba(0,0,0,0.1)"/><path d="M1.911,0,3.823,33.42H0Z" transform="translate(49.216 16.957)" fill="#afb9c5"/><path d="M1.9,0,3.821,22.928,0,22.926Z" transform="translate(69.386 66.887) rotate(135)" fill="#afb9c5"/><ellipse cx="3.5" cy="4" rx="3.5" ry="4" transform="translate(47.624 46.582)" fill="#c5cfd6"/></g><g transform="translate(24.233 203.859)" opacity="0.346"><path d="M-102.534,144.026C-107.936,79.652-397.805-44.6-451.618,16.378s-2.078,175.4,110.694,204.707S-97.131,208.4-102.534,144.026Z" transform="translate(473 0)" fill="#f2f2f2"/><path d="M.111,122.355C4.855,67.668,259.381-37.885,306.632,13.914S341.924,174.666,242.9,199.56-4.633,177.043.111,122.355Z" transform="translate(233.201 63.497)" fill="#dde3e9"/></g><g transform="translate(20.427)"><g transform="translate(0 120.754)"><ellipse cx="40.619" cy="21.484" rx="40.619" ry="21.484" transform="translate(6.69 11.458)" fill="#f2f2f2"/><path d="M94.618,47.742A47.311,47.311,0,1,0,0,47.742" transform="translate(0 0)" fill="#dde3e9"/></g><rect width="5" height="128" transform="translate(44.573)" fill="#dde3e9"/></g><g transform="translate(94.562)" opacity="0.7"><g transform="translate(0 88.92)"><ellipse cx="30.362" cy="17.338" rx="30.362" ry="17.338" transform="translate(5.001 9.247)" fill="#f2f2f2"/><path d="M70.725,38.529C70.725,17.25,54.892,0,35.362,0S0,17.25,0,38.529" fill="#dde3e9"/></g><rect width="5" height="110" transform="translate(33.438)" fill="#dde3e9"/></g><g transform="translate(438.551 158.743)"><path d="M0,20.671,13.173,5.261a5.115,5.115,0,0,1,8.028,0l35.07,41.025a14.494,14.494,0,0,1,3.323,9.384V327.423" transform="translate(56.569 9.399)" fill="none" stroke="#cbcbcb" stroke-miterlimit="10" stroke-width="8"/><rect width="56" height="6" rx="3" transform="translate(87.449 336.257)" fill="#afb9c5"/><g transform="translate(44.941 0) rotate(45)"><path d="M31.511,0h0A31.511,31.511,0,0,1,63.022,31.511V58.243a0,0,0,0,1,0,0H0a0,0,0,0,1,0,0V31.511A31.511,31.511,0,0,1,31.511,0Z" transform="translate(0 0)" fill="#c5cfd6"/><ellipse cx="31.522" cy="6.195" rx="31.522" ry="6.195" transform="translate(0.147 51.167)" fill="#f2f2f2"/></g></g><g transform="translate(12.937 274.04)"><g transform="translate(21.982 0)"><path d="M23.184.165a16.18,16.18,0,0,1,8.206.863c5.414,2.3,6.953,8.686,6.879,13.88-.08,5.59-1.268,11.7,2.986,16.2,1.956,2.071,4.388,3.655,6.308,5.764a27.245,27.245,0,0,1,4.854,7.6c2.189,5.086,3.263,11.067,1.261,16.4-1.762,4.7-6.2,8.937-5.238,14.278,1,5.572,6.622,9.832,10.138,13.982,3.978,4.7,7.642,10.7,8.243,16.859.577,5.9-1.995,11.872-5.942,16.334-7.886,8.916-19.739,13.287-31.692,13.259-5.075-.012-10.82-.241-15.2-2.965a8.371,8.371,0,0,1-2.872-3.1,10.112,10.112,0,0,0-2.777-2.777,16.473,16.473,0,0,1-5.29-7.059c-4.337-10.726-.871-23.994,5.2-33.519,1.439-2.257,2.616-4.428,1.917-7.118C9.437,76.243,7.645,73.71,6.06,71.3a62.36,62.36,0,0,1-4.579-7.24A16.415,16.415,0,0,1,.063,55.57,28.857,28.857,0,0,1,6.287,40.424C9.559,36.122,13.4,32,13.41,26.368,13.42,20.393,9.421,15.078,11.125,9a11.575,11.575,0,0,1,4.4-6.6C17.719.953,20.609.48,23.184.165Z" transform="translate(0 0)" fill="#dde3e9"/><path d="M1.325,1.123A1.378,1.378,0,0,1,3.079.049c.987.276.968,1.2.942,2.018a27.1,27.1,0,0,0,.893,7.425c1.262,5.091,3.595,9.782,5.442,14.673s2.713,9.932,1.63,15.1c-1.021,4.875-2.625,9.624-3.67,14.505-.921,4.3-1.9,8.839-.5,13.13C9.168,71.034,12.152,74.4,14.3,78.13a52.9,52.9,0,0,1,6.685,25.122,46.933,46.933,0,0,1-.939,12.249c-.548,2.313-1.283,5.44-3.268,7.037-.915.737-2.48.991-3.25-.1-.723-1.023-.089-2.607.141-3.7a55.994,55.994,0,0,0,.956-14.337,51.72,51.72,0,0,0-2.242-13.711,46.386,46.386,0,0,0-5.847-11.41C4.064,75.615,1.493,71.939.471,67.593-.567,63.178.276,58.687,1.4,54.357c1.193-4.58,2.755-9.029,4.37-13.484A23.64,23.64,0,0,0,7.037,27.878C5.321,18.9.726,10.473,1.325,1.123Z" transform="translate(20.071 8.594)" fill="#c5cfd6"/></g><g transform="translate(30.584 9.548)"><path d="M86.869,1.511A20.546,20.546,0,0,1,96.037,6.8c5.135,5.529,3.56,13.886.725,19.99-3.051,6.569-7.675,13.173-5.069,20.711,1.2,3.465,3.213,6.6,4.349,10.1A35.175,35.175,0,0,1,97.714,69.1c-.124,7.152-2.028,14.784-7.2,20.053-4.552,4.639-12,7.349-13.7,14.163-1.776,7.109,2.566,15.069,4.493,21.8,2.182,7.622,3.3,16.625.749,24.222-2.446,7.281-8.621,13-15.611,16.229-13.966,6.445-30.182,5.454-44.186-.79-5.946-2.651-12.563-5.908-16.258-11.406a10.749,10.749,0,0,1-1.728-5.159,12.97,12.97,0,0,0-1.788-4.728,21.219,21.219,0,0,1-2.471-11.1c.588-14.938,11.673-28.829,23.833-36.937,2.881-1.921,5.411-3.877,6.015-7.421.63-3.7-.132-7.626-.715-11.3-.576-3.635-1.469-7.256-1.541-10.942a21.417,21.417,0,0,1,2.828-10.774C33.876,48.67,39.4,43.856,45.751,40.339c6.115-3.387,12.8-6.259,15.792-12.921,3.172-7.061,1.295-15.425,6.506-21.723A15.075,15.075,0,0,1,76.709.174C80.042-.4,83.683.544,86.869,1.511Z" transform="translate(0)" fill="#dde3e9"/><path d="M49.365.774A1.758,1.758,0,0,1,51.979.421c1.01.844.5,1.925.044,2.884a35.515,35.515,0,0,0-2.848,9.261c-1.193,6.69-.925,13.466-1.328,20.226s-2.034,13.182-6.011,18.738c-3.75,5.239-8.115,10.022-11.9,15.256-3.332,4.613-6.857,9.472-7.466,15.288-.587,5.6,1.139,11.145,1.694,16.69,1.15,11.48-1.036,22.665-5.352,33.251A61.364,61.364,0,0,1,11.3,146.028c-1.853,2.453-4.352,5.77-7.51,6.623-1.456.393-3.42-.125-3.748-1.82-.309-1.59,1.263-3.134,2.1-4.3a73.223,73.223,0,0,0,8.634-16.478,67.781,67.781,0,0,0,4.566-17.411,60.629,60.629,0,0,0-.855-16.574c-.969-5.639-2.048-11.338-.965-17.021,1.1-5.771,4.441-10.649,8.03-15.186,3.8-4.8,7.954-9.249,12.179-13.68A30.888,30.888,0,0,0,42.02,35.449C44.719,23.918,43.764,11.533,49.365.774Z" transform="translate(30.584 12.413)" fill="#c5cfd6"/></g><g transform="translate(0 53.471)"><path d="M12.717,0c5.633,0,10.586,2.983,14,7.217,3.995,4.956,4.8,11.008,6.424,16.914a15.1,15.1,0,0,0,4.628,7.854c2.213,1.816,5.022,2.18,7.671,3.067A17.893,17.893,0,0,1,56.7,46.309c2.059,6.358-.122,12.77.254,19.213.345,5.917,6.185,9.609,10.883,12.446,4.633,2.8,8.807,5.416,10.2,10.865,1.48,5.779,1.976,12.231-.073,17.94-3.412,9.506-13.4,13.692-23.049,14.341-8.757.589-19.769-.336-26.345-6.687-3.935-3.8-5.361-9.115-5.184-14.4a43.808,43.808,0,0,1,1.6-9.724,43.835,43.835,0,0,0,1.635-6.822c.611-6.192-5.117-7.381-9.993-9.081A23.772,23.772,0,0,1,3.081,62.471C.272,57.177-.906,51.235.778,45.407a19.917,19.917,0,0,1,4.535-7.973c.931-1.011,2.244-1.854,3.084-2.916a3.931,3.931,0,0,0,.343-3.438C7.49,25.715,3.6,21.272,2.2,15.916.945,11.081,1.688,5.065,6.112,1.946A11.562,11.562,0,0,1,12.717,0Z" transform="translate(0)" fill="#c5cfd6"/><path d="M3.19.612c5.971,6.354,7.594,14.975,8.07,23.331.267,4.686-.011,9.628,1.367,14.173,1.179,3.89,3.943,6.864,6.792,9.674,5.735,5.657,12.131,11.409,13.808,19.6.984,4.8.32,9.768,1.68,14.52a39.924,39.924,0,0,0,6.062,12.211c2.132,2.937,4.91,5.186,7.241,7.924.711.836,1.73,2.066,1.436,3.246-.343,1.382-2.105,1.819-3.355,1.6-2.914-.506-5.368-3.286-7.273-5.307a45.717,45.717,0,0,1-7.079-9.7,40.757,40.757,0,0,1-4.592-12.605c-.763-4.609-.383-9.413-2.125-13.836C22.292,58,15.183,53.6,10.043,47.8c-6.4-7.229-5.449-16.225-4.793-25.117C5.61,17.8,5.969,12.281,3.5,7.82,2.554,6.117.45,4.529.045,2.593-.327.819,1.7-.973,3.19.612Z" transform="translate(17.203 13.368)" fill="#afb9c5"/></g><path d="M0,0C0,36.34,5.936,55.381,37.274,55.381S74.548,36.34,74.548,0Z" transform="translate(26.761 171.872)" fill="#89c5cc"/></g><g transform="translate(109.91 255.898)"><g transform="translate(21.586)"><rect width="36" height="8" rx="2" transform="translate(20.504 138.102)" fill="#afb9c5"/><path d="M14.8,71.614a14.8,14.8,0,1,1,0-29.6h7.181C28.137,22.083,28.88,0,28.88,0h4.363a160.013,160.013,0,0,0,6.9,42.013h6.226a14.8,14.8,0,1,1,0,29.6Z" transform="translate(8.042 67.794)" fill="#dde3e9"/><path d="M4.418,1.6S20.846,0,37.274,0,70.13,1.6,70.13,1.6l4.418,75.867s-18.637,1.783-37.274,1.783S0,77.469,0,77.469Z" fill="#c5cfd6"/></g><path d="M99.4,99.3v-78.3H20.07V99.3H0V0H119.467V99.3Z" transform="translate(0 146.091)" fill="#f2f2f2"/></g><g transform="translate(438.224 232.027)"><g transform="translate(11.549 0)"><path d="M.364.2C8.806,20.24,23.157,34.165,30.758,55c4.507,12.358,6.386,25.795,6.5,39.556.062,7.475-.068,14.954-.1,22.429-.034,7.289-.232,14.532-.852,21.775-.622,7.281-1.319,14.476-1.626,21.8-.239,5.708-.349,12.348-2.285,17.555-1.54,4.141-5.455,4.748-6.493-.275a40.11,40.11,0,0,1-.441-8.778c.082-3.681.3-7.357.405-11.037.439-14.769-.13-29.541.167-44.317.291-14.436,2.148-28.856.093-43.2-1.7-11.842-6.008-22.01-10.963-31.758C10.393,29.381,5.2,20.23,1.983,9.562A51.367,51.367,0,0,1,0,.029Q.225-.076.364.2Z" transform="translate(2.867)" fill="#c1dee2"/><path d="M.93.589C2.6,1.8,3.536,3.559,4.666,5.3c1.405,2.164,3.057,4.118,4.462,6.283,2.929,4.515,5.5,9.307,8.173,14.005A91.674,91.674,0,0,1,28.125,54.326C30.1,65.017,30.633,76.052,31.462,86.9c.879,11.5,1.764,23.084,1.881,34.629.052,5.172.332,10.663-.29,15.8-.387,3.2-1.831,5.922-5.087,5.9-6.916-.055-10.163-7.708-11.52-13.985a117.747,117.747,0,0,1-2.079-28.511c.382-11.4,2.362-22.623,3.219-33.976.908-12.019.395-23.825-3.741-35.141C11.756,25.9,9.33,20.314,7.153,14.633A54.864,54.864,0,0,0,4.214,7.478C2.821,4.972,1.091,2.7,0,0Z" transform="translate(0 39.149)" fill="#89c5cc"/><path d="M16.567.494,17.2,0a63.136,63.136,0,0,1-2.557,7.01,57.16,57.16,0,0,0-1.653,6.813c-1.2,5.424-2.585,10.726-3.717,16.2-2.242,10.825-1.818,22.487-.348,34.5,1.389,11.345,3.585,22.672,4.631,34.015a156.021,156.021,0,0,1,.413,28.081c-.562,6.1-2.405,13.373-7.427,12.757-2.364-.29-3.6-3.133-4.094-6.342-.8-5.155-.965-10.574-1.276-15.7C.48,105.888.342,94.483.2,83.16.075,72.477-.282,61.582.432,51.167A97.971,97.971,0,0,1,6.359,23.709c1.623-4.4,3.17-8.906,4.994-13.1.875-2.012,1.943-3.79,2.818-5.8C14.874,3.188,15.434,1.529,16.567.494Z" transform="translate(64.035 15.278)" fill="#c1dee2"/><path d="M.2.288c.915-1.534,2.928,3.525,3.234,4.161q-.194-.475-.391-.948a42.085,42.085,0,0,1,4.509,9.613c1.022,3.423,1.9,6.915,2.858,10.363,1.8,6.468,4.119,12.753,5.749,19.279a62.678,62.678,0,0,1,1.6,19.19,163.778,163.778,0,0,0-.178,20.612c.223,3.264,1.284,6.3,2.012,9.446s1.3,6.332,2.163,9.438c.2-.4.223.948.222,1.051a6.516,6.516,0,0,1-.364,2.162,5.825,5.825,0,0,1-3.671,4.021c-3.3.943-6.371-2.059-7.436-5.229a86.685,86.685,0,0,1-3.1-14.356,67.618,67.618,0,0,1-.627-13.238c.391-8.764,1.978-17.414,2.408-26.176.467-9.539-1.424-18.5-3.008-27.787A81.078,81.078,0,0,0,3.208,8.721,36.994,36.994,0,0,0,1,3.878C.534,2.971-.412,1.354.2.288Z" transform="translate(2.867 72.568)" fill="#c1dee2"/><path d="M9.8,34.085C9.419,45.013,8.766,55.858,7.308,66.671,5.819,77.705,4.11,88.7,2.678,99.746,1.284,110.5-.177,121.426.018,132.327c.143,8.029-1.189,21.612,7.737,25.575,9.04,4.013,10.979-13.125,11.573-18.782,1.138-10.853.769-21.82.217-32.733-.567-11.2-1.513-22.342-2.685-33.5-1.3-12.395-2.324-24.845-3.144-37.275-.406-6.148-.506-12.286-.394-18.436.106-5.8-.115-11.666-2.18-17.176l-.324.235" transform="translate(20.071 23.871)" fill="#69a1ac"/><path d="M11.548,5.686C9.922,8.052,8.283,10.4,6.748,12.9,4,17.386,1.517,22.374.769,28.786-.795,42.2.46,56.7.763,70.527c.062,2.826-.3,5.567.819,8.256,1.011,2.439,2.9,4.3,4.7,4.288,3.857-.022,3.268-9.457,3.275-13.61.012-7.279-.805-14.632-.735-21.9a151.939,151.939,0,0,1,1.554-21.272A122.462,122.462,0,0,1,15.033,6.5c.284-.861,2.321-7.517.4-6.37" transform="translate(64.99 86.891)" fill="#89c5cc"/><path d="M13.631,0c-2.536,0-2.52,12.629-2.6,14.251-.275,5.854-.211,11.709-.385,17.564-.381,12.777-.85,25.666-2.771,38.3-1.034,6.8-2.233,13.568-3.523,20.315C3.062,97.192,1.326,103.951.475,110.8c-.817,6.587-.355,13.3-.243,19.925a174.263,174.263,0,0,0,1.187,19.935c.215,1.63.468,3.253.739,4.873a38.594,38.594,0,0,0,.475,4.306c.611,2.054,3.23,2.727,4.993,2.406,4.772-.87,7.819-6.856,9.449-11.229,2.082-5.584,3.186-11.642,4.276-17.527a153.049,153.049,0,0,0,2.3-20.224c.69-13.8-.2-27.606-1.185-41.357-.55-7.648-1.186-15.262-2.158-22.862-.968-7.568-2.211-15.1-3.02-22.692-.588-5.516-1.167-11.039-1.548-16.576C15.647,8.459,15.57,0,13.631,0" transform="translate(45.876 21.007)" fill="#69a1ac"/><path d="M25.748,112.8c-.413-13.259-5.748-71.5-6.962-87.532-.3-4.013-3.226-20.723-3.6-25.272-1.028,1.286-.94,21.3-.929,25.9.012,4.549-.553,9.024-.843,13.549-.3,4.617-7.128,64.247-8.015,68.684C3.631,116.96,2.45,126.017,1.54,135.041c-.887,8.8-2.266,18.076-1.079,26.918a27.007,27.007,0,0,0,1.407,5.908c.759,2.02,1.28,3.889,1.89,6,.981,3.406,2.756,6.394,5.482,7.8,5.59,2.883,8.592-3.643,10.114-9.324a151.9,151.9,0,0,0,4.722-27.822c.809-10.542,2-21.105,1.673-31.72" transform="translate(30.584 0)" fill="#89c5cc"/></g><g transform="translate(0 151.635)"><rect width="86" height="86" rx="2" transform="translate(9.776 0.337)" fill="#fff"/><rect width="10" height="107" rx="2" transform="translate(-0.224 10.337)" fill="#c5cfd6"/><rect width="9" height="107" rx="2" transform="translate(47.776 10.337)" fill="#c5cfd6"/><rect width="10" height="107" rx="2" transform="translate(95.776 10.337)" fill="#c5cfd6"/></g></g></g><g transform="translate(404.287 279.253)"><g transform="translate(-23 193.968)"><path d="M0,0,42.02,106.354,70.2,196.267H81.332L38.246,0Z" transform="translate(99.981)" fill="#997659"/><path d="M80,0c-.447,37.373-6.973,87.691-8.016,90.02S0,149.272,0,149.272l7.665,8.2s83.7-48.8,87.574-55.313S111.723,35.754,121.847,0Z" transform="translate(11.523)" fill="#b28b67"/><g transform="translate(13.555 142.093) rotate(50)"><path d="M3.83,4.025a1.712,1.712,0,0,0-2.2,1.154L0,10.936a55,55,0,0,0,.772,6.759H49.058s1.882-6.223-2.173-6.719-6.738-.9-6.738-.9L17.7.074a.856.856,0,0,0-1.14.456l-1.443,3.5s-3.754,1.752-6.1,1.752Z" transform="translate(0)" fill="#e4e4e4"/></g><g transform="translate(164.19 186.919)"><path d="M3.83,4.357a1.712,1.712,0,0,0-2.2,1.154L0,11.268a55,55,0,0,0,.772,6.759H49.058s1.882-6.223-2.173-6.719-6.738-.9-6.738-.9L17.7.406a.856.856,0,0,0-1.14.456l-1.443,3.5s-3.754,1.752-6.1,1.752Z" transform="translate(0 -0.332)" fill="#e4e4e4"/></g><path d="M33.694,187.006l52.912-5.743L47.392,0H0Z" transform="translate(94.539 0)" fill="#69a1ac"/><path d="M0,136.038,34.707,177.12s54.835-59.889,63.937-78.156S115.011,0,115.011,0H61.656s-3.967,70.995-5.349,74.3S0,136.038,0,136.038Z" transform="translate(22.467)" fill="#89c5cc"/></g><g transform="translate(-23.042 -17)"><g transform="translate(106.14 32.747)"><path d="M0,63,7.082,29.765C3.133,25.1.459,19.377.906,12.967,2.193-5.5,27.728-1.439,32.694,7.883s4.377,32.966-2.042,34.632c-2.56.664-8.014-.963-13.564-4.332L20.572,63Z" transform="translate(0 0)" fill="#b28b67"/></g><path d="M127.712,30.039c-2.739-.449-10.116-.758-11.476-.758-.869,0-1.811.2-2.326-.6-.422-.654-.267-1.759-.393-2.518-.146-.881-.354-1.751-.564-2.618a26.624,26.624,0,0,0-2.764-7.023A21.585,21.585,0,0,0,99.957,7.26,32.855,32.855,0,0,0,84.424,5.123C78.848,5.575,73.8,7.416,68.538,9.148a33.293,33.293,0,0,1-15.516,1.494c-5.286-.812-9.28-3.677-13.738-6.4C34.719,1.462,29.5-.359,24.107.06A29.227,29.227,0,0,0,10.263,5.308c-3.9,2.6-7.112,5.727-8.927,10.128C-.617,20.171-.615,25.368,2.6,29.553c4.655,6.065,13.3,7.634,20.485,7.478A39.139,39.139,0,0,0,35.25,34.8c5.236-1.842,9.76-4.963,14.659-7.5a38.145,38.145,0,0,1,7.165-2.868c2.417-.683,4.8-1,6.985.464A32.989,32.989,0,0,0,71.1,28.931a22.7,22.7,0,0,0,7.938,1.425c5.266-.041,10.457-1.682,15.572-2.781,4.171-.9,8.634-1.789,12.886-.928,1.774.36,4.366,1.1,5.007,2.946-10.786,1.955-15.023,15.294-11.982,25.087,1.641,5.285,11.506,11.464,15.342,8.685,2.43-1.76.955-4.071,0-5.6-1.828-2.922-2.454-6.674.929-8.708,2.918-1.754,5.987,2.412,6.045,2.407.8-.063,7.733-3.983,12.508-9.7,4.711.279,5.425-2.827,4.3-5.367S131.5,30.66,127.712,30.039Z" transform="translate(0 0)" fill="#191847"/></g><g transform="translate(-23.287 68.747)"><path d="M1.227,86.783c-1.116-.688-2.338-3.28.615-5.3C9.2,76.433,19.8,67.6,21.236,64.7,24.166,58.752,34.145.808,34.145.808l20.9.083s-19.354,62.48-20.9,66.3c-2.314,5.735,2.583,14.468,4.676,19.162-3.3,1.477-4.834-.409-6.512-2.294-1.789-2.01-3.745-4.019-8.184-1.954-5.68,2.643-10.377,6.838-15.975,6.837A12.989,12.989,0,0,1,1.227,86.783ZM181.155,30.53l-31.587-13.1L156.618,0l31.9,23.423A85.839,85.839,0,0,1,210.2,32.137c1.372,1.249,3.029,3.779-2.658,3.343s-11.687-.642-12.472,1.3,2.657,4.259,1.07,6.876a.754.754,0,0,1-.692.373Q192.645,44.027,181.155,30.53Z" transform="translate(34.163 92.211)" fill="#b28b67"/><path d="M0,2.231,8.485,0c34.377,24.814,52.145,76.707,93.78,101.378l-8.407,12.513C25.158,111.423,2.652,48.2,0,2.231Z" transform="matrix(0.996, 0.087, -0.087, 0.996, 127.889, 3.109)" fill="#e87613"/><path d="M0,114H76.511c3.5,0,2.837-5.048,2.332-7.6C73.011,77,50.241,45.312,50.241,3.461L28.172,0C9.917,29.358,3.6,65.5,0,114Z" transform="translate(90)" fill="#dde3e9"/><path d="M.133,159.513c-1.765-57.079,19.846-101,37.932-127.487a11.605,11.605,0,0,1-9.932-6.1C20.067,11.37,22.98,3.356,31.6.722S47.909,3.514,61.644,3.514a10.705,10.705,0,0,1,1.638.117l7.324.418s29.733,100.77,16.4,134.465H26.53a191.9,191.9,0,0,1-9.988,21Z" transform="translate(54.867 -3.513)" fill="#ff9b21"/><path d="M22.348,34.5H-.255C3.89,24.547,8.463,12.251,13.336-2.044,15.365,15.573,18.4,27.868,22.347,34.5Z" transform="translate(81.652 100.498)" fill="rgba(0,0,0,0.1)"/></g></g></g></svg>