<svg xmlns="http://www.w3.org/2000/svg" width="50.028" height="50.013" viewBox="0 0 50.028 50.013"><defs><style>.a{fill:#10a9f5;}</style></defs><g transform="translate(-6.987 -7)"><path class="a" d="M24,57a1,1,0,0,1-1-.84l-1-6.08a6.29,6.29,0,0,0-.52-1.64,6.085,6.085,0,0,0-10.96,0A6.64,6.64,0,0,0,10,50.09L9,56.16a1.013,1.013,0,0,1-2-.32l1-6.08a8.58,8.58,0,0,1,.7-2.2,8.107,8.107,0,0,1,14.58,0A8.24,8.24,0,0,1,24,49.75l1,6.09A1,1,0,0,1,24.16,57Z"/><path class="a" d="M16,45a6,6,0,0,1-6-6V37a6,6,0,0,1,12,0v2A6,6,0,0,1,16,45Zm0-12a4,4,0,0,0-4,4v2a4,4,0,0,0,8,0V37A4,4,0,0,0,16,33Z"/><path class="a" d="M16,50a1,1,0,0,1-.89-.55l-1-2A1,1,0,0,1,15,46h2a1,1,0,0,1,.89,1.45l-1,2A1,1,0,0,1,16,50Z"/><path class="a" d="M16,57a1,1,0,0,1-1-1V49a1,1,0,0,1,2,0v7A1,1,0,0,1,16,57Z"/><path class="a" d="M56,57a1,1,0,0,1-1-.84l-1-6.08a6.29,6.29,0,0,0-.52-1.64,6.085,6.085,0,0,0-10.96,0A6.64,6.64,0,0,0,42,50.09l-1,6.07a1.013,1.013,0,1,1-2-.32l1-6.08a8.58,8.58,0,0,1,.7-2.2,8.107,8.107,0,0,1,14.58,0A8.24,8.24,0,0,1,56,49.75l1,6.09A1,1,0,0,1,56.16,57Z"/><path class="a" d="M48,45a6,6,0,0,1-6-6V37a6,6,0,0,1,12,0v2A6,6,0,0,1,48,45Zm0-12a4,4,0,0,0-4,4v2a4,4,0,0,0,8,0V37A4,4,0,0,0,48,33Z"/><path class="a" d="M48,50a1,1,0,0,1-.89-.55l-1-2A1,1,0,0,1,47,46h2a1,1,0,0,1,.89,1.45l-1,2A1,1,0,0,1,48,50Z"/><path class="a" d="M48,57a1,1,0,0,1-1-1V49a1,1,0,0,1,2,0v7A1,1,0,0,1,48,57Z"/><path class="a" d="M39.77,34.64a1,1,0,0,1-1-.84L38,29.08a6.29,6.29,0,0,0-.52-1.64,6.085,6.085,0,0,0-10.96,0A6.64,6.64,0,0,0,26,29.09l-.77,4.71a1.013,1.013,0,1,1-2-.32L24,28.76a8.58,8.58,0,0,1,.7-2.2,8.107,8.107,0,0,1,14.58,0A8.24,8.24,0,0,1,40,28.75l.79,4.73a1,1,0,0,1-.83,1.15Z"/><path class="a" d="M32,24a6,6,0,0,1-6-6V16a6,6,0,0,1,12,0v2A6,6,0,0,1,32,24Zm0-12a4,4,0,0,0-4,4v2a4,4,0,0,0,8,0V16A4,4,0,0,0,32,12Z"/><path class="a" d="M32,29a1,1,0,0,1-.89-.55l-1-2A1,1,0,0,1,31,25h2a1,1,0,0,1,.89,1.45l-1,2A1,1,0,0,1,32,29Z"/><path class="a" d="M32,36a1,1,0,0,1-1-1V28a1,1,0,0,1,2,0v7A1,1,0,0,1,32,36Z"/><path class="a" d="M32,37A15,15,0,1,1,47,22,15,15,0,0,1,32,37ZM32,9A13,13,0,1,0,45,22,13,13,0,0,0,32,9Z"/><path class="a" d="M32,57a4,4,0,0,1-4-4V42a3,3,0,0,1,3-3h2a3,3,0,0,1,3,3V53A4,4,0,0,1,32,57ZM31,41a1,1,0,0,0-1,1V53a2,2,0,0,0,4,0V42a1,1,0,0,0-1-1Z"/><rect class="a" width="4" height="6" rx="1" transform="translate(30 35)"/></g></svg>