<svg xmlns="http://www.w3.org/2000/svg" width="237.252" height="45.892" viewBox="0 0 237.252 45.892"><g transform="translate(-401 2957)"><g transform="translate(316 -2993.486)"><g transform="translate(-488 -45)"><g transform="translate(477.252 -25)"><rect width="45.017" height="45.892" rx="13" transform="translate(95.748 106.486)" fill="#009dfe"/><path d="M0,0H16.274V16.274H0Z" transform="translate(118.27 112.182) rotate(45)" fill="#fff" opacity="0.76"/><rect width="16.274" height="16.274" transform="translate(118.27 123.651) rotate(45)" fill="#f3f5ff" opacity="0.62"/><path d="M773.254,214.5H784.76l11.474,11.474H784.76Z" transform="translate(-666.492 -90.811)" fill="#fff" opacity="0.62"/></g></g></g><path d="M14.337-12.636c-.135-3.429-2.673-5.886-7.209-5.886-4.374,0-6.561,2.295-6.561,5.508a4.458,4.458,0,0,0,3,4.428A25.692,25.692,0,0,0,8.478-7.209c2.241.486,2.781,1.215,2.781,2.268C11.259-3.348,9.99-2.4,7.776-2.4c-2.4,0-3.942-1.134-4-2.97H.162C.243-1.35,3.321.621,7.749.621c4.185,0,7.155-1.755,7.155-5.7A4.264,4.264,0,0,0,12.1-9.423a33.749,33.749,0,0,0-5.319-1.566C4.779-11.475,4-12.123,4-13.257c0-1.35,1.107-2.106,3.213-2.106,2.268,0,3.375.891,3.564,2.727ZM19.494,0V-13.284h-3.51V0Zm0-14.877v-3.267h-3.51v3.267ZM40.1,0V-9.207a4.357,4.357,0,0,0-4.536-4.428,3.653,3.653,0,0,0-3.591,2.106,3.824,3.824,0,0,0-3.7-2.106,3.847,3.847,0,0,0-3.888,2.3v-1.944H21.087V0H24.6V-8.073c0-1.728.729-2.592,2.133-2.592,1.539,0,2.106.54,2.106,2.673V0h3.51V-7.938c0-1.62.945-2.835,2.241-2.835,1.242,0,2.079,1.134,2.079,2.727V0Zm7.614-2.646c-1.944,0-2.943-1.431-2.943-4.32,0-2.241,1.3-3.807,2.97-3.807,1.755,0,3,1.647,3,4.023C50.733-4.023,49.761-2.646,47.709-2.646ZM44.9,6.291V-1.728A4.576,4.576,0,0,0,48.843.351c3.429,0,5.454-2.835,5.454-6.858,0-4.482-2.4-7.128-5.751-7.128a4.047,4.047,0,0,0-3.7,1.971l-.027-1.62H41.445V6.291ZM59.076,0V-18.144h-3.51V0Zm5.076,0V-13.284h-3.51V0Zm0-14.877v-3.267h-3.51v3.267ZM70.578,0V-10.8h2.268v-2.484H70.578c0-1.539.4-2.025,2.187-2.025v-2.835c-3.78,0-5.643,1.62-5.643,4.86H65.151V-10.8h1.971V0ZM82.161.405a2.612,2.612,0,0,1-2.43,2.862c-1.836,0-2.754-.972-2.754-2.538H73.71c0,3.429,1.971,5.562,5.859,5.562,3.4,0,6.1-2.187,6.1-5.94V-13.284h-3.51v8.1a2.5,2.5,0,0,1-2.7,2.484c-1.485,0-2.241-.837-2.241-2.484v-8.1H73.71v8.613A4.62,4.62,0,0,0,78.57.135a3.724,3.724,0,0,0,3.591-1.89ZM99.225-6.156c-.513,2.241-1.863,3.51-4.077,3.51-2.916,0-4.374-2.349-4.374-6.318,0-3.915,1.458-6.318,4.563-6.318a4.043,4.043,0,0,1,3.888,3.24h3.753c-.351-3.618-3.186-6.48-7.668-6.48-5.13,0-8.343,3.7-8.343,9.774,0,6.156,3.591,9.369,8.289,9.369,4.158,0,6.966-2.7,7.722-6.777Zm12.636,1.107a3.054,3.054,0,0,1-3.186,2.889c-1.107,0-1.7-.486-1.7-1.485,0-1.134.648-1.7,2.646-2.079a4.427,4.427,0,0,0,2.268-.783ZM115.4,0V-8.4c0-3.348-1.458-5.238-5.67-5.238-4.266,0-5.778,1.917-5.832,4.671h3.267a2.1,2.1,0,0,1,2.4-1.971c1.377,0,2.241.513,2.241,1.377,0,.918-.486,1.269-2.241,1.512-3.537.486-6.1.918-6.1,4.752,0,2.16,1.4,3.645,4.428,3.645a5.355,5.355,0,0,0,4.023-1.539A5.17,5.17,0,0,0,112.131,0Zm5.049,0V-6.912c0-2.133,1.053-3.213,3.213-3.213a5.9,5.9,0,0,1,.972.081v-3.591h-.459a4.044,4.044,0,0,0-3.942,1.944v-1.593h-3.294V0Zm7.668-7.938a2.811,2.811,0,0,1,2.7-2.916,2.715,2.715,0,0,1,2.727,2.916Zm9.045,2.214c0-5.265-2.16-7.911-6.237-7.911s-6.426,2.646-6.426,6.75c0,4.806,2.214,7.236,6.642,7.236a5.761,5.761,0,0,0,5.832-4.266h-3.618a2.318,2.318,0,0,1-2.376,1.485c-1.728,0-2.862-1.3-2.97-3.294ZM141.7-7.938a2.811,2.811,0,0,1,2.7-2.916,2.715,2.715,0,0,1,2.727,2.916Zm9.045,2.214c0-5.265-2.16-7.911-6.237-7.911s-6.426,2.646-6.426,6.75c0,4.806,2.214,7.236,6.642,7.236a5.761,5.761,0,0,0,5.832-4.266h-3.618a2.318,2.318,0,0,1-2.376,1.485c-1.728,0-2.862-1.3-2.97-3.294ZM155.466,0V-6.912c0-2.133,1.053-3.213,3.213-3.213a5.9,5.9,0,0,1,.972.081v-3.591h-.459a4.044,4.044,0,0,0-3.942,1.944v-1.593h-3.294V0Zm16.011-9.261c-.189-2.862-1.917-4.374-5.751-4.374-4.05,0-5.589,1.7-5.589,3.942a3.3,3.3,0,0,0,1.674,3,15.042,15.042,0,0,0,4.428,1.512c1.134.27,2.133.567,2.133,1.512,0,1-1.107,1.377-2.349,1.377-1.7,0-2.754-.729-2.754-1.971h-3.618c.054,2.7,2.322,4.617,6.4,4.617,3.78,0,5.805-1.647,5.805-4.4a3.114,3.114,0,0,0-2.187-3.213c-1.026-.405-2.457-.7-3.969-1.134-1.431-.405-2.16-.729-2.16-1.512s.756-1.107,2.079-1.107c1.593,0,2.295.459,2.484,1.755Z" transform="translate(456 -2924)"/><path d="M10.707-10.254A3.418,3.418,0,0,1,13.2-9.3a3.36,3.36,0,0,1,.977,2.515A3.459,3.459,0,0,1,13.2-4.239a3.362,3.362,0,0,1-2.494.985A3.425,3.425,0,0,1,8.14-4.239a3.487,3.487,0,0,1-.962-2.544A3.387,3.387,0,0,1,8.14-9.3,3.482,3.482,0,0,1,10.707-10.254Z" transform="translate(624.072 -2921.224)" fill="#009dfe"/></g></svg>