<svg xmlns="http://www.w3.org/2000/svg" width="28.846" height="28.846" viewBox="0 0 28.846 28.846">
  <g id="ic-icon4" transform="translate(6 46)">
    <g id="Group_2630" data-name="Group 2630" transform="translate(-6 -46)">
      <path id="Path_15206" data-name="Path 15206" d="M14.423,0A14.423,14.423,0,1,0,28.846,14.423,14.423,14.423,0,0,0,14.423,0Zm0,27.566A13.144,13.144,0,1,1,27.566,14.423,13.143,13.143,0,0,1,14.423,27.566Z"/>
      <path id="Path_15207" data-name="Path 15207" d="M41.066,30.552c-1.558-.562-2.193-.96-2.193-1.54,0-.507.38-1.033,1.558-1.033a5.636,5.636,0,0,1,2.609.634l.543-2.047a6.554,6.554,0,0,0-2.645-.6V24.374H39.164V26.1c-1.939.362-3.062,1.612-3.062,3.225,0,1.758,1.323,2.663,3.261,3.316,1.359.453,1.939.888,1.939,1.576,0,.706-.707,1.123-1.758,1.123a6.4,6.4,0,0,1-3.007-.8l-.544,2.12a7.571,7.571,0,0,0,3.08.779v1.721h1.794V37.292a3.426,3.426,0,0,0,3.207-3.334C44.074,32.31,43.222,31.313,41.066,30.552Z" transform="translate(-25.611 -17.343)"/>
    </g>
  </g>
</svg>
