<svg xmlns="http://www.w3.org/2000/svg" width="20" height="26" viewBox="0 0 20 26">
  <g id="ic-icon1" transform="translate(-5 -2)">
    <g id="Group_2610" data-name="Group 2610">
      <path id="Path_15193" data-name="Path 15193" d="M15,2A10.029,10.029,0,0,0,5,12v7a.945.945,0,0,0,1,1H8a.945.945,0,0,0,1-1V14.6a.961.961,0,0,0-.6-.9L7,13V12a8,8,0,0,1,16,0v1l-1.4.7a1.149,1.149,0,0,0-.6.9V19a.945.945,0,0,0,1,1h2a.945.945,0,0,0,1-1V12A10.029,10.029,0,0,0,15,2Z"/>
      <path id="Path_15194" data-name="Path 15194" d="M19,25H16.7A1.936,1.936,0,0,0,15,24a2,2,0,1,0,0,4,1.936,1.936,0,0,0,1.7-1H19a4.951,4.951,0,0,0,5-5H22A2.946,2.946,0,0,1,19,25Z"/>
    </g>
  </g>
</svg>
