<svg xmlns="http://www.w3.org/2000/svg" width="26.748" height="26" viewBox="0 0 26.748 26">
  <g id="ic-icon2" transform="translate(-3 -3.004)">
    <path id="Path_15195" data-name="Path 15195" d="M28.262,13.4H26.771a10.4,10.4,0,1,0-20.794,0H4.486A1.4,1.4,0,0,0,3,14.788v3.071a1.486,1.486,0,0,0,1.486,1.486H5.972a1.486,1.486,0,0,0,1.486-1.486V13.711A9.125,9.125,0,0,1,15.2,4.56,8.927,8.927,0,0,1,25.29,13.4v4.458a8.923,8.923,0,0,1-7.718,8.826,1.459,1.459,0,0,0-1.2-.653A1.486,1.486,0,1,0,17.7,28.168a10.393,10.393,0,0,0,8.963-8.823h1.6a1.486,1.486,0,0,0,1.486-1.486V14.788A1.4,1.4,0,0,0,28.262,13.4Z" transform="translate(0 0)"/>
    <path id="Path_15196" data-name="Path 15196" d="M16.168,13H10.255a.749.749,0,0,0-.6,1.195,4.448,4.448,0,0,0,7.114,0,.749.749,0,0,0-.6-1.195Z" transform="translate(3.163 4.859)"/>
    <circle id="Ellipse_98" data-name="Ellipse 98" cx="1.5" cy="1.5" r="1.5" transform="translate(10 12.004)"/>
    <circle id="Ellipse_99" data-name="Ellipse 99" cx="1.5" cy="1.5" r="1.5" transform="translate(19 12.004)"/>
  </g>
</svg>
