<svg xmlns="http://www.w3.org/2000/svg" width="40.955" height="30.207" viewBox="0 0 40.955 30.207">
  <g id="ic-icon3" transform="translate(-2.099 -169.596)">
    <g id="Group_2629" data-name="Group 2629" transform="translate(2.099 169.597)">
      <g id="Group_2612" data-name="Group 2612" transform="translate(5.974 1.415)">
        <g id="Group_2611" data-name="Group 2611">
          <path id="Path_15197" data-name="Path 15197" d="M194.99,208.279c0,.141,0,.282-.013.419,0,.071-.009.141-.018.216l-.013.106c0,.018-.022.172-.009.075a1.491,1.491,0,0,0-.026.159c-.013.075-.026.145-.04.22-.031.159-.066.317-.106.472a9.02,9.02,0,0,1-.273.891c-.053.15-.11.3-.172.441-.049.119-.013.031,0,.009-.018.035-.031.075-.049.11-.04.093-.084.181-.123.273a9.963,9.963,0,0,1-1,1.649c-.062.084.062-.075,0,0-.022.031-.048.062-.075.093-.048.062-.1.119-.15.176-.106.123-.216.242-.331.362a6.645,6.645,0,0,1-.666.6c.11-.088-.053.035-.084.062l-.176.123c-.128.084-.256.159-.388.234-.062.035-.123.066-.185.1-.022.013-.212.093-.137.062s-.115.044-.137.053c-.071.026-.145.048-.22.071-.132.04-.265.071-.4.1-.048.009-.247.026-.075.013-.075,0-.154.013-.229.018-.128,0-.26,0-.388,0-.066,0-.137-.013-.2-.018.176.009-.075-.013-.128-.022-.132-.026-.265-.062-.4-.1-.057-.018-.115-.035-.172-.057-.04-.013-.247-.1-.106-.04a5.136,5.136,0,0,1-.763-.419c-.062-.04-.119-.079-.176-.123-.031-.022-.057-.044-.088-.066-.079-.057.079.066,0,0a4.71,4.71,0,0,1-.357-.309,7.857,7.857,0,0,1-.648-.679c-.048-.057-.1-.119-.15-.181-.018-.022-.035-.044-.053-.071.075.093.009.013,0,0-.106-.141-.207-.287-.309-.432q-.265-.4-.489-.82c-.075-.141-.145-.282-.216-.428-.035-.071-.066-.145-.1-.216-.018-.035-.031-.075-.049-.11.04.088,0,.013-.013-.035a9.407,9.407,0,0,1-.322-.917,9.255,9.255,0,0,1-.22-.917c-.013-.066-.022-.128-.035-.194-.009-.044-.035-.247-.018-.1-.018-.159-.035-.322-.044-.485a4.827,4.827,0,0,1,.181-1.777c.044-.15.088-.3.145-.45.022-.066.048-.128.075-.194-.044.115-.009.018,0,0,.022-.053.048-.106.075-.159a5.823,5.823,0,0,1,.463-.8c.044-.062.088-.128.137-.19.075-.1.018-.022,0,0,.022-.031.048-.062.071-.088.11-.132.225-.265.348-.388.1-.1.207-.2.313-.3.057-.053.115-.1.176-.15.013-.013.11-.088.044-.04s.057-.044.071-.053a5.309,5.309,0,0,1,.816-.5c.071-.035.141-.071.212-.1.035-.018.071-.031.106-.048.093-.04-.093.035,0,0,.154-.057.313-.119.472-.168s.3-.088.459-.119l.207-.04c.035,0,.291-.044.154-.026a6.483,6.483,0,0,1,1.014-.04c.084,0,.163.009.247.018l.123.013c.018,0,.145.018.062.009s.044.009.062.009a1.127,1.127,0,0,1,.119.022l.265.053c.154.035.309.075.459.123.075.022.15.048.225.075l.11.04c.013,0,.163.066.084.031s.04.018.057.026c.035.018.071.031.106.048.062.031.123.057.185.088.154.079.309.168.454.26s.256.172.384.26c.009,0,.084.062.026.018s.031.026.044.04c.066.057.132.11.2.168a6.056,6.056,0,0,1,.657.688c.013.013.088.11.04.044s.026.035.035.049c.044.062.088.123.132.19.093.137.181.278.26.419s.145.273.212.414c.018.035.1.229.049.11.031.084.066.163.093.247a5.89,5.89,0,0,1,.251.948c.009.04.035.256.022.123.009.071.018.141.022.212.013.181.022.357.022.529a.661.661,0,1,0,1.323,0,6.709,6.709,0,0,0-1.49-4.171,6.547,6.547,0,0,0-3.6-2.253,6.713,6.713,0,0,0-4.44.516,6.552,6.552,0,0,0-2.972,2.972,6.98,6.98,0,0,0-.56,4.321,10.238,10.238,0,0,0,1.6,3.919,7.336,7.336,0,0,0,3.038,2.725,4.581,4.581,0,0,0,3.95-.132,7.782,7.782,0,0,0,2.963-2.919,10.249,10.249,0,0,0,1.446-3.981,7.51,7.51,0,0,0,.075-.992.664.664,0,0,0-1.327,0Z" transform="translate(-183.131 -201.688)"/>
        </g>
      </g>
      <g id="Group_2614" data-name="Group 2614" transform="translate(0 17.145)">
        <g id="Group_2613" data-name="Group 2613">
          <path id="Path_15198" data-name="Path 15198" d="M71.418,565.242v5.63l.661-.661H51.208c-.957,0-1.931-.049-2.888,0h-.04l.661.661v-5.083c0-.225,0-.445,0-.67,0-.185.018-.37.035-.551.013-.132,0-.031,0,0,.009-.062.018-.119.026-.181.018-.1.035-.2.057-.3a4.932,4.932,0,0,1,.141-.516c.031-.093.062-.185.1-.278a1.149,1.149,0,0,1,.044-.11c.031-.071.031-.071,0,0,.013-.026.022-.053.035-.079a6.587,6.587,0,0,1,.556-.988L50,562.02s.11-.15.053-.071.057-.075.057-.07c.026-.031.048-.062.075-.088.123-.146.256-.287.392-.423s.269-.251.41-.366a1.131,1.131,0,0,1,.115-.088c-.022.018-.1.07,0,0s.172-.123.26-.181c.154-.1.313-.194.476-.282l.234-.119c.044-.022.088-.04.132-.062.026-.013.185-.075.057-.026a6.279,6.279,0,0,1,1.226-.353l.15-.026c.145-.022-.1.009.066-.009.1-.009.2-.022.3-.026.137-.009.273-.009.414-.013h1.384c-.154-.066-.313-.128-.467-.194q1.924,2.282,3.853,4.559c.181.216.362.428.542.644a.665.665,0,0,0,.935,0q1.911-2.275,3.818-4.554l.542-.648c-.154.066-.313.128-.467.194h1.3c.269,0,.533.013.8.035.194.018-.084-.013.035,0,.048.009.1.013.15.022.1.018.2.035.3.057.194.044.384.1.573.159.093.031.185.062.278.1l.11.044c-.137-.053.044.018.057.026a5.762,5.762,0,0,1,.52.265c.159.093.313.19.467.3.031.022.229.168.123.084.093.071.181.146.269.22a5.947,5.947,0,0,1,.794.838c-.075-.1-.013-.013,0,0l.1.141c.048.071.1.146.145.216a5.721,5.721,0,0,1,.3.534c.049.1.093.194.137.291s-.053-.146.013.031c.022.053.044.11.062.163a6.031,6.031,0,0,1,.19.626c.026.115.053.234.075.353.009.04.013.079.022.119s.022.185.009.066c.009.242.022.489.026.736a.661.661,0,0,0,1.323,0,6.8,6.8,0,0,0-2.147-4.938,6.877,6.877,0,0,0-4.713-1.816h-.846c-.317,0-.7-.053-.943.194-.15.15-.278.331-.414.494-.745.886-1.486,1.772-2.231,2.659L59.73,563.88h.935q-1.243-1.468-2.482-2.936l-1.508-1.786c-.123-.145-.242-.3-.37-.441a1.062,1.062,0,0,0-.877-.234,10.263,10.263,0,0,0-2.958.273,6.72,6.72,0,0,0-3.218,2.09,6.907,6.907,0,0,0-1.583,3.659,14.853,14.853,0,0,0-.044,1.715v4.651a.672.672,0,0,0,.661.661H69.156c.961,0,1.927.026,2.888,0h.04a.672.672,0,0,0,.661-.661v-5.63a.664.664,0,0,0-1.327,0Z" transform="translate(-47.62 -558.483)"/>
        </g>
      </g>
      <g id="Group_2616" data-name="Group 2616" transform="translate(20.676 0.961)">
        <g id="Group_2615" data-name="Group 2615">
          <path id="Path_15199" data-name="Path 15199" d="M532.675,201.52q-3.082.655-6.168,1.305l-5,1.058c-1.036.22-2.077.441-3.113.657l.745.3c-.436-.758-.877-1.517-1.314-2.279-.035.269-.071.533-.1.8l3.3-3.668,5.251-5.846c.4-.445.8-.891,1.2-1.336l-1.041-.132q.985,1.713,1.975,3.421,1.567,2.718,3.139,5.432c.242.419.481.833.723,1.252a.661.661,0,1,0,1.142-.666q-.985-1.713-1.975-3.421-1.567-2.718-3.139-5.432c-.242-.419-.481-.833-.723-1.252a.667.667,0,0,0-1.04-.132l-3.3,3.668-5.251,5.846c-.4.445-.8.891-1.2,1.336a.68.68,0,0,0-.1.8c.436.758.877,1.517,1.314,2.279a.679.679,0,0,0,.745.3q2.83-.6,5.661-1.2l5.56-1.177,3.055-.648a.663.663,0,0,0-.348-1.279Z" transform="translate(-516.601 -191.393)"/>
        </g>
      </g>
      <g id="Group_2618" data-name="Group 2618" transform="translate(20.23 11.032)">
        <g id="Group_2617" data-name="Group 2617">
          <path id="Path_15200" data-name="Path 15200" d="M509.915,423.987q-.972-1.68-1.944-3.364l-.278-.476a.661.661,0,1,0-1.142.666q.972,1.68,1.944,3.364l.278.476a.661.661,0,1,0,1.142-.666Z" transform="translate(-506.466 -419.822)"/>
        </g>
      </g>
      <g id="Group_2620" data-name="Group 2620" transform="translate(29.982 0.182)">
        <g id="Group_2619" data-name="Group 2619">
          <path id="Path_15201" data-name="Path 15201" d="M727.751,174.713l2.275,3.941q1.812,3.141,3.628,6.287c.278.481.555.966.833,1.446a.661.661,0,1,0,1.142-.666l-2.275-3.941q-1.812-3.141-3.628-6.287c-.278-.481-.555-.966-.833-1.446a.661.661,0,1,0-1.142.666Z" transform="translate(-727.666 -173.722)"/>
        </g>
      </g>
      <g id="Group_2622" data-name="Group 2622" transform="translate(35.773 3.292)">
        <g id="Group_2621" data-name="Group 2621">
          <path id="Path_15202" data-name="Path 15202" d="M860.013,246.82c.767-.441,1.53-.882,2.3-1.327a.661.661,0,0,0-.666-1.142c-.767.441-1.53.882-2.3,1.327a.661.661,0,0,0,.666,1.142Z" transform="translate(-859.022 -244.266)"/>
        </g>
      </g>
      <g id="Group_2624" data-name="Group 2624" transform="translate(34 0)">
        <g id="Group_2623" data-name="Group 2623">
          <path id="Path_15203" data-name="Path 15203" d="M820.042,172.784c.494-.732.992-1.464,1.486-2.2a.668.668,0,0,0-.238-.9.675.675,0,0,0-.9.238c-.494.732-.992,1.464-1.486,2.2a.668.668,0,0,0,.238.9.676.676,0,0,0,.9-.238Z" transform="translate(-818.808 -169.597)"/>
        </g>
      </g>
      <g id="Group_2626" data-name="Group 2626" transform="translate(36.984 7.167)">
        <g id="Group_2625" data-name="Group 2625">
          <path id="Path_15204" data-name="Path 15204" d="M887.147,333.682c.882-.062,1.763-.128,2.645-.19a.661.661,0,0,0,0-1.323c-.882.062-1.764.128-2.645.19a.661.661,0,1,0,0,1.323Z" transform="translate(-886.485 -332.168)"/>
        </g>
      </g>
      <g id="Group_2628" data-name="Group 2628" transform="translate(25.112 12.441)">
        <g id="Group_2627" data-name="Group 2627">
          <path id="Path_15205" data-name="Path 15205" d="M621.816,452.456v.939c0,.062,0,.119,0,.181,0,.04,0,.079-.009.119,0-.031.026-.123,0,0-.018.075-.035.154-.057.229-.009.031-.075.194-.049.141s-.057.106-.071.128l-.106.172c-.018.022-.031.048-.049.071.057-.075.013-.018-.026.022s-.093.1-.141.141c-.022.018-.044.04-.066.057-.075.066.079-.057,0,0a3.15,3.15,0,0,1-.37.22c.115-.053-.048.018-.088.031a1.657,1.657,0,0,1-.2.053c-.04.009-.079.018-.115.022.009,0,.106-.013.026,0s-.145.009-.216.009h-.207c-.062,0-.123,0-.19-.009-.132-.009-.031,0,0,0-.04-.009-.079-.013-.115-.022-.075-.018-.154-.04-.225-.062-.04-.013-.159-.071-.057-.022a2.149,2.149,0,0,1-.4-.238c.1.075-.053-.053-.084-.084-.053-.053-.106-.11-.154-.168.084.1-.044-.062-.066-.1-.04-.066-.075-.132-.115-.2-.062-.106-.018-.031,0,0-.013-.035-.026-.075-.04-.11a2.434,2.434,0,0,1-.071-.256c0-.031-.013-.057-.018-.088.018.1,0,.022,0-.035s0-.115,0-.172c-.163.212-.322.423-.485.639,1.349-.287,2.7-.569,4.047-.855.19-.04.384-.079.573-.123a.663.663,0,1,0-.353-1.279c-1.349.287-2.7.569-4.047.855-.19.04-.384.079-.573.123a.671.671,0,0,0-.485.639,2.906,2.906,0,0,0,2.875,2.883,3.023,3.023,0,0,0,1.9-.564,2.911,2.911,0,0,0,1.151-2.028,11.087,11.087,0,0,0,.018-1.27.669.669,0,0,0-.661-.661A.69.69,0,0,0,621.816,452.456Z" transform="translate(-617.2 -451.785)"/>
        </g>
      </g>
    </g>
  </g>
</svg>
