<svg xmlns="http://www.w3.org/2000/svg" width="26.563" height="28.795" viewBox="0 0 26.563 28.795">
  <g id="ic-icon6" transform="translate(-134.719 76.398)">
    <path id="Path_15210" data-name="Path 15210" d="M25.913,34.6v1.429H30.55a.732.732,0,0,1,0,1.464H19.813a.732.732,0,1,1,0-1.464h4.636V34.6a.736.736,0,0,1,.732-.732A.715.715,0,0,1,25.913,34.6Zm11.015-3.172H13.434a.034.034,0,0,1-.035-.035V15.182a.034.034,0,0,1,.035-.035h6.588a.736.736,0,0,0,.732-.732.76.76,0,0,0-.732-.732H13.434A1.547,1.547,0,0,0,11.9,15.217V31.392a1.547,1.547,0,0,0,1.534,1.534H36.929a1.547,1.547,0,0,0,1.534-1.534V15.182a1.547,1.547,0,0,0-1.534-1.534H30.445a.736.736,0,0,0-.732.732.76.76,0,0,0,.732.732h6.484a.034.034,0,0,1,.035.035V31.322C36.964,31.392,36.964,31.427,36.929,31.427ZM28.6,11.348V23.9a.989.989,0,0,1-.139.453l-2.684,3.521a.769.769,0,0,1-1.185,0L21.9,24.35a.7.7,0,0,1-.139-.453V11.348A2.648,2.648,0,0,1,24.414,8.7h1.5A2.634,2.634,0,0,1,28.6,11.348ZM27.133,23.165V13.2H25.948v9.97Zm-3.9-11.434H27.1v-.383a1.175,1.175,0,0,0-1.185-1.185h-1.5a1.175,1.175,0,0,0-1.185,1.185Zm0,1.464v9.97h1.185V13.2Zm3.137,11.469H24L25.181,26.2Z" transform="translate(122.819 -85.096)"/>
  </g>
</svg>
