<svg xmlns="http://www.w3.org/2000/svg" width="25.705" height="26" viewBox="0 0 25.705 26">
  <g id="ic-icon5" transform="translate(-4.334 -4)">
    <path id="Path_15208" data-name="Path 15208" d="M29.575,44.036H25.536V42.179h4.039a.422.422,0,0,0,.371-.186.69.69,0,0,0,.093-.418A4.862,4.862,0,0,0,25.35,38h-.464a4.87,4.87,0,0,0-4.132,2.321h-7.1A4.87,4.87,0,0,0,9.518,38H9.054a4.875,4.875,0,0,0-4.689,3.575.474.474,0,0,0,.093.418.35.35,0,0,0,.325.186H8.822v1.857H4.783a.422.422,0,0,0-.371.186.451.451,0,0,0-.046.418,4.875,4.875,0,0,0,4.689,3.575h.464a4.87,4.87,0,0,0,4.132-2.321h7.011a4.87,4.87,0,0,0,4.132,2.321h.464a4.875,4.875,0,0,0,4.689-3.575.474.474,0,0,0-.093-.418C29.761,44.082,29.714,44.036,29.575,44.036Zm-16.11-.7a4.394,4.394,0,0,1-.371,1.718l-.232.371a4.008,4.008,0,0,1-1.439,1.346,3.764,3.764,0,0,1-1.9.511H9.054a3.932,3.932,0,0,1-3.575-2.321H9.286A.5.5,0,0,0,9.75,44.5V41.714a.5.5,0,0,0-.464-.464H5.479a3.983,3.983,0,0,1,3.575-2.321h.464a3.972,3.972,0,0,1,3.343,1.857l.232.371a4.222,4.222,0,0,1,.371,1.718Zm6.778,1.625H14.115a4.782,4.782,0,0,0,.279-1.625v-.464a4.782,4.782,0,0,0-.279-1.625h6.128a4.782,4.782,0,0,0-.279,1.625v.464A4.782,4.782,0,0,0,20.243,44.964ZM25.3,47.286h-.464a3.943,3.943,0,0,1-3.946-3.946v-.464a3.943,3.943,0,0,1,3.946-3.946H25.3a3.932,3.932,0,0,1,3.575,2.321H25.072a.5.5,0,0,0-.464.464V44.5a.5.5,0,0,0,.464.464h3.807A3.932,3.932,0,0,1,25.3,47.286Z" transform="translate(0 -18.214)"/>
    <path id="Path_15209" data-name="Path 15209" d="M26.678,4.929h-1.95a1.359,1.359,0,0,0-1.764-.836,1.48,1.48,0,0,0-.836.836h-1.95A4.161,4.161,0,0,0,16,9.107v2.786a.5.5,0,0,0,.464.464v.464a6.964,6.964,0,0,0,13.928,0v-.464a.5.5,0,0,0,.464-.464V9.107A4.161,4.161,0,0,0,26.678,4.929Zm-3.714.464a.464.464,0,1,1,.929,0V7.715h-.929Zm6.5,7.428a6.036,6.036,0,0,1-12.071,0v-.464H29.464Zm.464-1.393h-13V9.107a3.23,3.23,0,0,1,3.25-3.25h1.857V8.179a.5.5,0,0,0,.464.464h1.857a.5.5,0,0,0,.464-.464V5.858h1.857a3.23,3.23,0,0,1,3.25,3.25Z" transform="translate(-6.25)"/>
    <line id="Line_114" data-name="Line 114" x1="0.232" y1="0.371" transform="translate(12.861 22.572)" fill="none"/>
    <line id="Line_115" data-name="Line 115" x1="0.232" y2="0.371" transform="translate(12.861 26.843)" fill="none"/>
  </g>
</svg>
