<svg xmlns="http://www.w3.org/2000/svg" xmlns:xlink="http://www.w3.org/1999/xlink" width="30.201" height="22.006" viewBox="0 0 30.201 22.006">
  <defs>
    <clipPath id="clip-path">
      <rect id="Rectangle_1875" data-name="Rectangle 1875" width="30.2" height="22.006"/>
    </clipPath>
  </defs>
  <g id="ic-icon7" transform="translate(-0.957 -16.227)">
    <g id="Group_2632" data-name="Group 2632" transform="translate(0.958 16.227)">
      <g id="Group_2631" data-name="Group 2631" transform="translate(0 0)" clip-path="url(#clip-path)">
        <path id="Path_15211" data-name="Path 15211" d="M34.792,16.684a1.277,1.277,0,0,0-1.8-.157L16.738,30.164l-.766,2.107a2.657,2.657,0,0,1-2.724,1.735,2.621,2.621,0,0,1-.677-.151c-.049-.017-.095-.039-.142-.059A1.277,1.277,0,0,0,14.2,35.634l1.764-1.479a3.165,3.165,0,0,1,.008-.4,3.07,3.07,0,0,1,3.322-2.788l.424.037,14.92-12.519a1.278,1.278,0,0,0,.158-1.8" transform="translate(-9.111 -16.227)"/>
      </g>
    </g>
    <rect id="Rectangle_1876" data-name="Rectangle 1876" width="5.06" height="11.655" transform="translate(26.097 26.344)"/>
    <g id="Group_2636" data-name="Group 2636" transform="translate(0.958 16.227)">
      <g id="Group_2633" data-name="Group 2633" transform="translate(0 0)" clip-path="url(#clip-path)">
        <path id="Path_15212" data-name="Path 15212" d="M24.249,29.726,23.1,28.842a2.3,2.3,0,0,0-2.4-.326l-4.62,2.057-2.967,1.3a2.3,2.3,0,0,0-1.255,1.408,2.06,2.06,0,0,0-.1.231L9.855,38.765a2.141,2.141,0,0,0,.414,2.158l.033.035c.03.033.062.066.095.1l.042.04q.063.057.13.11l.04.029c.041.03.082.059.126.086l.032.021c.052.032.106.061.162.088l.04.019c.059.027.118.053.18.076a2.192,2.192,0,0,0,.547.121,2.143,2.143,0,0,0,2.2-1.4l1.588-4.364,3.055-1.36Z" transform="translate(-7.512 -24.375)"/>
      </g>
      <g id="Group_2634" data-name="Group 2634" transform="translate(0 0)" clip-path="url(#clip-path)">
        <path id="Path_15213" data-name="Path 15213" d="M6.833,74.676a1.629,1.629,0,0,1-1.405-1.6L3.761,75.4l.45.537Zm-3.225.938-.67.933,1.035-.5Z" transform="translate(-2.938 -54.541)"/>
      </g>
      <g id="Group_2635" data-name="Group 2635" transform="translate(0 0)" clip-path="url(#clip-path)">
        <path id="Path_15214" data-name="Path 15214" d="M28.282,47.633a2.556,2.556,0,0,0-.446,5.092L42.4,53.3V43.392L38.169,40.2l-4.733,3.971c.039.038.068.083.109.12l1.854,1.36a1.271,1.271,0,0,1,.409,1.041,1.288,1.288,0,0,1-1.339,1.171Z" transform="translate(-18.146 -32.385)"/>
      </g>
    </g>
  </g>
</svg>
