<svg xmlns="http://www.w3.org/2000/svg" width="479.589" height="385.404" viewBox="0 0 479.589 385.404"><defs><style>.a{fill:#ecebeb;}.b{fill:#f6f6f6;}.c{fill:#9c78ed;}.d{fill:#7846d1;}.e{fill:#5b23a9;}.f{fill:#403657;}.g{fill:#ffa681;}.h{fill:#fff;}.i{fill:#f97853;}.j{fill:#ea5143;}.k{fill:#6020bd;}.l{fill:#e0d5f8;}.m{fill:#1a0b42;}.n{fill:#614c6e;}.o{opacity:0.5;}</style></defs><g transform="translate(-130 -182)"><ellipse class="a" cx="74.714" cy="75.233" rx="74.714" ry="75.233" transform="translate(460.16 408.218)"/><g transform="translate(130 182)"><circle class="b" cx="191.455" cy="191.455" r="191.455" transform="translate(26.114)"/><g transform="translate(0 50.447)"><g transform="translate(0 133.599)"><g transform="translate(359.991 152.386)"><path class="c" d="M446.087,349.451a8.274,8.274,0,0,0,7.416-2.3,6.79,6.79,0,0,0,2.063-4.442v-.066c-.036-11.032,13.517-10.3,17.868-23.785s-12.842-14.623-22.665-6.3c-7.061,5.989-15.536-2.377-25.8,4.607-8.911,6.06-3.947,20.985-18.566,16.319-4.668-1.492-8.847-.054-12.374,2.593a20.921,20.921,0,0,0-7.806,11.957l1.163.823C416.219,366.533,429.211,346.632,446.087,349.451Z" transform="translate(-386.224 -307.291)"/><g transform="translate(27.22 15.008)"><path class="d" d="M416.675,348.4,454.9,323.861a1.1,1.1,0,0,0-1.19-1.852L412.6,348.4Z" transform="translate(-412.6 -321.834)"/></g></g><g transform="translate(372.093 0)"><g transform="translate(15.81 9.374)"><path class="e" d="M414.6,280.3c-1.614-24.049-1.879-49.267-.09-65.987,2.339-21.844,7.628-37.051,15.723-45.2a1.378,1.378,0,0,1,1.956,1.943c-14.15,14.239-19.238,52.47-14.743,110.641Z" transform="translate(-413.27 -168.714)"/></g><path class="d" d="M418.393,194.83s-11.521-.019-10.7-20.274C407.7,174.556,425.323,179.585,418.393,194.83Z" transform="translate(-397.641 -159.153)"/><path class="d" d="M417.125,204.665s-.623-11.5,19.646-11.81C436.771,192.855,432.731,210.736,417.125,204.665Z" transform="translate(-397.337 -158.568)"/><path class="d" d="M425.676,177.315s-4.423-10.639,14.585-17.684C440.261,159.631,442.413,177.837,425.676,177.315Z" transform="translate(-397.078 -159.631)"/><path class="d" d="M415.142,225.035s-10.848,3.88-16.925-15.46C398.217,209.575,416.507,208.346,415.142,225.035Z" transform="translate(-397.942 -158.033)"/><path class="d" d="M415.225,235.452s-2.6-11.224,17.309-15.029C432.534,220.423,431.647,238.733,415.225,235.452Z" transform="translate(-397.402 -157.685)"/><path class="d" d="M415.166,249.821s-10.773,4.086-17.215-15.136C397.951,234.684,416.214,233.108,415.166,249.821Z" transform="translate(-397.951 -157.23)"/></g><g transform="translate(49.377 71.476)"><path class="d" d="M91.735,331.919,88.6,331.8l-1.665-.067-4.717-.189s-43.59-74-16.282-98.131c8.407-7.429,23.1-1.269,19.855,32.876C82.775,297.935,91.735,331.919,91.735,331.919Z" transform="translate(-56.938 -230.606)"/><g transform="translate(14.265 21.831)"><path class="e" d="M88.153,331.118l-1.665-.067c-7.61-17.929-11.452-37.19-13.358-50.71a234.278,234.278,0,0,1-2.369-27.825.753.753,0,0,1,1.507-.011,232.4,232.4,0,0,0,2.358,27.65C76.544,293.742,80.427,313.159,88.153,331.118Z" transform="translate(-70.761 -251.76)"/></g></g><g transform="translate(0 61.802)"><path class="c" d="M101.926,347.045l-4.263,1.583-2.262.838-6.408,2.377s-99.479-74.593-76.436-122.054c7.094-14.612,30.164-14.57,44.849,32.866C71.018,306.626,101.926,347.045,101.926,347.045Z" transform="translate(-9.093 -221.231)"/><g transform="translate(21.445 30.541)"><path class="d" d="M97,347.681l-2.262.838C74.576,328.8,58.711,305.2,48.631,288.2a338.457,338.457,0,0,1-18.67-35.86,1.09,1.09,0,0,1,2.006-.855,336.625,336.625,0,0,0,18.559,35.633C60.659,304.205,76.666,327.99,97,347.681Z" transform="translate(-29.873 -250.826)"/></g></g><g transform="translate(349.099 78.691)"><path class="d" d="M429.6,354.518c-.048-1.719.378-7.176,0-8.9-3.576-16.372,6.153-19.46,18.983-24.631s14.35-20.531,5.267-33.294,7.238-23.025,1.228-42.236-26.884-6.432-31.45,11.279c-3.281,12.733-19.969,9.978-26.149,26.493-5.368,14.336,12.623,27.576-8.156,34.148-6.637,2.1-10.306,7.19-12.227,13.152a29.723,29.723,0,0,0,.748,20.269l29.4,7.37Z" transform="translate(-375.671 -235.881)"/><g transform="translate(25.773 28.271)"><path class="e" d="M404.018,349.92l34.226-84.493a1.563,1.563,0,1,0-2.9-1.172l-34.7,85.666Z" transform="translate(-400.644 -263.276)"/></g></g></g><g transform="translate(34.103 50.444)"><path class="f" d="M128.527,100.316s.719-15.212-8.533-18.133c-14.407-4.55-18.417,2.922-20.64,7.859-2.85,6.327-1.635,18.738,6.96,19.936C119.146,111.767,127.734,104.567,128.527,100.316Z" transform="translate(-40.352 -80.77)"/><path class="f" d="M137.863,150.816A15.821,15.821,0,0,0,153.35,138.24c1.1-5.279,2.184-9.952,2.184-12.577v-.068c.067-.83.1-1.659.11-2.477.1-12-7.3-33.926-33.331-30.441,0,0-21.6,2.464-24.056,23.57,0,0-1.024,9.737-1.7,16.788-.012.126-.025.25-.037.373a15.818,15.818,0,0,0,15.745,17.409Z" transform="translate(-40.401 -80.401)"/><g transform="translate(111.723 95.502)"><path class="d" d="M167.037,173.31s4.6,36.463,9.86,55.18c0,0,7.47-3.479,17.246-8.2,10.6-5.121,25.84-14.465,25.84-14.465l3.851,9.279s-39.367,37.153-52.405,39.256S150.4,209.773,150.4,209.773Z" transform="translate(-150.397 -173.31)"/><path class="g" d="M217.051,206.5s-1.082-5.18,1.236-8.686,5.847-10.069,9.991-11.439c3.468-1.147-1.648,4.706-1.8,8.419a58.385,58.385,0,0,0,8.877-1.856c3.271-1.063,9.745-2.388,12.746-2.979a.827.827,0,0,1,.718,1.424c-1.024.888-3.164,2-7.588,3.069,0,0,10.783-2.042,11.9-.39s-12.41,3.956-12.41,3.956,10.5-.62,10.77,1.026c.166,1-10.708,3.3-10.708,3.3s9.924.266,7.523,1.833c-.7.457-19.91,2.618-26.6,10.516C221.709,214.689,217.21,210.037,217.051,206.5Z" transform="translate(-148.272 -172.897)"/></g><g transform="translate(0 13.983)"><path class="d" d="M104.122,167.527S82.1,174.022,63.133,178.3c0,0-.492-8.225-.989-19.071-.539-11.76.43-29.61.43-29.61l-9.993,1.027s-13.955,52.3-9.6,64.771,59.625-5,59.625-5Z" transform="translate(-42.139 -93.19)"/><path class="g" d="M61.784,131.977s5.071-1.513,7.053-5.22,7.453-11.17,4.075-13.935c-1.233-1.008-2.122,3.394-5.316,5.294a58.4,58.4,0,0,1-2.59-8.69c-.621-3.384-2.535-9.708-3.443-12.63a.827.827,0,0,0-1.594.046c-.293,1.322-.257,3.735.91,8.134,0,0-3.333-10.456-5.319-10.654s2.424,12.8,2.424,12.8-4.447-9.527-6.026-8.985c-.961.33,2.193,10.988,2.193,10.988s-4.955-8.6-5.191-5.746c-.069.832,7.168,18.76,3.4,28.4C52.364,131.776,58.595,133.521,61.784,131.977Z" transform="translate(-41.92 -94.32)"/></g><g transform="translate(42.264 83.092)"><g transform="translate(4.155)"><path class="c" d="M168.238,314.953l.175.779c-17.149,11.611-81.3,3.682-81.3,3.682.109-1.346.253-2.752.44-4.208.2-1.623.449-3.3.735-5.04.774-4.67,1.814-9.718,2.98-14.914.376-1.636.751-3.3,1.147-4.963,1.158-4.96,2.39-9.988,3.556-14.886.4-1.684.8-3.345,1.183-5,.534-2.292,1.039-4.547,1.525-6.734.632-2.907,1.2-5.7,1.668-8.331.318-1.77.6-3.466.807-5.077.246-1.7.413-3.316.514-4.808-1.02-3.769-1.969-7.459-2.855-11.04-.441-1.823-.873-3.6-1.3-5.366-1.318-5.641-2.476-11.007-3.487-16.036-.359-1.827-.714-3.6-1.036-5.339-1.122-5.929-2.027-11.3-2.756-15.979-.282-1.868-.547-3.609-.779-5.253-.257-1.8-.478-3.462-.669-4.971-.861-6.639-1.159-10.4-1.159-10.4.152-.122.311-.232.474-.351a34.883,34.883,0,0,1,8.369-3.837c3.569-1.224,7.516-2.288,10.995-3.128q.789-.19,1.55-.367c4.571-1.068,7.989-1.688,7.989-1.688,15.554,3.259,19.992,1.162,19.992,1.162l7.907,2.333.93.326,5.763,2.023.232.086,10.334,3.638,6.893,2.418-2.676,12.338-1.166,5.387-3.523,16.24-1.159,5.366L157.031,229.2l-1.154,5.314-2.9,13.41.579,2.56,1.134,4.972,1.8,7.9,1.636,7.15,1.126,4.955,3.385,14.906,1.129,4.927,3.357,14.734Z" transform="translate(-87.118 -161.272)"/><path class="g" d="M145.161,165.531c-1.655,9.723-6.37,19.5-16.169,20.56-11.839,1.281-17.978-13.57-20.648-22.693,4.571-1.068,9.31-2.113,9.31-2.113,15.554,3.259,18.555,1.273,18.555,1.273l8.023,2.646Z" transform="translate(-86.439 -161.285)"/><g transform="translate(25.935 0.434)"><path class="h" d="M127.663,177.91c-12.408,0-15.375-15.324-15.4-15.482a.612.612,0,0,1,1.2-.222c.114.616,2.928,15.076,14.921,14.462,10.5-.53,11.114-12.181,11.135-12.676a.611.611,0,0,1,1.222.051c-.005.133-.679,13.26-12.3,13.847Q128.049,177.91,127.663,177.91Z" transform="translate(-112.249 -161.705)"/></g><path class="d" d="M105.8,173.407a3.029,3.029,0,1,1-3.029-3.029A3.028,3.028,0,0,1,105.8,173.407Z" transform="translate(-86.714 -160.994)"/><path class="d" d="M99.926,187.727A3.028,3.028,0,1,1,96.9,184.7,3.029,3.029,0,0,1,99.926,187.727Z" transform="translate(-86.902 -160.536)"/><path class="d" d="M118.665,194.5a3.028,3.028,0,1,1-3.028-3.029A3.028,3.028,0,0,1,118.665,194.5Z" transform="translate(-86.302 -160.319)"/><path class="d" d="M105.588,202.467a3.029,3.029,0,1,1-3.936-1.689A3.029,3.029,0,0,1,105.588,202.467Z" transform="translate(-86.714 -160.028)"/><path class="d" d="M131.036,207.922a3.029,3.029,0,1,1-3.029-3.028A3.029,3.029,0,0,1,131.036,207.922Z" transform="translate(-85.906 -159.889)"/><path class="d" d="M149.754,213.97a3.029,3.029,0,1,1-3.029-3.029A3.029,3.029,0,0,1,149.754,213.97Z" transform="translate(-85.307 -159.696)"/><path class="d" d="M153.52,176.341a3.028,3.028,0,1,1-3.029-3.028A3.029,3.029,0,0,1,153.52,176.341Z" transform="translate(-85.187 -160.9)"/><path class="d" d="M132.223,226.664a3.028,3.028,0,1,1-3.029-3.029A3.03,3.03,0,0,1,132.223,226.664Z" transform="translate(-85.868 -159.29)"/><path class="d" d="M114.143,235.763a3.029,3.029,0,1,1-3.029-3.028A3.029,3.029,0,0,1,114.143,235.763Z" transform="translate(-86.447 -158.998)"/><path class="d" d="M112.037,219.191a3.029,3.029,0,1,1-3.029-3.029A3.029,3.029,0,0,1,112.037,219.191Z" transform="translate(-86.514 -159.529)"/><path class="d" d="M140.95,195.264a3.029,3.029,0,1,1-3.029-3.029A3.029,3.029,0,0,1,140.95,195.264Z" transform="translate(-85.589 -160.294)"/><path class="d" d="M157.176,191.562a3.029,3.029,0,1,1-3.029-3.029A3.03,3.03,0,0,1,157.176,191.562Z" transform="translate(-85.07 -160.413)"/><path class="d" d="M146.819,231.519a3.028,3.028,0,1,1-3.029-3.029A3.029,3.029,0,0,1,146.819,231.519Z" transform="translate(-85.401 -159.134)"/><path class="d" d="M147.606,254.739a3.028,3.028,0,1,1-3.029-3.028A3.029,3.029,0,0,1,147.606,254.739Z" transform="translate(-85.376 -158.391)"/><path class="d" d="M132.661,245.016a3.029,3.029,0,1,1-3.936-1.688A3.027,3.027,0,0,1,132.661,245.016Z" transform="translate(-85.847 -158.666)"/><path class="d" d="M112.682,253.616a3.029,3.029,0,1,1-3.936-1.689A3.029,3.029,0,0,1,112.682,253.616Z" transform="translate(-86.487 -158.391)"/></g><path class="c" d="M174.785,348.373l-.628-3.774-2.444-14.638-.838-5.014-2.333-13.992-4.242.192-56.235,2.55-20.818.939-1.338,10.882-.626,5.07-1.848,15.032-.34,2.754Z" transform="translate(-83.092 -156.495)"/><g transform="translate(0 102.074)"><path class="f" d="M174.78,350l-.574-3.41-.047-.358-.406-2.41-.406-2.386L171.7,331.58l-.477-2.911-.358-2.1-.047-.311L168.695,313.5l-.142-.907-.191-.787-.167-.691-.955-4.223-1.884-8.256-.549-2.361-.931-4.128-1.121-4.939-.764-3.388-.549-2.361-2.075-9.138-.764-3.341-.358-1.622-.167-.74-1.455-6.418c-22.857,6.752-47.074,2.744-57.81.334-.478,2.171-1,4.438-1.527,6.729q-.18.751-.358,1.5l-.573,2.362c-.071.382-.166.74-.262,1.122-.882,3.745-1.813,7.563-2.72,11.356-.19.787-.357,1.575-.548,2.339-.1.406-.191.787-.287,1.193-.382,1.67-.763,3.341-1.145,4.963-.478,2.171-.931,4.294-1.36,6.394-.167.787-.334,1.55-.478,2.314-.429,2.124-.811,4.2-1.144,6.2-.287,1.742-.525,3.412-.716,5.058-.071.5-.119,1-.191,1.48-.071.811-.167,1.6-.238,2.386,0,.119-.024.215-.024.333L85.9,327.142l-.215,1.693L85.4,331.2l-.12,1-1.479,11.905-.287,2.386-.095.764L83.092,350Z" transform="translate(-83.092 -260.193)"/></g></g><g transform="translate(59.977 22.19)"><g transform="translate(4.262)"><g transform="translate(38.572 22.099)"><path class="i" d="M145.18,126.043s3.717-4.71,6.482-.815-1.143,15.4-7.912,12.591Z" transform="translate(-141.697 -123.686)"/><g transform="translate(2.958 4.124)"><path class="j" d="M145.2,134.136a.57.57,0,0,0,.551-.4c1.049-3.551,4.921-4.992,4.96-5.005a.536.536,0,0,0,.331-.7.581.581,0,0,0-.736-.317c-.182.066-4.449,1.64-5.657,5.73a.541.541,0,0,0,.4.67A.576.576,0,0,0,145.2,134.136Z" transform="translate(-144.627 -127.681)"/></g><g transform="translate(4.968 6.259)"><path class="j" d="M149.047,132.28a.591.591,0,0,0,.31-.087.527.527,0,0,0,.17-.751,5.146,5.146,0,0,0-2.147-1.644.584.584,0,0,0-.755.275.532.532,0,0,0,.289.717,4.1,4.1,0,0,1,1.651,1.242A.581.581,0,0,0,149.047,132.28Z" transform="translate(-146.575 -129.751)"/></g><g transform="translate(0 12.044)"><path class="h" d="M143.569,137.372a4.013,4.013,0,1,0,3.872-1.253.728.728,0,0,1,.144-.763,4.823,4.823,0,1,1-4.75,1.683Z" transform="translate(-141.761 -135.356)"/></g></g><path class="g" d="M117.364,149.289V163.4s6.559,5.061,11.676,5.5,6.879-5.587,6.879-5.587V150.182Z" transform="translate(-103.97 -100.767)"/><path class="i" d="M117.364,150.629v5.631c3.433,3.81,9.53,5.16,18.554,3.828v-8.566Z" transform="translate(-103.97 -100.724)"/><path class="g" d="M148.623,132.032c-.163,1.362-.356,2.749-.6,4.13-1.621,9.177-7.426,19.09-14.757,20.754-15.827,3.592-22.4-8.839-24.93-18.011-.28-1.019.245-2.186.023-3.391-.524-2.859-1.679-6.105-1.941-9.307-.181-2.219-.309-4.408-.4-6.385a12.968,12.968,0,0,1,8.023-12.705c7.277-2.894,18.324-5.185,28.79.953a13.08,13.08,0,0,1,6.379,11.059A98.1,98.1,0,0,1,148.623,132.032Z" transform="translate(-104.334 -102.211)"/><g transform="translate(23.278 26.77)"><path class="i" d="M127.88,138.365a.615.615,0,0,1-.1-1.221l2.111-.355-2.909-7.746a.615.615,0,1,1,1.151-.432l3.433,9.144-3.583.6A.7.7,0,0,1,127.88,138.365Z" transform="translate(-126.942 -128.212)"/></g><path class="f" d="M135.189,128.193c0,1.355.7,2.453,1.559,2.453s1.559-1.1,1.559-2.453-.7-2.452-1.559-2.452S135.189,126.839,135.189,128.193Z" transform="translate(-103.4 -101.521)"/><path class="f" d="M118.491,128.193c0,1.355.7,2.453,1.558,2.453s1.559-1.1,1.559-2.453-.7-2.452-1.559-2.452S118.491,126.839,118.491,128.193Z" transform="translate(-103.934 -101.521)"/><path class="f" d="M141.38,121.9a29.931,29.931,0,0,0-6.488-.553c-.71.026-1.28.561-1.182,1.126l0,.014a1,1,0,0,0,1.129.713c1.841-.139,6.653-.109,8.894.557a1.164,1.164,0,0,0-.471-.97A3.767,3.767,0,0,0,141.38,121.9Z" transform="translate(-103.447 -101.662)"/><path class="f" d="M116.927,122.191a29.909,29.909,0,0,1,6.479-.642c.711.016,1.288.543,1.2,1.109l0,.014a1,1,0,0,1-1.12.728c-1.842-.114-6.654-.018-8.886.68a1.165,1.165,0,0,1,.458-.976A3.759,3.759,0,0,1,116.927,122.191Z" transform="translate(-104.059 -101.655)"/><path class="h" d="M135.627,141.6c-.455,2.155-1.97,6.12-7.072,6.12s-6.549-3.623-7.042-6.12Z" transform="translate(-103.837 -101.013)"/><g transform="translate(21.561 48.467)"><path class="i" d="M128.507,151.178a6.026,6.026,0,0,0,2.828-.828.6.6,0,0,0-.633-1.026h0a4.865,4.865,0,0,1-2.2.647,5.113,5.113,0,0,1-2.315-.65.6.6,0,0,0-.623,1.032A6.282,6.282,0,0,0,128.507,151.178Z" transform="translate(-125.278 -149.236)"/></g><path class="f" d="M149.314,130.653c-.148.124-.289.08-.423-.16-2.091-3.686-.126-11.038-6.313-13.859a13.115,13.115,0,0,1-6.4-6.559,13.323,13.323,0,0,1-3.884,3.536,111.386,111.386,0,0,1-14.512,7.066,24.413,24.413,0,0,0-4.86,2.445l.132.037s-2.049,3.326-.55,8.5-.428,13.7-3.755,15.665c.059-.145,2.554-6.042,1.145-10.854-.812-2.759-.8-7.147-1.575-9.777-.852-.587-2.824-1.577-3.491-1.974-.19-2.262-.327-4.492-.423-6.508a13.2,13.2,0,0,1,8.457-12.953c7.669-2.948,19.315-5.283,30.348.973a13.263,13.263,0,0,1,6.726,11.272A96.729,96.729,0,0,1,149.314,130.653Z" transform="translate(-104.385 -102.272)"/></g><g transform="translate(0 21.584)"><path class="g" d="M108.431,126.021s-4.323-5.246-6.874-1.463,1.216,15.378,7.461,12.651Z" transform="translate(-100.24 -123.187)"/><g transform="translate(0 11.276)"><path class="h" d="M108.62,137.046a4.01,4.01,0,1,1-3.452-2.155.924.924,0,0,0,.045-.775,4.822,4.822,0,1,0,4.2,2.786C109.15,136.951,108.886,137,108.62,137.046Z" transform="translate(-100.256 -134.114)"/></g><g transform="translate(1.829 3.877)"><path class="i" d="M107.453,133.212a.528.528,0,0,1-.508-.386,8.159,8.159,0,0,0-4.577-4.861.528.528,0,0,1,.374-.988,9.089,9.089,0,0,1,5.22,5.564.532.532,0,0,1-.509.671Z" transform="translate(-102.028 -126.944)"/></g><g transform="translate(3.12 5.951)"><path class="i" d="M103.806,131.41a.527.527,0,0,1-.443-.813,4.812,4.812,0,0,1,1.98-1.6.528.528,0,0,1,.431.964,3.819,3.819,0,0,0-1.524,1.2A.529.529,0,0,1,103.806,131.41Z" transform="translate(-103.279 -128.953)"/></g></g></g></g><g transform="translate(161.035 50.303)"><path class="g" d="M331.669,236.761c-10.06,7.222-25.8,12.176-25.8,12.176l-3.224-11.592-2.514-9.042-1.774-6.374-18.041-.013c.978,3.381,1.987,6.834,3,10.235,1.3,4.387,2.6,8.684,3.833,12.644,1.741,5.575,3.348,10.477,4.641,13.979.3.817.654,1.708,1.047,2.657,2.411,6.513,4.358,13.577,13.561,9.145,8.1-3.9,19.089-9.31,24.578-12.9Z" transform="translate(-161.448 -76.112)"/><g transform="translate(117.705 92.775)"><path class="i" d="M283.224,231.953c1.3,4.386,2.6,8.683,3.835,12.643a25.626,25.626,0,0,0,15.495-7.449l-2.514-9.042Z" transform="translate(-279.059 -168.688)"/><path class="k" d="M279.524,170.531s18.819,44.881,26.912,59.422c0,0-11.342,9.643-22.39,9.907C284.046,239.86,277.678,190.585,279.524,170.531Z" transform="translate(-279.189 -170.531)"/></g><g transform="translate(36.899 245.528)"><g transform="translate(0 0)"><path class="c" d="M237.969,348.161c.189-3.14.367-6.13.53-8.9.666-11.329,1.095-19.062,1.095-19.062l-4.438-.2-2.5-.114-30.163-1.34s-.55,8.648-1.2,21.348c-.133,2.6-.269,5.368-.407,8.266Z" transform="translate(-200.889 -318.547)"/></g><path class="d" d="M235.144,320l4.438.2s-.429,7.733-1.095,19.062a269.454,269.454,0,0,1-37.2.635c.646-12.7,1.2-21.348,1.2-21.348l30.163,1.34Z" transform="translate(-200.876 -318.547)"/><g transform="translate(30.177 1.341)"><path class="d" d="M232.637,348.12c.7-12.1,1.275-22.469,1.586-28.16l-2.5-.113c-.313,5.718-.89,16.132-1.591,28.274Z" transform="translate(-230.13 -319.846)"/></g></g><g transform="translate(82.075 245.528)"><g transform="translate(0 0)"><path class="c" d="M246.289,348.161h37.079c-.136-2.9-.273-5.668-.406-8.266-.647-12.7-1.2-21.348-1.2-21.348l-30.164,1.34-2.5.114-4.438.2s.428,7.733,1.095,19.062C245.922,342.031,246.1,345.021,246.289,348.161Z" transform="translate(-244.664 -318.547)"/></g><path class="d" d="M249.1,320l-4.438.2s.428,7.733,1.095,19.062a269.453,269.453,0,0,0,37.2.635c-.647-12.7-1.2-21.348-1.2-21.348l-30.164,1.34Z" transform="translate(-244.664 -318.547)"/><g transform="translate(4.436 1.341)"><path class="d" d="M253.054,348.12c-.7-12.142-1.278-22.555-1.59-28.274l-2.5.113c.312,5.691.885,16.059,1.585,28.16Z" transform="translate(-248.962 -319.846)"/></g></g><g transform="translate(31.952 74.708)"><path class="d" d="M196.1,302.336c0,.621,0,1.234,0,1.838.013,11.031.068,19.581.123,23.778a176.473,176.473,0,0,0,31.969,5.614l1.448.108c.258.019.517.036.776.049.572.041,1.148.077,1.715.105.635.04,1.266.072,1.906.1a170.012,170.012,0,0,0,21.759-.39c1.466-.123,2.923-.263,4.388-.422l.282-.028c.373-.04.744-.086,1.121-.131l.676-.082a178.845,178.845,0,0,0,25.313-4.929c.023-1.906.032-4.733.032-8.3,0-.663,0-1.343-.005-2.056v0c0-5.1-.036-11.441-.091-18.61,0-.613-.008-1.23-.013-1.857-.04-4.774-.091-9.888-.154-15.22-.009-.617-.013-1.234-.023-1.856-.068-5.469-.15-11.15-.246-16.918-.059-3.521-.122-7.074-.2-10.633-.072-3.6-.15-7.211-.235-10.8q-.028-1.17-.06-2.342c-.826-33.9-2.255-65.065-4.619-68.541-1.638-2.406-5.391-5.232-9.811-8.083q-.81-.517-1.647-1.043c-1.883-1.175-17.244-6.394-19.2-7.542l-16.237-1.134c-.1.059-15.625,5.3-15.725,5.35-.667.381-1.343.767-2.01,1.153-5.749,3.317-11.421,6.811-14.689,9.82a15.962,15.962,0,0,0-1.266,1.28,9.145,9.145,0,0,0-.759.971,5.109,5.109,0,0,0-.567,1.425c-1.965,7.138-2.995,35.191-3.508,65.714q-.054,3.282-.1,6.593-.02,1.451-.041,2.909c-.013.667-.023,1.339-.027,2.005l-.013,1q-.034,2.492-.055,4.965-.02,1.831-.04,3.652C196.13,275.24,196.085,290.17,196.1,302.336Z" transform="translate(-196.096 -153.025)"/></g><g transform="translate(0 93.088)"><g transform="translate(0 12.139)"><path class="g" d="M168.054,344.983c-.4,4.333,4.878,1.984,3.386-6.8s2.741-16.731,4.565-16.477-1.511,9.588.114,12.951,3.716-3.171,5.8-7.133c2.165-4.116,2.038-13.1,1.054-19.5s10.632-45.343,10.691-56.625l1.416-4.782,5.183-17.512,8.114-27.422s-4.861-20.757-13.056-18.973c0,0-4.338,14.457-8.975,30.763-.785,2.768-1.58,5.59-2.364,8.4-3.3,11.822-6.408,23.494-7.85,30.418-3.812,18.283-4.107,56.289-4.107,56.289s-6.726,13.963-6.884,20.176C164.973,335.381,168.449,340.65,168.054,344.983Z" transform="translate(-165.134 -182.598)"/><path class="i" d="M183.4,220.916l11.1,24.741,5.183-17.512-13.918-15.633C184.977,215.28,184.182,218.1,183.4,220.916Z" transform="translate(-164.55 -181.64)"/></g><path class="d" d="M182.864,214.88c4.87,8.35,9.821,16.654,14.754,24.972,1.624-5.441,3.308-10.664,4.888-15.465,0-.014.008-.023.013-.037.631-1.92,1.248-3.771,1.838-5.541a.45.45,0,0,1,.032-.091c.2-.621.4-1.234.608-1.833v0c2.355-7.121,4.179-12.779,4.7-16.079,1.407-8.88-2.427-26.279-7.828-29.709h0c-.14.313-.567-.654-.82-.064-.948,2.192-5.16,7.606-7.244,12.878-.267.672-.54,1.37-.821,2.084C189.966,193.748,186.277,203.835,182.864,214.88Z" transform="translate(-164.567 -170.835)"/></g><g transform="translate(28.951 80.06)"><g transform="translate(37.9 1.833)"><path class="k" d="M241.393,169.038c7.031,0,11.988-6.415,12.2-6.688a.951.951,0,0,0-.123-1.277.813.813,0,0,0-1.194.131c-.064.085-4.679,6.019-10.878,6.019-6.127,0-9.863-6.716-9.9-6.784a.82.82,0,0,0-1.16-.327.942.942,0,0,0-.308,1.239C230.2,161.664,234.278,169.038,241.393,169.038Z" transform="translate(-229.912 -159.988)"/></g><g transform="translate(75.186 64.04)"><path class="k" d="M269.965,228.576a.811.811,0,0,0,.386-.1.947.947,0,0,0,.377-1.23l-3.067-6.48a.829.829,0,0,0-1.15-.4.946.946,0,0,0-.377,1.229l3.066,6.48A.851.851,0,0,0,269.965,228.576Z" transform="translate(-266.041 -220.265)"/></g><g transform="translate(85.096 58.116)"><path class="k" d="M276.048,223.451a.819.819,0,0,0,.377.134.875.875,0,0,0,.928-.831l.6-7.234a.9.9,0,0,0-.777-.992.875.875,0,0,0-.928.831l-.6,7.233A.935.935,0,0,0,276.048,223.451Z" transform="translate(-275.644 -214.524)"/></g><g transform="translate(68.169 46.83)"><path class="k" d="M260.1,212.584a.876.876,0,0,0,.844-.766l1.107-7.165a.911.911,0,0,0-.7-1.053.865.865,0,0,0-.985.754l-1.107,7.165a.912.912,0,0,0,.7,1.053A.945.945,0,0,0,260.1,212.584Z" transform="translate(-259.242 -203.588)"/></g><g transform="translate(37.163 50.412)"><path class="k" d="M233.514,215.14a.8.8,0,0,0,.434-.127.951.951,0,0,0,.3-1.254l-3.459-6.249a.823.823,0,0,0-1.171-.322.951.951,0,0,0-.3,1.254l3.459,6.249A.843.843,0,0,0,233.514,215.14Z" transform="translate(-229.198 -207.06)"/></g><g transform="translate(74.463 24.708)"><path class="k" d="M266.2,187.927a.812.812,0,0,0,.463-.147l5.7-3.944a.954.954,0,0,0,.255-1.265.825.825,0,0,0-1.184-.271l-5.7,3.944a.953.953,0,0,0-.254,1.265A.843.843,0,0,0,266.2,187.927Z" transform="translate(-265.341 -182.153)"/></g><g transform="translate(45.997 80.393)"><path class="k" d="M241.681,244.421a.807.807,0,0,0,.385-.1.946.946,0,0,0,.377-1.23l-3.066-6.479a.83.83,0,0,0-1.15-.4.947.947,0,0,0-.377,1.23l3.066,6.479A.851.851,0,0,0,241.681,244.421Z" transform="translate(-237.757 -236.11)"/></g><g transform="translate(56.781 29.674)"><path class="k" d="M254.818,192.648a.844.844,0,0,0,.726-.429.953.953,0,0,0-.271-1.261l-5.755-3.854a.824.824,0,0,0-1.18.29.953.953,0,0,0,.271,1.261l5.756,3.854A.808.808,0,0,0,254.818,192.648Z" transform="translate(-248.208 -186.965)"/></g><g transform="translate(77.079 3.326)"><path class="k" d="M267.878,166.521a.913.913,0,0,0,.1.494.847.847,0,0,0,.7.481.875.875,0,0,0,.912-.848l.272-4.17c-.54-.345-1.087-.695-1.647-1.043Z" transform="translate(-267.875 -161.434)"/></g><g transform="translate(78.143 42.489)"><path class="k" d="M275.517,205.065a.843.843,0,0,0,.726-.429.953.953,0,0,0-.271-1.261l-5.756-3.854a.824.824,0,0,0-1.18.29.953.953,0,0,0,.271,1.261l5.755,3.854A.809.809,0,0,0,275.517,205.065Z" transform="translate(-268.907 -199.382)"/></g><g transform="translate(34.715 9.393)"><path class="k" d="M230.964,174.471a.8.8,0,0,0,.47-.152.954.954,0,0,0,.244-1.267l-3.282-5.327a.82.82,0,0,0-1.185-.26.953.953,0,0,0-.244,1.267l3.282,5.327A.842.842,0,0,0,230.964,174.471Z" transform="translate(-226.826 -167.313)"/></g><g transform="translate(35.056 101.502)"><path class="k" d="M228.012,263.635a.825.825,0,0,0,.617-.282l4.7-5.239a.961.961,0,0,0-.025-1.294.815.815,0,0,0-1.209.027l-4.7,5.239a.959.959,0,0,0,.025,1.294A.824.824,0,0,0,228.012,263.635Z" transform="translate(-227.155 -256.566)"/></g><g transform="translate(52.337 100.413)"><path class="k" d="M244.757,262.579a.828.828,0,0,0,.617-.281l4.7-5.24a.958.958,0,0,0-.025-1.293.816.816,0,0,0-1.209.026l-4.7,5.239a.96.96,0,0,0,.025,1.293A.821.821,0,0,0,244.757,262.579Z" transform="translate(-243.901 -255.51)"/></g><g transform="translate(61.025 135.11)"><path class="k" d="M256.911,296.916a.967.967,0,0,0-.03-.717l-2.936-6.549a.832.832,0,0,0-1.14-.429.944.944,0,0,0-.4,1.221l2.935,6.549a.831.831,0,0,0,1.141.429A.89.89,0,0,0,256.911,296.916Z" transform="translate(-252.319 -289.131)"/></g><g transform="translate(11.432 156.719)"><path class="k" d="M208.857,317.854a.967.967,0,0,0-.03-.717l-2.936-6.548a.83.83,0,0,0-1.14-.429.943.943,0,0,0-.4,1.22l2.936,6.549a.831.831,0,0,0,1.141.429A.89.89,0,0,0,208.857,317.854Z" transform="translate(-204.265 -310.069)"/></g><g transform="translate(37.32 170.32)"><path class="k" d="M229.35,328.279c.573.041,1.145.077,1.714.1l.6-4.079a.907.907,0,0,0-.713-1.043.863.863,0,0,0-.975.763Z" transform="translate(-229.35 -323.249)"/></g><g transform="translate(29.145 154.181)"><path class="k" d="M222.774,316.451a.925.925,0,0,0,.355-.609l1.051-7.176a.908.908,0,0,0-.712-1.045.864.864,0,0,0-.977.763l-1.052,7.175a.908.908,0,0,0,.713,1.045A.807.807,0,0,0,222.774,316.451Z" transform="translate(-221.428 -307.61)"/></g><g transform="translate(67.521 94.912)"><path class="k" d="M262.872,258.3a.812.812,0,0,0,.428-.124.951.951,0,0,0,.312-1.25l-3.4-6.286a.826.826,0,0,0-1.169-.333.949.949,0,0,0-.312,1.25l3.4,6.286A.847.847,0,0,0,262.872,258.3Z" transform="translate(-258.614 -250.18)"/></g><g transform="translate(60.935 79.031)"><path class="k" d="M253.088,243.077a.85.85,0,0,0,.762-.5l3.114-6.454a.948.948,0,0,0-.368-1.233.828.828,0,0,0-1.153.394l-3.114,6.454a.946.946,0,0,0,.368,1.232A.808.808,0,0,0,253.088,243.077Z" transform="translate(-252.233 -234.791)"/></g><g transform="translate(88.64 80.993)"><path class="k" d="M279.28,242.07a.89.89,0,0,0,.323.254.818.818,0,0,0,.882-.146l3.5-3.145c-.018-.78-.034-1.561-.056-2.342l-4.548,4.085A.963.963,0,0,0,279.28,242.07Z" transform="translate(-279.078 -236.692)"/></g><g transform="translate(60.98 10.558)"><path class="k" d="M253.132,176.726a.848.848,0,0,0,.761-.5l3.114-6.453a.947.947,0,0,0-.368-1.233.83.83,0,0,0-1.153.393l-3.112,6.454a.947.947,0,0,0,.367,1.233A.81.81,0,0,0,253.132,176.726Z" transform="translate(-252.276 -168.442)"/></g><g transform="translate(39.739 33.527)"><path class="k" d="M233.836,199.66a.89.89,0,0,0,.163-.017.916.916,0,0,0,.678-1.072l-1.288-7.13a.86.86,0,0,0-1-.726.913.913,0,0,0-.678,1.071L233,198.918A.874.874,0,0,0,233.836,199.66Z" transform="translate(-231.694 -190.699)"/></g><g transform="translate(50.848 39.788)"><path class="k" d="M244.6,205.726a.791.791,0,0,0,.162-.017.913.913,0,0,0,.678-1.071l-1.287-7.131a.863.863,0,0,0-1-.725.916.916,0,0,0-.679,1.072l1.288,7.131A.873.873,0,0,0,244.6,205.726Z" transform="translate(-242.458 -196.765)"/></g><g transform="translate(44.177 17.261)"><path class="k" d="M236.85,182.9a.841.841,0,0,0,.722-.424l3.64-6.131a.954.954,0,0,0-.264-1.263.823.823,0,0,0-1.181.282l-3.64,6.131a.954.954,0,0,0,.264,1.263A.81.81,0,0,0,236.85,182.9Z" transform="translate(-235.994 -174.937)"/></g><g transform="translate(74.009 80.355)"><path class="k" d="M269.306,244.17a.963.963,0,0,0,.148-1.021L266.53,236.6a.833.833,0,0,0-1.141-.431.942.942,0,0,0-.4,1.22l2.925,6.554a.831.831,0,0,0,1.14.431A.855.855,0,0,0,269.306,244.17Z" transform="translate(-264.9 -236.074)"/></g><g transform="translate(55.544 60.84)"><path class="k" d="M247.865,225.759a.859.859,0,0,0,.8-.582l2.475-6.763a.936.936,0,0,0-.485-1.186.838.838,0,0,0-1.108.518l-2.475,6.764a.935.935,0,0,0,.485,1.185A.8.8,0,0,0,247.865,225.759Z" transform="translate(-247.009 -217.164)"/></g><g transform="translate(25.288 102.895)"><path class="k" d="M221.614,266.226a.811.811,0,0,0,.386-.1.947.947,0,0,0,.377-1.23l-3.066-6.48a.831.831,0,0,0-1.151-.4.947.947,0,0,0-.377,1.23l3.067,6.479A.849.849,0,0,0,221.614,266.226Z" transform="translate(-217.69 -257.915)"/></g><g transform="translate(74.272 153.512)"><path class="k" d="M265.156,311.228a.988.988,0,0,0,.1.411.83.83,0,0,0,1.154.392l6.029-3.341a.947.947,0,0,0,.366-1.234.83.83,0,0,0-1.154-.391l-6.029,3.341A.928.928,0,0,0,265.156,311.228Z" transform="translate(-265.156 -306.963)"/></g><g transform="translate(90.641 159.227)"><path class="k" d="M281.017,315.2a.942.942,0,0,0,.094.413.83.83,0,0,0,1.154.39l2.622-1.452c0-.663,0-1.344,0-2.056l-3.4,1.883A.925.925,0,0,0,281.017,315.2Z" transform="translate(-281.017 -312.5)"/></g><g transform="translate(65.224 168.705)"><path class="k" d="M256.472,322.988l2.062,4.71c.374-.041.746-.087,1.124-.132l.675-.082-2.313-5.272a.829.829,0,0,0-1.137-.441A.938.938,0,0,0,256.472,322.988Z" transform="translate(-256.389 -321.684)"/></g><g transform="translate(17.226 85.685)"><path class="k" d="M210.736,250.234a.874.874,0,0,0,.844-.766l1.107-7.165a.911.911,0,0,0-.7-1.053A.865.865,0,0,0,211,242l-1.108,7.165a.912.912,0,0,0,.7,1.053A.823.823,0,0,0,210.736,250.234Z" transform="translate(-209.879 -241.238)"/></g><g transform="translate(13.061 33.731)"><path class="k" d="M210.159,198.976a.811.811,0,0,0,.436-.128.95.95,0,0,0,.3-1.253l-3.459-6.25a.824.824,0,0,0-1.171-.321.951.951,0,0,0-.3,1.254l3.459,6.249A.845.845,0,0,0,210.159,198.976Z" transform="translate(-205.843 -190.896)"/></g><g transform="translate(27.643 61.438)"><path class="k" d="M220.829,223.517a.816.816,0,0,0,.464-.147l5.7-3.944a.955.955,0,0,0,.254-1.265.825.825,0,0,0-1.184-.271l-5.7,3.944a.955.955,0,0,0-.254,1.265A.843.843,0,0,0,220.829,223.517Z" transform="translate(-219.972 -217.743)"/></g><g transform="translate(84.947 101.503)"><path class="k" d="M279.423,264.876a.81.81,0,0,0,.386-.1.947.947,0,0,0,.377-1.23l-3.066-6.48a.829.829,0,0,0-1.15-.4.946.946,0,0,0-.378,1.229l3.066,6.48A.85.85,0,0,0,279.423,264.876Z" transform="translate(-275.5 -256.566)"/></g><g transform="translate(12.173 71.371)"><path class="k" d="M211.593,233.052a.842.842,0,0,0,.727-.429.953.953,0,0,0-.271-1.261l-5.755-3.854a.824.824,0,0,0-1.18.29.953.953,0,0,0,.271,1.261l5.755,3.853A.808.808,0,0,0,211.593,233.052Z" transform="translate(-204.983 -227.369)"/></g><g transform="translate(30.525 77.626)"><path class="k" d="M224.823,242.025a.813.813,0,0,0,.806.212.923.923,0,0,0,.6-1.123l-1.781-7.008a.851.851,0,0,0-1.051-.643.924.924,0,0,0-.6,1.123l1.782,7.008A.93.93,0,0,0,224.823,242.025Z" transform="translate(-222.766 -233.43)"/></g><g transform="translate(8.291 10.972)"><path class="k" d="M201.221,170.123l1.489,2.414a.848.848,0,0,0,.717.409.786.786,0,0,0,.466-.15.954.954,0,0,0,.246-1.266l-1.654-2.686A16.274,16.274,0,0,0,201.221,170.123Z" transform="translate(-201.221 -168.843)"/></g><g transform="translate(1.782 26.101)"><path class="k" d="M194.914,185.587l1.582,2.569a.825.825,0,0,0,1.189.263.961.961,0,0,0,.241-1.271l-2.245-3.644C195.431,184.175,195.177,184.873,194.914,185.587Z" transform="translate(-194.914 -183.503)"/></g><g transform="translate(74.936 125.368)"><path class="k" d="M266.655,286.761a.827.827,0,0,0,.617-.282l4.7-5.24a.958.958,0,0,0-.025-1.293.816.816,0,0,0-1.21.026l-4.7,5.24a.96.96,0,0,0,.025,1.293A.822.822,0,0,0,266.655,286.761Z" transform="translate(-265.799 -279.691)"/></g><g transform="translate(43.646 143.684)"><path class="k" d="M236.335,304.508a.825.825,0,0,0,.617-.282l4.7-5.238a.961.961,0,0,0-.025-1.294.816.816,0,0,0-1.21.027l-4.7,5.238a.961.961,0,0,0,.025,1.294A.825.825,0,0,0,236.335,304.508Z" transform="translate(-235.479 -297.439)"/></g><g transform="translate(33.436 134.782)"><path class="k" d="M227.954,297.51a.954.954,0,0,0,.184-.69l-.848-7.205a.868.868,0,0,0-.956-.794.9.9,0,0,0-.741,1.022l.847,7.207a.869.869,0,0,0,.956.794A.839.839,0,0,0,227.954,297.51Z" transform="translate(-225.586 -288.813)"/></g><g transform="translate(52.771 156.718)"><path class="k" d="M245.178,317.138a.825.825,0,0,0,.617-.282l4.7-5.238a.96.96,0,0,0-.025-1.293.815.815,0,0,0-1.21.026l-4.7,5.24a.958.958,0,0,0,.025,1.293A.818.818,0,0,0,245.178,317.138Z" transform="translate(-244.321 -310.069)"/></g><g transform="translate(3.002 143.962)"><path class="k" d="M196.1,297.708c0,.621,0,1.234,0,1.838l5.308.476a.874.874,0,0,0,.926-.835.9.9,0,0,0-.781-.989Z" transform="translate(-196.096 -297.708)"/></g><g transform="translate(64.314 114.352)"><path class="k" d="M256.363,276.086a.83.83,0,0,0,.617-.282l4.7-5.238a.961.961,0,0,0-.025-1.294.816.816,0,0,0-1.21.027l-4.7,5.238a.96.96,0,0,0,.024,1.294A.826.826,0,0,0,256.363,276.086Z" transform="translate(-255.506 -269.017)"/></g><g transform="translate(42.542 118.169)"><path class="k" d="M234.412,273.691a.935.935,0,0,0,.3.64l5.2,4.674a.818.818,0,0,0,1.205-.111.959.959,0,0,0-.1-1.289l-5.2-4.674a.816.816,0,0,0-1.2.111A.949.949,0,0,0,234.412,273.691Z" transform="translate(-234.41 -272.716)"/></g><g transform="translate(13.523 136.739)"><path class="k" d="M210.549,298.825a.8.8,0,0,0,.427-.123.951.951,0,0,0,.313-1.251l-3.4-6.285a.826.826,0,0,0-1.169-.333.951.951,0,0,0-.312,1.25l3.4,6.286A.844.844,0,0,0,210.549,298.825Z" transform="translate(-206.29 -290.71)"/></g><g transform="translate(11.037 117.887)"><path class="k" d="M204.738,280.727a.85.85,0,0,0,.761-.5l3.114-6.454a.946.946,0,0,0-.368-1.232.828.828,0,0,0-1.153.393l-3.113,6.454a.946.946,0,0,0,.367,1.232A.812.812,0,0,0,204.738,280.727Z" transform="translate(-203.882 -272.442)"/></g><g transform="translate(20.324 44.607)"><path class="k" d="M213.736,209.719a.852.852,0,0,0,.762-.5l3.113-6.454a.946.946,0,0,0-.368-1.232.829.829,0,0,0-1.153.393l-3.113,6.454a.946.946,0,0,0,.368,1.232A.794.794,0,0,0,213.736,209.719Z" transform="translate(-212.881 -201.435)"/></g><g transform="translate(15.637 16.846)"><path class="k" d="M210.481,183.495a.8.8,0,0,0,.163-.017.914.914,0,0,0,.678-1.072l-1.288-7.13a.859.859,0,0,0-1-.724.913.913,0,0,0-.678,1.071l1.288,7.131A.872.872,0,0,0,210.481,183.495Z" transform="translate(-208.339 -174.535)"/></g><g transform="translate(0 41.452)"><path class="k" d="M195.329,207.338a.8.8,0,0,0,.163-.017.913.913,0,0,0,.678-1.071l-1.287-7.131a.862.862,0,0,0-1-.725.916.916,0,0,0-.678,1.072l1.288,7.13A.872.872,0,0,0,195.329,207.338Z" transform="translate(-193.187 -198.377)"/></g><g transform="translate(26.746 23.107)"><path class="k" d="M221.246,189.562a.8.8,0,0,0,.163-.016.914.914,0,0,0,.678-1.072l-1.288-7.13a.861.861,0,0,0-1-.726.914.914,0,0,0-.678,1.072l1.288,7.13A.871.871,0,0,0,221.246,189.562Z" transform="translate(-219.104 -180.601)"/></g><g transform="translate(23.13)"><path class="k" d="M216.259,165.439a.8.8,0,0,0,.476-.027.9.9,0,0,0,.551-.653l1.439-6.548c-.666.381-1.341.767-2.011,1.153l-1.09,4.973A.917.917,0,0,0,216.259,165.439Z" transform="translate(-215.6 -158.211)"/></g><g transform="translate(3.359 53.476)"><path class="k" d="M197.3,217.99a.842.842,0,0,0,.723-.424l3.639-6.131a.955.955,0,0,0-.263-1.264.825.825,0,0,0-1.182.283l-3.639,6.131a.954.954,0,0,0,.264,1.263A.814.814,0,0,0,197.3,217.99Z" transform="translate(-196.442 -210.028)"/></g><g transform="translate(24.111 119.21)"><path class="k" d="M220.955,281.82a.963.963,0,0,0,.148-1.021l-2.924-6.554a.832.832,0,0,0-1.141-.431.943.943,0,0,0-.4,1.22l2.925,6.554a.832.832,0,0,0,1.14.431A.855.855,0,0,0,220.955,281.82Z" transform="translate(-216.55 -273.724)"/></g><g transform="translate(87.987 137.801)"><path class="k" d="M279.16,293.561l5.715.99c0-.613-.008-1.23-.016-1.857l-5.422-.944a.865.865,0,0,0-.98.759A.91.91,0,0,0,279.16,293.561Z" transform="translate(-278.445 -291.738)"/></g><g transform="translate(89.726 121.06)"><path class="k" d="M280.846,277.334l3.806.658c-.008-.617-.012-1.234-.022-1.857l-3.509-.608a.863.863,0,0,0-.979.759A.9.9,0,0,0,280.846,277.334Z" transform="translate(-280.131 -275.516)"/></g><g transform="translate(5.646 99.695)"><path class="k" d="M199.514,263.409a.858.858,0,0,0,.8-.582l2.475-6.763a.936.936,0,0,0-.485-1.186.838.838,0,0,0-1.108.519l-2.475,6.763a.938.938,0,0,0,.485,1.186A.816.816,0,0,0,199.514,263.409Z" transform="translate(-198.658 -254.815)"/></g></g><g transform="translate(32.309 138.385)"><path class="k" d="M196.441,243.356c1.607-6.639,3.625-14.018,5.628-20.375l.013-.036c.617-1.965,1.234-3.831,1.838-5.541a.47.47,0,0,1,.031-.091c.187-.541.377-1.062.563-1.571a.929.929,0,0,0,.045-.263v0a.755.755,0,0,0-1.466-.25c-2.051,5.59-4.474,13.641-6.552,21.537Q196.487,240.044,196.441,243.356Z" transform="translate(-196.441 -214.727)"/></g><g transform="translate(51.646)"><path class="f" d="M220.346,119.471s-5.959-6.567-3.71-14.207,8.4-7.555,8.4-7.555,3.59-8.126,9.7-8.393,11.874-11.124,17.437-8.176-.6,9.382-.6,9.382,9.531-10.053,12.673-7.1-4.363,10.856-4.363,10.856,8.007-5.63,10.638-3.485-6.275,11.392-6.275,11.392,5.762,10.387-.038,15.045Z" transform="translate(-215.149 -80.633)"/><g transform="translate(45.362 38.494)"><path class="i" d="M260.6,120.476s3.81-5.08,6.643-.879-1.172,16.608-8.108,13.58Z" transform="translate(-259.134 -117.933)"/><g transform="translate(0.928 4.448)"><path class="j" d="M260.62,129.2a.586.586,0,0,0,.563-.428c1.075-3.83,5.043-5.383,5.084-5.4a.586.586,0,0,0-.415-1.1c-.186.07-4.559,1.767-5.8,6.179a.587.587,0,0,0,.407.722A.6.6,0,0,0,260.62,129.2Z" transform="translate(-260.033 -122.243)"/></g><g transform="translate(2.987 6.751)"><path class="j" d="M264.562,127.2a.576.576,0,0,0,.317-.094.586.586,0,0,0,.175-.81,5.333,5.333,0,0,0-2.2-1.773.586.586,0,1,0-.478,1.069,4.243,4.243,0,0,1,1.692,1.339A.587.587,0,0,0,264.562,127.2Z" transform="translate(-262.028 -124.475)"/></g></g><g transform="translate(0 38.494)"><path class="i" d="M222.74,120.476s-3.81-5.08-6.643-.879,1.172,16.608,8.108,13.58Z" transform="translate(-215.179 -117.933)"/><g transform="translate(1.487 4.448)"><path class="j" d="M222.646,129.2a.586.586,0,0,1-.564-.428c-1.074-3.83-5.043-5.383-5.084-5.4a.586.586,0,0,1,.416-1.1c.185.07,4.558,1.767,5.8,6.179a.585.585,0,0,1-.407.722A.6.6,0,0,1,222.646,129.2Z" transform="translate(-216.62 -122.243)"/></g><g transform="translate(2.921 6.751)"><path class="j" d="M218.6,127.2a.578.578,0,0,1-.317-.094.586.586,0,0,1-.175-.81,5.343,5.343,0,0,1,2.2-1.773.586.586,0,1,1,.479,1.069,4.242,4.242,0,0,0-1.694,1.339A.585.585,0,0,1,218.6,127.2Z" transform="translate(-218.009 -124.475)"/></g></g><path class="g" d="M232.442,142.9V155.24s3.68,6.284,8.655,6.711,9.389-5.41,9.389-5.41V143.769Z" transform="translate(-214.627 -78.641)"/><path class="i" d="M232.442,142.9v5.475c3.339,3.7,9.269,4.631,18.045,3.335v-7.942Z" transform="translate(-214.627 -78.641)"/><path class="g" d="M219.839,112.679a118.957,118.957,0,0,0,1.6,15.582v.013a.175.175,0,0,0,.009.046l0,.009c.226,1.17.479,2.271.755,3.261.166.581.346,1.189.548,1.81,2.925,9.176,9.7,22.455,26.73,16.38,7.172-2.556,10.907-9.963,12.81-18,.11-.48.217-.954.309-1.41.064-.3.124-.6.18-.89l.083-.428c.014-.073.024-.124.028-.156a.146.146,0,0,0,0-.028,87.892,87.892,0,0,0,1.212-16.887,12.878,12.878,0,0,0-6.536-10.958c-10.728-6.085-22.055-3.814-29.512-.949A12.828,12.828,0,0,0,219.839,112.679Z" transform="translate(-215.03 -80.104)"/><path class="f" d="M221.383,127.3l.005.013a.176.176,0,0,0,.009.046l0,.009c.11.4.709,2.6,1.3,5.071,2.925,9.176,9.7,22.455,26.73,16.38,7.172-2.556,10.907-9.963,12.81-18,.11-.48.217-.954.309-1.41.064-.3.124-.6.18-.89l.083-.428c.014-.073.024-.124.028-.156a.145.145,0,0,0,0-.028l-2.506-.507A19.112,19.112,0,0,1,257.505,134c-2.119-5.076-12.87-1.7-12.87-1.7l-.051.019a6.649,6.649,0,0,1-4.062-.019s-10.622-3.519-12.824,1.322a67.72,67.72,0,0,1-3.695-6.5l-2.616.184Zm21.171,7.292c12.156-1.64,10.244,4.905,10.244,4.905a20.388,20.388,0,0,1-3.413,2.593,14.008,14.008,0,0,1-7.158,1.948c-1.866-.078-2.377.3-7.094-2.248a11.915,11.915,0,0,1-2.5-1.9h-.005v0C232.424,138.611,230.366,132.5,242.554,134.595Z" transform="translate(-214.981 -79.146)"/><path class="f" d="M231.223,120.917c0,1.318.679,2.385,1.517,2.385s1.516-1.067,1.516-2.385-.679-2.385-1.516-2.385S231.223,119.6,231.223,120.917Z" transform="translate(-214.666 -79.421)"/><path class="f" d="M249.589,120.917c0,1.318.679,2.385,1.516,2.385s1.516-1.067,1.516-2.385-.678-2.385-1.516-2.385S249.589,119.6,249.589,120.917Z" transform="translate(-214.078 -79.421)"/><path class="f" d="M227.471,113.089s6.265-2.476,11.089-.392l-.482,2.683s-7.081-.6-10.648.847A4.658,4.658,0,0,1,227.471,113.089Z" transform="translate(-214.795 -79.634)"/><path class="f" d="M256.673,113.1s-6.311-2.494-11.17-.4l.486,2.7s7.132-.6,10.726.853A4.686,4.686,0,0,0,256.673,113.1Z" transform="translate(-214.209 -79.634)"/><g transform="translate(24.505 40.688)"><path class="i" d="M241.41,131.528a6.218,6.218,0,0,1-2.122-.448.586.586,0,0,1,.443-1.085,3.518,3.518,0,0,0,2.352.222.637.637,0,0,0,.288-.546,88.94,88.94,0,0,0-.354-8.976.586.586,0,1,1,1.168-.1,87.073,87.073,0,0,1,.352,9.194,1.79,1.79,0,0,1-.852,1.431A2.471,2.471,0,0,1,241.41,131.528Z" transform="translate(-238.924 -120.06)"/></g><path class="h" d="M249,135.5c-.445,2.238-1.925,6.358-6.907,6.358s-6.4-3.765-6.876-6.358Z" transform="translate(-214.538 -78.878)"/><path class="f" d="M219.837,112.676a119.973,119.973,0,0,0,1.6,15.586l2.62-.185s-.635-4.05-.928-6.686-.79-7.569,1.46-8.184.928-6.234,4.052-8.673,10.113-3.115,14.719-.278,9.8-.215,11.922.278,5.011,3.417,4.232,6.155,1.559,4.4,2.128,7.227-1.249,10.451-1.249,10.451l2.5.5a87.966,87.966,0,0,0,1.214-16.882,12.881,12.881,0,0,0-6.536-10.961c-10.733-6.085-22.057-3.816-29.513-.95A12.839,12.839,0,0,0,219.837,112.676Z" transform="translate(-215.03 -80.104)"/></g></g><g transform="translate(182.239 131.094)"><g transform="translate(53.371)"><g transform="translate(0 87.825)"><path class="d" d="M326.508,240.257c-1.592,14.533-11.082,47-17.651,53.359-8.553,8.28-36.7,25.711-51.363,34.649-2.645,1.612,9.779,12.349,9.779,12.349s38.928-16.647,53.8-29.772c4.205-3.713,12.745-15.424,22.385-37.731,2.924-6.764,10.006-20.4,9.639-29.3C352.67,233.577,336.408,235.261,326.508,240.257Z" transform="translate(-257.124 -236.301)"/></g><path class="g" d="M295.605,321.025s-10.588,4.021-14.341,8.444-8.711,8.176-7.5,9.918,6.7-3.35,6.7-3.35,1.506,5.6,6.835,6.2,15.413-9.822,15.413-9.822Z" transform="translate(-256.597 -145.764)"/><g transform="translate(54.249)"><g transform="translate(0 72.885)"><path class="c" d="M398.965,281.3c0,.92-.006,2.007-.022,3.241s-.043,2.6-.081,4.1q-.045,1.54-.1,3.252-.053,1.438-.112,2.986-.068,1.581-.148,3.259c-.737,15.22-2.52,36.236-6.439,53.082H309.691c2.747-12.245,6.951-31.558,10.285-56.615q.209-1.581.415-3.192t.4-3.254c.073-.582.142-1.169.213-1.757.056-.485.112-.967.166-1.445q.229-2.026.415-3.983c.105-1.089.2-2.158.292-3.215,1.413-16.846.914-29.472,2.943-37.033,2.364-8.8,29.93-18.895,29.93-18.895l17.271.9s16.467,5.377,25.27,13.1,1.442,30.8,1.656,43.893C398.958,280.176,398.961,280.7,398.965,281.3Z" transform="translate(-309.691 -221.824)"/><g transform="translate(11.898 55.928)"><path class="l" d="M398.574,282.8a192.419,192.419,0,0,1-22.969,1.268,341.141,341.141,0,0,1-54.385-4.838c.105-1.089.2-2.158.292-3.215,6.632,1.174,45.009,7.522,77.084,3.544C398.6,280.481,398.589,281.569,398.574,282.8Z" transform="translate(-321.22 -276.018)"/></g><g transform="translate(11.104 63.126)"><path class="l" d="M398.518,286.675q-.045,1.54-.1,3.252a192.979,192.979,0,0,1-22.79,1.244,340.729,340.729,0,0,1-55.178-4.977c.073-.582.142-1.169.213-1.756.056-.485.113-.967.166-1.445C324.646,283.69,365,290.808,398.518,286.675Z" transform="translate(-320.451 -282.992)"/></g><g transform="translate(10.285 69.581)"><path class="l" d="M398.332,292.712q-.068,1.58-.148,3.259a190.273,190.273,0,0,1-23.778,1.367,340.874,340.874,0,0,1-54.749-4.9q.209-1.581.415-3.192C326.017,290.306,365.66,296.988,398.332,292.712Z" transform="translate(-319.657 -289.247)"/></g><g transform="translate(48.659 6.04)"><path class="d" d="M358.228,238.205c8.587,0,16.509-9.127,16.853-9.527a.606.606,0,0,0-.921-.79c-.082.1-8.379,9.656-16.672,9.08a.606.606,0,0,0-.084,1.21C357.679,238.2,357.955,238.205,358.228,238.205Z" transform="translate(-356.84 -227.677)"/></g><g transform="translate(24.902 76.206)"><path class="d" d="M366.41,338.681a.606.606,0,0,0,.068-1.208c-22.182-2.553-31.371-40.949-31.461-41.337a.606.606,0,0,0-1.181.275c.376,1.616,9.481,39.617,32.5,42.267C366.363,338.679,366.386,338.681,366.41,338.681Z" transform="translate(-333.821 -295.667)"/></g><g transform="translate(34.202 87.86)"><path class="d" d="M357.288,326.7a.606.606,0,0,0,.318-1.122c-11.8-7.274-13.552-18-13.569-18.1a.606.606,0,0,0-1.2.181c.069.46,1.832,11.372,14.131,18.955A.6.6,0,0,0,357.288,326.7Z" transform="translate(-342.832 -306.96)"/></g></g><g transform="translate(25.586)"><ellipse class="f" cx="24.3" cy="24.3" rx="24.3" ry="24.3" transform="translate(5.659 8.672)"/><path class="f" d="M340.541,179.814s-6.882-1.9-5.974-8.578c.772-5.685,7.449-2,6.863-6.443s-1.892-8.481,3.856-9.592c5.027-.971,5.112,2.475,11.712-2.524,7.8-5.9,13.791,7.769,20.751,8.18,10.266.606,11.562,6.412,12.572,11.056s-2.942,7.9-2.942,7.9Z" transform="translate(-334.484 -151.2)"/><g transform="translate(2.103 37.203)"><path class="i" d="M344.161,189.818s-3.849-5.132-6.711-.887,1.184,16.778,8.191,13.718Z" transform="translate(-336.522 -187.249)"/><g transform="translate(1.502 4.493)"><path class="j" d="M344.065,198.636a.593.593,0,0,1-.571-.433c-1.086-3.869-5.1-5.439-5.135-5.453a.592.592,0,0,1,.419-1.108c.188.071,4.606,1.785,5.857,6.242a.592.592,0,0,1-.41.731A.617.617,0,0,1,344.065,198.636Z" transform="translate(-337.977 -191.603)"/></g><g transform="translate(2.951 6.82)"><path class="j" d="M339.972,196.613a.592.592,0,0,1-.5-.912,5.408,5.408,0,0,1,2.223-1.792.592.592,0,1,1,.483,1.081,4.292,4.292,0,0,0-1.71,1.352A.59.59,0,0,1,339.972,196.613Z" transform="translate(-339.381 -193.858)"/></g></g><path class="g" d="M371.541,212.473v12.466s-5.125,5.493-10.153,5.926-8.077-5.528-8.077-5.528V213.349Z" transform="translate(-333.881 -149.239)"/><path class="i" d="M371.541,212.473V218c-3.374,3.744-9.364,4.678-18.23,3.369v-8.024Z" transform="translate(-333.881 -149.239)"/><path class="g" d="M385.1,181.937a121.2,121.2,0,0,1-1.616,15.746c-.231,1.208-.491,2.346-.782,3.363-2.623,9.185-9.184,24.937-27.553,18.376-8.114-2.9-11.873-11.933-13.549-21.123a88.861,88.861,0,0,1-1.226-17.055,13.011,13.011,0,0,1,6.6-11.073c10.843-6.147,22.284-3.856,29.817-.96A12.969,12.969,0,0,1,385.1,181.937Z" transform="translate(-334.296 -150.717)"/><g transform="translate(6.804 36.994)"><g transform="translate(21.96 0.447)"><path class="f" d="M362.356,190.064v.982a7.355,7.355,0,0,0,7.335,7.365h.24a6.632,6.632,0,0,0,4.565-2.02,7.229,7.229,0,0,0,2.121-5.166v-1.162a2.623,2.623,0,0,0-.758-1.827,2.574,2.574,0,0,0-1.828-.759h-9.091a2.578,2.578,0,0,0-2.331,1.473,2.51,2.51,0,0,0-.251,1.044A.5.5,0,0,0,362.356,190.064Zm1.072,0a1.513,1.513,0,0,1,1.513-1.513h9.091a1.511,1.511,0,0,1,1.513,1.513v1.162a6.143,6.143,0,0,1-1.8,4.4,5.6,5.6,0,0,1-3.836,1.715h-.219a6.281,6.281,0,0,1-6.263-6.292Z" transform="translate(-362.356 -187.479)"/></g><g transform="translate(3.755 0.447)"><path class="f" d="M344.716,190.064v.982a7.355,7.355,0,0,0,7.337,7.365h.242a6.629,6.629,0,0,0,4.563-2.02,7.235,7.235,0,0,0,2.123-5.166v-1.162a.288.288,0,0,0,0-.051,2.488,2.488,0,0,0-.219-.99,2.577,2.577,0,0,0-2.362-1.545h-9.1a2.586,2.586,0,0,0-1.988.933,2.537,2.537,0,0,0-.5.959A2.349,2.349,0,0,0,344.716,190.064Zm1.072,0a1.514,1.514,0,0,1,1.513-1.513h9.1a1.513,1.513,0,0,1,1.512,1.513v1.162a6.159,6.159,0,0,1-1.8,4.4,5.6,5.6,0,0,1-3.837,1.715h-.221a6.189,6.189,0,0,1-4.4-1.819,6.252,6.252,0,0,1-1.863-4.473Z" transform="translate(-344.716 -187.479)"/></g><g transform="translate(35.614)"><path class="f" d="M382.674,187.059a12.827,12.827,0,0,0-6.165,1.192c-.244.118-.894.541-.922.558l.51.91c.007,0,.719-.428,1-.557a11.233,11.233,0,0,1,5.579-1.034Z" transform="translate(-375.587 -187.046)"/></g><g transform="translate(16.868 1.519)"><path class="f" d="M363.234,190.071l.352-1.013a10.976,10.976,0,0,0-3.223-.54,7.234,7.234,0,0,0-2.941.563l.469.965a6.283,6.283,0,0,1,2.473-.456A10.014,10.014,0,0,1,363.234,190.071Z" transform="translate(-357.422 -188.518)"/></g><g transform="translate(0 0.271)"><path class="f" d="M341.077,187.309v1.075a13.9,13.9,0,0,1,4.3,1.188l.472-.962A14.532,14.532,0,0,0,341.077,187.309Z" transform="translate(-341.077 -187.309)"/></g></g><path class="f" d="M352.966,191.39c0,1.33-.685,2.409-1.532,2.409s-1.531-1.078-1.531-2.409.686-2.41,1.531-2.41S352.966,190.058,352.966,191.39Z" transform="translate(-333.991 -149.99)"/><path class="f" d="M370.347,191.39c0,1.33-.685,2.409-1.532,2.409s-1.531-1.078-1.531-2.409.685-2.41,1.531-2.41S370.347,190.058,370.347,191.39Z" transform="translate(-333.434 -149.99)"/><path class="f" d="M346.564,184.184s6.377-2.519,11.286-.4l-.41,2.279a20.7,20.7,0,0,0-10.523.755C346.592,185.768,346.15,185.264,346.564,184.184Z" transform="translate(-334.103 -150.184)"/><path class="f" d="M375.182,184.184s-6.376-2.519-11.286-.4l.41,2.279a20.7,20.7,0,0,1,10.523.755C375.154,185.768,375.6,185.264,375.182,184.184Z" transform="translate(-333.543 -150.184)"/><g transform="translate(25.151 39.911)"><path class="i" d="M361.057,201.458a6.3,6.3,0,0,0,2.144-.452.592.592,0,0,0-.448-1.1,3.555,3.555,0,0,1-2.376.224.64.64,0,0,1-.291-.551,89.569,89.569,0,0,1,.358-9.069.592.592,0,1,0-1.181-.1,87.544,87.544,0,0,0-.355,9.288,1.809,1.809,0,0,0,.861,1.446A2.5,2.5,0,0,0,361.057,201.458Z" transform="translate(-358.855 -189.873)"/></g><path class="h" d="M353.876,204.012c.483,2.434,2.092,6.914,7.511,6.914s6.956-4.094,7.479-6.914Z" transform="translate(-333.863 -149.509)"/><g transform="translate(24.392 62.601)"><path class="i" d="M361.178,213.767a6.19,6.19,0,0,0,2.888-.809.592.592,0,0,0-.614-1.013,5.03,5.03,0,0,1-2.273.639,4.8,4.8,0,0,1-2.155-.636.592.592,0,0,0-.622,1.007A5.924,5.924,0,0,0,361.178,213.767Z" transform="translate(-358.12 -211.859)"/></g><path class="f" d="M343.429,194.439c-.448-2.442-.89-5.593-.569-7.21.577-2.86,2.944-4.541,2.156-7.3s2.124-5.73,4.274-6.222,7.157.571,12.092-1.772c4.711-2.24,12.9-.638,14.235,2.385,1.615,3.661-.582,4.007,3.825,7.965,1.754,1.578-.327,5.676-.625,8.341a17.886,17.886,0,0,0-.1,3.142l.018.668H384c.582-4.133.914-8.69,1.1-12.5a12.977,12.977,0,0,0-8.311-12.725c-7.534-2.895-18.971-5.19-29.819.96a13.005,13.005,0,0,0-6.6,11.072,94.2,94.2,0,0,0,.639,13.2Z" transform="translate(-334.296 -150.717)"/><g transform="translate(47.369 37.182)"><path class="g" d="M380.386,196.048a22.107,22.107,0,0,1,.322-4.118c.329-1.858.869-3.543,2.77-4.318,1.529-.622,3.163-.635,4.325,1.089,2.863,4.245-.326,17.451-7.333,14.391Z" transform="translate(-380.384 -187.228)"/><g transform="translate(0.732 4.033)"><path class="i" d="M381.8,199.121a.594.594,0,0,0,.475-.536c.308-4.008,3.932-6.331,3.968-6.354a.592.592,0,0,0-.628-1c-.169.106-4.166,2.652-4.521,7.267a.594.594,0,0,0,.707.626Z" transform="translate(-381.093 -191.137)"/></g><g transform="translate(2.083 6.983)"><path class="i" d="M385.347,196.325a.593.593,0,0,0,.309-.993,5.4,5.4,0,0,0-2.53-1.322.592.592,0,0,0-.262,1.155,4.294,4.294,0,0,1,1.942.991A.59.59,0,0,0,385.347,196.325Z" transform="translate(-382.402 -193.995)"/></g></g></g></g><g transform="translate(36.345 84.189)"><path class="d" d="M394.347,232.778c-8.654,13.118-41.778,58.47-49.251,63.739-9.729,6.86-36.25,16.611-51.477,26.779-5.173,3.454,7.05,13.231,7.05,13.231s37.117-10.436,53.833-21.107c4.729-3.018,24.4-22.721,36.936-40.2,4.3-5.986,11.284-14.3,12.3-23.145C404.9,241.9,401.7,236.456,394.347,232.778Z" transform="translate(-292.342 -232.778)"/></g></g><g transform="translate(0 117.817)"><rect class="m" width="107.959" height="12.997" rx="2.313" transform="translate(20.501 71.458)"/><path class="f" d="M225.931,349.818l-20.292-76a6.722,6.722,0,0,1,6.494-8.457h44.653a6.724,6.724,0,0,1,6.473,4.905L285.6,349.818Z" transform="translate(-205.408 -265.363)"/><path class="m" d="M261.669,270.271l22.159,78.893h5.1l-22.159-78.893a6.731,6.731,0,0,0-6.475-4.908h-5.1A6.732,6.732,0,0,1,261.669,270.271Z" transform="translate(-203.814 -265.363)"/><path class="n" d="M250.913,309.86c1.16,5.012-1.963,9.076-6.975,9.076a12.118,12.118,0,0,1-11.177-9.076c-1.16-5.012,1.963-9.076,6.976-9.076A12.116,12.116,0,0,1,250.913,309.86Z" transform="translate(-204.54 -264.229)"/></g></g><g transform="translate(21.861 0)"><g transform="translate(372.59)"><g transform="translate(5.548)"><path class="d" d="M384.631,76.4a6.815,6.815,0,1,1,6.815-6.815A6.822,6.822,0,0,1,384.631,76.4Zm0-11.491a4.677,4.677,0,1,0,4.677,4.676A4.682,4.682,0,0,0,384.631,64.906Z" transform="translate(-377.817 -62.768)"/></g><g transform="translate(30.081 23.907)"><path class="c" d="M408.4,99.564a6.815,6.815,0,1,1,6.814-6.814A6.822,6.822,0,0,1,408.4,99.564Zm0-11.491a4.677,4.677,0,1,0,4.677,4.677A4.682,4.682,0,0,0,408.4,88.072Z" transform="translate(-401.589 -85.934)"/></g><g transform="translate(37.629 52.829)"><g transform="translate(6.617)"><path class="d" d="M416.383,120.812a1.069,1.069,0,0,1-1.068-1.069v-4.714a1.069,1.069,0,1,1,2.137,0v4.714A1.069,1.069,0,0,1,416.383,120.812Z" transform="translate(-415.315 -113.959)"/><g transform="translate(0 8.25)"><path class="d" d="M416.383,128.8a1.068,1.068,0,0,1-1.068-1.068v-4.714a1.069,1.069,0,1,1,2.137,0v4.714A1.069,1.069,0,0,1,416.383,128.8Z" transform="translate(-415.315 -121.953)"/></g></g><g transform="translate(0 6.482)"><g transform="translate(8.999)"><path class="d" d="M422.926,122.378h-4.234a1.069,1.069,0,0,1,0-2.138h4.234a1.069,1.069,0,0,1,0,2.138Z" transform="translate(-417.623 -120.24)"/></g><path class="d" d="M414.206,122.378h-4.234a1.069,1.069,0,0,1,0-2.138h4.234a1.069,1.069,0,0,1,0,2.138Z" transform="translate(-408.903 -120.24)"/></g></g><g transform="translate(0 26.415)"><g transform="translate(6.617)"><path class="e" d="M379.922,95.215a1.069,1.069,0,0,1-1.069-1.069V89.432a1.069,1.069,0,0,1,2.138,0v4.714A1.069,1.069,0,0,1,379.922,95.215Z" transform="translate(-378.853 -88.364)"/><g transform="translate(0 8.249)"><path class="e" d="M379.922,103.21a1.069,1.069,0,0,1-1.069-1.069V97.426a1.069,1.069,0,0,1,2.138,0v4.714A1.069,1.069,0,0,1,379.922,103.21Z" transform="translate(-378.853 -96.357)"/></g></g><g transform="translate(0 6.481)"><g transform="translate(8.999)"><path class="e" d="M386.464,96.782H382.23a1.069,1.069,0,0,1,0-2.138h4.234a1.069,1.069,0,1,1,0,2.138Z" transform="translate(-381.161 -94.644)"/></g><path class="e" d="M377.744,96.782H373.51a1.069,1.069,0,0,1,0-2.138h4.234a1.069,1.069,0,0,1,0,2.138Z" transform="translate(-372.441 -94.644)"/></g></g></g><g transform="translate(0 6.657)"><g transform="translate(49.22 0.736)"><path class="d" d="M77.97,45.868a6.815,6.815,0,1,1,6.814,6.815A6.822,6.822,0,0,1,77.97,45.868Zm2.138,0a4.677,4.677,0,1,0,4.676-4.676A4.681,4.681,0,0,0,80.108,45.868Z" transform="translate(-77.97 -39.054)"/></g><g transform="translate(21.854 26.71)"><path class="c" d="M51.452,71.038a6.814,6.814,0,1,1,6.814,6.814A6.823,6.823,0,0,1,51.452,71.038Zm2.137,0a4.677,4.677,0,1,0,4.677-4.677A4.681,4.681,0,0,0,53.589,71.038Z" transform="translate(-51.452 -64.223)"/></g><g transform="translate(0 36.237)"><g transform="translate(6.616)"><path class="d" d="M37.756,80.305a1.069,1.069,0,0,0,1.069-1.069V74.522a1.069,1.069,0,0,0-2.138,0v4.714A1.069,1.069,0,0,0,37.756,80.305Z" transform="translate(-36.687 -73.454)"/><g transform="translate(0 8.25)"><path class="d" d="M37.756,88.3a1.069,1.069,0,0,0,1.069-1.069V82.516a1.069,1.069,0,0,0-2.138,0V87.23A1.069,1.069,0,0,0,37.756,88.3Z" transform="translate(-36.687 -81.448)"/></g></g><g transform="translate(0 6.482)"><path class="d" d="M31.344,81.872h4.235a1.069,1.069,0,1,0,0-2.137H31.344a1.069,1.069,0,0,0,0,2.137Z" transform="translate(-30.276 -79.735)"/><g transform="translate(8.999)"><path class="d" d="M40.064,81.872H44.3a1.069,1.069,0,1,0,0-2.137H40.064a1.069,1.069,0,0,0,0,2.137Z" transform="translate(-38.996 -79.735)"/></g></g></g><g transform="translate(24.631)"><g transform="translate(6.616)"><path class="e" d="M61.623,45.192a1.069,1.069,0,0,0,1.069-1.069V39.409a1.069,1.069,0,0,0-2.138,0v4.714A1.069,1.069,0,0,0,61.623,45.192Z" transform="translate(-60.554 -38.341)"/><g transform="translate(0 8.25)"><path class="e" d="M61.623,53.186a1.069,1.069,0,0,0,1.069-1.069V47.4a1.069,1.069,0,0,0-2.138,0v4.714A1.069,1.069,0,0,0,61.623,53.186Z" transform="translate(-60.554 -46.335)"/></g></g><g transform="translate(0 6.482)"><path class="e" d="M55.212,46.759h4.234a1.069,1.069,0,1,0,0-2.137H55.212a1.069,1.069,0,1,0,0,2.137Z" transform="translate(-54.143 -44.622)"/><g transform="translate(8.999)"><path class="e" d="M63.932,46.759h4.234a1.069,1.069,0,1,0,0-2.137H63.932a1.069,1.069,0,1,0,0,2.137Z" transform="translate(-62.863 -44.622)"/></g></g></g></g><g transform="translate(256.147 16.474)"><path class="c" d="M334.439,52.822V73.573a4.97,4.97,0,0,1-4.969,4.968H291.794l-11.376,4.082a1.447,1.447,0,0,1-1.838-1.884l4.3-11.112v-16.8a4.97,4.97,0,0,1,4.97-4.969H329.47A4.971,4.971,0,0,1,334.439,52.822Z" transform="translate(-278.479 -47.853)"/><g class="o" transform="translate(12.081 8.097)"><path class="l" d="M326.121,58.441H291.557a1.371,1.371,0,0,1-1.372-1.37h0a1.372,1.372,0,0,1,1.372-1.372h34.565a1.372,1.372,0,0,1,1.372,1.372h0A1.371,1.371,0,0,1,326.121,58.441Z" transform="translate(-290.185 -55.699)"/><path class="l" d="M326.121,63.792H291.557a1.372,1.372,0,0,1-1.372-1.372h0a1.371,1.371,0,0,1,1.372-1.37h34.565a1.371,1.371,0,0,1,1.372,1.37h0A1.371,1.371,0,0,1,326.121,63.792Z" transform="translate(-290.185 -55.528)"/><path class="l" d="M326.121,69.142H291.557a1.372,1.372,0,0,1-1.372-1.372h0a1.371,1.371,0,0,1,1.372-1.37h34.565a1.371,1.371,0,0,1,1.372,1.37h0A1.372,1.372,0,0,1,326.121,69.142Z" transform="translate(-290.185 -55.357)"/></g></g></g></g></g></g></svg>