<svg xmlns="http://www.w3.org/2000/svg" width="25.428" height="25.082" viewBox="0 0 25.428 25.082"><defs><style>.a{fill:#fff;}</style></defs><g transform="translate(0.001 0)"><path class="a" d="M33.273,18.459a.75.75,0,0,0-.057-.1l-.039-.03a.751.751,0,0,0-.073-.076l-.021-.021-3.167-2.623V14.228a3.177,3.177,0,0,0-3.174-3.174H24.417L21.9,8.963a1.968,1.968,0,0,0-2.5,0l-2.521,2.082H14.549a3.177,3.177,0,0,0-3.174,3.174v1.393l-3.17,2.608-.021.021a.756.756,0,0,0-.073.076l-.036.042a.756.756,0,0,0-.057.1L8,18.5a.75.75,0,0,0-.066.3V30.422A3.177,3.177,0,0,0,11.1,33.6h19.08a3.177,3.177,0,0,0,3.174-3.174V18.8a.753.753,0,0,0-.066-.3Zm-3.358-.907,1.466,1.209-1.466,1.094Zm-9.572-7.414a.453.453,0,0,1,.577,0l1.109.907H19.246Zm-1.889,8.239H19.89V16.942a.756.756,0,1,1,1.511,0v1.436h1.436a.756.756,0,1,1,0,1.511H21.4v1.436a.756.756,0,0,1-1.511,0V19.889H18.454a.756.756,0,1,1,0-1.511Zm-7.078-.816v2.306L9.91,18.774Zm20.471,12.86a1.665,1.665,0,0,1-1.662,1.662H11.107a1.665,1.665,0,0,1-1.662-1.662V20.309l2.116,1.572a.753.753,0,0,0,.3.221l7.607,5.685a1.977,1.977,0,0,0,2.348,0L29.443,22.1a.753.753,0,0,0,.3-.221l2.116-1.572Z" transform="translate(-7.93 -8.514)"/></g></svg>