<svg xmlns="http://www.w3.org/2000/svg" width="29.021" height="29.021" viewBox="0 0 29.021 29.021"><defs><style>.a{fill:#007bb5;}.b{fill:#fff;}</style></defs><path class="a" d="M29.021,27.207a1.814,1.814,0,0,1-1.814,1.814H1.814A1.814,1.814,0,0,1,0,27.207V1.814A1.814,1.814,0,0,1,1.814,0H27.207a1.814,1.814,0,0,1,1.814,1.814Z"/><g transform="translate(6.348 5.441)"><rect class="b" width="3.628" height="12.696" transform="translate(0 4.534)"/><path class="b" d="M19.8,11c-2.531,0-2.966.923-3.173,1.814V11H13V23.7h3.628V16.441a1.63,1.63,0,0,1,1.814-1.814,1.637,1.637,0,0,1,1.814,1.814V23.7h3.628V17.348C23.883,13.721,23.41,11,19.8,11Z" transform="translate(-7.559 -6.466)"/><circle class="b" cx="1.814" cy="1.814" r="1.814"/></g></svg>