<svg xmlns="http://www.w3.org/2000/svg" width="15.232" height="15.988" viewBox="0 0 15.232 15.988"><defs><style>.a{fill:#8b7979;}</style></defs><g transform="translate(0 -0.001)"><path class="a" d="M45.992,29.988a4,4,0,1,0-4.662,3.936.5.5,0,0,0,0,.06v4.662a.666.666,0,1,0,1.332,0V33.984a.494.494,0,0,0,0-.06A4,4,0,0,0,45.992,29.988Zm-4,2.664a2.664,2.664,0,1,1,2.664-2.664A2.664,2.664,0,0,1,42,32.652Z" transform="translate(-34.379 -25.988)"/><path class="a" d="M27.13,60.553c0,1.892,3.953,2.751,7.616,2.751s7.616-.859,7.616-2.751c0-1.688-2.957-2.331-4.722-2.568a.672.672,0,0,0-.173,1.332c2.6.333,3.52,1.039,3.563,1.245-.077.376-2.128,1.409-6.284,1.409s-6.207-1.032-6.284-1.415c.043-.213.972-.912,3.59-1.255a.672.672,0,1,0-.173-1.332C30.107,58.212,27.13,58.858,27.13,60.553Z" transform="translate(-27.13 -47.315)"/></g></svg>