<svg xmlns="http://www.w3.org/2000/svg" width="188.425" height="35.117" viewBox="0 0 188.425 35.117"><g transform="translate(-209.349 173.799)"><path d="M209.349-173.727h8.5v11.4h6.607V-173.8h8.424v27.592h-8.424V-158.84h-6.682v12.489h-8.424v-27.376" transform="translate(0)" fill="#eb332e" fill-rule="evenodd"/><path d="M209.349-173.727h8.5v11.4h6.607V-173.8h8.424v27.592h-8.424V-158.84h-6.682v12.489h-8.424Z" transform="translate(0)" fill="none"/><path d="M293.341-150.782a10.092,10.092,0,0,1,.5,3.328c.029,2.714.033,5.915-.025,6.584a6.314,6.314,0,0,1-1.652,4.056c-1.09.917-2.415.536-3.242-.708s-1.118-2.417-1.057-5.936-.125-5.956.535-7.4,1.346-2.041,1.974-2.16C291.7-153.281,292.707-152.388,293.341-150.782Zm-2.819-4.608a13.538,13.538,0,0,1,4.939.708,9.438,9.438,0,0,1,5.388,4.477,12.086,12.086,0,0,1,.63,9.569,9.66,9.66,0,0,1-4.721,5.421,13.482,13.482,0,0,1-5.977,1.194,11.756,11.756,0,0,1-7.04-2.025,10.088,10.088,0,0,1-3.816-5.5c-.589-2.281-.95-6.362,1.481-9.586a10.322,10.322,0,0,1,6.908-4.06,11.214,11.214,0,0,1,2.208-.2" transform="translate(-44.221 -11.599)" fill="#eb332e" fill-rule="evenodd"/><path d="M293.341-150.782a10.092,10.092,0,0,1,.5,3.328c.029,2.714.033,5.915-.025,6.584a6.314,6.314,0,0,1-1.652,4.056c-1.09.917-2.415.536-3.242-.708s-1.118-2.417-1.057-5.936-.125-5.956.535-7.4,1.346-2.041,1.974-2.16C291.7-153.281,292.707-152.388,293.341-150.782Zm-2.819-4.608a13.538,13.538,0,0,1,4.939.708,9.438,9.438,0,0,1,5.388,4.477,12.086,12.086,0,0,1,.63,9.569,9.66,9.66,0,0,1-4.721,5.421,13.482,13.482,0,0,1-5.977,1.194,11.756,11.756,0,0,1-7.04-2.025,10.088,10.088,0,0,1-3.816-5.5c-.589-2.281-.95-6.362,1.481-9.586a10.322,10.322,0,0,1,6.908-4.06A11.214,11.214,0,0,1,290.522-155.39Z" transform="translate(-44.221 -11.599)" fill="none"/><path d="M354.934-148.922v14.385l-7.883,0v-19.994h7.922v2.69a7.822,7.822,0,0,1,2.647-2.335,8.865,8.865,0,0,1,7.2-.279,5.383,5.383,0,0,1,3.346,4.692l.012,15.226h-7.78V-148.46a3.086,3.086,0,0,0-.632-2.1,2.444,2.444,0,0,0-2.8-.285c-1.077.575-2.179,1.769-2.025,1.922" transform="translate(-86.813 -11.789)" fill="#eb332e" fill-rule="evenodd"/><path d="M354.934-148.922v14.385l-7.883,0v-19.994h7.922v2.69a7.822,7.822,0,0,1,2.647-2.335,8.865,8.865,0,0,1,7.2-.279,5.383,5.383,0,0,1,3.346,4.692l.012,15.226h-7.78V-148.46a3.086,3.086,0,0,0-.632-2.1,2.444,2.444,0,0,0-2.8-.285C355.882-150.268,354.78-149.074,354.934-148.922Z" transform="translate(-86.813 -11.789)" fill="none"/><path d="M411.941-149.989c1.568-3.156,5.57-5.677,10.5-5.427s7.76,2.048,9.5,5.355a13.864,13.864,0,0,1,1.249,6.539l-14.21-.041v4.071a3.582,3.582,0,0,0,.464,1.249c.32.429,1.609,2.089,5.462,1.481,4.274-.677,4.155-3.714,4.241-3.714l3.381-.016a5.255,5.255,0,0,1-1.444,3.357,11.924,11.924,0,0,1-6.678,3c-2.786.285-6.724.367-9.9-2.28a10.359,10.359,0,0,1-3.246-4.776A12.353,12.353,0,0,1,411.941-149.989Zm7.021,3.8a27.7,27.7,0,0,1,.176-3.861,4.473,4.473,0,0,1,1.533-2.719,2.559,2.559,0,0,1,3.069.22,4.078,4.078,0,0,1,1.108,1.9,10.563,10.563,0,0,1,.316,2.657c-.016,1.124-.016,1.758,0,1.8h-6.2" transform="translate(-126.969 -11.579)" fill="#eb332e" fill-rule="evenodd"/><path d="M411.941-149.989c1.568-3.156,5.57-5.677,10.5-5.427s7.76,2.048,9.5,5.355a13.864,13.864,0,0,1,1.249,6.539l-14.21-.041v4.071a3.582,3.582,0,0,0,.464,1.249c.32.429,1.609,2.089,5.462,1.481,4.274-.677,4.155-3.714,4.241-3.714l3.381-.016a5.255,5.255,0,0,1-1.444,3.357,11.924,11.924,0,0,1-6.678,3c-2.786.285-6.724.367-9.9-2.28a10.359,10.359,0,0,1-3.246-4.776A12.353,12.353,0,0,1,411.941-149.989Zm7.021,3.8a27.7,27.7,0,0,1,.176-3.861,4.473,4.473,0,0,1,1.533-2.719,2.559,2.559,0,0,1,3.069.22,4.078,4.078,0,0,1,1.108,1.9,10.563,10.563,0,0,1,.316,2.657c-.016,1.124-.016,1.758,0,1.8Z" transform="translate(-126.969 -11.579)" fill="none"/><path d="M605.994-149.989c1.568-3.156,5.571-5.677,10.5-5.427s7.758,2.048,9.5,5.355a13.714,13.714,0,0,1,1.231,6.539l-14.192-.041v4.071a3.581,3.581,0,0,0,.464,1.249c.322.429,1.609,2.089,5.462,1.481,4.276-.677,4.157-3.734,4.243-3.734l3.379,0a5.256,5.256,0,0,1-1.444,3.357,11.918,11.918,0,0,1-6.678,3c-2.786.285-6.724.367-9.9-2.28a10.373,10.373,0,0,1-3.246-4.776A12.363,12.363,0,0,1,605.994-149.989Zm7.023,3.8a27.912,27.912,0,0,1,.174-3.861,4.483,4.483,0,0,1,1.533-2.719,2.562,2.562,0,0,1,3.071.22,4.086,4.086,0,0,1,1.106,1.9,10.63,10.63,0,0,1,.318,2.657c-.018,1.124-.018,1.758,0,1.8h-6.2" transform="translate(-249.309 -11.579)" fill="#eb332e" fill-rule="evenodd"/><path d="M605.994-149.989c1.568-3.156,5.571-5.677,10.5-5.427s7.758,2.048,9.5,5.355a13.714,13.714,0,0,1,1.231,6.539l-14.192-.041v4.071a3.581,3.581,0,0,0,.464,1.249c.322.429,1.609,2.089,5.462,1.481,4.276-.677,4.157-3.734,4.243-3.734l3.379,0a5.256,5.256,0,0,1-1.444,3.357,11.918,11.918,0,0,1-6.678,3c-2.786.285-6.724.367-9.9-2.28a10.373,10.373,0,0,1-3.246-4.776A12.363,12.363,0,0,1,605.994-149.989Zm7.023,3.8a27.912,27.912,0,0,1,.174-3.861,4.483,4.483,0,0,1,1.533-2.719,2.562,2.562,0,0,1,3.071.22,4.086,4.086,0,0,1,1.106,1.9,10.63,10.63,0,0,1,.318,2.657c-.018,1.124-.018,1.758,0,1.8Z" transform="translate(-249.309 -11.579)" fill="none"/><path d="M466.806-153.555H475.4l3.669,9.5,3.919-9.5,10.813.027,3.474,11.2,3.057-11.229h6.892l3.392,11.061,3.03-11.061H517.2l-5.5,20.011h-6.477l-3.615-11.674-3.2,11.674h-6.644l-5.921-19.317-8.31,20.372s-1.2,3.336-2.669,4.641a6.247,6.247,0,0,1-5.753,1.806c-2.669-.472-3.724-1.861-3.919-3.5a3.223,3.223,0,0,1,2.53-3.724c1.888-.361,3.112.361,3.556,1.28a3.377,3.377,0,0,1,.279,2.528,2.871,2.871,0,0,1-.667.946,2.179,2.179,0,0,0,2.029-.751,8.166,8.166,0,0,0,1.7-3.057,3.508,3.508,0,0,0,.168-.778l-7.979-20.456" transform="translate(-161.279 -12.763)" fill="#eb332e" fill-rule="evenodd"/><path d="M466.806-153.555H475.4l3.669,9.5,3.919-9.5,10.813.027,3.474,11.2,3.057-11.229h6.892l3.392,11.061,3.03-11.061H517.2l-5.5,20.011h-6.477l-3.615-11.674-3.2,11.674h-6.644l-5.921-19.317-8.31,20.372s-1.2,3.336-2.669,4.641a6.247,6.247,0,0,1-5.753,1.806c-2.669-.472-3.724-1.861-3.919-3.5a3.223,3.223,0,0,1,2.53-3.724c1.888-.361,3.112.361,3.556,1.28a3.377,3.377,0,0,1,.279,2.528,2.871,2.871,0,0,1-.667.946,2.179,2.179,0,0,0,2.029-.751,8.166,8.166,0,0,0,1.7-3.057,3.508,3.508,0,0,0,.168-.778Z" transform="translate(-161.279 -12.763)" fill="none"/><path d="M671.863-173.773h7.567v27.493h-7.567Z" transform="translate(-291.589 -0.017)" fill="#eb332e" fill-rule="evenodd"/><path d="M671.863-173.773h7.567v27.493h-7.567Z" transform="translate(-291.589 -0.017)" fill="none"/><path d="M698.737-173.683H706.3v27.493h-7.567Z" transform="translate(-308.531 -0.073)" fill="#eb332e" fill-rule="evenodd"/><path d="M698.737-173.683H706.3v27.493h-7.567Z" transform="translate(-308.531 -0.073)" fill="none"/></g></svg>