<svg xmlns="http://www.w3.org/2000/svg" width="208.251" height="45.893" viewBox="0 0 208.251 45.893"><defs><style>.a{fill:#009dfe;}.b,.d{fill:#fff;}.b{opacity:0.76;}.c{fill:#f3f5ff;}.c,.d{opacity:0.62;}</style></defs><g transform="translate(-84.999 -36.486)"><g transform="translate(-488 -45)"><g transform="translate(477.252 -25)"><rect class="a" width="45.017" height="45.892" rx="13" transform="translate(95.748 106.486)"/><path class="b" d="M0,0H16.274V16.274H0Z" transform="translate(118.27 112.182) rotate(45)"/><rect class="c" width="16.274" height="16.274" transform="translate(118.27 123.651) rotate(45)"/><path class="d" d="M773.254,214.5H784.76l11.474,11.474H784.76Z" transform="translate(-666.492 -90.811)"/></g><path class="a" d="M10.707-10.254A3.418,3.418,0,0,1,13.2-9.3a3.36,3.36,0,0,1,.977,2.515A3.459,3.459,0,0,1,13.2-4.239a3.362,3.362,0,0,1-2.494.985A3.425,3.425,0,0,1,8.14-4.239a3.487,3.487,0,0,1-.962-2.544A3.387,3.387,0,0,1,8.14-9.3,3.482,3.482,0,0,1,10.707-10.254Z" transform="translate(767.072 119.262)"/><path d="M12.579-38.518a3.231,3.231,0,0,0-1.147-2.356,4.725,4.725,0,0,0-2.945-.775,5,5,0,0,0-2.759.62,2.028,2.028,0,0,0-.93,1.8,1.928,1.928,0,0,0,.729,1.581,6.615,6.615,0,0,0,2.465,1.023q1.767.434,3.364.852a16.863,16.863,0,0,1,2.744.945,8.4,8.4,0,0,1,1.271.713,4.235,4.235,0,0,1,1.023.992,4.621,4.621,0,0,1,.682,1.395,6.454,6.454,0,0,1,.248,1.891,6.556,6.556,0,0,1-.6,2.929,5.5,5.5,0,0,1-1.705,2.03,7.542,7.542,0,0,1-2.6,1.193,13.215,13.215,0,0,1-3.3.387,13.682,13.682,0,0,1-3.5-.418A7.753,7.753,0,0,1,2.876-25a6.148,6.148,0,0,1-1.8-2.154A6.893,6.893,0,0,1,.4-30.179H4.55a3.111,3.111,0,0,0,1.287,2.5,5.4,5.4,0,0,0,3.3.914,4.954,4.954,0,0,0,2.961-.759,2.511,2.511,0,0,0,1.039-2.154A2.37,2.37,0,0,0,13-30.52a1.818,1.818,0,0,0-.5-.7,3.436,3.436,0,0,0-.977-.589,9.438,9.438,0,0,0-1.581-.48q-1.922-.434-3.24-.759a13.642,13.642,0,0,1-2.4-.821,6.246,6.246,0,0,1-2.558-1.937,5.162,5.162,0,0,1-.884-3.146,6.826,6.826,0,0,1,.465-2.557,5.232,5.232,0,0,1,1.411-2,6.639,6.639,0,0,1,2.356-1.3,10.564,10.564,0,0,1,3.3-.465,11.175,11.175,0,0,1,3.472.5,7.33,7.33,0,0,1,2.558,1.395,6.293,6.293,0,0,1,1.612,2.139,7.141,7.141,0,0,1,.636,2.728Zm5.983,14.508V-39.262h4.03v15.252Zm0-17.081v-3.751h4.03v3.751ZM42.309-24.011v-9.238a3.674,3.674,0,0,0-.651-2.263,2.062,2.062,0,0,0-1.736-.868,2.248,2.248,0,0,0-1.845.93,3.655,3.655,0,0,0-.729,2.325v9.114h-4.03v-9.176a7.6,7.6,0,0,0-.124-1.519,2.042,2.042,0,0,0-.419-.93,1.577,1.577,0,0,0-.76-.48,3.915,3.915,0,0,0-1.116-.139q-2.449,0-2.449,2.976v9.269h-4.03V-39.262H28.2v2.232a4.531,4.531,0,0,1,1.86-2.077,5.633,5.633,0,0,1,2.6-.558,6.908,6.908,0,0,1,1.38.124,3.343,3.343,0,0,1,1.085.418,4.408,4.408,0,0,1,.915.759,8.743,8.743,0,0,1,.868,1.116,4.074,4.074,0,0,1,1.643-1.844,5,5,0,0,1,2.48-.573,5.587,5.587,0,0,1,2.108.387,4.75,4.75,0,0,1,1.643,1.085,5.119,5.119,0,0,1,1.07,1.627,5.106,5.106,0,0,1,.388,1.984v10.571Zm12.679-3.038q3.472,0,3.472-4.712a5.424,5.424,0,0,0-.961-3.332,2.964,2.964,0,0,0-2.48-1.286,3.009,3.009,0,0,0-2.434,1.209,4.877,4.877,0,0,0-.977,3.162Q51.609-27.048,54.988-27.048ZM47.8-16.788V-39.262h3.875L51.7-37.4a4.65,4.65,0,0,1,4.247-2.263,6.316,6.316,0,0,1,2.651.558A5.791,5.791,0,0,1,60.692-37.5a7.815,7.815,0,0,1,1.364,2.573,11.063,11.063,0,0,1,.5,3.441,11.368,11.368,0,0,1-.419,3.177,7.507,7.507,0,0,1-1.225,2.5,5.534,5.534,0,0,1-1.969,1.627,5.914,5.914,0,0,1-2.651.573,5.3,5.3,0,0,1-4.526-2.387v9.207Zm16.213-7.223V-44.842h4.03v20.831Zm5.828,0V-39.262h4.03v15.252Zm0-17.081v-3.751h4.03v3.751Zm7.44,17.081v-12.4H75.014v-2.852h2.263q0-5.58,6.479-5.58v3.255a5.892,5.892,0,0,0-1.256.108,1.518,1.518,0,0,0-.76.387,1.5,1.5,0,0,0-.388.728,4.767,4.767,0,0,0-.109,1.1h2.6v2.852h-2.6v12.4Zm17.267-2.015a3.173,3.173,0,0,1-1.566,1.6,5.577,5.577,0,0,1-2.558.573,6.252,6.252,0,0,1-2.232-.387,5.048,5.048,0,0,1-1.767-1.116,5.179,5.179,0,0,1-1.163-1.736,5.891,5.891,0,0,1-.419-2.278v-9.889h4.03v9.3q0,2.852,2.573,2.852a3.137,3.137,0,0,0,2.248-.806,2.694,2.694,0,0,0,.853-2.046v-9.3h4.03v15.655a7.28,7.28,0,0,1-.543,2.883,6.119,6.119,0,0,1-1.488,2.139,6.552,6.552,0,0,1-2.232,1.333,8.01,8.01,0,0,1-2.744.465,6.791,6.791,0,0,1-5.053-1.7,6.393,6.393,0,0,1-1.674-4.681h3.751a2.858,2.858,0,0,0,.791,2.139,3.261,3.261,0,0,0,2.372.775,2.453,2.453,0,0,0,1.054-.232,2.839,2.839,0,0,0,.884-.651,3.119,3.119,0,0,0,.62-1.038,3.856,3.856,0,0,0,.233-1.364Zm15.624,2.015v-9.455a3.484,3.484,0,0,0-.6-2.371,2.667,2.667,0,0,0-2-.635,2.94,2.94,0,0,0-1.333.294,2.9,2.9,0,0,0-.992.806,3.536,3.536,0,0,0-.6,1.178,4.96,4.96,0,0,0-.2,1.441v8.742H100.4V-44.842h4.03v7.564a3.108,3.108,0,0,1,.667-.945,4.269,4.269,0,0,1,1.039-.759,6.082,6.082,0,0,1,1.3-.5,5.872,5.872,0,0,1,1.488-.186,5.608,5.608,0,0,1,3.829,1.286,4.5,4.5,0,0,1,1.473,3.58v10.788Zm5.921,0V-39.262h4.03v15.252Zm0-17.081v-3.751h4.03v3.751Zm5.859,17.081V-39.262h3.782v1.829a4.94,4.94,0,0,1,1.039-1.209,4.492,4.492,0,0,1,1.116-.666,4.273,4.273,0,0,1,1.163-.294,11.545,11.545,0,0,1,1.209-.062h.527v4.123a6.778,6.778,0,0,0-1.116-.093q-3.689,0-3.689,3.689v7.936Zm19.065-9.114a4.238,4.238,0,0,0-.295-1.472,3.078,3.078,0,0,0-.7-1.054,2.771,2.771,0,0,0-.992-.62,3.353,3.353,0,0,0-1.147-.2,2.86,2.86,0,0,0-2.093.883,3.771,3.771,0,0,0-1.008,2.464Zm-6.355,2.542a4.354,4.354,0,0,0,1.008,2.759,3.068,3.068,0,0,0,2.4,1.023,3.374,3.374,0,0,0,1.752-.449,2.035,2.035,0,0,0,.977-1.255h4.154a6.689,6.689,0,0,1-2.48,3.627,7.028,7.028,0,0,1-4.216,1.271q-7.626,0-7.626-8.308a9.675,9.675,0,0,1,.5-3.193,6.894,6.894,0,0,1,1.442-2.449,6.231,6.231,0,0,1,2.31-1.565,8.425,8.425,0,0,1,3.131-.542,6.445,6.445,0,0,1,5.348,2.263q1.814,2.263,1.814,6.82Z" transform="translate(625 140)"/></g></g></svg>