<svg xmlns="http://www.w3.org/2000/svg" width="15.734" height="15.688" viewBox="0 0 15.734 15.688"><defs><style>.a{fill:#dbd3d3;}</style></defs><g transform="translate(-341.133 329.843)"><g transform="translate(339.356 -331.663)"><g transform="translate(1.777 1.819)"><g transform="translate(8.996 4.887)"><g transform="translate(3.095)"><path class="a" d="M24.436,16.568l-.8-.764L25.746,13.6l-2.1-2.173.8-.769,2.841,2.938Z" transform="translate(-23.637 -10.654)"/></g><g transform="translate(0 2.404)"><rect class="a" width="6.029" height="1.106"/></g></g><g transform="translate(4.932)"><path class="a" d="M11.465,5.459l-.771-.794,2.935-2.846,2.979,2.839-.763.8-2.21-2.105Z" transform="translate(-10.694 -1.819)"/><g transform="translate(2.403 0.653)"><rect class="a" width="6.084" height="1.106" transform="translate(1.106) rotate(89.937)"/></g></g><g transform="translate(4.932 8.95)"><g transform="translate(0 3.098)"><path class="a" d="M13.629,27.241l-2.935-2.846.771-.794,2.171,2.105,2.21-2.105.763.8Z" transform="translate(-10.694 -23.601)"/></g><g transform="translate(2.406)"><rect class="a" width="1.106" height="6.084"/></g></g><g transform="translate(0 4.888)"><path class="a" d="M4.618,16.57,1.777,13.632l2.844-2.976.8.764L3.311,13.627l2.1,2.173Z" transform="translate(-1.777 -10.656)"/><g transform="translate(1.298 2.403)"><rect class="a" width="5.486" height="1.106"/></g></g></g></g></g></svg>