<svg xmlns="http://www.w3.org/2000/svg" width="134.161" height="24.813" viewBox="0 0 134.161 24.813"><defs><style>.a{fill:#fff;}</style></defs><path class="a" d="M10.773-12.636a2.814,2.814,0,0,0-1-2.052,4.115,4.115,0,0,0-2.565-.675,4.358,4.358,0,0,0-2.4.54A1.766,1.766,0,0,0,4-13.257a1.679,1.679,0,0,0,.635,1.377,5.762,5.762,0,0,0,2.147.891q1.539.378,2.93.742a14.686,14.686,0,0,1,2.389.824A7.318,7.318,0,0,1,13.2-8.8a3.689,3.689,0,0,1,.891.864,4.025,4.025,0,0,1,.594,1.215A5.622,5.622,0,0,1,14.9-5.076a5.71,5.71,0,0,1-.527,2.552A4.788,4.788,0,0,1,12.893-.756,6.569,6.569,0,0,1,10.625.284,11.51,11.51,0,0,1,7.749.621,11.916,11.916,0,0,1,4.7.257,6.753,6.753,0,0,1,2.322-.864,5.355,5.355,0,0,1,.756-2.741,6,6,0,0,1,.162-5.373H3.78A2.71,2.71,0,0,0,4.9-3.2a4.7,4.7,0,0,0,2.876.8,4.314,4.314,0,0,0,2.578-.661,2.187,2.187,0,0,0,.9-1.877,2.064,2.064,0,0,0-.122-.729,1.584,1.584,0,0,0-.432-.608,2.993,2.993,0,0,0-.851-.513,8.219,8.219,0,0,0-1.377-.419Q6.8-7.587,5.657-7.871a11.882,11.882,0,0,1-2.093-.716,5.44,5.44,0,0,1-2.227-1.687,4.5,4.5,0,0,1-.77-2.741,5.946,5.946,0,0,1,.405-2.227A4.557,4.557,0,0,1,2.2-16.983a5.782,5.782,0,0,1,2.052-1.134,9.2,9.2,0,0,1,2.875-.405,9.733,9.733,0,0,1,3.024.432,6.384,6.384,0,0,1,2.227,1.215,5.481,5.481,0,0,1,1.4,1.863,6.22,6.22,0,0,1,.554,2.376ZM15.984,0V-13.284h3.51V0Zm0-14.877v-3.267h3.51v3.267ZM36.666,0V-8.046a3.2,3.2,0,0,0-.567-1.971,1.8,1.8,0,0,0-1.512-.756,1.958,1.958,0,0,0-1.607.81,3.183,3.183,0,0,0-.634,2.025V0h-3.51V-7.992a6.623,6.623,0,0,0-.108-1.323,1.779,1.779,0,0,0-.365-.81,1.373,1.373,0,0,0-.661-.418,3.41,3.41,0,0,0-.972-.122q-2.133,0-2.133,2.592V0h-3.51V-13.284h3.294v1.944A3.946,3.946,0,0,1,26-13.149a4.906,4.906,0,0,1,2.268-.486,6.016,6.016,0,0,1,1.2.108,2.912,2.912,0,0,1,.945.365,3.839,3.839,0,0,1,.8.661,7.615,7.615,0,0,1,.756.972A3.549,3.549,0,0,1,33.4-13.136a4.355,4.355,0,0,1,2.16-.5A4.865,4.865,0,0,1,37.4-13.3a4.137,4.137,0,0,1,1.431.945,4.459,4.459,0,0,1,.931,1.417A4.447,4.447,0,0,1,40.1-9.207V0ZM47.709-2.646q3.024,0,3.024-4.1a4.724,4.724,0,0,0-.837-2.9,2.581,2.581,0,0,0-2.16-1.121A2.62,2.62,0,0,0,45.617-9.72a4.248,4.248,0,0,0-.851,2.754Q44.766-2.646,47.709-2.646ZM41.445,6.291V-13.284H44.82l.027,1.62a4.05,4.05,0,0,1,3.7-1.971,5.5,5.5,0,0,1,2.308.486,5.043,5.043,0,0,1,1.823,1.4A6.807,6.807,0,0,1,53.865-9.5a9.636,9.636,0,0,1,.432,3,9.9,9.9,0,0,1-.364,2.768,6.539,6.539,0,0,1-1.067,2.173A4.82,4.82,0,0,1,51.152-.149a5.151,5.151,0,0,1-2.308.5A4.618,4.618,0,0,1,44.9-1.728V6.291ZM55.566,0V-18.144h3.51V0Zm5.076,0V-13.284h3.51V0Zm0-14.877v-3.267h3.51v3.267ZM67.122,0V-10.8H65.151v-2.484h1.971q0-4.86,5.643-4.86v2.835a5.131,5.131,0,0,0-1.093.094,1.322,1.322,0,0,0-.661.338,1.309,1.309,0,0,0-.338.634,4.152,4.152,0,0,0-.094.959h2.268V-10.8H70.578V0ZM82.161-1.755A2.764,2.764,0,0,1,80.8-.365a4.857,4.857,0,0,1-2.228.5A5.445,5.445,0,0,1,76.626-.2a4.4,4.4,0,0,1-1.539-.972,4.511,4.511,0,0,1-1.013-1.512,5.132,5.132,0,0,1-.364-1.984v-8.613h3.51v8.1q0,2.484,2.241,2.484a2.732,2.732,0,0,0,1.957-.7,2.346,2.346,0,0,0,.743-1.782v-8.1h3.51V.351A6.341,6.341,0,0,1,85.2,2.862a5.33,5.33,0,0,1-1.3,1.863,5.706,5.706,0,0,1-1.944,1.161,6.976,6.976,0,0,1-2.39.405,5.914,5.914,0,0,1-4.4-1.485A5.568,5.568,0,0,1,73.71.729h3.267a2.49,2.49,0,0,0,.688,1.863,2.84,2.84,0,0,0,2.065.675,2.137,2.137,0,0,0,.918-.2,2.473,2.473,0,0,0,.77-.567,2.717,2.717,0,0,0,.54-.9,3.359,3.359,0,0,0,.2-1.188ZM95.769,0V-8.235a3.035,3.035,0,0,0-.527-2.065,2.323,2.323,0,0,0-1.741-.554,2.561,2.561,0,0,0-1.161.256,2.521,2.521,0,0,0-.864.7,3.08,3.08,0,0,0-.527,1.026,4.32,4.32,0,0,0-.175,1.255V0h-3.51V-18.144h3.51v6.588a2.707,2.707,0,0,1,.581-.823,3.718,3.718,0,0,1,.9-.661,5.3,5.3,0,0,1,1.134-.432,5.114,5.114,0,0,1,1.3-.162,4.884,4.884,0,0,1,3.335,1.12A3.923,3.923,0,0,1,99.306-9.4V0Zm5.157,0V-13.284h3.51V0Zm0-14.877v-3.267h3.51v3.267ZM106.029,0V-13.284h3.294v1.593a4.3,4.3,0,0,1,.9-1.053,3.913,3.913,0,0,1,.972-.581,3.722,3.722,0,0,1,1.013-.256,10.055,10.055,0,0,1,1.053-.054h.459v3.591a5.9,5.9,0,0,0-.972-.081q-3.213,0-3.213,3.213V0Zm16.605-7.938a3.691,3.691,0,0,0-.257-1.282,2.681,2.681,0,0,0-.608-.918,2.413,2.413,0,0,0-.864-.54,2.92,2.92,0,0,0-1-.175,2.491,2.491,0,0,0-1.823.769,3.284,3.284,0,0,0-.877,2.147ZM117.1-5.724a3.792,3.792,0,0,0,.878,2.4,2.672,2.672,0,0,0,2.092.891,2.938,2.938,0,0,0,1.525-.391,1.773,1.773,0,0,0,.851-1.094h3.618A5.826,5.826,0,0,1,123.9-.756,6.121,6.121,0,0,1,120.231.351q-6.642,0-6.642-7.236a8.428,8.428,0,0,1,.432-2.781,6,6,0,0,1,1.256-2.133,5.427,5.427,0,0,1,2.011-1.364,7.338,7.338,0,0,1,2.727-.472,5.613,5.613,0,0,1,4.658,1.971q1.58,1.971,1.579,5.94ZM132-4.1a2.3,2.3,0,0,1,1.67.635,2.221,2.221,0,0,1,.654,1.67,2.286,2.286,0,0,1-.654,1.689A2.262,2.262,0,0,1,132,.547a2.3,2.3,0,0,1-1.719-.654,2.305,2.305,0,0,1-.645-1.689,2.239,2.239,0,0,1,.645-1.67A2.343,2.343,0,0,1,132-4.1Z" transform="translate(-0.162 18.521)"/></svg>