<svg xmlns="http://www.w3.org/2000/svg" width="49.715" height="36.836" viewBox="0 0 49.715 36.836"><defs><style>.a{fill:#10a9f5;}</style></defs><g transform="translate(-1.5 -14.1)"><g transform="translate(1.5 14.1)"><path class="a" d="M47.522,49.843A2.822,2.822,0,1,0,44.7,47.022,2.847,2.847,0,0,0,47.522,49.843Zm0-4.1a1.283,1.283,0,1,1-1.283,1.283A1.27,1.27,0,0,1,47.522,45.739Z" transform="translate(-22.537 -28.758)"/><path class="a" d="M49.058,19.641H35.771V16.306A2.234,2.234,0,0,0,33.513,14.1H19.456a2.19,2.19,0,0,0-2.206,2.206v3.335H3.706A2.222,2.222,0,0,0,1.5,21.847V48.73a2.222,2.222,0,0,0,2.206,2.206h45.3a2.222,2.222,0,0,0,2.206-2.206V21.847A2.147,2.147,0,0,0,49.058,19.641ZM18.841,16.306a.62.62,0,0,1,.667-.667H33.513a.691.691,0,0,1,.718.667v3.335H18.841V16.306ZM3.706,21.18h45.3a.679.679,0,0,1,.667.667V32.159c-3.489,1.283-25.293,8.773-46.686,0V21.847A.766.766,0,0,1,3.706,21.18ZM49.058,49.448H3.706a.679.679,0,0,1-.667-.667V33.8a60.794,60.794,0,0,0,22.317,4.053,76.313,76.313,0,0,0,24.369-4.1V48.73A.691.691,0,0,1,49.058,49.448Z" transform="translate(-1.5 -14.1)"/></g></g></svg>