<svg xmlns="http://www.w3.org/2000/svg" width="17.659" height="15.27" viewBox="0 0 17.659 15.27"><defs><style>.a{fill:#959595;}</style></defs><g transform="translate(-2.2 -8.3)"><path class="a" d="M10.826,19.425A4.867,4.867,0,0,1,18.9,15.741V11.595a.956.956,0,0,0-.963-.963H14.214v-.574A1.758,1.758,0,0,0,12.455,8.3H8.623a1.758,1.758,0,0,0-1.759,1.759v.574h-3.7a.956.956,0,0,0-.963.963V22.072a.956.956,0,0,0,.963.963h9.255A4.894,4.894,0,0,1,10.826,19.425ZM7.938,10.059a.7.7,0,0,1,.685-.685h3.832a.7.7,0,0,1,.685.685v.574h-5.2Z"/><path class="a" d="M56.765,45.8a4.165,4.165,0,1,0,4.165,4.165A4.171,4.171,0,0,0,56.765,45.8Zm-.555,5.59-1.425-1.425.518-.518.907.907,1.87-1.87L58.6,49Z" transform="translate(-41.071 -30.558)"/></g></svg>