<svg xmlns="http://www.w3.org/2000/svg" width="49.845" height="49.836" viewBox="0 0 49.845 49.836"><defs><style>.a{fill:#10a9f5;}</style></defs><g transform="translate(-971 -50)"><g transform="translate(971 50)"><g transform="translate(0 0)"><path class="a" d="M23.652,43.3a19.652,19.652,0,0,1,0-39.3,17.866,17.866,0,0,1,1.876.1A19.536,19.536,0,0,1,43.3,23.652a19.75,19.75,0,0,1-4.413,12.425,20.8,20.8,0,0,1-2.8,2.8,19.572,19.572,0,0,1-10.541,4.332A12.946,12.946,0,0,1,23.652,43.3Zm0-37.517a17.865,17.865,0,0,0,0,35.731,12,12,0,0,0,1.724-.08A17.8,17.8,0,0,0,34.952,37.5a19.178,19.178,0,0,0,2.555-2.555,17.937,17.937,0,0,0,4.011-11.291A17.758,17.758,0,0,0,25.358,5.876,15.025,15.025,0,0,0,23.652,5.787Z" transform="translate(-4 -4)"/><path class="a" d="M24.079,40.158a16.079,16.079,0,1,1,10.407-3.823A16.079,16.079,0,0,1,24.079,40.158Zm0-30.371A14.292,14.292,0,1,0,38.371,24.079,14.292,14.292,0,0,0,24.079,9.786Z" transform="translate(-4.427 -4.427)"/><path class="a" d="M53.04,57.721a4.7,4.7,0,0,1-3.315-1.368l-8.119-8.119a2.68,2.68,0,0,1,0-3.787l2.841-2.841a2.68,2.68,0,0,1,3.787,0l8.12,8.12a4.681,4.681,0,0,1-3.314,8.039Zm-6.7-15.105a.893.893,0,0,0-.625.259l-2.841,2.841a.893.893,0,0,0,0,1.251l8.12,8.12a2.894,2.894,0,0,0,4.091-4.091l-8.12-8.12a.893.893,0,0,0-.625-.259Z" transform="translate(-7.93 -7.93)"/><path class="a" d="M42.049,45.624a.893.893,0,0,1-.634-.259L38.539,42.5a.9.9,0,0,1,.063-1.322,19.313,19.313,0,0,0,2.564-2.564.9.9,0,0,1,1.322-.063l2.876,2.876a.893.893,0,0,1,0,1.268l-2.68,2.68A.893.893,0,0,1,42.049,45.624ZM40.486,41.9l1.563,1.572,1.42-1.42L41.9,40.487C41.451,40.979,40.978,41.452,40.486,41.9Z" transform="translate(-7.658 -7.659)"/><path class="a" d="M25.146,27.292a7.146,7.146,0,1,1,7.146-7.146A7.146,7.146,0,0,1,25.146,27.292Zm0-12.506a5.36,5.36,0,1,0,5.36,5.36A5.36,5.36,0,0,0,25.146,14.787Z" transform="translate(-5.494 -4.961)"/><path class="a" d="M24.719,42.186a16.078,16.078,0,0,1-10.405-3.822A.893.893,0,0,1,14,37.719a10.719,10.719,0,1,1,21.439,0,.893.893,0,0,1-.313.679,16.079,16.079,0,0,1-10.407,3.787Zm-8.933-4.913a14.292,14.292,0,0,0,17.865,0,8.933,8.933,0,1,0-17.865,0Z" transform="translate(-5.067 -6.455)"/><path class="a" d="M26.68,31.787H24.893a.893.893,0,1,1,0-1.787H26.68a.893.893,0,1,1,0,1.787Z" transform="translate(-6.135 -6.775)"/><path class="a" d="M25.893,38.933A.893.893,0,0,1,25,38.039V30.893a.893.893,0,0,1,1.787,0v7.146A.893.893,0,0,1,25.893,38.933Z" transform="translate(-6.241 -6.775)"/></g></g></g></svg>