<svg xmlns="http://www.w3.org/2000/svg" width="20.087" height="20.041" viewBox="0 0 20.087 20.041"><defs><style>.a{fill:#3188fc;}</style></defs><g transform="translate(189.144 267.119)"><path class="a" d="M21.233,6.738A6.123,6.123,0,0,0,17.8,2.571,19.683,19.683,0,0,0,11.733,1.8a19.683,19.683,0,0,0-6.063.771A6.123,6.123,0,0,0,2.233,6.738a21.036,21.036,0,0,0-.542,5.083A20.769,20.769,0,0,0,2.213,16.9,6.123,6.123,0,0,0,5.65,21.071a20.343,20.343,0,0,0,6.063.771,19.823,19.823,0,0,0,6.083-.75,6.123,6.123,0,0,0,3.438-4.167,21.036,21.036,0,0,0,.542-5.083A21.094,21.094,0,0,0,21.233,6.738ZM14.9,12.925H12.608v2.292a.9.9,0,1,1-1.792,0V12.925H8.525a.9.9,0,1,1,0-1.792h2.292V8.842a.9.9,0,0,1,1.792,0v2.292H14.9a.9.9,0,1,1,0,1.792Z" transform="translate(-190.834 -268.921)"/></g></svg>