<svg xmlns="http://www.w3.org/2000/svg" xmlns:xlink="http://www.w3.org/1999/xlink" width="162.366" height="138.376" viewBox="0 0 162.366 138.376"><defs><clipPath id="a"><path d="M459.594,251.962s10-26.858-9.562-27.537c-16.373-.57-6.333-16.109-19.415-19.209-11.915-2.822-15.559,14.689-7.683,18.663,4.918,2.481,8.684,9.169,6.848,16.5S431.443,255.544,459.594,251.962Z" transform="translate(-418.755 -204.91)" fill="none"/></clipPath><clipPath id="b"><path d="M461.557,270.022s-7.946-30.468-27.305-16.915c-16.2,11.343-16.689-9.36-31.368-2.585-13.371,6.171-5.409,23.956,4.812,21.7a15.374,15.374,0,0,1,17.44,9.325C428.169,289.216,436.69,293.47,461.557,270.022Z" transform="translate(-395.836 -249.127)" fill="none"/></clipPath><clipPath id="c"><path d="M557.413,253.507s26.564,10.757,27.8-8.778c1.033-16.35,16.282-5.874,19.75-18.863,3.159-11.831-14.241-15.969-18.437-8.209-2.62,4.847-9.411,8.42-16.685,6.378S554.631,225.266,557.413,253.507Z" transform="translate(-556.844 -213.702)" fill="none"/></clipPath><clipPath id="d"><path d="M555.386,270.051s12.566-14.659,21.494-10.039c6.577,3.4,9.16,7.495,13.365,2.223,5.348-6.705,17.737-3.8,19.393,6.307,1.479,9.029-9.692,12.947-14.636,10.9s-7.79,2.328-10.2,6.2-12.415,14.967-23.2,5.036C550.7,280.632,555.386,270.051,555.386,270.051Z" transform="translate(-554.384 -258.616)" fill="none"/></clipPath><clipPath id="e"><path d="M365.741,391.495s-.97,1.535-4.736,1.963a7.521,7.521,0,0,1-.764.065c-.364.007-.435.129-.529.409.212.279,1.517.439,1.864.485a9.413,9.413,0,0,0,3.7-.088c1.017-.282,2.216.218,3.257.007a3.261,3.261,0,0,0,.272-.827,6.867,6.867,0,0,0-.107-1.07c-.024-.357-.531-.3-.79-.167a1.992,1.992,0,0,1-.648.31,4.961,4.961,0,0,1-1.023-.1,1.874,1.874,0,0,0-.671.155,2.288,2.288,0,0,0,.656-.74c.017-.047.083-.219.034-.267C366.155,391.528,365.879,391.559,365.741,391.495Z" fill="none"/></clipPath><clipPath id="f"><path d="M354.742,391.163s-1.11,1.492-4.423,2.043c-.224.037-.446.076-.673.091s-.333.167-.4.426c.2.246,1.632.254,1.941.281a12.471,12.471,0,0,0,3.271-.238c.929-.165,1.97.105,2.882-.131a3.11,3.11,0,0,0,.2-.767,6.5,6.5,0,0,0-.14-.97c-.036-.324-.483-.252-.706-.118a1.75,1.75,0,0,1-.56.309,4.337,4.337,0,0,1-.91-.05,1.635,1.635,0,0,0-.586.169,2.057,2.057,0,0,0,.549-.7c.012-.044.063-.2.018-.244C355.11,391.176,354.867,391.216,354.742,391.163Z" fill="none"/></clipPath></defs><g transform="translate(-183.911 -518.27)"><g transform="translate(-1656.17 -155.133)"><g transform="translate(1853.58 720.009)"><path d="M459.594,251.962s10-26.858-9.562-27.537c-16.373-.57-6.333-16.109-19.415-19.209-11.915-2.822-15.559,14.689-7.683,18.663,4.918,2.481,8.684,9.169,6.848,16.5S431.443,255.544,459.594,251.962Z" transform="translate(-418.755 -204.91)" fill="#8dbe34" fill-rule="evenodd"/><g transform="translate(0 0)"><g clip-path="url(#a)"><g transform="translate(-2.61 -3.277)"><path d="M425.563,209.826a27.047,27.047,0,0,1,2.717-10.459s.033-.065.058.034a25.329,25.329,0,0,0-2.423,10.868l-.032.053.405.627.044.019.194.305a.128.128,0,0,1-.018.014q.7,1.075,1.4,2.146c-.027-3.853,1.688-7.667,3.328-10.5.324-.561.66-1.114.995-1.667,0,0,.144-.253.208.144-2.136,4.081-4.295,8.349-4.138,12.627q1.522,2.328,3.056,4.644a8.141,8.141,0,0,1,.159-1.382c1.014-4.659,3.917-8.6,6.807-12.018,0,0,.283-.392.288-.052l-.438.583c-.594.8-1.179,1.613-1.747,2.431-.072.1-.072.1-.147.207-2.255,3.152-4.225,6.694-4.667,10.616q1.677,2.531,3.361,5.056a13.916,13.916,0,0,1,.055-2.491q.08-.526.187-1.047a21.811,21.811,0,0,1,.8-2.821s.859-2.083,1.525-3.3a32.338,32.338,0,0,1,2.234-3.49s.28-.416.339.147c-.08.122-.16.244-.239.368-2.528,3.967-4.474,8.678-4.632,13.03q1.132,1.7,2.265,3.393a28.939,28.939,0,0,1,5.6-11.6s.133-.174.155.141a31.677,31.677,0,0,0-5.454,11.91q1.573,2.354,3.146,4.712a26.93,26.93,0,0,1,1.312-6.115,36.239,36.239,0,0,1,3.167-6.46l1.264-1.838s.29-.456.343.048c-.507.8-1.2,1.977-1.2,1.977-.082.132-.162.265-.243.4a28.673,28.673,0,0,0-4.235,11.6c-.028.269-.062.587-.09.861q1.511,2.27,3.017,4.547a44.879,44.879,0,0,1,7.242-17.045s.26-.413.283-.153a49.757,49.757,0,0,0-7.234,17.638q1.2,1.815,2.391,3.638c.137-.574.26-1.041.26-1.041a37.382,37.382,0,0,1,10.5-15.334,1.058,1.058,0,0,1,.345-.043l-.026.3A37.411,37.411,0,0,0,447.8,241.3s-.257.68-.5,1.4q1.755,2.687,3.491,5.4s.826,1.316,1.515,2.443c0,0,.617,1.2,1.267,2.506,0,0,.351.572-.2.418-.5-.737-1.013-1.452-1.543-2.158,0,0-1.646-2.59-2.8-4.417q-1-1.58-2-3.154c-.616.058-1.55.14-2.3.175a54.057,54.057,0,0,0-8.17.835,35.712,35.712,0,0,0-10.319,3.808l-.118,0a41.869,41.869,0,0,1,16.766-5.228l.143-.015a16.5,16.5,0,0,1,2.935-.121c.244.027.509.065.75.1l.009-.045q-1.345-2.1-2.7-4.2l-.645.053c-.815-.065-1.631-.128-2.447-.175,0,0-1.543-.133-2.855-.128a34.3,34.3,0,0,0-13.7,3.287l-.244-.024a36.168,36.168,0,0,1,16.763-3.855c.845.054,1.69.13,2.533.2,0,0,.058.017.221.059q-1.3-2.009-2.608-4.013c-5.542.645-11.089.107-16.965,3.226l-.244.017.044-.141a23.41,23.41,0,0,1,9.557-3.265c2.423-.228,4.893-.064,7.345-.239q-1.614-2.475-3.232-4.945c-.524.086-1.283.2-1.885.25a43.978,43.978,0,0,0-11.7,2.279l-.341-.022a2.519,2.519,0,0,1,.616-.386,38.092,38.092,0,0,1,13.1-2.451l-2.419-3.7c-.888.139-2.5.385-3.4.488a27.289,27.289,0,0,0-8.3,1.981l-.2-.084a1.311,1.311,0,0,1,.434-.406,20.148,20.148,0,0,1,5.159-1.732s1.437-.226,2.4-.312c1.232-.108,2.467-.243,3.694-.256q-1.6-2.454-3.2-4.908c-.085-.01,0,0-.221,0,0,0-1.545.382-2.558.68-2.972.848-6.023,1.588-8.714,3.213l-.212-.015.045-.177a28.354,28.354,0,0,1,7.88-3.423,12,12,0,0,1,3.493-.724q-.952-1.464-1.9-2.93a.542.542,0,0,1-.065-.011,19.387,19.387,0,0,0-7.292.16,39.648,39.648,0,0,0-7.476,2.138l-.163-.077a1.93,1.93,0,0,1,.5-.37c3.7-1.643,7.6-2.861,11.3-2.722a16.137,16.137,0,0,1,2.867.375q-1.518-2.351-3.021-4.709a18.81,18.81,0,0,0-11.286-.062s-.549-.179.271-.458A17.3,17.3,0,0,1,421,209.74a14.493,14.493,0,0,1,4.576.919q-2.163-3.4-4.284-6.827l-.146-.237s-.194-.335.306-.236Q423.489,206.613,425.563,209.826Z" transform="translate(-414.323 -199.346)" fill="#d8f4a7" fill-rule="evenodd"/></g></g></g></g><g transform="translate(1840.081 746.051)"><path d="M461.557,270.022s-7.946-30.468-27.305-16.915c-16.2,11.343-16.689-9.36-31.368-2.585-13.371,6.171-5.409,23.956,4.812,21.7a15.374,15.374,0,0,1,17.44,9.325C428.169,289.216,436.69,293.47,461.557,270.022Z" transform="translate(-395.836 -249.127)" fill="#d9f4a7" fill-rule="evenodd"/><g transform="translate(0 0)"><g clip-path="url(#b)"><g transform="translate(-1.46 -3.793)"><path d="M403.263,256.179a26.912,26.912,0,0,1-4.232-11.014s-.012-.08.078-.013a25.105,25.105,0,0,0,4.785,11.155l0,.069.8.249.055-.015.388.124a.147.147,0,0,1-.008.025q1.378.427,2.756.848c-2.553-3.314-3.4-7.854-3.669-11.491-.054-.72-.092-1.441-.132-2.162,0,0-.026-.323.3-.026.611,5.075,1.323,10.328,4.281,13.916q3,.914,6,1.809a7.966,7.966,0,0,1-.752-1.31c-2.076-4.764-1.858-10.276-1.3-15.318,0,0,.017-.543.245-.254-.014.274-.028.547-.041.822-.049,1.123-.082,2.247-.1,3.367,0,.143,0,.142-.006.284-.113,4.357.306,8.846,2.451,12.559q3.281.979,6.565,1.944a13.54,13.54,0,0,1-1.58-2.195c-.179-.342-.347-.69-.506-1.041a21.715,21.715,0,0,1-1.08-3.017s-.535-2.424-.686-3.954a34.526,34.526,0,0,1-.13-4.635s0-.562.424-.118q0,.245.01.49c.158,5.259,1.366,10.742,4.068,14.622l4.415,1.3a29.981,29.981,0,0,1-2.2-14.086s.015-.246.243.01a32.639,32.639,0,0,0,2.538,14.247q3.066.9,6.132,1.8a26.606,26.606,0,0,1-2.741-6.24,37.471,37.471,0,0,1-1.174-7.879l.016-2.5s-.019-.6.363-.207c.033,1.058.135,2.579.135,2.579.008.174.017.347.026.521a29.027,29.027,0,0,0,3.517,13.1l.478.81q2.95.872,5.9,1.753a45.965,45.965,0,0,1-4.178-19.983s-.019-.545.174-.336a50.806,50.806,0,0,0,4.574,20.49q2.349.7,4.7,1.419c-.244-.6-.432-1.088-.432-1.088-1.987-6.684-1.575-13.981.092-20.855a1.4,1.4,0,0,1,.306-.287l.171.278c-1.545,6.76-1.92,13.923.1,20.591,0,0,.2.775.436,1.567q3.459,1.057,6.916,2.147s1.661.541,3.067,1.018c0,0,1.385.594,2.869,1.253,0,0,.714.241.08.507-.963-.28-1.932-.525-2.907-.752,0,0-3.291-1.051-5.6-1.8q-2-.645-4.007-1.28c-.557.5-1.406,1.241-2.111,1.816a72.2,72.2,0,0,0-7.352,6.629,46,46,0,0,0-7.479,10.755l-.112.088a54.407,54.407,0,0,1,12.781-16.642l.128-.116a22,22,0,0,1,2.759-2.226c.254-.154.535-.312.793-.453l-.021-.045q-2.678-.846-5.361-1.679l-.589.512c-.83.533-1.661,1.068-2.481,1.618,0,0-1.578,1-2.845,1.953a45.045,45.045,0,0,0-11.088,12.747l-.251.155a47.54,47.54,0,0,1,13.678-15.452c.853-.565,1.719-1.109,2.584-1.654,0,0,.068-.028.253-.109q-2.575-.8-5.154-1.587c-4.934,4.564-10.651,8.109-14.286,15.055l-.224.191-.049-.154a30.267,30.267,0,0,1,7.1-9.734c2.193-1.949,4.689-3.591,6.944-5.516q-3.183-.974-6.368-1.942c-.449.454-1.108,1.1-1.658,1.578a58.157,58.157,0,0,0-9.819,10.431l-.345.227a3.091,3.091,0,0,1,.342-.78,50.392,50.392,0,0,1,11.053-11.586l-4.762-1.449c-.768.763-2.162,2.138-2.97,2.884a35.845,35.845,0,0,0-6.72,7.71l-.249.072a1.494,1.494,0,0,1,.153-.665,26.085,26.085,0,0,1,3.852-5.228s1.241-1.235,2.119-2.007c1.12-.984,2.226-1.994,3.4-2.892q-3.16-.963-6.315-1.932c-.088.052,0,0-.21.164,0,0-1.243,1.446-2.027,2.437-2.317,2.882-4.781,5.728-6.318,9.08l-.215.14-.072-.186a36.082,36.082,0,0,1,5.373-8.658,15.859,15.859,0,0,1,2.9-3.152q-1.879-.579-3.757-1.163a.657.657,0,0,1-.07.038,25.988,25.988,0,0,0-6.946,5.409,51.906,51.906,0,0,0-5.825,7.254l-.208.052a2.317,2.317,0,0,1,.241-.683c2.5-4.093,5.473-7.97,9.141-10.524a21.653,21.653,0,0,1,3.017-1.747q-3.009-.937-6.01-1.891a25.137,25.137,0,0,0-10.952,8.1s-.648.241-.038-.592a22.922,22.922,0,0,1,5.178-5.25,19.256,19.256,0,0,1,5.027-2.512q-4.323-1.381-8.619-2.811l-.3-.1s-.408-.15.141-.425Q399.15,254.9,403.263,256.179Z" transform="translate(-393.356 -242.686)" fill="#8ebe34" fill-rule="evenodd"/></g></g></g></g><g transform="translate(1946.797 725.187)"><path d="M557.413,253.507s26.564,10.757,27.8-8.778c1.033-16.35,16.282-5.874,19.75-18.863,3.159-11.831-14.241-15.969-18.437-8.209-2.62,4.847-9.411,8.42-16.685,6.378S554.631,225.266,557.413,253.507Z" transform="translate(-556.844 -213.702)" fill="#8dbe34" fill-rule="evenodd"/><g clip-path="url(#c)"><g transform="translate(-3.124 -2.748)"><path d="M595.979,220.522a27.043,27.043,0,0,1,10.378,3.012s.065.035-.035.058a25.321,25.321,0,0,0-10.795-2.73l-.052-.034-.638.388-.021.044-.31.185a.111.111,0,0,1-.014-.018q-1.095.665-2.185,1.334c3.852.082,7.616,1.9,10.4,3.624.552.34,1.095.691,1.639,1.042,0,0,.249.151-.15.2-4.019-2.25-8.224-4.53-12.5-4.494q-2.37,1.456-4.728,2.924a8.125,8.125,0,0,1,1.376.2c4.629,1.146,8.49,4.159,11.82,7.144,0,0,.383.294.044.29l-.571-.455c-.783-.616-1.578-1.224-2.38-1.816-.1-.075-.1-.075-.2-.152-3.086-2.343-6.572-4.413-10.48-4.966q-2.578,1.6-5.148,3.216a13.875,13.875,0,0,1,2.487.126q.524.095,1.042.217a21.662,21.662,0,0,1,2.8.876s2.058.918,3.251,1.618a32.338,32.338,0,0,1,3.426,2.332s.407.292-.157.335l-.36-.249c-3.894-2.639-8.548-4.718-12.894-5l-3.456,2.168A28.939,28.939,0,0,1,589,237.867s.17.138-.145.151a31.67,31.67,0,0,0-11.751-5.789q-2.4,1.505-4.8,3.011a26.931,26.931,0,0,1,6.075,1.485,36.185,36.185,0,0,1,6.367,3.349l1.8,1.315s.448.3-.058.342c-.783-.53-1.942-1.257-1.942-1.257-.13-.085-.26-.17-.391-.254a28.677,28.677,0,0,0-11.48-4.562l-.858-.114q-2.313,1.446-4.631,2.887a44.9,44.9,0,0,1,16.833,7.722s.405.272.144.288a49.753,49.753,0,0,0-17.425-7.731q-1.848,1.147-3.7,2.287c.57.153,1.033.289,1.033.289a37.382,37.382,0,0,1,15.03,10.927,1.048,1.048,0,0,1,.034.346l-.3-.034a37.4,37.4,0,0,0-14.949-10.666s-.672-.277-1.382-.536q-2.736,1.678-5.495,3.337s-1.339.789-2.485,1.445c0,0-1.219.582-2.541,1.2,0,0-.582.335-.412-.213.751-.475,1.481-.972,2.2-1.481,0,0,2.636-1.572,4.495-2.67q1.608-.953,3.211-1.915c-.041-.617-.1-1.553-.111-2.307a53.918,53.918,0,0,0-.6-8.191,35.72,35.72,0,0,0-3.514-10.424v-.118A41.865,41.865,0,0,1,562,236.892l.011.143a16.45,16.45,0,0,1,.038,2.938c-.034.244-.08.507-.124.746l.045.011q2.138-1.285,4.27-2.579l-.035-.647c.088-.813.174-1.626.244-2.441,0,0,.177-1.538.209-2.851a34.3,34.3,0,0,0-2.9-13.787l.031-.243a36.163,36.163,0,0,1,3.378,16.865c-.078.843-.177,1.685-.276,2.527,0,0-.019.058-.066.22q2.045-1.244,4.086-2.494c-.488-5.557.207-11.088-2.743-17.049l-.011-.244.14.048a23.414,23.414,0,0,1,2.993,9.646c.159,2.428-.075,4.893.031,7.349q2.52-1.543,5.035-3.09c-.072-.526-.165-1.288-.2-1.891a43.987,43.987,0,0,0-1.946-11.762l.032-.34a2.518,2.518,0,0,1,.369.627,38.1,38.1,0,0,1,2.078,13.159l3.763-2.313c-.114-.892-.314-2.507-.392-3.417a27.275,27.275,0,0,0-1.745-8.347l.089-.2a1.308,1.308,0,0,1,.393.445,20.146,20.146,0,0,1,1.585,5.206s.186,1.443.243,2.411c.074,1.234.173,2.473.151,3.7q2.5-1.535,5-3.062c.012-.084,0,0,0-.221,0,0-.337-1.555-.607-2.576-.763-2.995-1.416-6.066-2.965-8.8l.021-.211.175.05a28.344,28.344,0,0,1,3.2,7.973,12,12,0,0,1,.625,3.513q1.49-.91,2.982-1.815a.584.584,0,0,1,.012-.065,19.386,19.386,0,0,0,.047-7.294,39.732,39.732,0,0,0-1.925-7.533l.081-.161a1.933,1.933,0,0,1,.356.512c1.537,3.741,2.644,7.68,2.4,11.374a16.119,16.119,0,0,1-.456,2.854q2.393-1.45,4.793-2.886a18.809,18.809,0,0,0,.382-11.28s.2-.544.451.284a17.292,17.292,0,0,1,.845,6.072,14.489,14.489,0,0,1-1.049,4.548q3.462-2.066,6.945-4.089l.241-.139s.34-.184.227.313Q599.25,218.54,595.979,220.522Z" transform="translate(-551.539 -209.035)" fill="#d8f4a7" fill-rule="evenodd"/></g></g></g><g transform="translate(1945.349 751.64)"><path d="M555.386,270.051s12.566-14.659,21.494-10.039c6.577,3.4,9.16,7.495,13.365,2.223,5.348-6.705,17.737-3.8,19.393,6.307,1.479,9.029-9.692,12.947-14.636,10.9s-7.79,2.328-10.2,6.2-12.415,14.967-23.2,5.036C550.7,280.632,555.386,270.051,555.386,270.051Z" transform="translate(-554.384 -258.616)" fill="#d9f4a7" fill-rule="evenodd"/><g transform="translate(0 0)"><g clip-path="url(#d)"><g transform="translate(-9.531 -6.388)"><path d="M594.548,263.791a26.906,26.906,0,0,1,9.52,6.97s.053.061-.058.054a25.1,25.1,0,0,0-10.061-6.791l-.04-.057-.81.225-.039.042-.392.105a.172.172,0,0,1-.007-.025q-1.39.386-2.776.779c3.94,1.406,7.106,4.767,9.3,7.677.435.576.857,1.162,1.281,1.747,0,0,.2.258-.235.183-3.261-3.936-6.7-7.969-11.131-9.386q-3.016.854-6.025,1.726a8.007,8.007,0,0,1,1.342.7c4.324,2.883,7.122,7.637,9.385,12.177,0,0,.28.466-.068.346q-.2-.357-.41-.713-.849-1.456-1.742-2.883c-.077-.12-.075-.12-.149-.243-2.262-3.725-5.044-7.273-8.857-9.234q-3.288.952-6.573,1.918a13.534,13.534,0,0,1,2.516.991c.335.19.665.392.989.6a21.674,21.674,0,0,1,2.54,1.952s1.762,1.749,2.717,2.954a34.522,34.522,0,0,1,2.617,3.827s.305.472-.293.329q-.136-.2-.274-.407c-2.979-4.337-6.962-8.294-11.334-10.095q-2.208.648-4.415,1.3a29.981,29.981,0,0,1,9.472,10.655s.121.215-.209.123a32.639,32.639,0,0,0-9.845-10.607q-3.065.9-6.132,1.8a26.63,26.63,0,0,1,5.682,3.763,37.528,37.528,0,0,1,5.251,5.99l1.341,2.114s.343.5-.194.37c-.6-.872-1.51-2.1-1.51-2.1-.1-.142-.2-.283-.3-.423a29.049,29.049,0,0,0-10.048-9.115l-.84-.422q-2.953.863-5.91,1.719a45.965,45.965,0,0,1,14.328,14.543s.311.448.035.377a50.8,50.8,0,0,0-14.934-14.755q-2.356.679-4.718,1.349c.528.369.952.682.952.682,5.288,4.546,8.891,10.9,11.209,17.587a1.4,1.4,0,0,1-.1.406l-.294-.141c-2.359-6.521-5.92-12.747-11.228-17.26,0,0-.585-.544-1.214-1.082q-3.481.983-6.978,1.938s-1.69.444-3.13.8c0,0-1.487.249-3.09.5,0,0-.731.184-.342-.383.961-.286,1.908-.6,2.851-.941,0,0,3.337-.9,5.685-1.517q2.032-.541,4.063-1.092c.2-.719.511-1.8.792-2.67a72.16,72.16,0,0,0,2.594-9.552,45.976,45.976,0,0,0,.469-13.092l.047-.135a54.393,54.393,0,0,1-1.742,20.912l-.045.167a22.1,22.1,0,0,1-1.114,3.365c-.131.266-.282.551-.422.809l.042.027q2.71-.738,5.417-1.49l.218-.75c.41-.9.818-1.8,1.21-2.7,0,0,.786-1.7,1.335-3.182a45.05,45.05,0,0,0,2.426-16.72l.127-.267a47.54,47.54,0,0,1-3.14,20.4c-.412.936-.845,1.863-1.277,2.789,0,0-.042.059-.154.229q2.6-.724,5.193-1.455c1.68-6.509,4.568-12.583,3.867-20.391l.085-.282.125.1a30.273,30.273,0,0,1-.7,12.027c-.789,2.825-2,5.557-2.854,8.4q3.2-.9,6.406-1.812c.133-.625.336-1.526.54-2.225a58.2,58.2,0,0,0,2.613-14.085l.167-.378a3.076,3.076,0,0,1,.134.841,50.39,50.39,0,0,1-3.024,15.725l4.789-1.358c.233-1.057.661-2.968.938-4.033a35.849,35.849,0,0,0,1.478-10.12l.17-.2a1.5,1.5,0,0,1,.231.643,26.086,26.086,0,0,1-.41,6.48s-.375,1.71-.7,2.835c-.409,1.434-.793,2.881-1.3,4.274q3.18-.9,6.357-1.793a1.209,1.209,0,0,0,.088-.252s.263-1.889.386-3.146c.389-3.677.922-7.4.4-11.054l.105-.234.16.117a36.047,36.047,0,0,1,.167,10.188,15.868,15.868,0,0,1-.734,4.221q1.894-.531,3.788-1.056a.755.755,0,0,1,.038-.07,25.978,25.978,0,0,0,2.914-8.307,51.946,51.946,0,0,0,.973-9.252l.147-.156a2.3,2.3,0,0,1,.167.705c.117,4.792-.289,9.664-1.991,13.8a21.642,21.642,0,0,1-1.591,3.1q3.038-.84,6.077-1.662a25.137,25.137,0,0,0,4.824-12.742s.415-.554.353.477a22.937,22.937,0,0,1-1.514,7.217,19.263,19.263,0,0,1-2.868,4.833q4.382-1.179,8.769-2.3l.3-.077s.423-.095.111.434Q598.7,262.643,594.548,263.791Z" transform="translate(-538.201 -247.769)" fill="#8ebe34" fill-rule="evenodd"/></g></g></g></g><path d="M17,0H80.805a17,17,0,0,1,17,17V97.8a17,17,0,0,1-17,17H17a17,17,0,0,1-17-17V17A17,17,0,0,1,17,0Z" transform="translate(1879.214 673.402)" fill="#5539b5"/><path d="M17,0H80.805a17,17,0,0,1,17,17V97.8a17,17,0,0,1-17,17H17a17,17,0,0,1-17-17V17A17,17,0,0,1,17,0Z" transform="translate(1874.214 679.402)" fill="#7b61d2"/><g transform="translate(1889.109 760.293)"><rect width="45.138" height="2.782" transform="translate(0 0)" fill="#e2f1ff"/><rect width="36.501" height="2.782" transform="translate(0 13.354)" fill="#e2f1ff"/><rect width="21.398" height="2.782" transform="translate(0 6.677)" fill="#e2f1ff"/></g><g transform="translate(1943.082 760.088)"><g transform="translate(0 0)"><path d="M2390.793,1291.484a8.272,8.272,0,1,1,8.272-8.272A8.282,8.282,0,0,1,2390.793,1291.484Zm0-14.943a6.671,6.671,0,1,0,6.671,6.671A6.679,6.679,0,0,0,2390.793,1276.541Z" transform="translate(-2382.521 -1274.94)" fill="#c4e2ff"/></g><g transform="translate(3.986 5.582)"><path d="M2415.7,1322.089l-3.758-3.758,1.132-1.132,2.626,2.626,3.681-3.681,1.132,1.132Z" transform="translate(-2411.944 -1316.144)" fill="#c4e2ff"/></g></g><g transform="translate(1630.302 396.727)"><path d="M366.666,340.1s-.188-8.758-.154-9.4c.133-2.473.168-4.662-1.07-5.636a9.528,9.528,0,0,0-2.6-1.658c-.567-.206-3.285-.334-4.309.948-1.181,1.479-2.289,4.4-2.112,5.658l.137,7.909c.991,2.331,8.818,3.7,10.1,2.176" fill="#d6bff2"/><path d="M357.014,389.179a17.365,17.365,0,0,0,.124,2.867c.153.5-.621.666-.824,1.141-.283.659-1.9-.039-2.071-.435-.232-.556.671-.858,1.048-2.015.239-.731-.035-1.624.275-2.346.317-.742,1.071-.432,1.277.241" fill="#d6bff2" fill-rule="evenodd"/><path d="M368.135,389.594c.123.669.041,1.4.219,2.032a2.662,2.662,0,0,1-.1,2c-.281.587-3.336-.192-3.5-.544-.234-.5.893-1.1,1.43-2,.35-.591.2-1.553.505-2.2.316-.66,1.07-.382,1.277.218" fill="#d6bff2" fill-rule="evenodd"/><path d="M365.741,391.495s-.97,1.535-4.736,1.963a7.521,7.521,0,0,1-.764.065c-.364.007-.435.129-.529.409.212.279,1.517.439,1.864.485a9.413,9.413,0,0,0,3.7-.088c1.017-.282,2.216.218,3.257.007a3.261,3.261,0,0,0,.272-.827,6.867,6.867,0,0,0-.107-1.07c-.024-.357-.531-.3-.79-.167a1.992,1.992,0,0,1-.648.31,4.961,4.961,0,0,1-1.023-.1,1.874,1.874,0,0,0-.671.155,2.288,2.288,0,0,0,.656-.74c.017-.047.083-.219.034-.267C366.155,391.528,365.879,391.559,365.741,391.495Z" fill="#8dbe34" fill-rule="evenodd"/><g clip-path="url(#e)"><path d="M366.24,392.7l.035.007.076.017.075.018.074.022.073.023.072.025.07.026.07.028.068.03.065.029,0,0,.065.033.064.036.063.036.061.036.061.037.06.038.058.038.058.039.056.039.057.039.106.077h0l.1.078.1.077.093.075.086.07.025.021.028.021-.01-.006.03.021.03.02-.009-.005.032.02.029.017.03.016.031.016.033.016.033.016.035.015.035.015.075.03.078.029.1.035.06.051.047.209.035,0,.054.1-.1.056-.032-.015-.145.156-.078.014-.1-.018-.087-.017-.089-.018-.046-.011-.046-.011-.047-.012-.046-.012-.048-.014-.048-.016-.048-.017-.048-.019-.048-.02-.05-.022-.048-.025-.045-.024-.1-.055-.1-.053-.1-.053-.1-.051h0l-.106-.053-.053-.024-.054-.025-.054-.024-.054-.023-.054-.022-.054-.021-.054-.02-.053-.019-.054-.017-.053-.017h0l-.051-.017-.051-.016-.05-.015-.05-.012-.049-.012-.048-.01-.048-.008-.046-.006-.046-.005-.02,0-.024-.009-.044-.015-.024-.007h.009l-.022-.006-.043-.01h.008l-.03-.01-.041-.01h.016l-.043-.009-.043-.007.014,0-.045-.005-.038-.005h-.017l-.024,0-.042,0h-.087l-.045,0-.046,0-.046,0-.047.006-.048.007-.043.007-.052.015-.1.028-.193.062-.1.031-.1.03-.05.015-.049.013-.05.014-.048.012-.219.052-.016,0-.2.06-.418.129-.207.065-.208.063-.207.062-.105.031-.1.03-.1.029-.106.029-.106.028-.083.021-.023.006-.107.027-.108.026-.109.025-.109.024-.111.023-.111.022-.113.02-.113.02-.115.019-.116.017-.117.016-.118.014-.117-.086.088-.115.116-.019.114-.02.113-.022.111-.023.109-.024.109-.025.108-.026.107-.027.106-.029.1-.029.105-.03.1-.031.023-.008.079-.025.1-.033.1-.034.1-.034.1-.036.1-.035.2-.074.2-.075.2-.076.409-.157.193-.073.015-.007.206-.091.041-.018.04-.019.04-.021.04-.021.084-.045.085-.047.177-.1.092-.051.053-.028.04-.026.047-.031.047-.03.049-.03.05-.028.051-.029.053-.028.054-.027.055-.027.033-.014.024-.01.059-.023.061-.022.062-.019.065-.018.067-.016.051-.009.017,0,.068-.005.043,0,.042,0h.121Z" fill="#ece8e9" fill-rule="evenodd"/></g><path d="M354.742,391.163s-1.11,1.492-4.423,2.043c-.224.037-.446.076-.673.091s-.333.167-.4.426c.2.246,1.632.254,1.941.281a12.471,12.471,0,0,0,3.271-.238c.929-.165,1.97.105,2.882-.131a3.11,3.11,0,0,0,.2-.767,6.5,6.5,0,0,0-.14-.97c-.036-.324-.483-.252-.706-.118a1.75,1.75,0,0,1-.56.309,4.337,4.337,0,0,1-.91-.05,1.635,1.635,0,0,0-.586.169,2.057,2.057,0,0,0,.549-.7c.012-.044.063-.2.018-.244C355.11,391.176,354.867,391.216,354.742,391.163Z" fill="#8dbe34" fill-rule="evenodd"/><g clip-path="url(#f)"><path d="M355.275,392.2l.07.012.07.015.068.017.067.019.066.02.065.022.064.023.063.025.062.025h0l.057.029.059.03.058.031.057.031.055.033.055.033.054.033.053.033.051.033.052.035.1.066,0,0,.091.067.089.067.085.066.078.061.028.021-.012-.007.025.018.027.018-.01,0,.027.016.028.017-.009,0,.03.016.025.013.028.014.028.013.028.012.064.026.066.023.069.024.086.029.055.048.043.2h.032l.059.094-.1.059-.028-.012-.129.164-.069.019-.091-.012-.079-.011-.081-.012-.082-.015-.043-.009-.043-.01-.044-.011-.044-.012-.045-.014-.044-.014-.046-.017-.045-.019-.046-.021-.042-.02-.093-.045-.092-.043-.094-.043-.093-.04,0,0-.1-.042-.048-.02-.048-.019-.049-.019-.048-.018-.048-.017-.049-.016-.048-.015-.047-.014-.048-.013-.045-.012h0l-.046-.013-.044-.011-.044-.011-.043-.009-.043-.008-.041-.006-.041-.005-.039,0-.039,0h-.014l-.022-.009-.045-.012h.019l-.044-.011-.035-.008h.013L355,393.16l-.036-.008.018,0-.038-.007-.038-.005.014,0-.038,0-.04,0,.012,0h-.041l-.036,0H354.7l-.039,0-.041,0-.04.005-.042.006-.042.007-.036.007-.048.016-.083.029-.168.063-.086.032-.086.03-.045.016-.043.014-.044.014-.043.013-.193.055-.012,0-.172.063-.365.135-.181.067-.181.067-.182.064-.091.032-.092.032-.092.031-.092.03-.093.03-.071.022-.022.007-.094.029-.094.028-.1.027-.1.027-.1.026-.1.024-.1.024-.1.022-.1.022-.1.02-.1.019-.1.018-.121-.079.082-.119.1-.023.1-.024.1-.024.1-.026.1-.027.094-.027.094-.029.093-.03.092-.03.092-.032.09-.032.09-.032.022-.009.067-.026.089-.034.088-.036.088-.036.087-.036.088-.038.175-.075.174-.078.175-.079.354-.161.17-.076.01-.006.177-.093.035-.019.034-.019.035-.021.034-.021.071-.045.072-.048.151-.1.079-.052.047-.029.032-.026.041-.03.04-.031.043-.03.043-.03.044-.03.045-.029.048-.028.048-.028.031-.016.02-.01.052-.025.055-.023.056-.022.059-.02.06-.018.05-.013.013,0,.064-.009.073-.008.074-.006h.045Z" fill="#ece8e9" fill-rule="evenodd"/></g><path d="M355.747,369.119h0s-.933-10.029-1.246-13.364c-.269-2.865,1.022-16.647,4.795-13.657,4.342,3.44,6.491,7.463,4.955,14.14-.545,2.373-2.263,11.437-2.943,15.044a8.355,8.355,0,0,1-.089,7.833s-3.74,11.416-4.057,11.827c-.514.668-1.94.1-1.94.1C354.764,390.8,355.743,369.269,355.747,369.119Z" fill="#4d2cb1"/><path d="M364.225,369.022h0s-2.864-9.652-3.819-12.861c-.821-2.757-2.239-16.551,2.033-14.392,4.916,2.484,7.8,5.991,7.6,12.861-.065,2.207,0,9.975.037,14.166a10.069,10.069,0,0,1,1.7,8.676s-3.131,13.263-3.355,13.8c-.62,1.478-2.261.266-2.551-.465Z" fill="#4d2cb1"/><path d="M366.52,347.356h0l-.026.04.006,0,.005,0,.006-.007v-.006l0,.007v0l0,.009v0l0,.01v0l.006.011v0l.017.023.021.025.02.022,0,.006.018.033.038.069.039.067.033.057.013.024.009.018.029.057.029.055.03.055.032.055.065.112.034.056.017.031.015.027.031.058.03.06.029.061.027.062.013.031.013.032.012.032.011.033.011.033.01.034.009.033.008.034.083.37.04.184.039.185.039.184.036.184.035.184.033.185.016.093.015.092.015.093.014.093.013.094.012.093.012.094.011.094.01.094.009.094.009.1.008.1.006.1.006.1.005.1,0,.1.009.3.007.3.006.3,0,.3,0,.173v1.314l0,.3,0,.3,0,.3-.008.594-.009.593-.009.593-.008.593,0,.3,0,.3,0,.285v.012l0,.3,0,.3,0,.3v.889l0,.3.005.3.006.3.005.208,0,.209,0,.264,0,.152,0,.413.005.412,0,.2,0,.2,0,.2.005.2.007.2.007.2.009.2.011.2.012.2.014.2.016.2.018.2.005.053,0,.047.01.1.01.1.011.1.012.1.012.1.013.1.014.1.014.1.016.1.015.1.017.1.017.1.019.1.019.1.02.1.02.1.022.1.023.1.023.1.025.1.025.1.026.1.028.1.03.106.031.107.063.213.065.212.067.212.069.211.07.212.071.211.072.21.146.422.132.382.014.04.073.211.072.211.072.212.071.213.069.213.069.213.067.214.064.215.032.108.031.108.031.108.029.109.03.109.028.108.029.11.027.109.026.11.026.11.024.111.024.111.024.11.022.112.021.112.021.112.019.112.018.113.018.113.015.114.015.114.015.114.012.115.012.115.017.192.016.191.013.191.012.19.008.15,0,.039.009.189.007.188.005.188,0,.187,0,.187v.372l0,.185,0,.185-.006.185-.007.184-.009.183-.01.184-.012.182-.012.183-.014.182-.016.182-.017.181-.018.181-.02.181-.02.181-.022.18-.023.18-.024.18-.025.179-.027.18-.027.179-.029.179-.029.179-.031.178-.032.179-.032.178-.029.156-.005.023-.034.178-.036.178-.036.178-.037.178-.038.177-.039.178-.039.178-.04.178-.041.177-.042.178-.042.178-.044.178-.043.178-.045.178-.089.356-.047.179-.046.178-.1.357-.1.358-.1.359-.1.359-.016.056-.014.056-.028.112-.026.113-.009.046-.017.067-.025.114-.024.114-.023.116-.02.116-.02.116-.018.118-.017.118-.016.118-.014.119-.014.119-.013.12-.012.119-.023.24-.012.141-.012.1-.051.481-.025.24-.013.12-.013.118-.014.119-.015.119-.015.117-.015.117-.048.043-.038-.051.007-.117.007-.118,0-.118.005-.119,0-.119,0-.12,0-.24v-.585l.005-.142.008-.243,0-.121.006-.122.006-.122.007-.122.008-.121.01-.122.01-.122.012-.121.013-.121.015-.121.016-.121.019-.121.011-.071.01-.049.026-.119.028-.118.015-.06.015-.058.1-.36.094-.359.092-.358.091-.356.044-.178.045-.178.087-.355.043-.178.042-.176.041-.177.041-.177.04-.177.039-.177.039-.176.038-.177.037-.176.036-.177.036-.176.034-.176.034-.177.033-.176,0-.022.028-.155.031-.176.03-.177.029-.177.028-.176.027-.177.026-.177.025-.177.023-.177.023-.177.022-.178.02-.178.019-.178.018-.178.016-.178.016-.179.014-.179.012-.179.012-.179.01-.18.009-.18.006-.18.006-.181.005-.181,0-.181v-.364l0-.183,0-.183-.005-.183-.007-.184-.008-.185-.01-.184,0-.038-.009-.148-.014-.186-.015-.186-.017-.187-.019-.187-.012-.111-.013-.11-.015-.109-.015-.11-.017-.109-.018-.108-.018-.109-.02-.108-.021-.107-.021-.108-.023-.108-.023-.106-.025-.107-.025-.107L369.4,373l-.026-.106-.028-.106-.028-.106-.029-.106-.03-.105-.03-.106-.031-.106-.031-.1-.032-.105-.066-.21-.068-.21-.069-.209-.071-.21-.072-.209-.073-.209-.074-.21-.075-.209-.015-.04-.135-.381-.15-.421-.075-.212-.073-.213-.073-.213-.071-.214-.071-.215-.068-.216-.066-.217-.033-.109-.032-.11-.03-.1-.028-.1-.028-.1-.026-.1-.026-.1-.024-.1-.024-.1-.022-.1-.022-.1-.021-.1-.02-.1-.019-.1-.018-.1-.017-.1-.017-.1-.016-.1-.015-.1-.014-.1-.014-.1-.013-.1-.012-.1-.012-.1-.011-.1-.005-.049-.005-.055-.017-.207-.016-.207-.013-.206-.012-.207-.009-.207-.009-.206-.006-.206-.006-.207,0-.206,0-.207,0-.206,0-.207,0-.413,0-.414,0-.151V361.6l0-.207,0-.208,0-.3,0-.3v-.3l0-.3,0-.3,0-.3.005-.3.006-.3.008-.3v-.013l.011-.285.011-.3.012-.3.026-.593.026-.593.026-.592.026-.592.012-.3.011-.3.01-.3.01-.3.009-.3.007-.3.007-.3,0-.124,0-.172,0-.3,0-.3v-.687l0-.093,0-.093,0-.092-.005-.093-.006-.092-.006-.093-.008-.091-.008-.093-.009-.091-.01-.092-.01-.092-.012-.091-.011-.092-.013-.091-.013-.091-.028-.183-.03-.183-.032-.183-.033-.183-.035-.184-.035-.184-.074-.37-.006-.029-.007-.029-.008-.029-.008-.028-.009-.029-.01-.028-.011-.029-.01-.028-.024-.057-.025-.056-.027-.057-.029-.057-.013-.026-.015-.031-.029-.058-.057-.117-.029-.059-.028-.06-.026-.06-.025-.06-.007-.015-.009-.022-.029-.057-.034-.07-.035-.074-.017-.037,0-.007,0-.031-.006-.036,0-.033v-.056l0-.009,0-.005v-.005h0l0-.005,0-.005,0,0h0v0l0,0,0,0h0l0,0,0,0h.009Z" fill="#7a6ad0" fill-rule="evenodd"/><path d="M358.65,349.259l.007,0,0-.005,0-.007v0l0,.01v0l0,.012v0l.006.012h0l.007.013.019.029.024.033.028.036h0l.021.042.044.087.042.084.018.038.016.035.013.031.005.017,0,.015.012.056.009.047.019.1.017.1.016.1.015.1v.011l.008.094.008.1.007.105.005.105.006.1.008.208.008.206.006.2.006.2,0,.206,0,.206,0,.207,0,.207,0,.207,0,.194v.013l.005.206,0,.1,0,.1.005.1.006.1.006.1.007.1.008.1.01.1.01.1.012.1.013.1.015.1.01.067.005.03.017.1.018.1.02.1.006.033.007.035.005.035,0,.036.007.069.006.069.009.136.005.066.005.064.007.063,0,.029,0,.03.005.028,0,.028.005.027.007.025.007.025.007.024.008.023.009.021h0l.008.02.011.025,0-.008.012.022.013.023,0-.007.01.015.01.015,0-.005.011.014.01.013,0-.005.01.012.011.012-.005-.005.011.011.011.01-.005,0,.011.01.011.009-.006,0,.012.008.011.008-.005,0,.011.008.012.007-.006,0,.012.006.013.006-.009,0,.026.01.025.009.017.005.028.006h-.008l.029.005.027,0,.028,0,.029,0h.13l.145,0h.156l.04,0,.041,0,.041.005.04.007.067.013.067.012.06.01.008,0,.068.011.139.021.142.019.29.038.146.019.074.011.073.011.073.011.074.012.072.013.026.005.047.011.072.017.071.019.071.019.07.021.07.022.068.023.069.025.067.026.066.028.065.03.032.015.032.017.031.016.031.017.017.044-.045.014-.031-.014-.032-.013-.032-.013-.033-.011-.065-.023-.067-.02-.067-.017-.068-.016-.068-.014-.069-.012-.07-.011-.07-.009-.07-.008-.072-.006-.046,0-.025,0-.071-.007-.072-.006-.072-.005-.073-.005-.072,0-.146-.007-.292-.011-.145-.006-.145-.008-.072-.005h-.007l-.064-.006-.072-.007-.068-.008-.032,0h-.125l-.033,0-.069.006-.144.015-.075.006-.038,0h-.079l-.041,0-.04,0-.042-.005-.041-.008-.043-.01-.042-.012-.041-.015-.022-.01-.021-.01-.021-.01-.02-.012-.021-.013-.02-.013-.02-.014-.019-.016-.02-.016-.018-.017-.018-.018-.018-.018-.018-.02-.017-.02-.016-.022-.016-.023-.022-.033-.021-.034-.018-.035-.017-.036h0l-.014-.035-.013-.037-.011-.036-.009-.037-.009-.037-.008-.036-.006-.037-.006-.036-.005-.036,0-.037-.007-.071-.006-.07,0-.069-.009-.132-.005-.062-.006-.06,0-.028-.005-.027,0-.027-.006-.027-.02-.1-.018-.1-.018-.1,0-.033-.01-.071-.014-.1-.011-.1-.01-.105-.009-.1-.008-.1-.006-.105,0-.105-.005-.1,0-.105,0-.1,0-.105v-.329l0-.2,0-.209,0-.207.005-.207,0-.205,0-.2v-.608l0-.207,0-.1,0-.1,0-.1,0-.1-.005-.091v-.011l0-.1-.005-.1-.005-.1-.008-.1,0-.046,0-.054v.006l0-.009,0,.007,0-.012v.006l-.007-.026-.009-.031-.013-.037-.031-.086-.034-.093-.016-.046h0l-.006-.048-.005-.044,0-.039,0-.018v-.062l0,0h0l0-.006,0-.005,0-.005h0l0,0,0,0,0,0h0l0,0,0,0,0,0h.014l.038.029h0l-.029.038Z" fill="#7a6ad0" fill-rule="evenodd"/><path d="M360.8,356.642l.029.051,0,.032.005.071v.094l0,.082,0,.082,0,.082-.006.082-.006.081-.008.081-.009.081-.009.081-.011.081-.011.08-.012.08-.023.148,0,.012-.031.158-.032.158-.032.157-.032.157-.03.157-.014.078-.014.078-.013.078-.013.078-.011.079-.011.079-.027.2-.027.2-.028.2-.029.2-.029.2-.031.2-.061.4-.063.4-.064.4-.065.4-.054.328-.011.072-.067.4-.065.4-.066.4-.063.4-.062.4-.03.2-.03.2-.028.2-.029.2-.009.068-.019.132-.027.2-.024.186-.023.186-.021.186-.02.186-.018.186-.017.186v0l-.017.183-.015.186-.014.187-.013.187-.011.187-.011.186-.01.187,0,.067-.007.12-.008.187-.008.188-.007.187-.007.187-.005.188-.005.187,0,.188,0,.188-.005.375,0,.376,0,.376v1.507l0,.377v.064l0,.313,0,.376-.006.377,0,.189,0,.188-.005.188-.005.189-.007.188-.006.188-.008.188-.009.189-.009.188-.011.188-.011.188-.012.188-.014.187-.014.188-.016.188-.018.188-.018.187-.02.188-.021.187-.022.187-.018.135-.02.136-.021.137-.022.137-.024.137-.026.138-.019.1-.008.041-.028.138-.03.138-.03.139-.032.138-.033.139-.034.138-.035.139-.035.138-.036.138-.038.138-.037.138-.038.137-.039.137-.079.272-.08.27-.08.268-.081.264-.161.517-.038.126-.038.125-.037.128-.037.128-.036.129-.036.13-.035.131-.034.132-.034.133-.034.134-.033.135-.032.136-.032.136-.031.138-.01.046-.021.091-.03.139-.03.139-.029.14-.029.141-.027.141-.028.141-.026.142-.027.143-.025.142-.025.144-.025.143-.023.144-.023.144-.023.144-.022.145-.021.144-.021.145-.02.145-.019.145-.019.145-.018.144-.017.145-.017.145-.016.145-.016.144-.014.144-.015.143h0l-.016.143-.015.144-.014.142-.014.143-.013.142-.012.142-.012.141-.011.141-.01.14-.009.14-.009.139-.007.119v.019l-.007.137-.007.138-.006.136-.005.135,0,.135,0,.134,0,.133,0,.132,0,.13v.131l-.072.076-.075-.074,0-.131,0-.131,0-.133,0-.134,0-.135v-.705l0-.121,0-.14,0-.141.005-.141,0-.143.005-.142.007-.143.007-.144.008-.144.008-.145.008-.145.01-.145h0l.012-.144.014-.146.014-.145.014-.146.015-.146.016-.147.017-.146.017-.146.018-.146.018-.147.019-.146.02-.146.02-.146.021-.146.022-.146.022-.145.023-.145.023-.145.024-.144.025-.145.025-.143.026-.143.026-.143.027-.143.028-.141.028-.142.029-.14.02-.093.01-.047.03-.139.031-.139.031-.138.032-.136.032-.136.033-.136.034-.134.034-.133.035-.133.035-.132.036-.13.036-.129.037-.128.038-.127.154-.519.078-.264.077-.267.077-.269.075-.271.037-.136.036-.136.036-.136.035-.137.034-.136.033-.137.033-.137.032-.136.031-.137.029-.136.029-.136.027-.135.026-.136.008-.039.017-.1.024-.135.022-.134.021-.133.019-.132.018-.132.016-.131.021-.185.019-.184.018-.184.016-.185.015-.185.014-.186.013-.185.012-.185.01-.186.01-.186.009-.186.007-.186.007-.186.006-.187.005-.186,0-.187,0-.187,0-.187,0-.187,0-.187,0-.375v-1.127l0-.753v-1.133l0-.378,0-.377,0-.19,0-.189,0-.189.005-.189.005-.189.007-.19.007-.189.008-.189.006-.122,0-.067.011-.19.012-.189.014-.189.014-.19.016-.189.016-.189.019-.187v0l.02-.189.022-.189.023-.189.025-.189.026-.189.028-.188.031-.2.021-.133.011-.068.033-.2.034-.2.034-.2.035-.2.072-.4.073-.4.075-.4.075-.4.075-.4.014-.07.063-.327.076-.4.075-.4.074-.4.072-.4.035-.2.035-.2.034-.2.033-.2.033-.2.032-.2.013-.08.014-.081.015-.08.015-.08.016-.08.017-.079.035-.158.035-.157.036-.157.036-.156.034-.156,0-.011.035-.144.018-.077.017-.078.016-.077.016-.077.014-.078.014-.078.012-.078.011-.079.01-.079.009-.078.007-.08.005-.079v-.012l.007-.068,0-.031.028-.05.033-.034Z" fill="#7a6ad0" fill-rule="evenodd"/><path d="M359.1,355.958l.1,0,.107,0,.106,0,.106,0,.211.008.21.009.134.005.073.007.194.017h.012l.1.01.1.009.024,0,.077.02.057.013.044.024.028.028-.027.027-.045.026-.057.013-.078.02h-.024l-.1.008-.1.007h-.012l-.2.009-.074,0-.135,0-.209,0H359.2l-.1,0h-.009l-.1,0-.106,0-.1,0-.106.005-.1.007h-.013l-.093.006-.1.008-.106.01-.106.012-.02,0-.086.006-.1.01h-.005l-.107.01-.108.012-.025,0-.028,0-.055.007-.054.008-.054.009-.054.01-.055.01-.115-.064.069-.112.054-.018.054-.018.054-.017.055-.017.055-.016.029-.009.025-.007.11-.029.109-.026h0l.106-.021.089-.016.021,0,.11-.013.11-.011.11-.009.1-.007h.014l.109-.006.109,0,.108,0h.226Z" fill="#7a6ad0" fill-rule="evenodd"/><path d="M360.383,326.1a3.046,3.046,0,0,0,2.384-2.648l-.989-3.14a1.7,1.7,0,0,0-2.369-.974,2.127,2.127,0,0,0-1.1,2.556l.416,3.432C358.915,326.248,359.792,326.223,360.383,326.1Z" fill="#d6bff2"/><path d="M358.759,323.814s-.466,2.106,1.139,1.935a3.61,3.61,0,0,0,2.995-2.462,14.681,14.681,0,0,1,2.955.889,3.762,3.762,0,0,1,1.931,2.459,5.6,5.6,0,0,1,.041,1.416,77.071,77.071,0,0,0,1.393,19.139c.055.278.1.609-.092.784a.665.665,0,0,1-.368.135c-5.008.751-9.4,3.061-14.39,1.258.082-1.388.134-2.87.171-4.4.082-3.435.19-11.827.845-15.311a11.466,11.466,0,0,1,1.571-3.4A23.472,23.472,0,0,1,358.759,323.814Z" fill="#4d2cb1"/><path d="M356.018,321.541c.573,2.473,3.992,1.394,5.246.989,1.873-.605,5.978-5.375,4.192-8.175s-5.959-2.883-7.646-1.937S355.615,319.8,356.018,321.541Z" fill="#d6bff2"/><path d="M343.574,308.861l.016-.012a9.3,9.3,0,0,1,.991-.562c.171-.051.434-.115.457-.123.361-.121.318,0,.331.021.275.4-.5.73-1.015,1.562a3.7,3.7,0,0,0-.27.567c.031.18-.027,1.848-.013,2.023.008.107-2.045,1.889-2.26,1.023a27.215,27.215,0,0,0-.991-3.872,10.6,10.6,0,0,0-1.326-1.525c-.414-.408-1.731-1.464-1.619-1.519a.586.586,0,0,1,.48.086,9.112,9.112,0,0,1,1.532.9l.474.367c.081.062.251.176.251.176s-.14-.155-.209-.233c-.132-.149-.3-.279-.424-.434-.367-.458-1.672-1.568-1.784-1.79-.03-.061-.143-.2-.029-.255.159-.078,1.181.633,1.436.846.536.449,1.144.917,1.3,1.033.019.015.138.129.162.126s-.08-.146-.085-.156c-.074-.146-2.04-2.606-1.934-2.619.239-.03.5.193.715.357a9.967,9.967,0,0,1,1.423,1.492c.152.179.3.36.459.533.026.027.139.2.183.2.028,0-.084-.125-.094-.144-.059-.117-.187-.26-.254-.393a12.994,12.994,0,0,0-.922-1.408c-.124-.18-.507-.641-.445-.7.2-.194,1.661,1.564,1.9,1.919A21.579,21.579,0,0,1,343.574,308.861Zm1.678-.6" fill="#d6bff2" fill-rule="evenodd"/><path d="M364.115,327.544c-.024,1.033.552,4.364-5.821,4.933-5.005.447-17.414-4.436-16.586-22.373,0,0-.093-1.9.9-1.565,1.907.642,2.286,9.957,5.907,14.148,2.733,3.165,5.911,4.1,9.916,3.593C361.623,325.88,364.138,326.512,364.115,327.544Z" fill="#d6bff2" fill-rule="evenodd"/><path d="M354.05,325.29s4.127.679,5.441.7c1.688.03,5.044-.471,6,.521,2.855,2.971,1.008,5.991-1.754,6.554a14.263,14.263,0,0,1-4.155.305,25.624,25.624,0,0,1-6.587-1.351C352.579,329.27,354.05,325.29,354.05,325.29Z" fill="#4d2cb1" fill-rule="evenodd"/><path d="M362.691,318.914c-.6.615-.788,1.35-.473,1.624,1.052.916,1.789.994,2.384.379a1.311,1.311,0,0,0-.039-1.927,1.22,1.22,0,0,0-1.872-.076" fill="#d6bff2"/><path d="M362.247,322.013s3.463.355,4.548-4.064c0,0,.322-1.924-.224-2.562a3.1,3.1,0,0,0-.748-3.627c-2.451-2.316-7.048-1.173-7.616-2.178a2.177,2.177,0,0,0,1.89,1.591,6.561,6.561,0,0,1-3.727-2.077,2,2,0,0,0,.946,2.545,2.865,2.865,0,0,1-2-1.338s-1.651,3.061,1.938,4.632c2.668,1.167,4.683-.573,5.447,1.124.6,1.341-1.47,3.156-.086,4.538l1.46-1.644s.49-.062.663.171c.206.277.067.886-.424,1.333a2.07,2.07,0,0,1-1.436.547Z" fill="#4d2cb1" fill-rule="evenodd"/></g></g><ellipse cx="45.422" cy="6.695" rx="45.422" ry="6.695" transform="translate(219.314 643.256)" fill="#e8f0f9"/></g></svg>