<svg xmlns="http://www.w3.org/2000/svg" width="62.953" height="50.621" viewBox="0 0 62.953 50.621"><defs><style>.a{fill:#fff;}</style></defs><g transform="translate(0 0)"><g transform="translate(0 0)"><path class="a" d="M39.295,100.883,37.959,98.45a40.443,40.443,0,0,0-4.088,2.576l1.618,2.255A37.577,37.577,0,0,1,39.295,100.883Z" transform="translate(-26.763 -83.957)"/><path class="a" d="M79.455,84.008l-.717-2.682a40.181,40.181,0,0,0-4.583,1.527l1.034,2.576A37.39,37.39,0,0,1,79.455,84.008Z" transform="translate(-58.594 -70.426)"/><path class="a" d="M210.287,87.956a40.127,40.127,0,0,0-4.446-1.895l-.932,2.614a37.187,37.187,0,0,1,4.137,1.763Z" transform="translate(-161.911 -74.167)"/><path class="a" d="M277.769,136.5l-2.044,1.877a37.726,37.726,0,0,1,2.839,3.49l2.255-1.618A40.061,40.061,0,0,0,277.769,136.5Z" transform="translate(-217.866 -114.025)"/><path class="a" d="M243.18,108.943a37.33,37.33,0,0,1,3.591,2.709l1.8-2.111a39.853,39.853,0,0,0-3.861-2.911Z" transform="translate(-192.151 -90.42)"/><path class="a" d="M0,128.73l2.11,1.8A37.349,37.349,0,0,1,5.234,127.3l-1.877-2.044A40.063,40.063,0,0,0,0,128.73Z" transform="translate(0 -105.135)"/><path class="a" d="M105.019,44.241h1.394l1.692-2.565,5.437.038L111.109,50.1a.444.444,0,0,0,.444.444h2.237l4.672-8.665,4.289.142a2.091,2.091,0,1,0,0-4.175l-4.32.144-4.641-8.608h-2.238a.445.445,0,0,0-.444.444l2.416,8.328-5.45.047-1.663-2.515h-1.394a.335.335,0,0,0-.335.334v7.886A.335.335,0,0,0,105.019,44.241Z" transform="translate(-82.716 -29.382)"/><path class="a" d="M57.356,148.266a24.875,24.875,0,0,0-5.52-.624,24.627,24.627,0,0,0-24.121,19.266,24.883,24.883,0,0,0-.6,6.539h2.778a22.1,22.1,0,0,1,.528-5.918c.908.235,4.969,1.362,4.84,2.669a9.058,9.058,0,0,0-.168,3.249h2.553c.351-.255.689-.377,1.019-.029l.03.029h20.16a12.63,12.63,0,0,1-5.416-8.362c-.335-.146.623-3.938-.869-4.394s-2.436-.09-4.552-1.034-1.325-2.263-.977-5.412a11.477,11.477,0,0,1,.926-3.491,22.152,22.152,0,0,1,8.775.217,22,22,0,0,1,17.1,22.081c-.181.132-.376.263-.58.4H76.6a24.761,24.761,0,0,0-19.242-25.181Z" transform="translate(-21.408 -122.826)"/></g></g></svg>