<svg xmlns="http://www.w3.org/2000/svg" width="25.964" height="25.967" viewBox="0 0 25.964 25.967"><defs><style>.a{fill:#fff;}</style></defs><g transform="translate(-3.015 -2.999)"><path class="a" d="M18.346,20.6l.1-.1Zm4.66,1.7c0,.326.346-.118-6.273,6.5a.554.554,0,0,1-.943-.39V24.149c-2.277,1.036-2.467,1.246-2.825.889L6.938,19.011c-.361-.361-.124-.591.889-2.822H3.565a.554.554,0,0,1-.39-.943c6.616-6.619,6.183-6.273,6.5-6.273h4.8A19.18,19.18,0,0,1,28.427,3a.551.551,0,0,1,.551.554A19.2,19.2,0,0,1,23.006,17.51ZM8.357,15.089l5.009-5.012H9.9L4.9,15.084Zm6.806,8.137L8.758,16.812,7.991,18.5l5.482,5.482ZM21.9,18.609l-5.006,5.012v3.462L21.9,22.075ZM22.55,16.4A18.045,18.045,0,0,0,27.865,4.114,18.045,18.045,0,0,0,15.576,9.428L9.257,15.747l6.974,6.974L17.9,21.048l-.066.066-.127.127.127-.127Zm-4.461,4.466-.159.159Zm.254-.254-.2.2Zm3.944-7.121a2.683,2.683,0,1,1,0-3.794,2.683,2.683,0,0,1,0,3.794Zm-.782-3.015a1.578,1.578,0,1,0,0,2.233A1.578,1.578,0,0,0,21.506,10.473ZM7.694,23.506,4.678,26.518a.553.553,0,0,0,.782.782l3.012-3.015a.551.551,0,0,0-.779-.779Zm2.259,1.757-2.51,2.51a.553.553,0,1,0,.782.782l2.51-2.51a.553.553,0,0,0-.782-.782ZM5.934,21.244l-2.51,2.51a.553.553,0,1,0,.782.782l2.51-2.51a.553.553,0,0,0-.782-.782Z"/></g></svg>