<svg xmlns="http://www.w3.org/2000/svg" width="162.869" height="180.289" viewBox="0 0 162.869 180.289">
  <g id="side-vector2" transform="translate(0 0)">
    <g id="Group_2529" data-name="Group 2529" transform="translate(0 169.28)">
      <path id="Path_15165" data-name="Path 15165" d="M450.613,430.949c0,3.04-36.46,5.5-81.435,5.5s-81.435-2.465-81.435-5.5,36.459-5.506,81.435-5.506S450.613,427.908,450.613,430.949Z" transform="translate(-287.744 -425.443)" fill="#e6f4ff"/>
    </g>
    <g id="Group_2608" data-name="Group 2608" transform="translate(2.179 0)">
      <g id="Group_2568" data-name="Group 2568" transform="translate(44.229 45.517)">
        <g id="Group_2531" data-name="Group 2531" transform="translate(46.825 6.1)">
          <g id="Group_2530" data-name="Group 2530" transform="translate(0)">
            <rect id="Rectangle_1864" data-name="Rectangle 1864" width="20.631" height="29.661" transform="translate(0)" fill="#4a245e"/>
          </g>
        </g>
        <g id="Group_2533" data-name="Group 2533" transform="translate(37.799 4.563)">
          <g id="Group_2532" data-name="Group 2532" transform="translate(0)">
            <rect id="Rectangle_1865" data-name="Rectangle 1865" width="38.684" height="6.745" transform="translate(0 0)" fill="#723891"/>
          </g>
        </g>
        <g id="Group_2535" data-name="Group 2535" transform="translate(37.799)">
          <g id="Group_2534" data-name="Group 2534" transform="translate(0)">
            <rect id="Rectangle_1866" data-name="Rectangle 1866" width="38.684" height="4.563" transform="translate(0)" fill="#4a245e"/>
          </g>
        </g>
        <g id="Group_2537" data-name="Group 2537" transform="translate(2.578 17.565)">
          <g id="Group_2536" data-name="Group 2536" transform="translate(0)">
            <ellipse id="Ellipse_97" data-name="Ellipse 97" cx="54.562" cy="54.562" rx="54.562" ry="54.562" transform="translate(0)" fill="#b3dcff"/>
          </g>
        </g>
        <g id="Group_2538" data-name="Group 2538" transform="translate(15.603 51.491)">
          <path id="Path_15166" data-name="Path 15166" d="M311.927,411.747A74.33,74.33,0,0,0,384.56,353.17,54.563,54.563,0,0,1,292.5,409.177,74.413,74.413,0,0,0,311.927,411.747Z" transform="translate(-292.503 -353.17)" fill="#8ac9ff"/>
        </g>
        <g id="Group_2540" data-name="Group 2540" transform="translate(0 14.987)">
          <g id="Group_2539" data-name="Group 2539" transform="translate(0)">
            <path id="Path_15167" data-name="Path 15167" d="M347.064,430.948a57.141,57.141,0,1,0-57.141-57.142A57.207,57.207,0,0,0,347.064,430.948Zm0-109.124a51.983,51.983,0,1,1-51.984,51.983A52.042,52.042,0,0,1,347.064,321.824Z" transform="translate(-289.923 -316.666)" fill="#723891"/>
          </g>
        </g>
        <g id="Group_2552" data-name="Group 2552" transform="translate(7.678 22.813)">
          <g id="Group_2543" data-name="Group 2543" transform="translate(48.272)">
            <g id="Group_2542" data-name="Group 2542" transform="translate(0)">
              <g id="Group_2541" data-name="Group 2541" transform="translate(0)">
                <rect id="Rectangle_1867" data-name="Rectangle 1867" width="2.381" height="6.348" transform="translate(0)" fill="#fff"/>
              </g>
            </g>
          </g>
          <g id="Group_2546" data-name="Group 2546" transform="translate(49.284 92.545)">
            <g id="Group_2545" data-name="Group 2545" transform="translate(0)">
              <g id="Group_2544" data-name="Group 2544" transform="translate(0)">
                <rect id="Rectangle_1868" data-name="Rectangle 1868" width="2.381" height="6.348" transform="translate(0)" fill="#fff"/>
              </g>
            </g>
          </g>
          <g id="Group_2551" data-name="Group 2551" transform="translate(0 48.272)">
            <g id="Group_2548" data-name="Group 2548" transform="translate(92.577)">
              <g id="Group_2547" data-name="Group 2547" transform="translate(0)">
                <rect id="Rectangle_1869" data-name="Rectangle 1869" width="6.348" height="2.38" transform="translate(0)" fill="#fff"/>
              </g>
            </g>
            <g id="Group_2550" data-name="Group 2550" transform="translate(0)">
              <g id="Group_2549" data-name="Group 2549" transform="translate(0)">
                <rect id="Rectangle_1870" data-name="Rectangle 1870" width="6.348" height="2.38" transform="translate(0)" fill="#fff"/>
              </g>
            </g>
          </g>
        </g>
        <g id="Group_2563" data-name="Group 2563" transform="translate(21.324 36.459)">
          <g id="Group_2557" data-name="Group 2557" transform="translate(0)">
            <g id="Group_2554" data-name="Group 2554" transform="translate(65.462)">
              <g id="Group_2553" data-name="Group 2553" transform="translate(0)">
                <rect id="Rectangle_1871" data-name="Rectangle 1871" width="2.38" height="6.348" transform="matrix(-0.707, -0.707, 0.707, -0.707, 1.683, 6.172)" fill="#fff"/>
              </g>
            </g>
            <g id="Group_2556" data-name="Group 2556" transform="translate(0 65.462)">
              <g id="Group_2555" data-name="Group 2555" transform="translate(0)">
                <rect id="Rectangle_1872" data-name="Rectangle 1872" width="2.38" height="6.348" transform="translate(1.683 6.172) rotate(-135.002)" fill="#fff"/>
              </g>
            </g>
          </g>
          <g id="Group_2562" data-name="Group 2562" transform="translate(0 0)">
            <g id="Group_2559" data-name="Group 2559" transform="translate(65.462 65.462)">
              <g id="Group_2558" data-name="Group 2558" transform="translate(0)">
                <rect id="Rectangle_1873" data-name="Rectangle 1873" width="6.348" height="2.38" transform="translate(4.489 6.172) rotate(-135)" fill="#fff"/>
              </g>
            </g>
            <g id="Group_2561" data-name="Group 2561" transform="translate(0)">
              <g id="Group_2560" data-name="Group 2560" transform="translate(0)">
                <rect id="Rectangle_1874" data-name="Rectangle 1874" width="6.348" height="2.38" transform="translate(4.489 6.172) rotate(-135)" fill="#fff"/>
              </g>
            </g>
          </g>
        </g>
        <g id="Group_2565" data-name="Group 2565" transform="translate(18.032 69.335)">
          <g id="Group_2564" data-name="Group 2564" transform="translate(0)">
            <path id="Path_15168" data-name="Path 15168" d="M379.121,373.378h-34.65a1.281,1.281,0,0,0,0,2.562h34.65a3.644,3.644,0,1,0,0-2.562Z" transform="translate(-343.19 -371.015)" fill="#fff"/>
          </g>
        </g>
        <g id="Group_2567" data-name="Group 2567" transform="translate(42.829 48.797)">
          <g id="Group_2566" data-name="Group 2566" transform="translate(0)">
            <path id="Path_15169" data-name="Path 15169" d="M357.166,370.917l-11.213-19.791a1.281,1.281,0,1,0-2.228,1.263l11.212,19.791a3.645,3.645,0,1,0,2.229-1.263Z" transform="translate(-343.558 -350.476)" fill="#fff"/>
          </g>
        </g>
      </g>
      <g id="Group_2607" data-name="Group 2607" transform="translate(0)">
        <g id="Group_2569" data-name="Group 2569" transform="translate(16.213)">
          <path id="Path_15170" data-name="Path 15170" d="M400.062,282.608c1.312-1.725,3.866-2.1,4.679-4.1.674-1.659-.066-2.744-1.476-4.048s-5.3-4.591-1.661-6.3c1.77-.835,5.007.329,5.089-2.762s.118-7.68,4.17-6.262c3.114,1.089,3.812,1.529,6.29-1.165,1.8-1.956,4.262-2.8,6.264-.039.391.537.794,1.807,1.18,2.484a7.67,7.67,0,0,0,3.536,3.175c1.253.606,2.447.956,3.188,2.169a3.2,3.2,0,0,1-.117,3.735c-1.63,2.215-3.614,3.331-2.327,6.284.756,1.734,2.558,2.56,3.173,4.469a5.389,5.389,0,0,1-.193,3.265,5.334,5.334,0,0,1-1.644,1.993,26.6,26.6,0,0,0-2.851,2.142,11.93,11.93,0,0,0-2.043,3.212c-1.573,3.641-1.87,8.051-2.624,11.7-.812,3.93-2.418,7.321-6.494,7.728s-5.879-2.26-7.91-5.5c-1.209-1.932-1.515-5.568-2.208-7.728a27.136,27.136,0,0,0-5.454-9.618,4.861,4.861,0,0,1-1.134-2.473A3.568,3.568,0,0,1,400.062,282.608Z" transform="translate(-399.48 -256.162)" fill="#723891"/>
        </g>
        <g id="Group_2573" data-name="Group 2573" transform="translate(0 160.558)">
          <g id="Group_2571" data-name="Group 2571" transform="translate(0 2.269)">
            <g id="Group_2570" data-name="Group 2570" transform="translate(0)">
              <path id="Path_15171" data-name="Path 15171" d="M435.81,418.99c2.187.744,7.3,3.318,7.3,3.319s5.2,5.093,5.322,7.445c.074,1.485-2.23,1.38-3.268.79l-11.85-7.346Z" transform="translate(-433.315 -418.99)" fill="#723891"/>
            </g>
          </g>
          <g id="Group_2572" data-name="Group 2572" transform="translate(2.495)">
            <path id="Path_15172" data-name="Path 15172" d="M438.639,418.99s3.9,3.954,7.3,3.319l-.91-.93s-2.716-3.888-4.934-4.658Z" transform="translate(-438.639 -416.721)" fill="#ffb8bc"/>
          </g>
        </g>
        <g id="Group_2583" data-name="Group 2583" transform="translate(32.338 54.471)">
          <g id="Group_2580" data-name="Group 2580" transform="translate(3.185 99.948)">
            <g id="Group_2576" data-name="Group 2576" transform="translate(4.249)">
              <g id="Group_2574" data-name="Group 2574" transform="translate(0 15.064)">
                <path id="Path_15173" data-name="Path 15173" d="M408.663,425.645" transform="translate(-408.663 -425.645)" fill="none" stroke="#ffb8bc" stroke-linejoin="round" stroke-width="6.496"/>
              </g>
              <g id="Group_2575" data-name="Group 2575" transform="translate(1.01)">
                <path id="Path_15174" data-name="Path 15174" d="M407.653,410.581" transform="translate(-407.653 -410.581)" fill="none" stroke="#ffb8bc" stroke-linejoin="round" stroke-width="6.496"/>
              </g>
            </g>
            <g id="Group_2578" data-name="Group 2578" transform="translate(0 13.528)">
              <g id="Group_2577" data-name="Group 2577" transform="translate(0)">
                <path id="Path_15175" data-name="Path 15175" d="M397.159,424.119c2.309-.092,8,.471,8.006.471s6.689,2.881,7.644,5.033c.6,1.359-1.584,2.089-2.766,1.912l-13.7-2.592Z" transform="translate(-396.344 -424.109)" fill="#723891"/>
              </g>
            </g>
            <g id="Group_2579" data-name="Group 2579" transform="translate(0.815 10.895)">
              <path id="Path_15176" data-name="Path 15176" d="M404.091,424.119s5.064,2.286,8.006.471l-1.184-.54s-3.932-2.651-6.278-2.572Z" transform="translate(-404.091 -421.476)" fill="#ffb8bc"/>
            </g>
          </g>
          <g id="Group_2582" data-name="Group 2582" transform="translate(0)">
            <g id="Group_2581" data-name="Group 2581" transform="translate(0)">
              <path id="Path_15177" data-name="Path 15177" d="M408.77,424.405c.074-.816,10.229-64.33,6.508-113.772l-17.2,15.231C400.1,375,402.2,423.287,402.16,423.7Z" transform="translate(-398.075 -310.633)" fill="#ffb8bc"/>
            </g>
          </g>
        </g>
        <g id="Group_2584" data-name="Group 2584" transform="translate(2.715 60.404)">
          <path id="Path_15178" data-name="Path 15178" d="M424.233,342.719c-2.5-8.054-4.926-18.22,4.56-26.153l16.341,1.068c5.5,44.356-29.49,101.875-30.373,103.745l-6.171-2.732C408.763,418.28,423.8,378.459,424.233,342.719Z" transform="translate(-408.59 -316.566)" fill="#ffb8bc"/>
        </g>
        <g id="Group_2585" data-name="Group 2585" transform="translate(11.43 60.993)">
          <path id="Path_15179" data-name="Path 15179" d="M436.628,372.852c.365-19.82,1.1-33.852-1.59-54.086,0,0-12.582-.357-12.821-1.611H405.843c-10.364,8.541-9.412,37.006-9.383,55.7Z" transform="translate(-396.425 -317.155)" fill="#ffd942"/>
        </g>
        <g id="Group_2589" data-name="Group 2589" transform="translate(36.034 29.903)">
          <g id="Group_2587" data-name="Group 2587" transform="translate(1.977 0.934)">
            <g id="Group_2586" data-name="Group 2586" transform="translate(0)">
              <path id="Path_15180" data-name="Path 15180" d="M410.316,315.8a3.722,3.722,0,0,0-3.856-4.6c-16.461,1.088-31.4-10.948-41.676-23.854-1.279-1.606-5.287,2.822-6.893,4.1a3.718,3.718,0,0,0-.593,5.225A59.34,59.34,0,0,0,406.95,318.62,3.72,3.72,0,0,0,410.316,315.8Z" transform="translate(-356.489 -287)" fill="#ffb8bc"/>
            </g>
          </g>
          <g id="Group_2588" data-name="Group 2588" transform="translate(0)">
            <path id="Path_15181" data-name="Path 15181" d="M404.372,310.237c-4.6-3.208-12.564-10.292-15.3-17.117-.722-1.8-.757-4.3.556-5.852,1.671-1.975,6.484-1.046,8.688-.508,3.792.925,6.324,7.86,14.089,13.3C409.517,303.758,407.488,307.388,404.372,310.237Z" transform="translate(-388.57 -286.065)" fill="#8ac9ff"/>
          </g>
        </g>
        <g id="Group_2591" data-name="Group 2591" transform="translate(14.983 27.873)">
          <g id="Group_2590" data-name="Group 2590">
            <path id="Path_15182" data-name="Path 15182" d="M400.221,318.766c14.9,2.235,30.688,0,30.688,0s2.543-22.262,2.543-22.288c0-8.857-7.941-12.241-15.544-12.418-8.829-.2-22.06.633-22.06,12.418Z" transform="translate(-395.848 -284.036)" fill="#b3dcff"/>
          </g>
        </g>
        <g id="Group_2592" data-name="Group 2592" transform="translate(37.345 36.203)">
          <path id="Path_15183" data-name="Path 15183" d="M394.4,308.365h11.623c9.313,0,2.948-16,2.948-16l-14.571,3.48Z" transform="translate(-394.396 -292.365)" fill="#b3dcff"/>
        </g>
        <g id="Group_2600" data-name="Group 2600" transform="translate(28.74 6.581)">
          <g id="Group_2593" data-name="Group 2593" transform="translate(7.273 7.835)">
            <path id="Path_15184" data-name="Path 15184" d="M405.914,270.938l4.322-.353a2.021,2.021,0,0,1,.329,4.029l-4.563.373Z" transform="translate(-405.914 -270.578)" fill="#ff808c"/>
          </g>
          <g id="Group_2594" data-name="Group 2594" transform="translate(0 8.289)">
            <path id="Path_15185" data-name="Path 15185" d="M419.695,275.081l-4.322.353a2.021,2.021,0,0,1-.329-4.029l4.563-.373Z" transform="translate(-413.187 -271.032)" fill="#ffb8bc"/>
          </g>
          <g id="Group_2596" data-name="Group 2596" transform="translate(1.861 12.69)">
            <g id="Group_2595" data-name="Group 2595" transform="translate(0)">
              <path id="Path_15186" data-name="Path 15186" d="M415.165,286.4h0a2.857,2.857,0,0,0,2.663-3.038l-.432-6.54-6.2-1.392.929,8.308A2.857,2.857,0,0,0,415.165,286.4Z" transform="translate(-411.197 -275.433)" fill="#ffb8bc"/>
            </g>
          </g>
          <g id="Group_2598" data-name="Group 2598" transform="translate(3.056 12.373)">
            <g id="Group_2597" data-name="Group 2597" transform="translate(0)">
              <path id="Path_15187" data-name="Path 15187" d="M411.821,275.116l4.266.11.552,7.7a5.531,5.531,0,0,1-5.424-4.854A17.539,17.539,0,0,1,411.821,275.116Z" transform="translate(-411.21 -275.116)" fill="#ff808c"/>
            </g>
          </g>
          <g id="Group_2599" data-name="Group 2599" transform="translate(1.31)">
            <path id="Path_15188" data-name="Path 15188" d="M413.147,281.067h0a5.718,5.718,0,0,0,5.219-6.146l-.565-6.939a5.719,5.719,0,0,0-6.147-5.22h0a5.718,5.718,0,0,0-5.219,6.147l.565,6.938A5.719,5.719,0,0,0,413.147,281.067Z" transform="translate(-406.416 -262.743)" fill="#ffb8bc"/>
          </g>
        </g>
        <g id="Group_2601" data-name="Group 2601" transform="translate(29.276 26.873)">
          <path id="Path_15189" data-name="Path 15189" d="M409.192,287.33l5.858,1.345,4.109-1.345-.078-3.135-1.814-1.16-2.476,3.461-3.36-3.461-2.239,1.291Z" transform="translate(-409.192 -283.035)" fill="#b3dcff"/>
        </g>
        <g id="Group_2602" data-name="Group 2602" transform="translate(27.861 5.481)">
          <path id="Path_15190" data-name="Path 15190" d="M416.965,270.91c-.316-.531-.393-1.214-.9-1.6a1.793,1.793,0,0,0-1.933.058,8.675,8.675,0,0,0-1.481,1.347,6.145,6.145,0,0,1-4.139,1.79,4.25,4.25,0,0,1-3.808-2.11,4.768,4.768,0,0,1,.668-4.638,9.257,9.257,0,0,1,6.162-4.009,8.342,8.342,0,0,1,7.059,2.107c1.717,1.691,2.035,3.872,1.971,6.114A1.9,1.9,0,0,1,416.965,270.91Z" transform="translate(-404.35 -261.643)" fill="#723891"/>
        </g>
        <g id="Group_2606" data-name="Group 2606" transform="translate(0.362 29.085)">
          <g id="Group_2604" data-name="Group 2604" transform="translate(0 1.156)">
            <g id="Group_2603" data-name="Group 2603" transform="translate(0)">
              <path id="Path_15191" data-name="Path 15191" d="M439.516,331.754a2.762,2.762,0,0,0,1.157-1.353c.912-2.416-1.81-4.639-3.254-6.163a32.14,32.14,0,0,1-5.4-7.444c-1.87-3.707-2.4-8.167.379-11.565,3.238-3.958,8.322-5.892,12.786-8.076q1.181-.578,2.363-1.151c1.761-.861-1.37-6.107-2.5-7.483s-2.781-2.877-5.1-1.678c-6.172,3.191-13.183,6.873-17.246,12.739-4.033,5.824-2.316,13.071,1.025,18.768,2.588,4.414,6.7,10.882,11.4,13.252a5.27,5.27,0,0,0,3.092.623A3.423,3.423,0,0,0,439.516,331.754Z" transform="translate(-420.358 -286.403)" fill="#ffb8bc"/>
            </g>
          </g>
          <g id="Group_2605" data-name="Group 2605" transform="translate(4.95)">
            <path id="Path_15192" data-name="Path 15192" d="M417.834,295.8a41.952,41.952,0,0,1,18.789-10.4c1.893-.407,4.366-.018,5.674,1.539,1.664,1.981.446,5.7-.457,7.785-1.554,3.582-6.207,5.32-9.354,7.316-.618.391-6.651,5.183-6.651,5.183C423.554,303.668,420.115,299.349,417.834,295.8Z" transform="translate(-417.834 -285.248)" fill="#b3dcff"/>
          </g>
        </g>
      </g>
    </g>
  </g>
</svg>
