<svg xmlns="http://www.w3.org/2000/svg" width="162.871" height="181.77" viewBox="0 0 162.871 181.77">
  <g id="side-vector1" transform="translate(-301.543 -246.908)">
    <g id="Group_2089" data-name="Group 2089">
      <ellipse id="Ellipse_91" data-name="Ellipse 91" cx="81.435" cy="5.506" rx="81.435" ry="5.506" transform="translate(301.543 417.667)" fill="#e6f4ff"/>
    </g>
    <g id="Group_2130" data-name="Group 2130">
      <g id="Group_2090" data-name="Group 2090">
        <path id="Path_14961" data-name="Path 14961" d="M433.217,265.93c-.054-4.33-1.5-8.686-4.326-11.266a9.579,9.579,0,0,0-11.9-.663l-.11.075c-5.435,3.733-6.29,11.96-3.285,17.474,2.433,4.465,2.435,8.107,2.435,13.094h26.178v-6.877A12.3,12.3,0,0,0,433.217,265.93Z" fill="#723891"/>
      </g>
      <g id="Group_2091" data-name="Group 2091">
        <rect id="Rectangle_1825" data-name="Rectangle 1825" width="20.944" height="13.455" transform="translate(412.183 305.417)" fill="#4a245e"/>
      </g>
      <g id="Group_2097" data-name="Group 2097">
        <g id="Group_2093" data-name="Group 2093">
          <g id="Group_2092" data-name="Group 2092">
            <rect id="Rectangle_1826" data-name="Rectangle 1826" width="6.518" height="15.15" transform="translate(413.775 402.345) rotate(-3.751)" fill="#ffb8bc"/>
          </g>
        </g>
        <g id="Group_2095" data-name="Group 2095">
          <g id="Group_2094" data-name="Group 2094">
            <path id="Path_14962" data-name="Path 14962" d="M421.467,415.724c-2.317-.1-8.034.46-8.035.46s-6.716,2.881-7.678,5.04c-.607,1.362,1.587,2.1,2.773,1.923l13.75-2.581Z" fill="#4a245e"/>
          </g>
        </g>
        <g id="Group_2096" data-name="Group 2096">
          <path id="Path_14963" data-name="Path 14963" d="M421.467,415.724s-5.085,2.286-8.035.46l1.189-.54s3.95-2.655,6.3-2.571C420.925,413.073,421.467,415.728,421.467,415.724Z" fill="#ffb8bc"/>
        </g>
      </g>
      <g id="Group_2103" data-name="Group 2103">
        <g id="Group_2099" data-name="Group 2099">
          <g id="Group_2098" data-name="Group 2098">
            <rect id="Rectangle_1827" data-name="Rectangle 1827" width="6.518" height="14.103" transform="translate(433.079 404.509) rotate(-9.856)" fill="#ffb8bc"/>
          </g>
        </g>
        <g id="Group_2101" data-name="Group 2101">
          <g id="Group_2100" data-name="Group 2100">
            <path id="Path_14964" data-name="Path 14964" d="M442.153,416.32c-2.317-.1-8.034.46-8.036.46s-6.716,2.881-7.677,5.039c-.607,1.363,1.587,2.1,2.773,1.924l13.75-2.581Z" fill="#4a245e"/>
          </g>
        </g>
        <g id="Group_2102" data-name="Group 2102">
          <path id="Path_14965" data-name="Path 14965" d="M442.153,416.32s-5.085,2.286-8.036.46l1.189-.54s3.454-3.252,5.808-3.169C441.114,413.071,442.153,416.324,442.153,416.32Z" fill="#ffb8bc"/>
        </g>
      </g>
      <g id="Group_2107" data-name="Group 2107">
        <g id="Group_2105" data-name="Group 2105">
          <g id="Group_2104" data-name="Group 2104">
            <path id="Path_14966" data-name="Path 14966" d="M381.53,327.632a3.735,3.735,0,0,1,1.311-5.88c15.168-6.631,22.922-24.251,26.119-40.494.4-2.021,6.013.074,8.035.472a3.73,3.73,0,0,1,2.94,4.381,59.544,59.544,0,0,1-34.105,42.478A3.734,3.734,0,0,1,381.53,327.632Z" fill="#ffb8bc"/>
          </g>
        </g>
        <g id="Group_2106" data-name="Group 2106">
          <path id="Path_14967" data-name="Path 14967" d="M414.6,304.206c2.619-4.983,6.442-14.97,5.733-22.316-.187-1.934-1.31-4.18-3.2-4.957-2.4-.989-6.26,2.061-7.975,3.558-2.952,2.575-2.007,9.922-6.413,18.355C407.027,300.808,410.51,303.106,414.6,304.206Z" fill="#d1b236"/>
        </g>
      </g>
      <g id="Group_2109" data-name="Group 2109">
        <g id="Group_2108" data-name="Group 2108">
          <path id="Path_14968" data-name="Path 14968" d="M413.432,411.479c-.073-.819-8.854-60.046-5.048-109.655l17.24,15.309c-2.1,49.309-4.194,93.431-4.157,93.85Z" fill="#4a245e"/>
        </g>
      </g>
      <g id="Group_2111" data-name="Group 2111">
        <g id="Group_2110" data-name="Group 2110">
          <path id="Path_14969" data-name="Path 14969" d="M441.177,333.7c3.258-10.591.886-23.564-6.182-26.739q-5.6,4.393-11.2,8.79c-5.129,29.688,1.39,68.635,10.085,97.5,2.658-.495,5.316-.987,7.971-1.5C437.748,387.307,439.005,360.1,441.177,333.7Z" fill="#4a245e"/>
        </g>
      </g>
      <g id="Group_2113" data-name="Group 2113">
        <g id="Group_2112" data-name="Group 2112">
          <path id="Path_14970" data-name="Path 14970" d="M438.672,310.133H407.877s-2.552-22.339-2.552-22.365c0-8.888,7.969-12.284,15.6-12.461,8.86-.206,22.137.635,22.137,12.461Z" fill="#ffd942"/>
        </g>
      </g>
      <g id="Group_2114" data-name="Group 2114">
        <path id="Path_14971" data-name="Path 14971" d="M421.418,299.7H409.754a6.4,6.4,0,0,1-6.125-8.266l2.065-6.787,15.724,2.488Z" fill="#ffd942"/>
      </g>
      <g id="Group_2115" data-name="Group 2115">
        <path id="Path_14972" data-name="Path 14972" d="M423.362,280.271a4.581,4.581,0,0,0,4.581-4.581c0-.068-.007-.134-.01-.2a62.8,62.8,0,0,0-7.01-.182c-.709.017-1.421.061-2.129.135,0,.083-.012.164-.012.248A4.58,4.58,0,0,0,423.362,280.271Z" fill="#d1b236"/>
      </g>
      <g id="Group_2123" data-name="Group 2123">
        <g id="Group_2116" data-name="Group 2116">
          <path id="Path_14973" data-name="Path 14973" d="M421.52,263.225l-4.344-.259a2.028,2.028,0,1,0-.242,4.049l4.586.274Z" fill="#ff808c"/>
        </g>
        <g id="Group_2117" data-name="Group 2117">
          <path id="Path_14974" data-name="Path 14974" d="M422.378,267.366l4.343.26a2.029,2.029,0,0,0,.243-4.05l-4.586-.274Z" fill="#ffb8bc"/>
        </g>
        <g id="Group_2119" data-name="Group 2119">
          <g id="Group_2118" data-name="Group 2118">
            <path id="Path_14975" data-name="Path 14975" d="M423.3,278.71h0a2.866,2.866,0,0,1-2.737-2.991l.291-6.57,6.189-1.531-.752,8.355A2.867,2.867,0,0,1,423.3,278.71Z" fill="#ffb8bc"/>
          </g>
        </g>
        <g id="Group_2121" data-name="Group 2121">
          <g id="Group_2120" data-name="Group 2120">
            <path id="Path_14976" data-name="Path 14976" d="M425.228,267.34l-4.277.2-.387,7.741A5.55,5.55,0,0,0,425.9,270.3,17.456,17.456,0,0,0,425.228,267.34Z" fill="#ff808c"/>
          </g>
        </g>
        <g id="Group_2122" data-name="Group 2122">
          <path id="Path_14977" data-name="Path 14977" d="M420.969,273.4h0a5.74,5.74,0,0,1-5.37-6.054l.418-6.973a5.738,5.738,0,0,1,6.053-5.37h0a5.74,5.74,0,0,1,5.37,6.053l-.418,6.974A5.738,5.738,0,0,1,420.969,273.4Z" fill="#ffb8bc"/>
        </g>
      </g>
      <g id="Group_2125" data-name="Group 2125">
        <g id="Group_2124" data-name="Group 2124">
          <path id="Path_14978" data-name="Path 14978" d="M424.064,253.534c-1.9-.08-5.349-.381-7.263,1.124a5.221,5.221,0,0,0-2.118,3.459c-.141,1.062-3.069,3.666-.058,3.355,2.105-.217,9.37-4.44,9.552,1.538.054,1.776,2.247,4.177,4.795,2.955.839-.4.367.965,1.989-1.979S430.947,253.826,424.064,253.534Z" fill="#723891"/>
        </g>
      </g>
      <g id="Group_2129" data-name="Group 2129">
        <g id="Group_2127" data-name="Group 2127">
          <g id="Group_2126" data-name="Group 2126">
            <path id="Path_14979" data-name="Path 14979" d="M447.1,338.747a3.732,3.732,0,0,1-3.443-4.943c5.379-15.656-2.35-33.287-12.148-46.63-1.219-1.661,4.123-4.379,5.784-5.6a3.73,3.73,0,0,1,5.215.8,59.544,59.544,0,0,1,8.206,53.854A3.732,3.732,0,0,1,447.1,338.747Z" fill="#ffb8bc"/>
          </g>
        </g>
        <g id="Group_2128" data-name="Group 2128">
          <path id="Path_14980" data-name="Path 14980" d="M450.99,296.84c-1.9-5.3-5.436-13.168-11.325-17.615-1.55-1.172-3.964-1.864-5.813-1-2.353,1.1-2.819,5-2.877,7.278-.1,3.917,3.4,7.466,5.419,10.613.4.618,3.86,7.53,3.86,7.53Z" fill="#ffd942"/>
        </g>
      </g>
    </g>
    <g id="Group_2171" data-name="Group 2171">
      <g id="Group_2134" data-name="Group 2134">
        <g id="Group_2132" data-name="Group 2132">
          <g id="Group_2131" data-name="Group 2131">
            <path id="Path_14981" data-name="Path 14981" d="M369.784,340.458a3.073,3.073,0,0,0,.857-.582,3.977,3.977,0,0,0,.154-5.14c-12.866-15.743-18.8-37.907-20.5-37.962s-2.161-6.908-2.689-4.6c-4.861,21.212,3.885,31.147,18.1,47.467A3.585,3.585,0,0,0,369.784,340.458Z" fill="#ffb8bc"/>
          </g>
        </g>
        <g id="Group_2133" data-name="Group 2133">
          <path id="Path_14982" data-name="Path 14982" d="M346.561,280.392c1.482,3.444,4.561,22.371,20.325,48.406l-7.219,5.057C339.124,308.3,345.7,278.391,346.561,280.392Z" fill="#8ac9ff"/>
        </g>
      </g>
      <g id="Group_2135" data-name="Group 2135">
        <rect id="Rectangle_1828" data-name="Rectangle 1828" width="9.756" height="12.426" transform="translate(380.791 301.729)" fill="#8ac9ff"/>
      </g>
      <g id="Group_2136" data-name="Group 2136">
        <path id="Path_14983" data-name="Path 14983" d="M381.918,312.069h-2.254a4.127,4.127,0,1,1,0-8.254h2.254a4.127,4.127,0,1,1,0,8.254Zm-2.254-5.754a1.627,1.627,0,1,0,0,3.254h2.254a1.627,1.627,0,1,0,0-3.254Z" fill="#8ac9ff"/>
      </g>
      <g id="Group_2142" data-name="Group 2142">
        <g id="Group_2138" data-name="Group 2138">
          <g id="Group_2137" data-name="Group 2137">
            <rect id="Rectangle_1829" data-name="Rectangle 1829" width="14.934" height="6.238" transform="matrix(0.175, -0.985, 0.985, 0.175, 318.219, 416.164)" fill="#ffb8bc"/>
          </g>
        </g>
        <g id="Group_2140" data-name="Group 2140">
          <g id="Group_2139" data-name="Group 2139">
            <path id="Path_14984" data-name="Path 14984" d="M318.135,414.957c2.216.109,7.617,1.135,7.618,1.135s6.152,3.328,6.881,5.468c.46,1.351-1.694,1.863-2.809,1.593L316.943,419.5Z" fill="#723891"/>
          </g>
        </g>
        <g id="Group_2141" data-name="Group 2141">
          <path id="Path_14985" data-name="Path 14985" d="M318.135,414.957s4.648,2.619,7.618,1.135l-1.086-.618s-3.535-2.872-5.786-3Z" fill="#ffb8bc"/>
        </g>
      </g>
      <g id="Group_2144" data-name="Group 2144">
        <g id="Group_2143" data-name="Group 2143">
          <path id="Path_14986" data-name="Path 14986" d="M327.237,413.534c5.583-27.559,13.122-66.065,13.813-93.474-6.386-.58-12.792-.845-19.167-1.542-.95,29.408-.875,64.523-4.657,93.357C317.226,411.875,324.847,413.252,327.237,413.534Z" fill="#723891"/>
        </g>
      </g>
      <g id="Group_2150" data-name="Group 2150">
        <g id="Group_2146" data-name="Group 2146">
          <g id="Group_2145" data-name="Group 2145">
            <rect id="Rectangle_1830" data-name="Rectangle 1830" width="14.498" height="6.238" transform="matrix(0.136, -0.991, 0.991, 0.136, 342.862, 417.012)" fill="#ffb8bc"/>
          </g>
        </g>
        <g id="Group_2148" data-name="Group 2148">
          <g id="Group_2147" data-name="Group 2147">
            <path id="Path_14987" data-name="Path 14987" d="M342.764,415.746c2.218.065,7.638.985,7.639.985s6.215,3.207,6.987,5.332c.487,1.342-1.658,1.9-2.778,1.648l-12.95-3.4Z" fill="#723891"/>
          </g>
        </g>
        <g id="Group_2149" data-name="Group 2149">
          <path id="Path_14988" data-name="Path 14988" d="M342.764,415.746s4.7,2.527,7.639.985l-1.1-.6s-3.591-2.8-5.844-2.883Z" fill="#ffb8bc"/>
        </g>
      </g>
      <g id="Group_2152" data-name="Group 2152">
        <g id="Group_2151" data-name="Group 2151">
          <path id="Path_14989" data-name="Path 14989" d="M351.866,412.8c5.183-24.237,8.7-70.246,5.358-94.74-5.837.413-14.7.373-20.549.615,3.316,24.3,8.564,69.387,5.072,93.2C345.117,412.216,348.493,412.5,351.866,412.8Z" fill="#723891"/>
        </g>
      </g>
      <g id="Group_2153" data-name="Group 2153">
        <path id="Path_14990" data-name="Path 14990" d="M322.943,286.048c.415-11.414,13.258-11.759,21.8-11.25,7.357.438,14.929,3.995,14.618,12.573,0,.021,1.089,17.313,1.829,34.365.237,5.453.223,5.872.223,5.872s-8.58,2.964-40.73-.466Z" fill="#b3dcff"/>
      </g>
      <g id="Group_2163" data-name="Group 2163">
        <g id="Group_2155" data-name="Group 2155">
          <g id="Group_2154" data-name="Group 2154">
            <path id="Path_14991" data-name="Path 14991" d="M343.25,277.765h0a2.743,2.743,0,0,0,2.767-2.719l.054-6.294-5.837-1.777.3,8.023A2.744,2.744,0,0,0,343.25,277.765Z" fill="#ffb8bc"/>
          </g>
        </g>
        <g id="Group_2157" data-name="Group 2157">
          <g id="Group_2156" data-name="Group 2156">
            <path id="Path_14992" data-name="Path 14992" d="M341.987,266.8l4.077.411-.022,7.416c-3.221.063-5.6-3.118-5.732-5.6C340.282,268.521,341.987,266.8,341.987,266.8Z" fill="#ff808c"/>
          </g>
        </g>
        <g id="Group_2162" data-name="Group 2162">
          <g id="Group_2158" data-name="Group 2158">
            <path id="Path_14993" data-name="Path 14993" d="M345.093,262.261l4.145-.4a1.941,1.941,0,1,1,.37,3.865l-4.376.419Z" fill="#ff808c"/>
          </g>
          <g id="Group_2159" data-name="Group 2159">
            <path id="Path_14994" data-name="Path 14994" d="M344.414,266.251l-4.146.4a1.941,1.941,0,0,1-.37-3.865l4.377-.419Z" fill="#ffb8bc"/>
          </g>
          <g id="Group_2160" data-name="Group 2160">
            <path id="Path_14995" data-name="Path 14995" d="M345.967,271.978h0a5.492,5.492,0,0,0,4.929-5.973l-.638-6.655a5.492,5.492,0,0,0-5.973-4.929h0a5.492,5.492,0,0,0-4.928,5.973l.637,6.655A5.492,5.492,0,0,0,345.967,271.978Z" fill="#ffb8bc"/>
          </g>
          <g id="Group_2161" data-name="Group 2161">
            <path id="Path_14996" data-name="Path 14996" d="M339.045,263.319h-.112c-.048-.906-.045-1.825-.005-2.735.1-2.208-.349-5.056,1.306-6.483,2.643-2.279,7.067-1.209,10.064.358,1.2.627,2.729,1.661,1.749,3.268-1.666,2.731-9.6-1.25-10.944,3.938A2.147,2.147,0,0,1,339.045,263.319Z" fill="#723891"/>
          </g>
        </g>
      </g>
      <g id="Group_2164" data-name="Group 2164">
        <path id="Path_14997" data-name="Path 14997" d="M338.03,277.766H348v-2.55l-1.878-1.451-2.49,3.167-3.157-3.523-2.442,1.353Z" fill="#b3dcff"/>
      </g>
      <g id="Group_2165" data-name="Group 2165">
        <path id="Path_14998" data-name="Path 14998" d="M341.669,279.129l2.175-1.727,1.616,1.727Z" fill="#8ac9ff"/>
      </g>
      <g id="Group_2169" data-name="Group 2169">
        <g id="Group_2167" data-name="Group 2167">
          <g id="Group_2166" data-name="Group 2166">
            <path id="Path_14999" data-name="Path 14999" d="M379.716,308.231a3.063,3.063,0,0,0,.067-1.034,3.977,3.977,0,0,0-3.964-3.275c-20.326.5-32.431-4.318-41.953-20.836-1.193-2.07-4.664,1.211-5.751,2.519s-2.088,3.07-.592,4.9c13.77,16.851,27.434,21.658,49.041,20.446A3.581,3.581,0,0,0,379.716,308.231Z" fill="#ffb8bc"/>
          </g>
        </g>
        <g id="Group_2168" data-name="Group 2168">
          <path id="Path_15000" data-name="Path 15000" d="M324.028,284.951c-.543-1.779,5.569-7.829,7.677-7.281,3.629.942,7.193,22.223,37.424,25.744l-.794,8.072C335.553,312.035,326.359,292.581,324.028,284.951Z" fill="#b3dcff"/>
        </g>
      </g>
      <g id="Group_2170" data-name="Group 2170">
        <path id="Path_15001" data-name="Path 15001" d="M382.8,312.035l.151-.115" fill="none"/>
      </g>
    </g>
    <g id="Group_2177" data-name="Group 2177">
      <g id="Group_2174" data-name="Group 2174">
        <g id="Group_2172" data-name="Group 2172">
          <rect id="Rectangle_1831" data-name="Rectangle 1831" width="2.299" height="85.849" transform="translate(435.35 340.538) rotate(-13.44)" fill="#723891"/>
        </g>
        <g id="Group_2173" data-name="Group 2173">
          <rect id="Rectangle_1832" data-name="Rectangle 1832" width="85.849" height="2.299" transform="translate(308.405 423.498) rotate(-76.543)" fill="#4a245e"/>
        </g>
      </g>
      <g id="Group_2175" data-name="Group 2175">
        <rect id="Rectangle_1833" data-name="Rectangle 1833" width="141.334" height="9.065" transform="translate(451.271 348.587) rotate(180)" fill="#4a245e"/>
      </g>
      <g id="Group_2176" data-name="Group 2176">
        <rect id="Rectangle_1834" data-name="Rectangle 1834" width="70.752" height="9.065" transform="translate(451.271 348.587) rotate(180)" fill="#723891"/>
      </g>
    </g>
    <g id="Group_2186" data-name="Group 2186">
      <g id="Group_2178" data-name="Group 2178">
        <path id="Path_15002" data-name="Path 15002" d="M391.276,324.271l-4.925-6.883h4.925Z" fill="#8ac9ff"/>
      </g>
      <g id="Group_2179" data-name="Group 2179">
        <path id="Path_15003" data-name="Path 15003" d="M401.608,327.471h-2.895a3.726,3.726,0,0,1-3.721-3.722V323a3.725,3.725,0,0,1,3.721-3.721h2.895a4.1,4.1,0,0,1,0,8.193Zm-2.895-6.294A1.824,1.824,0,0,0,396.891,323v.75a1.824,1.824,0,0,0,1.822,1.823h2.895a2.2,2.2,0,1,0,0-4.395Z" fill="#4a245e"/>
      </g>
      <g id="Group_2180" data-name="Group 2180">
        <path id="Path_15004" data-name="Path 15004" d="M399.57,326.9h-9.332l-1.555-9.514h12.442Z" fill="#b3dcff"/>
      </g>
      <g id="Group_2181" data-name="Group 2181">
        <path id="Path_15005" data-name="Path 15005" d="M390.239,328.206h9.332l1.555,11.341H388.684Z" fill="#b3dcff"/>
      </g>
      <g id="Group_2182" data-name="Group 2182">
        <path id="Path_15006" data-name="Path 15006" d="M401.126,317.387H388.683a1.948,1.948,0,0,1,1.948-1.947h8.547a1.948,1.948,0,0,1,1.948,1.947Z" fill="#8ac9ff"/>
      </g>
      <g id="Group_2183" data-name="Group 2183">
        <path id="Path_15007" data-name="Path 15007" d="M396.136,315.44h-2.463a.929.929,0,0,1-.929-.929h0a.929.929,0,0,1,.929-.929h2.463a.929.929,0,0,1,.929.929h0A.929.929,0,0,1,396.136,315.44Z" fill="#723891"/>
      </g>
      <g id="Group_2184" data-name="Group 2184">
        <path id="Path_15008" data-name="Path 15008" d="M399.57,326.9h0l1.555-9.514h-2.16L397.41,326.9h0v1.3l1.555,11.341h2.16l-1.555-11.341Z" fill="#8ac9ff"/>
      </g>
      <g id="Group_2185" data-name="Group 2185">
        <rect id="Rectangle_1835" data-name="Rectangle 1835" width="9.332" height="1.304" transform="translate(390.239 326.902)" fill="#4a245e"/>
      </g>
    </g>
    <g id="Group_2189" data-name="Group 2189">
      <g id="Group_2187" data-name="Group 2187">
        <rect id="Rectangle_1836" data-name="Rectangle 1836" width="9.756" height="12.426" transform="translate(379.979 331.298) rotate(180)" fill="#8ac9ff"/>
      </g>
      <g id="Group_2188" data-name="Group 2188">
        <path id="Path_15009" data-name="Path 15009" d="M380.474,329.674h-2.255a4.128,4.128,0,0,1,0-8.255h2.255a4.128,4.128,0,0,1,0,8.255Zm-2.255-5.755a1.628,1.628,0,0,0,0,3.255h2.255a1.628,1.628,0,0,0,0-3.255Z" fill="#8ac9ff"/>
      </g>
    </g>
    <g id="Group_2193" data-name="Group 2193">
      <g id="Group_2190" data-name="Group 2190">
        <path id="Path_15010" data-name="Path 15010" d="M384.8,253.158h-5.45a3.125,3.125,0,1,1,0-6.249h5.45a3.125,3.125,0,1,1,0,6.249Z" fill="#e6f4ff"/>
      </g>
      <g id="Group_2191" data-name="Group 2191">
        <path id="Path_15011" data-name="Path 15011" d="M382.738,274.495l-.132,0a3.124,3.124,0,0,1-2.992-3.252,2.695,2.695,0,0,0-2.693-2.807h-7.869a10.762,10.762,0,0,1,0-21.524,3.125,3.125,0,0,1,0,6.25,4.512,4.512,0,0,0,0,9.024h7.869a8.942,8.942,0,0,1,8.937,9.317A3.124,3.124,0,0,1,382.738,274.495Z" fill="#e6f4ff"/>
      </g>
      <g id="Group_2192" data-name="Group 2192">
        <path id="Path_15012" data-name="Path 15012" d="M385.8,299.422a3.126,3.126,0,0,1-3.125-3.125v-4.528a.666.666,0,0,0-.2-.484.653.653,0,0,0-.49-.19l-3.121.09a6.925,6.925,0,0,1-7.123-6.922v-.132a6.878,6.878,0,0,1,2.046-4.914,7.053,7.053,0,0,1,4.931-2.01,3.125,3.125,0,0,1-.023,6.25.139.139,0,0,0-.029,0,.674.674,0,0,0-.675.674v.132a.666.666,0,0,0,.2.483.693.693,0,0,0,.491.19l3.121-.089a6.925,6.925,0,0,1,7.122,6.922V296.3A3.126,3.126,0,0,1,385.8,299.422Z" fill="#e6f4ff"/>
      </g>
    </g>
  </g>
</svg>
