<svg xmlns="http://www.w3.org/2000/svg" xmlns:xlink="http://www.w3.org/1999/xlink" width="382.512" height="395.221" viewBox="0 0 382.512 395.221">
  <defs>
    <linearGradient id="linear-gradient" x1="0.67" y1="1.17" x2="0.396" y2="0.213" gradientUnits="objectBoundingBox">
      <stop offset="0" stop-color="#2484c6"/>
      <stop offset="1" stop-color="#2484c6" stop-opacity="0"/>
    </linearGradient>
    <linearGradient id="linear-gradient-2" x1="0.499" y1="0.282" x2="0.6" y2="0.761" gradientUnits="objectBoundingBox">
      <stop offset="0" stop-color="#fff"/>
      <stop offset="1" stop-color="#231f20"/>
    </linearGradient>
    <linearGradient id="linear-gradient-3" x1="0.611" y1="-0.097" x2="0.284" y2="0.706" gradientUnits="objectBoundingBox">
      <stop offset="0" stop-color="#fff"/>
      <stop offset="1"/>
    </linearGradient>
  </defs>
  <g id="Group_371" data-name="Group 371" transform="translate(-34.575 -13.387)">
    <g id="Group_350" data-name="Group 350" transform="translate(49.337 28.445)">
      <g id="Group_323" data-name="Group 323" transform="translate(7.13)">
        <path id="Path_14515" data-name="Path 14515" d="M254.786,41.058c-13.88,4.817-37.264,22.115-58.958,20.9C120.09,57.709,95.847,83.408,99.28,128.964c4.734,62.837,14.83,112.924-14.735,152.2-48.086,63.876-19.693,116,17.818,126.729,43.569,12.467,85.464-39.684,165.02-34.98s121.954,47.083,142.139,22.546-56.052-129.952-17.465-208.063C428.913,112.788,390.783-6.143,254.786,41.058Z" transform="translate(-59.16 -30.297)" fill="#8fcfef"/>
        <path id="Path_14516" data-name="Path 14516" d="M117.769,132.527s-77.1,121.182-34.356,188.03S185.194,384.5,249.175,395.75s146.208,32.91,150.357-13.333-15.138-132.122,0-178.438S312.816,34.772,246.2,32.994,117.769,132.527,117.769,132.527Z" transform="translate(-60.402 -30.59)" fill="#caf3ff" opacity="0.35"/>
        <path id="Path_14517" data-name="Path 14517" d="M254.786,41.058c-13.88,4.817-37.264,22.115-58.958,20.9C120.09,57.709,95.847,83.408,99.28,128.964c4.734,62.837,14.83,112.924-14.735,152.2-48.086,63.876-19.693,116,17.818,126.729,43.569,12.467,85.464-39.684,165.02-34.98s121.954,47.083,142.139,22.546-56.052-129.952-17.465-208.063C428.913,112.788,390.783-6.143,254.786,41.058Z" transform="translate(-59.16 -30.297)" opacity="0.33" fill="url(#linear-gradient)"/>
      </g>
      <g id="Group_324" data-name="Group 324" transform="translate(0 10.94)">
        <circle id="Ellipse_32" data-name="Ellipse 32" cx="2.35" cy="2.35" r="2.35" transform="translate(20.177 134.826)" fill="#caf3ff"/>
        <path id="Path_14518" data-name="Path 14518" d="M445.4,302.353A2.35,2.35,0,1,1,443.05,300,2.351,2.351,0,0,1,445.4,302.353Z" transform="translate(-93.817 -70.776)" fill="#caf3ff"/>
        <path id="Path_14519" data-name="Path 14519" d="M188.59,44.933a2.35,2.35,0,1,1-2.35-2.351A2.35,2.35,0,0,1,188.59,44.933Z" transform="translate(-65.691 -42.582)" fill="#caf3ff"/>
        <circle id="Ellipse_33" data-name="Ellipse 33" cx="3.676" cy="3.676" r="3.676" transform="translate(168.868 90.998)" fill="#caf3ff"/>
        <circle id="Ellipse_34" data-name="Ellipse 34" cx="3.676" cy="3.676" r="3.676" transform="translate(314.433 32.378)" fill="#caf3ff"/>
        <circle id="Ellipse_35" data-name="Ellipse 35" cx="5.245" cy="5.245" r="5.245" transform="translate(282.674 0.782)" fill="#caf3ff"/>
        <path id="Path_14520" data-name="Path 14520" d="M450.578,377.172a5.245,5.245,0,1,1-5.245-5.245A5.245,5.245,0,0,1,450.578,377.172Z" transform="translate(-93.751 -78.653)" fill="#caf3ff"/>
        <path id="Path_14521" data-name="Path 14521" d="M415.432,385.006a3.325,3.325,0,1,1-3.325-3.325A3.325,3.325,0,0,1,415.432,385.006Z" transform="translate(-90.322 -79.721)" fill="#caf3ff"/>
        <circle id="Ellipse_36" data-name="Ellipse 36" cx="2.35" cy="2.35" r="2.35" transform="translate(47.983 332.759)" fill="#caf3ff"/>
        <circle id="Ellipse_37" data-name="Ellipse 37" cx="2.35" cy="2.35" r="2.35" transform="translate(99.288 137.737)" fill="#caf3ff"/>
        <circle id="Ellipse_38" data-name="Ellipse 38" cx="2.35" cy="2.35" r="2.35" transform="translate(37.823 79.681)" fill="#caf3ff"/>
        <circle id="Ellipse_39" data-name="Ellipse 39" cx="2.35" cy="2.35" r="2.35" transform="translate(151.042 343.131)" fill="#caf3ff"/>
        <circle id="Ellipse_40" data-name="Ellipse 40" cx="2.35" cy="2.35" r="2.35" transform="translate(153.109 250.866)" fill="#caf3ff"/>
        <path id="Path_14522" data-name="Path 14522" d="M55.854,338.589a2.35,2.35,0,1,1-2.35-2.351A2.35,2.35,0,0,1,55.854,338.589Z" transform="translate(-51.153 -74.744)" fill="#caf3ff"/>
        <circle id="Ellipse_41" data-name="Ellipse 41" cx="2.35" cy="2.35" r="2.35" transform="translate(344.532 166.153)" fill="#caf3ff"/>
        <circle id="Ellipse_42" data-name="Ellipse 42" cx="2.35" cy="2.35" r="2.35" transform="translate(297.661 332.759)" fill="#caf3ff"/>
        <path id="Path_14523" data-name="Path 14523" d="M445.4,430.266a2.35,2.35,0,1,1-2.35-2.351A2.35,2.35,0,0,1,445.4,430.266Z" transform="translate(-93.817 -84.785)" fill="#caf3ff"/>
      </g>
      <g id="Group_349" data-name="Group 349" transform="translate(132.178 51.606)">
        <g id="Group_334" data-name="Group 334" transform="translate(0 132.917)">
          <g id="Group_333" data-name="Group 333">
            <path id="Path_14524" data-name="Path 14524" d="M201.949,243.592c-.036-.3,8.66,4.121,7.747,17.017-.926,12.026-9.355,14.688-10.108,29.876,10.346,4.726,21.437,7.791,32.134,7.65a242.132,242.132,0,0,0,8.273-24.464c3.806-13.067-.45-27.867-6.672-36.056C222.942,236.981,212.132,239.4,201.949,243.592Z" transform="translate(-199.588 -237.514)" fill="#caf3ff"/>
            <g id="Group_325" data-name="Group 325" transform="translate(8.703 4.045)">
              <path id="Path_14525" data-name="Path 14525" d="M209.807,246.267a.388.388,0,0,1-.442-.361.568.568,0,0,1,.386-.6,78.693,78.693,0,0,1,23.1-3.237.558.558,0,0,1,.5.5.4.4,0,0,1-.386.482,81.742,81.742,0,0,0-23.1,3.2C209.845,246.26,209.826,246.264,209.807,246.267Z" transform="translate(-209.362 -242.056)" fill="#86cfe0"/>
            </g>
            <g id="Group_326" data-name="Group 326" transform="translate(10.339 10.264)">
              <path id="Path_14526" data-name="Path 14526" d="M211.646,251.558a.415.415,0,0,1-.446-.413.54.54,0,0,1,.417-.564,96.641,96.641,0,0,1,24.13-1.271.55.55,0,0,1,.472.517.392.392,0,0,1-.412.445,101.631,101.631,0,0,0-24.13,1.281Z" transform="translate(-211.199 -249.041)" fill="#86cfe0"/>
            </g>
            <g id="Group_327" data-name="Group 327" transform="translate(11.159 16.545)">
              <path id="Path_14527" data-name="Path 14527" d="M229.14,257.273a153.047,153.047,0,0,0-16.572.112.437.437,0,0,1-.448-.463.512.512,0,0,1,.448-.522,141.912,141.912,0,0,1,16.572-.121.506.506,0,0,1,.45.52A.447.447,0,0,1,229.14,257.273Z" transform="translate(-212.12 -256.094)" fill="#86cfe0"/>
            </g>
            <g id="Group_328" data-name="Group 328" transform="translate(11.16 22.545)">
              <path id="Path_14528" data-name="Path 14528" d="M238.379,266.539l-.04,0c-8.425-1.111-17.224-2.167-25.811-2.72a.463.463,0,0,1-.406-.519.491.491,0,0,1,.486-.465c8.589.513,17.387,1.588,25.81,2.775a.485.485,0,0,1,.4.524A.429.429,0,0,1,238.379,266.539Z" transform="translate(-212.12 -262.832)" fill="#86cfe0"/>
            </g>
            <g id="Group_329" data-name="Group 329" transform="translate(10.339 28.923)">
              <path id="Path_14529" data-name="Path 14529" d="M238.278,274.964a.511.511,0,0,1-.063,0c-8.695-1.023-17.785-2.618-26.632-3.992a.485.485,0,0,1-.379-.554.466.466,0,0,1,.507-.418c8.849,1.329,17.939,2.938,26.63,4.034a.449.449,0,0,1,.373.517A.47.47,0,0,1,238.278,274.964Z" transform="translate(-211.199 -269.994)" fill="#86cfe0"/>
            </g>
            <g id="Group_330" data-name="Group 330" transform="translate(8.704 35.365)">
              <path id="Path_14530" data-name="Path 14530" d="M223.539,280.942a.424.424,0,0,1-.074-.006c-4.594-.8-9.2-1.754-13.73-2.743a.5.5,0,0,1-.367-.571.428.428,0,0,1,.512-.382c4.532.959,9.138,1.9,13.732,2.7a.494.494,0,0,1,.373.574A.476.476,0,0,1,223.539,280.942Z" transform="translate(-209.362 -277.229)" fill="#86cfe0"/>
            </g>
            <g id="Group_331" data-name="Group 331" transform="translate(5.711 41.666)">
              <path id="Path_14531" data-name="Path 14531" d="M233.06,291.352a.371.371,0,0,1-.089,0c-8.8-.9-17.888-3.31-26.615-6.114a.531.531,0,0,1-.346-.595.4.4,0,0,1,.521-.32c8.732,2.729,17.818,5.119,26.617,6.056a.427.427,0,0,1,.348.531A.534.534,0,0,1,233.06,291.352Z" transform="translate(-206.001 -284.305)" fill="#86cfe0"/>
            </g>
            <g id="Group_332" data-name="Group 332" transform="translate(3.731 48.585)">
              <path id="Path_14532" data-name="Path 14532" d="M230.582,298.467a.344.344,0,0,1-.068,0A92.589,92.589,0,0,1,204.15,293a.572.572,0,0,1-.367-.6.364.364,0,0,1,.5-.3,96.591,96.591,0,0,0,26.367,5.382.423.423,0,0,1,.375.512A.545.545,0,0,1,230.582,298.467Z" transform="translate(-203.778 -292.075)" fill="#86cfe0"/>
            </g>
          </g>
        </g>
        <g id="Group_344" data-name="Group 344" transform="translate(43.205)">
          <g id="Group_343" data-name="Group 343">
            <path id="Path_14533" data-name="Path 14533" d="M275.089,88.251c.151-.1,1.657,6.352-5.783,11.8-6.661,4.788-13.617,4.305-21.2,11.256a35.674,35.674,0,0,1,16.168,11.548A88.24,88.24,0,0,0,278.293,120c8.133-2.185,16.566-11.52,18.234-18.516A49.651,49.651,0,0,0,275.089,88.251Z" transform="translate(-248.107 -88.25)" fill="#caf3ff"/>
            <g id="Group_335" data-name="Group 335" transform="translate(29.113 3.734)">
              <path id="Path_14534" data-name="Path 14534" d="M280.914,92.984a.225.225,0,0,1-.019-.381.576.576,0,0,1,.588-.126A48.282,48.282,0,0,1,296.5,102.751a.333.333,0,0,1-.039.5.413.413,0,0,1-.543-.015A47.961,47.961,0,0,0,280.952,93,.38.38,0,0,1,280.914,92.984Z" transform="translate(-280.8 -92.443)" fill="#86cfe0"/>
            </g>
            <g id="Group_336" data-name="Group 336" transform="translate(27.288 6.687)">
              <path id="Path_14535" data-name="Path 14535" d="M278.864,96.287a.229.229,0,0,1-.008-.391.542.542,0,0,1,.57-.093,46.238,46.238,0,0,1,14.2,11.578.338.338,0,0,1-.065.49.375.375,0,0,1-.51-.055A45.975,45.975,0,0,0,278.884,96.3Z" transform="translate(-278.751 -95.759)" fill="#86cfe0"/>
            </g>
            <g id="Group_337" data-name="Group 337" transform="translate(24.849 9.429)">
              <path id="Path_14536" data-name="Path 14536" d="M285.4,106.952a43.655,43.655,0,0,0-9.279-7.6c-.151-.093-.151-.269,0-.4a.513.513,0,0,1,.553-.063,43.9,43.9,0,0,1,9.287,7.654.3.3,0,0,1-.055.451A.393.393,0,0,1,285.4,106.952Z" transform="translate(-276.013 -98.838)" fill="#86cfe0"/>
            </g>
            <g id="Group_338" data-name="Group 338" transform="translate(21.74 12.05)">
              <path id="Path_14537" data-name="Path 14537" d="M284.934,115.869l-.017-.025a44.623,44.623,0,0,0-12.3-13.584c-.137-.1-.122-.27.036-.385a.5.5,0,0,1,.536-.029,44.886,44.886,0,0,1,12.283,13.686.322.322,0,0,1-.105.448A.332.332,0,0,1,284.934,115.869Z" transform="translate(-272.521 -101.781)" fill="#86cfe0"/>
            </g>
            <g id="Group_339" data-name="Group 339" transform="translate(17.955 14.61)">
              <path id="Path_14538" data-name="Path 14538" d="M280.419,119.061a.462.462,0,0,1-.026-.04,44.225,44.225,0,0,0-12.037-13.915c-.13-.1-.109-.259.047-.366a.488.488,0,0,1,.519-.018,44.535,44.535,0,0,1,12,14.034.3.3,0,0,1-.105.421A.326.326,0,0,1,280.419,119.061Z" transform="translate(-268.27 -104.656)" fill="#86cfe0"/>
            </g>
            <g id="Group_340" data-name="Group 340" transform="translate(13.791 16.915)">
              <path id="Path_14539" data-name="Path 14539" d="M270.458,113.6a.275.275,0,0,1-.037-.035,39.61,39.61,0,0,0-6.741-5.886c-.128-.088-.111-.242.04-.344a.473.473,0,0,1,.507-.024,39.9,39.9,0,0,1,6.725,5.953.232.232,0,0,1-.065.373A.4.4,0,0,1,270.458,113.6Z" transform="translate(-263.595 -107.245)" fill="#86cfe0"/>
            </g>
            <g id="Group_341" data-name="Group 341" transform="translate(8.907 18.904)">
              <path id="Path_14540" data-name="Path 14540" d="M270.43,121.953a.343.343,0,0,1-.038-.049,40.444,40.444,0,0,0-12.2-12.021c-.126-.078-.109-.22.039-.318a.5.5,0,0,1,.5-.035,40.727,40.727,0,0,1,12.152,12.159.235.235,0,0,1-.077.364A.35.35,0,0,1,270.43,121.953Z" transform="translate(-258.11 -109.479)" fill="#86cfe0"/>
            </g>
            <g id="Group_342" data-name="Group 342" transform="translate(4.46 21.488)">
              <path id="Path_14541" data-name="Path 14541" d="M266.324,123.032c-.012-.011-.021-.022-.032-.034a37,37,0,0,0-13.076-10.232c-.134-.061-.135-.189,0-.287a.534.534,0,0,1,.488-.065,37.256,37.256,0,0,1,13.046,10.354.217.217,0,0,1-.039.348A.359.359,0,0,1,266.324,123.032Z" transform="translate(-253.115 -112.381)" fill="#86cfe0"/>
            </g>
          </g>
        </g>
        <g id="Group_345" data-name="Group 345" transform="translate(21.475 238.427)">
          <rect id="Rectangle_148" data-name="Rectangle 148" width="14.309" height="25.881" rx="1.68" transform="translate(18.424 0) rotate(45.386)" fill="#caf3ff"/>
          <rect id="Rectangle_149" data-name="Rectangle 149" width="11.91" height="20.696" rx="0.67" transform="matrix(0.702, 0.712, -0.712, 0.702, 18.2, 1.906)" fill="#86cfe0"/>
          <path id="Path_14542" data-name="Path 14542" d="M231.757,381.091a1.15,1.15,0,1,1,.011-1.627A1.151,1.151,0,0,1,231.757,381.091Z" transform="translate(-224.372 -358.534)" fill="#86cfe0"/>
        </g>
        <g id="Group_346" data-name="Group 346" transform="translate(100.688 167.534)">
          <rect id="Rectangle_150" data-name="Rectangle 150" width="2.226" height="24.742" transform="translate(0.408 1.901) rotate(-26.462)" fill="#caf3ff"/>
          <path id="Path_14543" data-name="Path 14543" d="M325.5,303.276l1.524,1.306a.358.358,0,0,0,.59-.294l-.122-2Z" transform="translate(-314.067 -279.226)" fill="#caf3ff"/>
          <path id="Path_14544" data-name="Path 14544" d="M315.323,277.168a1.4,1.4,0,1,1-1.883-.631A1.405,1.405,0,0,1,315.323,277.168Z" transform="translate(-312.66 -276.389)" fill="#caf3ff"/>
          <path id="Path_14545" data-name="Path 14545" d="M315.024,277.563s1.08-.828,2.47,1.215c1.184,1.741.87,5.328,1.582,6.175a.714.714,0,0,0,1.27-.632" transform="translate(-312.919 -276.5)" fill="none" stroke="#caf3ff" stroke-linecap="round" stroke-miterlimit="10" stroke-width="0.5"/>
          <path id="Path_14546" data-name="Path 14546" d="M322.452,291.665a28.1,28.1,0,0,1,4.588,9.217" transform="translate(-313.733 -278.063)" fill="#caf3ff"/>
          <path id="Path_14547" data-name="Path 14547" d="M320.214,292.779A28.087,28.087,0,0,0,324.8,302" transform="translate(-313.488 -278.184)" fill="#caf3ff"/>
        </g>
        <g id="Group_347" data-name="Group 347" transform="translate(174.229 23.21)">
          <path id="Rectangle_151" data-name="Rectangle 151" d="M0,0H23.257a1.4,1.4,0,0,1,1.4,1.4V30.752a1.4,1.4,0,0,1-1.4,1.4H0a0,0,0,0,1,0,0V0A0,0,0,0,1,0,0Z" transform="translate(0 13.145) rotate(-32.217)" fill="#caf3ff"/>
          <rect id="Rectangle_152" data-name="Rectangle 152" width="0.791" height="32.151" transform="translate(0.001 13.144) rotate(-32.213)" fill="#86cfe0"/>
          <rect id="Rectangle_153" data-name="Rectangle 153" width="20.114" height="7.63" transform="matrix(0.846, -0.533, 0.533, 0.846, 3.5, 14.439)" fill="#86cfe0"/>
        </g>
        <g id="Group_348" data-name="Group 348" transform="translate(23.277 67.582)">
          <path id="Path_14548" data-name="Path 14548" d="M257.637,164.262l-11.126,18.522-20.564,4.478.147,1.2,17.89-4.632-17.451,7.191.61,3.782,21.232-9.846,12.909-19.522Z" transform="translate(-225.752 -164.156)" fill="#caf3ff"/>
          <path id="Path_14549" data-name="Path 14549" d="M262.523,164.277h0a.786.786,0,0,0-1.09.215l-13.444,20.026-21.81,10.3a.785.785,0,0,0-.375,1.045h0a.785.785,0,0,0,1.045.375l21.293-10.055.31.361,1.478-1.272-.313-.362,13.119-19.542A.786.786,0,0,0,262.523,164.277Z" transform="translate(-225.728 -164.143)" fill="#86cfe0"/>
        </g>
      </g>
    </g>
    <g id="Group_352" data-name="Group 352" transform="translate(250.617 61.321)">
      <path id="Path_14550" data-name="Path 14550" d="M361.5,112.453a270.977,270.977,0,0,1,24.908,50.261l-2.086,1s-10.087-27.934-25.118-49.211" transform="translate(-286.172 -72.171)" fill="#f4b673"/>
      <path id="Path_14551" data-name="Path 14551" d="M392.889,189.05,367,198.017s-2.3-5.87-4.232-11.877a70.584,70.584,0,0,1-2.435-9.153l26.413-8.595a.344.344,0,0,1,.436.229l2.406,8.091,3.533,11.895A.361.361,0,0,1,392.889,189.05Z" transform="translate(-286.294 -78.296)" fill="#f7b15e"/>
      <path id="Path_14552" data-name="Path 14552" d="M389.584,176.712c-1.326,1.623-7.522,9.037-10.986,9.834-3.486.819-13.748-.188-15.835-.405a70.584,70.584,0,0,1-2.435-9.153l26.413-8.595a.344.344,0,0,1,.436.229Z" transform="translate(-286.294 -78.296)" fill="#ea9d49"/>
      <path id="Path_14553" data-name="Path 14553" d="M355.638,102.312a6.367,6.367,0,0,1,2.785.245,48.709,48.709,0,0,0,6.817,1.4,8.935,8.935,0,0,1,2.942.249c1.044.339-.859,5.254-.859,5.254s-5.593.612-6.545.182-3.283-1.246-4.19-1.79-2.355-1.11-2.423-1.676S355.638,102.312,355.638,102.312Z" transform="translate(-285.619 -71.054)" fill="#20264c"/>
      <path id="Path_14554" data-name="Path 14554" d="M376.165,135.733s.03.966,1.389.785,9.549-4.513,9.21-5.5c-.367-1.06-6.342-.544-6.523-.484a17.413,17.413,0,0,0-1.932.423c-.241.151-1.963,1.48-1.963,1.48Z" transform="translate(-288.029 -74.133)" fill="#20264c"/>
      <path id="Path_14555" data-name="Path 14555" d="M349.264,110.052s-10.559,2.964-17.132,4.175c-.24.044-.5.1-.776.159-3.225.711-8.936,2.37-12.146.616-1.573-.863-5.667-6.784-9.24-12.668-.015-.021-.022-.029-.022-.029-2.921-4.811-5.486-9.588-6.044-11.558a5.666,5.666,0,0,1,1.492-1.9c.877-.646,15.61,15.994,18.154,19.284,5.464-2.276,16.2-4.544,19.683-4.95C347.967,102.631,352.807,105.712,349.264,110.052Z" transform="translate(-280.115 -69.584)" fill="#ffe1bd"/>
      <path id="Path_14556" data-name="Path 14556" d="M332.1,116.047c-3.225.711-8.936,2.37-12.146.616-1.573-.863-5.667-6.784-9.24-12.668.4.565,6.87,9.7,9.964,11.153,3.2,1.515,10.754-.963,10.754-.963Z" transform="translate(-280.861 -71.245)" fill="#efcba5"/>
      <path id="Path_14557" data-name="Path 14557" d="M335.261,74.612a9.952,9.952,0,0,0,8.422,7.06s.1.549-.66.465C341.513,81.968,336.022,79.75,335.261,74.612Z" transform="translate(-283.549 -68.027)" fill="#0a344c"/>
      <path id="Path_14558" data-name="Path 14558" d="M336.016,223.513l3.856,3.38,3.254-4.643-3.244-3.388" transform="translate(-283.632 -83.826)" fill="#ffe1bd"/>
      <path id="Path_14559" data-name="Path 14559" d="M290.179,251.362l-.991,4.037,2.653,1.725,2.913-.278,1.4-4.556" transform="translate(-278.503 -87.385)" fill="#ffe1bd"/>
      <path id="Path_14560" data-name="Path 14560" d="M344.173,81.335s-9.243-2.544-8.266-10.473c.032-.264.337-3.419,5.354-1.976a14.466,14.466,0,0,0,8.135-.207c6.236-1.873,12.488-3.312,15.369,4.7L355.775,76.4Z" transform="translate(-283.612 -67.217)" fill="#0a344c"/>
      <path id="Path_14561" data-name="Path 14561" d="M367.074,101.612s-4.327,2.7-7.8,2.427a5.36,5.36,0,0,1-4.037-2.942,8.875,8.875,0,0,1-.782-1.718,10.576,10.576,0,0,1,1.116-.239,1.19,1.19,0,0,0,1-1.175,1.139,1.139,0,0,0-.021-.224c-.131-.776-.218-1.5-1.588-1.377a4.9,4.9,0,0,0-.63.093,7.09,7.09,0,0,1-4.522-.949,2.418,2.418,0,0,1-.341-.217h-.007a10.336,10.336,0,0,1-2.718-3.275,21.155,21.155,0,0,1-2.167-5.4l-1.392-8.132,1.7-1.167a10.643,10.643,0,0,1,2.66-3.856c7.464-6.884,17.762-1,17.908,5.972.1,4.863-.891,9.458-1.283,12.915-.072.638-.326,3.515-.492,5.508a2.635,2.635,0,0,0,1.471,2.595A11.058,11.058,0,0,1,367.074,101.612Z" transform="translate(-284.416 -67.565)" fill="#ffe1bd"/>
      <path id="Path_14562" data-name="Path 14562" d="M359.684,99.74s.007.087.007.225a2.859,2.859,0,0,1-1.427,2.522c-.834.037-1.646.087-2.362.138a1.865,1.865,0,0,1-.065-.392,10.582,10.582,0,0,1,1.116-.239,1.19,1.19,0,0,0,1-1.175,1.139,1.139,0,0,0-.021-.224c-.131-.776-.218-1.5-1.588-1.377a6.221,6.221,0,0,0,4.211-2.768A7.575,7.575,0,0,0,359.684,99.74Z" transform="translate(-285.802 -70.419)" fill="#efcba5"/>
      <path id="Path_14563" data-name="Path 14563" d="M342.324,78.426a6.421,6.421,0,0,0,2.86-.467c2.881-1.055,8.98-3.785,11.171.049l5.017-5.468s-2.265-1.308-2.567-1.387A15.07,15.07,0,0,0,355.6,69.92c-.965-.059-4.9.032-5.377.116a10.311,10.311,0,0,0-2.834,1,7.519,7.519,0,0,0-1.954,1.52c-.476.474-1.752,2.075-1.752,2.075Z" transform="translate(-284.323 -67.511)" fill="#0a344c"/>
      <path id="Path_14564" data-name="Path 14564" d="M358.081,77.982s1.154,3.622,3.108,4.986l6.484.614s.615-6.988-.473-9.932c-2.442-6.614-7.675-2.985-7.675-2.985l-1.418,2.985Z" transform="translate(-286.048 -67.486)" fill="#0a344c"/>
      <path id="Path_14565" data-name="Path 14565" d="M363.715,87.268s.145-3.356,2.1-4.058,2.713,1.379,2.555,3.482c-.288,3.831-1.753,4.207-1.753,4.207" transform="translate(-286.665 -68.953)" fill="#ffe1bd"/>
      <path id="Path_14566" data-name="Path 14566" d="M324.284,148.685s-2,2.283,1.015,5.665,27.167,26.074,34.569,17.5a15.773,15.773,0,0,0,.31-14.555c-3.371-7.013-25.848-12.88-30.048-11.927A12.816,12.816,0,0,0,324.284,148.685Z" transform="translate(-282.275 -75.765)" fill="#20264c"/>
      <path id="Path_14567" data-name="Path 14567" d="M321.411,191.556c-3.175-4.783-7.915-8.7-12.313-11.827-.768-.543-1.522-1.065-2.254-1.565,0,0,.95-.493,2.747-1.3l.007-.007c2.138-.957,5.486-2.341,9.863-3.827,1.094-.37,6.015-3.993,11.219-7.972,6.761-5.167,14.015-10.928,14.015-10.928l-4.935-8.3-14.118.6s-28.727,17.371-33.7,26.422a9.35,9.35,0,0,0-1.232,4.537,7.584,7.584,0,0,0,1.24,4.2l-.014.014c.58.914,1.174,1.768,1.768,2.565a71.521,71.521,0,0,0,7.247,6.907c3.739,3.283,8.428,7.225,13,11.008,8.972,7.435,17.487,14.255,17.487,14.255s2.748-.475,4.638-4.863c0,0-7.654-9.522-13.785-18.6C322,192.433,321.7,191.99,321.411,191.556Z" transform="translate(-278.67 -75.827)" fill="#491b55"/>
      <path id="Path_14568" data-name="Path 14568" d="M336.43,215.734a.669.669,0,0,1-.073.116c-.347-.3-.76-.66-1.224-1.065-.812-.718-1.776-1.623-2.863-2.682-1.072-1.058-2.29-2.268-3.544-3.645a57.02,57.02,0,0,1-3.877-4.616c-.63-.863-1.3-1.761-1.891-2.7s-1.21-1.9-1.92-2.805a44.689,44.689,0,0,0-4.856-5.2c-1.776-1.674-3.66-3.282-5.551-4.884s-3.826-3.167-5.63-4.819c-.443-.42-.884-.841-1.3-1.29a5.6,5.6,0,0,1-1.058-1.5,1.568,1.568,0,0,1-.117-.457.939.939,0,0,1,.051-.485,2.531,2.531,0,0,1,.529-.761,8.918,8.918,0,0,1,1.392-1.123,40.888,40.888,0,0,1,5.942-3.145c1.95-.884,3.826-1.631,5.566-2.3s3.34-1.254,4.776-1.747,2.674-.927,3.711-1.253c2.072-.653,3.254-1.022,3.254-1.022l.021.051s-1.167.435-3.2,1.182-4.935,1.848-8.4,3.21c-1.725.688-3.581,1.457-5.537,2.3a49.619,49.619,0,0,0-5.972,2.971,8.118,8.118,0,0,0-1.377,1.044,2.123,2.123,0,0,0-.5.674,1.07,1.07,0,0,0,.051.79,5.562,5.562,0,0,0,1.007,1.45,17.581,17.581,0,0,0,1.276,1.289c1.8,1.638,3.761,3.167,5.7,4.719,3.862,3.1,7.739,6.268,10.667,9.964a31.32,31.32,0,0,1,1.949,2.841c.595.956,1.232,1.826,1.856,2.681,1.268,1.7,2.558,3.24,3.776,4.646,2.443,2.8,4.66,4.964,6.211,6.471Q335.93,215.266,336.43,215.734Z" transform="translate(-279.963 -78.293)" fill="#623372"/>
      <path id="Path_14569" data-name="Path 14569" d="M322.295,192.874c6.131,9.081,13.785,18.6,13.785,18.6a12.419,12.419,0,0,1-.942,1.791.672.672,0,0,1-.073.116c-1.725,2.623-3.623,2.956-3.623,2.956s-8.516-6.819-17.487-14.255c-4.573-3.783-9.262-7.725-13-11.008a71.521,71.521,0,0,1-7.247-6.907c-.595-.8-1.189-1.652-1.768-2.565l.014-.014a7.584,7.584,0,0,1-1.24-4.2,9.35,9.35,0,0,1,1.232-4.537c4.972-9.052,33.7-26.422,33.7-26.422l14.118-.6,4.935,8.3s-7.254,5.761-14.015,10.928c-5.2,3.979-10.125,7.6-11.219,7.972-4.377,1.486-7.725,2.87-9.863,3.827l-.007.007c-1.8.8-2.747,1.3-2.747,1.3.732.5,1.486,1.021,2.254,1.565,4.4,3.124,9.139,7.045,12.313,11.827C321.7,191.99,322,192.433,322.295,192.874Z" transform="translate(-278.67 -75.827)" opacity="0.4" fill="url(#linear-gradient-2)"/>
      <path id="Path_14570" data-name="Path 14570" d="M333,166.828c-5.2,3.979-10.125,7.6-11.219,7.972-4.377,1.486-7.725,2.87-9.863,3.827.341-.334,11.841-9.829,21.379-16.649Z" transform="translate(-280.993 -77.595)" fill="#34133f" opacity="0.3"/>
      <path id="Path_14571" data-name="Path 14571" d="M371.049,176.775a6.413,6.413,0,0,1-.294,1.785l.089-3.571a9.158,9.158,0,0,1-1.516,4.423c-.8,1.357-2.21,3.126-2.327,4.111-.072.608,1.169-.492,2.254-1.875-.813,1.279-1.944,2.782-2.048,3.662-.078.654,1.356-.662,2.487-2.183-.053.108-.107.215-.162.321-.73,1.4-2.044,3.237-2.109,4.227s3.078-2.674,3.5-4.624l-.053-1.961c.026-.072.055-.147.074-.216Z" transform="translate(-287.025 -79.02)" fill="#e8a87e"/>
      <path id="Path_14572" data-name="Path 14572" d="M357.1,162.445S356.646,171.9,346,174.9a13.907,13.907,0,0,0-4.747,2.37c-5,3.863-16.842,12.806-24.473,16.886a8.208,8.208,0,0,0-4.254,6.341c-.7,6.247-1.833,14.581-5.551,21.161-5.559,9.863-10.878,21.458-10.878,21.458a6.716,6.716,0,0,1-1.718.066c-.138-.008-.282-.022-.435-.037h-.007c-.022,0-.044-.007-.066-.007a11.364,11.364,0,0,1-1.282-.217,13.911,13.911,0,0,1-3.131-1.066s8.82-42.685,11.5-48.229c6.805-14.045,29.879-32.72,29.879-32.72l12.516-8.777,10.892,8.175Z" transform="translate(-278.533 -76.516)" fill="#491b55"/>
      <path id="Path_14573" data-name="Path 14573" d="M357.708,163.447s-.457,9.451-11.1,12.451a13.907,13.907,0,0,0-4.747,2.37c-5,3.863-16.842,12.806-24.473,16.886a8.208,8.208,0,0,0-4.254,6.341c-.7,6.247-1.834,14.581-5.551,21.161-5.559,9.863-10.878,21.458-10.878,21.458a6.715,6.715,0,0,1-1.718.066c3.378-6.5,9.661-22.973,12.414-26.887,2.891-4.109,3.529-16.117,4.436-20.053s7.7-6.3,12.682-10.066,11.414-10.639,16.755-12.726,5.891-2.261,9.515-5.385a11.819,11.819,0,0,0,3.805-7.79l.261.028Z" transform="translate(-279.138 -77.518)" fill="#3f184c"/>
      <path id="Path_14574" data-name="Path 14574" d="M376.854,165.2a3.438,3.438,0,0,0,.32-.437c4.113-5.674,10.268-16.436,9.764-25.192a.293.293,0,0,0-.007-.037c-.007-.065-.014-.109-.014-.109-.116-.725-.29-1.819-.5-3.029s-.457-2.529-.718-3.718c-1.449-6.522-4.7-15.943-4.7-15.943-4.472-3.378-8.378,2.174-7.653,6.884a25.386,25.386,0,0,0,1.471,4.464c1.92,4.827,4.964,11.589,4.87,15.342-.573,3.327-2.58,9.335-4.435,14.6a.09.09,0,0,1-.014.029c-.81,2.3-1.592,4.452-2.214,6.177h0a7.863,7.863,0,0,1-1.97,3.037c-2.727,1.111-4.779,7.554-4.576,7.869.419.645,1.3-.571,1.464-1.008.356-.961,1.23-2.081,1.574-1.776,1.151,1.022.886,3.5.788,3.968-.537,2.625-2.622,5.49-1.792,5.846.451.194,1.971-2.065,3.086-4.719a32.426,32.426,0,0,0,1.719-5.917h0a16.965,16.965,0,0,1,2.467-4.95c.329-.41.686-.874,1.063-1.383Z" transform="translate(-286.967 -72.527)" fill="#ffe1bd"/>
      <path id="Path_14575" data-name="Path 14575" d="M350.326,159.129s-.224.341-.645.993-1.059,1.588-1.892,2.761-1.913,2.558-3.2,4.1A63.4,63.4,0,0,1,340,171.942c-.9.862-1.849,1.732-2.892,2.58s-2.167,1.646-3.3,2.479c-2.282,1.674-4.688,3.435-7.175,5.261s-5.014,3.761-7.522,5.8c-1.268,1.007-2.5,2.072-3.718,3.167a19.265,19.265,0,0,0-3.247,3.631,18.8,18.8,0,0,0-1.87,4.508c-.457,1.573-.811,3.167-1.145,4.746-.638,3.175-1.2,6.32-1.971,9.32a42.372,42.372,0,0,1-1.406,4.341c-.515,1.392-1.051,2.747-1.58,4.059-1.059,2.63-2.11,5.087-3.087,7.355s-1.884,4.341-2.7,6.175-1.543,3.42-2.138,4.739c-.891,1.921-1.5,3.24-1.753,3.8h-.007c-.022,0-.044-.007-.066-.007.558-1.327,2.921-6.95,6.255-14.878.949-2.283,1.979-4.747,3.065-7.356a85.417,85.417,0,0,0,3.138-8.3c.863-2.957,1.435-6.1,2.094-9.269.319-1.595.667-3.189,1.109-4.776a19.627,19.627,0,0,1,1.812-4.61,20.048,20.048,0,0,1,3.24-3.753c1.2-1.124,2.42-2.218,3.674-3.254,2.493-2.08,5.022-4.022,7.493-5.885s4.891-3.6,7.182-5.261a55.127,55.127,0,0,0,6.2-4.942,72.1,72.1,0,0,0,7.935-8.856c.877-1.138,1.536-2.059,1.986-2.689s.681-.963.681-.963Z" transform="translate(-279.075 -77.28)" fill="#623372"/>
      <path id="Path_14576" data-name="Path 14576" d="M382.291,144.588c-.616,5.08-5.689,14.183-6.008,14.748,1.856-5.268,3.863-11.276,4.435-14.6.094-3.753-2.95-10.515-4.87-15.342l1.565-1.746,1.435,2.718S382.928,139.327,382.291,144.588Z" transform="translate(-287.994 -73.835)" fill="#efcba5"/>
      <path id="Path_14577" data-name="Path 14577" d="M381.093,127.951a1.437,1.437,0,0,0-.855-.123c-2.189.275-9.255,1.71-9.74,4.834a52.843,52.843,0,0,0-1.87-9.023s-.478,28.445-8.493,43.164a7.96,7.96,0,0,0-.659-8.37,11.362,11.362,0,0,0-3.406-2.9,20.8,20.8,0,0,0-3.689-1.673c-.289-.1-.58-.211-.862-.327-10.885-4.312-19.125-16.647-27.1-9.6.964-1.109,16.559-19.118,19.023-28.481.058-.224.116-.435.174-.645a43.606,43.606,0,0,1-11.03,4.768,31.692,31.692,0,0,1-1.464-5.059c-.021-.094-.043-.188-.058-.282-.007-.029-.007-.051-.014-.072a26.892,26.892,0,0,1-.508-6.559s4.53-1.275,9.7-2.718a94.975,94.975,0,0,1,10.964-2.4l.036-.007c.137-.022.268-.044.384-.059.492-.072.753-.1.753-.1s1.087,4.152,4.435,4.7a9.37,9.37,0,0,0,8.11-2.8s8.29,3.711,11.1,9.145S381.093,127.951,381.093,127.951Z" transform="translate(-282.362 -71.061)" fill="#626ac3"/>
      <path id="Path_14578" data-name="Path 14578" d="M358.887,155.545a20.8,20.8,0,0,0-3.689-1.673c-.289-.1-.58-.211-.862-.327a70.825,70.825,0,0,1-3.667-15.892c-1.906-16.074,2.007-34.8,2.007-34.8l1.348-.354.037-.007c.137-.022.268-.044.384-.059C354.1,103.81,347.081,132.739,358.887,155.545Z" transform="translate(-285.179 -71.074)" fill="#4f5ba3"/>
      <path id="Path_14579" data-name="Path 14579" d="M304.821,88.744l-3.55,1.015a4.1,4.1,0,0,0-.537-.536l-1.587.449c.312.3.63.609.935.907l-.761.217c-1.645-.348-3.811-.732-4.7-1.044a6.273,6.273,0,0,1-1.993-1.109c-.051-.044-.073-.066-.073-.066-.181-.188-.37-.384-.543-.58-1.935-2.13-3.341-4.464-2.979-4.79.261-.232.667.072,1.189.623-.914-1.29-1.42-2.348-1.189-2.558.681-.6,2.4,2.5,4.544,4.094a4.036,4.036,0,0,0,.34.217c-.326-.312-.645-.638-.942-.971-1.928-2.131-3.333-4.465-2.971-4.791.681-.6,2.391,2.5,4.543,4.094a4.991,4.991,0,0,0,.5.312c-1.754-2.014-2.972-4.094-2.623-4.406.674-.6,2.384,2.5,4.536,4.1.385.282,2.515,1.573,3.928.963.42-.189-.224-1.45-.942-2.182-.326-.333-1.058-1.645-.3-1.753.268-.037,2.986,2.391,4.384,4.841.007.007.007.015.015.022v.007a6.592,6.592,0,0,1,.753,1.87A2.7,2.7,0,0,1,304.821,88.744Z" transform="translate(-278.479 -68.589)" fill="#ffe1bd"/>
      <path id="Path_14580" data-name="Path 14580" d="M305.3,94.453s-2.811-2-3.63-2.406a11.133,11.133,0,0,0-1.914-.507c-1.645-.348-3.811-.732-4.7-1.044a6.273,6.273,0,0,1-1.993-1.109c-.051-.044-.073-.066-.073-.066l4.37-2.13,7.109-.653h.007a.056.056,0,0,0,.008.022v.007a15.434,15.434,0,0,0,.753,1.87,8.039,8.039,0,0,0,1.616,2.354C308.392,92.221,305.3,94.453,305.3,94.453Z" transform="translate(-278.919 -69.333)" fill="#ffe1bd"/>
      <path id="Path_14581" data-name="Path 14581" d="M303.025,92.721a21.754,21.754,0,0,1,3.947,4.921c1.651,2.887,1.983-1.842,1.983-1.842l-3.805-3.725-1.676-.646Z" transform="translate(-280.018 -69.869)" fill="#ffe1bd"/>
      <path id="Path_14582" data-name="Path 14582" d="M342.651,222.02a6.317,6.317,0,0,1-2.425,3.907c-.308.235-1.179-.03-1.569.171-.3.154-.27,2.607-.394,4.187s-2.061,5.8-1.336,7.021c.74,1.248,2.533-.947,3.8-2.627,1.575-2.088,6.62-8.11,6.842-8.753.2-.581.068-2.711-3.706-3.779A2.321,2.321,0,0,0,342.651,222.02Z" transform="translate(-283.714 -84.167)" fill="#3a3a3a"/>
      <path id="Path_14583" data-name="Path 14583" d="M293.628,256.6a6.3,6.3,0,0,1-4.409-.527c-.389-.2-.694-1.055-1.086-1.369-.265-.211-2.35.756-3.842,1.292s-6.133.5-6.949,1.667c-.833,1.187,1.9,1.921,3.957,2.386,2.551.578,10.114,2.7,10.791,2.641.613-.055,2.5-1.053,1.922-4.931A2.311,2.311,0,0,0,293.628,256.6Z" transform="translate(-277.189 -87.748)" fill="#3a3a3a"/>
      <path id="Path_14584" data-name="Path 14584" d="M364.446,168.908a7.96,7.96,0,0,0-.659-8.37c1.263-2.554.781-5.732,1.722-9.042,1.332-4.686,3.5-8.993,4.529-13.648a101.482,101.482,0,0,0,2.148-16.306l.753,4.2S372.461,154.189,364.446,168.908Z" transform="translate(-286.673 -73.167)" fill="#4f5ba3"/>
      <path id="Path_14585" data-name="Path 14585" d="M345.27,112.874a12.727,12.727,0,0,0-.826,3.087,43.606,43.606,0,0,1-11.03,4.768,31.7,31.7,0,0,1-1.464-5.059c.013.05.026.1.039.15a2.6,2.6,0,0,0,3.483,1.676c2.365-.911,4.591-.721,6.479-1.7A8.6,8.6,0,0,0,345.27,112.874Z" transform="translate(-283.186 -72.217)" fill="#5862af"/>
      <path id="Path_14586" data-name="Path 14586" d="M353.948,102.3s-13.443,29.524,3.95,69.235l-4.453-.172s-6.812-20.749-7.293-37.589a85.755,85.755,0,0,1,5.3-31.094A2.624,2.624,0,0,1,353.948,102.3Z" transform="translate(-284.739 -71.041)" fill="#f7b15e"/>
      <path id="Path_14587" data-name="Path 14587" d="M352.859,180.148a49.865,49.865,0,0,1,6.616-2.1l6.665,21.027a47.911,47.911,0,0,1-6.558,2.167.322.322,0,0,1-.375-.206c-.763-2.092-5.793-15.957-6.663-20.311A.509.509,0,0,1,352.859,180.148Z" transform="translate(-285.441 -79.356)" fill="#ffc388"/>
      <path id="Path_14588" data-name="Path 14588" d="M366.4,85.326a1.2,1.2,0,0,1,.952,1c.135.929.157,2.546-.634,2.785-.411.125-1.224-.634-.861-1.563s1.061-.345,1.175-.527a1.335,1.335,0,0,0-.077-1.066C366.656,85.506,366.012,85.314,366.4,85.326Z" transform="translate(-286.89 -69.2)" fill="#efcba5"/>
      <path id="Path_14589" data-name="Path 14589" d="M359.628,178.19a.663.663,0,0,1,.824.483l.3-.5-.4-.162Z" transform="translate(-286.218 -79.351)" fill="#ea9d49"/>
      <path id="Path_14590" data-name="Path 14590" d="M379.282,188.379a.428.428,0,0,0-.255.519,3.986,3.986,0,0,0,.515,1.285,17.516,17.516,0,0,0,3.7-1.258,2.048,2.048,0,0,0-.453-1.7A20.764,20.764,0,0,0,379.282,188.379Z" transform="translate(-288.34 -80.359)" fill="#efcba5"/>
      <g id="Group_351" data-name="Group 351" transform="translate(60.447 14.416)">
        <circle id="Ellipse_43" data-name="Ellipse 43" cx="0.555" cy="0.555" r="0.555" transform="translate(1.068 2.944)" fill="#0a344c"/>
        <circle id="Ellipse_44" data-name="Ellipse 44" cx="0.191" cy="0.191" r="0.191" transform="translate(1.189 3.264)" fill="#fff"/>
        <circle id="Ellipse_45" data-name="Ellipse 45" cx="0.545" cy="0.545" r="0.545" transform="translate(7.306 1.799)" fill="#0a344c"/>
        <path id="Path_14591" data-name="Path 14591" d="M353.8,85.9a.187.187,0,1,1-.187-.187A.187.187,0,0,1,353.8,85.9Z" transform="translate(-345.985 -83.659)" fill="#fff"/>
        <path id="Path_14592" data-name="Path 14592" d="M345.07,85.91a1.251,1.251,0,0,1,.26-.461,1.6,1.6,0,0,1,1.045-.571,1.884,1.884,0,0,1,.646.053,2.072,2.072,0,0,1,.5.223,1.73,1.73,0,0,1,.307.228,1.418,1.418,0,0,1,.105.1s-.053-.012-.14-.037-.207-.069-.353-.1a3.081,3.081,0,0,0-.487-.1,2.451,2.451,0,0,0-.542-.007A2.534,2.534,0,0,0,345.07,85.91Z" transform="translate(-345.07 -83.566)" fill="#0a344c"/>
        <path id="Path_14593" data-name="Path 14593" d="M352.078,84.445a1.25,1.25,0,0,1,.26-.461,1.686,1.686,0,0,1,.426-.362,1.658,1.658,0,0,1,.62-.208,1.884,1.884,0,0,1,.647.053,2.073,2.073,0,0,1,.5.223,1.73,1.73,0,0,1,.307.228,1.424,1.424,0,0,1,.105.1s-.053-.011-.14-.037-.207-.069-.353-.1a3.09,3.09,0,0,0-.486-.1,2.46,2.46,0,0,0-.543-.007A2.534,2.534,0,0,0,352.078,84.445Z" transform="translate(-345.838 -83.406)" fill="#0a344c"/>
        <path id="Path_14594" data-name="Path 14594" d="M348.916,86.511a1.675,1.675,0,0,1,.166.232,3.294,3.294,0,0,1,.322.682,4.4,4.4,0,0,1,.13.5,2.542,2.542,0,0,1,.057.573c0,.393-.029.793-.05,1.191-.047.394-.094.788-.1,1.14a3.354,3.354,0,0,0,.012.462.337.337,0,0,0,.178.246,1.939,1.939,0,0,0,.623.24c.17.037.272.052.272.052h0a.017.017,0,0,1,.014.02.017.017,0,0,1-.015.015,2.145,2.145,0,0,1-.277.009,1.8,1.8,0,0,1-.715-.144.6.6,0,0,1-.338-.353,1.9,1.9,0,0,1-.073-.542,11.57,11.57,0,0,1,.053-1.176c.036-.4.079-.8.1-1.17a3.866,3.866,0,0,0-.082-1.012,4.05,4.05,0,0,0-.311-.943.017.017,0,0,1,.007-.024.019.019,0,0,1,.021,0Z" transform="translate(-345.488 -83.745)" fill="#dbb491"/>
        <path id="Path_14595" data-name="Path 14595" d="M354.88,93.99a1.641,1.641,0,0,1-.748,1.5,2.762,2.762,0,0,1-2.671.3,3.8,3.8,0,0,1-1.38-1.06,9.19,9.19,0,0,1,3.313-1.086c.276-.027.588-.045.846-.053.338-.018.6-.018.6-.018A2.677,2.677,0,0,1,354.88,93.99Z" transform="translate(-345.619 -84.52)" fill="#d15924"/>
      </g>
      <path id="Path_14596" data-name="Path 14596" d="M355.049,93.99a1.641,1.641,0,0,1-.748,1.5,2.762,2.762,0,0,1-2.671.3,6.061,6.061,0,0,1,2.778-2.2c.338-.018.6-.018.6-.018A2.684,2.684,0,0,1,355.049,93.99Z" transform="translate(-285.342 -70.104)" fill="#ef703f"/>
    </g>
    <g id="Group_355" data-name="Group 355" transform="translate(62.251 176.561)">
      <path id="Path_14597" data-name="Path 14597" d="M134.541,371.228s8.636,3.775,20.411-3.4c26.88-16.38,34.3-37.317,34.3-37.317s-18.377-2.551-35.519,5.42S133.394,360.69,134.541,371.228Z" transform="translate(-73.177 -211.251)" fill="#dd8573"/>
      <path id="Path_14598" data-name="Path 14598" d="M188.525,414.263a28.255,28.255,0,0,1,3.053,4.771c1.1,2.338,3.579,8.207,3.1,10.544s-3.483,1.718-6.155-1.908-4.294-6.584-4.723-8.826,1.728-4.581,1.728-4.581" transform="translate(-78.589 -220.466)" fill="#3a3a3a"/>
      <path id="Path_14599" data-name="Path 14599" d="M159.367,398.585a4.348,4.348,0,0,0-2.73,1.591c-1.329,1.51.207,3.141,1.372,5.194s4.147,6.521,5.431,7.348c1.359.876.885-1.934.695-4.007-.167-1.809-1.332-6.865-1.332-6.865" transform="translate(-75.564 -218.749)" fill="#3a3a3a"/>
      <path id="Path_14600" data-name="Path 14600" d="M190.25,415c-.065-.189-.109-.334-.137-.427a.327.327,0,0,0,.029.043C190.185,414.745,190.222,414.875,190.25,415Z" transform="translate(-79.286 -220.5)" fill="#ffe1bd"/>
      <path id="Path_14601" data-name="Path 14601" d="M181.844,349.251c-.725,5.428-18.284,40.634-19.241,44.837a3.516,3.516,0,0,1-2.24-.877,3.746,3.746,0,0,1-.956-1.435,3.955,3.955,0,0,1-.24-.949,4.254,4.254,0,0,0,1.935-3.044c.007-.066.014-.116.021-.167.008-.072.015-.151.022-.224.044-.384.072-.776.1-1.174.688-10.53,2.449-24.422,4.254-28.989,1.159-2.913,4.949-8.2,2.8-11.232-1.717-2.413-7.247-7.414-10.819-10.544-1.849-1.623-3.175-2.74-3.175-2.74l16.422-4.956c.8.688,1.55,1.347,2.247,1.993a42.923,42.923,0,0,1,7.094,7.907C183.308,342.657,182.315,345.693,181.844,349.251Z" transform="translate(-75.364 -210.992)" fill="#ffe1bd"/>
      <path id="Path_14602" data-name="Path 14602" d="M172.748,347.931c-.6,3.508-3.921,5.2-6.523,13.835s-3.014,21.256-3.261,23.372c-.232,2.029-.355,5.232-3.167,6.884a3.956,3.956,0,0,1-.24-.949,4.254,4.254,0,0,0,1.935-3.044c.007-.066.014-.116.021-.167.008-.072.015-.151.022-.224.044-.384.072-.776.1-1.174.688-10.53,2.449-24.422,4.254-28.989,1.159-2.913,4.949-8.2,2.8-11.232-1.717-2.413-7.247-7.414-10.819-10.544.007-.015.014-.015.021-.022,1.334-1.029,12.726-5.573,13.226-5.573.181.007,1.123-.051,2.247-.109a42.924,42.924,0,0,1,7.094,7.907,62.824,62.824,0,0,0-11.153,3.087S173.356,344.431,172.748,347.931Z" transform="translate(-75.755 -211.237)" fill="#f7d7b5"/>
      <path id="Path_14603" data-name="Path 14603" d="M181.844,349.251c-.725,5.428-18.284,40.634-19.241,44.837a3.516,3.516,0,0,1-2.24-.877,3.746,3.746,0,0,1-.956-1.435,3.955,3.955,0,0,1-.24-.949,4.254,4.254,0,0,0,1.935-3.044c.007-.066.014-.116.021-.167.008-.072.015-.151.022-.224.044-.384.072-.776.1-1.174.688-10.53,2.449-24.422,4.254-28.989,1.159-2.913,4.949-8.2,2.8-11.232-1.717-2.413-7.247-7.414-10.819-10.544-1.849-1.623-3.175-2.74-3.175-2.74l16.422-4.956c.8.688,1.55,1.347,2.247,1.993a42.923,42.923,0,0,1,7.094,7.907C183.308,342.657,182.315,345.693,181.844,349.251Z" transform="translate(-75.364 -210.992)" opacity="0.28" fill="url(#linear-gradient-3)"/>
      <path id="Path_14604" data-name="Path 14604" d="M183.314,411.438a3.991,3.991,0,0,1-3.2-1.964c-.24-.412-.45-.789-.638-1.116a4.464,4.464,0,0,0-.443-.884c-.036-.051-.072-.1-.1-.152a.245.245,0,0,1-.029-.036h.007c-.152-.217-.3-.443-.464-.681l-.065-.109c-.058-.094-.123-.189-.181-.283-2.9-4.594-5.581-9.718-10.509-15.276s-8.921-9.538-13.269-23.068c-3.457-10.754-15.458-18.683-20.234-21.48-1.232-.725-1.986-1.109-1.986-1.109l3.247-.986,17.93-5.42s1.065,2.036,3.616,6.935c1.608,3.109,3.819,7.37,6.732,13,7.486,14.494,20.429,48.266,20.683,51.143A1.283,1.283,0,0,1,183.314,411.438Z" transform="translate(-72.944 -212.209)" fill="#ffe1bd"/>
      <path id="Path_14605" data-name="Path 14605" d="M182.341,411.17a3.851,3.851,0,0,1-1.986-1.7c-.24-.412-.45-.789-.638-1.116a4.463,4.463,0,0,0-.443-.884c-.036-.051-.072-.1-.1-.152a.243.243,0,0,1-.029-.036h.007c-.152-.217-.3-.443-.464-.681l-.065-.109c-.058-.094-.123-.189-.181-.283-2.9-4.594-5.581-9.718-10.509-15.276s-8.921-9.538-13.269-23.068c-3.457-10.754-15.458-18.683-20.234-21.48.385-.667.819-1.377,1.261-2.094l17.93-5.42s1.065,2.036,3.616,6.935a37.978,37.978,0,0,0-8.994,6.66s4.935,6.117,6.479,9.378,2.855,8.784,4.848,13.951,9.1,14.088,11.32,16.53S179,405.554,179,405.554,181.015,410.445,182.341,411.17Z" transform="translate(-73.188 -212.209)" fill="#f7d7b5"/>
      <path id="Path_14606" data-name="Path 14606" d="M142.325,207.583s7.081-.722,3.261,18.919c-2.234,11.488-16.428,21.061-22.225,23.113s-16.1.65-16.1.65l-.571-18.888s15.759-14.879,16.668-16.185S142.325,207.583,142.325,207.583Z" transform="translate(-70.15 -197.829)" fill="#505baa"/>
      <path id="Path_14607" data-name="Path 14607" d="M116.248,324.639s.779,4.8,5.925,3.473c34.212-8.818,37.745-28.837,37.745-28.837l-28.686,5.164s-7.851,4.046-8.153,4.106-5.979,6.946-5.979,6.946Z" transform="translate(-71.196 -207.872)" fill="#20264c"/>
      <path id="Path_14608" data-name="Path 14608" d="M187.575,327.37a12.634,12.634,0,0,1-2.065,2.24c-.094.079-.2.159-.29.24-2.739,2.159-6.131,2.768-10.9,3.725h-.007c-.232.051-.471.094-.71.144a95.4,95.4,0,0,0-10.219,2.581c-.232.072-.471.152-.71.232-2.443.8-5.124,1.8-8.073,3.08-.979.427-1.921.87-2.812,1.319-.2.109-.413.21-.609.312a40.821,40.821,0,0,0-9.616,6.8c-.182.167-.355.34-.522.515a29.252,29.252,0,0,0-6.052,8.725c-.007.014-.007.022-.014.037-.123.275-.232.543-.34.8a22.363,22.363,0,0,0-1.776,9.972c-14.769-9.849-14.139-47.483-13.755-56.628.051-1.29.1-2.015.1-2.015l34.677-7.979C166.755,321.087,187.575,327.37,187.575,327.37Z" transform="translate(-71.494 -208.113)" fill="#fdc3b0"/>
      <g id="Group_353" data-name="Group 353" transform="translate(52.118 94.401)" opacity="0.3">
        <path id="Path_14609" data-name="Path 14609" d="M189.466,329.738c-.558-.21-1.217-.442-1.972-.718-.8-.362-1.725-.768-2.718-1.217-.5-.224-1.029-.435-1.55-.7l-1.609-.849c-.558-.289-1.123-.58-1.711-.883-.573-.312-1.137-.674-1.732-1.015s-1.188-.688-1.79-1.044-1.174-.79-1.776-1.181-1.21-.783-1.8-1.2-1.175-.855-1.769-1.29a41.223,41.223,0,0,1-3.392-2.732c-1.087-.942-2.065-1.971-3.014-2.949-.907-1.029-1.819-1.986-2.623-2.95-.826-.941-1.623-1.818-2.32-2.659-.725-.819-1.319-1.623-1.906-2.3-.551-.7-1.029-1.3-1.42-1.812s-.7-.9-.906-1.174-.312-.427-.312-.427l-.066.044s.341.652,1.029,1.739c.333.55.79,1.181,1.3,1.92s1.116,1.544,1.818,2.392c.348.427.711.87,1.087,1.334.392.449.805.9,1.225,1.37.217.232.435.463.652.7.232.224.471.457.711.681q.707.7,1.456,1.413c1.015.921,2.073,1.877,3.138,2.841.544.486,1.087.964,1.63,1.45.53.508,1.1.956,1.667,1.427s1.131.942,1.689,1.413c.58.443,1.181.863,1.768,1.29s1.167.848,1.754,1.24c.608.37,1.2.739,1.79,1.1s1.159.732,1.746,1.052c.587.3,1.175.587,1.739.876s1.117.551,1.653.812,1.087.442,1.594.645c1.029.4,1.964.79,2.812,1.073l1.841.522Z" transform="translate(-127.567 -302.642)" fill="#eda694"/>
        <path id="Path_14610" data-name="Path 14610" d="M177.794,334.043c-.232.051-.471.094-.71.144-.551-.312-1.138-.666-1.761-1.036-.9-.515-1.783-1.2-2.761-1.877a15.14,15.14,0,0,1-1.449-1.1q-.719-.6-1.457-1.217c-1.008-.812-1.935-1.776-2.928-2.7s-1.891-1.964-2.826-2.964c-1.812-2.065-3.616-4.13-5.313-6.065-.841-.979-1.666-1.914-2.377-2.856-.739-.92-1.355-1.855-1.942-2.7s-1.1-1.638-1.543-2.355-.819-1.334-1.1-1.863c-.594-1.051-.883-1.674-.883-1.674l.065-.036s.391.565,1.079,1.543c.341.492.761,1.087,1.24,1.768s1.029,1.442,1.63,2.268,1.268,1.718,1.964,2.667c.34.471.7.963,1.051,1.464s.739,1.007,1.123,1.522c.739,1.051,1.609,2.051,2.471,3.08.9,1.007,1.849,1.993,2.819,2.956.5.464,1,.935,1.493,1.4s.971.949,1.485,1.377c1.022.877,1.956,1.812,2.979,2.588,1,.783,1.921,1.615,2.877,2.289l1.362,1.022a15.928,15.928,0,0,0,1.29.935C176.438,333.137,177.156,333.608,177.794,334.043Z" transform="translate(-127.092 -302.983)" fill="#eda694"/>
        <path id="Path_14611" data-name="Path 14611" d="M166.166,336.769c-.232.072-.471.152-.71.232-.819-.638-1.6-1.442-2.478-2.24a37.129,37.129,0,0,1-2.646-2.76c-.906-.964-1.725-2.066-2.609-3.145s-1.645-2.262-2.464-3.414c-.776-1.174-1.55-2.347-2.319-3.5-.725-1.182-1.529-2.29-2.232-3.406s-1.42-2.182-2.007-3.24c-.616-1.044-1.116-2.08-1.594-3.022s-.884-1.819-1.225-2.609-.645-1.471-.862-2.058c-.45-1.145-.66-1.819-.66-1.819l.072-.029s.312.63.87,1.725c.275.55.616,1.217,1.007,1.978s.841,1.609,1.327,2.544c1,1.848,2.159,4.015,3.406,6.327.608,1.174,1.347,2.312,2.087,3.485.775,1.138,1.594,2.283,2.449,3.392.443.55.884,1.094,1.327,1.638.427.551.855,1.094,1.319,1.609.913,1.037,1.739,2.109,2.667,3.037.913.942,1.732,1.914,2.616,2.725.427.427.841.834,1.246,1.232s.783.79,1.189,1.123C166.022,336.638,166.094,336.7,166.166,336.769Z" transform="translate(-126.393 -302.983)" fill="#eda694"/>
        <path id="Path_14612" data-name="Path 14612" d="M153.977,341.489c-.2.109-.413.21-.609.312-.144-.181-.282-.362-.427-.543-.34-.486-.681-.986-1.044-1.508a39.375,39.375,0,0,1-2.123-3.334c-.681-1.188-1.413-2.4-2.036-3.7-.326-.646-.645-1.29-.972-1.942-.3-.66-.587-1.341-.876-2.008-.595-1.333-1.138-2.688-1.681-4.014-.573-1.312-1.052-2.638-1.609-3.892-.485-1.282-.986-2.507-1.37-3.7s-.711-2.334-.972-3.4c-.282-1.058-.5-2.044-.674-2.914s-.319-1.638-.405-2.268c-.2-1.268-.247-1.993-.247-1.993l.072-.014s.159.71.471,1.949c.159.615.348,1.362.565,2.217.254.848.485,1.819.8,2.863.283,1.051.653,2.167,1,3.37q.544,1.794,1.131,3.754c.449,1.289.862,2.638,1.45,3.949.282.653.572,1.312.855,1.979.3.659.652,1.3.979,1.949s.652,1.3,1,1.928.7,1.261,1.051,1.884c.659,1.268,1.406,2.457,2.116,3.616.362.573.674,1.167,1.051,1.7s.711,1.073,1.058,1.595.667,1.029.986,1.522C153.672,341.068,153.824,341.279,153.977,341.489Z" transform="translate(-125.799 -303.073)" fill="#eda694"/>
        <path id="Path_14613" data-name="Path 14613" d="M143.007,348.765c-.182.167-.355.34-.522.515-.355-.588-.711-1.2-1.044-1.849-.174-.319-.341-.638-.515-.956s-.326-.667-.485-1.007q-.5-1-.956-2.087c-.616-1.427-1.2-2.928-1.732-4.471-.283-.768-.515-1.558-.768-2.348s-.457-1.587-.681-2.385c-.413-1.608-.833-3.21-1.2-4.79-.406-1.58-.746-3.145-1.109-4.66-.341-1.515-.674-2.979-.891-4.385-.247-1.406-.406-2.746-.537-3.979s-.246-2.37-.3-3.377-.109-1.891-.116-2.616c-.029-1.45.007-2.276.007-2.276h.072s.08.819.224,2.262.385,3.485.7,5.935c.174,1.224.362,2.551.557,3.949.217,1.406.406,2.884.66,4.414s.565,3.094.949,4.674c.189.79.42,1.58.63,2.37.232.79.492,1.573.732,2.362.543,1.558,1.087,3.117,1.667,4.631s1.181,2.986,1.826,4.384c.319.7.63,1.392.963,2.059s.638,1.319.972,1.942C142.406,347.663,142.71,348.221,143.007,348.765Z" transform="translate(-125.055 -303.239)" fill="#eda694"/>
        <path id="Path_14614" data-name="Path 14614" d="M135.562,358.434c-.007.014-.007.022-.014.036-.123.275-.232.543-.34.8-.341-.565-.667-1.167-.972-1.8-.377-.732-.768-1.485-1.167-2.254a25.781,25.781,0,0,1-1.152-2.384c-.348-.826-.7-1.675-1.066-2.523-.347-.862-.746-1.71-1.029-2.608-.3-.9-.616-1.8-.921-2.7l-.457-1.355-.37-1.392c-.5-1.848-1.036-3.688-1.42-5.529-.2-.921-.464-1.819-.652-2.725-.167-.906-.362-1.8-.544-2.681-.2-.877-.354-1.747-.478-2.6-.144-.855-.268-1.688-.377-2.508-.152-1.638-.333-3.189-.347-4.63-.029-.718-.051-1.406-.073-2.066-.007-.652.014-1.275.022-1.862.021-1.167.086-2.182.151-3.022.087-.833.145-1.485.218-1.935.058-.442.1-.681.1-.681l.072.014s-.065.95-.087,2.616c.007.841-.021,1.849.022,3.008.014.587.043,1.2.051,1.848.036.652.072,1.333.116,2.051.029.711.079,1.45.167,2.218s.131,1.557.2,2.377c.239,1.616.312,3.348.623,5.109.137.884.268,1.784.427,2.689s.391,1.811.6,2.732c.24.906.413,1.841.711,2.739s.58,1.819.87,2.725l.442,1.362.515,1.327c.34.883.674,1.768,1.007,2.645.312.884.711,1.725,1.08,2.565s.739,1.667,1.1,2.486c.347.818.76,1.594,1.152,2.362s.768,1.514,1.137,2.239Q135.216,357.8,135.562,358.434Z" transform="translate(-124.183 -303.669)" fill="#eda694"/>
      </g>
      <path id="Path_14615" data-name="Path 14615" d="M132.861,369.321c-14.769-9.849-14.139-47.483-13.755-56.628,1.5.072,2.58.137,2.58.137s-.891,13.639,2.211,20.647.92,11.356,3.159,16.907c1.63,4.044,5.776,6.907,7.921,8.16A22.7,22.7,0,0,0,132.861,369.321Z" transform="translate(-71.494 -209.342)" fill="#f4b5a4"/>
      <path id="Path_14616" data-name="Path 14616" d="M117.29,262.585s-18.208,7.338-21.923,11.595c6.281,1.148.634,4.589,4.348,3.866s11.414-5.858,11.414-5.858" transform="translate(-68.909 -203.854)" fill="#ffe1bd"/>
      <path id="Path_14617" data-name="Path 14617" d="M148.368,257.183s10.78-3.455,15.732-6.552,13.878-12.193,16.476-15.037l2.821.716a3.562,3.562,0,0,0-.684.671c-1.6,2.449-8.592,13.306-13.358,17.456a36.009,36.009,0,0,1-16.487,8.031" transform="translate(-74.714 -200.898)" fill="#ffe1bd"/>
      <path id="Path_14618" data-name="Path 14618" d="M126.106,259.211a7.832,7.832,0,0,1,3.035,0c1.812.317,4.53.724,5.345.452s2.9-.543,3.714-.045-2.868,3.186-2.868,3.186-9.9.634-9.92.468S126.106,259.211,126.106,259.211Z" transform="translate(-72.2 -203.469)" fill="#20264c"/>
      <path id="Path_14619" data-name="Path 14619" d="M134.934,249.366a17.756,17.756,0,0,0,.536,5.3c.833,1.319,3.1,1.384,4.392,1.877.862.333,1.289.855.565,2.072-1.812,3.052-9.327,4.472-13.7,2.573s-4.413-4.8-1.515-5.254a4.3,4.3,0,0,0,3.537-3,36.036,36.036,0,0,0,.312-7.037c-.58-.413-.928-.682-.928-.682-3.811-3.427-6.682-9.362-4.182-14.523s16.566-11.269,17.987-8.152c2.9,6.348,2.573,26.452-1.522,27.77C138.934,250.787,136.913,250.243,134.934,249.366Z" transform="translate(-71.937 -199.375)" fill="#ffe1bd"/>
      <path id="Path_14620" data-name="Path 14620" d="M140.873,259.67a1.964,1.964,0,0,1-1.8.239c-3.406-.848-3.485-2.42-3.848-4.971-.341-2.392-2.688-4.428-2.986-4.675,1.391.964,3.711,2.232,3.711,2.232a17.757,17.757,0,0,0,.536,5.3C137.314,259.112,139.582,259.177,140.873,259.67Z" transform="translate(-72.947 -202.504)" fill="#efcba5"/>
      <path id="Path_14621" data-name="Path 14621" d="M158.6,294.479c0,.145-.087,4.493-10.327,7.428-4.7,1.348-11.624,1.29-17.951,2.544-.051.007-.109.021-.159.029-7.66,1.551-14.414,5.059-15.233,15.364,0,0-.659-17.393,3.45-47.469a18.916,18.916,0,0,0-7.189,5.472s-5.7-4.711-6.979-11.233c0,0,7.159-3.391,10.964-5.138a43.811,43.811,0,0,1,8.6-2.659,10.922,10.922,0,0,0,12.1.413,1.4,1.4,0,0,0,.6.253c1.906.37,4.485-.123,7.688-1.174s7.972-2.8,7.972-2.8a34.017,34.017,0,0,1,3.261,7.7,18.306,18.306,0,0,1,.543,2.892,26.045,26.045,0,0,1-11.045,1.565,55.813,55.813,0,0,1,1.348,6.827c.913,6.066,2.826,13.059,8.16,17.393A14.966,14.966,0,0,0,158.6,294.479Z" transform="translate(-69.878 -203.079)" fill="#aa4b7d"/>
      <path id="Path_14622" data-name="Path 14622" d="M131.479,306.473c-7.66,1.551-14.414,5.059-15.233,15.364,0,0-.659-17.393,3.45-47.469a4.655,4.655,0,0,1,1.87-.659s-1.558,15.03.7,20.407,1.042,10.054,1.334,11.393C123.843,306.652,123.427,308.061,131.479,306.473Z" transform="translate(-71.192 -205.072)" fill="#964075"/>
      <path id="Path_14623" data-name="Path 14623" d="M97.06,273.837s-3.222,2.044-2.441,4.073c.573,1.49,16.065,5.93,26.2,5.731,0,0,.323-1.98.4-3.346-5.35-.745-10.145-1.318-14.8-3.542C98.1,272.78,97.06,273.837,97.06,273.837Z" transform="translate(-68.814 -205.072)" fill="#ffe1bd"/>
      <path id="Path_14624" data-name="Path 14624" d="M124.294,280.947a12.64,12.64,0,0,0,1.592-.187c1.133-.181,2.264-.951,3.4-1.087a18.283,18.283,0,0,1,5.639,1.133c1.178.492.013.809-1.6.492a6.273,6.273,0,0,0-3.607-.017c-.757.371-2.643,3.69-5.817,3.012S124.294,280.947,124.294,280.947Z" transform="translate(-71.89 -205.724)" fill="#ffe1bd"/>
      <path id="Path_14625" data-name="Path 14625" d="M128.161,285.309a.552.552,0,0,0,0,.657c.249.339,2.718-.408,2.718-.408l-.793-1.381Z" transform="translate(-72.489 -206.219)" fill="#e8a87e"/>
      <path id="Path_14626" data-name="Path 14626" d="M130.424,280.523s1.947,3.955,0,4.635a18.279,18.279,0,0,1-5.986-.764c-2.348-.912,3.676-2.9,3.676-2.9Z" transform="translate(-72.034 -205.818)" fill="#ffe1bd"/>
      <path id="Path_14627" data-name="Path 14627" d="M139.484,201.013c.65,3.887,2.21,19.241-11.909,27.022a9.278,9.278,0,0,0-4.428,5.438c-1.2,4.021-3.832,10.233-9.111,13.494-8.214,5.073-15.7.241-20.05.6s-9.542,5.8-17.755,3.261-12.441-7.247-9.784-12.32,9.179-3.623,13.648-5.073S82.39,220.273,92.113,214.6s16.522,2.778,24.234.121,3.969-8.334,12.82-16.064c2.923-2.552,7.426-2.9,9.488.164A5.54,5.54,0,0,1,139.484,201.013Z" transform="translate(-65.655 -196.63)" fill="#626ac3"/>
      <path id="Path_14628" data-name="Path 14628" d="M128.657,202.463s-4.907,9.511-11.248,10.327-9.059-2.989-17.121-2.718-12.259,5.134-14.434,12.289-3.14,10.448-6.763,11.082" transform="translate(-67.127 -197.269)" fill="none" stroke="#626ac3" stroke-miterlimit="10" stroke-width="0.814"/>
      <path id="Path_14629" data-name="Path 14629" d="M129.821,240.392s0-2.257-2.487-1.591c-2.467.661-1.143,5.371.945,5.222" transform="translate(-72.264 -201.235)" fill="#ffe1bd"/>
      <path id="Path_14630" data-name="Path 14630" d="M160.825,267.047a26.045,26.045,0,0,1-11.045,1.565s-.427-.9-.993-1.906a4.721,4.721,0,0,0,2.537.217c1.7-.167,6.232-2.42,8.957-2.768A18.3,18.3,0,0,1,160.825,267.047Z" transform="translate(-74.76 -204.026)" fill="#964075"/>
      <g id="Group_354" data-name="Group 354" transform="translate(62.631 33.918)">
        <path id="Path_14631" data-name="Path 14631" d="M144.406,237.313a.555.555,0,1,0,.339-.707A.554.554,0,0,0,144.406,237.313Z" transform="translate(-136.908 -234.923)" fill="#0a344c"/>
        <path id="Path_14632" data-name="Path 14632" d="M145.036,237.1a.191.191,0,1,0,.117-.243A.19.19,0,0,0,145.036,237.1Z" transform="translate(-136.98 -234.952)" fill="#fff"/>
        <path id="Path_14633" data-name="Path 14633" d="M137.389,238.411a.545.545,0,1,0,.333-.695A.544.544,0,0,0,137.389,238.411Z" transform="translate(-136.14 -235.044)" fill="#0a344c"/>
        <path id="Path_14634" data-name="Path 14634" d="M137.968,238.144a.187.187,0,1,0,.115-.239A.187.187,0,0,0,137.968,238.144Z" transform="translate(-136.205 -235.067)" fill="#fff"/>
        <path id="Path_14635" data-name="Path 14635" d="M145.936,235.3a1.256,1.256,0,0,0-.4-.349,1.692,1.692,0,0,0-.521-.2,1.656,1.656,0,0,0-.654.009,1.88,1.88,0,0,0-.592.266,2.061,2.061,0,0,0-.4.377,1.709,1.709,0,0,0-.215.317c-.045.079-.067.127-.067.127s.046-.028.12-.081.172-.134.3-.213a3.211,3.211,0,0,1,.427-.254,2.465,2.465,0,0,1,.509-.186A2.538,2.538,0,0,1,145.936,235.3Z" transform="translate(-136.767 -234.72)" fill="#0a344c"/>
        <path id="Path_14636" data-name="Path 14636" d="M138.839,236.243a1.261,1.261,0,0,0-.4-.348,1.683,1.683,0,0,0-.521-.2,1.656,1.656,0,0,0-.654.009,1.887,1.887,0,0,0-.592.265,2.09,2.09,0,0,0-.4.378,1.627,1.627,0,0,0-.214.317c-.046.079-.068.127-.068.127s.046-.028.12-.081.172-.134.3-.213a3.117,3.117,0,0,1,.427-.254,2.486,2.486,0,0,1,.509-.186A2.541,2.541,0,0,1,138.839,236.243Z" transform="translate(-135.99 -234.823)" fill="#0a344c"/>
        <path id="Path_14637" data-name="Path 14637" d="M142.792,237.092a1.746,1.746,0,0,0-.08.274,3.287,3.287,0,0,0-.078.751,4.743,4.743,0,0,0,.042.51,2.524,2.524,0,0,0,.137.559c.134.37.29.737.443,1.106.175.356.35.712.472,1.042a3.309,3.309,0,0,1,.142.441.339.339,0,0,1-.087.291,1.912,1.912,0,0,1-.508.433c-.148.091-.239.14-.239.14l0,0a.017.017,0,0,0-.007.024.017.017,0,0,0,.02.009,2.16,2.16,0,0,0,.264-.083,1.822,1.822,0,0,0,.626-.374.6.6,0,0,0,.2-.444,1.865,1.865,0,0,0-.111-.536,11.4,11.4,0,0,0-.441-1.093c-.166-.364-.338-.725-.478-1.071a3.909,3.909,0,0,1-.259-.983,4.053,4.053,0,0,1-.02-.992.018.018,0,0,0-.015-.021.019.019,0,0,0-.019.011Z" transform="translate(-136.718 -234.978)" fill="#dbb491"/>
        <path id="Path_14638" data-name="Path 14638" d="M143.474,246.363s-3.359.556-5.172-.415C138.3,245.948,141.068,249.106,143.474,246.363Z" transform="translate(-136.243 -235.949)" fill="#d15924"/>
      </g>
      <path id="Path_14639" data-name="Path 14639" d="M191.518,226.577s2.233-1.988,2.572-2.178c.4-.225.4.209.153.793s-1.684,1.544-1.684,1.544Z" transform="translate(-79.44 -199.665)" fill="#ffe1bd"/>
      <path id="Path_14640" data-name="Path 14640" d="M189.349,227.532s3.107-2.6,3.445-2.793c.4-.225.4.209.153.793a14.9,14.9,0,0,1-2.184,2.3Z" transform="translate(-79.203 -199.702)" fill="#ffe1bd"/>
      <path id="Path_14641" data-name="Path 14641" d="M185.885,235.733a5.618,5.618,0,0,1,2.164-.868,11.349,11.349,0,0,0,2.736-.5,19.913,19.913,0,0,0,2.222-1.115c.489-.313,1.617-.679,1.353-1.09-.329-.512-1.5-.052-2.216.2a2.653,2.653,0,0,1-.8.2.791.791,0,0,1-.713-.344,1.036,1.036,0,0,1-.09-.58A7.225,7.225,0,0,1,191.7,228.3a27.354,27.354,0,0,1,2.159-2.837c.128-.158.342-.226.459-.618.059-.195.117-.622-.087-.639a9.506,9.506,0,0,0-1.483,1.133l-1.174,1.1a.538.538,0,0,1-.339.188,1.546,1.546,0,0,1-.319-.093.791.791,0,0,0-.559.163,9.1,9.1,0,0,0-.857.6c-.384.3-.589-.049-.941.291-.388.375-.921,1.443-1.293,1.833a7.027,7.027,0,0,0-.833.986,8.811,8.811,0,0,0-.668,1.4,17.942,17.942,0,0,1-2.107,3.676" transform="translate(-78.58 -199.651)" fill="#ffe1bd"/>
      <path id="Path_14642" data-name="Path 14642" d="M145.059,217.813a18.576,18.576,0,0,1-9.693,13.3c-3.191,1.754-4.479,2.129-5.075,4.028" transform="translate(-72.734 -198.95)" fill="none" stroke="#626ac3" stroke-miterlimit="10" stroke-width="0.75"/>
    </g>
    <g id="Group_361" data-name="Group 361" transform="translate(259.855 187.598)">
      <path id="Path_14643" data-name="Path 14643" d="M362.48,324.132s2.158-4.492,11.558,1.3,8.291,10.089,14.439,13.129,9.045,7.743,6.853,10.215c-4.651,5.243-26.791-2.45-26.791-2.45s-6.8-13.34-6.491-16.125S362.48,324.132,362.48,324.132Z" transform="translate(-295.72 -221.45)" fill="#8c7206"/>
      <path id="Path_14644" data-name="Path 14644" d="M338.723,368.412a6.373,6.373,0,0,0,1.547,2.329,48.6,48.6,0,0,1,4.492,5.317,8.962,8.962,0,0,0,1.625,2.465c.8.754,4.2-3.265,4.2-3.265s-2.136-5.206-2.969-5.836-2.664-2.289-3.574-2.825-2.1-1.538-2.63-1.328S338.723,368.412,338.723,368.412Z" transform="translate(-293.166 -226.134)" fill="#8c7206"/>
      <path id="Path_14645" data-name="Path 14645" d="M314.808,367.982s-6.669-11.181-14.019-2c-5.861,7.321,5.3,12.042,5.867,14.743,1.336,6.373,2.592,10.448,11.006,9.149l-1.643-9.341Z" transform="translate(-288.826 -225.819)" fill="#68190c"/>
      <path id="Path_14646" data-name="Path 14646" d="M312.291,368.328s15.538-2.069,19.872-2.344c.874-.06,1.114,2.285,1.242,3.545.017.173.133,1.882.133,1.882l1.549-.378a1.53,1.53,0,0,0,.169-.058c.115-.037.23-.074.335-.11a1.706,1.706,0,0,0,.207-.093,1.19,1.19,0,0,0,.554-1.439,10.8,10.8,0,0,1-.322-1.091,8.5,8.5,0,0,1,1.882-.133,5.353,5.353,0,0,1,4.513,2.134c1.908,2.929,1.663,8.534,1.663,8.534-.666-.548-1.374-1.2-2-1.654a2.644,2.644,0,0,0-2.987-.053c-1.67,1.094-4.077,2.7-4.6,3.065-2.849,1.993-6.411,5.06-10.728,7.3-6.19,3.2-16.283-3.028-13.806-12.877a10.647,10.647,0,0,1,2.11-4.175Z" transform="translate(-289.974 -226.215)" fill="#ffe1bd"/>
      <path id="Path_14647" data-name="Path 14647" d="M311.706,367.868a6.43,6.43,0,0,1,.955,2.736c.451,3.035.969,9.7,5.384,9.788l-2.405,7.021s-2.232-1.364-2.446-1.591a15.091,15.091,0,0,1-2.614-2.227c-.513-.82-2.313-4.319-2.468-4.778a10.341,10.341,0,0,1-.479-2.964,7.531,7.531,0,0,1,.4-2.443c.189-.644.985-2.532.985-2.532Z" transform="translate(-289.761 -226.422)" fill="#68190c"/>
      <path id="Path_14648" data-name="Path 14648" d="M318.618,381.9s3.733-.718,5.865.346l3.638,5.4s-5.843,3.881-8.949,4.333c-6.976,1.016-6.29-5.315-6.29-5.315L314.825,384Z" transform="translate(-290.334 -227.933)" fill="#68190c"/>
      <path id="Path_14649" data-name="Path 14649" d="M329.413,382.685s-2.88,1.732-2.562,3.784,2.509,1.724,4.281.58c3.227-2.085,2.857-3.551,2.857-3.551" transform="translate(-291.863 -228.045)" fill="#ffe1bd"/>
      <g id="Group_356" data-name="Group 356" transform="translate(58.71)">
        <path id="Path_14650" data-name="Path 14650" d="M452.613,250.8l2.833-.957,2.209,2.45-.333,2.866-3.14,1.481" transform="translate(-364.349 -213.495)" fill="#ffe1bd"/>
        <path id="Path_14651" data-name="Path 14651" d="M366.581,334.834a20.836,20.836,0,0,1-3.15,5.74l18.908,11.644s6.772-4.046,10.159-7.325C392.5,344.893,374.482,335.068,366.581,334.834Z" transform="translate(-354.582 -222.804)" fill="#ffe1bd"/>
        <path id="Path_14652" data-name="Path 14652" d="M457.218,253.965a6.3,6.3,0,0,0-1-4.33c-.239-.363-1.043-.5-1.4-.858-.239-.24.417-2.488.789-4.029s-.162-6.152.906-7.089c1.091-.957,2.116,1.685,2.8,3.676.85,2.474,3.78,9.762,3.792,10.442.011.615-.776,2.6-4.7,2.444A2.319,2.319,0,0,1,457.218,253.965Z" transform="translate(-364.585 -212.139)" fill="#3a3a3a"/>
        <path id="Path_14653" data-name="Path 14653" d="M388.414,222.711l1.883-2.323,3.176.89,1.25,2.6-1.863,2.93" transform="translate(-357.318 -210.269)" fill="#ffe1bd"/>
        <path id="Path_14654" data-name="Path 14654" d="M394.126,222.954a6.3,6.3,0,0,0-3.191-3.136c-.388-.175-1.247.283-1.723.174-.329-.076-.863-2.467-1.371-3.968s-3.424-5.113-3.022-6.476c.41-1.391,2.688.294,4.33,1.612,2.041,1.636,8.412,6.232,8.785,6.8.338.514.733,2.611-2.663,4.574A2.318,2.318,0,0,1,394.126,222.954Z" transform="translate(-356.92 -209.025)" fill="#3a3a3a"/>
        <path id="Path_14655" data-name="Path 14655" d="M443.9,253.755s-10.73,6.9-19.706,13.805c-5.988,4.606-14.075,6.912-20.162,8.485-.008.005-.015,0-.024.009a5.3,5.3,0,0,0-3.638,3.517,7.984,7.984,0,0,0-.373,2.46c.065,8.649-2.133,23.325-3.134,29.564a13.93,13.93,0,0,0,.185,5.3,16.1,16.1,0,0,1,.051,7.489,14.056,14.056,0,0,1-5.68,8.217l-.014,0s-1.178-.639-3.054-1.6c-.207-.1-.419-.208-.645-.322l-.034-.015c-.013-.011-.026-.014-.038-.025-5.719-2.88-16.509-7.93-22.145-8.1a47,47,0,0,0-.317-5.95,62.354,62.354,0,0,0-2.86-7.291s-8.816-24.377-8.8-40.252a.1.1,0,0,1,0-.045,13.309,13.309,0,0,1,.052-1.92c.017-.22.021-.45.037-.67l.05.012c.058-.36.125-.694.2-1.011a9.386,9.386,0,0,1,1.53-3.437c3.89-7.216,28.928-39.383,28.928-39.383a13.965,13.965,0,0,1,2.846,1.69,12.51,12.51,0,0,1,1,.834.3.3,0,0,0,.04.047l.007,0c.061.06.115.11.168.168a1.3,1.3,0,0,1,.114.11c.013.011.018.02.03.03a7.051,7.051,0,0,1,1.064,1.35s-5.375,11.568-9.281,22.2c-2.6,7.1-8.2,13.366-12.508,17.952a7.989,7.989,0,0,0-.577.69,4.083,4.083,0,0,0-.771,3.05,7.908,7.908,0,0,0,1.022,2.85,124.684,124.684,0,0,1,6.175,12.454l.016.027c1.4,3.164,2.723,6.331,3.839,9.082.858,2.128,1.606,4.006,2.158,5.439,2.076-8.49,5.6-20.714,10.3-28.978,0-.014.012-.02.015-.034a15.05,15.05,0,0,1,1.281-2.088c.147-.2.291-.4.44-.579a13.123,13.123,0,0,1,4.361-3.6l.007,0c6.67-3.886,45.663-17.929,45.663-17.929a14.034,14.034,0,0,1,1.5,2.95c.068.181.135.361.191.532.037.121.075.242.107.354s.068.24.1.353c0,.023.012.041.014.063l.005.009c.022.1.044.19.067.278.011.047.02.1.03.149A6.924,6.924,0,0,1,443.9,253.755Z" transform="translate(-353.493 -210.511)" fill="#2a4147"/>
      </g>
      <g id="Group_357" data-name="Group 357" transform="translate(0 97.711)">
        <path id="Path_14656" data-name="Path 14656" d="M342.472,359.188s-2.443-10.691-4.523-17.043c-.077-.232-.15-.488-.231-.758-.918-3.172-2.19-8.981-5.264-10.963-1.509-.969-8.667-1.736-15.544-2.061a.256.256,0,0,1-.036-.005c-5.622-.265-11.044-.236-13.042.216a5.661,5.661,0,0,0-.954,2.219c-.148,1.078,21.509,6.066,25.615,6.727.614,5.888,3.752,16.4,5.061,19.656C335.333,361.6,340.353,364.375,342.472,359.188Z" transform="translate(-289.24 -319.787)" fill="#ffe1bd"/>
        <path id="Path_14657" data-name="Path 14657" d="M339.445,341.408c-.918-3.172-2.19-8.981-5.264-10.963-1.509-.969-8.667-1.736-15.544-2.061.687.079,11.8,1.4,14.56,3.421,2.861,2.089,4.294,9.907,4.294,9.907Z" transform="translate(-290.966 -319.808)" fill="#efcba5"/>
        <path id="Path_14658" data-name="Path 14658" d="M302.491,330.263l-.806-3.6a4.171,4.171,0,0,1-.728-.215l-.364-1.609c.41.132.836.263,1.242.388l-.173-.772c-1.092-1.279-2.465-3-3.165-3.633a6.267,6.267,0,0,0-1.926-1.22c-.062-.024-.092-.033-.092-.033-.252-.069-.515-.141-.769-.2-2.8-.682-5.518-.8-5.631-.327-.079.34.382.551,1.116.746-1.57-.186-2.742-.126-2.816.178-.2.886,3.343.913,5.768,2.035.079.039.2.1.354.2-.43-.138-.869-.262-1.3-.363-2.792-.675-5.515-.794-5.628-.321-.2.886,3.339.906,5.768,2.034a5.238,5.238,0,0,1,.513.291c-2.608-.578-5.017-.653-5.125-.2-.206.88,3.336.9,5.772,2.024.432.2,2.583,1.457,2.724,2.989.036.459-1.38.5-2.367.215-.449-.127-1.95-.143-1.682.577.1.253,3.528,1.479,6.348,1.537.01,0,.016,0,.026,0l.006,0a6.628,6.628,0,0,0,2-.232A2.728,2.728,0,0,0,302.491,330.263Z" transform="translate(-287.563 -318.753)" fill="#ffe1bd"/>
        <path id="Path_14659" data-name="Path 14659" d="M307.969,328.029s-3.1-1.514-3.849-2.039a11.072,11.072,0,0,1-1.361-1.437c-1.092-1.279-2.465-3-3.165-3.633a6.269,6.269,0,0,0-1.926-1.22c-.062-.024-.092-.033-.092-.033l.217,4.858,2.826,6.556,0,.006a.074.074,0,0,1,.022,0l.006,0a15.4,15.4,0,0,1,2-.232,8.013,8.013,0,0,1,2.841.294C307.485,331.808,307.969,328.029,307.969,328.029Z" transform="translate(-288.66 -318.853)" fill="#ffe1bd"/>
        <path id="Path_14660" data-name="Path 14660" d="M305.084,326.942a21.774,21.774,0,0,0,6.208,1.115c3.326.07-.669,2.622-.669,2.622l-5.091-1.562-1.369-1.163Z" transform="translate(-289.381 -319.65)" fill="#ffe1bd"/>
      </g>
      <g id="Group_358" data-name="Group 358" transform="translate(56.87 140.932)">
        <path id="Path_14661" data-name="Path 14661" d="M356.878,367.507s7.118,8.343,10.972,13.8c.14.2.3.411.47.637,2,2.63,5.9,7.118,5.652,10.769-.124,1.79-3.782,7.989-7.626,13.7a.194.194,0,0,0-.018.032c-3.143,4.669-6.4,9-7.959,10.334a5.673,5.673,0,0,1-2.35-.559c-.953-.526,7.975-20.878,9.9-24.567-4.357-4.006-10.916-12.8-12.746-15.793C350.685,371.8,351.452,366.109,356.878,367.507Z" transform="translate(-351.47 -367.291)" fill="#ffe1bd"/>
        <path id="Path_14662" data-name="Path 14662" d="M370.108,383.749c2,2.63,5.9,7.118,5.652,10.769-.124,1.79-3.782,7.989-7.626,13.7.345-.6,5.923-10.3,5.947-13.722.032-3.543-5.385-9.36-5.385-9.36Z" transform="translate(-353.257 -369.093)" fill="#efcba5"/>
        <path id="Path_14663" data-name="Path 14663" d="M356.343,420.74l2.411,2.8a4.109,4.109,0,0,0-.263.712l1.074,1.252c.139-.407.288-.827.43-1.228l.517.6c.374,1.639.934,3.768,1.025,4.708a6.275,6.275,0,0,1-.171,2.273c-.019.065-.029.094-.029.094-.1.243-.193.5-.3.736-1.123,2.65-2.652,4.9-3.1,4.712-.321-.139-.214-.635.068-1.34-.789,1.37-1.536,2.274-1.825,2.151-.832-.366,1.264-3.225,1.812-5.842.016-.087.039-.226.054-.4-.146.427-.308.853-.486,1.263-1.126,2.644-2.655,4.9-3.1,4.706-.832-.366,1.267-3.22,1.812-5.842a5.156,5.156,0,0,0,.073-.584c-1.094,2.436-2.471,4.414-2.9,4.229-.828-.36,1.271-3.213,1.822-5.839.1-.467.373-2.942-.772-3.97-.347-.3-1.222.812-1.585,1.77-.166.435-1.05,1.65-1.467,1-.145-.228.919-3.713,2.557-6.01,0-.01.01-.012.013-.022l.007,0A6.587,6.587,0,0,1,355.4,421.2,2.717,2.717,0,0,1,356.343,420.74Z" transform="translate(-351.427 -373.145)" fill="#ffe1bd"/>
        <path id="Path_14664" data-name="Path 14664" d="M361.148,418.26s-.638,3.392-.663,4.305a11.086,11.086,0,0,0,.342,1.949c.374,1.639.934,3.768,1.025,4.708a6.278,6.278,0,0,1-.171,2.273c-.019.065-.029.094-.029.094l-3.767-3.074-3.573-6.181,0-.006a.06.06,0,0,0,.017-.016l.007,0a15.482,15.482,0,0,0,1.381-1.468,8.022,8.022,0,0,0,1.46-2.455C357.826,416.394,361.148,418.26,361.148,418.26Z" transform="translate(-351.743 -372.786)" fill="#ffe1bd"/>
        <path id="Path_14665" data-name="Path 14665" d="M361.085,421.986a21.8,21.8,0,0,1,2.812-5.647c1.93-2.71-2.5-1.029-2.5-1.029l-1.787,5.016.117,1.793Z" transform="translate(-352.323 -372.493)" fill="#ffe1bd"/>
      </g>
      <path id="Path_14666" data-name="Path 14666" d="M361.966,369.691a70.3,70.3,0,0,0,8.676,10.135c-.476.361-1.119.912-1.856,1.574-3.118,2.824-7.827,7.571-7.827,7.571l-12.511-12.725-2.772-2.2a9.371,9.371,0,0,0-1.416-8.466c-2.082-2.675-6.252-1.646-6.252-1.646s-.1-.247-.265-.714c-.047-.11-.092-.232-.134-.362l-.014-.034a94.984,94.984,0,0,1-3.131-10.782c-1.2-5.227-2.249-9.812-2.249-9.812a27.011,27.011,0,0,1,6-2.691.708.708,0,0,0,.072-.02,2.764,2.764,0,0,1,.275-.089,32.364,32.364,0,0,1,5.143-1.134,43.732,43.732,0,0,1,1.085,11.974c.158-.156.313-.3.479-.465,4.728-4.459,10.8-17.968,13.942-25.472.058,3.932,1.587,5.851,6.629,9.208a12.727,12.727,0,0,1,3.324,3.39c2.385,3.42,7.025,7.044,11.7,9.467,0,0,.053.028.144.08,4.249,2.176,8.5,3.362,11.058,2.5C381.685,360.486,361.966,369.691,361.966,369.691Z" transform="translate(-292.453 -221.654)" fill="#f9da23"/>
      <path id="Path_14667" data-name="Path 14667" d="M343.254,354.186a12.738,12.738,0,0,1,2.317-2.2,43.6,43.6,0,0,0-1.085-11.967,31.67,31.67,0,0,0-5.142,1.132q.073-.02.15-.037a2.6,2.6,0,0,1,3.136,2.258c.331,2.513,1.562,4.378,1.6,6.505A8.585,8.585,0,0,1,343.254,354.186Z" transform="translate(-293.234 -223.372)" fill="#e8c51a"/>
      <path id="Path_14668" data-name="Path 14668" d="M328.886,386.041a1.2,1.2,0,0,0,1.329.359c.881-.326,2.312-1.078,2.144-1.889-.087-.42-1.142-.77-1.785-.009s.2,1.1.1,1.284a1.337,1.337,0,0,1-.972.443C329.168,386.181,328.692,385.708,328.886,386.041Z" transform="translate(-292.084 -228.195)" fill="#efcba5"/>
      <g id="Group_359" data-name="Group 359" transform="translate(27.996 142.03)">
        <path id="Path_14669" data-name="Path 14669" d="M319.4,369.017a1.264,1.264,0,0,0-.281.45,1.692,1.692,0,0,0-.115.547,1.662,1.662,0,0,0,.113.644,1.873,1.873,0,0,0,.356.542,2.1,2.1,0,0,0,.436.336,1.66,1.66,0,0,0,.347.161c.085.033.136.046.136.046s-.035-.042-.1-.106-.159-.149-.257-.261a3.107,3.107,0,0,1-.319-.381,2.457,2.457,0,0,1-.265-.473A2.54,2.54,0,0,1,319.4,369.017Z" transform="translate(-319.002 -368.578)" fill="#68190c"/>
        <path id="Path_14670" data-name="Path 14670" d="M321.462,375.873a1.252,1.252,0,0,0-.28.45,1.691,1.691,0,0,0-.115.547,1.664,1.664,0,0,0,.113.644,1.859,1.859,0,0,0,.357.542,2.057,2.057,0,0,0,.436.336,1.634,1.634,0,0,0,.346.161c.086.033.136.046.136.046s-.035-.042-.1-.106-.159-.149-.257-.261a3.113,3.113,0,0,1-.319-.381,2.508,2.508,0,0,1-.265-.473A2.54,2.54,0,0,1,321.462,375.873Z" transform="translate(-319.228 -369.329)" fill="#68190c"/>
        <path id="Path_14671" data-name="Path 14671" d="M321.7,371.917a1.719,1.719,0,0,0,.283.035,3.293,3.293,0,0,0,.753-.042,4.79,4.79,0,0,0,.5-.123,2.5,2.5,0,0,0,.53-.224c.344-.19.682-.4,1.022-.613.324-.23.647-.459.954-.631a3.235,3.235,0,0,1,.412-.21.337.337,0,0,1,.3.039,1.929,1.929,0,0,1,.508.433c.114.132.175.214.175.214l0,0a.018.018,0,0,0,.026,0,.018.018,0,0,0,.005-.021,2.2,2.2,0,0,0-.125-.247,1.8,1.8,0,0,0-.468-.559.6.6,0,0,0-.471-.129,1.911,1.911,0,0,0-.511.2,11.527,11.527,0,0,0-1.009.609c-.333.222-.662.451-.981.643a3.9,3.9,0,0,1-.929.412,4.062,4.062,0,0,1-.977.177.018.018,0,0,0-.018.018.018.018,0,0,0,.013.017Z" transform="translate(-319.296 -368.667)" fill="#dbb491"/>
        <path id="Path_14672" data-name="Path 14672" d="M331.23,373.3c-.276.018-.543-.285-.766-.712a9.286,9.286,0,0,1-.632-1.754,4.88,4.88,0,0,1-.107-1.692.673.673,0,0,1,1.113-.463,1.283,1.283,0,0,1,.134.1C333.011,370.391,331.23,373.3,331.23,373.3Z" transform="translate(-320.172 -368.524)" fill="#d15924"/>
      </g>
      <g id="Group_360" data-name="Group 360" transform="translate(29.67 141.613)">
        <path id="Path_14673" data-name="Path 14673" d="M331.31,373.322c-.276.018-.543-.285-.766-.712a6.406,6.406,0,0,1,.374-3.909,1.272,1.272,0,0,1,.134.1C333.091,370.41,331.31,373.322,331.31,373.322Z" transform="translate(-321.927 -368.126)" fill="#ef703f"/>
        <path id="Path_14674" data-name="Path 14674" d="M321.741,371.068a2.617,2.617,0,0,1-.7-2.858s.14-.288.266-.078-.293,2.075.346,2.671a.764.764,0,0,1,.251.264C321.961,371.2,321.741,371.068,321.741,371.068Z" transform="translate(-320.882 -368.055)" fill="#0a344c"/>
        <path id="Path_14675" data-name="Path 14675" d="M323.277,375.417a2.617,2.617,0,0,0,.776,2.836s.262.184.271-.061-1.261-1.672-.991-2.5a.758.758,0,0,0,.092-.353C323.4,375.193,323.277,375.417,323.277,375.417Z" transform="translate(-321.129 -368.848)" fill="#0a344c"/>
        <path id="Path_14676" data-name="Path 14676" d="M323.389,375.489a1.656,1.656,0,0,0-.07.951,3.141,3.141,0,0,0,1.053,1.663s.1.129.174.108-.042-.147-.307-.4A2.8,2.8,0,0,1,323.389,375.489Z" transform="translate(-321.145 -368.87)" fill="#0a344c"/>
        <path id="Path_14677" data-name="Path 14677" d="M321.918,371.064a1.671,1.671,0,0,1-.556-.776,3.15,3.15,0,0,1,.035-1.968s.022-.165.093-.183.041.147-.055.5A2.8,2.8,0,0,0,321.918,371.064Z" transform="translate(-320.92 -368.064)" fill="#0a344c"/>
      </g>
      <path id="Path_14678" data-name="Path 14678" d="M336.447,372.024l1.549-.378a1.519,1.519,0,0,0,.169-.058c-.092,2.486-2.016,5.547-2.016,5.547C336.279,375.836,336.447,372.024,336.447,372.024Z" transform="translate(-292.884 -226.829)" fill="#efcba5"/>
      <path id="Path_14679" data-name="Path 14679" d="M447.707,254.67c-.272.165-.563.346-.871.54-1.3.815-2.854,1.837-4.625,3.036s-3.77,2.56-6.01,3.965a81.133,81.133,0,0,1-7.457,4.177c-2.722,1.332-5.657,2.62-8.728,3.821s-6.263,2.381-9.448,3.682a46.518,46.518,0,0,0-4.683,2.179,16.367,16.367,0,0,0-2.163,1.365l-.5.378c-.169.145-.32.3-.484.456l-.235.226a.9.9,0,0,0-.1.1l-.089.12a2.852,2.852,0,0,0-.347.5,12.646,12.646,0,0,0-1.018,2.354c-.285.826-.513,1.665-.741,2.5-.41,1.7-.752,3.4-1.057,5.1-.56,3.407-.985,6.78-1.281,10.058-.325,3.271-.536,6.442-.817,9.447-.244,3-.514,5.836-.756,8.463a46.885,46.885,0,0,1-1.081,7.144c-.493,2.1-1.016,3.9-1.516,5.359a44.17,44.17,0,0,1-1.77,4.506l-.028-.007-.034-.015-.04-.018,0-.007c.024-.069.175-.472.41-1.183.251-.782.622-1.93,1.021-3.406s.872-3.278,1.258-5.37a59.4,59.4,0,0,0,.886-7.08c.189-2.625.4-5.476.722-8.479.282-3,.713-6.16,1.156-9.424.479-3.263.948-6.632,1.539-10.047.285-1.706.6-3.419.992-5.136.2-.854.4-1.707.656-2.556a13.584,13.584,0,0,1,.98-2.5,4.214,4.214,0,0,1,.833-1.117c.151-.157.294-.315.459-.469l.527-.445a16.279,16.279,0,0,1,2.21-1.524,47.567,47.567,0,0,1,4.712-2.359c3.189-1.381,6.365-2.587,9.4-3.842s5.962-2.462,8.657-3.778,5.191-2.667,7.449-3.993,4.293-2.626,6.126-3.743,3.424-2.093,4.781-2.819c.344-.184.677-.356.986-.519C447.637,254.437,447.675,254.558,447.707,254.67Z" transform="translate(-298.983 -213.985)" fill="#2f4d54"/>
      <path id="Path_14680" data-name="Path 14680" d="M379.6,307.763c-.24-.514-.529-1.13-.857-1.83-.243-.53-.509-1.118-.8-1.747-.354-.78-.747-1.638-1.17-2.563-.763-1.664-1.583-3.552-2.5-5.612-.458-1.022-.911-2.126-1.427-3.185s-1.116-2.176-1.736-3.3c-1.248-2.246-2.592-4.613-3.875-7.136a46.334,46.334,0,0,1-3.391-8.078,11.165,11.165,0,0,1-.43-4.6,8.065,8.065,0,0,1,.829-2.192l.551-1,.59-.974c.82-1.276,1.728-2.479,2.652-3.663s1.839-2.354,2.744-3.52a62.851,62.851,0,0,0,4.9-7.126c1.413-2.414,2.61-4.859,3.8-7.134,1.189-2.29,2.314-4.446,3.357-6.444,2.088-3.98,3.836-7.3,5.054-9.624.586-1.08,1.043-1.939,1.372-2.551l.007,0c.061.06.115.11.168.168-.273.627-.653,1.5-1.141,2.578-.527,1.207-1.209,2.651-1.974,4.306s-1.67,3.523-2.664,5.54c-1.011,2.02-2.105,4.2-3.334,6.472s-2.613,4.628-4.15,7c-1.557,2.364-3.333,4.674-5.126,7.025a71.71,71.71,0,0,0-5.153,7.288l-.537.972-.476.995a6.949,6.949,0,0,0-.668,2.023,10.306,10.306,0,0,0,.551,4.2,46.5,46.5,0,0,0,3.46,7.826c1.35,2.465,2.645,4.85,3.88,7.115.6,1.14,1.191,2.263,1.7,3.387s.91,2.223,1.341,3.261c.838,2.094,1.615,4,2.27,5.713.107.265.207.528.308.785.535,1.378,1,2.6,1.408,3.629.2.533.382,1.027.546,1.454Z" transform="translate(-295.861 -210.827)" fill="#2f4d54"/>
      <path id="Path_14681" data-name="Path 14681" d="M448.19,257.36s-10.73,6.9-19.706,13.805c-5.988,4.606-14.075,6.912-20.162,8.485l-.025.007a5.289,5.289,0,0,0-3.636,3.519,7.963,7.963,0,0,0-.375,2.46c.065,8.649-2.133,23.325-3.134,29.564a13.929,13.929,0,0,0,.185,5.3,16.1,16.1,0,0,1,.051,7.489,14.056,14.056,0,0,1-5.68,8.217l-.014,0s-1.178-.639-3.054-1.6a13.78,13.78,0,0,0,3.942-5.271c1.172-3.256.647-6.684,1.353-9.8a149.71,149.71,0,0,0,2.672-21.3c.256-7.645,1.093-14.1,3.54-18.473s6.923-3.644,12.085-5.429,15.815-7.433,19.835-10.618c2.724-2.159,8.5-5.982,11.916-8.209.011.047.02.1.03.149A6.925,6.925,0,0,1,448.19,257.36Z" transform="translate(-299.071 -214.115)" fill="#34133f" opacity="0.3"/>
      <path id="Path_14682" data-name="Path 14682" d="M378.762,295.478c-.7-1.729-1.49-3.63-2.322-5.583-.062-.144-.123-.289-.185-.433-.162-.38-.325-.759-.491-1.142q-.415-.959-.842-1.925l-.016-.026a124.674,124.674,0,0,0-6.174-12.454,7.909,7.909,0,0,1-1.022-2.85,4.083,4.083,0,0,1,.771-3.05,7.967,7.967,0,0,1,.577-.69c4.3-4.586,9.907-10.852,12.508-17.952,3.907-10.631,9.281-22.2,9.281-22.2a7.148,7.148,0,0,0-1.093-1.38h0c-1.219,2.873-4.1,9.695-4.923,11.7a175.845,175.845,0,0,1-8.207,15.963c-3.378,5.8-10.372,11.864-11.1,14.483s-.56,5.325,1.191,8.829,7.3,13.9,8.8,16.381c1.38,2.286,2.119,6.753,2.226,7.436.067.533.131,1.064.189,1.581.073.7.144,1.386.213,2.052.533,5.675.546,9.85.549,10.321l1.1-6.744.089-.546,1.039-6.334c-.555-1.429-1.295-3.306-2.159-5.435Z" transform="translate(-296.056 -210.862)" fill="#34133f" opacity="0.3"/>
      <path id="Path_14683" data-name="Path 14683" d="M365.212,372.415a70.3,70.3,0,0,0,8.676,10.135c-.476.361-1.119.912-1.856,1.574a7.225,7.225,0,0,0-1.925-3.315c-1.727-1.6-2.321-1.189-4.253-3.468s-1.689-4.765-2.9-5.68a2.545,2.545,0,0,1-1.1-2.077s5.276-.884,7.486-1.954,5.282-4.741,8.623-7.712,7.614-4.907,8.878-6.777c1.121-1.65-1.88-3.528-2.585-3.939,4.249,2.176,8.5,3.362,11.058,2.5C384.931,363.209,365.212,372.415,365.212,372.415Z" transform="translate(-295.699 -224.378)" fill="#e8c51a"/>
    </g>
    <g id="Group_370" data-name="Group 370" transform="translate(34.576 13.387)">
      <path id="Path_14684" data-name="Path 14684" d="M271.044,70.975a2.06,2.06,0,0,1-1.057.834,35.538,35.538,0,0,1-3.785.808l1.252-1.224Z" transform="translate(-59.944 -19.694)" fill="#f2d3b1"/>
      <path id="Path_14685" data-name="Path 14685" d="M272.273,70.053a2.065,2.065,0,0,1-1.058.834,35.543,35.543,0,0,1-3.785.808l1.252-1.224Z" transform="translate(-60.079 -19.593)" fill="#f2d3b1"/>
      <path id="Path_14686" data-name="Path 14686" d="M269.716,71.566a2.064,2.064,0,0,1-1.057.835,35.487,35.487,0,0,1-3.785.807l1.252-1.224Z" transform="translate(-59.799 -19.759)" fill="#f2d3b1"/>
      <path id="Path_14687" data-name="Path 14687" d="M139.433,100.071a31,31,0,0,0,8.758-11.8c3.968,5.418-.077,20.727-.077,20.727Z" transform="translate(-46.06 -21.589)" fill="#3a3a3a"/>
      <path id="Path_14688" data-name="Path 14688" d="M131.771,115.772s-1.923,14.457,3.936,16.857c6.5-1.356,2.743-15.966,2.743-15.966Z" transform="translate(-45.188 -24.6)" fill="#3a3a3a"/>
      <g id="Group_362" data-name="Group 362" transform="translate(55.817 17.462)">
        <path id="Path_14689" data-name="Path 14689" d="M103.8,40.17c-.151,2.458.481,9.1.481,9.1l-7.026-3.642a60.817,60.817,0,0,0,.543-8.62c-.045-1.336-.178-2.671-.329-4a9.476,9.476,0,0,1,8.112,3.339,5.371,5.371,0,0,0-.757.864A5.629,5.629,0,0,0,103.8,40.17Z" transform="translate(-97.258 -32.997)" fill="#ffe1bd"/>
      </g>
      <path id="Path_14690" data-name="Path 14690" d="M157.023,103.944l-11.015,12.11a143.423,143.423,0,0,1-33.58-13.045A154.819,154.819,0,0,1,95.313,92.146,18.7,18.7,0,0,1,92.8,89.572a9.318,9.318,0,0,1-.534-3.393c-.053-12.974,2.021-30.481,3.749-43.348,0,0,.579-.142,1.443-.285,1.941-.321,5.316-.65,6.687.606.971,10.436,2.609,25.094,1.362,39.893l.3.3c8.549,2.983,17.017,6.385,24.88,8.237,4.782,1.131,11.078.614,15.735,2.2S154.29,99.848,157.023,103.944Z" transform="translate(-40.894 -16.548)" fill="#f7b626"/>
      <path id="Path_14691" data-name="Path 14691" d="M98.833,42.418c-.053.392-.116.846-.187,1.345-.151,1.006-.285,2.235-.463,3.633s-.338,2.992-.516,4.72-.374,3.6-.516,5.592c-.169,1.977-.258,4.078-.374,6.251-.1,2.173-.249,4.417-.383,6.687-.16,2.28-.329,4.595-.49,6.91s-.312,4.63-.276,6.928A16.273,16.273,0,0,0,95.7,86.22l.071.864a2.774,2.774,0,0,0,.312.926,4.539,4.539,0,0,0,1.184,1.407c.463.347.944.641,1.407.935,1.843,1.167,3.678,2.2,5.414,3.188s3.393,1.87,4.942,2.671c3.1,1.6,5.744,2.8,7.64,3.544.953.356,1.71.632,2.235.775l.8.232.027-.08s-.267-.107-.775-.3c-.508-.178-1.238-.516-2.146-.953-1.825-.855-4.381-2.217-7.409-3.9-1.514-.864-3.143-1.79-4.871-2.778s-3.526-2.066-5.378-3.179c-.454-.276-.908-.552-1.336-.855a3.622,3.622,0,0,1-.98-1.1,1.791,1.791,0,0,1-.232-.65l-.08-.819c-.071-.543-.1-1.1-.116-1.674-.053-1.131-.053-2.271-.053-3.428-.018-1.149.018-2.306.027-3.464.045-2.315.142-4.63.285-6.9s.347-4.515.588-6.679c.214-2.155.481-4.239.65-6.224.2-1.977.347-3.856.49-5.592s.276-3.313.365-4.728.187-2.636.249-3.642c.036-.543.062-1.015.08-1.425Z" transform="translate(-41.262 -16.562)" fill="#ffcf9f"/>
      <path id="Path_14692" data-name="Path 14692" d="M133.159,98.166s-12.68,3-20.73,4.88A154.818,154.818,0,0,1,95.313,92.182,18.7,18.7,0,0,1,92.8,89.608a9.318,9.318,0,0,1-.534-3.393c-.053-12.974,2.021-30.481,3.749-43.348,0,0,.579-.142,1.443-.285-.392,3.927-2.4,23.963-2.654,28.273-.276,4.791-.668,15.476-.329,17.142s11.49,8.782,13.485,9.334a68.046,68.046,0,0,0,13.061,1.245C123.8,98.353,127.816,97.1,133.159,98.166Z" transform="translate(-40.894 -16.584)" fill="#f49727" opacity="0.3"/>
      <g id="Group_364" data-name="Group 364" transform="translate(10.358 46.238)">
        <g id="Group_363" data-name="Group 363" transform="translate(0 0)">
          <path id="Path_14693" data-name="Path 14693" d="M62.112,76.594l-7.685,1.879a60.515,60.515,0,0,0-5.254-6.857c-.935-1.006-1.941-1.95-2.965-2.876.917-1.3,3.152-3.206,8.46-3.428a9.848,9.848,0,0,0-.062,1.843,5.592,5.592,0,0,0,1.167,2.9C57.277,72.008,62.112,76.594,62.112,76.594Z" transform="translate(-46.208 -65.312)" fill="#ffe1bd"/>
        </g>
        <path id="Path_14694" data-name="Path 14694" d="M144,108.863l-7.8,14.4c-19.564-.16-38.558-4.639-56.679-12.03-9.065-9.288-18.023-22.36-25.726-32.8,0,0,.454-.721,1.158-1.63.045-.062.1-.134.151-.2,1.229-1.558,3.117-3.553,4.755-3.6,8.032,6.892,19.573,16.394,29.03,28.068,9.163.846,18.371,2.173,26.581,2.093,4.915-.053,10.908-2.066,15.806-1.63S140.37,105.55,144,108.863Z" transform="translate(-47.039 -66.155)" fill="#f7b626"/>
        <path id="Path_14695" data-name="Path 14695" d="M128.42,117.5l-.009.089s-1.416,0-3.909-.151c-2.476-.16-6.02-.508-10.24-1.113-2.119-.294-4.4-.65-6.8-1.086s-4.942-.882-7.542-1.46c-2.609-.561-5.3-1.167-8.005-1.87s-5.459-1.469-8.139-2.44a10.061,10.061,0,0,1-3.758-2.075c-1.042-.971-1.986-2.012-2.93-3.054-1.888-2.057-3.687-4.141-5.45-6.144-3.517-4-6.643-7.872-9.243-11.247-1.309-1.674-2.5-3.224-3.535-4.613s-1.95-2.582-2.68-3.6c-.41-.57-.775-1.069-1.077-1.487.045-.062.1-.134.151-.2.338.41.748.9,1.22,1.46.784.962,1.736,2.128,2.832,3.473s2.324,2.858,3.66,4.515,2.805,3.437,4.31,5.352,3.108,3.927,4.755,6.011,3.4,4.212,5.263,6.3c.935,1.033,1.906,2.057,2.939,3a9.016,9.016,0,0,0,3.687,1.879c2.7.855,5.459,1.5,8.175,2.128s5.405,1.2,8.014,1.719c2.609.5,5.12,1.024,7.516,1.46s4.666.828,6.759,1.2c2.1.356,4.025.65,5.735.917s3.2.454,4.426.614C127,117.4,128.42,117.5,128.42,117.5Z" transform="translate(-47.182 -66.598)" fill="#ffcf9f"/>
        <path id="Path_14696" data-name="Path 14696" d="M125,112.965c-.37,1.491-3.116,3.064-4.565,3.572-3.921,1.373-8.931.873-10.774.627-11.344-1.513-14.855-3.193-25.93-6.078a11.139,11.139,0,0,1-3.409-1.3,11.133,11.133,0,0,1-2.456-2.524l-23.2-29.565c-.539.726-.871,1.254-.871,1.254,7.708,10.438,16.669,23.512,25.734,32.8,16.51,6.734,33.746,11.04,51.481,11.873a32.619,32.619,0,0,0,2.257-8.254c.6-3.922,2.2-12.221,2.071-16.184C128.546,101.536,126.329,107.6,125,112.965Z" transform="translate(-47.039 -66.668)" fill="#f49727" opacity="0.3"/>
      </g>
      <path id="Path_14697" data-name="Path 14697" d="M190.656,187.937l-3.037-.285c-2.671-4.3-5.619-8.566-8.3-12.948l-.009-.009a.138.138,0,0,0-.027-.053c-3.455-5.663-6.447-11.532-7.8-17.934-.436-2.075.419-6.777,1.576-11.6,1.665-6.937,3.963-14.123,3.963-14.123s8.166,4.942,7.952,6.1c-.142.775-2.484,8.771-3.98,13.856-.036.134-.071.267-.107.392-.659,2.226-1.122,3.793-1.122,3.793C184.592,166.85,187.967,175.542,190.656,187.937Z" transform="translate(-49.558 -26.266)" fill="#ffe1bd"/>
      <path id="Path_14698" data-name="Path 14698" d="M181.332,152.786s-.169.027-.445.053a10.861,10.861,0,0,1-4.159-.312,14.486,14.486,0,0,1-2.965-.966,16.011,16.011,0,0,0-.6,8.054c1.211,6.162,5.717,15.681,6.118,16.536-3.455-5.663-6.447-11.532-7.8-17.934-.436-2.075.419-6.776,1.576-11.6,1.665-1.042,3-1.843,3-1.843l-1.612,3.357,2.431.134,4.114,4.185Z" transform="translate(-49.558 -27.777)" fill="#efcba5"/>
      <path id="Path_14699" data-name="Path 14699" d="M190.8,189.2a7.987,7.987,0,0,0,1.818,2.769,16.123,16.123,0,0,1,2.787,2.8,28.114,28.114,0,0,1,1.685,3.1c.317.76,1.335,2.1.694,2.367-.8.33-1.8-1.159-2.425-2.028a3.781,3.781,0,0,0-.775-.884,1.123,1.123,0,0,0-1.11-.178,1.481,1.481,0,0,0-.575.6,10.263,10.263,0,0,0-1.342,4.834,38.931,38.931,0,0,0,.215,5.06,1.866,1.866,0,0,1,.034,1.094c-.09.275-.369.818-.62.674a13.358,13.358,0,0,1-.809-2.524c-.251-1.186-.223-1.053-.474-2.24a.76.76,0,0,0-.243-.494,2.177,2.177,0,0,0-.446-.152,1.118,1.118,0,0,1-.52-.643,12.8,12.8,0,0,1-.513-1.393c-.2-.662-.727-.42-.861-1.1-.149-.752.1-2.429-.021-3.185a10.011,10.011,0,0,1-.171-1.826,12.412,12.412,0,0,1,.354-2.168,25.48,25.48,0,0,0,.526-6" transform="translate(-51.283 -32.477)" fill="#ffe1bd"/>
      <path id="Path_14700" data-name="Path 14700" d="M185.883,130.289s15.686-11.5,14.907-23.722c-.658-10.312-30.574-36.83-46.9-41.134l.427-1.411A78.465,78.465,0,0,1,174.242,74.7c9.963,7.408,19.257,16.981,22.93,21.822s5.986,8.225,4.786,15.306c-1.169,6.9-9.294,16.306-15.527,19.813" transform="translate(-47.643 -18.933)" fill="#626ac3"/>
      <g id="Group_365" data-name="Group 365" transform="translate(156.984 49.98)">
        <path id="Path_14701" data-name="Path 14701" d="M254.8,76.924s-6.189,2.921-12.672,5.993c-6.759,3.206-13.838,6.59-14.639,7.053-.819.481-4.39,3.713-7.64,6.714-2.992,2.752-5.7,5.307-5.7,5.307l-3.286-9.484s10.98-8.005,12.333-8.593c8.842-3.838,27.89-9.412,27.89-9.412Z" transform="translate(-210.868 -70.06)" fill="#ffe1bd"/>
        <path id="Path_14702" data-name="Path 14702" d="M256.844,76.558c.823,1,3.135,1,5.053.561a51.643,51.643,0,0,0,6.866-1.947c.369-.262-.238-.76-1.188-.665-3.083.305-3.454-.478-1.957-1.766a10.278,10.278,0,0,1,3.076-2.044c.9-.241,3.149-.267,3.075-.939-.053-.223-1.647-.254-2.812-.242a9.785,9.785,0,0,0-1.911.255,6.107,6.107,0,0,1-2,.124,14.84,14.84,0,0,0-4.906.3c-2.668,1.479-4.11,3.464-6.779,4.943" transform="translate(-215.522 -69.514)" fill="#ffe1bd"/>
        <path id="Path_14703" data-name="Path 14703" d="M243.2,83.952c-6.759,3.206-13.838,6.59-14.639,7.053-.819.481-4.39,3.713-7.64,6.714l-.285-1.126s3.787-4.418,7.349-6.492S243.2,83.952,243.2,83.952Z" transform="translate(-211.938 -71.095)" fill="#efcba5"/>
      </g>
      <g id="Group_367" data-name="Group 367" transform="translate(89.72 66.684)">
        <g id="Group_366" data-name="Group 366">
          <path id="Path_14704" data-name="Path 14704" d="M209.113,92.342a5.835,5.835,0,0,0-5.4-1.193,47.458,47.458,0,0,1-8.326,5.619l.8-2.2c-4.951,1.158-10.65,3.945-15.717,4.417-6.34.6-25.485-9.608-32.734-10.712a23.978,23.978,0,0,1-1.158,4.435q-.347.988-.775,1.923c-2.618,5.9-6.794,10.214-8.228,13.33a32.989,32.989,0,0,0-2.244,12.814,25.672,25.672,0,0,0,.374,4,2.112,2.112,0,0,1,.045.232s.027.1.062.285a1.968,1.968,0,0,0,.045.223,15.317,15.317,0,0,1,.267,4.105c5.12.365,16.091-3.776,20.49-2.725.392.089.775.187,1.14.294q.868.227,1.656.481c1.086.338,2.1.686,3.143,1.006a.232.232,0,0,1,.1.027c.356.107.721.214,1.086.321.41.116.837.223,1.264.329a22.861,22.861,0,0,0,2.3.445c.98.142,2.039.258,3.134.321-.721,3.9-1.781,7.907-3.669,9.359-1.033,3.669,8.166,7.64,10.766,7.64,4.452-6.456,9.867-18.353,10.748-19.991,2.075-3.847,3.117-7.338,12.725-17.907.481-.4.962-.793,1.425-1.184A120.04,120.04,0,0,0,213.1,97.943,11.444,11.444,0,0,0,209.113,92.342ZM192.55,112.76c.525-3.241.65-6.554,1.086-9.813l5.37,7.106Z" transform="translate(-135.33 -88.272)" fill="#40b6f4"/>
        </g>
      </g>
      <path id="Path_14705" data-name="Path 14705" d="M221.356,98.443a120.041,120.041,0,0,1-10.668,10.089c.045-.329.65-4.951,3.295-6.029,2.752-1.113,4.007-2.226,5.049-4.167s-1.665-5.494-1.665-5.494A11.444,11.444,0,0,1,221.356,98.443Z" transform="translate(-53.864 -22.089)" fill="#2599ef"/>
      <path id="Path_14706" data-name="Path 14706" d="M162.035,127.081a9.777,9.777,0,0,1-1.443-.179c-7.78-6.329-8.817-18.981-9.51-23.8a19.329,19.329,0,0,0-4.5-9.849q-.347.988-.775,1.923a15.973,15.973,0,0,1,3.117,5.476c.677,2.689,1.585,10.178,3.232,15.957a23.4,23.4,0,0,0,5.414,9.386,26.566,26.566,0,0,0-5.156-1.63c-4.657-.748-9.822-.116-13.028-.9a7.276,7.276,0,0,1-3.669-1.665,2.75,2.75,0,0,1-.383-.481,25.667,25.667,0,0,0,.374,4,2.116,2.116,0,0,1,.045.232s.027.1.062.285a1.964,1.964,0,0,0,.045.223,15.316,15.316,0,0,1,.267,4.105c5.12.365,16.091-3.776,20.49-2.725.392.089.775.187,1.14.294q.868.227,1.656.481c1.086.329,2.1.677,3.143,1.006a.232.232,0,0,1,.1.027c.356.107.721.214,1.086.321.41.116.837.223,1.264.329.321.071,3.517,1.22,5.236,1.808.365-1.834.65-3.7.9-5.325A31.29,31.29,0,0,1,162.035,127.081Z" transform="translate(-45.611 -22.134)" fill="#2599ef"/>
      <path id="Path_14707" data-name="Path 14707" d="M170.816,130.269c-.151.695-.312,1.38-.49,2.048a24.879,24.879,0,0,1-5.583-3.143c-5.646-3.954-7.4-10.908-8.851-16.2s-3-17.364-4.363-24.542-10.16-11.3-10.16-11.3l.614-1.122s7.124,3.348,10.134,9.243,4.052,30.908,9.8,38.175A20.992,20.992,0,0,0,170.816,130.269Z" transform="translate(-46.272 -20.246)" fill="#626ac3"/>
      <path id="Path_14708" data-name="Path 14708" d="M209.881,99.014s-4.415,1.3-5.745,2.566" transform="translate(-53.146 -22.765)" fill="none" stroke="#0a344c" stroke-miterlimit="10" stroke-width="0.25"/>
      <path id="Path_14709" data-name="Path 14709" d="M204.5,83.668a8.907,8.907,0,0,1,5.506,6.094c.678,2.626.2,3.976-.086,6.094" transform="translate(-53.186 -21.084)" fill="none" stroke="#052533" stroke-miterlimit="10" stroke-width="0.5"/>
      <path id="Path_14710" data-name="Path 14710" d="M207.733,101.5s3.958-6.472,0-12.475-9.72-5.331-9.72-5.331l-1.285,6.9Z" transform="translate(-52.335 -21.084)" fill="#052533"/>
      <path id="Path_14711" data-name="Path 14711" d="M209.488,110.708c-1.211,1.238-4.176,1.432-6.126,1.53-.427.481-.9,1.051-1.371,1.612a10.862,10.862,0,0,1-2.671,2.573,4.474,4.474,0,0,1-3.918-.374,4.12,4.12,0,0,1-2.36-3.989c.071-.053.7-1,1.4-2.075l-.16-.08a7.213,7.213,0,0,1-5.022-4.4,11.3,11.3,0,0,1-.588-2.885,11.6,11.6,0,0,1,.588-5.441c1.167-2.778,3.891-4.559,6.581-5.931a13.6,13.6,0,0,1,4.105-1.487,6.254,6.254,0,0,1,2.752.16,2.37,2.37,0,0,1,1.745,1.523c.953,2.048,1.95,4.069,2.921,6.109C208.348,99.6,211.073,109.087,209.488,110.708Z" transform="translate(-51.444 -21.743)" fill="#ffe1bd"/>
      <path id="Path_14712" data-name="Path 14712" d="M188.456,104.459s-2.294-4.95,0-7.558,8.469-3.191,12.784-7.408,3.02-8.521-.849-12.194c-2.213-2.1-8.1-4.023-14.575-11.672-7.074-8.354-16.685-10.447-26.163-3.92-2.019,1.39-4.3,5.871-10.236,10.175-2.018,1.463-3.082,2.378.705,1.817,3.005-.445,13.988-.334,19.919,11.24,4.709,9.187,6.907,20.038,17.37,20.729" transform="translate(-46.953 -18.258)" fill="#0a344c"/>
      <path id="Path_14713" data-name="Path 14713" d="M152.777,76.021s9.823-.593,15.722,10.906c4.773,9.3,7.476,15.006,14.525,18.63" transform="translate(-47.521 -20.246)" fill="none" stroke="#0a344c" stroke-miterlimit="10" stroke-width="1"/>
      <path id="Path_14714" data-name="Path 14714" d="M53.705,66.079s-.223,1.67-3.117,1.726-3.4.167-3.729.946-1.5.111-2.838-1.336-8.961-9.183-9.406-10.908,2.95-2.949,6.345-1.558,6.4,3.618,9.072,4.286S55.041,63.185,53.705,66.079Z" transform="translate(-34.576 -17.873)" fill="#3a3a3a"/>
      <path id="Path_14715" data-name="Path 14715" d="M96.158,14.732s-.694,10.744.506,17.7c0,0,.214,1.72,1.776.668,1.818-1.224,4.545-.278,4.879,1.5.209,1.116-.017,1.58,1.211.93a6.817,6.817,0,0,0,2.926-3.323,7.432,7.432,0,0,0-1.447-5.287c-1.391-2.06-2.727-5.677-3.728-8.182S96.316,10.895,96.158,14.732Z" transform="translate(-41.299 -13.387)" fill="#3a3a3a"/>
      <path id="Path_14716" data-name="Path 14716" d="M204.549,114.969c-.427.481-.9,1.051-1.371,1.612a8.615,8.615,0,0,1-3.74-1.959A45.654,45.654,0,0,0,204.549,114.969Z" transform="translate(-52.632 -24.474)" fill="#efcba5"/>
      <path id="Path_14717" data-name="Path 14717" d="M140.245,74.77A21.133,21.133,0,0,0,152.99,63.392s-3.11-8.582-9.18-8.954S120.636,66.237,140.245,74.77Z" transform="translate(-45.147 -17.882)" fill="#626ac3"/>
      <path id="Path_14718" data-name="Path 14718" d="M143.089,54.487a19.114,19.114,0,0,0-2.885,1.362,14.7,14.7,0,0,0-3.669,2.832,14.18,14.18,0,0,0-1.585,2.075,7.418,7.418,0,0,0-1.042,2.5,5.138,5.138,0,0,0,.258,2.716,7.14,7.14,0,0,0,1.407,2.253,10.141,10.141,0,0,0,1.888,1.6,8.464,8.464,0,0,0,1.977,1.006,19.523,19.523,0,0,1,2.823,1.541c.668.419,1.024.686,1.024.686l.027-.036s-.329-.3-.944-.793a15.363,15.363,0,0,0-2.778-1.763,10.8,10.8,0,0,1-1.879-1.015,11.972,11.972,0,0,1-1.8-1.541,7.135,7.135,0,0,1-1.4-2.084,4.96,4.96,0,0,1-.383-2.547,6.232,6.232,0,0,1,.935-2.458,9.843,9.843,0,0,1,1.656-1.959,24.182,24.182,0,0,1,3.66-2.707c1.158-.686,2.146-1.2,2.858-1.532l.4-.187Z" transform="translate(-45.446 -17.883)" fill="#8690db"/>
      <path id="Path_14719" data-name="Path 14719" d="M142.887,74.774s.9-1.011-.381-3.4-1.411-6.888.687-9.35c2.039-2.394,9.35-2.2,10.946,2.034,0,0,.482.638-.149,1.992C153.48,67.139,147.554,74.7,142.887,74.774Z" transform="translate(-46.294 -18.545)" fill="#525daf"/>
      <path id="Path_14720" data-name="Path 14720" d="M143.1,61.722s.085.582.581.646a3.011,3.011,0,0,0,1.769-.941c.266-.331-.154-1.04-.7-.934S142.994,61.194,143.1,61.722Z" transform="translate(-46.461 -18.545)" fill="#303a68"/>
      <path id="Path_14721" data-name="Path 14721" d="M187.176,195.771a17.459,17.459,0,0,0-.643,4.565c.055,2.171.872,7.829.872,7.829a.454.454,0,0,0,.26.13,1.6,1.6,0,0,0,.575-1.262v-4.805" transform="translate(-51.218 -33.362)" fill="#ffe1bd"/>
      <path id="Path_14722" data-name="Path 14722" d="M188.5,195.771a29.167,29.167,0,0,0-.593,5.307c.055,2.17.872,7.828.872,7.828a.454.454,0,0,0,.26.13,1.6,1.6,0,0,0,.575-1.261v-4.8" transform="translate(-51.369 -33.362)" fill="#ffe1bd"/>
      <path id="Path_14723" data-name="Path 14723" d="M189.672,197.464a29.166,29.166,0,0,0-.593,5.306,56.692,56.692,0,0,0,.668,7.657c.026.136.334.3.463.3a1.6,1.6,0,0,0,.575-1.262v-4.805" transform="translate(-51.497 -33.548)" fill="#ffe1bd"/>
      <path id="Path_14724" data-name="Path 14724" d="M186.529,189.791a12.187,12.187,0,0,1,.646,5.325c-.371,2.682,2.476-1.483,2.476-1.483l-1.783-2.9Z" transform="translate(-51.218 -32.707)" fill="#ffe1bd"/>
      <g id="Group_368" data-name="Group 368" transform="translate(146.56 76.103)">
        <path id="Path_14725" data-name="Path 14725" d="M207.151,101.543a.555.555,0,1,0,.055-.783A.554.554,0,0,0,207.151,101.543Z" transform="translate(-200.022 -99.044)" fill="#0a344c"/>
        <path id="Path_14726" data-name="Path 14726" d="M207.645,101.132a.19.19,0,1,0,.019-.269A.191.191,0,0,0,207.645,101.132Z" transform="translate(-200.086 -99.066)" fill="#fff"/>
        <path id="Path_14727" data-name="Path 14727" d="M201.028,105.141a.545.545,0,1,0,.054-.768A.544.544,0,0,0,201.028,105.141Z" transform="translate(-199.352 -99.44)" fill="#0a344c"/>
        <path id="Path_14728" data-name="Path 14728" d="M201.454,104.7a.187.187,0,1,0,.019-.264A.188.188,0,0,0,201.454,104.7Z" transform="translate(-199.408 -99.457)" fill="#fff"/>
        <path id="Path_14729" data-name="Path 14729" d="M207.864,99.049a1.257,1.257,0,0,0-.5-.177,1.592,1.592,0,0,0-1.163.254,1.863,1.863,0,0,0-.453.464,2.073,2.073,0,0,0-.235.5,1.7,1.7,0,0,0-.083.373c-.013.091-.016.142-.016.142s.034-.043.083-.119.11-.187.2-.307a3.167,3.167,0,0,1,.3-.393,2.488,2.488,0,0,1,.405-.361A2.544,2.544,0,0,1,207.864,99.049Z" transform="translate(-199.847 -98.85)" fill="#0a344c"/>
        <path id="Path_14730" data-name="Path 14730" d="M201.611,102.535a1.273,1.273,0,0,0-.5-.178,1.69,1.69,0,0,0-.559.005,1.65,1.65,0,0,0-.6.248,1.882,1.882,0,0,0-.453.465,2.075,2.075,0,0,0-.235.5,1.641,1.641,0,0,0-.082.372,1.319,1.319,0,0,0-.016.143s.033-.043.082-.119.111-.187.2-.307a3.1,3.1,0,0,1,.3-.393,2.421,2.421,0,0,1,.406-.361A2.536,2.536,0,0,1,201.611,102.535Z" transform="translate(-199.162 -99.232)" fill="#0a344c"/>
        <path id="Path_14731" data-name="Path 14731" d="M205.325,101.893a1.729,1.729,0,0,0,.026.284,3.328,3.328,0,0,0,.2.727,4.628,4.628,0,0,0,.226.46,2.513,2.513,0,0,0,.333.469c.259.3.541.58.817.867.294.267.587.533.822.8a3.324,3.324,0,0,1,.293.358.338.338,0,0,1,.027.3,1.914,1.914,0,0,1-.314.59c-.1.139-.17.217-.17.217l0,0a.018.018,0,0,0,0,.025.017.017,0,0,0,.021,0,2.22,2.22,0,0,0,.215-.175,1.8,1.8,0,0,0,.445-.578.6.6,0,0,0,.026-.488,1.9,1.9,0,0,0-.3-.457,11.5,11.5,0,0,0-.811-.855c-.288-.278-.581-.55-.838-.821a3.924,3.924,0,0,1-.6-.818,4.065,4.065,0,0,1-.383-.916.018.018,0,0,0-.021-.013.017.017,0,0,0-.013.017Z" transform="translate(-199.837 -99.181)" fill="#dbb491"/>
      </g>
      <path id="Path_14732" data-name="Path 14732" d="M203.483,104.272a2.656,2.656,0,1,1-2.656-2.655A2.656,2.656,0,0,1,203.483,104.272Z" transform="translate(-52.493 -23.05)" fill="none" stroke="#0a344c" stroke-miterlimit="10" stroke-width="0.25"/>
      <path id="Path_14733" data-name="Path 14733" d="M210.213,100.011a2.656,2.656,0,1,1-2.656-2.656A2.656,2.656,0,0,1,210.213,100.011Z" transform="translate(-53.23 -22.583)" fill="none" stroke="#0a344c" stroke-miterlimit="10" stroke-width="0.25"/>
      <path id="Path_14734" data-name="Path 14734" d="M203.678,102.892a1.468,1.468,0,0,1,1.467-1" transform="translate(-53.096 -23.081)" fill="none" stroke="#0a344c" stroke-miterlimit="10" stroke-width="0.25"/>
      <path id="Path_14735" data-name="Path 14735" d="M197.984,106.282s-4.415,1.3-5.745,2.565" transform="translate(-51.843 -23.561)" fill="none" stroke="#0a344c" stroke-miterlimit="10" stroke-width="0.25"/>
      <path id="Path_14736" data-name="Path 14736" d="M195.016,109.012a2.064,2.064,0,0,0-2.85.076,2.431,2.431,0,0,0-.2,2.939,3.805,3.805,0,0,0,1.334,1.158c1.709.966,4.137,1.244,4.385-.547" transform="translate(-51.77 -23.801)" fill="#ffe1bd"/>
      <path id="Path_14737" data-name="Path 14737" d="M192.751,111.006s.668-1.036,2.077-.194,1,1.78.612,2.087c-.262.207-1.618.076-1.447-.705s.835-.37.947-.63-.323-.7-.719-.752a1.462,1.462,0,0,0-1.248.306C192.724,111.327,192.658,111.12,192.751,111.006Z" transform="translate(-51.895 -24.021)" fill="#efcba5"/>
      <g id="Group_369" data-name="Group 369" transform="translate(152.712 84.696)">
        <path id="Path_14738" data-name="Path 14738" d="M210.273,109.871a1.035,1.035,0,0,1-.036.16,2.022,2.022,0,0,1-1.772,1.594c-.864.071-2.4-.419-2.4-.935a.326.326,0,0,1,.107-.223,16.84,16.84,0,0,1,3.776-1.968C210.362,108.545,210.4,109.293,210.273,109.871Z" transform="translate(-206.07 -108.5)" fill="#d15924"/>
        <path id="Path_14739" data-name="Path 14739" d="M210.273,110.017a1.035,1.035,0,0,1-.036.16,2.022,2.022,0,0,1-1.772,1.594c-.864.071-2.4-.419-2.4-.935C206.845,110.391,208.777,109.43,210.273,110.017Z" transform="translate(-206.07 -108.646)" fill="#ef703f"/>
      </g>
    </g>
  </g>
</svg>
