<svg xmlns="http://www.w3.org/2000/svg" width="416.283" height="398.926" viewBox="0 0 416.283 398.926">
  <g id="Group_1679" data-name="Group 1679" transform="translate(-186.15 -247.447)">
    <g id="Group_1613" data-name="Group 1613" transform="translate(44.138 40.322)">
      <path id="Path_14740" data-name="Path 14740" d="M362.639,112.453a404.917,404.917,0,0,1,37.22,75.1l-3.116,1.5s-15.073-41.742-37.533-73.535" transform="translate(148.19 238.382)" fill="#f4b673"/>
      <g id="Group_32" data-name="Group 32" transform="translate(150.862 279.993)">
        <g id="Group_2" data-name="Group 2" transform="translate(21.157 286.778)">
          <ellipse id="Ellipse_1" data-name="Ellipse 1" cx="193.138" cy="19.64" rx="193.138" ry="19.64" transform="translate(0 0)" fill="#7d5de3" opacity="0.14"/>
        </g>
        <g id="Group_31" data-name="Group 31">
          <rect id="Rectangle_1" data-name="Rectangle 1" width="9.654" height="47.462" transform="translate(163.757 250.599)" fill="#f7c3bb"/>
          <g id="Group_3" data-name="Group 3" transform="translate(10.758 42.325)">
            <path id="Path_5" data-name="Path 5" d="M488.21,287.869s-70.021,21.213-73.863,23.113-8.811,3.865-8.984,2.312,3.257-2.412,3.257-2.412-9.417,2.4-10.021.048,9.22-6.7,9.22-6.7,54.677-40.067,85.72-35.515Z" transform="translate(-398.573 -268.314)" fill="#f7c3bb"/>
            <path id="Path_6" data-name="Path 6" d="M417.053,305.974c21.662-6.848,57.482-14.942,57.482-14.942l6.666-22.322c-20.249-2.97-50.548,13.044-69.175,24.542Z" transform="translate(-386.234 -268.314)" fill="#2627a1"/>
            <path id="Path_7" data-name="Path 7" d="M492.432,294.64s-10.194-27.576-45.709-26.263l-2.092,22.672Z" transform="translate(-356.33 -268.331)" fill="#2627a1"/>
          </g>
          <g id="Group_4" data-name="Group 4" transform="translate(162.048 55.957)">
            <path id="Path_8" data-name="Path 8" d="M489.168,302.783S486.555,375.9,485.7,380.1s-1.484,9.507.061,9.275,1.5-3.763,1.5-3.763.084,9.716,2.513,9.7,4.128-10.629,4.128-10.629,24.764-63.1,12.429-91.951Z" transform="translate(-470.763 -259.585)" fill="#f7c3bb"/>
            <path id="Path_9" data-name="Path 9" d="M485.914,364.274c1.083-22.691-.245-59.392-.245-59.392l19.877-12.151c8.046,18.821.307,52.206-6.049,73.151Z" transform="translate(-469.981 -259.585)" fill="#2627a1"/>
            <path id="Path_10" data-name="Path 10" d="M477.486,275.442s29.268,2.807,37.074,37.481l-21.386,7.816Z" transform="translate(-477.486 -275.442)" fill="#2627a1"/>
          </g>
          <path id="Path_11" data-name="Path 11" d="M462.453,341h47.2l4.012-45.9a20.058,20.058,0,0,0-19.877-20.234H476.31c-10.978,0-23.7,2.533-23.7,13.708Z" transform="translate(-338.252 -220.013)" fill="#2627a1"/>
          <g id="Group_6" data-name="Group 6" transform="translate(124.467 250.403)">
            <rect id="Rectangle_2" data-name="Rectangle 2" width="9.654" height="47.462" transform="translate(7.972 1.023) rotate(-6.085)" fill="#f7c3bb"/>
            <g id="Group_5" data-name="Group 5" transform="translate(0 42.981)">
              <path id="Path_12" data-name="Path 12" d="M481.335,399.285s-6.58,3.466-9.536,1.631-3.428.93-2.663,3.792-3.334,3.3-3.334,3.3-8.459,1.361-7.891,6.678,25.253,1.764,27.653-1.411c1.141-1.507-2.233-3.662-2.64-6.047S484.008,399.615,481.335,399.285Z" transform="translate(-457.884 -399.285)" fill="#1f4fad"/>
              <path id="Path_13" data-name="Path 13" d="M461.772,403.458l2.975,3.058" transform="translate(-454.318 -395.458)" fill="none" stroke="#2627a1" stroke-miterlimit="10" stroke-width="1"/>
              <path id="Path_14" data-name="Path 14" d="M462.664,403.2q1.182.92,2.366,1.837" transform="translate(-453.499 -395.698)" fill="none" stroke="#2627a1" stroke-miterlimit="10" stroke-width="1"/>
            </g>
          </g>
          <g id="Group_7" data-name="Group 7" transform="translate(159.793 293.804)">
            <path id="Path_15" data-name="Path 15" d="M479.347,399.661s6.908,2.749,9.653.612,3.509.562,3.05,3.487,3.668,2.928,3.668,2.928,8.554.458,8.554,5.805-24.925,4.429-27.649,1.526c-1.292-1.377,1.833-3.878,1.986-6.292S476.722,400.273,479.347,399.661Z" transform="translate(-476.31 -399.504)" fill="#1f4fad"/>
            <path id="Path_16" data-name="Path 16" d="M487.894,402.851q-1.317,1.677-2.636,3.355" transform="translate(-468.104 -396.434)" fill="none" stroke="#2627a1" stroke-miterlimit="10" stroke-width="1"/>
            <path id="Path_17" data-name="Path 17" d="M486.75,402.685q-1.078,1.038-2.157,2.078" transform="translate(-468.713 -396.586)" fill="none" stroke="#2627a1" stroke-miterlimit="10" stroke-width="1"/>
          </g>
          <path id="Path_18" data-name="Path 18" d="M470.989,267.342s-11.537-.671-13.033-7.383c-2.092-9.4,1.555-17.224,10.537-12.063,7.226,4.149,10.474.554,14.883,1.825,3.7,1.066,20.565,8.01,17.92,22.44s-14.8,12.325-15.939,6.283S470.989,267.342,470.989,267.342Z" transform="translate(-333.878 -246.255)" fill="#2627a1"/>
          <path id="Path_19" data-name="Path 19" d="M501.177,316.541l2.818.449c3.827-2.446,8.512-3.367,12.6-1.6a12.572,12.572,0,0,1,7.132,11.281h45.755a15.014,15.014,0,0,1,1.611-5.587c2.456-4.653,7.18-7.232,9.388-12.053a16.142,16.142,0,0,0-10.989-21.84c-3.4-.867-7.143-.732-10.048-2.995-3.729-2.906-4.787-8.668-5.746-13.813a45.339,45.339,0,0,0-2.4-9c-3.167-7.669-10.278-12.837-17.517-12.734s-14.241,5.474-17.251,13.23c-2.026,5.22-2.295,11.116-3.46,16.687S509.4,289.925,504.854,292c-2.308,1.053-5.031,1.093-6.917,2.983-2.607,2.617-2.36,7.362-1.886,11.359C496.543,310.516,497.691,315.585,501.177,316.541Z" transform="translate(-298.688 -244.056)" fill="#654897"/>
          <g id="Group_8" data-name="Group 8" transform="translate(131.371 13.704)">
            <path id="Path_20" data-name="Path 20" d="M463.034,267.692c-.3,3.689-5.638,17.895,5.433,18.685,0,0-.265,7.646-2.109,7.646,0,0-3.863,12.523,6.639,13.455s16.819-12.927,16.819-12.927-5.8-.527-4.48-15.289c0,0,4.423-7.072,4.218-13.706s-7.577-12.594-14.235-12.126S463.985,256.064,463.034,267.692Z" transform="translate(-461.485 -253.403)" fill="#f7c3bb"/>
          </g>
          <g id="Group_9" data-name="Group 9" transform="translate(146.734 32.19)">
            <path id="Path_21" data-name="Path 21" d="M469.507,265.207a2.372,2.372,0,1,1,2.153,2.573A2.373,2.373,0,0,1,469.507,265.207Z" transform="translate(-469.498 -263.045)" fill="#fef0e7"/>
          </g>
          <g id="Group_10" data-name="Group 10" transform="translate(131.371 32.941)">
            <path id="Path_22" data-name="Path 22" d="M462.073,263.5c.339-.109.269-.048.646.012A2.372,2.372,0,1,1,462,268.2c-.339-.052-.24.036-.51-.138" transform="translate(-461.485 -263.437)" fill="#fef0e7"/>
          </g>
          <g id="Group_11" data-name="Group 11" transform="translate(155.016 30.226)">
            <path id="Path_23" data-name="Path 23" d="M474.284,264.656a3.92,3.92,0,1,1,1.653,5.621A4.159,4.159,0,0,1,474.284,264.656Z" transform="translate(-473.818 -262.02)" fill="#f7c3bb"/>
          </g>
          <rect id="Rectangle_3" data-name="Rectangle 3" width="9.654" height="65.032" transform="translate(256.051 298.061) rotate(180)" fill="#f7c3bb"/>
          <rect id="Rectangle_4" data-name="Rectangle 4" width="9.654" height="65.032" transform="translate(216.904 298.061) rotate(180)" fill="#f7c3bb"/>
          <rect id="Rectangle_5" data-name="Rectangle 5" width="9.654" height="17.103" transform="translate(256.051 298.061) rotate(180)" fill="#f9fbfc"/>
          <rect id="Rectangle_6" data-name="Rectangle 6" width="9.654" height="17.103" transform="translate(216.904 298.061) rotate(180)" fill="#f9fbfc"/>
          <path id="Path_24" data-name="Path 24" d="M512.186,301.342s-6,72.917-5.642,77.189.357,9.615-1.15,9.2-1.047-3.915-1.047-3.915-1.227,9.64-3.637,9.339-2.849-11.039-2.849-11.039-17.174-65.575-1.534-92.773Z" transform="translate(-304.188 -206.733)" fill="#f7c3bb"/>
          <path id="Path_25" data-name="Path 25" d="M534.866,290.676l15.673,15.819,15.286-40.841L576.239,269s-4.045,33.606-6.693,41.248-6.917,26.355-15.4,23.161-27.626-19.7-27.626-19.7Z" transform="translate(-270.467 -228.463)" fill="#f7c3bb"/>
          <path id="Path_26" data-name="Path 26" d="M521.483,274.873s19.971-1.1,32.055,16.4L536.9,317.035Z" transform="translate(-275.086 -220.02)" fill="#67d1e3"/>
          <path id="Path_27" data-name="Path 27" d="M527.869,274.909s-23.907-3.3-35.734,30.211l20.316,11.952Z" transform="translate(-302.003 -220.056)" fill="#67d1e3"/>
          <path id="Path_28" data-name="Path 28" d="M555.806,309.982l-5.968-2.454H518.1l-7.256,2.454s-12.065,4.369-12.065,26.961c0,11.908-1.444,55.508-2.809,94.094h68.493c1.658-38.587,3.411-82.187,3.411-94.094C567.871,314.351,555.806,309.982,555.806,309.982Z" transform="translate(-298.487 -190.057)" fill="#ffaf0a"/>
          <path id="Path_29" data-name="Path 29" d="M515.635,323.377l.011-.058h0Z" transform="translate(-280.449 -175.574)" fill="#89e5ff"/>
          <path id="Path_30" data-name="Path 30" d="M552.28,341h-47.2l-4.013-45.9a20.058,20.058,0,0,1,19.877-20.234h17.483A20.056,20.056,0,0,1,558.3,295.1Z" transform="translate(-293.814 -220.013)" fill="#67d1e3"/>
          <path id="Path_31" data-name="Path 31" d="M548.529,278.579l.355-4.434s-3.888-5.753-3.518-7.264,5.251,1.833,5.251,1.833.6-15.842,3.135-14.386c.654.378-.38,10.516-.38,10.516s4.618-11.476,6.5-11.012-3.035,12.364-3.035,12.364,6.766-11.25,8.468-10.031-5.648,13.225-5.648,13.225,6.373-8.844,7.887-7.671-5.943,10.351-5.943,10.351l-2.933,8.687Z" transform="translate(-253.204 -239.319)" fill="#f7c3bb"/>
          <g id="Group_12" data-name="Group 12" transform="translate(242.07 293.804)">
            <path id="Path_32" data-name="Path 32" d="M522.263,399.661s6.909,2.749,9.655.612,3.508.562,3.05,3.487,3.666,2.928,3.666,2.928,8.554.458,8.554,5.805-24.925,4.429-27.649,1.526c-1.292-1.377,1.833-3.878,1.986-6.292S519.64,400.273,522.263,399.661Z" transform="translate(-519.226 -399.504)" fill="#67d1e3"/>
            <path id="Path_33" data-name="Path 33" d="M530.811,402.851q-1.32,1.677-2.636,3.355" transform="translate(-511.018 -396.434)" fill="none" stroke="#2627a1" stroke-miterlimit="10" stroke-width="1"/>
            <path id="Path_34" data-name="Path 34" d="M529.668,402.685q-1.081,1.038-2.159,2.078" transform="translate(-511.629 -396.586)" fill="none" stroke="#2627a1" stroke-miterlimit="10" stroke-width="1"/>
          </g>
          <g id="Group_13" data-name="Group 13" transform="translate(192.906 293.804)">
            <path id="Path_35" data-name="Path 35" d="M518.507,399.661s-6.909,2.749-9.655.612-3.508.562-3.05,3.487-3.666,2.928-3.666,2.928-8.554.458-8.554,5.805,24.925,4.429,27.649,1.526c1.292-1.377-1.833-3.878-1.986-6.292S521.13,400.273,518.507,399.661Z" transform="translate(-493.582 -399.504)" fill="#67d1e3"/>
            <path id="Path_36" data-name="Path 36" d="M497.843,402.851q1.32,1.677,2.636,3.355" transform="translate(-489.674 -396.434)" fill="none" stroke="#2627a1" stroke-miterlimit="10" stroke-width="1"/>
            <path id="Path_37" data-name="Path 37" d="M498.759,402.685q1.078,1.038,2.157,2.078" transform="translate(-488.834 -396.586)" fill="none" stroke="#2627a1" stroke-miterlimit="10" stroke-width="1"/>
          </g>
          <path id="Path_38" data-name="Path 38" d="M501.439,315.065l54.455.773L552.855,306l-48.79-.61Z" transform="translate(-293.47 -192.019)" fill="#1f4fad"/>
          <path id="Path_39" data-name="Path 39" d="M508.571,267.692c-.3,3.689-5.638,17.895,5.431,18.685,0,0-.263,7.646-2.109,7.646,0,0-3.861,12.523,6.641,13.455s16.819-12.927,16.819-12.927-5.8-.527-4.48-15.289c0,0,4.423-7.072,4.218-13.706s-7.577-12.594-14.235-12.126S509.522,256.064,508.571,267.692Z" transform="translate(-288.349 -239.699)" fill="#f7c3bb"/>
          <path id="Path_40" data-name="Path 40" d="M515.044,265.207a2.372,2.372,0,1,1,2.153,2.573A2.373,2.373,0,0,1,515.044,265.207Z" transform="translate(-281 -230.855)" fill="#fef0e7"/>
          <path id="Path_41" data-name="Path 41" d="M507.611,263.5c.339-.109.268-.048.646.012a2.372,2.372,0,1,1-.725,4.688c-.339-.052-.24.036-.51-.138" transform="translate(-288.349 -230.496)" fill="#fef0e7"/>
          <path id="Path_42" data-name="Path 42" d="M519.821,264.656a3.92,3.92,0,1,1,1.653,5.621A4.159,4.159,0,0,1,519.821,264.656Z" transform="translate(-277.037 -231.795)" fill="#f7c3bb"/>
          <path id="Path_43" data-name="Path 43" d="M534.754,267.393a4.744,4.744,0,0,1-1.823,4.8c-1.539.96-4,.278-4.423-1.486-.249-1.03.188-2.151-.146-3.158a3.1,3.1,0,0,0-2.922-1.829,15.06,15.06,0,0,0-3.606.621,2.717,2.717,0,0,1-2.015-.136c-.974-.61-.989-2.143-1.94-2.788-.9-.608-2.138-.1-2.952.612a9.668,9.668,0,0,1-2.494,2.049c-1.848.738-4.013-.828-4.48-2.763a7.111,7.111,0,0,1,1.5-5.59,14.138,14.138,0,0,1,25.366,11.143" transform="translate(-287.619 -241.141)" fill="#654897"/>
          <path id="Path_44" data-name="Path 44" d="M457.416,306.854s-.065,119.926,11.873,173.436h12.176s-5.78-114.585-2.256-143.423l4.166,1.641,12.176,143.7,12.816-2.308s2.832-131.874-2.935-171.864C505.431,308.041,476.448,312.295,457.416,306.854Z" transform="translate(-333.846 -190.675)" fill="#4b7eff"/>
          <path id="Path_45" data-name="Path 45" d="M463.057,261.9s1.649-3.988,5.443-2.579,2.926,6.4,10.08,5.636,4.1,5.987,9.1,6.407,6.837-5.541,4.778-10.744S463.034,243.016,463.057,261.9Z" transform="translate(-328.672 -241.174)" fill="#2627a1"/>
          <g id="Group_16" data-name="Group 16" transform="translate(0 14.498)">
            <rect id="Rectangle_7" data-name="Rectangle 7" width="9.654" height="47.462" transform="translate(58.497 236.101)" fill="#f7c3bb"/>
            <rect id="Rectangle_8" data-name="Rectangle 8" width="9.654" height="47.462" transform="translate(97.644 236.101)" fill="#f7c3bb"/>
            <rect id="Rectangle_9" data-name="Rectangle 9" width="9.654" height="17.103" transform="translate(58.497 266.46)" fill="#f9fbfc"/>
            <rect id="Rectangle_10" data-name="Rectangle 10" width="9.654" height="17.103" transform="translate(97.644 266.46)" fill="#f9fbfc"/>
            <path id="Path_46" data-name="Path 46" d="M448.538,301.342s6,72.917,5.642,77.189-.356,9.615,1.15,9.2,1.047-3.915,1.047-3.915,1.227,9.64,3.637,9.339,2.849-11.039,2.849-11.039,17.174-65.575,1.534-92.773Z" transform="translate(-341.988 -221.231)" fill="#f7c3bb"/>
            <path id="Path_47" data-name="Path 47" d="M438.911,290.676l-15.673,15.819-15.286-40.841L397.539,269s4.045,33.606,6.693,41.248,6.917,26.355,15.4,23.161,27.626-19.7,27.626-19.7Z" transform="translate(-388.763 -242.961)" fill="#f7c3bb"/>
            <path id="Path_48" data-name="Path 48" d="M443.844,274.873s-19.971-1.1-32.055,16.4l16.639,25.765Z" transform="translate(-375.693 -234.518)" fill="#b772ff"/>
            <path id="Path_49" data-name="Path 49" d="M439.218,274.909s23.907-3.3,35.734,30.211l-20.316,11.952Z" transform="translate(-350.536 -234.554)" fill="#b772ff"/>
            <path id="Path_50" data-name="Path 50" d="M449.09,456.553l1.616-114.56,5.155-39.033-27.277,11.213s-12.065,4.369-12.065,26.961c0,14.183,2.487,73.339,4.339,115.419Z" transform="translate(-371.355 -208.746)" fill="#89e5ff"/>
            <path id="Path_51" data-name="Path 51" d="M448.122,456.118h28.366c-1.524-42.08-3.574-101.236-3.574-115.419,0-22.592-12.065-26.961-12.065-26.961l-30.485-10.3,9.279,46.288Z" transform="translate(-358.656 -208.311)" fill="#89e5ff"/>
            <path id="Path_52" data-name="Path 52" d="M425.093,341h47.2l4.013-45.9a20.058,20.058,0,0,0-19.877-20.234H438.95A20.056,20.056,0,0,0,419.075,295.1Z" transform="translate(-369.011 -234.511)" fill="#7d5de3"/>
            <path id="Path_53" data-name="Path 53" d="M412.184,278.579l-.355-4.434s3.888-5.753,3.518-7.264-5.251,1.833-5.251,1.833-.6-15.842-3.135-14.386c-.654.378.38,10.516.38,10.516s-4.618-11.476-6.5-11.012,3.035,12.364,3.035,12.364-6.766-11.25-8.468-10.031,5.648,13.225,5.648,13.225-6.373-8.844-7.887-7.671,5.943,10.351,5.943,10.351l2.933,8.687Z" transform="translate(-392.961 -253.817)" fill="#f7c3bb"/>
            <g id="Group_14" data-name="Group 14" transform="translate(44.516 279.306)">
              <path id="Path_54" data-name="Path 54" d="M441.106,399.661s-6.91,2.749-9.653.612-3.51.562-3.052,3.487-3.666,2.928-3.666,2.928-8.554.458-8.554,5.805,24.925,4.429,27.649,1.526c1.292-1.377-1.833-3.878-1.986-6.292S443.729,400.273,441.106,399.661Z" transform="translate(-416.181 -399.504)" fill="#e3a443"/>
              <path id="Path_55" data-name="Path 55" d="M420.442,402.851q1.32,1.677,2.636,3.355" transform="translate(-412.273 -396.434)" fill="none" stroke="#ea6114" stroke-miterlimit="10" stroke-width="1"/>
              <path id="Path_56" data-name="Path 56" d="M421.358,402.685l2.157,2.078" transform="translate(-411.433 -396.586)" fill="none" stroke="#ea6114" stroke-miterlimit="10" stroke-width="1"/>
            </g>
            <g id="Group_15" data-name="Group 15" transform="translate(93.68 279.306)">
              <path id="Path_57" data-name="Path 57" d="M444.862,399.661s6.909,2.749,9.655.612,3.508.562,3.05,3.487,3.666,2.928,3.666,2.928,8.554.458,8.554,5.805-24.925,4.429-27.649,1.526c-1.292-1.377,1.835-3.878,1.986-6.292S442.239,400.273,444.862,399.661Z" transform="translate(-441.825 -399.504)" fill="#e3a443"/>
              <path id="Path_58" data-name="Path 58" d="M453.41,402.851q-1.32,1.677-2.636,3.355" transform="translate(-433.618 -396.434)" fill="none" stroke="#ea6114" stroke-miterlimit="10" stroke-width="1"/>
              <path id="Path_59" data-name="Path 59" d="M452.267,402.685l-2.159,2.078" transform="translate(-434.228 -396.586)" fill="none" stroke="#ea6114" stroke-miterlimit="10" stroke-width="1"/>
            </g>
            <path id="Path_60" data-name="Path 60" d="M450.3,390.266H418.7l-1.3-11.585h32.9Z" transform="translate(-370.548 -139.296)" fill="#4b7eff"/>
            <rect id="Rectangle_11" data-name="Rectangle 11" width="32.897" height="11.585" transform="translate(87.104 239.385)" fill="#4b7eff"/>
            <path id="Path_61" data-name="Path 61" d="M443.227,336.812l-12.9-15.011,3.648-3.454,11.763,17.823Z" transform="translate(-358.686 -194.632)" fill="#67d1e3"/>
            <path id="Path_62" data-name="Path 62" d="M474.6,315.065l-54.455.773L423.189,306l48.79-.61Z" transform="translate(-368.026 -206.517)" fill="#b772ff"/>
          </g>
          <g id="Group_23" data-name="Group 23" transform="translate(55.345 1.64)">
            <g id="Group_17" data-name="Group 17">
              <path id="Path_63" data-name="Path 63" d="M434.923,290.859c-1.961,1.1-4.316-.408-6.047-1.842-1.656-1.373-3.478-3.134-3.209-5.27.194-1.541,1.442-2.711,2.132-4.1,1.361-2.74.443-6.075-1.02-8.763s-3.459-5.119-4.4-8.033a12.072,12.072,0,0,1,15.937-14.925,21.288,21.288,0,0,1,4.348,2.523c2.295,1.618,4.858,3.437,7.63,3,2.161-.339,3.846-1.977,5.734-3.077a10.185,10.185,0,0,1,7.552-1.237,7.476,7.476,0,0,1,5.4,5.174c.709,2.834-.554,5.849-.019,8.721a7.136,7.136,0,0,0,2.136,3.882c1.166,1.083,2.663,1.747,3.888,2.763a8.877,8.877,0,0,1,.071,13.012c-1.192,1.014-2.684,1.716-3.6,2.985-1.39,1.915-1.091,4.53-1.622,6.839a9.358,9.358,0,0,1-17.812,1.367c-1.11-2.784-.922-6.15-2.855-8.439a6.7,6.7,0,0,0-7.511-1.561,9.8,9.8,0,0,0-5.265,5.968" transform="translate(-421.83 -247.11)" fill="#654897"/>
            </g>
            <g id="Group_18" data-name="Group 18" transform="translate(7.907 12.063)">
              <path id="Path_64" data-name="Path 64" d="M427.5,267.692c-.3,3.689-5.638,17.895,5.433,18.685,0,0-.265,7.646-2.109,7.646,0,0-3.863,12.523,6.639,13.455s16.819-12.927,16.819-12.927-5.8-.527-4.48-15.289c0,0,4.423-7.072,4.218-13.706s-7.577-12.594-14.235-12.126S428.454,256.064,427.5,267.692Z" transform="translate(-425.954 -253.403)" fill="#f7c3bb"/>
            </g>
            <g id="Group_19" data-name="Group 19" transform="translate(23.269 30.55)">
              <path id="Path_65" data-name="Path 65" d="M433.976,265.207a2.372,2.372,0,1,1,2.153,2.573A2.373,2.373,0,0,1,433.976,265.207Z" transform="translate(-433.967 -263.045)" fill="#fef0e7"/>
            </g>
            <g id="Group_20" data-name="Group 20" transform="translate(7.907 31.3)">
              <path id="Path_66" data-name="Path 66" d="M426.543,263.5c.339-.109.268-.048.646.012a2.372,2.372,0,1,1-.725,4.688c-.339-.052-.24.036-.51-.138" transform="translate(-425.954 -263.437)" fill="#fef0e7"/>
            </g>
            <g id="Group_21" data-name="Group 21" transform="translate(31.552 28.585)">
              <path id="Path_67" data-name="Path 67" d="M438.753,264.656a3.92,3.92,0,1,1,1.653,5.621A4.159,4.159,0,0,1,438.753,264.656Z" transform="translate(-438.287 -262.02)" fill="#f7c3bb"/>
            </g>
            <g id="Group_22" data-name="Group 22" transform="translate(9.433 9.049)">
              <path id="Path_68" data-name="Path 68" d="M453.686,267.393a4.741,4.741,0,0,1-1.823,4.8c-1.539.96-4,.278-4.423-1.486-.249-1.03.188-2.151-.146-3.158a3.1,3.1,0,0,0-2.922-1.829,15.06,15.06,0,0,0-3.606.621,2.718,2.718,0,0,1-2.015-.136c-.974-.61-.987-2.143-1.94-2.788-.9-.608-2.138-.1-2.952.612a9.671,9.671,0,0,1-2.494,2.049c-1.848.738-4.013-.828-4.48-2.763a7.11,7.11,0,0,1,1.5-5.59,14.138,14.138,0,0,1,25.366,11.143" transform="translate(-426.75 -251.83)" fill="#654897"/>
            </g>
          </g>
          <rect id="Rectangle_12" data-name="Rectangle 12" width="9.654" height="47.462" transform="translate(310.87 250.599)" fill="#f7c3bb"/>
          <rect id="Rectangle_13" data-name="Rectangle 13" width="9.654" height="47.462" transform="translate(346.005 250.599)" fill="#f7c3bb"/>
          <path id="Path_69" data-name="Path 69" d="M579.13,301.342s6,72.917,5.642,77.189-.355,9.615,1.152,9.2,1.045-3.915,1.045-3.915,1.227,9.64,3.639,9.339,2.849-11.039,2.849-11.039,17.174-65.575,1.534-92.773Z" transform="translate(-222.214 -206.733)" fill="#f7c3bb"/>
          <path id="Path_70" data-name="Path 70" d="M598.076,362.7c3.85-21.547,7.609-55.611-2.592-73.353L578.592,302.2s4.214,37.837,5.805,60.5Z" transform="translate(-222.708 -206.733)" fill="#f9be06"/>
          <path id="Path_71" data-name="Path 71" d="M569.811,274.874s23.832-1.812,35.659,31.7l-20.243,10.46Z" transform="translate(-230.761 -220.022)" fill="#f9be06"/>
          <g id="Group_24" data-name="Group 24" transform="translate(281.227 54.84)">
            <path id="Path_72" data-name="Path 72" d="M562.086,301.342s-6,72.917-5.642,77.189.355,9.615-1.152,9.2-1.045-3.915-1.045-3.915-1.227,9.64-3.639,9.339-2.849-11.039-2.849-11.039-17.174-65.575-1.534-92.773Z" transform="translate(-539.651 -261.573)" fill="#f7c3bb"/>
            <path id="Path_73" data-name="Path 73" d="M557.312,362.7c1.591-22.661,4.774-61.357,4.774-61.357l-15.861-12c-10.2,17.741-6.442,51.806-2.592,73.353Z" transform="translate(-539.65 -261.573)" fill="#f9be06"/>
            <path id="Path_74" data-name="Path 74" d="M577.767,274.872s-23.905-1.63-35.734,31.886l20.318,10.276Z" transform="translate(-537.466 -274.859)" fill="#f9be06"/>
          </g>
          <path id="Path_75" data-name="Path 75" d="M555.685,341h47.2l4.013-45.9a20.057,20.057,0,0,0-19.875-20.234H569.542A20.057,20.057,0,0,0,549.667,295.1Z" transform="translate(-249.236 -220.013)" fill="#f9be06"/>
          <path id="Path_76" data-name="Path 76" d="M560.266,275.081a19.806,19.806,0,0,0-4.672,1.559v64.166h4.672Z" transform="translate(-243.8 -219.816)" fill="#434040"/>
          <path id="Path_77" data-name="Path 77" d="M572.686,275.081a19.805,19.805,0,0,1,4.672,1.559v64.166h-4.672Z" transform="translate(-228.124 -219.816)" fill="#434040"/>
          <g id="Group_25" data-name="Group 25" transform="translate(296.889 293.804)">
            <path id="Path_78" data-name="Path 78" d="M572.745,399.661s-6.909,2.749-9.655.612-3.508.562-3.05,3.487-3.666,2.928-3.666,2.928-8.554.458-8.554,5.805,24.925,4.429,27.648,1.526c1.294-1.377-1.833-3.878-1.986-6.292S575.368,400.273,572.745,399.661Z" transform="translate(-547.82 -399.504)" fill="#f9fbfc"/>
            <path id="Path_79" data-name="Path 79" d="M552.081,402.851l2.636,3.355" transform="translate(-543.912 -396.434)" fill="none" stroke="#280948" stroke-miterlimit="10" stroke-width="1"/>
            <path id="Path_80" data-name="Path 80" d="M553,402.685l2.157,2.078" transform="translate(-543.073 -396.586)" fill="none" stroke="#280948" stroke-miterlimit="10" stroke-width="1"/>
          </g>
          <g id="Group_26" data-name="Group 26" transform="translate(342.041 293.804)">
            <path id="Path_81" data-name="Path 81" d="M574.408,399.661s6.909,2.749,9.655.612,3.508.562,3.05,3.487,3.666,2.928,3.666,2.928,8.554.458,8.554,5.805-24.925,4.429-27.649,1.526c-1.292-1.377,1.835-3.878,1.986-6.292S571.785,400.273,574.408,399.661Z" transform="translate(-571.371 -399.504)" fill="#f9fbfc"/>
            <path id="Path_82" data-name="Path 82" d="M582.956,402.851q-1.32,1.677-2.636,3.355" transform="translate(-563.164 -396.434)" fill="none" stroke="#280948" stroke-miterlimit="10" stroke-width="1"/>
            <path id="Path_83" data-name="Path 83" d="M581.813,402.685l-2.159,2.078" transform="translate(-563.774 -396.586)" fill="none" stroke="#280948" stroke-miterlimit="10" stroke-width="1"/>
          </g>
          <g id="Group_27" data-name="Group 27" transform="translate(313.619 13.704)">
            <path id="Path_84" data-name="Path 84" d="M558.095,267.692c-.3,3.689-5.638,17.895,5.433,18.685,0,0-.265,7.646-2.109,7.646,0,0-3.861,12.523,6.641,13.455S584.88,294.55,584.88,294.55s-5.8-.527-4.482-15.289c0,0,4.423-7.072,4.218-13.706s-7.577-12.594-14.233-12.126S559.048,256.064,558.095,267.692Z" transform="translate(-556.546 -253.403)" fill="#f7c3bb"/>
          </g>
          <g id="Group_28" data-name="Group 28" transform="translate(328.981 32.19)">
            <path id="Path_85" data-name="Path 85" d="M564.569,265.207a2.372,2.372,0,1,1,2.153,2.573A2.375,2.375,0,0,1,564.569,265.207Z" transform="translate(-564.559 -263.045)" fill="#fef0e7"/>
          </g>
          <g id="Group_29" data-name="Group 29" transform="translate(313.619 32.941)">
            <path id="Path_86" data-name="Path 86" d="M557.135,263.5c.341-.109.27-.048.646.012a2.372,2.372,0,1,1-.725,4.688c-.339-.052-.238.036-.51-.138" transform="translate(-556.546 -263.437)" fill="#fef0e7"/>
          </g>
          <g id="Group_30" data-name="Group 30" transform="translate(337.264 30.226)">
            <path id="Path_87" data-name="Path 87" d="M569.346,264.656A3.919,3.919,0,1,1,571,270.277,4.158,4.158,0,0,1,569.346,264.656Z" transform="translate(-568.88 -262.02)" fill="#f7c3bb"/>
          </g>
          <path id="Path_88" data-name="Path 88" d="M552.718,306.854S550.161,428,556.57,480.29h12.174s2.243-114.585,5.769-143.423l4.164,1.641,12.176,143.7,12.816-2.308s2.834-131.874-2.935-171.864C600.733,308.041,571.75,312.295,552.718,306.854Z" transform="translate(-246.9 -190.675)" fill="#434040"/>
          <path id="Path_89" data-name="Path 89" d="M558.663,259.319c.2-.238,3.062-11.5,15.68-8.46s10.259,15.124,8.9,20.4Z" transform="translate(-240.986 -242.508)" fill="#4b7eff"/>
          <path id="Path_90" data-name="Path 90" d="M557.728,259.276l.349-3.671a1.975,1.975,0,0,1,2.613-1.677l25.01,8.664a1.974,1.974,0,0,1,.744,3.269l-2.2,2.176a1.973,1.973,0,0,1-1.975.483l-23.163-7.168A1.973,1.973,0,0,1,557.728,259.276Z" transform="translate(-241.851 -239.319)" fill="#2627a1"/>
        </g>
      </g>
      <g id="Group_1612" data-name="Group 1612" transform="translate(488.343 336.277)">
        <path id="Path_14551" data-name="Path 14551" d="M408.983,199.269l-38.693,13.4s-3.433-8.771-6.324-17.748a105.477,105.477,0,0,1-3.638-13.677L399.8,168.4a.514.514,0,0,1,.652.342l3.6,12.09,5.28,17.774A.539.539,0,0,1,408.983,199.269Z" transform="translate(-341.427 -80.229)" fill="#f7b15e"/>
        <path id="Path_14552" data-name="Path 14552" d="M404.044,180.832c-1.981,2.426-11.24,13.5-16.416,14.694-5.209,1.224-20.543-.281-23.662-.605a105.477,105.477,0,0,1-3.638-13.677L399.8,168.4a.514.514,0,0,1,.652.342Z" transform="translate(-341.427 -80.229)" fill="#ea9d49"/>
        <path id="Path_14586" data-name="Path 14586" d="M357.815,102.381s-20.087,44.117,5.9,103.457l-6.654-.257s-10.179-31-10.9-56.168a128.143,128.143,0,0,1,7.918-46.463A3.922,3.922,0,0,1,357.815,102.381Z" transform="translate(-346.123 -102.131)" fill="#f7b15e"/>
        <path id="Path_14587" data-name="Path 14587" d="M353.02,181.185a74.51,74.51,0,0,1,9.887-3.136l9.96,31.42a71.6,71.6,0,0,1-9.8,3.239.481.481,0,0,1-.56-.307c-1.14-3.126-8.657-23.845-9.957-30.35A.761.761,0,0,1,353.02,181.185Z" transform="translate(-344.004 -77.031)" fill="#ffc388"/>
        <path id="Path_14590" data-name="Path 14590" d="M379.612,189.795a.95.95,0,0,0-.565,1.151c.3,1.036.821,2.689,1.141,2.848.468.235,7.8-2.365,8.2-2.789s-.168-3.235-1-3.77C387.017,187,381.695,188.972,379.612,189.795Z" transform="translate(-335.628 -76.923)" fill="#efcba5"/>
      </g>
    </g>
    <g id="Group_599" data-name="Group 599" transform="translate(186.15 264.447)">
      <g id="Group_577" data-name="Group 577" transform="translate(341.59 -17)">
        <g id="Group_576" data-name="Group 576">
          <g id="Group_559" data-name="Group 559" transform="translate(5.548)">
            <path id="Path_2295" data-name="Path 2295" d="M384.631,76.4a6.815,6.815,0,1,1,6.815-6.815A6.822,6.822,0,0,1,384.631,76.4Zm0-11.491a4.677,4.677,0,1,0,4.677,4.676A4.682,4.682,0,0,0,384.631,64.906Z" transform="translate(-377.817 -62.768)" fill="#7846d1"/>
          </g>
          <g id="Group_560" data-name="Group 560" transform="translate(30.081 23.907)">
            <path id="Path_2296" data-name="Path 2296" d="M408.4,99.564a6.815,6.815,0,1,1,6.814-6.814A6.822,6.822,0,0,1,408.4,99.564Zm0-11.491a4.677,4.677,0,1,0,4.677,4.677A4.682,4.682,0,0,0,408.4,88.072Z" transform="translate(-401.589 -85.934)" fill="#9c78ed"/>
          </g>
          <g id="Group_567" data-name="Group 567" transform="translate(37.629 52.829)">
            <g id="Group_563" data-name="Group 563" transform="translate(6.617)">
              <g id="Group_561" data-name="Group 561">
                <path id="Path_2297" data-name="Path 2297" d="M416.383,120.812a1.069,1.069,0,0,1-1.068-1.069v-4.714a1.069,1.069,0,1,1,2.137,0v4.714A1.069,1.069,0,0,1,416.383,120.812Z" transform="translate(-415.315 -113.959)" fill="#7846d1"/>
              </g>
              <g id="Group_562" data-name="Group 562" transform="translate(0 8.25)">
                <path id="Path_2298" data-name="Path 2298" d="M416.383,128.8a1.068,1.068,0,0,1-1.068-1.068v-4.714a1.069,1.069,0,1,1,2.137,0v4.714A1.069,1.069,0,0,1,416.383,128.8Z" transform="translate(-415.315 -121.953)" fill="#7846d1"/>
              </g>
            </g>
            <g id="Group_566" data-name="Group 566" transform="translate(0 6.482)">
              <g id="Group_564" data-name="Group 564" transform="translate(8.999)">
                <path id="Path_2299" data-name="Path 2299" d="M422.926,122.378h-4.234a1.069,1.069,0,0,1,0-2.138h4.234a1.069,1.069,0,0,1,0,2.138Z" transform="translate(-417.623 -120.24)" fill="#7846d1"/>
              </g>
              <g id="Group_565" data-name="Group 565">
                <path id="Path_2300" data-name="Path 2300" d="M414.206,122.378h-4.234a1.069,1.069,0,0,1,0-2.138h4.234a1.069,1.069,0,0,1,0,2.138Z" transform="translate(-408.903 -120.24)" fill="#7846d1"/>
              </g>
            </g>
          </g>
          <g id="Group_575" data-name="Group 575" transform="translate(0 26.415)">
            <g id="Group_574" data-name="Group 574">
              <g id="Group_570" data-name="Group 570" transform="translate(6.617)">
                <g id="Group_568" data-name="Group 568">
                  <path id="Path_2301" data-name="Path 2301" d="M379.922,95.215a1.069,1.069,0,0,1-1.069-1.069V89.432a1.069,1.069,0,0,1,2.138,0v4.714A1.069,1.069,0,0,1,379.922,95.215Z" transform="translate(-378.853 -88.364)" fill="#5b23a9"/>
                </g>
                <g id="Group_569" data-name="Group 569" transform="translate(0 8.249)">
                  <path id="Path_2302" data-name="Path 2302" d="M379.922,103.21a1.069,1.069,0,0,1-1.069-1.069V97.426a1.069,1.069,0,0,1,2.138,0v4.714A1.069,1.069,0,0,1,379.922,103.21Z" transform="translate(-378.853 -96.357)" fill="#5b23a9"/>
                </g>
              </g>
              <g id="Group_573" data-name="Group 573" transform="translate(0 6.481)">
                <g id="Group_571" data-name="Group 571" transform="translate(8.999)">
                  <path id="Path_2303" data-name="Path 2303" d="M386.464,96.782H382.23a1.069,1.069,0,0,1,0-2.138h4.234a1.069,1.069,0,1,1,0,2.138Z" transform="translate(-381.161 -94.644)" fill="#5b23a9"/>
                </g>
                <g id="Group_572" data-name="Group 572">
                  <path id="Path_2304" data-name="Path 2304" d="M377.744,96.782H373.51a1.069,1.069,0,0,1,0-2.138h4.234a1.069,1.069,0,0,1,0,2.138Z" transform="translate(-372.441 -94.644)" fill="#5b23a9"/>
                </g>
              </g>
            </g>
          </g>
        </g>
      </g>
      <g id="Group_596" data-name="Group 596" transform="translate(0 6.657)">
        <g id="Group_595" data-name="Group 595">
          <g id="Group_578" data-name="Group 578" transform="translate(49.22 0.736)">
            <path id="Path_2305" data-name="Path 2305" d="M77.97,45.868a6.815,6.815,0,1,1,6.814,6.815A6.822,6.822,0,0,1,77.97,45.868Zm2.138,0a4.677,4.677,0,1,0,4.676-4.676A4.681,4.681,0,0,0,80.108,45.868Z" transform="translate(-77.97 -39.054)" fill="#7846d1"/>
          </g>
          <g id="Group_579" data-name="Group 579" transform="translate(21.854 26.71)">
            <path id="Path_2306" data-name="Path 2306" d="M51.452,71.038a6.814,6.814,0,1,1,6.814,6.814A6.823,6.823,0,0,1,51.452,71.038Zm2.137,0a4.677,4.677,0,1,0,4.677-4.677A4.681,4.681,0,0,0,53.589,71.038Z" transform="translate(-51.452 -64.223)" fill="#9c78ed"/>
          </g>
          <g id="Group_586" data-name="Group 586" transform="translate(0 36.237)">
            <g id="Group_582" data-name="Group 582" transform="translate(6.616)">
              <g id="Group_580" data-name="Group 580">
                <path id="Path_2307" data-name="Path 2307" d="M37.756,80.305a1.069,1.069,0,0,0,1.069-1.069V74.522a1.069,1.069,0,0,0-2.138,0v4.714A1.069,1.069,0,0,0,37.756,80.305Z" transform="translate(-36.687 -73.454)" fill="#7846d1"/>
              </g>
              <g id="Group_581" data-name="Group 581" transform="translate(0 8.25)">
                <path id="Path_2308" data-name="Path 2308" d="M37.756,88.3a1.069,1.069,0,0,0,1.069-1.069V82.516a1.069,1.069,0,0,0-2.138,0V87.23A1.069,1.069,0,0,0,37.756,88.3Z" transform="translate(-36.687 -81.448)" fill="#7846d1"/>
              </g>
            </g>
            <g id="Group_585" data-name="Group 585" transform="translate(0 6.482)">
              <g id="Group_583" data-name="Group 583">
                <path id="Path_2309" data-name="Path 2309" d="M31.344,81.872h4.235a1.069,1.069,0,1,0,0-2.137H31.344a1.069,1.069,0,0,0,0,2.137Z" transform="translate(-30.276 -79.735)" fill="#7846d1"/>
              </g>
              <g id="Group_584" data-name="Group 584" transform="translate(8.999)">
                <path id="Path_2310" data-name="Path 2310" d="M40.064,81.872H44.3a1.069,1.069,0,1,0,0-2.137H40.064a1.069,1.069,0,0,0,0,2.137Z" transform="translate(-38.996 -79.735)" fill="#7846d1"/>
              </g>
            </g>
          </g>
          <g id="Group_594" data-name="Group 594" transform="translate(24.631)">
            <g id="Group_593" data-name="Group 593">
              <g id="Group_589" data-name="Group 589" transform="translate(6.616)">
                <g id="Group_587" data-name="Group 587">
                  <path id="Path_2311" data-name="Path 2311" d="M61.623,45.192a1.069,1.069,0,0,0,1.069-1.069V39.409a1.069,1.069,0,0,0-2.138,0v4.714A1.069,1.069,0,0,0,61.623,45.192Z" transform="translate(-60.554 -38.341)" fill="#5b23a9"/>
                </g>
                <g id="Group_588" data-name="Group 588" transform="translate(0 8.25)">
                  <path id="Path_2312" data-name="Path 2312" d="M61.623,53.186a1.069,1.069,0,0,0,1.069-1.069V47.4a1.069,1.069,0,0,0-2.138,0v4.714A1.069,1.069,0,0,0,61.623,53.186Z" transform="translate(-60.554 -46.335)" fill="#5b23a9"/>
                </g>
              </g>
              <g id="Group_592" data-name="Group 592" transform="translate(0 6.482)">
                <g id="Group_590" data-name="Group 590">
                  <path id="Path_2313" data-name="Path 2313" d="M55.212,46.759h4.234a1.069,1.069,0,1,0,0-2.137H55.212a1.069,1.069,0,1,0,0,2.137Z" transform="translate(-54.143 -44.622)" fill="#5b23a9"/>
                </g>
                <g id="Group_591" data-name="Group 591" transform="translate(8.999)">
                  <path id="Path_2314" data-name="Path 2314" d="M63.932,46.759h4.234a1.069,1.069,0,1,0,0-2.137H63.932a1.069,1.069,0,1,0,0,2.137Z" transform="translate(-62.863 -44.622)" fill="#5b23a9"/>
                </g>
              </g>
            </g>
          </g>
        </g>
      </g>
      <g id="Group_598" data-name="Group 598" transform="translate(195.147 6.474)">
        <path id="Path_2315" data-name="Path 2315" d="M334.439,52.822V73.573a4.97,4.97,0,0,1-4.969,4.968H291.794l-11.376,4.082a1.447,1.447,0,0,1-1.838-1.884l4.3-11.112v-16.8a4.97,4.97,0,0,1,4.97-4.969H329.47A4.971,4.971,0,0,1,334.439,52.822Z" transform="translate(-278.479 -47.853)" fill="#9c78ed"/>
        <g id="Group_597" data-name="Group 597" transform="translate(12.081 8.097)" opacity="0.5">
          <path id="Path_2316" data-name="Path 2316" d="M326.121,58.441H291.557a1.371,1.371,0,0,1-1.372-1.37h0a1.372,1.372,0,0,1,1.372-1.372h34.565a1.372,1.372,0,0,1,1.372,1.372h0A1.371,1.371,0,0,1,326.121,58.441Z" transform="translate(-290.185 -55.699)" fill="#e0d5f8"/>
          <path id="Path_2317" data-name="Path 2317" d="M326.121,63.792H291.557a1.372,1.372,0,0,1-1.372-1.372h0a1.371,1.371,0,0,1,1.372-1.37h34.565a1.371,1.371,0,0,1,1.372,1.37h0A1.371,1.371,0,0,1,326.121,63.792Z" transform="translate(-290.185 -55.528)" fill="#e0d5f8"/>
          <path id="Path_2318" data-name="Path 2318" d="M326.121,69.142H291.557a1.372,1.372,0,0,1-1.372-1.372h0a1.371,1.371,0,0,1,1.372-1.37h34.565a1.371,1.371,0,0,1,1.372,1.37h0A1.372,1.372,0,0,1,326.121,69.142Z" transform="translate(-290.185 -55.357)" fill="#e0d5f8"/>
        </g>
      </g>
    </g>
  </g>
</svg>
