<svg xmlns="http://www.w3.org/2000/svg" width="18.649" height="22.52" viewBox="0 0 18.649 22.52"><defs><style>.a{fill:#3188fc;}</style></defs><g transform="translate(0 0)"><g transform="translate(5.322 7.258)"><path class="a" d="M169.006,165a4,4,0,0,0-3.395,6.12.437.437,0,0,0,.042.065A4,4,0,1,0,169.006,165Zm-2.89,5.183a3.121,3.121,0,0,1,5.442-2.977l-2.416,2.416-.922-.922a.44.44,0,0,0-.622,0Zm2.89,1.942a3.118,3.118,0,0,1-2.427-1.161l1.331-1.331.922.922a.44.44,0,0,0,.622,0l2.521-2.521a3.121,3.121,0,0,1-2.968,4.091Z" transform="translate(-165.004 -165.004)"/></g><path class="a" d="M60.091,10.956A13.044,13.044,0,0,0,53.543.058a.44.44,0,0,0-.438,0,13.044,13.044,0,0,0-6.548,10.9A4.226,4.226,0,0,0,44,14.838v3.107a.44.44,0,0,0,.44.44H50.9a5.527,5.527,0,0,0,1.622,3.524l.491.484a.44.44,0,0,0,.617,0l.491-.484a5.526,5.526,0,0,0,1.622-3.524h1.361v2.27a.44.44,0,0,0,.88,0v-2.27h4.222a.44.44,0,0,0,.44-.44V14.838A4.226,4.226,0,0,0,60.091,10.956ZM53.325.95a12.14,12.14,0,0,1,3.5,3.185h-7A12.14,12.14,0,0,1,53.325.95ZM44.88,17.505V14.838a3.347,3.347,0,0,1,1.671-2.9v5.124a1.313,1.313,0,0,0,.076.44Zm8.627,3.778-.182.179-.182-.179a4.641,4.641,0,0,1-1.357-2.9h3.079A4.641,4.641,0,0,1,53.507,21.283Zm5.712-4.217a.44.44,0,0,1-.44.44H47.871a.44.44,0,0,1-.44-.44V11.374a12.133,12.133,0,0,1,.9-4.578h1.992a.44.44,0,0,0,0-.88H48.729q.232-.461.5-.9h8.187a12.166,12.166,0,0,1,1.8,6.36Zm2.551.44H60.023a1.313,1.313,0,0,0,.076-.44V11.942a3.347,3.347,0,0,1,1.671,2.9Z" transform="translate(-44 0)"/><g transform="translate(7.477 5.916)"><g transform="translate(0)"><path class="a" d="M214.751,134.629a.44.44,0,1,0,.129.311A.443.443,0,0,0,214.751,134.629Z" transform="translate(-214 -134.5)"/></g></g><g transform="translate(4.662 19.562)"><path class="a" d="M150.44,444.751a.44.44,0,0,0-.44.44v1.355a.44.44,0,0,0,.88,0v-1.355A.44.44,0,0,0,150.44,444.751Z" transform="translate(-150 -444.751)"/></g><g transform="translate(13.107 21.64)"><path class="a" d="M342.751,492.129a.44.44,0,1,0,.129.311A.443.443,0,0,0,342.751,492.129Z" transform="translate(-342 -492)"/></g></g></svg>