<?xml version="1.0" encoding="utf-8"?>
<!-- Generator: Adobe Illustrator 24.0.3, SVG Export Plug-In . SVG Version: 6.00 Build 0)  -->
<svg version="1.1" xmlns="http://www.w3.org/2000/svg" xmlns:xlink="http://www.w3.org/1999/xlink" x="0px" y="0px"
	 viewBox="0 0 500 500" style="enable-background:new 0 0 500 500;" xml:space="preserve">
<style type="text/css">
	.st0{fill:#DCE6FF;}
	.st1{fill:url(#SVGID_1_);}
	.st2{opacity:0.2;}
	.st3{fill:url(#SVGID_2_);}
	.st4{fill:url(#SVGID_3_);}
	.st5{opacity:0.1;}
	.st6{fill:#FFB227;}
	.st7{opacity:0.3;}
	.st8{fill:#7048A3;}
	.st9{fill:#FFFFFF;}
	.st10{fill:#FF58D5;}
	.st11{fill:none;}
	.st12{fill:url(#SVGID_4_);}
	.st13{fill:url(#SVGID_5_);}
	.st14{fill:url(#SVGID_6_);}
	.st15{fill:url(#SVGID_7_);}
</style>
<g id="BACKGROUND">
</g>
<g id="OBJECTS">
	<g>
		<g>
			<path class="st0" d="M76.04,418.09h334.74c-1.79-9.45-3.42-18.9-0.58-27.81c5.29-16.58,24.42-25.86,29.49-42.51
				c4.52-14.84-3.55-30.43-12.51-43.09c-8.96-12.66-19.53-25.48-20.76-40.94c-1.06-13.21,4.99-25.91,11.89-37.22
				c6.9-11.31,14.91-22.26,18.51-35.01c3.6-12.75,1.68-28.2-8.66-36.48c-12.3-9.86-30.17-5.86-45.5-2.15
				c-15.32,3.71-34.22,5.54-44.26-6.62c-6.43-7.78-6.84-18.81-11.04-27.99c-8.38-18.31-31.56-26.43-51.29-22.37
				c-19.73,4.06-36.16,17.79-49.09,33.23s-23.22,32.95-36.21,48.35c-11,13.03-26.96,25.34-43.54,21.35
				c-14.86-3.58-24.85-19.31-39.97-21.6c-10.82-1.64-21.8,4.46-28.29,13.27c-6.49,8.82-9.12,19.92-10.1,30.82
				c-2.54,28.33,5.45,57.47,22.07,80.55c8.77,12.17,20.51,26.52,14.46,40.25c-7.81,17.7-38.49,16.09-44.51,34.48
				c-2.35,7.17,0.21,14.99,3.4,21.82C67.53,405.35,71.49,411.94,76.04,418.09z"/>
			<g>
				<linearGradient id="SVGID_1_" gradientUnits="userSpaceOnUse" x1="342.999" y1="272.9044" x2="398.9557" y2="272.9044">
					<stop  offset="0" style="stop-color:#484BA3"/>
					<stop  offset="1" style="stop-color:#6468CC"/>
				</linearGradient>
				<path class="st1" d="M387.86,247.3c-14.82-14.27-11.48-39.35-22.65-56.62c-2-3.1-4.56-5.98-7.89-7.56
					c-3.34-1.58-7.56-1.65-10.53,0.55c-3.56,2.64-4.42,7.77-3.37,12.08c1.05,4.31,3.61,8.06,5.84,11.88
					c7.98,13.67,12.2,29.9,9.7,45.53c-2.66,16.67-12.62,31.67-14.14,48.48c-1.05,11.61,2.07,23.33,7.31,33.75
					c5.24,10.42,12.51,19.67,20.17,28.46c-3.57-9.34-2.47-20.32-0.26-30.06c2.22-9.75,6.58-18.89,11.59-27.54
					c5.49-9.47,11.89-18.67,14.6-29.28C400.94,266.36,395.74,254.89,387.86,247.3z"/>
				<path class="st2" d="M387.86,247.3c-14.82-14.27-11.48-39.35-22.65-56.62c-2-3.1-4.56-5.98-7.89-7.56
					c-3.34-1.58-7.56-1.65-10.53,0.55c-3.56,2.64-4.42,7.77-3.37,12.08c1.05,4.31,3.61,8.06,5.84,11.88
					c7.98,13.67,12.2,29.9,9.7,45.53c-2.66,16.67-12.62,31.67-14.14,48.48c-1.05,11.61,2.07,23.33,7.31,33.75
					c5.24,10.42,12.51,19.67,20.17,28.46c-3.57-9.34-2.47-20.32-0.26-30.06c2.22-9.75,6.58-18.89,11.59-27.54
					c5.49-9.47,11.89-18.67,14.6-29.28C400.94,266.36,395.74,254.89,387.86,247.3z"/>
				<path class="st2" d="M377.8,229.83c-0.73,12.46-6.77,24.73-13.5,35.57c-6.9,11.1-14.8,22.01-19.22,34.15
					c-0.09,0.69-0.19,1.39-0.25,2.09c-1.05,11.61,2.07,23.33,7.31,33.75c5.24,10.42,12.51,19.67,20.17,28.46
					c-3.57-9.34-2.47-20.32-0.26-30.06c2.22-9.75,6.58-18.89,11.59-27.54c5.49-9.47,11.89-18.67,14.6-29.28s-2.49-22.07-10.37-29.66
					C382.85,242.47,379.92,236.41,377.8,229.83z"/>
				<g>
					<linearGradient id="SVGID_2_" gradientUnits="userSpaceOnUse" x1="381.1721" y1="260.322" x2="447.467" y2="260.322">
						<stop  offset="0" style="stop-color:#484BA3"/>
						<stop  offset="1" style="stop-color:#6468CC"/>
					</linearGradient>
					<path class="st3" d="M384.95,350.78c-3.85-23.96-4.76-48.4-2.71-72.58c1.14-13.47,3.41-27.43,11.23-38.47
						c5.77-8.13,14.28-14.27,18.82-23.15c7.99-15.66,1.71-35.96,10.41-51.23c3.13-5.5,9.24-10.23,15.37-8.67
						c6.29,1.6,9.34,8.95,9.41,15.44c0.18,18.56-15.6,33.64-18.77,51.93c-3.16,18.27,6.65,36.13,8.62,54.57
						c1.69,15.81-2.51,31.83-9.49,46.11c-6.99,14.29-16.67,27.06-26.56,39.52C393.49,363,386.19,358.56,384.95,350.78z"/>
					<path class="st2" d="M384.95,350.78c-3.85-23.96-4.76-48.4-2.71-72.58c1.14-13.47,3.41-27.43,11.23-38.47
						c5.77-8.13,14.28-14.27,18.82-23.15c7.99-15.66,1.71-35.96,10.41-51.23c3.13-5.5,9.24-10.23,15.37-8.67
						c6.29,1.6,9.34,8.95,9.41,15.44c0.18,18.56-15.6,33.64-18.77,51.93c-3.16,18.27,6.65,36.13,8.62,54.57
						c1.69,15.81-2.51,31.83-9.49,46.11c-6.99,14.29-16.67,27.06-26.56,39.52C393.49,363,386.19,358.56,384.95,350.78z"/>
					<path class="st2" d="M411.53,217.95c-4.67,8.16-12.6,14.07-18.07,21.78c-7.82,11.03-10.09,24.99-11.23,38.47
						c-1.67,19.77-1.36,39.7,0.9,59.41c3.26,8.51,7.15,16.78,11.62,24.74c2.04,0.91,4.26,1.55,6.52,1.91
						c2.86-3.61,5.71-7.24,8.48-10.93c9.28-16.7,16.63-34.42,18.63-53.3C431.35,271.94,422.25,244.32,411.53,217.95z"/>
					<linearGradient id="SVGID_3_" gradientUnits="userSpaceOnUse" x1="386.4815" y1="369.3952" x2="386.4815" y2="115.7359">
						<stop  offset="0" style="stop-color:#484BA3"/>
						<stop  offset="1" style="stop-color:#6468CC"/>
					</linearGradient>
					<path class="st4" d="M373.64,363.06c-15.69-6.26-23.45-24.89-22.47-41.75c0.98-16.86,8.77-32.46,16.19-47.63
						c7.42-15.17,14.78-31.09,14.8-47.98c0.01-19-9.29-36.84-11.19-55.75c-1.47-14.6,1.64-29.62,8.79-42.43
						c2.84-5.09,6.79-10.18,12.47-11.48c8.27-1.9,16.33,5.54,18.35,13.78c2.02,8.24-0.27,16.85-2.41,25.06
						c-3.81,14.57-7.21,29.57-5.81,44.56c1.62,17.31,9.49,33.32,14.26,50.04c11.48,40.28,3.9,85.57-20.08,119.92
						C388.65,367.52,381.17,366.07,373.64,363.06z"/>
					<path class="st5" d="M417.9,269.98c-0.91-0.41-1.97-0.02-2.38,0.89c-3.8,8.34-9.29,15.88-16.01,22.1
						c0.4-1.62,0.78-3.24,1.1-4.88c3.71-19.07,0.96-38.35-2.21-54.7c-0.26-1.36-0.54-2.72-0.81-4.08c2.56-4.09,4.88-8.39,6.87-12.79
						c0.41-0.91,0.01-1.97-0.9-2.38c-0.91-0.41-1.97-0.01-2.38,0.9c-1.4,3.09-2.97,6.13-4.67,9.08c-0.41-1.92-0.82-3.84-1.22-5.73
						c-2.68-12.5-5.45-25.42-6.53-38.31c-0.62-7.37-0.62-14.32-0.02-20.84c5.46-4.88,10.77-10.06,15.78-15.4
						c0.68-0.73,0.64-1.86-0.08-2.54c-0.72-0.68-1.86-0.64-2.54,0.08c-3.99,4.26-8.18,8.41-12.49,12.39
						c1.43-9.5,4.24-18.01,8.44-25.42c0.49-0.86,0.19-1.96-0.68-2.45c-0.87-0.49-1.96-0.19-2.45,0.68
						c-7.37,13.01-10.68,29.13-9.89,47.97c-2.84-3.56-5.98-6.88-9.39-9.9c-0.74-0.66-1.88-0.59-2.54,0.15
						c-0.66,0.74-0.59,1.88,0.15,2.54c4.59,4.09,8.7,8.73,12.19,13.79c0.01,0.01,0.01,0.01,0.02,0.02c1.15,12.85,3.87,25.63,6.53,38
						c1.05,4.89,2.13,9.95,3.1,14.93c2.02,10.4,3.85,22.01,3.91,33.92c-3.73-7.51-8.45-14.46-14.12-20.7
						c-0.67-0.74-1.8-0.79-2.54-0.12c-0.74,0.67-0.79,1.81-0.12,2.54c7.01,7.72,12.53,16.54,16.42,26.22
						c0.03,0.07,0.08,0.13,0.12,0.2c-0.26,3.75-0.72,7.52-1.45,11.27c-0.65,3.36-1.53,6.7-2.52,10.01
						c-0.08,0.18-0.14,0.36-0.16,0.55c-1.79,5.84-3.97,11.59-6.1,17.22c-1.18,3.1-2.38,6.3-3.52,9.49
						c-6.19-11.64-11.28-23.89-15.1-36.51c-0.29-0.95-1.29-1.49-2.24-1.2c-0.95,0.29-1.49,1.29-1.2,2.24
						c4.21,13.9,9.91,27.38,16.95,40.09c-3.48,10.56-6.6,23.56-4.62,36.5c0.14,0.89,0.9,1.53,1.78,1.53c0.09,0,0.18-0.01,0.27-0.02
						c0.98-0.15,1.66-1.07,1.51-2.05c-2.11-13.77,1.98-27.88,5.78-38.63c1.2-3.39,2.5-6.83,3.77-10.16
						c2.14-5.63,4.32-11.39,6.12-17.27c8.99-7.12,16.24-16.38,21.01-26.82C419.21,271.46,418.81,270.39,417.9,269.98z"/>
				</g>
				<path class="st6" d="M408.3,362.13c-7.79,0.43-15.74,1.21-23.6,1.57c-7.86-0.36-15.81-1.14-23.6-1.57
					c-1.53,19.4,3.26,39.25,13.49,55.81h4.19h11.84h4.19C405.03,401.38,409.83,381.53,408.3,362.13z"/>
				<path class="st5" d="M408.3,362.13c-7.79,0.43-15.74,1.21-23.6,1.57c-7.86-0.36-15.81-1.14-23.6-1.57
					c-0.47,5.95-0.34,11.95,0.35,17.88l47.1-12.65C408.52,365.62,408.44,363.87,408.3,362.13z"/>
				<rect x="356.93" y="356.71" class="st6" width="55.54" height="9.6"/>
				<rect x="356.93" y="356.71" class="st7" width="55.54" height="9.6"/>
			</g>
			<g>
				<path class="st8" d="M347.9,418.09H153.06c-9.95,0-18.02-8.07-18.02-18.02V137.49c0-9.95,8.07-18.02,18.02-18.02H347.9
					c9.95,0,18.02,8.07,18.02,18.02v262.58C365.93,410.02,357.86,418.09,347.9,418.09z"/>
				<g class="st5">
					<path class="st9" d="M365.93,190.26L141.95,414.24c3.06,2.41,6.92,3.85,11.12,3.85h30.26l182.6-182.6V190.26z"/>
					<path class="st9" d="M135.04,398.96l230.89-230.89v-30.58c0-9.95-8.07-18.02-18.02-18.02h-23.84L135.04,308.49V398.96z"/>
				</g>
				<path class="st9" d="M347.9,123.97h-47.61v5.19c0,3.35-2.72,6.07-6.07,6.07h-87.47c-3.35,0-6.07-2.72-6.07-6.07v-5.19h-47.61
					c-7.46,0-13.52,6.07-13.52,13.52v262.58c0,7.46,6.07,13.52,13.52,13.52H347.9c7.46,0,13.52-6.07,13.52-13.52V137.49
					C361.43,130.03,355.36,123.97,347.9,123.97z"/>
				<path class="st2" d="M252.74,127.65c0,1.25-1.01,2.26-2.26,2.26c-1.25,0-2.26-1.01-2.26-2.26c0-1.25,1.01-2.26,2.26-2.26
					C251.73,125.39,252.74,126.4,252.74,127.65z"/>
				<path class="st2" d="M230.07,127.65c0,1.25-1.01,2.26-2.26,2.26c-1.25,0-2.26-1.01-2.26-2.26c0-1.25,1.01-2.26,2.26-2.26
					C229.06,125.39,230.07,126.4,230.07,127.65z"/>
				<path class="st2" d="M275.41,127.65c0,1.25-1.01,2.26-2.26,2.26c-1.25,0-2.26-1.01-2.26-2.26c0-1.25,1.01-2.26,2.26-2.26
					C274.4,125.39,275.41,126.4,275.41,127.65z"/>
				<g>
					<g class="st5">
						<path d="M178.4,199.75h-15.67c-6.41,0-11.63-5.22-11.63-11.63v-15.67c0-6.41,5.22-11.63,11.63-11.63h15.67
							c6.41,0,11.63,5.22,11.63,11.63v15.67C190.03,194.53,184.81,199.75,178.4,199.75z M162.73,168.92c-1.95,0-3.53,1.58-3.53,3.53
							v15.67c0,1.95,1.58,3.53,3.53,3.53h15.67c1.95,0,3.53-1.58,3.53-3.53v-15.67c0-1.95-1.58-3.53-3.53-3.53H162.73z"/>
					</g>
					<g>
						<path class="st5" d="M339.93,169.88H202.51c-1.96,0-3.55-1.59-3.55-3.55l0,0c0-1.96,1.59-3.55,3.55-3.55h137.42
							c1.96,0,3.55,1.59,3.55,3.55l0,0C343.48,168.29,341.89,169.88,339.93,169.88z"/>
						<path class="st5" d="M339.61,184.09H202.19c-1.96,0-3.55-1.59-3.55-3.55v0c0-1.96,1.59-3.55,3.55-3.55h137.42
							c1.96,0,3.55,1.59,3.55,3.55v0C343.16,182.5,341.57,184.09,339.61,184.09z"/>
						<path class="st5" d="M269.12,198.29h-66.62c-1.96,0-3.55-1.59-3.55-3.55l0,0c0-1.96,1.59-3.55,3.55-3.55h66.62
							c1.96,0,3.55,1.59,3.55,3.55l0,0C272.68,196.7,271.09,198.29,269.12,198.29z"/>
					</g>
				</g>
				<g>
					<g class="st5">
						<path d="M178.4,257.29h-15.67c-6.41,0-11.63-5.22-11.63-11.63v-15.67c0-6.41,5.22-11.63,11.63-11.63h15.67
							c6.41,0,11.63,5.22,11.63,11.63v15.67C190.03,252.07,184.81,257.29,178.4,257.29z M162.73,226.46c-1.95,0-3.53,1.58-3.53,3.53
							v15.67c0,1.95,1.58,3.53,3.53,3.53h15.67c1.95,0,3.53-1.58,3.53-3.53v-15.67c0-1.95-1.58-3.53-3.53-3.53H162.73z"/>
					</g>
					<g>
						<path class="st5" d="M339.93,227.42H202.51c-1.96,0-3.55-1.59-3.55-3.55l0,0c0-1.96,1.59-3.55,3.55-3.55h137.42
							c1.96,0,3.55,1.59,3.55,3.55l0,0C343.48,225.83,341.89,227.42,339.93,227.42z"/>
						<path class="st5" d="M339.61,241.63H202.19c-1.96,0-3.55-1.59-3.55-3.55l0,0c0-1.96,1.59-3.55,3.55-3.55h137.42
							c1.96,0,3.55,1.59,3.55,3.55l0,0C343.16,240.04,341.57,241.63,339.61,241.63z"/>
						<path class="st5" d="M269.12,255.83h-66.62c-1.96,0-3.55-1.59-3.55-3.55v0c0-1.96,1.59-3.55,3.55-3.55h66.62
							c1.96,0,3.55,1.59,3.55,3.55v0C272.68,254.24,271.09,255.83,269.12,255.83z"/>
					</g>
				</g>
				<g>
					<g class="st5">
						<path d="M178.4,314.83h-15.67c-6.41,0-11.63-5.22-11.63-11.63v-15.67c0-6.41,5.22-11.63,11.63-11.63h15.67
							c6.41,0,11.63,5.22,11.63,11.63v15.67C190.03,309.61,184.81,314.83,178.4,314.83z M162.73,284c-1.95,0-3.53,1.58-3.53,3.53
							v15.67c0,1.95,1.58,3.53,3.53,3.53h15.67c1.95,0,3.53-1.58,3.53-3.53v-15.67c0-1.95-1.58-3.53-3.53-3.53H162.73z"/>
					</g>
					<g>
						<path class="st5" d="M339.93,284.96H202.51c-1.96,0-3.55-1.59-3.55-3.55l0,0c0-1.96,1.59-3.55,3.55-3.55h137.42
							c1.96,0,3.55,1.59,3.55,3.55l0,0C343.48,283.37,341.89,284.96,339.93,284.96z"/>
						<path class="st5" d="M339.61,299.17H202.19c-1.96,0-3.55-1.59-3.55-3.55l0,0c0-1.96,1.59-3.55,3.55-3.55h137.42
							c1.96,0,3.55,1.59,3.55,3.55l0,0C343.16,297.58,341.57,299.17,339.61,299.17z"/>
						<path class="st5" d="M269.12,313.37h-66.62c-1.96,0-3.55-1.59-3.55-3.55l0,0c0-1.96,1.59-3.55,3.55-3.55h66.62
							c1.96,0,3.55,1.59,3.55,3.55l0,0C272.68,311.78,271.09,313.37,269.12,313.37z"/>
					</g>
				</g>
				<g>
					<g class="st5">
						<path d="M178.4,372.37h-15.67c-6.41,0-11.63-5.22-11.63-11.63v-15.67c0-6.41,5.22-11.63,11.63-11.63h15.67
							c6.41,0,11.63,5.22,11.63,11.63v15.67C190.03,367.15,184.81,372.37,178.4,372.37z M162.73,341.54c-1.95,0-3.53,1.58-3.53,3.53
							v15.67c0,1.95,1.58,3.53,3.53,3.53h15.67c1.95,0,3.53-1.58,3.53-3.53v-15.67c0-1.95-1.58-3.53-3.53-3.53H162.73z"/>
					</g>
					<g>
						<path class="st5" d="M339.93,342.5H202.51c-1.96,0-3.55-1.59-3.55-3.55l0,0c0-1.96,1.59-3.55,3.55-3.55h137.42
							c1.96,0,3.55,1.59,3.55,3.55l0,0C343.48,340.91,341.89,342.5,339.93,342.5z"/>
						<path class="st5" d="M339.61,356.71H202.19c-1.96,0-3.55-1.59-3.55-3.55l0,0c0-1.96,1.59-3.55,3.55-3.55h137.42
							c1.96,0,3.55,1.59,3.55,3.55l0,0C343.16,355.12,341.57,356.71,339.61,356.71z"/>
						<path class="st5" d="M269.12,370.91h-66.62c-1.96,0-3.55-1.59-3.55-3.55v0c0-1.96,1.59-3.55,3.55-3.55h66.62
							c1.96,0,3.55,1.59,3.55,3.55v0C272.68,369.32,271.09,370.91,269.12,370.91z"/>
					</g>
				</g>
				<g>
					<circle class="st10" cx="154.79" cy="132.1" r="2.19"/>
					<circle class="st10" cx="162.68" cy="132.1" r="2.19"/>
					<circle class="st10" cx="170.56" cy="132.1" r="2.19"/>
					<circle class="st10" cx="178.45" cy="132.1" r="2.19"/>
					<circle class="st10" cx="186.33" cy="132.1" r="2.19"/>
				</g>
			</g>
			<path class="st11" d="M331.84,347.17h24v24h-24V347.17z"/>
			<linearGradient id="SVGID_4_" gradientUnits="userSpaceOnUse" x1="148.4562" y1="353.7523" x2="192.6681" y2="353.7523">
				<stop  offset="0" style="stop-color:#484BA3"/>
				<stop  offset="1" style="stop-color:#6468CC"/>
			</linearGradient>
			<path class="st12" d="M170.56,331.65c-12.2,0-22.11,9.9-22.11,22.11c0,12.2,9.9,22.11,22.11,22.11s22.11-9.9,22.11-22.11
				C192.67,341.55,182.76,331.65,170.56,331.65z M166.14,364.81l-11.05-11.05l3.12-3.12l7.94,7.91l16.78-16.78l3.12,3.14
				L166.14,364.81z"/>
			<linearGradient id="SVGID_5_" gradientUnits="userSpaceOnUse" x1="148.4562" y1="296.2128" x2="192.6681" y2="296.2128">
				<stop  offset="0" style="stop-color:#484BA3"/>
				<stop  offset="1" style="stop-color:#6468CC"/>
			</linearGradient>
			<path class="st13" d="M170.56,274.11c-12.2,0-22.11,9.9-22.11,22.11s9.9,22.11,22.11,22.11s22.11-9.9,22.11-22.11
				S182.76,274.11,170.56,274.11z M166.14,307.27l-11.05-11.05l3.12-3.12l7.94,7.91l16.78-16.78l3.12,3.14L166.14,307.27z"/>
			<linearGradient id="SVGID_6_" gradientUnits="userSpaceOnUse" x1="148.4562" y1="238.6734" x2="192.6681" y2="238.6734">
				<stop  offset="0" style="stop-color:#484BA3"/>
				<stop  offset="1" style="stop-color:#6468CC"/>
			</linearGradient>
			<path class="st14" d="M170.56,216.57c-12.2,0-22.11,9.9-22.11,22.11c0,12.2,9.9,22.11,22.11,22.11s22.11-9.9,22.11-22.11
				C192.67,226.47,182.76,216.57,170.56,216.57z M166.14,249.73l-11.05-11.05l3.12-3.12l7.94,7.91l16.78-16.78l3.12,3.14
				L166.14,249.73z"/>
			<linearGradient id="SVGID_7_" gradientUnits="userSpaceOnUse" x1="148.4562" y1="180.5364" x2="192.6681" y2="180.5364">
				<stop  offset="0" style="stop-color:#484BA3"/>
				<stop  offset="1" style="stop-color:#6468CC"/>
			</linearGradient>
			<path class="st15" d="M170.56,158.43c-12.2,0-22.11,9.9-22.11,22.11c0,12.2,9.9,22.11,22.11,22.11s22.11-9.9,22.11-22.11
				C192.67,168.33,182.76,158.43,170.56,158.43z M166.14,191.59l-11.05-11.05l3.12-3.12l7.94,7.91l16.78-16.78l3.12,3.14
				L166.14,191.59z"/>
		</g>
	</g>
</g>
<g id="DESIGNED_BY_FREEPIK">
</g>
</svg>
