<svg xmlns="http://www.w3.org/2000/svg" width="30.531" height="30.531" viewBox="0 0 30.531 30.531"><defs><style>.a{fill:#fff;}</style></defs><g transform="translate(-0.765 -0.765)"><g transform="translate(0.765 0.765)"><path class="a" d="M28.813,12.605l.44-4.21-3.867-1.72-1.72-3.867-4.21.44L16.031.765,12.6,3.248,8.4,2.808,6.675,6.675,2.808,8.4l.44,4.209L.765,16.031l2.483,3.425-.44,4.21,3.867,1.72,1.72,3.867,4.21-.44L16.031,31.3l3.426-2.483,4.209.44,1.72-3.866,3.867-1.721-.44-4.209L31.3,16.031ZM27.9,22.887l-3.473,1.545L22.886,27.9l-3.779-.394-3.077,2.23-3.077-2.23L9.174,27.9,7.629,24.432,4.156,22.887l.394-3.779-2.23-3.078,2.23-3.077L4.157,9.174,7.63,7.629,9.175,4.156l3.779.394,3.076-2.23,3.077,2.23,3.779-.394L24.432,7.63,27.9,9.174l-.394,3.779,2.23,3.078-2.23,3.077Z" transform="translate(-0.765 -0.765)"/><path class="a" d="M18.148,25.556l-3.964-3.964-.891.891,4.855,4.855L29.3,16.184l-.891-.891Z" transform="translate(-5.402 -6.142)"/></g></g></svg>