<svg xmlns="http://www.w3.org/2000/svg" width="27.197" height="16.186" viewBox="0 0 27.197 16.186"><defs><style>.a{fill:#959595;}</style></defs><g transform="translate(-2.5 -21.801)"><path class="a" d="M29.182,46.082H27.609V44.109a1.943,1.943,0,0,0,1.03-1.887c0-1.087-.629-1.945-1.4-1.945s-1.4.887-1.4,1.945a1.943,1.943,0,0,0,1.03,1.887v1.973H24.635V37.3a.774.774,0,0,0-.572-.772l-2.316-.658a.747.747,0,0,0-.944.715v9.495h-.972v-10.9a.482.482,0,0,0-.486-.486h-.4a3.149,3.149,0,0,1-5.72,0H12.8a.482.482,0,0,0-.486.486v10.9h-.972V36.587a.75.75,0,0,0-.944-.715l-2.316.658A.774.774,0,0,0,7.5,37.3v8.78H5.274V44.109A1.943,1.943,0,0,0,6.3,42.221c0-1.087-.629-1.945-1.4-1.945s-1.373.858-1.373,1.945a1.943,1.943,0,0,0,1.03,1.887v1.973H2.986a.482.482,0,0,0-.486.486v.143a.482.482,0,0,0,.486.486H29.211a.482.482,0,0,0,.486-.486v-.143A.527.527,0,0,0,29.182,46.082ZM22.061,37.9a.135.135,0,0,1,.143-.143h1.03a.135.135,0,0,1,.143.143v1.115a.135.135,0,0,1-.143.143H22.2a.135.135,0,0,1-.143-.143Zm0,3.089a.135.135,0,0,1,.143-.143h1.03a.135.135,0,0,1,.143.143v1.115a.135.135,0,0,1-.143.143H22.2a.135.135,0,0,1-.143-.143Zm0,3.089a.135.135,0,0,1,.143-.143h1.03a.135.135,0,0,1,.143.143V45.2a.135.135,0,0,1-.143.143H22.2a.135.135,0,0,1-.143-.143Zm-5.2-6.177A.135.135,0,0,1,17,37.76h1.115a.135.135,0,0,1,.143.143v1.115a.135.135,0,0,1-.143.143H17a.135.135,0,0,1-.143-.143Zm0,3.089A.135.135,0,0,1,17,40.849h1.115a.135.135,0,0,1,.143.143v1.115a.135.135,0,0,1-.143.143H17a.135.135,0,0,1-.143-.143Zm0,3.089A.135.135,0,0,1,17,43.937h1.115a.135.135,0,0,1,.143.143V45.2a.135.135,0,0,1-.143.143H17a.135.135,0,0,1-.143-.143ZM13.882,37.9a.135.135,0,0,1,.143-.143H15.14a.135.135,0,0,1,.143.143v1.115a.135.135,0,0,1-.143.143H14.025a.135.135,0,0,1-.143-.143Zm0,3.089a.135.135,0,0,1,.143-.143H15.14a.135.135,0,0,1,.143.143v1.115a.135.135,0,0,1-.143.143H14.025a.135.135,0,0,1-.143-.143Zm0,3.089a.135.135,0,0,1,.143-.143H15.14a.135.135,0,0,1,.143.143V45.2a.135.135,0,0,1-.143.143H14.025a.135.135,0,0,1-.143-.143ZM8.763,37.9a.135.135,0,0,1,.143-.143h1.03a.135.135,0,0,1,.143.143v1.115a.135.135,0,0,1-.143.143h-1a.135.135,0,0,1-.143-.143V37.9Zm0,3.089a.135.135,0,0,1,.143-.143h1.03a.135.135,0,0,1,.143.143v1.115a.135.135,0,0,1-.143.143h-1a.135.135,0,0,1-.143-.143V40.992Zm0,3.089a.135.135,0,0,1,.143-.143h1.03a.135.135,0,0,1,.143.143V45.2a.135.135,0,0,1-.143.143h-1a.135.135,0,0,1-.143-.143V44.08Z" transform="translate(0 -9.211)"/><path class="a" d="M44,26.6a2.4,2.4,0,1,0-2.4-2.4A2.4,2.4,0,0,0,44,26.6Zm-.229-3.575v-.257a.091.091,0,0,1,.086-.086h.286a.091.091,0,0,1,.086.086V23a.609.609,0,0,1,.543.543.1.1,0,0,1-.114.114h-.286a.076.076,0,0,1-.086-.086.19.19,0,0,0-.143-.114h-.257a.251.251,0,0,0-.257.2c0,.057,0,.143.057.172a.247.247,0,0,0,.172.086h.2a.67.67,0,0,1,.515.229.632.632,0,0,1,.172.543.728.728,0,0,1-.572.629v.257a.091.091,0,0,1-.086.086H43.8a.091.091,0,0,1-.086-.086v-.229a.609.609,0,0,1-.543-.543.1.1,0,0,1,.114-.114h.286a.076.076,0,0,1,.086.086.19.19,0,0,0,.143.114h.257a.251.251,0,0,0,.257-.2.307.307,0,0,0-.057-.172.247.247,0,0,0-.172-.086h-.172a.744.744,0,0,1-.744-.629A.722.722,0,0,1,43.773,23.03Z" transform="translate(-27.918)"/></g></svg>