<svg xmlns="http://www.w3.org/2000/svg" width="162.87" height="176.79" viewBox="0 0 162.87 176.79">
  <g id="no-job" transform="translate(-71.121 -251.888)">
    <g id="Group_1928" data-name="Group 1928">
      <ellipse id="Ellipse_90" data-name="Ellipse 90" cx="81.435" cy="5.506" rx="81.435" ry="5.506" transform="translate(71.121 417.667)" fill="#e6f4ff"/>
    </g>
    <g id="Group_2087" data-name="Group 2087">
      <g id="Group_1937" data-name="Group 1937">
        <g id="Group_1931" data-name="Group 1931">
          <g id="Group_1929" data-name="Group 1929">
            <path id="Path_14935" data-name="Path 14935" d="M178.51,365.988a11.578,11.578,0,0,1-4.074-9.471,13.7,13.7,0,0,0-4.363-11.063,11.756,11.756,0,0,1-3.436-6.685q-.049-.276-.116-.554a9.17,9.17,0,0,0-17.887,4.042q.056.261.124.514a11.456,11.456,0,0,1-.572,7.425,13.7,13.7,0,0,0,.53,11.733,11.617,11.617,0,0,1,.08,10.332,18.934,18.934,0,1,0,29.714-6.273Z" fill="#8ac9ff"/>
          </g>
          <g id="Group_1930" data-name="Group 1930">
            <path id="Path_14936" data-name="Path 14936" d="M163.2,359.466a1.181,1.181,0,1,0-2.233.767,135.054,135.054,0,0,1,7.633,38.7,19.542,19.542,0,0,0,2.345-.479A137.548,137.548,0,0,0,163.2,359.466Z" fill="#fff"/>
          </g>
        </g>
        <g id="Group_1932" data-name="Group 1932">
          <path id="Path_14937" data-name="Path 14937" d="M163.169,423.172h16.32l3.583-19.318H159.586Z" fill="#723891"/>
        </g>
        <g id="Group_1936" data-name="Group 1936">
          <g id="Group_1933" data-name="Group 1933">
            <path id="Path_14938" data-name="Path 14938" d="M161.07,365.988a11.581,11.581,0,0,0,4.074-9.471,13.7,13.7,0,0,1,4.363-11.063,11.756,11.756,0,0,0,3.436-6.685q.05-.276.116-.554a9.17,9.17,0,0,1,17.887,4.042q-.056.261-.124.514a11.456,11.456,0,0,0,.572,7.425,13.7,13.7,0,0,1-.53,11.733,11.617,11.617,0,0,0-.08,10.332,18.934,18.934,0,1,1-29.714-6.273Z" fill="#b3dcff"/>
          </g>
          <g id="Group_1934" data-name="Group 1934">
            <path id="Path_14939" data-name="Path 14939" d="M176.382,359.466a1.181,1.181,0,1,1,2.233.767,135.054,135.054,0,0,0-7.633,38.7,19.543,19.543,0,0,1-2.345-.479A137.549,137.549,0,0,1,176.382,359.466Z" fill="#fff"/>
          </g>
          <g id="Group_1935" data-name="Group 1935">
            <path id="Path_14940" data-name="Path 14940" d="M172.041,421.62h-2.379a133.063,133.063,0,0,1-.987-23.934,21.862,21.862,0,0,0,2.335.681A131.264,131.264,0,0,0,172.041,421.62Z" fill="#723891"/>
          </g>
        </g>
      </g>
      <g id="Group_2045" data-name="Group 2045">
        <g id="Group_1940" data-name="Group 1940">
          <g id="Group_1938" data-name="Group 1938">
            <rect id="Rectangle_1748" data-name="Rectangle 1748" width="2.278" height="118.66" transform="translate(190.701 308.154) rotate(-13.693)" fill="#723891"/>
          </g>
          <g id="Group_1939" data-name="Group 1939">
            <rect id="Rectangle_1749" data-name="Rectangle 1749" width="118.66" height="2.278" transform="matrix(0.237, -0.972, 0.972, 0.237, 143.19, 422.903)" fill="#723891"/>
          </g>
        </g>
        <g id="Group_1941" data-name="Group 1941">
          <rect id="Rectangle_1750" data-name="Rectangle 1750" width="83.881" height="64.379" transform="translate(224.036 333.462) rotate(180)" fill="#e6f4ff"/>
        </g>
        <g id="Group_2044" data-name="Group 2044">
          <g id="Group_1958" data-name="Group 1958">
            <g id="Group_1945" data-name="Group 1945">
              <g id="Group_1942" data-name="Group 1942">
                <rect id="Rectangle_1751" data-name="Rectangle 1751" width="7.048" height="7.048" transform="translate(219.277 299.915) rotate(180)" fill="#ffd942"/>
              </g>
              <g id="Group_1943" data-name="Group 1943">
                <rect id="Rectangle_1752" data-name="Rectangle 1752" width="3.974" height="1.139" transform="translate(213.766 295.01)" fill="#fff"/>
              </g>
              <g id="Group_1944" data-name="Group 1944">
                <rect id="Rectangle_1753" data-name="Rectangle 1753" width="3.974" height="1.139" transform="translate(213.766 297.091)" fill="#fff"/>
              </g>
            </g>
            <g id="Group_1949" data-name="Group 1949">
              <g id="Group_1946" data-name="Group 1946">
                <rect id="Rectangle_1754" data-name="Rectangle 1754" width="7.048" height="7.048" transform="translate(211.278 299.915) rotate(180)" fill="#ffd942"/>
              </g>
              <g id="Group_1947" data-name="Group 1947">
                <rect id="Rectangle_1755" data-name="Rectangle 1755" width="3.974" height="1.139" transform="translate(205.768 295.01)" fill="#fff"/>
              </g>
              <g id="Group_1948" data-name="Group 1948">
                <rect id="Rectangle_1756" data-name="Rectangle 1756" width="3.974" height="1.139" transform="translate(205.768 297.091)" fill="#fff"/>
              </g>
            </g>
            <g id="Group_1953" data-name="Group 1953">
              <g id="Group_1950" data-name="Group 1950">
                <rect id="Rectangle_1757" data-name="Rectangle 1757" width="7.048" height="7.048" transform="translate(203.28 299.915) rotate(180)" fill="#ffd942"/>
              </g>
              <g id="Group_1951" data-name="Group 1951">
                <rect id="Rectangle_1758" data-name="Rectangle 1758" width="3.974" height="1.139" transform="translate(197.769 295.01)" fill="#fff"/>
              </g>
              <g id="Group_1952" data-name="Group 1952">
                <rect id="Rectangle_1759" data-name="Rectangle 1759" width="3.974" height="1.139" transform="translate(197.769 297.091)" fill="#fff"/>
              </g>
            </g>
            <g id="Group_1957" data-name="Group 1957">
              <g id="Group_1954" data-name="Group 1954">
                <rect id="Rectangle_1760" data-name="Rectangle 1760" width="23.046" height="14.996" transform="translate(219.277 291.486) rotate(180)" fill="#fff"/>
              </g>
              <g id="Group_1955" data-name="Group 1955">
                <rect id="Rectangle_1761" data-name="Rectangle 1761" width="15.16" height="1.139" transform="translate(200.174 283.418)" fill="#8ac9ff"/>
              </g>
              <g id="Group_1956" data-name="Group 1956">
                <rect id="Rectangle_1762" data-name="Rectangle 1762" width="15.16" height="1.139" transform="translate(200.174 287.055)" fill="#8ac9ff"/>
              </g>
            </g>
          </g>
          <g id="Group_1975" data-name="Group 1975">
            <g id="Group_1962" data-name="Group 1962">
              <g id="Group_1959" data-name="Group 1959">
                <rect id="Rectangle_1763" data-name="Rectangle 1763" width="7.048" height="7.048" transform="translate(193.619 299.915) rotate(180)" fill="#ffd942"/>
              </g>
              <g id="Group_1960" data-name="Group 1960">
                <rect id="Rectangle_1764" data-name="Rectangle 1764" width="3.974" height="1.139" transform="translate(188.107 295.01)" fill="#fff"/>
              </g>
              <g id="Group_1961" data-name="Group 1961">
                <rect id="Rectangle_1765" data-name="Rectangle 1765" width="3.974" height="1.139" transform="translate(188.107 297.091)" fill="#fff"/>
              </g>
            </g>
            <g id="Group_1966" data-name="Group 1966">
              <g id="Group_1963" data-name="Group 1963">
                <rect id="Rectangle_1766" data-name="Rectangle 1766" width="7.048" height="7.048" transform="translate(185.62 299.915) rotate(180)" fill="#ffd942"/>
              </g>
              <g id="Group_1964" data-name="Group 1964">
                <rect id="Rectangle_1767" data-name="Rectangle 1767" width="3.974" height="1.139" transform="translate(180.109 295.01)" fill="#fff"/>
              </g>
              <g id="Group_1965" data-name="Group 1965">
                <rect id="Rectangle_1768" data-name="Rectangle 1768" width="3.974" height="1.139" transform="translate(180.109 297.091)" fill="#fff"/>
              </g>
            </g>
            <g id="Group_1970" data-name="Group 1970">
              <g id="Group_1967" data-name="Group 1967">
                <rect id="Rectangle_1769" data-name="Rectangle 1769" width="7.048" height="7.048" transform="translate(177.621 299.915) rotate(180)" fill="#ffd942"/>
              </g>
              <g id="Group_1968" data-name="Group 1968">
                <rect id="Rectangle_1770" data-name="Rectangle 1770" width="3.974" height="1.139" transform="translate(172.11 295.01)" fill="#fff"/>
              </g>
              <g id="Group_1969" data-name="Group 1969">
                <rect id="Rectangle_1771" data-name="Rectangle 1771" width="3.974" height="1.139" transform="translate(172.11 297.091)" fill="#fff"/>
              </g>
            </g>
            <g id="Group_1974" data-name="Group 1974">
              <g id="Group_1971" data-name="Group 1971">
                <rect id="Rectangle_1772" data-name="Rectangle 1772" width="23.046" height="14.996" transform="translate(193.619 291.486) rotate(180)" fill="#fff"/>
              </g>
              <g id="Group_1972" data-name="Group 1972">
                <rect id="Rectangle_1773" data-name="Rectangle 1773" width="15.16" height="1.139" transform="translate(174.516 283.418)" fill="#8ac9ff"/>
              </g>
              <g id="Group_1973" data-name="Group 1973">
                <rect id="Rectangle_1774" data-name="Rectangle 1774" width="15.16" height="1.139" transform="translate(174.516 287.055)" fill="#8ac9ff"/>
              </g>
            </g>
          </g>
          <g id="Group_1992" data-name="Group 1992">
            <g id="Group_1979" data-name="Group 1979">
              <g id="Group_1976" data-name="Group 1976">
                <rect id="Rectangle_1775" data-name="Rectangle 1775" width="7.048" height="7.048" transform="translate(167.96 299.915) rotate(180)" fill="#ffd942"/>
              </g>
              <g id="Group_1977" data-name="Group 1977">
                <rect id="Rectangle_1776" data-name="Rectangle 1776" width="3.974" height="1.139" transform="translate(162.449 295.01)" fill="#fff"/>
              </g>
              <g id="Group_1978" data-name="Group 1978">
                <rect id="Rectangle_1777" data-name="Rectangle 1777" width="3.974" height="1.139" transform="translate(162.449 297.091)" fill="#fff"/>
              </g>
            </g>
            <g id="Group_1983" data-name="Group 1983">
              <g id="Group_1980" data-name="Group 1980">
                <rect id="Rectangle_1778" data-name="Rectangle 1778" width="7.048" height="7.048" transform="translate(159.961 299.915) rotate(180)" fill="#ffd942"/>
              </g>
              <g id="Group_1981" data-name="Group 1981">
                <rect id="Rectangle_1779" data-name="Rectangle 1779" width="3.974" height="1.139" transform="translate(154.45 295.01)" fill="#fff"/>
              </g>
              <g id="Group_1982" data-name="Group 1982">
                <rect id="Rectangle_1780" data-name="Rectangle 1780" width="3.974" height="1.139" transform="translate(154.45 297.091)" fill="#fff"/>
              </g>
            </g>
            <g id="Group_1987" data-name="Group 1987">
              <g id="Group_1984" data-name="Group 1984">
                <rect id="Rectangle_1781" data-name="Rectangle 1781" width="7.048" height="7.048" transform="translate(151.962 299.915) rotate(180)" fill="#ffd942"/>
              </g>
              <g id="Group_1985" data-name="Group 1985">
                <rect id="Rectangle_1782" data-name="Rectangle 1782" width="3.974" height="1.139" transform="translate(146.451 295.01)" fill="#fff"/>
              </g>
              <g id="Group_1986" data-name="Group 1986">
                <rect id="Rectangle_1783" data-name="Rectangle 1783" width="3.974" height="1.139" transform="translate(146.451 297.091)" fill="#fff"/>
              </g>
            </g>
            <g id="Group_1991" data-name="Group 1991">
              <g id="Group_1988" data-name="Group 1988">
                <rect id="Rectangle_1784" data-name="Rectangle 1784" width="23.046" height="14.996" transform="translate(167.96 291.486) rotate(180)" fill="#fff"/>
              </g>
              <g id="Group_1989" data-name="Group 1989">
                <rect id="Rectangle_1785" data-name="Rectangle 1785" width="15.16" height="1.139" transform="translate(148.857 283.418)" fill="#8ac9ff"/>
              </g>
              <g id="Group_1990" data-name="Group 1990">
                <rect id="Rectangle_1786" data-name="Rectangle 1786" width="15.16" height="1.139" transform="translate(148.857 287.055)" fill="#8ac9ff"/>
              </g>
            </g>
          </g>
          <g id="Group_2009" data-name="Group 2009">
            <g id="Group_1996" data-name="Group 1996">
              <g id="Group_1993" data-name="Group 1993">
                <rect id="Rectangle_1787" data-name="Rectangle 1787" width="7.048" height="7.048" transform="translate(219.277 325.99) rotate(180)" fill="#ffd942"/>
              </g>
              <g id="Group_1994" data-name="Group 1994">
                <rect id="Rectangle_1788" data-name="Rectangle 1788" width="3.974" height="1.139" transform="translate(213.766 321.085)" fill="#fff"/>
              </g>
              <g id="Group_1995" data-name="Group 1995">
                <rect id="Rectangle_1789" data-name="Rectangle 1789" width="3.974" height="1.139" transform="translate(213.766 323.165)" fill="#fff"/>
              </g>
            </g>
            <g id="Group_2000" data-name="Group 2000">
              <g id="Group_1997" data-name="Group 1997">
                <rect id="Rectangle_1790" data-name="Rectangle 1790" width="7.048" height="7.048" transform="translate(211.278 325.99) rotate(180)" fill="#ffd942"/>
              </g>
              <g id="Group_1998" data-name="Group 1998">
                <rect id="Rectangle_1791" data-name="Rectangle 1791" width="3.974" height="1.139" transform="translate(205.768 321.085)" fill="#fff"/>
              </g>
              <g id="Group_1999" data-name="Group 1999">
                <rect id="Rectangle_1792" data-name="Rectangle 1792" width="3.974" height="1.139" transform="translate(205.768 323.165)" fill="#fff"/>
              </g>
            </g>
            <g id="Group_2004" data-name="Group 2004">
              <g id="Group_2001" data-name="Group 2001">
                <rect id="Rectangle_1793" data-name="Rectangle 1793" width="7.048" height="7.048" transform="translate(203.28 325.99) rotate(180)" fill="#ffd942"/>
              </g>
              <g id="Group_2002" data-name="Group 2002">
                <rect id="Rectangle_1794" data-name="Rectangle 1794" width="3.974" height="1.139" transform="translate(197.769 321.085)" fill="#fff"/>
              </g>
              <g id="Group_2003" data-name="Group 2003">
                <rect id="Rectangle_1795" data-name="Rectangle 1795" width="3.974" height="1.139" transform="translate(197.769 323.165)" fill="#fff"/>
              </g>
            </g>
            <g id="Group_2008" data-name="Group 2008">
              <g id="Group_2005" data-name="Group 2005">
                <rect id="Rectangle_1796" data-name="Rectangle 1796" width="23.046" height="14.996" transform="translate(219.277 317.56) rotate(180)" fill="#fff"/>
              </g>
              <g id="Group_2006" data-name="Group 2006">
                <rect id="Rectangle_1797" data-name="Rectangle 1797" width="15.16" height="1.139" transform="translate(200.174 309.493)" fill="#8ac9ff"/>
              </g>
              <g id="Group_2007" data-name="Group 2007">
                <rect id="Rectangle_1798" data-name="Rectangle 1798" width="15.16" height="1.139" transform="translate(200.174 313.13)" fill="#8ac9ff"/>
              </g>
            </g>
          </g>
          <g id="Group_2026" data-name="Group 2026">
            <g id="Group_2013" data-name="Group 2013">
              <g id="Group_2010" data-name="Group 2010">
                <rect id="Rectangle_1799" data-name="Rectangle 1799" width="7.048" height="7.048" transform="translate(193.619 325.99) rotate(180)" fill="#ffd942"/>
              </g>
              <g id="Group_2011" data-name="Group 2011">
                <rect id="Rectangle_1800" data-name="Rectangle 1800" width="3.974" height="1.139" transform="translate(188.107 321.085)" fill="#fff"/>
              </g>
              <g id="Group_2012" data-name="Group 2012">
                <rect id="Rectangle_1801" data-name="Rectangle 1801" width="3.974" height="1.139" transform="translate(188.107 323.165)" fill="#fff"/>
              </g>
            </g>
            <g id="Group_2017" data-name="Group 2017">
              <g id="Group_2014" data-name="Group 2014">
                <rect id="Rectangle_1802" data-name="Rectangle 1802" width="7.048" height="7.048" transform="translate(185.62 325.99) rotate(180)" fill="#ffd942"/>
              </g>
              <g id="Group_2015" data-name="Group 2015">
                <rect id="Rectangle_1803" data-name="Rectangle 1803" width="3.974" height="1.139" transform="translate(180.109 321.085)" fill="#fff"/>
              </g>
              <g id="Group_2016" data-name="Group 2016">
                <rect id="Rectangle_1804" data-name="Rectangle 1804" width="3.974" height="1.139" transform="translate(180.109 323.165)" fill="#fff"/>
              </g>
            </g>
            <g id="Group_2021" data-name="Group 2021">
              <g id="Group_2018" data-name="Group 2018">
                <rect id="Rectangle_1805" data-name="Rectangle 1805" width="7.048" height="7.048" transform="translate(177.621 325.99) rotate(180)" fill="#ffd942"/>
              </g>
              <g id="Group_2019" data-name="Group 2019">
                <rect id="Rectangle_1806" data-name="Rectangle 1806" width="3.974" height="1.139" transform="translate(172.11 321.085)" fill="#fff"/>
              </g>
              <g id="Group_2020" data-name="Group 2020">
                <rect id="Rectangle_1807" data-name="Rectangle 1807" width="3.974" height="1.139" transform="translate(172.11 323.165)" fill="#fff"/>
              </g>
            </g>
            <g id="Group_2025" data-name="Group 2025">
              <g id="Group_2022" data-name="Group 2022">
                <rect id="Rectangle_1808" data-name="Rectangle 1808" width="23.046" height="14.996" transform="translate(193.619 317.56) rotate(180)" fill="#fff"/>
              </g>
              <g id="Group_2023" data-name="Group 2023">
                <rect id="Rectangle_1809" data-name="Rectangle 1809" width="15.16" height="1.139" transform="translate(174.516 309.493)" fill="#8ac9ff"/>
              </g>
              <g id="Group_2024" data-name="Group 2024">
                <rect id="Rectangle_1810" data-name="Rectangle 1810" width="15.16" height="1.139" transform="translate(174.516 313.13)" fill="#8ac9ff"/>
              </g>
            </g>
          </g>
          <g id="Group_2043" data-name="Group 2043">
            <g id="Group_2030" data-name="Group 2030">
              <g id="Group_2027" data-name="Group 2027">
                <rect id="Rectangle_1811" data-name="Rectangle 1811" width="7.048" height="7.048" transform="translate(167.96 325.99) rotate(180)" fill="#ffd942"/>
              </g>
              <g id="Group_2028" data-name="Group 2028">
                <rect id="Rectangle_1812" data-name="Rectangle 1812" width="3.974" height="1.139" transform="translate(162.449 321.085)" fill="#fff"/>
              </g>
              <g id="Group_2029" data-name="Group 2029">
                <rect id="Rectangle_1813" data-name="Rectangle 1813" width="3.974" height="1.139" transform="translate(162.449 323.165)" fill="#fff"/>
              </g>
            </g>
            <g id="Group_2034" data-name="Group 2034">
              <g id="Group_2031" data-name="Group 2031">
                <rect id="Rectangle_1814" data-name="Rectangle 1814" width="7.048" height="7.048" transform="translate(159.961 325.99) rotate(180)" fill="#ffd942"/>
              </g>
              <g id="Group_2032" data-name="Group 2032">
                <rect id="Rectangle_1815" data-name="Rectangle 1815" width="3.974" height="1.139" transform="translate(154.45 321.085)" fill="#fff"/>
              </g>
              <g id="Group_2033" data-name="Group 2033">
                <rect id="Rectangle_1816" data-name="Rectangle 1816" width="3.974" height="1.139" transform="translate(154.45 323.165)" fill="#fff"/>
              </g>
            </g>
            <g id="Group_2038" data-name="Group 2038">
              <g id="Group_2035" data-name="Group 2035">
                <rect id="Rectangle_1817" data-name="Rectangle 1817" width="7.048" height="7.048" transform="translate(151.962 325.99) rotate(180)" fill="#ffd942"/>
              </g>
              <g id="Group_2036" data-name="Group 2036">
                <rect id="Rectangle_1818" data-name="Rectangle 1818" width="3.974" height="1.139" transform="translate(146.451 321.085)" fill="#fff"/>
              </g>
              <g id="Group_2037" data-name="Group 2037">
                <rect id="Rectangle_1819" data-name="Rectangle 1819" width="3.974" height="1.139" transform="translate(146.451 323.165)" fill="#fff"/>
              </g>
            </g>
            <g id="Group_2042" data-name="Group 2042">
              <g id="Group_2039" data-name="Group 2039">
                <rect id="Rectangle_1820" data-name="Rectangle 1820" width="23.046" height="14.996" transform="translate(167.96 317.56) rotate(180)" fill="#fff"/>
              </g>
              <g id="Group_2040" data-name="Group 2040">
                <rect id="Rectangle_1821" data-name="Rectangle 1821" width="15.16" height="1.139" transform="translate(148.857 309.493)" fill="#8ac9ff"/>
              </g>
              <g id="Group_2041" data-name="Group 2041">
                <rect id="Rectangle_1822" data-name="Rectangle 1822" width="15.16" height="1.139" transform="translate(148.857 313.13)" fill="#8ac9ff"/>
              </g>
            </g>
          </g>
        </g>
      </g>
      <g id="Group_2086" data-name="Group 2086">
        <g id="Group_2049" data-name="Group 2049">
          <g id="Group_2047" data-name="Group 2047">
            <g id="Group_2046" data-name="Group 2046">
              <path id="Path_14941" data-name="Path 14941" d="M162.051,319.427a2.235,2.235,0,0,0,.377-1.041,3.623,3.623,0,0,0-2.788-4.172c-16.5-3.917-26.287-17.8-33.286-32.358-.871-1.813-5.832,1.2-7.3,2.074a3.772,3.772,0,0,0-1.781,4.658c7.8,16.992,22.8,28.616,40.98,32.59A3.583,3.583,0,0,0,162.051,319.427Z" fill="#ffb8bc"/>
            </g>
          </g>
          <g id="Group_2048" data-name="Group 2048">
            <path id="Path_14942" data-name="Path 14942" d="M114.175,282.574c-.069-1.858,7.389-6.14,9.287-5.071,3.266,1.841,8.919,23.982,29.578,34.473l-2.835,7.6C127.153,311.844,114.474,290.547,114.175,282.574Z" fill="#8ac9ff"/>
          </g>
        </g>
        <g id="Group_2055" data-name="Group 2055">
          <g id="Group_2051" data-name="Group 2051">
            <g id="Group_2050" data-name="Group 2050">
              <rect id="Rectangle_1823" data-name="Rectangle 1823" width="14.935" height="6.238" transform="translate(85.894 415.568) rotate(-79.92)" fill="#ffb8bc"/>
            </g>
          </g>
          <g id="Group_2053" data-name="Group 2053">
            <g id="Group_2052" data-name="Group 2052">
              <path id="Path_14943" data-name="Path 14943" d="M85.81,414.361c2.217.109,7.617,1.135,7.619,1.135s6.151,3.328,6.88,5.468c.461,1.351-1.694,1.863-2.809,1.593l-12.881-3.651Z" fill="#723891"/>
            </g>
          </g>
          <g id="Group_2054" data-name="Group 2054">
            <path id="Path_14944" data-name="Path 14944" d="M85.81,414.361s4.648,2.619,7.619,1.135l-1.087-.618s-3.535-2.872-5.786-3Z" fill="#ffb8bc"/>
          </g>
        </g>
        <g id="Group_2057" data-name="Group 2057">
          <g id="Group_2056" data-name="Group 2056">
            <path id="Path_14945" data-name="Path 14945" d="M94.912,412.938c5.583-27.559,13.123-66.064,13.813-93.474-6.385-.58-12.792-.845-19.166-1.542-.95,29.408-.876,64.523-4.658,93.357C84.9,411.279,92.523,412.656,94.912,412.938Z" fill="#723891"/>
          </g>
        </g>
        <g id="Group_2063" data-name="Group 2063">
          <g id="Group_2059" data-name="Group 2059">
            <g id="Group_2058" data-name="Group 2058">
              <rect id="Rectangle_1824" data-name="Rectangle 1824" width="14.499" height="6.238" transform="matrix(0.136, -0.991, 0.991, 0.136, 110.537, 416.416)" fill="#ffb8bc"/>
            </g>
          </g>
          <g id="Group_2061" data-name="Group 2061">
            <g id="Group_2060" data-name="Group 2060">
              <path id="Path_14946" data-name="Path 14946" d="M110.439,415.15c2.219.065,7.638.985,7.639.985s6.216,3.207,6.987,5.332c.487,1.342-1.657,1.9-2.777,1.648l-12.951-3.4Z" fill="#723891"/>
            </g>
          </g>
          <g id="Group_2062" data-name="Group 2062">
            <path id="Path_14947" data-name="Path 14947" d="M110.439,415.15s4.7,2.528,7.639.985l-1.1-.6s-3.59-2.8-5.843-2.883C111.137,412.656,110.439,415.154,110.439,415.15Z" fill="#ffb8bc"/>
          </g>
        </g>
        <g id="Group_2065" data-name="Group 2065">
          <g id="Group_2064" data-name="Group 2064">
            <path id="Path_14948" data-name="Path 14948" d="M119.541,412.209c5.183-24.237,8.7-70.246,5.358-94.74-5.837.413-13.439.32-19.285.562,3.316,24.3,7.3,69.44,3.808,93.255C112.792,411.621,116.168,411.9,119.541,412.209Z" fill="#723891"/>
          </g>
        </g>
        <g id="Group_2066" data-name="Group 2066">
          <path id="Path_14949" data-name="Path 14949" d="M90.547,284.255c.414-11.414,13.258-11.76,21.8-11.25,7.357.438,14.929,3.995,14.617,12.572,0,.022,1.09,17.314,1.83,34.366.237,5.453.223,5.872.223,5.872s-8.58,2.964-40.73-.466Z" fill="#b3dcff"/>
        </g>
        <g id="Group_2079" data-name="Group 2079">
          <g id="Group_2068" data-name="Group 2068">
            <g id="Group_2067" data-name="Group 2067">
              <path id="Path_14950" data-name="Path 14950" d="M110.925,275.949h0a2.743,2.743,0,0,0,2.767-2.72l.055-6.294-5.838-1.776.3,8.023A2.742,2.742,0,0,0,110.925,275.949Z" fill="#ffb8bc"/>
            </g>
          </g>
          <g id="Group_2070" data-name="Group 2070">
            <g id="Group_2069" data-name="Group 2069">
              <path id="Path_14951" data-name="Path 14951" d="M109.662,264.985l4.077.411-.022,7.416c-3.221.063-5.6-3.118-5.732-5.6C107.958,266.7,109.662,264.985,109.662,264.985Z" fill="#ff808c"/>
            </g>
          </g>
          <g id="Group_2078" data-name="Group 2078">
            <g id="Group_2071" data-name="Group 2071">
              <path id="Path_14952" data-name="Path 14952" d="M112.768,260.445l4.145-.4a1.941,1.941,0,1,1,.371,3.865l-4.377.419Z" fill="#ff808c"/>
            </g>
            <g id="Group_2072" data-name="Group 2072">
              <path id="Path_14953" data-name="Path 14953" d="M112.089,264.434l-4.146.4a1.941,1.941,0,0,1-.37-3.865l4.377-.419Z" fill="#ffb8bc"/>
            </g>
            <g id="Group_2073" data-name="Group 2073">
              <path id="Path_14954" data-name="Path 14954" d="M113.642,270.161h0a5.492,5.492,0,0,0,4.929-5.972l-.637-6.656a5.492,5.492,0,0,0-5.973-4.928h0a5.491,5.491,0,0,0-4.929,5.972l.637,6.656A5.493,5.493,0,0,0,113.642,270.161Z" fill="#ffb8bc"/>
            </g>
            <g id="Group_2075" data-name="Group 2075">
              <g id="Group_2074" data-name="Group 2074">
                <path id="Path_14955" data-name="Path 14955" d="M106.288,258.482c.1-2.208.313-3.836,2.047-5.164,1.836-1.407,7.344-2.032,9.638-.675,1.165.689,2.73,1.66,1.749,3.268-1.883,3.087-11.782-2.407-11.107,6.465.152,1.993,6.24.81,8.132.588,2.926-.344,3.41,3.2,2.886,5-.93,3.19-3.826,3.919-6.822,3.077C107.273,269.482,106.059,263.678,106.288,258.482Z" fill="#723891"/>
              </g>
            </g>
            <g id="Group_2077" data-name="Group 2077">
              <g id="Group_2076" data-name="Group 2076">
                <path id="Path_14956" data-name="Path 14956" d="M117.828,264.924c.232.852-3.168,1.144-4.01,1.207-.556.042-1.539.074-1.6-.4-.06-.441.954-.729,1.483-.869a15.91,15.91,0,0,1,1.973-.345C116.436,264.416,117.651,264.277,117.828,264.924Z" fill="#ffb8bc"/>
              </g>
            </g>
          </g>
        </g>
        <g id="Group_2083" data-name="Group 2083">
          <g id="Group_2081" data-name="Group 2081">
            <g id="Group_2080" data-name="Group 2080">
              <path id="Path_14957" data-name="Path 14957" d="M76.448,332.3a2.212,2.212,0,0,0,1.106.029,3.624,3.624,0,0,0,3.076-3.966c-1.508-16.889,8.564-30.569,20.158-41.816,1.443-1.4-2.986-5.152-4.279-6.27a3.772,3.772,0,0,0-4.983-.215C77.877,292.835,71.6,310.742,73.584,329.247A3.58,3.58,0,0,0,76.448,332.3Z" fill="#ffb8bc"/>
            </g>
          </g>
          <g id="Group_2082" data-name="Group 2082">
            <path id="Path_14958" data-name="Path 14958" d="M96.251,275.219c1.741-.654,8.164,5.065,7.75,7.2-.713,3.681-18.244,15.572-23.338,38.97l-8.106-.284C72.6,296.794,88.782,278.025,96.251,275.219Z" fill="#b3dcff"/>
          </g>
        </g>
        <g id="Group_2084" data-name="Group 2084">
          <path id="Path_14959" data-name="Path 14959" d="M105.705,275.949h9.967V273.4l-1.878-1.451-2.489,3.167-3.157-3.523-2.442,1.353Z" fill="#b3dcff"/>
        </g>
        <g id="Group_2085" data-name="Group 2085">
          <path id="Path_14960" data-name="Path 14960" d="M109.344,277.312l1.037-1.188,1.847.05.908,1.138c-.277.88-.469,1.464-.738,2.348a293.07,293.07,0,0,0,3,33.994q-.957,4.374-1.782,8.816-1.937-4.082-3.758-8.256a297.223,297.223,0,0,1,.079-34.592C109.738,278.863,109.542,278.074,109.344,277.312Z" fill="#723891"/>
        </g>
      </g>
    </g>
  </g>
</svg>
