<svg xmlns="http://www.w3.org/2000/svg" width="162.87" height="143.528" viewBox="0 0 162.87 143.528">
  <g id="Group_1927" data-name="Group 1927" transform="translate(-516.008 -69.455)">
    <g id="Group_1847" data-name="Group 1847">
      <ellipse id="Ellipse_88" data-name="Ellipse 88" cx="81.435" cy="5.506" rx="81.435" ry="5.506" transform="translate(516.008 201.972)" fill="#e6f4ff"/>
    </g>
    <g id="Group_1926" data-name="Group 1926">
      <g id="Group_1855" data-name="Group 1855">
        <g id="Group_1848" data-name="Group 1848">
          <circle id="Ellipse_89" data-name="Ellipse 89" cx="13.548" cy="13.548" r="13.548" transform="matrix(0.764, -0.646, 0.646, 0.764, 583.418, 87.742)" fill="#b3dcff"/>
        </g>
        <g id="Group_1852" data-name="Group 1852">
          <g id="Group_1849" data-name="Group 1849">
            <path id="Path_14900" data-name="Path 14900" d="M602.511,112.151a.43.43,0,0,1-.431-.431V83.8a.43.43,0,1,1,.861,0V111.72A.43.43,0,0,1,602.511,112.151Z" fill="#fff"/>
          </g>
          <g id="Group_1850" data-name="Group 1850">
            <path id="Path_14901" data-name="Path 14901" d="M602.631,95.4a.425.425,0,0,1-.3-.126.431.431,0,0,1,0-.609l7.312-7.312a.431.431,0,0,1,.609.609l-7.312,7.312A.423.423,0,0,1,602.631,95.4Z" fill="#fff"/>
          </g>
          <g id="Group_1851" data-name="Group 1851">
            <path id="Path_14902" data-name="Path 14902" d="M602.511,100.328a.429.429,0,0,1-.3-.126l-7.312-7.312a.431.431,0,1,1,.61-.609l7.311,7.311a.431.431,0,0,1-.3.736Z" fill="#fff"/>
          </g>
        </g>
        <g id="Group_1853" data-name="Group 1853">
          <path id="Path_14903" data-name="Path 14903" d="M596.087,120.351h12.968L611.9,105H593.24Z" fill="#723891"/>
        </g>
        <g id="Group_1854" data-name="Group 1854">
          <rect id="Rectangle_1738" data-name="Rectangle 1738" width="1.139" height="8.854" transform="translate(601.941 102.867)" fill="#723891"/>
        </g>
      </g>
      <g id="Group_1868" data-name="Group 1868">
        <g id="Group_1858" data-name="Group 1858">
          <g id="Group_1857" data-name="Group 1857">
            <g id="Group_1856" data-name="Group 1856">
              <path id="Path_14904" data-name="Path 14904" d="M558.284,123.784h30.679l-4.232-24.167H551.84l3.842,21.942A2.66,2.66,0,0,0,558.284,123.784Z" fill="#4a245e"/>
            </g>
          </g>
        </g>
        <g id="Group_1861" data-name="Group 1861">
          <g id="Group_1860" data-name="Group 1860">
            <g id="Group_1859" data-name="Group 1859">
              <path id="Path_14905" data-name="Path 14905" d="M558,123.784h32.891l-4.232-24.167H553.764Z" fill="#723891"/>
            </g>
          </g>
        </g>
        <g id="Group_1864" data-name="Group 1864">
          <g id="Group_1863" data-name="Group 1863">
            <g id="Group_1862" data-name="Group 1862">
              <path id="Path_14906" data-name="Path 14906" d="M588.525,121.28H555.633l.439,2.5h51.471l1.039-2.5Z" fill="#4a245e"/>
            </g>
          </g>
        </g>
        <g id="Group_1867" data-name="Group 1867">
          <g id="Group_1866" data-name="Group 1866">
            <g id="Group_1865" data-name="Group 1865">
              <path id="Path_14907" data-name="Path 14907" d="M588.5,121.28l-3.428-19.827H555.853l3.42,19.827Z" fill="#fff"/>
            </g>
          </g>
        </g>
      </g>
      <g id="Group_1870" data-name="Group 1870">
        <g id="Group_1869" data-name="Group 1869">
          <path id="Path_14908" data-name="Path 14908" d="M640.527,95.352h0a3.033,3.033,0,0,0,2.635-3.385l-.532-8h-6.987l1.5,8.75A3.033,3.033,0,0,0,640.527,95.352Z" fill="#ffb8bc"/>
        </g>
      </g>
      <g id="Group_1871" data-name="Group 1871">
        <path id="Path_14909" data-name="Path 14909" d="M638.523,90.248h0a6.072,6.072,0,0,0,5.061-6.906l-1.126-7.306a6.074,6.074,0,0,0-6.907-5.061h0a6.072,6.072,0,0,0-5.061,6.906l1.126,7.306A6.073,6.073,0,0,0,638.523,90.248Z" fill="#ffb8bc"/>
      </g>
      <g id="Group_1873" data-name="Group 1873">
        <g id="Group_1872" data-name="Group 1872">
          <path id="Path_14910" data-name="Path 14910" d="M635.643,87.215c1.365,2.47,6.6,2.457,9.021-1.592,1.923-3.211,3.653-9.54.8-13.152-3.246-4.111-11.288-3.533-15.622-1.155-2.407,1.321-3.233,4.719-1.111,6.673a11.062,11.062,0,0,0,3.248,1.924c1.326.583,1.427,2.075,1.911,3.363A17.554,17.554,0,0,0,635.643,87.215Z" fill="#723891"/>
        </g>
      </g>
      <g id="Group_1874" data-name="Group 1874">
        <path id="Path_14911" data-name="Path 14911" d="M631.377,80.269l2.032-.314a2.147,2.147,0,0,1,.654,4.243l-2.118.326Z" fill="#ffb8bc"/>
      </g>
      <g id="Group_1875" data-name="Group 1875">
        <path id="Path_14912" data-name="Path 14912" d="M631.468,78.3c.156-.858,3.446-.284,3.909.218a1.416,1.416,0,0,1,.385,1.67A2.72,2.72,0,0,1,633.511,82C631.562,82,631.38,78.785,631.468,78.3Z" fill="#723891"/>
      </g>
      <g id="Group_1876" data-name="Group 1876">
        <path id="Path_14913" data-name="Path 14913" d="M590.432,117.032c1.6-1.491,4.123-1.073,6.281-.7,1.418.241,2.85.416,4.287.521.064-.268.127-.534.2-.814,27.837.719,26.916-13.111,38.8-20.249,6.9-4.148,7.631,2.462,7,6.836-2.708,18.762-29.917,24.45-46.98,21.657.008-.1.015-.195.023-.293-2.239-.269-4.334-.4-6.585-.847a6.526,6.526,0,0,1-2.816-1.05,3.477,3.477,0,0,1-.214-5.056Z" fill="#d1b236"/>
      </g>
      <g id="Group_1882" data-name="Group 1882">
        <g id="Group_1879" data-name="Group 1879">
          <g id="Group_1877" data-name="Group 1877">
            <rect id="Rectangle_1739" data-name="Rectangle 1739" width="2.292" height="85.332" transform="translate(638.425 124.779) rotate(-13.523)" fill="#723891"/>
          </g>
          <g id="Group_1878" data-name="Group 1878">
            <rect id="Rectangle_1740" data-name="Rectangle 1740" width="85.332" height="2.292" transform="matrix(0.234, -0.972, 0.972, 0.234, 534.03, 207.208)" fill="#723891"/>
          </g>
        </g>
        <g id="Group_1880" data-name="Group 1880">
          <rect id="Rectangle_1741" data-name="Rectangle 1741" width="124.173" height="8.813" transform="translate(659.406 132.596) rotate(180)" fill="#723891"/>
        </g>
        <g id="Group_1881" data-name="Group 1881">
          <rect id="Rectangle_1742" data-name="Rectangle 1742" width="25.972" height="8.813" transform="translate(561.205 132.596) rotate(180)" fill="#4a245e"/>
        </g>
      </g>
      <g id="Group_1905" data-name="Group 1905">
        <g id="Group_1883" data-name="Group 1883">
          <path id="Path_14914" data-name="Path 14914" d="M665.979,164.932H648.557l.891-10.183a5.442,5.442,0,0,1,5.31-4.879h7.458a4.6,4.6,0,0,1,4.638,5.078Zm-14.936-2.278h12.851l.691-7.905a2.388,2.388,0,0,0-.6-1.851,2.364,2.364,0,0,0-1.772-.75h-7.458a3.117,3.117,0,0,0-3.04,2.8Z" fill="#4a245e"/>
        </g>
        <g id="Group_1892" data-name="Group 1892">
          <g id="Group_1889" data-name="Group 1889">
            <g id="Group_1885" data-name="Group 1885">
              <g id="Group_1884" data-name="Group 1884">
                <rect id="Rectangle_1743" data-name="Rectangle 1743" width="6.237" height="14.498" transform="translate(582.235 189.857) rotate(-0.945)" fill="#ffb8bc"/>
              </g>
            </g>
            <g id="Group_1887" data-name="Group 1887">
              <g id="Group_1886" data-name="Group 1886">
                <path id="Path_14915" data-name="Path 14915" d="M588.961,203.005c-2.21-.2-7.7.064-7.7.064s-6.555,2.439-7.575,4.457c-.644,1.274,1.418,2.08,2.56,1.968l13.264-1.823Z" fill="#723891"/>
              </g>
            </g>
            <g id="Group_1888" data-name="Group 1888">
              <path id="Path_14916" data-name="Path 14916" d="M588.961,203.005s-4.968,1.947-7.7.064l1.161-.461s3.9-2.353,6.147-2.163C588.567,200.445,588.961,203.009,588.961,203.005Z" fill="#ffb8bc"/>
            </g>
          </g>
          <g id="Group_1891" data-name="Group 1891">
            <g id="Group_1890" data-name="Group 1890">
              <path id="Path_14917" data-name="Path 14917" d="M580.2,199.726c-.864-17.624-.181-31.825,3.914-39.227,5.96-10.772,26.132-18.009,51.863-17.684.075,6.393.518,12.76.753,19.146-32.949.22-46.8-5.4-46.069,37.765C587.887,199.74,583.119,199.781,580.2,199.726Z" fill="#8ac9ff"/>
            </g>
          </g>
        </g>
        <g id="Group_1893" data-name="Group 1893">
          <path id="Path_14918" data-name="Path 14918" d="M627.7,161.91s16.162,4.11,22.1,1.883c5.511-2.068,9.829-8,9.606-18.934-.156-7.684-31.7-.949-31.7-.949Z" fill="#8ac9ff"/>
        </g>
        <g id="Group_1902" data-name="Group 1902">
          <g id="Group_1899" data-name="Group 1899">
            <g id="Group_1895" data-name="Group 1895">
              <g id="Group_1894" data-name="Group 1894">
                <rect id="Rectangle_1744" data-name="Rectangle 1744" width="14.498" height="6.237" transform="matrix(0.307, -0.952, 0.952, 0.307, 568.444, 180.924)" fill="#ffb8bc"/>
              </g>
            </g>
            <g id="Group_1897" data-name="Group 1897">
              <g id="Group_1896" data-name="Group 1896">
                <path id="Path_14919" data-name="Path 14919" d="M575.018,181.742c-2.027-.9-7.309-2.426-7.31-2.427s-6.991.193-8.608,1.773c-1.021,1,.67,2.427,1.787,2.69l13.143,2.557Z" fill="#723891"/>
              </g>
            </g>
            <g id="Group_1898" data-name="Group 1898">
              <path id="Path_14920" data-name="Path 14920" d="M575.018,181.742s-5.33.239-7.31-2.427l1.248-.06s4.451-.968,6.516-.063Z" fill="#ffb8bc"/>
            </g>
          </g>
          <g id="Group_1901" data-name="Group 1901">
            <g id="Group_1900" data-name="Group 1900">
              <path id="Path_14921" data-name="Path 14921" d="M567.786,175.81c4.873-16.959,10.1-30.179,16.37-35.861,9.119-8.272,29.061-4.354,52.277,4.91-1.433,3.681-2.663,12.231-2.951,13.461-31.256-10.429-42.548-20.225-55.795,20.868C575.056,178.3,570.53,176.8,567.786,175.81Z" fill="#b3dcff"/>
            </g>
          </g>
        </g>
        <g id="Group_1903" data-name="Group 1903">
          <path id="Path_14922" data-name="Path 14922" d="M595.435,163.828c-2.492-2.345-5.14-4.52-7.832-6.631l.609-.825c8.825-9.963,25.218-13.842,47.766-13.557.075,6.393.518,12.76.753,19.146-18.686.125-31.226-1.626-38.451,4.705Q596.9,165.205,595.435,163.828Z" fill="#8ac9ff"/>
        </g>
        <g id="Group_1904" data-name="Group 1904">
          <path id="Path_14923" data-name="Path 14923" d="M621.379,102.35c.415-11.414,13.258-11.759,21.8-11.25,7.357.438,14.07,3.821,14.939,17.81.126,2.028.768,12.076,1.508,29.128.237,5.453.223,5.872.223,5.872s-22.681,1.283-30.23.865a64.649,64.649,0,0,1-10.5-1.331Z" fill="#ffd942"/>
        </g>
      </g>
      <g id="Group_1910" data-name="Group 1910">
        <g id="Group_1907" data-name="Group 1907">
          <g id="Group_1906" data-name="Group 1906">
            <path id="Path_14924" data-name="Path 14924" d="M573.9,118.761a3.3,3.3,0,0,1,.987-2.528c1.6-1.491,4.122-1.073,6.28-.706a40.331,40.331,0,0,0,17.414-.673c9.2-2.535,16.908-8.7,24.162-14.9a14.491,14.491,0,0,1,2.068-1.662c.921-.526,1.191-.025,1.559.856a16.4,16.4,0,0,1,1.041,5.411,7.585,7.585,0,0,1-.343,3.307,8.033,8.033,0,0,1-2.384,2.845c-6.818,5.893-34.168,13.283-39.433,12.574-2.527-.34-4.834-.444-7.335-.942a6.524,6.524,0,0,1-2.816-1.049A3.324,3.324,0,0,1,573.9,118.761Z" fill="#ffb8bc"/>
          </g>
        </g>
        <g id="Group_1909" data-name="Group 1909">
          <g id="Group_1908" data-name="Group 1908">
            <path id="Path_14925" data-name="Path 14925" d="M631.454,101.821c.631-4.374-.1-10.983-7-6.836-11.886,7.139-10.965,20.969-38.8,20.25a40.513,40.513,0,0,0-1.178,8.244C601.538,126.271,628.746,120.584,631.454,101.821Z" fill="#ffd942"/>
          </g>
        </g>
      </g>
      <g id="Group_1925" data-name="Group 1925">
        <g id="Group_1911" data-name="Group 1911">
          <path id="Path_14926" data-name="Path 14926" d="M631.088,164.932H613.665l.892-10.183a5.442,5.442,0,0,1,5.31-4.879h7.457a4.6,4.6,0,0,1,4.639,5.078Zm-14.937-2.278H629l.691-7.905a2.323,2.323,0,0,0-2.369-2.6h-7.457a3.118,3.118,0,0,0-3.041,2.8Z" fill="#723891"/>
        </g>
        <g id="Group_1912" data-name="Group 1912">
          <path id="Path_14927" data-name="Path 14927" d="M632.9,148.521h30.8l3.512-40.14H632.086l-3.7,40.14Z" fill="#4a245e"/>
        </g>
        <g id="Group_1915" data-name="Group 1915">
          <g id="Group_1913" data-name="Group 1913">
            <path id="Path_14928" data-name="Path 14928" d="M630.737,169.51h35.039l.681-7.785h-35.04Z" fill="#723891"/>
          </g>
          <g id="Group_1914" data-name="Group 1914">
            <path id="Path_14929" data-name="Path 14929" d="M613.217,169.51h17.52l.681-7.785H613.9Z" fill="#4a245e"/>
          </g>
        </g>
        <g id="Group_1922" data-name="Group 1922">
          <g id="Group_1916" data-name="Group 1916">
            <path id="Path_14930" data-name="Path 14930" d="M633.2,204.63a2.837,2.837,0,0,0,2.871,3.146,3.5,3.5,0,0,0,3.422-3.146,2.836,2.836,0,0,0-2.871-3.146A3.5,3.5,0,0,0,633.2,204.63Z" fill="#4a245e"/>
          </g>
          <g id="Group_1917" data-name="Group 1917">
            <rect id="Rectangle_1745" data-name="Rectangle 1745" width="5.236" height="2.278" transform="translate(635.359 202.862) rotate(-84.984)" fill="#4a245e"/>
          </g>
          <g id="Group_1918" data-name="Group 1918">
            <rect id="Rectangle_1746" data-name="Rectangle 1746" width="32.952" height="2.278" transform="matrix(0.087, -0.996, 0.996, 0.087, 635.757, 198.345)" fill="#723891"/>
          </g>
          <g id="Group_1919" data-name="Group 1919">
            <path id="Path_14931" data-name="Path 14931" d="M648.43,202.176l-2.27-.2.21-2.4H627.211l-.227,2.594-2.27-.2.408-4.673h23.732Z" fill="#723891"/>
          </g>
          <g id="Group_1920" data-name="Group 1920">
            <path id="Path_14932" data-name="Path 14932" d="M644.075,204.63a2.837,2.837,0,0,0,2.872,3.146,3.5,3.5,0,0,0,3.421-3.146,2.836,2.836,0,0,0-2.871-3.146A3.5,3.5,0,0,0,644.075,204.63Z" fill="#723891"/>
          </g>
          <g id="Group_1921" data-name="Group 1921">
            <path id="Path_14933" data-name="Path 14933" d="M622.48,204.63a2.836,2.836,0,0,0,2.871,3.146,3.5,3.5,0,0,0,3.421-3.146,2.836,2.836,0,0,0-2.871-3.146A3.5,3.5,0,0,0,622.48,204.63Z" fill="#723891"/>
          </g>
        </g>
        <g id="Group_1923" data-name="Group 1923">
          <path id="Path_14934" data-name="Path 14934" d="M632.573,148.521h35.039l3.512-40.139h-35.04Z" fill="#723891"/>
        </g>
        <g id="Group_1924" data-name="Group 1924">
          <rect id="Rectangle_1747" data-name="Rectangle 1747" width="32.487" height="2.278" transform="translate(647.576 164.236) rotate(-85.007)" fill="#723891"/>
        </g>
      </g>
    </g>
  </g>
</svg>
