<svg xmlns="http://www.w3.org/2000/svg" width="21.072" height="20.981" viewBox="0 0 21.072 20.981"><defs><style>.a{fill:#3188fc;}</style></defs><g transform="translate(0 -1.335)"><g transform="translate(0 1.335)"><path class="a" d="M254.937,560.494a1.7,1.7,0,0,0,1.253.529,1.655,1.655,0,0,0,1.242-.529,1.726,1.726,0,0,0,.517-1.242H254.42A1.694,1.694,0,0,0,254.937,560.494Z" transform="translate(-245.66 -540.042)"/><path class="a" d="M20.958,18.924A14.439,14.439,0,0,1,19.1,15.038a38.286,38.286,0,0,1-1.127-5.932,7.17,7.17,0,0,0-1.495-3.6A6.514,6.514,0,0,0,15.3,4.4,7.2,7.2,0,0,0,12.887,3.22a2.292,2.292,0,0,0-.839-1.345,2.355,2.355,0,0,0-1.518-.54A2.4,2.4,0,0,0,8.2,3.22,7.209,7.209,0,0,0,5.771,4.4,6.542,6.542,0,0,0,4.6,5.508a7.189,7.189,0,0,0-1.483,3.6,37.993,37.993,0,0,1-1.138,5.932A14.622,14.622,0,0,1,.127,18.924.632.632,0,0,0,0,19.281a.573.573,0,0,0,.08.3.611.611,0,0,0,.563.333h19.8A.613.613,0,0,0,21,19.58a.761.761,0,0,0,.069-.311A.6.6,0,0,0,20.958,18.924ZM1.794,18.637a15.372,15.372,0,0,0,1.575-3.874,51.494,51.494,0,0,0,1.011-5.5A5.366,5.366,0,0,1,6.668,5.324a6.388,6.388,0,0,1,2.265-.977A.613.613,0,0,0,9.4,3.738V3.715a1.123,1.123,0,0,1,1.126-1.1,1.109,1.109,0,0,1,1.127,1.1v.023a.635.635,0,0,0,.494.609,6.313,6.313,0,0,1,2.253.977,5.321,5.321,0,0,1,1.023.908,5.97,5.97,0,0,1,1.265,3.035A47.253,47.253,0,0,0,17.7,14.751a15.853,15.853,0,0,0,1.587,3.886H1.794Z" transform="translate(0 -1.335)"/></g></g></svg>