<svg xmlns="http://www.w3.org/2000/svg" width="14.381" height="14.381" viewBox="0 0 14.381 14.381"><defs><style>.a{fill:#3188fc;}</style></defs><g transform="translate(0)"><g transform="translate(0 5.158)"><path class="a" d="M0,183.652v9.222H14.381v-9.222Zm10.082,7.972H4.3V190.53a1.454,1.454,0,0,0,1.025-.415.552.552,0,0,1,.841,0,1.473,1.473,0,0,0,2.05,0,.552.552,0,0,1,.841,0,1.454,1.454,0,0,0,1.025.415v1.094Zm0-2.032a.556.556,0,0,1-.421-.194,1.473,1.473,0,0,0-2.05,0,.552.552,0,0,1-.841,0,1.473,1.473,0,0,0-2.05,0,.556.556,0,0,1-.421.194v-.772h0a.794.794,0,0,1,.791-.791H6.721v-.746a.972.972,0,0,1-.5-.852A1.862,1.862,0,0,1,7.19,184.9a1.862,1.862,0,0,1,.973,1.528.972.972,0,0,1-.5.852v.746H9.291a.794.794,0,0,1,.791.791v.772Z" transform="translate(0 -183.652)"/></g><g transform="translate(0 0.938)"><path class="a" d="M12.817,33.391h-.625v.938a1.407,1.407,0,1,1-2.814,0v-.938H5v.938a1.407,1.407,0,1,1-2.814,0v-.938H1.563A1.568,1.568,0,0,0,0,34.954v1.719H14.381V34.954A1.568,1.568,0,0,0,12.817,33.391Z" transform="translate(0 -33.391)"/></g><g transform="translate(3.126)"><path class="a" d="M111.773,0a.469.469,0,0,0-.469.469V1.876a.469.469,0,1,0,.938,0V.469A.469.469,0,0,0,111.773,0Z" transform="translate(-111.304)"/></g><g transform="translate(10.316)"><path class="a" d="M367.773,0a.469.469,0,0,0-.469.469V1.876a.469.469,0,1,0,.938,0V.469A.469.469,0,0,0,367.773,0Z" transform="translate(-367.304)"/></g></g></svg>