<svg xmlns="http://www.w3.org/2000/svg" width="47.216" height="43" viewBox="0 0 47.216 43"><defs><style>.a{fill:#3188fc;}</style></defs><g transform="translate(0 -2.5)"><path class="a" d="M34.4,39.705A9.289,9.289,0,1,0,33.205,40.9L41.012,48.7A.843.843,0,1,0,42.2,47.512ZM19.686,33.775a7.588,7.588,0,1,1,7.588,7.588A7.6,7.6,0,0,1,19.686,33.775Z" transform="translate(-2.824 -3.451)"/><path class="a" d="M40.331,15.978a15.49,15.49,0,0,0-3.949,0,.829.829,0,0,1-.128.01.843.843,0,0,1-.126-1.677,16.105,16.105,0,0,1,3.443-.1A12.728,12.728,0,0,0,27.052,2.5,13.355,13.355,0,0,0,16.694,7.668a7.571,7.571,0,0,1,2.7,5.793.843.843,0,1,1-1.686,0,5.891,5.891,0,0,0-3.3-5.288c-.058-.029-.117-.058-.177-.085a5.744,5.744,0,0,0-.7-.271l-.089-.023a5.928,5.928,0,0,0-.665-.149l-.2-.03a6.022,6.022,0,0,0-.772-.056,5.91,5.91,0,0,0-5.9,5.9c0,.069.005.137.01.206l.01.177-.008.135c-.006.11-.013.218-.013.325v.531l-.478.228A10.022,10.022,0,0,0,0,23.708a9.154,9.154,0,0,0,9.144,9.145H13.8a10.96,10.96,0,1,1,21.309,0h3.655A8.465,8.465,0,0,0,47.216,24.4,8.643,8.643,0,0,0,40.331,15.978Z"/></g></svg>