<svg xmlns="http://www.w3.org/2000/svg" width="32.176" height="44" viewBox="0 0 32.176 44"><defs><style>.a{fill:#34cb62;}</style></defs><g transform="translate(-0.5)"><path class="a" d="M115.711,238.567A2.558,2.558,0,0,0,113.129,236h-1.113a2.478,2.478,0,0,1-4.844,0h-1.09a2.558,2.558,0,0,0-2.582,2.568v2.471h12.211Zm0,0" transform="translate(-93.017 -213.127)"/><path class="a" d="M152.5,222.066v.791a1.308,1.308,0,0,0,2.617,0v-.8a3.84,3.84,0,0,1-1.238.188h-.033A4.911,4.911,0,0,1,152.5,222.066Zm0,0" transform="translate(-137.269 -200.541)"/><path class="a" d="M136.686,145.9h.024a3.222,3.222,0,0,0,3.185-3.254v-1.561l.016-.376a2,2,0,0,0-.87-1.715,1.776,1.776,0,0,0-.35-.187,8.013,8.013,0,0,1-5.193,3.639v.248a3.178,3.178,0,0,0,3.187,3.206Zm0,0" transform="translate(-120.109 -125.356)"/><path class="a" d="M243.742,17.233H250.4L242.5,9.1V16a1.216,1.216,0,0,0,1.243,1.231Zm0,0" transform="translate(-218.545 -8.22)"/><path class="a" d="M199.761,134.076l-.012.367V136c0,.117,0,.233-.008.349.061-.123.125-.247.176-.371a4.648,4.648,0,0,0,.072-3.555c-.076-.19-.5-1.128-1.225-.954a.591.591,0,0,1-.276,0,3.165,3.165,0,0,1,1.273,2.613Zm0,0" transform="translate(-178.8 -118.704)"/><path class="a" d="M22.791,7.782V0H3.352A2.877,2.877,0,0,0,.5,2.856V41.144A2.877,2.877,0,0,0,3.352,44H29.824a2.877,2.877,0,0,0,2.852-2.856V10.176H25.2a2.38,2.38,0,0,1-2.406-2.394ZM9.32,25.44a3.723,3.723,0,0,1,3.745-3.731h1v-.171a7.6,7.6,0,0,1-3.576-6.107,6.034,6.034,0,0,1,.63-2.928,6.282,6.282,0,0,1,3.9-3.175,4.33,4.33,0,0,1,5.165,2.249,2.414,2.414,0,0,1,2.072,1.7,5.807,5.807,0,0,1-.084,4.44,9.607,9.607,0,0,1-2.126,3.027,6.685,6.685,0,0,1-1.042.914v.048h1.1a3.723,3.723,0,0,1,3.745,3.732v3.021a.593.593,0,0,1-.561.614H9.88a.593.593,0,0,1-.561-.614ZM5.647,32.176h12.76a.581.581,0,1,1,0,1.163H5.647a.581.581,0,1,1,0-1.163ZM27.541,37.7a.582.582,0,0,1-.581.581H5.647a.581.581,0,0,1,0-1.163H26.96a.582.582,0,0,1,.581.581Zm0,0"/><path class="a" d="M121.891,108.5a.582.582,0,0,1,.59-.3,2.832,2.832,0,0,1,1.01.346.574.574,0,0,1-.094-.173l-.019-.058a3.314,3.314,0,0,0-1.534-1.682,3.194,3.194,0,0,0-2.374-.195,5.116,5.116,0,0,0-3.186,2.576,4.85,4.85,0,0,0-.485,2.362,6.465,6.465,0,0,0,.545,2.312c-.01-.117,0-.235,0-.354v-.668a.661.661,0,0,1,.628-.675,6.666,6.666,0,0,0,4.917-3.494Zm0,0" transform="translate(-104.119 -95.997)"/></g></svg>