<svg xmlns="http://www.w3.org/2000/svg" width="50.006" height="59.507" viewBox="0 0 50.006 59.507"><defs><style>.a{fill:#10a9f5;}</style></defs><path class="a" d="M68.7,123.133a1.25,1.25,0,0,0-1.74,0l-4.769,4.622a1.25,1.25,0,1,0,1.74,1.8l2.649-2.568v8.6a1.25,1.25,0,1,0,2.5,0v-8.6l2.649,2.568a1.25,1.25,0,0,0,1.74-1.8Zm0,0" transform="translate(-54.074 -107.431)"/><path class="a" d="M95.2,305.5h12.924a1.25,1.25,0,1,0,0-2.5H95.2a1.25,1.25,0,1,0,0,2.5Zm0,0" transform="translate(-82.204 -265.121)"/><path class="a" d="M93.949,347.25a1.25,1.25,0,0,0,1.25,1.25h29.176a1.25,1.25,0,1,0,0-2.5H95.2A1.25,1.25,0,0,0,93.949,347.25Zm0,0" transform="translate(-82.204 -302.745)"/><path class="a" d="M124.375,389H95.2a1.25,1.25,0,1,0,0,2.5h29.176a1.25,1.25,0,1,0,0-2.5Zm0,0" transform="translate(-82.204 -340.37)"/><path class="a" d="M1.2,33.629H5.126V53.242a6.256,6.256,0,0,0,6.234,6.265H43.806a6.227,6.227,0,0,0,6.2-6.265V15.019a1.227,1.227,0,0,0-.328-.871L36.341.387A1.228,1.228,0,0,0,35.456,0H11.36A6.256,6.256,0,0,0,5.126,6.266v4.861H1.2A1.211,1.211,0,0,0,0,12.381V32.433a1.163,1.163,0,0,0,1.2,1.2ZM36.754,4.348l9.1,9.4H37.956a1.2,1.2,0,0,1-1.2-1.234ZM7.626,6.266A3.754,3.754,0,0,1,11.36,2.5H34.254V12.518a3.7,3.7,0,0,0,3.7,3.734h9.549v36.99a3.724,3.724,0,0,1-3.7,3.765H11.36a3.754,3.754,0,0,1-3.734-3.765V33.629H26.32a1.256,1.256,0,0,0,1.308-1.2V12.381a1.3,1.3,0,0,0-1.308-1.255H7.626ZM2.5,13.627H25.128v17.5H2.5Zm0,0" transform="translate(0 0)"/></svg>