<svg xmlns="http://www.w3.org/2000/svg" width="16.191" height="13.224" viewBox="0 0 16.191 13.224"><defs><style>.a{fill:#fff;}</style></defs><g transform="translate(0)"><path class="a" d="M5.238,23.5a.153.153,0,0,0-.147.113L2,31.326v.27c0,.2-.013.27.152.27H14.231a.685.685,0,0,0,.661-.489l2.76-7.607V23.5Z" transform="translate(-1.46 -18.642)"/><path class="a" d="M3.436,9.818H14.573V8.126a.738.738,0,0,0-.737-.737H7.156L5.806,5.5H.737A.738.738,0,0,0,0,6.237V17.517l2.775-7.21A.685.685,0,0,1,3.436,9.818Z" transform="translate(0 -5.5)"/></g></svg>