<svg xmlns="http://www.w3.org/2000/svg" width="18.904" height="16.541" viewBox="0 0 18.904 16.541"><defs><style>.a{fill:#3188fc;}</style></defs><g transform="translate(0 -2)"><g transform="translate(0 2)"><path class="a" d="M18.9,17.36a1.182,1.182,0,0,1-2.363,0c0-.652.529-2.363,1.182-2.363S18.9,16.708,18.9,17.36ZM17.132,8.5v5.317a.591.591,0,0,0,1.182,0V8.5a.591.591,0,0,0-1.182,0Zm.4-1.226-1.58.364v5c0,1.568-1.795,2.954-6.5,2.954s-6.5-1.386-6.5-2.954v-5l-1.58-.364a1.773,1.773,0,0,1,0-3.455L9.053,2.045A1.806,1.806,0,0,1,9.452,2a1.781,1.781,0,0,1,.39.043L17.53,3.817a1.773,1.773,0,0,1,0,3.455Zm-2.761.637L9.85,9.044a1.791,1.791,0,0,1-.789,0L4.135,7.909v4.724c0,.653,1.772,1.772,5.317,1.772s5.317-1.119,5.317-1.772Zm2.5-1.789a.591.591,0,0,0,0-1.152L9.585,3.2l-.133-.015L9.319,3.2,1.639,4.969a.591.591,0,0,0,0,1.152l7.68,1.772.133.015.133-.015Z" transform="translate(0 -2)"/></g></g></svg>