<svg xmlns="http://www.w3.org/2000/svg" width="29.051" height="29.051" viewBox="0 0 29.051 29.051"><defs><style>.a{fill:#bfa8e2;}</style></defs><path class="a" d="M29.051,19.66a9.412,9.412,0,0,0-6.877-9.049A11.092,11.092,0,1,0,1.538,16.731l-1.5,5.413,5.414-1.5a11.051,11.051,0,0,0,5.157,1.527,9.393,9.393,0,0,0,13.827,5.572L29.01,29.01l-1.264-4.571a9.357,9.357,0,0,0,1.305-4.778ZM5.723,18.807l-3.241.9.9-3.241-.2-.32a9.387,9.387,0,1,1,2.868,2.868Zm20.846,7.762-2.4-.665-.321.209a7.691,7.691,0,0,1-11.471-4,11.114,11.114,0,0,0,9.74-9.74,7.691,7.691,0,0,1,4,11.471l-.209.321Zm0,0" transform="translate(0)"/><path class="a" d="M180.5,271h1.7v1.7h-1.7Zm0,0" transform="translate(-170.258 -255.623)"/><path class="a" d="M140.607,93.4a1.685,1.685,0,0,1-.554,1.256l-2,1.83v2.077h1.7V97.24l1.446-1.324a3.4,3.4,0,1,0-5.7-2.512h1.7a1.7,1.7,0,1,1,3.4,0Zm0,0" transform="translate(-127.812 -84.894)"/></svg>