<svg xmlns="http://www.w3.org/2000/svg" width="16.179" height="14.381" viewBox="0 0 16.179 14.381"><defs><style>.a{fill:#3188fc;}</style></defs><g transform="translate(0 -5.001)"><path class="a" d="M15.577,17.033c0-.689-.486-.706-1.064-.937l-2.7-1.08c-.047-.018-.093-.038-.139-.058h0a3.012,3.012,0,0,1-1.058-.731l-.006-.007,0,0c-.009-.014-.019-.028-.026-.041l-.006-.011v0l-.006-.007h0c-.072-.108-.144-.156-.206-.136l0,0h-.008l0,0c-.073.038-.058,0-.088-.084-.073-.2-.193-.572-.212-.627-.028-.1-.1.162-.086-.124L10,12.673l.117-.127c.176-.2.188-.732.276-.861a1.4,1.4,0,0,0,.44-.76c.176-.6.391-1.464.164-1.478a.279.279,0,0,0-.184.09,10.059,10.059,0,0,0,.143-1.094,5.479,5.479,0,0,0-.333-2.2,2.808,2.808,0,0,0-.873-.792,4.517,4.517,0,0,0-.588-.318,6.819,6.819,0,0,0-2.653,0,2.063,2.063,0,0,0-1.328.985A6.187,6.187,0,0,0,4.8,8.443c.012.219.143.588.176.814.019.118.036.118.051.2a.159.159,0,0,0-.066-.012c-.227.014-.012.875.164,1.478a1.4,1.4,0,0,0,.44.76c.088.129.1.66.277.861.028.032.07.078.123.134L6,13.1l.059.235c-.027-.068-.081-.111-.106-.023l-.228.692a.046.046,0,0,0-.035-.02c-.074-.065-.172-.008-.262.141a2.745,2.745,0,0,1-1.086.772l-.007.028-.007.027,0,.011c-.04.018-.081.035-.122.051L1.51,16.1c-.577.231-1.061.248-1.064.937L0,19.382H16.178Z"/></g></svg>