<svg xmlns="http://www.w3.org/2000/svg" width="20.458" height="20.448" viewBox="0 0 20.458 20.448"><defs><style>.a{fill:#3188fc;}</style></defs><path class="a" d="M16.134,5.91a5.91,5.91,0,1,0-9.255,4.871A10.24,10.24,0,0,0,0,20.447H1.6a8.636,8.636,0,0,1,8.626-8.626,5.917,5.917,0,0,0,5.91-5.91Zm-5.91,4.313A4.313,4.313,0,1,1,14.536,5.91a4.318,4.318,0,0,1-4.313,4.313ZM20.458,14.7l-3.76,3.76-1.13-1.13,1.871-1.871H16.055a3.479,3.479,0,0,0-3.474,3.471v1.521h-1.6V18.925a5.078,5.078,0,0,1,5.072-5.067H17.36l-1.791-1.791,1.13-1.129Zm0,0" transform="translate(0)"/></svg>