<svg xmlns="http://www.w3.org/2000/svg" width="40.364" height="37" viewBox="0 0 40.364 37"><defs><style>.a{fill:#3188fc;}</style></defs><g transform="translate(0 -2.5)"><path class="a" d="M41.592,31.353,35.165,28.14a1.77,1.77,0,0,1-.983-1.591V24.274c.154-.188.316-.4.484-.64a15.4,15.4,0,0,0,1.987-3.9A2.669,2.669,0,0,0,38.219,17.3V14.609a2.683,2.683,0,0,0-.673-1.766V9.265a6.031,6.031,0,0,0-1.407-4.39C34.757,3.3,32.514,2.5,29.473,2.5s-5.284.8-6.665,2.375A6.031,6.031,0,0,0,21.4,9.264v3.578a2.683,2.683,0,0,0-.673,1.766V17.3a2.675,2.675,0,0,0,1.007,2.092,14.119,14.119,0,0,0,2.357,4.869v2.226a1.778,1.778,0,0,1-.926,1.561l-6,3.273A6.065,6.065,0,0,0,14,36.648V39.5H44.946V36.78A6.038,6.038,0,0,0,41.592,31.353Z" transform="translate(-4.582)"/><path class="a" d="M12.1,32.726l6-3.273a.771.771,0,0,0,.4-.675V26.884a15.19,15.19,0,0,1-2.245-4.649,3.671,3.671,0,0,1-1.119-2.644V16.9a3.675,3.675,0,0,1,.673-2.113V11.6a7.017,7.017,0,0,1,.065-1.611A9.344,9.344,0,0,0,12.782,9.5c-6.989,0-7.4,5.957-7.4,6.055v3.08A2.342,2.342,0,0,0,4.709,20.2v2.324a2.4,2.4,0,0,0,.882,1.86,10.31,10.31,0,0,0,2.451,4.228v1.845a1.461,1.461,0,0,1-.788,1.288L2.779,34.555A5.331,5.331,0,0,0,0,39.237v2.554H8.409V38.94A7.075,7.075,0,0,1,12.1,32.726Z" transform="translate(0 -2.291)"/></g></svg>