<svg xmlns="http://www.w3.org/2000/svg" width="14.155" height="17.371" viewBox="0 0 14.155 17.371"><defs><style>.a,.b{fill:none;stroke:#8e87d6;stroke-width:0.8px;}.a{stroke-linecap:round;stroke-linejoin:round;}</style></defs><g transform="translate(0.4 110.4)"><g transform="translate(0 -110)"><path class="a" d="M717.693,611.172H705.326a.494.494,0,0,1-.494-.494V595.589a.988.988,0,0,1,.988-.989h8.968l3.4,3.037v13.04A.494.494,0,0,1,717.693,611.172Z" transform="translate(-704.832 -594.601)"/><path class="a" d="M721.338,599.576c-1.736.039-3.036.061-3.036.061a.452.452,0,0,1-.452-.452v-2.729" transform="translate(-709.282 -595.235)"/><line class="b" x2="7.15" transform="translate(2.632 7.666)"/><line class="b" x2="7.15" transform="translate(3.426 10.843)"/><line class="b" x2="5.561" transform="translate(2.632 13.227)"/></g></g></svg>