<svg xmlns="http://www.w3.org/2000/svg" width="296.106" height="191" viewBox="0 0 296.106 191">
  <g id="Group_342" data-name="Group 342" transform="translate(-919.5 -254.5)">
    <g id="Group_341" data-name="Group 341" transform="translate(1464.89 -729.964) rotate(90)">
      <g id="Group_339" data-name="Group 339" transform="translate(984.464 249.283)">
        <rect id="Rectangle_1771" data-name="Rectangle 1771" width="27.733" height="262.107" rx="8" fill="#f0f0f0"/>
        <rect id="Rectangle_1772" data-name="Rectangle 1772" width="28.549" height="262.107" rx="8" transform="translate(31.496)" fill="#f0f0f0"/>
        <rect id="Rectangle_1773" data-name="Rectangle 1773" width="26.917" height="262.107" rx="8" transform="translate(65.185)" fill="#f0f0f0"/>
        <rect id="Rectangle_1774" data-name="Rectangle 1774" width="26.917" height="262.107" rx="8" transform="translate(96.726)" fill="#f0f0f0"/>
        <rect id="Rectangle_1775" data-name="Rectangle 1775" width="27.733" height="262.107" rx="8" transform="translate(128.876)" fill="#f0f0f0"/>
        <rect id="Rectangle_1776" data-name="Rectangle 1776" width="26.917" height="262.107" rx="8" transform="translate(161.911)" fill="#f0f0f0"/>
      </g>
      <g id="Group_340" data-name="Group 340" transform="translate(984.464 249.283)">
        <path id="Rectangle_1771-2" data-name="Rectangle 1771" d="M8,0H19.733a8,8,0,0,1,8,8V262.107a0,0,0,0,1,0,0H0a0,0,0,0,1,0,0V8A8,8,0,0,1,8,0Z" fill="#2c66a4"/>
        <path id="Rectangle_1772-2" data-name="Rectangle 1772" d="M8,0H20.549a8,8,0,0,1,8,8V203.83a0,0,0,0,1,0,0H0a0,0,0,0,1,0,0V8A8,8,0,0,1,8,0Z" transform="translate(31.496 58.277)" fill="#3f4b5c"/>
        <path id="Rectangle_1773-2" data-name="Rectangle 1773" d="M8,0H18.917a8,8,0,0,1,8,8V262.107a0,0,0,0,1,0,0H0a0,0,0,0,1,0,0V8A8,8,0,0,1,8,0Z" transform="translate(65.185)" fill="#378488"/>
        <path id="Rectangle_1774-2" data-name="Rectangle 1774" d="M8,0H18.917a8,8,0,0,1,8,8V237.7a0,0,0,0,1,0,0H0a0,0,0,0,1,0,0V8A8,8,0,0,1,8,0Z" transform="translate(96.726 24.41)" fill="#e29334"/>
        <path id="Rectangle_1775-2" data-name="Rectangle 1775" d="M8,0H19.733a8,8,0,0,1,8,8V250.687a0,0,0,0,1,0,0H0a0,0,0,0,1,0,0V8A8,8,0,0,1,8,0Z" transform="translate(128.876 11.419)" fill="#b6cc99"/>
        <path id="Rectangle_1776-2" data-name="Rectangle 1776" d="M8,0H18.917a8,8,0,0,1,8,8V262.107a0,0,0,0,1,0,0H1a1,1,0,0,1-1-1V8A8,8,0,0,1,8,0Z" transform="translate(161.911)" fill="#5ea0d8"/>
      </g>
    </g>
    <path id="Path_2782" data-name="Path 2782" d="M-35.418,0V-8.2h-2.717v-.9h6.526v.9h-2.717V0Zm5.746-7.878a.732.732,0,0,1-.539-.214.732.732,0,0,1-.215-.54.7.7,0,0,1,.215-.52.744.744,0,0,1,.539-.208.75.75,0,0,1,.533.208.684.684,0,0,1,.221.52.72.72,0,0,1-.221.54A.738.738,0,0,1-29.673-7.878ZM-30.219,0V-6.448h1.092V0Zm5.538,0a2.086,2.086,0,0,1-1.391-.429,1.95,1.95,0,0,1-.507-1.547V-5.525H-27.7v-.923h1.118l.143-1.547h.949v1.547h1.9v.923h-1.9v3.549a1.072,1.072,0,0,0,.247.825,1.346,1.346,0,0,0,.871.215h.676V0ZM-22.2,0V-9.36h1.092V0Zm5.785.156A3.158,3.158,0,0,1-18.05-.266a3,3,0,0,1-1.125-1.177,3.678,3.678,0,0,1-.41-1.781A3.736,3.736,0,0,1-19.181-5a2.93,2.93,0,0,1,1.125-1.183,3.245,3.245,0,0,1,1.67-.423,3.013,3.013,0,0,1,1.618.423A2.862,2.862,0,0,1-13.722-5.07a3.125,3.125,0,0,1,.364,1.482q0,.143-.007.286t-.006.325h-5.135a2.534,2.534,0,0,0,.345,1.229,2.036,2.036,0,0,0,.767.734,2.05,2.05,0,0,0,.981.247,1.954,1.954,0,0,0,1.131-.312,1.785,1.785,0,0,0,.663-.845h1.079a2.91,2.91,0,0,1-.995,1.488A2.9,2.9,0,0,1-16.413.156Zm0-5.837a2.181,2.181,0,0,0-1.385.475,1.912,1.912,0,0,0-.7,1.385h4.056a1.844,1.844,0,0,0-.6-1.365A2.006,2.006,0,0,0-16.413-5.681ZM-8.977,0l3.354-9.1h1.157L-1.125,0H-2.282l-.832-2.34H-6.988L-7.833,0Zm2.314-3.224h3.224l-1.612-4.5ZM1.359,0-1.085-6.448H.059L2-1.053l1.95-5.395H5.064L2.62,0ZM8.846.156A3.158,3.158,0,0,1,7.208-.266,3,3,0,0,1,6.084-1.443a3.678,3.678,0,0,1-.409-1.781A3.736,3.736,0,0,1,6.077-5,2.93,2.93,0,0,1,7.2-6.181,3.245,3.245,0,0,1,8.872-6.6a3.013,3.013,0,0,1,1.618.423A2.862,2.862,0,0,1,11.537-5.07,3.125,3.125,0,0,1,11.9-3.588q0,.143-.007.286t-.006.325H6.753A2.534,2.534,0,0,0,7.1-1.748a2.036,2.036,0,0,0,.767.734,2.05,2.05,0,0,0,.981.247,1.954,1.954,0,0,0,1.131-.312,1.785,1.785,0,0,0,.663-.845h1.079a2.91,2.91,0,0,1-.995,1.488A2.9,2.9,0,0,1,8.846.156Zm0-5.837a2.181,2.181,0,0,0-1.384.475,1.912,1.912,0,0,0-.7,1.385h4.056a1.844,1.844,0,0,0-.6-1.365A2.006,2.006,0,0,0,8.846-5.681ZM13.344,0V-6.448h.988l.091,1.235a2.338,2.338,0,0,1,.91-1.014A2.821,2.821,0,0,1,16.841-6.6V-5.46h-.3a2.7,2.7,0,0,0-1.053.2,1.6,1.6,0,0,0-.767.682,2.6,2.6,0,0,0-.286,1.326V0Zm6.864.156a2.923,2.923,0,0,1-1.339-.273,1.856,1.856,0,0,1-.793-.728,1.958,1.958,0,0,1-.26-.988,1.751,1.751,0,0,1,.754-1.521,3.5,3.5,0,0,1,2.054-.533h1.742v-.078a1.721,1.721,0,0,0-.442-1.28,1.612,1.612,0,0,0-1.183-.436,1.886,1.886,0,0,0-1.1.319,1.4,1.4,0,0,0-.578.929H17.947a2.069,2.069,0,0,1,.474-1.183,2.652,2.652,0,0,1,1.021-.734,3.358,3.358,0,0,1,1.3-.253,2.672,2.672,0,0,1,2.035.722,2.676,2.676,0,0,1,.682,1.917V0h-.975l-.065-1.157a2.557,2.557,0,0,1-.8.93A2.346,2.346,0,0,1,20.208.156Zm.169-.923a1.778,1.778,0,0,0,1.073-.325,2.075,2.075,0,0,0,.682-.845,2.632,2.632,0,0,0,.234-1.092v-.013H20.715a2.143,2.143,0,0,0-1.358.332,1.034,1.034,0,0,0-.4.826,1,1,0,0,0,.37.813A1.6,1.6,0,0,0,20.378-.767Zm7.267-1.261a3.326,3.326,0,0,1-1-.143l-.65.611a1.309,1.309,0,0,0,.358.175,3.789,3.789,0,0,0,.618.13q.4.059,1.131.124a3.075,3.075,0,0,1,1.859.6A1.706,1.706,0,0,1,30.518.793a2.034,2.034,0,0,1-.306,1.066,2.267,2.267,0,0,1-.936.832,3.526,3.526,0,0,1-1.618.325,4.843,4.843,0,0,1-1.547-.227A2.242,2.242,0,0,1,25.058,2.1,1.779,1.779,0,0,1,24.681.936a1.888,1.888,0,0,1,.195-.786,2.1,2.1,0,0,1,.728-.8A2.679,2.679,0,0,1,25.116-.9a2.526,2.526,0,0,1-.371-.306v-.3L25.851-2.6a2.139,2.139,0,0,1-.767-1.716,2.279,2.279,0,0,1,.3-1.157,2.138,2.138,0,0,1,.871-.826A2.919,2.919,0,0,1,27.645-6.6a3.112,3.112,0,0,1,1.014.156h2.379v.819l-1.209.052a2.165,2.165,0,0,1,.377,1.261A2.242,2.242,0,0,1,29.9-3.159a2.194,2.194,0,0,1-.871.826A2.88,2.88,0,0,1,27.645-2.028Zm0-.9a1.611,1.611,0,0,0,1.1-.358,1.3,1.3,0,0,0,.41-1.033,1.282,1.282,0,0,0-.41-1.02,1.611,1.611,0,0,0-1.1-.358,1.632,1.632,0,0,0-1.111.358,1.282,1.282,0,0,0-.41,1.02,1.3,1.3,0,0,0,.41,1.033A1.632,1.632,0,0,0,27.645-2.925ZM25.747.832a1.048,1.048,0,0,0,.546.969,2.674,2.674,0,0,0,1.365.318,2.167,2.167,0,0,0,1.293-.351,1.1,1.1,0,0,0,.488-.936A.943.943,0,0,0,29.1.111a2.082,2.082,0,0,0-1.248-.358q-.715-.052-1.235-.13a1.6,1.6,0,0,0-.7.617A1.331,1.331,0,0,0,25.747.832ZM34.911.156a3.158,3.158,0,0,1-1.638-.422,3,3,0,0,1-1.125-1.177,3.678,3.678,0,0,1-.41-1.781A3.736,3.736,0,0,1,32.142-5a2.93,2.93,0,0,1,1.125-1.183,3.245,3.245,0,0,1,1.67-.423,3.013,3.013,0,0,1,1.619.423A2.862,2.862,0,0,1,37.6-5.07a3.125,3.125,0,0,1,.364,1.482q0,.143-.007.286t-.007.325H32.818a2.534,2.534,0,0,0,.345,1.229,2.036,2.036,0,0,0,.767.734,2.05,2.05,0,0,0,.982.247,1.954,1.954,0,0,0,1.131-.312,1.785,1.785,0,0,0,.663-.845h1.079A2.91,2.91,0,0,1,36.79-.436,2.9,2.9,0,0,1,34.911.156Zm0-5.837a2.181,2.181,0,0,0-1.385.475,1.912,1.912,0,0,0-.7,1.385h4.056a1.844,1.844,0,0,0-.6-1.365A2.006,2.006,0,0,0,34.911-5.681Z" transform="translate(1009 273)" fill="#fff" opacity="0.647"/>
    <path id="Path_2783" data-name="Path 2783" d="M.962,0V-9.1H2.054v4.017H6.773V-9.1H7.865V0H6.773V-4.186H2.054V0Zm11.7.156A3.242,3.242,0,0,1,11.024-.26,3,3,0,0,1,9.873-1.436a3.623,3.623,0,0,1-.423-1.788A3.578,3.578,0,0,1,9.88-5.012a3.037,3.037,0,0,1,1.164-1.176A3.278,3.278,0,0,1,12.688-6.6a3.242,3.242,0,0,1,1.638.416,3,3,0,0,1,1.15,1.176A3.623,3.623,0,0,1,15.9-3.224a3.578,3.578,0,0,1-.429,1.788A3.037,3.037,0,0,1,14.306-.26,3.278,3.278,0,0,1,12.662.156Zm0-.936a2.072,2.072,0,0,0,1.04-.273,2.036,2.036,0,0,0,.78-.819,2.785,2.785,0,0,0,.3-1.352,2.836,2.836,0,0,0-.293-1.352,1.994,1.994,0,0,0-.773-.819,2.048,2.048,0,0,0-1.027-.273,2.072,2.072,0,0,0-1.04.273,2.036,2.036,0,0,0-.78.819,2.785,2.785,0,0,0-.3,1.352,2.785,2.785,0,0,0,.3,1.352,2.051,2.051,0,0,0,.773.819A2.012,2.012,0,0,0,12.662-.78ZM18.473,0,16.588-6.448H17.68l1.365,5.057,1.508-5.057h1.235l1.521,5.057,1.352-5.057h1.1L23.881,0H22.763L21.177-5.317,19.591,0ZM30.42,0V-9.36h1.092V0Zm5.824.156A3.242,3.242,0,0,1,34.606-.26a3,3,0,0,1-1.15-1.176,3.623,3.623,0,0,1-.423-1.788,3.578,3.578,0,0,1,.429-1.788,3.037,3.037,0,0,1,1.163-1.176A3.278,3.278,0,0,1,36.27-6.6a3.242,3.242,0,0,1,1.638.416,3,3,0,0,1,1.151,1.176,3.623,3.623,0,0,1,.423,1.788,3.578,3.578,0,0,1-.429,1.788A3.037,3.037,0,0,1,37.889-.26,3.278,3.278,0,0,1,36.244.156Zm0-.936a2.072,2.072,0,0,0,1.04-.273,2.036,2.036,0,0,0,.78-.819,2.785,2.785,0,0,0,.3-1.352,2.836,2.836,0,0,0-.292-1.352,1.994,1.994,0,0,0-.773-.819,2.048,2.048,0,0,0-1.027-.273,2.072,2.072,0,0,0-1.04.273,2.036,2.036,0,0,0-.78.819,2.785,2.785,0,0,0-.3,1.352,2.785,2.785,0,0,0,.3,1.352,2.051,2.051,0,0,0,.773.819A2.012,2.012,0,0,0,36.244-.78ZM41,0V-6.448h.988l.065,1.157a2.342,2.342,0,0,1,.9-.962A2.527,2.527,0,0,1,44.278-6.6a2.443,2.443,0,0,1,1.826.7,2.947,2.947,0,0,1,.682,2.138V0H45.695V-3.653q0-2.015-1.664-2.015a1.8,1.8,0,0,0-1.384.6,2.464,2.464,0,0,0-.553,1.722V0Zm9.984-2.028a3.326,3.326,0,0,1-1-.143l-.65.611a1.309,1.309,0,0,0,.358.175,3.789,3.789,0,0,0,.618.13q.4.059,1.131.124a3.075,3.075,0,0,1,1.859.6A1.706,1.706,0,0,1,53.859.793a2.034,2.034,0,0,1-.306,1.066,2.267,2.267,0,0,1-.936.832A3.526,3.526,0,0,1,51,3.016a4.843,4.843,0,0,1-1.547-.227A2.242,2.242,0,0,1,48.4,2.1,1.779,1.779,0,0,1,48.022.936a1.888,1.888,0,0,1,.195-.786,2.1,2.1,0,0,1,.728-.8A2.68,2.68,0,0,1,48.458-.9a2.526,2.526,0,0,1-.37-.306v-.3l1.1-1.092a2.139,2.139,0,0,1-.767-1.716,2.279,2.279,0,0,1,.3-1.157A2.138,2.138,0,0,1,49.6-6.3,2.919,2.919,0,0,1,50.986-6.6,3.112,3.112,0,0,1,52-6.448h2.379v.819l-1.209.052a2.165,2.165,0,0,1,.377,1.261,2.242,2.242,0,0,1-.306,1.157,2.194,2.194,0,0,1-.871.826A2.88,2.88,0,0,1,50.986-2.028Zm0-.9a1.611,1.611,0,0,0,1.1-.358,1.3,1.3,0,0,0,.41-1.033,1.282,1.282,0,0,0-.41-1.02,1.611,1.611,0,0,0-1.1-.358,1.632,1.632,0,0,0-1.111.358,1.282,1.282,0,0,0-.41,1.02,1.3,1.3,0,0,0,.41,1.033A1.632,1.632,0,0,0,50.986-2.925ZM49.088.832a1.048,1.048,0,0,0,.546.969A2.674,2.674,0,0,0,51,2.119a2.167,2.167,0,0,0,1.293-.351A1.1,1.1,0,0,0,52.78.832a.943.943,0,0,0-.338-.722,2.082,2.082,0,0,0-1.248-.358q-.715-.052-1.235-.13a1.6,1.6,0,0,0-.7.617A1.331,1.331,0,0,0,49.088.832ZM61.2.156a2.923,2.923,0,0,1-1.339-.273,1.856,1.856,0,0,1-.793-.728,1.958,1.958,0,0,1-.26-.988,1.751,1.751,0,0,1,.754-1.521,3.5,3.5,0,0,1,2.054-.533h1.742v-.078a1.721,1.721,0,0,0-.442-1.28,1.612,1.612,0,0,0-1.183-.436,1.886,1.886,0,0,0-1.1.319,1.4,1.4,0,0,0-.579.929H58.942a2.069,2.069,0,0,1,.475-1.183,2.652,2.652,0,0,1,1.021-.734,3.358,3.358,0,0,1,1.3-.253,2.672,2.672,0,0,1,2.035.722,2.676,2.676,0,0,1,.682,1.917V0h-.975l-.065-1.157a2.557,2.557,0,0,1-.8.93A2.346,2.346,0,0,1,61.2.156Zm.169-.923a1.778,1.778,0,0,0,1.073-.325,2.075,2.075,0,0,0,.682-.845,2.632,2.632,0,0,0,.234-1.092v-.013H61.711a2.143,2.143,0,0,0-1.359.332,1.034,1.034,0,0,0-.4.826,1,1,0,0,0,.371.813A1.6,1.6,0,0,0,61.373-.767ZM68.64-2.028a3.326,3.326,0,0,1-1-.143l-.65.611a1.309,1.309,0,0,0,.357.175,3.789,3.789,0,0,0,.618.13q.4.059,1.131.124a3.075,3.075,0,0,1,1.859.6A1.706,1.706,0,0,1,71.513.793a2.034,2.034,0,0,1-.306,1.066,2.267,2.267,0,0,1-.936.832,3.526,3.526,0,0,1-1.618.325,4.843,4.843,0,0,1-1.547-.227A2.242,2.242,0,0,1,66.053,2.1,1.779,1.779,0,0,1,65.676.936a1.888,1.888,0,0,1,.195-.786,2.1,2.1,0,0,1,.728-.8A2.68,2.68,0,0,1,66.111-.9a2.526,2.526,0,0,1-.37-.306v-.3L66.846-2.6a2.139,2.139,0,0,1-.767-1.716,2.279,2.279,0,0,1,.3-1.157,2.138,2.138,0,0,1,.871-.826A2.919,2.919,0,0,1,68.64-6.6a3.112,3.112,0,0,1,1.014.156h2.379v.819l-1.209.052A2.165,2.165,0,0,1,71.2-4.316,2.242,2.242,0,0,1,70.9-3.159a2.194,2.194,0,0,1-.871.826A2.88,2.88,0,0,1,68.64-2.028Zm0-.9a1.611,1.611,0,0,0,1.1-.358,1.3,1.3,0,0,0,.41-1.033,1.282,1.282,0,0,0-.41-1.02,1.611,1.611,0,0,0-1.1-.358,1.632,1.632,0,0,0-1.111.358,1.282,1.282,0,0,0-.41,1.02,1.3,1.3,0,0,0,.41,1.033A1.632,1.632,0,0,0,68.64-2.925ZM66.742.832a1.048,1.048,0,0,0,.546.969,2.674,2.674,0,0,0,1.365.318,2.167,2.167,0,0,0,1.294-.351,1.1,1.1,0,0,0,.487-.936A.943.943,0,0,0,70.1.111a2.082,2.082,0,0,0-1.248-.358q-.715-.052-1.235-.13a1.6,1.6,0,0,0-.7.617A1.331,1.331,0,0,0,66.742.832Zm9.2-.676A3.242,3.242,0,0,1,74.308-.26a3.005,3.005,0,0,1-1.15-1.176,3.623,3.623,0,0,1-.423-1.788,3.578,3.578,0,0,1,.429-1.788,3.037,3.037,0,0,1,1.163-1.176A3.278,3.278,0,0,1,75.972-6.6a3.242,3.242,0,0,1,1.638.416,3.005,3.005,0,0,1,1.15,1.176,3.623,3.623,0,0,1,.423,1.788,3.578,3.578,0,0,1-.429,1.788A3.037,3.037,0,0,1,77.59-.26,3.278,3.278,0,0,1,75.946.156Zm0-.936a2.072,2.072,0,0,0,1.04-.273,2.036,2.036,0,0,0,.78-.819,2.785,2.785,0,0,0,.3-1.352,2.836,2.836,0,0,0-.293-1.352A1.994,1.994,0,0,0,77-5.395a2.048,2.048,0,0,0-1.027-.273,2.072,2.072,0,0,0-1.04.273,2.036,2.036,0,0,0-.78.819,2.785,2.785,0,0,0-.3,1.352,2.785,2.785,0,0,0,.3,1.352,2.051,2.051,0,0,0,.773.819A2.012,2.012,0,0,0,75.946-.78Z" transform="translate(970 305)" fill="#fff" opacity="0.647"/>
    <path id="Path_2784" data-name="Path 2784" d="M.962,0V-9.1H2.054v4.017H6.773V-9.1H7.865V0H6.773V-4.186H2.054V0Zm11.7.156A3.242,3.242,0,0,1,11.024-.26,3,3,0,0,1,9.873-1.436a3.623,3.623,0,0,1-.423-1.788A3.578,3.578,0,0,1,9.88-5.012a3.037,3.037,0,0,1,1.164-1.176A3.278,3.278,0,0,1,12.688-6.6a3.242,3.242,0,0,1,1.638.416,3,3,0,0,1,1.15,1.176A3.623,3.623,0,0,1,15.9-3.224a3.578,3.578,0,0,1-.429,1.788A3.037,3.037,0,0,1,14.306-.26,3.278,3.278,0,0,1,12.662.156Zm0-.936a2.072,2.072,0,0,0,1.04-.273,2.036,2.036,0,0,0,.78-.819,2.785,2.785,0,0,0,.3-1.352,2.836,2.836,0,0,0-.293-1.352,1.994,1.994,0,0,0-.773-.819,2.048,2.048,0,0,0-1.027-.273,2.072,2.072,0,0,0-1.04.273,2.036,2.036,0,0,0-.78.819,2.785,2.785,0,0,0-.3,1.352,2.785,2.785,0,0,0,.3,1.352,2.051,2.051,0,0,0,.773.819A2.012,2.012,0,0,0,12.662-.78ZM18.473,0,16.588-6.448H17.68l1.365,5.057,1.508-5.057h1.235l1.521,5.057,1.352-5.057h1.1L23.881,0H22.763L21.177-5.317,19.591,0ZM30.485,0V-9.1h1.092V-.871h4.238V0ZM39.91.156A3.242,3.242,0,0,1,38.272-.26a3,3,0,0,1-1.15-1.176A3.623,3.623,0,0,1,36.7-3.224a3.578,3.578,0,0,1,.429-1.788,3.037,3.037,0,0,1,1.163-1.176A3.278,3.278,0,0,1,39.936-6.6a3.242,3.242,0,0,1,1.638.416,3,3,0,0,1,1.151,1.176,3.623,3.623,0,0,1,.423,1.788,3.578,3.578,0,0,1-.429,1.788A3.037,3.037,0,0,1,41.555-.26,3.278,3.278,0,0,1,39.91.156Zm0-.936a2.072,2.072,0,0,0,1.04-.273,2.036,2.036,0,0,0,.78-.819,2.785,2.785,0,0,0,.3-1.352,2.836,2.836,0,0,0-.292-1.352,1.994,1.994,0,0,0-.773-.819,2.048,2.048,0,0,0-1.027-.273,2.072,2.072,0,0,0-1.04.273,2.036,2.036,0,0,0-.78.819,2.785,2.785,0,0,0-.3,1.352,2.785,2.785,0,0,0,.3,1.352,2.051,2.051,0,0,0,.773.819A2.012,2.012,0,0,0,39.91-.78ZM44.668,0V-6.448h.988l.065,1.157a2.342,2.342,0,0,1,.9-.962A2.527,2.527,0,0,1,47.944-6.6a2.443,2.443,0,0,1,1.826.7,2.947,2.947,0,0,1,.682,2.138V0H49.361V-3.653q0-2.015-1.664-2.015a1.8,1.8,0,0,0-1.384.6,2.464,2.464,0,0,0-.553,1.722V0Zm9.984-2.028a3.326,3.326,0,0,1-1-.143L53-1.56a1.309,1.309,0,0,0,.358.175,3.789,3.789,0,0,0,.618.13q.4.059,1.131.124a3.075,3.075,0,0,1,1.859.6A1.706,1.706,0,0,1,57.525.793a2.034,2.034,0,0,1-.306,1.066,2.267,2.267,0,0,1-.936.832,3.526,3.526,0,0,1-1.618.325,4.843,4.843,0,0,1-1.547-.227A2.242,2.242,0,0,1,52.065,2.1,1.779,1.779,0,0,1,51.688.936a1.888,1.888,0,0,1,.195-.786,2.1,2.1,0,0,1,.728-.8A2.68,2.68,0,0,1,52.124-.9a2.526,2.526,0,0,1-.37-.306v-.3l1.1-1.092a2.139,2.139,0,0,1-.767-1.716,2.279,2.279,0,0,1,.3-1.157,2.138,2.138,0,0,1,.871-.826A2.919,2.919,0,0,1,54.652-6.6a3.112,3.112,0,0,1,1.014.156h2.379v.819l-1.209.052a2.165,2.165,0,0,1,.377,1.261,2.242,2.242,0,0,1-.306,1.157,2.194,2.194,0,0,1-.871.826A2.88,2.88,0,0,1,54.652-2.028Zm0-.9a1.611,1.611,0,0,0,1.1-.358,1.3,1.3,0,0,0,.41-1.033,1.282,1.282,0,0,0-.41-1.02,1.611,1.611,0,0,0-1.1-.358,1.632,1.632,0,0,0-1.111.358,1.282,1.282,0,0,0-.41,1.02,1.3,1.3,0,0,0,.41,1.033A1.632,1.632,0,0,0,54.652-2.925ZM52.754.832A1.048,1.048,0,0,0,53.3,1.8a2.674,2.674,0,0,0,1.365.318,2.167,2.167,0,0,0,1.293-.351,1.1,1.1,0,0,0,.487-.936.943.943,0,0,0-.338-.722A2.082,2.082,0,0,0,54.86-.247q-.715-.052-1.235-.13a1.6,1.6,0,0,0-.7.617A1.331,1.331,0,0,0,52.754.832ZM63.076,0V-5.525H62.1v-.923h.975V-7.566a1.77,1.77,0,0,1,.468-1.365,1.953,1.953,0,0,1,1.365-.429h.65v.936h-.481a.992.992,0,0,0-.7.2.925.925,0,0,0-.208.682v1.092h1.586v.923H64.168V0Zm6.656.156A3.242,3.242,0,0,1,68.094-.26a3.005,3.005,0,0,1-1.15-1.176,3.623,3.623,0,0,1-.423-1.788,3.578,3.578,0,0,1,.429-1.788,3.037,3.037,0,0,1,1.163-1.176A3.278,3.278,0,0,1,69.758-6.6a3.242,3.242,0,0,1,1.638.416,3.005,3.005,0,0,1,1.15,1.176,3.623,3.623,0,0,1,.423,1.788,3.578,3.578,0,0,1-.429,1.788A3.037,3.037,0,0,1,71.377-.26,3.278,3.278,0,0,1,69.732.156Zm0-.936a2.072,2.072,0,0,0,1.04-.273,2.036,2.036,0,0,0,.78-.819,2.785,2.785,0,0,0,.3-1.352,2.836,2.836,0,0,0-.293-1.352,1.994,1.994,0,0,0-.773-.819,2.048,2.048,0,0,0-1.027-.273,2.072,2.072,0,0,0-1.04.273,2.036,2.036,0,0,0-.78.819,2.785,2.785,0,0,0-.3,1.352,2.785,2.785,0,0,0,.3,1.352,2.051,2.051,0,0,0,.773.819A2.012,2.012,0,0,0,69.732-.78ZM74.49,0V-6.448h.988l.091,1.235a2.338,2.338,0,0,1,.91-1.014A2.821,2.821,0,0,1,77.987-6.6V-5.46h-.3a2.7,2.7,0,0,0-1.053.2,1.6,1.6,0,0,0-.767.682,2.6,2.6,0,0,0-.286,1.326V0Z" transform="translate(970 337)" fill="#fff" opacity="0.647"/>
    <path id="Path_2785" data-name="Path 2785" d="M3.861.156A3.909,3.909,0,0,1,2.119-.208,2.72,2.72,0,0,1,.975-1.222a2.8,2.8,0,0,1-.4-1.508H1.716a2,2,0,0,0,.247.982,1.818,1.818,0,0,0,.722.715,2.374,2.374,0,0,0,1.176.266,2.108,2.108,0,0,0,1.43-.442A1.406,1.406,0,0,0,5.8-2.314a1.492,1.492,0,0,0-.234-.877,1.75,1.75,0,0,0-.631-.539,5.236,5.236,0,0,0-.91-.364q-.513-.156-1.072-.351a3.83,3.83,0,0,1-1.56-.9A1.976,1.976,0,0,1,.884-6.76a2.32,2.32,0,0,1,.338-1.294,2.383,2.383,0,0,1,.995-.884,3.409,3.409,0,0,1,1.527-.319,3.32,3.32,0,0,1,1.515.325,2.456,2.456,0,0,1,1,.9,2.488,2.488,0,0,1,.371,1.3H5.486a1.59,1.59,0,0,0-.2-.747,1.522,1.522,0,0,0-.591-.6A1.93,1.93,0,0,0,3.7-8.32a1.8,1.8,0,0,0-1.216.377,1.32,1.32,0,0,0-.474,1.079,1.172,1.172,0,0,0,.331.9,2.51,2.51,0,0,0,.93.514l1.378.461a6.642,6.642,0,0,1,1.17.546,2.3,2.3,0,0,1,.813.806,2.447,2.447,0,0,1,.292,1.261,2.4,2.4,0,0,1-.338,1.228A2.511,2.511,0,0,1,5.57-.208,3.6,3.6,0,0,1,3.861.156ZM8.411,0V-9.36H9.5v5.629l2.639-2.717h1.339l-2.86,2.912L13.845,0H12.454L9.5-3.341V0Zm7.215-7.878a.732.732,0,0,1-.539-.214.732.732,0,0,1-.215-.54.7.7,0,0,1,.215-.52.744.744,0,0,1,.539-.208.75.75,0,0,1,.533.208.684.684,0,0,1,.221.52.72.72,0,0,1-.221.54A.738.738,0,0,1,15.626-7.878ZM15.08,0V-6.448h1.092V0Zm2.99,0V-9.36h1.092V0Zm2.886,0V-9.36h1.092V0Zm5.356.156a3.081,3.081,0,0,1-1.924-.585,2.281,2.281,0,0,1-.9-1.586h1.118a1.542,1.542,0,0,0,.539.878,1.756,1.756,0,0,0,1.177.37,1.484,1.484,0,0,0,1.014-.292.906.906,0,0,0,.325-.7.772.772,0,0,0-.422-.78,5.624,5.624,0,0,0-1.19-.351,6.7,6.7,0,0,1-1.04-.3,2.363,2.363,0,0,1-.871-.553,1.287,1.287,0,0,1-.351-.943,1.74,1.74,0,0,1,.631-1.385A2.542,2.542,0,0,1,26.13-6.6a2.651,2.651,0,0,1,1.684.514,2.049,2.049,0,0,1,.76,1.462H27.495a1.125,1.125,0,0,0-.422-.773,1.51,1.51,0,0,0-.955-.28,1.446,1.446,0,0,0-.9.247.783.783,0,0,0-.318.65.675.675,0,0,0,.41.611,4.4,4.4,0,0,0,1.111.377,9.682,9.682,0,0,1,1.137.318,2.15,2.15,0,0,1,.884.559,1.519,1.519,0,0,1,.344,1.072A1.762,1.762,0,0,1,28.125-.41,2.72,2.72,0,0,1,26.312.156Z" transform="translate(970 369)" fill="#fff" opacity="0.647"/>
    <path id="Path_2786" data-name="Path 2786" d="M4.953.156A4.342,4.342,0,0,1,2.645-.436a3.988,3.988,0,0,1-1.5-1.651A5.413,5.413,0,0,1,.611-4.55,5.383,5.383,0,0,1,1.144-7a4.032,4.032,0,0,1,1.5-1.657,4.305,4.305,0,0,1,2.308-.6,4.08,4.08,0,0,1,2.542.748A3.361,3.361,0,0,1,8.749-6.422H7.54a2.426,2.426,0,0,0-.851-1.359,2.705,2.705,0,0,0-1.736-.514,3.181,3.181,0,0,0-1.7.449A2.947,2.947,0,0,0,2.125-6.558a4.664,4.664,0,0,0-.4,2.009,4.664,4.664,0,0,0,.4,2.008A2.947,2.947,0,0,0,3.25-1.255a3.181,3.181,0,0,0,1.7.449,2.754,2.754,0,0,0,1.736-.5A2.36,2.36,0,0,0,7.54-2.639H8.749A3.319,3.319,0,0,1,7.495-.585,4.105,4.105,0,0,1,4.953.156Zm8.242,0A3.242,3.242,0,0,1,11.557-.26a3,3,0,0,1-1.15-1.176,3.623,3.623,0,0,1-.423-1.788,3.578,3.578,0,0,1,.429-1.788,3.037,3.037,0,0,1,1.163-1.176A3.278,3.278,0,0,1,13.221-6.6a3.242,3.242,0,0,1,1.638.416,3,3,0,0,1,1.15,1.176,3.623,3.623,0,0,1,.423,1.788A3.578,3.578,0,0,1,16-1.436,3.037,3.037,0,0,1,14.839-.26,3.278,3.278,0,0,1,13.195.156Zm0-.936a2.072,2.072,0,0,0,1.04-.273,2.036,2.036,0,0,0,.78-.819,2.785,2.785,0,0,0,.3-1.352,2.836,2.836,0,0,0-.292-1.352,1.994,1.994,0,0,0-.774-.819,2.048,2.048,0,0,0-1.027-.273,2.072,2.072,0,0,0-1.04.273,2.036,2.036,0,0,0-.78.819,2.785,2.785,0,0,0-.3,1.352,2.785,2.785,0,0,0,.3,1.352,2.051,2.051,0,0,0,.773.819A2.012,2.012,0,0,0,13.195-.78ZM17.953,0V-6.448h.988l.065,1.157a2.342,2.342,0,0,1,.9-.962A2.527,2.527,0,0,1,21.229-6.6a2.443,2.443,0,0,1,1.826.7,2.947,2.947,0,0,1,.682,2.138V0H22.646V-3.653q0-2.015-1.664-2.015a1.8,1.8,0,0,0-1.385.6,2.464,2.464,0,0,0-.552,1.722V0Zm9.984,0a2.086,2.086,0,0,1-1.391-.429,1.95,1.95,0,0,1-.507-1.547V-5.525H24.921v-.923h1.118l.143-1.547h.949v1.547h1.9v.923h-1.9v3.549a1.072,1.072,0,0,0,.247.825,1.346,1.346,0,0,0,.871.215h.676V0Zm5.2.156A3.158,3.158,0,0,1,31.5-.266a3,3,0,0,1-1.125-1.177,3.678,3.678,0,0,1-.41-1.781A3.736,3.736,0,0,1,30.368-5a2.93,2.93,0,0,1,1.125-1.183,3.245,3.245,0,0,1,1.67-.423,3.013,3.013,0,0,1,1.619.423A2.862,2.862,0,0,1,35.828-5.07a3.125,3.125,0,0,1,.364,1.482q0,.143-.007.286t-.007.325H31.044a2.534,2.534,0,0,0,.345,1.229,2.036,2.036,0,0,0,.767.734,2.05,2.05,0,0,0,.982.247,1.954,1.954,0,0,0,1.131-.312,1.785,1.785,0,0,0,.663-.845H36.01a2.91,2.91,0,0,1-.994,1.488A2.9,2.9,0,0,1,33.137.156Zm0-5.837a2.181,2.181,0,0,0-1.385.475,1.912,1.912,0,0,0-.7,1.385h4.056a1.844,1.844,0,0,0-.6-1.365A2.006,2.006,0,0,0,33.137-5.681ZM36.686,0l2.236-3.224L36.686-6.448h1.183l1.807,2.665L41.5-6.448h1.17L40.43-3.224,42.666,0H41.5l-1.82-2.665L37.869,0Zm9.672,0a2.086,2.086,0,0,1-1.391-.429,1.95,1.95,0,0,1-.507-1.547V-5.525H43.342v-.923H44.46L44.6-7.995h.949v1.547h1.9v.923h-1.9v3.549a1.072,1.072,0,0,0,.247.825,1.346,1.346,0,0,0,.871.215h.676V0Z" transform="translate(970 401)" fill="#fff" opacity="0.647"/>
    <path id="Path_2787" data-name="Path 2787" d="M.962,0V-9.1h3.2a3.648,3.648,0,0,1,1.593.305,2.144,2.144,0,0,1,.942.832,2.264,2.264,0,0,1,.312,1.176,1.955,1.955,0,0,1-.474,1.391,2.5,2.5,0,0,1-1.137.7,2.152,2.152,0,0,1,.923.4,2.243,2.243,0,0,1,.656.78,2.214,2.214,0,0,1,.241,1.027,2.4,2.4,0,0,1-.338,1.255,2.356,2.356,0,0,1-1,.9A3.575,3.575,0,0,1,4.264,0ZM2.054-5.122H4.082a1.972,1.972,0,0,0,1.339-.41,1.432,1.432,0,0,0,.468-1.138,1.415,1.415,0,0,0-.462-1.1A2.011,2.011,0,0,0,4.043-8.19H2.054Zm0,4.212H4.147A2.15,2.15,0,0,0,5.59-1.345,1.516,1.516,0,0,0,6.1-2.561a1.544,1.544,0,0,0-.533-1.229,2.129,2.129,0,0,0-1.443-.461H2.054ZM9.386-7.878a.732.732,0,0,1-.539-.214.732.732,0,0,1-.215-.54.7.7,0,0,1,.215-.52.744.744,0,0,1,.539-.208.75.75,0,0,1,.533.208.684.684,0,0,1,.221.52.72.72,0,0,1-.221.54A.738.738,0,0,1,9.386-7.878ZM8.84,0V-6.448H9.932V0Zm5.135.156a2.923,2.923,0,0,1-1.339-.273,1.856,1.856,0,0,1-.793-.728,1.958,1.958,0,0,1-.26-.988,1.751,1.751,0,0,1,.754-1.521,3.5,3.5,0,0,1,2.054-.533h1.742v-.078a1.721,1.721,0,0,0-.442-1.28,1.612,1.612,0,0,0-1.183-.436,1.886,1.886,0,0,0-1.1.319,1.4,1.4,0,0,0-.579.929H11.713a2.069,2.069,0,0,1,.475-1.183,2.652,2.652,0,0,1,1.02-.734,3.358,3.358,0,0,1,1.3-.253,2.672,2.672,0,0,1,2.035.722,2.676,2.676,0,0,1,.682,1.917V0H16.25l-.065-1.157a2.557,2.557,0,0,1-.8.93A2.346,2.346,0,0,1,13.975.156Zm.169-.923a1.778,1.778,0,0,0,1.073-.325,2.075,2.075,0,0,0,.683-.845,2.632,2.632,0,0,0,.234-1.092v-.013H14.482a2.143,2.143,0,0,0-1.358.332,1.034,1.034,0,0,0-.4.826,1,1,0,0,0,.371.813A1.6,1.6,0,0,0,14.144-.767Zm7.189.923a3.081,3.081,0,0,1-1.924-.585,2.281,2.281,0,0,1-.9-1.586H19.63a1.542,1.542,0,0,0,.539.878,1.756,1.756,0,0,0,1.177.37,1.484,1.484,0,0,0,1.014-.292.906.906,0,0,0,.325-.7.772.772,0,0,0-.422-.78,5.624,5.624,0,0,0-1.19-.351,6.7,6.7,0,0,1-1.04-.3,2.363,2.363,0,0,1-.871-.553,1.287,1.287,0,0,1-.351-.943,1.74,1.74,0,0,1,.631-1.385A2.542,2.542,0,0,1,21.151-6.6a2.651,2.651,0,0,1,1.684.514,2.049,2.049,0,0,1,.76,1.462H22.516a1.125,1.125,0,0,0-.422-.773,1.51,1.51,0,0,0-.955-.28,1.446,1.446,0,0,0-.9.247.783.783,0,0,0-.318.65.675.675,0,0,0,.41.611,4.4,4.4,0,0,0,1.111.377,9.682,9.682,0,0,1,1.137.318,2.15,2.15,0,0,1,.884.559A1.519,1.519,0,0,1,23.8-1.846,1.762,1.762,0,0,1,23.146-.41,2.72,2.72,0,0,1,21.333.156Z" transform="translate(970 435)" fill="#fff" opacity="0.647"/>
    <line id="Line_21" data-name="Line 21" y2="187" transform="translate(942.5 256.5)" fill="none" stroke="#f0f0f0" stroke-linecap="round" stroke-width="4"/>
    <path id="Path_2781" data-name="Path 2781" d="M3.665-12.8,7.849-2.355,12.032-12.8h2.188V0H12.533V-4.983l.158-5.379L8.49,0H7.2L3.006-10.336l.167,5.353V0H1.485V-12.8ZM22.816,0a3.416,3.416,0,0,1-.229-1A3.628,3.628,0,0,1,19.881.176a3.357,3.357,0,0,1-2.307-.8,2.573,2.573,0,0,1-.9-2.017A2.688,2.688,0,0,1,17.8-4.944a5.325,5.325,0,0,1,3.177-.822h1.582v-.747a1.826,1.826,0,0,0-.51-1.358,2.049,2.049,0,0,0-1.5-.505,2.371,2.371,0,0,0-1.459.439A1.3,1.3,0,0,0,18.5-6.873H16.866a2.244,2.244,0,0,1,.505-1.375A3.449,3.449,0,0,1,18.743-9.3a4.613,4.613,0,0,1,1.9-.387,3.759,3.759,0,0,1,2.575.822A2.964,2.964,0,0,1,24.188-6.6v4.377a5.351,5.351,0,0,0,.334,2.083V0Zm-2.7-1.239a2.858,2.858,0,0,0,1.45-.4,2.392,2.392,0,0,0,.993-1.028V-4.614H21.287q-2.988,0-2.988,1.749a1.48,1.48,0,0,0,.51,1.2A1.959,1.959,0,0,0,20.118-1.239Zm8.824-10.573v2.3h1.775v1.257H28.942v5.9a1.317,1.317,0,0,0,.237.857,1,1,0,0,0,.809.286,3.937,3.937,0,0,0,.773-.105V0a4.714,4.714,0,0,1-1.248.176A2.025,2.025,0,0,1,27.87-.483a2.832,2.832,0,0,1-.554-1.872v-5.9H25.585V-9.51h1.731v-2.3ZM36.431-1.151a2.342,2.342,0,0,0,1.521-.527A1.855,1.855,0,0,0,38.672-3H40.21a2.949,2.949,0,0,1-.562,1.556A3.7,3.7,0,0,1,38.263-.264a3.994,3.994,0,0,1-1.833.439,3.918,3.918,0,0,1-3.089-1.3,5.163,5.163,0,0,1-1.147-3.546v-.272a5.725,5.725,0,0,1,.51-2.47,3.883,3.883,0,0,1,1.463-1.679,4.157,4.157,0,0,1,2.254-.6,3.814,3.814,0,0,1,2.659.958A3.424,3.424,0,0,1,40.21-6.24H38.672a2.241,2.241,0,0,0-.7-1.516,2.174,2.174,0,0,0-1.551-.593,2.276,2.276,0,0,0-1.92.892,4.19,4.19,0,0,0-.681,2.58v.308A4.106,4.106,0,0,0,34.5-2.039,2.287,2.287,0,0,0,36.431-1.151Zm7.233-7.207a3.457,3.457,0,0,1,2.813-1.327q3.015,0,3.041,3.4V0H47.892V-6.293a2.189,2.189,0,0,0-.47-1.521,1.884,1.884,0,0,0-1.437-.492,2.347,2.347,0,0,0-1.389.422,2.865,2.865,0,0,0-.932,1.107V0H42.038V-13.5h1.626Zm22.412,4.3a4.708,4.708,0,0,1-1.5,3.133,4.911,4.911,0,0,1-3.353,1.1A4.509,4.509,0,0,1,57.59-1.45,6.542,6.542,0,0,1,56.224-5.8v-1.23a7.291,7.291,0,0,1,.637-3.138,4.76,4.76,0,0,1,1.806-2.079,5.029,5.029,0,0,1,2.707-.725,4.624,4.624,0,0,1,3.27,1.138,4.765,4.765,0,0,1,1.433,3.151h-1.7a3.66,3.66,0,0,0-.954-2.215,2.891,2.891,0,0,0-2.052-.686,3.02,3.02,0,0,0-2.536,1.2,5.484,5.484,0,0,0-.918,3.4v1.239a5.637,5.637,0,0,0,.87,3.313A2.812,2.812,0,0,0,61.225-1.2a3.247,3.247,0,0,0,2.158-.637,3.536,3.536,0,0,0,1-2.219Zm1.617-.782a5.617,5.617,0,0,1,.549-2.514,4.1,4.1,0,0,1,1.529-1.723,4.163,4.163,0,0,1,2.237-.606,4.01,4.01,0,0,1,3.142,1.345,5.174,5.174,0,0,1,1.2,3.577v.114a5.666,5.666,0,0,1-.532,2.492A4.038,4.038,0,0,1,74.3-.439a4.211,4.211,0,0,1-2.272.615,4,4,0,0,1-3.133-1.345,5.147,5.147,0,0,1-1.2-3.56Zm1.635.193a4.068,4.068,0,0,0,.734,2.54,2.349,2.349,0,0,0,1.964.958A2.335,2.335,0,0,0,74-2.123a4.449,4.449,0,0,0,.729-2.72,4.061,4.061,0,0,0-.743-2.536,2.361,2.361,0,0,0-1.973-.971,2.335,2.335,0,0,0-1.942.958A4.416,4.416,0,0,0,69.328-4.649ZM79.919-9.51l.044,1.055a3.512,3.512,0,0,1,2.821-1.23A2.719,2.719,0,0,1,85.5-8.156a3.6,3.6,0,0,1,1.235-1.107,3.647,3.647,0,0,1,1.8-.422q3.129,0,3.182,3.313V0H90.088V-6.275A2.184,2.184,0,0,0,89.622-7.8a2.051,2.051,0,0,0-1.564-.505,2.156,2.156,0,0,0-1.5.541,2.193,2.193,0,0,0-.694,1.455V0H84.226V-6.231A1.814,1.814,0,0,0,82.2-8.306a2.175,2.175,0,0,0-2.188,1.362V0H78.381V-9.51Zm22.28,4.86a5.694,5.694,0,0,1-.993,3.5A3.183,3.183,0,0,1,98.517.176a3.488,3.488,0,0,1-2.725-1.1V3.656H94.166V-9.51h1.485l.079,1.055a3.35,3.35,0,0,1,2.76-1.23A3.243,3.243,0,0,1,101.2-8.394a5.756,5.756,0,0,1,1,3.595Zm-1.626-.185a4.2,4.2,0,0,0-.686-2.54,2.208,2.208,0,0,0-1.881-.932A2.39,2.39,0,0,0,95.792-7v4.544a2.4,2.4,0,0,0,2.232,1.3,2.2,2.2,0,0,0,1.859-.927A4.587,4.587,0,0,0,100.573-4.834Zm3.261-.009a5.617,5.617,0,0,1,.549-2.514,4.1,4.1,0,0,1,1.529-1.723,4.163,4.163,0,0,1,2.237-.606,4.01,4.01,0,0,1,3.142,1.345,5.174,5.174,0,0,1,1.2,3.577v.114a5.666,5.666,0,0,1-.532,2.492,4.038,4.038,0,0,1-1.521,1.718,4.211,4.211,0,0,1-2.272.615,4,4,0,0,1-3.133-1.345,5.147,5.147,0,0,1-1.2-3.56Zm1.635.193a4.068,4.068,0,0,0,.734,2.54,2.349,2.349,0,0,0,1.964.958,2.335,2.335,0,0,0,1.969-.971,4.449,4.449,0,0,0,.729-2.72,4.061,4.061,0,0,0-.743-2.536,2.361,2.361,0,0,0-1.973-.971,2.335,2.335,0,0,0-1.942.958A4.416,4.416,0,0,0,105.469-4.649Zm14.6,2.127a1.2,1.2,0,0,0-.5-1.024,4.78,4.78,0,0,0-1.731-.628,8.186,8.186,0,0,1-1.96-.633,2.788,2.788,0,0,1-1.072-.879A2.1,2.1,0,0,1,114.46-6.9a2.467,2.467,0,0,1,.989-1.978,3.861,3.861,0,0,1,2.527-.809,3.974,3.974,0,0,1,2.624.835,2.652,2.652,0,0,1,1.006,2.136h-1.635a1.468,1.468,0,0,0-.567-1.151,2.124,2.124,0,0,0-1.428-.483,2.223,2.223,0,0,0-1.389.387,1.217,1.217,0,0,0-.5,1.011.986.986,0,0,0,.466.888,5.731,5.731,0,0,0,1.683.571,8.77,8.77,0,0,1,1.973.65,2.878,2.878,0,0,1,1.121.91,2.237,2.237,0,0,1,.365,1.3,2.434,2.434,0,0,1-1.02,2.043,4.277,4.277,0,0,1-2.646.769,4.789,4.789,0,0,1-2.021-.4,3.288,3.288,0,0,1-1.375-1.129,2.722,2.722,0,0,1-.5-1.569h1.626a1.683,1.683,0,0,0,.655,1.3,2.54,2.54,0,0,0,1.613.479,2.622,2.622,0,0,0,1.481-.374A1.148,1.148,0,0,0,120.067-2.522ZM125.578,0h-1.626V-9.51h1.626ZM123.82-12.032a.971.971,0,0,1,.242-.668.907.907,0,0,1,.716-.272.922.922,0,0,1,.721.272.96.96,0,0,1,.246.668.929.929,0,0,1-.246.659.938.938,0,0,1-.721.264.924.924,0,0,1-.716-.264A.938.938,0,0,1,123.82-12.032Zm6.565.22v2.3h1.775v1.257h-1.775v5.9a1.317,1.317,0,0,0,.237.857,1,1,0,0,0,.809.286,3.937,3.937,0,0,0,.773-.105V0a4.714,4.714,0,0,1-1.248.176,2.025,2.025,0,0,1-1.644-.659,2.832,2.832,0,0,1-.554-1.872v-5.9h-1.731V-9.51h1.731v-2.3ZM135.826,0H134.2V-9.51h1.626Zm-1.758-12.032a.971.971,0,0,1,.242-.668.907.907,0,0,1,.716-.272.922.922,0,0,1,.721.272.96.96,0,0,1,.246.668.929.929,0,0,1-.246.659.938.938,0,0,1-.721.264.924.924,0,0,1-.716-.264A.938.938,0,0,1,134.068-12.032ZM138-4.843a5.617,5.617,0,0,1,.549-2.514,4.1,4.1,0,0,1,1.529-1.723,4.163,4.163,0,0,1,2.237-.606,4.01,4.01,0,0,1,3.142,1.345,5.174,5.174,0,0,1,1.2,3.577v.114a5.666,5.666,0,0,1-.532,2.492A4.038,4.038,0,0,1,144.6-.439a4.211,4.211,0,0,1-2.272.615A4,4,0,0,1,139.2-1.169a5.147,5.147,0,0,1-1.2-3.56Zm1.635.193a4.068,4.068,0,0,0,.734,2.54,2.349,2.349,0,0,0,1.964.958,2.335,2.335,0,0,0,1.969-.971,4.449,4.449,0,0,0,.729-2.72,4.061,4.061,0,0,0-.743-2.536,2.361,2.361,0,0,0-1.973-.971,2.335,2.335,0,0,0-1.942.958A4.416,4.416,0,0,0,139.632-4.649Zm10.6-4.86.053,1.2a3.465,3.465,0,0,1,2.848-1.371q3.015,0,3.041,3.4V0h-1.626V-6.293a2.189,2.189,0,0,0-.47-1.521,1.884,1.884,0,0,0-1.437-.492,2.347,2.347,0,0,0-1.389.422,2.865,2.865,0,0,0-.932,1.107V0h-1.626V-9.51Z" transform="translate(933 431) rotate(-90)" fill="#c3b5b5"/>
  </g>
</svg>
