<svg xmlns="http://www.w3.org/2000/svg" width="67" height="67" viewBox="0 0 67 67">
  <g id="Group_337" data-name="Group 337" transform="translate(-2143 -3132)">
    <rect id="Rectangle_1768" data-name="Rectangle 1768" width="67" height="67" rx="6" transform="translate(2143 3132)" fill="#706bef"/>
    <path id="Path_2791" data-name="Path 2791" d="M29.087-17.821c0-13.292-19.258-8.164-19.258-16.379,0-3.506,2.669-5.181,6.123-5.076,3.768.1,5.913,2.355,6.123,4.814h6.594c-.523-6.227-5.442-9.89-12.4-9.89-7.431,0-12.507,3.977-12.507,10.361,0,13.4,19.31,7.693,19.31,16.484,0,3.087-2.355,5.338-6.541,5.338-4.134,0-6.227-2.407-6.489-5.39H3.654c0,6.437,5.6,10.414,12.873,10.414C24.638-7.145,29.087-12.378,29.087-17.821Z" transform="translate(2159.939 3191.145)" fill="#fff"/>
  </g>
</svg>
