<svg xmlns="http://www.w3.org/2000/svg" width="35.198" height="33.324" viewBox="0 0 35.198 33.324"><defs><style>.a{fill:#2b50ed;}</style></defs><g transform="translate(0 0)"><path class="a" d="M188.171,61.465c-6.876,0-12.076-4.812-12.076-12.289,0-7.52,5.372-12.291,12.248-12.291s12.246,4.77,12.246,12.291C200.589,56.653,195.088,61.465,188.171,61.465Zm0-5.241c3.18,0,6.231-2.321,6.231-7.048,0-4.77-2.965-7.048-6.145-7.048s-6.059,2.278-6.059,7.048C182.2,53.9,184.948,56.223,188.171,56.223Z" transform="translate(-176.095 -36.885)"/><path class="a" d="M292.873,56.112a3.526,3.526,0,1,1,3.653-3.524A3.54,3.54,0,0,1,292.873,56.112Z" transform="translate(-261.327 -49.036)"/><path class="a" d="M199.271,62.644c-1.347-5.186-5.315-8.294-11.159-8.294A11.956,11.956,0,0,0,176.9,62.443h6.374a5.825,5.825,0,0,1,4.8-2.765c2.392,0,3.954.917,4.67,2.808.043.072.072-.043.1-.043h6.489C199.314,62.443,199.285,62.716,199.271,62.644Z" transform="translate(-175.749 -29.332)"/></g></svg>