<svg xmlns="http://www.w3.org/2000/svg" width="42.565" height="41.516" viewBox="0 0 42.565 41.516"><path d="M21.283,0a21.284,21.284,0,0,0-6.728,41.477c1.064.195,1.452-.462,1.452-1.024,0-.507-.019-2.185-.03-3.962-5.918,1.286-7.169-2.51-7.169-2.51a5.643,5.643,0,0,0-2.363-3.112c-1.934-1.32.147-1.294.147-1.294a4.467,4.467,0,0,1,3.262,2.193c1.9,3.253,4.983,2.312,6.194,1.767A4.55,4.55,0,0,1,17.4,30.693C12.674,30.155,7.7,28.329,7.7,20.173a8.24,8.24,0,0,1,2.189-5.712,7.666,7.666,0,0,1,.21-5.635s1.785-.572,5.853,2.182a20.147,20.147,0,0,1,10.654,0c4.061-2.756,5.848-2.182,5.848-2.182a7.634,7.634,0,0,1,.213,5.632,8.215,8.215,0,0,1,2.188,5.712c0,8.176-4.978,9.976-9.719,10.5a5.07,5.07,0,0,1,1.444,3.939c0,2.845-.029,5.139-.029,5.84,0,.566.387,1.229,1.465,1.021A21.287,21.287,0,0,0,21.283,0Z"/></svg>