<svg xmlns="http://www.w3.org/2000/svg" width="164.131" height="26.305" viewBox="0 0 164.131 26.305">
  <g id="Logo" transform="translate(-139 -31)">
    <g id="Group_1" data-name="Group 1" transform="translate(139 31)">
      <path id="Path_1" data-name="Path 1" d="M148.338,55.078c-5.12,0-8.842-3.562-8.842-9.1,0-5.567,3.626-9.1,8.842-9.1a8.273,8.273,0,0,1,8.684,8.716,10.41,10.41,0,0,1-.127,1.718H144.013a4.122,4.122,0,0,0,4.231,4.07,3.63,3.63,0,0,0,3.53-2.13h4.8A8.191,8.191,0,0,1,148.338,55.078Zm-4.293-10.75h8.365a3.915,3.915,0,0,0-4.2-3.785A4.092,4.092,0,0,0,144.045,44.328Z" transform="translate(-139.496 -36.885)" fill="#10a9f5"/>
      <path id="Path_2" data-name="Path 2" d="M166.721,36.885c4.39,0,7.348,2.29,8.3,6.235h-4.8a3.462,3.462,0,0,0-3.531-2.449c-2.481,0-4.135,1.877-4.135,5.312s1.654,5.279,4.135,5.279a3.36,3.36,0,0,0,3.531-2.416h4.8a8.037,8.037,0,0,1-8.3,6.233c-5.089,0-8.716-3.562-8.716-9.1S161.631,36.885,166.721,36.885Z" transform="translate(-138.38 -36.885)" fill="#10a9f5"/>
      <path id="Path_3" data-name="Path 3" d="M185.033,55.078c-5.089,0-8.938-3.562-8.938-9.1a9.065,9.065,0,1,1,18.13,0A8.809,8.809,0,0,1,185.033,55.078Zm0-3.88c2.354,0,4.612-1.718,4.612-5.217,0-3.531-2.195-5.217-4.549-5.217s-4.485,1.686-4.485,5.217C180.612,49.481,182.648,51.2,185.033,51.2Z" transform="translate(-137.289 -36.885)" fill="#10a9f5"/>
      <path id="Path_4" data-name="Path 4" d="M203.083,55.078c-4.421,0-7.507-2.576-7.7-5.853h4.485a2.924,2.924,0,0,0,3.18,2.355c1.751,0,2.7-.8,2.7-1.813,0-3.149-9.956-1.145-9.956-7.6,0-2.926,2.608-5.28,6.966-5.28,4.261,0,6.838,2.322,7.092,5.821H205.6c-.127-1.368-1.209-2.29-2.958-2.29-1.654,0-2.514.668-2.514,1.686,0,3.213,9.765,1.209,9.893,7.666C210.016,52.788,207.376,55.078,203.083,55.078Z" transform="translate(-136.127 -36.885)" fill="#171717"/>
      <path id="Path_5" data-name="Path 5" d="M222.908,36.885c4.517,0,8.048,3.531,8.048,9.034s-3.531,9.16-8.048,9.16a7.194,7.194,0,0,1-5.821-2.8V63.19h-4.452V37.171h4.452v2.545A7.043,7.043,0,0,1,222.908,36.885ZM221.731,40.8c-2.385,0-4.644,1.845-4.644,5.185s2.259,5.184,4.644,5.184c2.419,0,4.677-1.907,4.677-5.247S224.15,40.8,221.731,40.8Z" transform="translate(-135.087 -36.885)" fill="#171717"/>
      <path id="Path_6" data-name="Path 6" d="M239.942,36.885a6.969,6.969,0,0,1,5.821,2.8V37.171h4.485V54.792h-4.485V52.217a6.949,6.949,0,0,1-5.852,2.862c-4.454,0-8.016-3.657-8.016-9.16S235.456,36.885,239.942,36.885Zm1.145,3.912c-2.386,0-4.643,1.781-4.643,5.121s2.257,5.247,4.643,5.247c2.45,0,4.676-1.844,4.676-5.184S243.537,40.8,241.087,40.8Z" transform="translate(-133.925 -36.885)" fill="#171717"/>
      <path id="Path_7" data-name="Path 7" d="M260.95,36.885c4.39,0,7.348,2.29,8.3,6.235h-4.8a3.462,3.462,0,0,0-3.531-2.449c-2.481,0-4.135,1.877-4.135,5.312s1.654,5.279,4.135,5.279a3.36,3.36,0,0,0,3.531-2.416h4.8a8.037,8.037,0,0,1-8.3,6.233c-5.089,0-8.716-3.562-8.716-9.1S255.86,36.885,260.95,36.885Z" transform="translate(-132.699 -36.885)" fill="#171717"/>
      <path id="Path_8" data-name="Path 8" d="M279.137,55.078c-5.121,0-8.843-3.562-8.843-9.1,0-5.567,3.626-9.1,8.843-9.1A8.272,8.272,0,0,1,287.82,45.6a10.528,10.528,0,0,1-.126,1.718H274.811a4.122,4.122,0,0,0,4.231,4.07,3.632,3.632,0,0,0,3.531-2.13h4.8A8.189,8.189,0,0,1,279.137,55.078Zm-4.294-10.75h8.366a3.915,3.915,0,0,0-4.2-3.785A4.092,4.092,0,0,0,274.843,44.328Z" transform="translate(-131.61 -36.885)" fill="#171717"/>
      <path id="Path_9" data-name="Path 9" d="M291.9,54.281a2.61,2.61,0,1,1,2.7-2.608A2.62,2.62,0,0,1,291.9,54.281Z" transform="translate(-130.475 -36.151)" fill="#171717"/>
    </g>
    <path id="Path_10" data-name="Path 10" d="M193.458,60.489c-1-3.838-3.934-6.139-8.26-6.139a8.85,8.85,0,0,0-8.3,5.991h4.718a4.311,4.311,0,0,1,3.552-2.046,3.284,3.284,0,0,1,3.457,2.078c.032.053.053-.032.074-.032h4.8C193.49,60.341,193.468,60.542,193.458,60.489Z" transform="translate(1.759 -4.832)" fill="#10a9f5"/>
  </g>
</svg>
