<svg xmlns="http://www.w3.org/2000/svg" width="20.333" height="20.231" viewBox="0 0 20.333 20.231">
  <g id="Post_Job_Icon" data-name="Post Job Icon" transform="translate(-1325.45 -37.107)">
    <path id="Path_11" data-name="Path 11" d="M1344.217,49.8a.506.506,0,0,0-.507.506v4.5a1.52,1.52,0,0,1-1.519,1.519h-14.209a1.521,1.521,0,0,1-1.519-1.519V41.61a1.521,1.521,0,0,1,1.519-1.519h4.5a.507.507,0,1,0,0-1.013h-4.5a2.536,2.536,0,0,0-2.532,2.532v13.2a2.535,2.535,0,0,0,2.532,2.532h14.209a2.534,2.534,0,0,0,2.532-2.532v-4.5A.506.506,0,0,0,1344.217,49.8Z" fill="#fff"/>
    <path id="Path_12" data-name="Path 12" d="M1344.522,37.775a2.278,2.278,0,0,0-3.222,0l-9.035,9.034a.514.514,0,0,0-.13.223l-1.188,4.289a.507.507,0,0,0,.623.624l4.29-1.188a.514.514,0,0,0,.223-.13l9.034-9.035a2.283,2.283,0,0,0,0-3.223Zm-11.153,9.364,7.394-7.394,2.384,2.384-7.394,7.394Zm-.477.955L1334.8,50l-2.636.73Zm11.509-7.218-.537.537-2.385-2.385.537-.537a1.266,1.266,0,0,1,1.79,0l.595.594A1.269,1.269,0,0,1,1344.4,40.876Z" fill="#fff"/>
  </g>
</svg>
