<?xml version="1.0" encoding="utf-8"?>
<!-- Generator: Adobe Illustrator 20.1.0, SVG Export Plug-In . SVG Version: 6.00 Build 0)  -->
<svg version="1.1" id="report" xmlns="http://www.w3.org/2000/svg" xmlns:xlink="http://www.w3.org/1999/xlink" x="0px" y="0px"
	 viewBox="0 0 512 512" enable-background="new 0 0 512 512" xml:space="preserve">
<g>
	<path fill="#418ED6" d="M190.815,320.296c-8.836,0-16,7.164-16,16v31.111c0,8.836,7.164,16,16,16c8.836,0,16-7.164,16-16v-31.111
		C206.815,327.46,199.651,320.296,190.815,320.296z"/>
	<path fill="#418ED6" d="M254.815,224.592c-8.836,0-16,7.164-16,16v126.223c0,8.836,7.164,16,16,16s16-7.164,16-16V240.592
		C270.815,231.756,263.651,224.592,254.815,224.592z"/>
	<path fill="#418ED6" d="M318.519,287.406c-8.836,0-16,7.164-16,16v63.112c0,8.836,7.164,16,16,16c8.836,0,16-7.164,16-16v-63.112
		C334.519,294.57,327.355,287.406,318.519,287.406z"/>
	<path fill="#418ED6" d="M448,128.106c0-0.196-0.023-0.387-0.03-0.581c-0.013-0.335-0.019-0.671-0.053-1.003
		c-0.038-0.381-0.104-0.752-0.169-1.124c-0.025-0.143-0.038-0.288-0.066-0.429c-0.092-0.46-0.211-0.909-0.342-1.354
		c-0.016-0.053-0.025-0.108-0.042-0.161c-0.144-0.469-0.311-0.928-0.496-1.378c-0.013-0.031-0.022-0.064-0.035-0.095
		c-0.185-0.444-0.394-0.876-0.617-1.3c-0.02-0.039-0.036-0.08-0.057-0.118c-0.221-0.411-0.464-0.808-0.719-1.196
		c-0.032-0.049-0.059-0.102-0.092-0.151c-0.283-0.42-0.585-0.825-0.906-1.216c-0.012-0.014-0.021-0.03-0.033-0.044
		c-0.334-0.405-0.688-0.792-1.059-1.162c-0.004-0.004-0.007-0.008-0.011-0.012L330.334,4.646c-0.136-0.135-0.286-0.253-0.426-0.383
		c-0.234-0.217-0.465-0.437-0.711-0.64c-0.151-0.123-0.312-0.231-0.466-0.349c-0.261-0.199-0.519-0.4-0.792-0.583
		c-0.133-0.089-0.273-0.164-0.408-0.248c-0.308-0.193-0.615-0.385-0.936-0.557c-0.107-0.057-0.219-0.103-0.327-0.157
		c-0.357-0.181-0.716-0.358-1.088-0.512c-0.084-0.035-0.172-0.061-0.257-0.094c-0.397-0.157-0.798-0.306-1.21-0.431
		c-0.09-0.027-0.182-0.044-0.273-0.07c-0.407-0.116-0.817-0.226-1.236-0.309c-0.164-0.033-0.331-0.048-0.496-0.076
		c-0.349-0.058-0.696-0.121-1.052-0.156C320.127,0.028,319.595,0,319.061,0H80c-8.836,0-16,7.164-16,16v480c0,8.837,7.164,16,16,16
		h352c8.837,0,16-7.163,16-16V128.137c0-0.005-0.001-0.01-0.001-0.015C447.999,128.116,448,128.111,448,128.106z M335.061,54.434
		l58.193,57.779l-58.193,0.114V54.434z M96,480V32h207.061v96.359c0,4.249,1.69,8.323,4.697,11.325
		c3,2.994,7.065,4.675,11.303,4.675c0.01,0,0.021,0,0.031,0l96.908-0.19V480H96z"/>
</g>
</svg>
