<svg xmlns="http://www.w3.org/2000/svg" xmlns:xlink="http://www.w3.org/1999/xlink" width="556.741" height="350.845" viewBox="0 0 556.741 350.845"><defs><linearGradient id="a" x1="0.5" y1="1" x2="0.5" gradientUnits="objectBoundingBox"><stop offset="0" stop-color="gray" stop-opacity="0.251"/><stop offset="0.54" stop-color="gray" stop-opacity="0.122"/><stop offset="1" stop-color="gray" stop-opacity="0.102"/></linearGradient><linearGradient id="m" x1="3.464" y1="10.761" x2="3.464" y2="9.8" gradientUnits="objectBoundingBox"><stop offset="0" stop-opacity="0.122"/><stop offset="0.55" stop-opacity="0.09"/><stop offset="1" stop-opacity="0.02"/></linearGradient><linearGradient id="n" x1="3.038" y1="10.738" x2="3.038" y2="9.777" xlink:href="#m"/><linearGradient id="o" x1="3.073" y1="10.062" x2="3.073" y2="9.102" xlink:href="#m"/></defs><rect width="264.17" height="150.046" transform="translate(0 17.216)" fill="url(#a)"/><rect width="257.83" height="124.691" transform="translate(2.82 39.057)" fill="#fff"/><rect width="89.463" height="94.397" transform="translate(20.428 49.624)" fill="url(#a)"/><rect width="84.536" height="90.17" transform="translate(23.247 51.738)" fill="#e0e0e0"/><rect width="257.83" height="19.021" transform="translate(2.82 20.036)" fill="#6c63ff" opacity="0.2"/><rect width="97.917" height="6.34" transform="translate(142.299 78.152)" fill="#e0e0e0"/><rect width="97.917" height="6.34" transform="translate(142.299 104.92)" fill="#f5f5f5"/><rect width="57.762" height="6.34" transform="translate(141.598 91.539)" fill="#6c63ff" opacity="0.2"/><rect width="39.448" height="6.34" transform="translate(141.598 118.307)" fill="#69f0ae" opacity="0.2"/><rect width="39.448" height="6.34" transform="translate(188.087 118.307)" fill="#69f0ae"/><rect width="264.17" height="150.046" transform="translate(280.736 17.216)" fill="url(#a)"/><rect width="257.83" height="124.691" transform="translate(283.556 39.057)" fill="#fff"/><rect width="89.463" height="94.397" transform="translate(301.164 49.624)" fill="url(#a)"/><rect width="84.536" height="90.17" transform="translate(303.984 51.738)" fill="#6c63ff" opacity="0.8"/><path d="M716.994,292.773a59.753,59.753,0,0,0-3.628-15.734,26.019,26.019,0,0,0-9.93-12.46,11.355,11.355,0,0,0-5.489-1.893c-3.59-.126-6.908,2.3-8.756,5.375a25.076,25.076,0,0,0-1.634,3.325,7.741,7.741,0,0,0-6.422,7.091,19.734,19.734,0,0,0,2.788,37.259V319.1a19.8,19.8,0,0,0-14.794,19.1v9.16H708.6v-9.179a19.8,19.8,0,0,0-14.794-19.1v-3.363a19.734,19.734,0,0,0,14.794-19.1v-.139l2.221,4.94c2.113,4.706,4.277,9.753,3.451,14.851C718.325,309.334,717.991,300.735,716.994,292.773Z" transform="translate(-347.147 -205.43)" fill="#fff"/><rect width="257.83" height="19.021" transform="translate(283.556 20.036)" fill="#6c63ff" opacity="0.2"/><rect width="97.917" height="6.34" transform="translate(423.035 78.152)" fill="#e0e0e0"/><rect width="97.917" height="6.34" transform="translate(423.035 104.92)" fill="#f5f5f5"/><rect width="57.762" height="6.34" transform="translate(422.335 91.539)" fill="#6c63ff" opacity="0.2"/><rect width="39.448" height="6.34" transform="translate(422.335 118.307)" fill="#69f0ae" opacity="0.2"/><rect width="39.448" height="6.34" transform="translate(468.823 118.307)" fill="#69f0ae"/><rect width="264.17" height="150.046" transform="translate(280.736 200.799)" fill="url(#a)"/><rect width="257.83" height="124.691" transform="translate(283.556 222.64)" fill="#fff"/><rect width="89.463" height="94.397" transform="translate(301.164 233.207)" fill="url(#a)"/><rect width="84.536" height="90.17" transform="translate(303.984 235.32)" fill="#6c63ff" opacity="0.8"/><rect width="257.83" height="19.021" transform="translate(283.556 203.619)" fill="#6c63ff" opacity="0.2"/><rect width="97.917" height="6.34" transform="translate(423.035 261.735)" fill="#e0e0e0"/><rect width="97.917" height="6.34" transform="translate(423.035 288.502)" fill="#f5f5f5"/><rect width="57.762" height="6.34" transform="translate(422.335 275.122)" fill="#6c63ff" opacity="0.2"/><rect width="39.448" height="6.34" transform="translate(422.335 301.889)" fill="#69f0ae" opacity="0.2"/><rect width="39.448" height="6.34" transform="translate(468.823 301.889)" fill="#69f0ae"/><rect width="264.17" height="150.046" transform="translate(0 200.799)" fill="url(#a)"/><rect width="257.83" height="124.691" transform="translate(2.82 222.64)" fill="#fff"/><rect width="89.463" height="94.397" transform="translate(21.058 234.468)" fill="url(#a)"/><rect width="84.536" height="90.17" transform="translate(23.247 235.32)" fill="#6c63ff" opacity="0.8"/><rect width="257.83" height="19.021" transform="translate(2.82 203.619)" fill="#6c63ff" opacity="0.2"/><rect width="97.917" height="6.34" transform="translate(142.299 261.735)" fill="#e0e0e0"/><rect width="97.917" height="6.34" transform="translate(142.299 288.502)" fill="#f5f5f5"/><rect width="57.762" height="6.34" transform="translate(141.598 275.122)" fill="#6c63ff" opacity="0.2"/><rect width="39.448" height="6.34" transform="translate(141.598 301.889)" fill="#69f0ae" opacity="0.2"/><rect width="39.448" height="6.34" transform="translate(188.087 301.889)" fill="#69f0ae"/><path d="M255.484,619.409v-3.2a20.188,20.188,0,1,0-10.094,0v3.2A19.633,19.633,0,0,0,230.88,638.3v8.832h39.114V638.3A19.633,19.633,0,0,0,255.484,619.409Z" transform="translate(-185.142 -321.261)" fill="#fff"/><circle cx="21.45" cy="21.45" r="21.45" transform="translate(43.845 249.534)" fill="#fff"/><path d="M287.334,603.83s-1.2,23.121,8.258,25.645c0,0-19.557,10.725-23.342-12.617Z" transform="translate(-200.646 -331.358)" fill="#fff"/><path d="M223.508,603.83s1.2,23.121-8.258,25.645c0,0,19.557,10.725,23.342-12.617Z" transform="translate(-179.606 -331.358)" fill="#fff"/><path d="M236.014,297.96a15.084,15.084,0,0,1-1.659-7.823,10.46,10.46,0,0,1,3.445-7.1c2.265-1.93,5.337-2.612,8.3-2.852s5.974-.095,8.9-.669a18.592,18.592,0,0,0,11.873-8.05,25,25,0,0,1-.063,6.845,8.547,8.547,0,0,1-3.545,5.678c2.359-1.091,2.107,1.47,1.59,3,1.173,1.413,4.012,1.647,4.157,3.476a11.507,11.507,0,0,1-.593,5.407c-.713,1.684.05,4.656-1.773,4.788" transform="translate(-186.648 -208.673)" fill="#fff" stroke="#fff" stroke-miterlimit="10" stroke-width="1"/><path d="M282.3,289.92s10.378.9,2.99,16.314" transform="translate(-204.356 -215.484)" fill="#fff"/><path d="M255.484,328.409v-3.2a20.188,20.188,0,1,0-10.094,0v3.2A19.633,19.633,0,0,0,230.88,347.3v8.832h39.114V347.3a19.633,19.633,0,0,0-14.51-18.888Z" transform="translate(-185.142 -213.843)" fill="#fff"/><path d="M698.484,619.539v-3.2a20.188,20.188,0,1,0-10.094,0v3.2a19.632,19.632,0,0,0-14.51,18.888v8.832h39.114v-8.832a19.633,19.633,0,0,0-14.51-18.888Z" transform="translate(-348.667 -321.309)" fill="#fff"/><circle cx="21.45" cy="21.45" r="21.45" transform="translate(323.32 251.426)" fill="#fff"/><path d="M696.394,563.814a28.258,28.258,0,0,0,5.135-1.375,8.384,8.384,0,0,0,4.75-7.488,14.511,14.511,0,0,1,2.126,4.2,4.523,4.523,0,0,1,.221,2.486,1.95,1.95,0,0,1-1.779,1.527c1.665.328,3.457.631,5.009-.038s2.574-2.807,1.52-4.138a12.677,12.677,0,0,1,2.359,3.375,4.29,4.29,0,0,1-.177,3.968c-.953,1.426-2.87,1.83-4.586,1.8q2.265.139,4.542.114a4.366,4.366,0,0,0,2.448-.53,1.577,1.577,0,0,0,.5-2.2,10.2,10.2,0,0,1-1.848,11.084c-1.792,1.861-4.328,3.053-5.589,5.306a23.17,23.17,0,0,0-1.438,4.416,12.762,12.762,0,0,1-2.757,4.763,8.258,8.258,0,0,1-5.268,2.858c-2.82.215-5.425-1.565-7.356-3.634s-3.476-4.517-5.678-6.309c-3.154-2.587-7.734-3.2-10.693-5.911,1.7-3.192,5.482-6.353,8.239-8.681A25.866,25.866,0,0,1,696.394,563.814Z" transform="translate(-350.363 -313.315)" fill="#fff"/><circle cx="29.02" cy="29.02" r="29.02" transform="translate(218.596 0.341)" fill="url(#a)"/><circle cx="29.02" cy="29.02" r="29.02" transform="translate(498.701 0.341)" fill="url(#a)"/><circle cx="29.02" cy="29.02" r="29.02" transform="translate(218.596 183.923)" fill="url(#a)"/><circle cx="29.02" cy="29.02" r="29.02" transform="translate(498.701 183.923)" fill="url(#a)"/><circle cx="26.496" cy="26.496" r="26.496" transform="translate(221.119 2.864)" fill="#fff"/><circle cx="26.496" cy="26.496" r="26.496" transform="translate(221.119 186.447)" fill="#fff"/><circle cx="26.496" cy="26.496" r="26.496" transform="translate(501.225 186.447)" fill="#fff"/><circle cx="26.496" cy="26.496" r="26.496" transform="translate(501.225 2.864)" fill="#fff"/><path d="M852.067,5.791,842.774,0l-17.86,28.484-12.068-7.419-6.006,9.614L824.378,41.29h0l4.366,2.788Z" transform="translate(-297.83)" fill="url(#m)"/><path d="M852.018,6.04,843.6.93,825.944,29.994l-12.378-7.52L808.45,30.89l16.585,10.056h0l4.246,2.517Z" transform="translate(-298.425 -0.343)" fill="#6c63ff"/><path d="M852.067,293.791,842.774,288l-17.86,28.484-12.068-7.419-6.006,9.614,17.538,10.611h0l4.366,2.788Z" transform="translate(-297.83 -106.31)" fill="url(#n)"/><path d="M852.018,294.04l-8.416-5.11-17.658,29.064-12.378-7.52-5.116,8.416,16.585,10.056h0l4.246,2.517Z" transform="translate(-298.425 -106.653)" fill="#6c63ff"/><path d="M406.067,293.791,396.774,288l-17.86,28.484-12.068-7.419-6.006,9.614,17.538,10.611h0l4.366,2.788Z" transform="translate(-133.198 -106.31)" fill="url(#o)"/><path d="M406.018,294.04l-8.416-5.11-17.658,29.064-12.378-7.52-5.116,8.416,16.586,10.056h0l4.246,2.517Z" transform="translate(-133.792 -106.653)" fill="#6c63ff"/></svg>