<svg xmlns="http://www.w3.org/2000/svg" xmlns:xlink="http://www.w3.org/1999/xlink" width="569.721" height="346.076" viewBox="0 0 569.721 346.076"><defs><linearGradient id="a" x1="0.5" y1="1" x2="0.5" gradientUnits="objectBoundingBox"><stop offset="0" stop-color="gray" stop-opacity="0.251"/><stop offset="0.54" stop-color="gray" stop-opacity="0.122"/><stop offset="1" stop-color="gray" stop-opacity="0.102"/></linearGradient><linearGradient id="b" x1="-0.569" y1="1.315" x2="-0.569" y2="0.315" xlink:href="#a"/></defs><g opacity="0.5"><rect width="250.36" height="205.638" fill="url(#a)"/></g><rect width="244.04" height="198.346" transform="translate(2.919 3.89)" fill="#f2f2f2"/><rect width="244.04" height="44.24" transform="translate(2.919 3.89)" fill="#6c63ff"/><rect width="244.04" height="44.24" transform="translate(2.919 3.89)" opacity="0.1"/><rect width="205.15" height="25.766" transform="translate(22.364 64.167)" fill="#e0e0e0"/><rect width="149.728" height="8.751" transform="translate(22.364 109.378)" fill="#e0e0e0"/><rect width="97.225" height="8.751" transform="translate(22.364 124.45)" fill="#e0e0e0"/><rect width="128.341" height="8.751" transform="translate(22.364 139.523)" fill="#e0e0e0"/><rect width="149.728" height="8.751" transform="translate(22.364 154.589)" fill="#e0e0e0"/><rect width="50.072" height="8.751" transform="translate(22.364 169.661)" fill="#e0e0e0"/><g transform="translate(319.361)" opacity="0.5"><rect width="250.36" height="205.638" fill="url(#b)"/></g><rect width="244.04" height="198.346" transform="translate(566.808 202.231) rotate(180)" fill="#f2f2f2"/><rect width="244.04" height="44.24" transform="translate(566.808 48.124) rotate(180)" fill="#6c63ff"/><rect width="244.04" height="44.24" transform="translate(566.808 48.124) rotate(180)" opacity="0.1"/><rect width="205.15" height="25.766" transform="translate(547.363 89.939) rotate(180)" fill="#e0e0e0"/><rect width="149.728" height="8.751" transform="translate(547.357 118.135) rotate(180)" fill="#e0e0e0"/><rect width="97.225" height="8.751" transform="translate(547.357 133.202) rotate(180)" fill="#e0e0e0"/><rect width="128.341" height="8.751" transform="translate(547.363 148.268) rotate(180)" fill="#e0e0e0"/><rect width="149.728" height="8.751" transform="translate(547.357 163.341) rotate(180)" fill="#e0e0e0"/><rect width="50.072" height="8.751" transform="translate(547.363 178.413) rotate(180)" fill="#e0e0e0"/><g transform="translate(129.11 89.72)" opacity="0.5"><rect width="312.108" height="256.356" fill="url(#a)"/></g><rect width="304.233" height="247.262" transform="translate(132.747 94.564)" fill="#fff"/><rect width="304.233" height="55.147" transform="translate(132.747 94.564)" fill="#6c63ff"/><rect width="255.749" height="32.12" transform="translate(156.986 169.712)" fill="#f5f5f5"/><rect width="186.659" height="10.907" transform="translate(156.986 226.077)" fill="#e0e0e0"/><rect width="121.206" height="10.907" transform="translate(156.986 244.865)" fill="#e0e0e0"/><rect width="159.995" height="10.907" transform="translate(156.986 263.647)" fill="#e0e0e0"/><rect width="186.659" height="10.907" transform="translate(156.986 282.436)" fill="#e0e0e0"/><rect width="62.422" height="10.907" transform="translate(156.986 301.224)" fill="#e0e0e0"/><rect width="72.722" height="9.694" transform="translate(170.318 180.624)" fill="#69f0ae"/></svg>