<svg xmlns="http://www.w3.org/2000/svg" xmlns:xlink="http://www.w3.org/1999/xlink" width="556.341" height="340.705" viewBox="0 0 556.341 340.705"><defs><linearGradient id="a" x1="0.5" y1="1" x2="0.5" gradientUnits="objectBoundingBox"><stop offset="0" stop-color="gray" stop-opacity="0.251"/><stop offset="0.54" stop-color="gray" stop-opacity="0.122"/><stop offset="1" stop-color="gray" stop-opacity="0.102"/></linearGradient><linearGradient id="b" x1="0" y1="0.5" x2="1" y2="0.5" xlink:href="#a"/><linearGradient id="d" x1="0" y1="0.5" x2="1" y2="0.5" xlink:href="#a"/><linearGradient id="f" x1="0" y1="0.5" x2="1" y2="0.5" xlink:href="#a"/></defs><g transform="translate(331.953)" opacity="0.5"><rect width="224.388" height="219.878" fill="url(#a)"/></g><rect width="222.135" height="216.495" transform="translate(333.08 1.692)" fill="#fff"/><g transform="translate(355.633 19.668)" opacity="0.5"><rect width="177.03" height="137.431" fill="#6c63ff"/></g><g transform="translate(408.689 35.411)" opacity="0.5"><path d="M922.822,266.462a20.748,20.748,0,0,0-6.17-14.4,50.572,50.572,0,0,0-13.215-9.7h-.031A22.367,22.367,0,0,0,896.6,240.3v-8.412a18.871,18.871,0,0,0,4.211-5.466h0v.674s8.068-8.15,7.883-17.714c.118-5.744-2.643-12.063-11.9-17.483-21.5-12.547-29.741,5.7-31.31,9.919a2.827,2.827,0,0,0-.226.643l-.062.2h0a2.249,2.249,0,0,0,0,.6h0v.062h0a2.481,2.481,0,0,0,0,.319c0,1.409,1.2,2.7,3.229,3.764A18.809,18.809,0,0,0,877.8,235.61v5.4l-.417-.787s-2.874,1.723-6.582,4.366h0c-6.212,4.427-14.768,11.441-16.053,17.236-2.057,9.256,0,48.428,0,48.428l68.934,1.028Zm-21.273-40.8Zm-.689.756Zm.051-.057.026-.026Zm.1-.108Zm-35.737-22.625Zm.093.3v.031Zm.129.3v.041Zm.165.3.031.051Zm.2.293.041.057Zm.237.288.057.062Zm.273.283.067.067Zm2.334,1.543.072.036h0Zm-2.026-1.28.082.072Zm.339.273.1.072Zm.375.262.113.077Zm.406.257.134.077Zm.437.247.149.082Z" transform="translate(-853.832 -187.566)" fill="url(#b)"/></g><rect width="18.3" height="26.841" transform="translate(432.953 79.994)" fill="#fda57d"/><path d="M902.2,279.111c1.913.679,2.736,1.219,4.88,1.219a18.215,18.215,0,0,0,12.2-4.691l0-.189H902.2Z" transform="translate(-468.64 -194.849)" opacity="0.05"/><circle cx="18.3" cy="18.3" r="18.3" transform="translate(420.751 48.273)" fill="#fda57d"/><circle transform="translate(422.582 61.082)" fill="#ff0"/><path d="M880.84,237.49" transform="translate(-458.264 -176.408)" fill="#ff0"/><ellipse cx="16.357" cy="6.217" rx="16.357" ry="6.217" transform="translate(420.679 45.893)"/><path d="M896.777,208.137l15.046,9.158v11.312s19.627-19.838-3.923-33.572S877.15,205.5,877.15,205.5,883.691,210.754,896.777,208.137Z" transform="translate(-456.471 -153.734)"/><ellipse cx="1.831" cy="3.049" rx="1.831" ry="3.049" transform="translate(454.215 63.525)" fill="#fda57d"/><g transform="translate(420.715 52.382)" opacity="0.05"><path d="M911.857,231.749l-10.017-6.093a38.417,38.417,0,0,1-8.279.859c-8.793,0-15.94-2.638-16.336-5.944v.057h0a2.409,2.409,0,0,0,0,.309c0,3.435,7.322,6.217,16.357,6.217a38.414,38.414,0,0,0,8.3-.859l10.011,6.093Z" transform="translate(-877.22 -220.57)"/><path d="M944.58,248.683v.653s7.842-7.929,7.662-17.236C952.057,241.119,944.58,248.683,944.58,248.683Z" transform="translate(-909.944 -226.171)"/></g><path d="M878.573,290.45s-20.023,12.012-22.023,21.021,0,47.121,0,47.121l67.073,1-.854-43.615a20.192,20.192,0,0,0-6.016-14.012c-5.008-4.921-12.583-10.932-20.162-11.518l-9.009,17.02Z" transform="translate(-446.032 -202.136)" fill="#4d8af0"/><path d="M879.847,330.1s-5.235,27.474-.653,35.994" transform="translate(-456.551 -221.398)" opacity="0.05"/><path d="M956,330.1s5.235,27.474.653,35.994" transform="translate(-494.776 -221.398)" opacity="0.05"/><path d="M841.02,171.7l19.01-.267L847.566,203.1Z" transform="translate(-408.566 -83.28)" fill="#fff"/><path d="M841.02,168.14V170.1h18.974l.036-1.959Z" transform="translate(-408.566 -81.682)" fill="#fff"/><rect width="2.617" height="2.617" transform="translate(440.306 86.458)"/><path d="M837.313,171.95l-3.923,3.929,8.5,14.49Z" transform="translate(-404.859 -83.533)" fill="#4d8af0"/><path d="M870.461,174.5l3.275,3.27-9.816,13.081Z" transform="translate(-419.69 -84.772)" fill="#4d8af0"/><path d="M837.313,171.95l-3.923,3.929,8.5,14.49Z" transform="translate(-404.859 -83.533)" fill="#fff" opacity="0.1"/><path d="M870.461,174.5l3.275,3.27-9.816,13.081Z" transform="translate(-419.69 -84.772)" fill="#fff" opacity="0.1"/><path d="M848.944,170.68,838.48,214.8l6.541,9.811,8.5-9.811Z" transform="translate(-407.332 -82.916)"/><rect width="156.317" height="7.199" transform="translate(368.143 176.402)" fill="#e0e0e0"/><rect width="106.44" height="7.199" transform="translate(393.082 190.8)" fill="#e0e0e0"/><g transform="translate(0 58.886)" opacity="0.5"><rect width="224.388" height="219.878" fill="url(#a)"/></g><rect width="222.135" height="216.495" transform="translate(1.126 60.578)" fill="#fff"/><g transform="translate(23.679 78.555)" opacity="0.5"><rect width="177.03" height="137.431" fill="#6c63ff"/></g><g transform="translate(78.359 87.695)" opacity="0.5"><path d="M286.37,391.883h2.859l-.895-9.153h-.1c.545-5.595,1.363-30.384-25.288-40.262l-2.381-1.568-.18.159v-6.69a19.158,19.158,0,0,0,4.294-5.533h0v.684A33.669,33.669,0,0,0,270.44,321a33.63,33.63,0,0,1-5.1,7.147v-.062c3.347-3.821,17.036-21.555-4.777-34.282-24.569-14.331-29.207,9.713-29.207,9.713l1.959,2.622s-4.756,9.523-4.756,14.017a19.1,19.1,0,0,0,12.727,18v5.708c-1.774.648-26.43,10.186-26.43,38.863l-3.435,9.153,1.147.514h0V417.9h56.048s3.435-27.176,2.288-36.328l3.435,2.288v8.011h.761v.2h-.221l.221.74v24.517H286.35V392.824l.129-.74h-.129Zm-63.586,2.1h0l.082-2.1Z" transform="translate(-211.42 -289.247)" fill="url(#d)"/></g><rect width="18.3" height="26.841" transform="translate(108.605 133.451)" fill="#fda57d"/><path d="M271.43,383.071c1.913.679,2.736,1.219,4.88,1.219a18.21,18.21,0,0,0,12.205-4.693l0-.187H271.43Z" transform="translate(-162.213 -245.352)" opacity="0.05"/><circle cx="18.3" cy="18.3" r="18.3" transform="translate(96.408 101.73)" fill="#fda57d"/><circle transform="translate(98.238 114.539)" fill="#ff0"/><path d="M250.07,341.45" transform="translate(-151.837 -226.911)" fill="#ff0"/><path d="M268.727,314.8l15.046,5.888V332s19.642-19.812-3.923-33.562c-21.175-12.341-25.011,2.525-27.674,5.384a.689.689,0,0,0,.036.977C254.828,307.261,257.065,317.134,268.727,314.8Z" transform="translate(-152.769 -203.67)" fill="#4d4545"/><rect width="10.783" height="26.867" transform="translate(141.03 188.779)" fill="#fda57d"/><path d="M272.85,351.165v7.677H287.1l-.869-8.772Z" transform="translate(-132.55 -170.063)" fill="#fff"/><path d="M157.68,367.13v27.417h8.772l1.018-25.407Z" transform="translate(-76.601 -178.351)" fill="#fda57d"/><path d="M252.788,401.868l-6.366-7.677S221,402.963,221,431.475l7.677,8.772-1.1,27.417h44.962s3.291-28.513,2.2-37.285l3.291,2.2h13.158s5.06-30.708-26.738-40.576Z" transform="translate(-137.715 -251.469)" fill="#235067"/><path d="M158.836,350.07l-3.286,8.772,10.767,4.936.2-4.936Z" transform="translate(-75.566 -170.063)" fill="#fff"/><path d="M202.62,281.252l4.309,9.641,6.155-5.06-5.944-7Z" transform="translate(-98.432 -135.455)" opacity="0.05"/><path d="M202.62,279.982l4.309,9.636,6.155-5.055-5.944-7Z" transform="translate(-98.432 -134.838)" fill="#fff"/><path d="M236.666,273.37l3.923,2.617-11.117,10.464-3.893-3.378Z" transform="translate(-109.586 -132.803)" opacity="0.05"/><path d="M236.666,272.1l3.923,2.612-11.117,10.469L225.58,281.8Z" transform="translate(-109.586 -132.186)" fill="#fff"/><path d="M237.47,458.87a39.079,39.079,0,0,1,7.852-23.55" transform="translate(-145.716 -272.513)" opacity="0.05"/><path d="M263.68,345.989V342.06l3.923,2.617-2.617-.653Z" transform="translate(-128.095 -166.172)" opacity="0.05"/><path d="M273.86,367.51l.211.7h10.783l.123-.7Z" transform="translate(-133.041 -178.536)" opacity="0.05"/><path d="M157.68,368.11v.751l9.616,4.129-.247-.612Z" transform="translate(-76.601 -178.827)" opacity="0.05"/><path d="M289.33,334.563a32.236,32.236,0,0,1-4.885,6.849V330.085L269.4,324.2c-11.276,2.257-13.056-6.813-16.218-9.718a.694.694,0,0,0-.977.041h0a.689.689,0,0,0,.036.977c2.622,2.458,4.854,12.341,16.521,10l15.046,5.888v11.312A32.271,32.271,0,0,0,289.33,334.563Z" transform="translate(-152.783 -213.721)" opacity="0.05"/><ellipse cx="1.831" cy="3.049" rx="1.831" ry="3.049" transform="translate(129.867 116.981)" fill="#fda57d"/><rect width="156.317" height="7.199" transform="translate(30.312 232.45)" fill="#e0e0e0"/><rect width="106.44" height="7.199" transform="translate(55.251 246.848)" fill="#e0e0e0"/><g transform="translate(167.09 120.827)" opacity="0.5"><rect width="224.388" height="219.878" fill="url(#a)"/></g><rect width="222.135" height="216.495" transform="translate(168.216 122.519)" fill="#fff"/><g transform="translate(190.769 140.501)" opacity="0.5"><rect width="177.03" height="137.431" fill="#6c63ff"/></g><g transform="translate(240.369 141.693)" opacity="0.5"><path d="M581.006,478.856l.514-.386.735-.545h0l34.328-25.5-11.8-47.2v-.154c.1-1.44.648-12.583-5.373-10.572-5.882,1.959-3.7,10.191-3.281,11.59l.067.206,7.507,39.691L579.844,459.9l-3.311-.37a29.773,29.773,0,0,0,5.713-17.838c0-14.809-10.083-26.816-22.527-26.816S537.19,426.886,537.19,441.7c0,11.091,5.656,20.614,13.724,24.682l-8.541,4.273v.046c-2.448-.514-11.734-.36-7.97,33.721a35.953,35.953,0,0,1-5.559,23.55l-2.355,3.275,58.8.36h.18S577.144,518.26,581.006,478.856Z" transform="translate(-526.49 -394.26)" fill="url(#f)"/></g><path d="M544.321,543.118s-12.135-5.24-8.6,30.77a42.509,42.509,0,0,1-6.618,27.34l-.746,1.147h11.282l8.495-9Z" transform="translate(-287.03 -324.752)" fill="#3ad29f"/><path d="M652.4,418.079v-.149l-8.484,1,.062.206,7.358,38.9L626.1,472.759l1.028,18.928,36.8-27.34Z" transform="translate(-334.511 -264.065)" fill="#3ad29f"/><ellipse cx="22.08" cy="26.286" rx="22.08" ry="26.286" transform="translate(251.651 163.475)" fill="#ff0"/><rect width="15.771" height="23.134" transform="translate(269 198.698)" fill="#fda57d"/><path d="M571.068,532.079l-4.206-6.309-12.618,6.309v10.438a21.446,21.446,0,0,0-.848,17.37c-1.028,13.667-3.815,31.582-3.815,31.582l46.746.345s-8.412-13.487-4.206-53.441l-1.028-16.825-9.461-1.028Z" transform="translate(-297.338 -313.903)" fill="#3ad29f"/><path d="M571.19,403.81l1.054,1.049,1.049,16.583-1.224.91Z" transform="translate(-277.483 -196.17)" opacity="0.05"/><path d="M583.19,509.278a10.325,10.325,0,0,0,4.206,1.028,15.7,15.7,0,0,0,10.517-4.043l0-.163H583.19Z" transform="translate(-313.666 -306.898)" opacity="0.05"/><circle cx="15.771" cy="15.771" r="15.771" transform="translate(258.484 171.363)" fill="#fda57d"/><ellipse cx="1.579" cy="2.628" rx="1.579" ry="2.628" transform="translate(288.452 184.506)" fill="#fda57d"/><circle transform="translate(260.063 182.403)" fill="#ff0"/><path d="M564.78,473.43" transform="translate(-304.722 -291.027)" fill="#ff0"/><path d="M506.23,354.33v.74H533.3v.74H505.86Z" transform="translate(-245.746 -172.133)" opacity="0.05"/><rect width="27.34" height="13.667" transform="translate(260.063 169.784)" fill="#ff0"/><path d="M663.274,397.546c-5.764,1.923-3.63,9.991-3.219,11.364l8.484-1C668.652,406.5,669.192,395.577,663.274,397.546Z" transform="translate(-350.654 -254.048)" fill="#fda57d"/><g transform="translate(252.046 206.586)" opacity="0.05"><path d="M550.326,596.43s2.766-17.915,3.815-31.582a21.561,21.561,0,0,1,.869-17.37V537.039l11.77-5.888-.283-.422-12.613,6.309v10.438a21.546,21.546,0,0,0-.869,17.37c-1.028,13.667-3.815,31.582-3.815,31.582l46.746.344h0Z" transform="translate(-549.2 -525.449)"/><path d="M533.738,413.324l10.413-11.451-1.023-.113-9.868,10.85Z" transform="translate(-511.103 -401.76)"/></g><path d="M516.46,410.067l8.078,18.6,14.809-25.407-4.093-.524L525.1,412.885l-4.51-5.07Z" transform="translate(-250.895 -195.65)" opacity="0.05"/><path d="M516.46,408.967l8.078,18.609,14.809-25.407-4.093-.53L525.1,411.79l-4.51-5.075Z" transform="translate(-250.895 -195.116)" fill="#fff"/><rect width="156.317" height="7.199" transform="translate(201.542 292.612)" fill="#e0e0e0"/><rect width="106.44" height="7.199" transform="translate(226.48 307.01)" fill="#e0e0e0"/></svg>