<svg xmlns="http://www.w3.org/2000/svg" xmlns:xlink="http://www.w3.org/1999/xlink" width="356" height="356" viewBox="0 0 356 356"><defs><clipPath id="a"><circle cx="178" cy="178" r="178" transform="translate(0 -0.263)" fill="#1a9dfc"/></clipPath><linearGradient id="b" x1="0.5" y1="1" x2="0.5" gradientUnits="objectBoundingBox"><stop offset="0" stop-color="#b3b3b3" stop-opacity="0.251"/><stop offset="0.54" stop-color="#b3b3b3" stop-opacity="0.102"/><stop offset="1" stop-color="#b3b3b3" stop-opacity="0.051"/></linearGradient><linearGradient id="c" x1="0.5" x2="0.5" y2="0" xlink:href="#b"/></defs><g transform="translate(-1230 -591)"><g transform="translate(1230 591.263)"><circle cx="178" cy="178" r="178" transform="translate(0 -0.263)" fill="#e1e9f0"/></g><g transform="translate(1230 591.263)" clip-path="url(#a)"><g transform="translate(55.625 99.57)"><path d="M387.762,287.517c0-18.974,18.736-36.467,37.71-36.467,2.907,0,5.726-.733,8.431-.059.037-.828.059-5.7.059-6.532V51.81H269.725L236,86.451v224.16H391.061C387.725,305.318,387.762,294.24,387.762,287.517Z" transform="translate(-236 -51.81)" fill="url(#b)"/><path d="M390.2,459.161a42.889,42.889,0,0,1,42.889-42.889c1.294,0,2.566.062,3.842.172V317H244.48V474.191H392.91A42.8,42.8,0,0,1,390.2,459.161Z" transform="translate(-241.371 -219.788)" fill="#fcfcfc"/><path d="M199.794,102.162H6.91V38.125L38.1,5.5H199.794Z" transform="translate(-4.377 -3.484)" fill="#fcfcfc"/><rect width="52.321" height="3.992" transform="translate(131.083 21.478)" fill="#e0e0e0"/><rect width="52.321" height="3.992" transform="translate(131.083 36.141)" fill="#e0e0e0"/><rect width="52.321" height="3.992" transform="translate(131.083 50.804)" fill="#e0e0e0"/><rect width="52.321" height="3.992" transform="translate(131.083 65.467)" fill="#6c63ff" opacity="0.5"/><rect width="52.321" height="3.992" transform="translate(131.083 80.13)" fill="#e0e0e0"/><rect width="52.321" height="3.992" transform="translate(131.083 94.792)" fill="#e0e0e0"/><rect width="52.321" height="3.992" transform="translate(31.056 125.951)" fill="#6c63ff" opacity="0.5"/><rect width="52.321" height="3.992" transform="translate(31.056 141.912)" fill="#e0e0e0"/><rect width="136.571" height="3.992" transform="translate(31.056 133.932)" fill="#69f0ae" opacity="0.5"/><rect width="52.321" height="3.992" transform="translate(31.056 164.526)" fill="#6c63ff" opacity="0.5"/><rect width="52.321" height="3.992" transform="translate(31.056 180.49)" fill="#e0e0e0"/><rect width="136.571" height="3.992" transform="translate(31.056 172.506)" fill="#e0e0e0"/><rect width="52.321" height="3.992" transform="translate(31.056 203.104)" fill="#6c63ff" opacity="0.5"/><rect width="52.321" height="3.992" transform="translate(31.056 219.065)" fill="#e0e0e0"/><rect width="111.955" height="3.992" transform="translate(31.056 211.085)" fill="#e0e0e0"/><path d="M145.309,130.245H50V47.032L53.3,43h92.01Z" transform="translate(-31.671 -27.237)" fill="#1a9dfc"/><path d="M4.91,37.591H37.568V3.5Z" transform="translate(-3.11 -2.217)" fill="url(#c)"/><path d="M6.91,38.125H38.1V5.5Z" transform="translate(-4.377 -3.484)" fill="#f5f5f5"/><path d="M538.961,289.46V96.81H374.725L341,131.451v224.16H496.061c-10.234.383,42.9,0,42.9,0Z" transform="translate(-302.51 -80.314)" fill="url(#b)"/><path d="M541.931,461.444V362H349.48V519.191H497.91c-5.009.145,44.022,0,44.022,0S541.3,461.39,541.931,461.444Z" transform="translate(-307.881 -248.292)" fill="#fff"/><path d="M304.794,147.162H111.91V83.125L143.1,50.5H304.794Z" transform="translate(-70.887 -31.988)" fill="#fff"/><rect width="152.348" height="3.992" transform="translate(69.547 37.973)" fill="#e0e0e0"/><rect width="152.348" height="3.992" transform="translate(69.547 52.636)" fill="#e0e0e0"/><rect width="152.348" height="3.992" transform="translate(69.547 67.299)" fill="#e0e0e0"/><rect width="152.348" height="3.992" transform="translate(69.547 81.962)" fill="#6c63ff" opacity="0.5"/><rect width="152.348" height="3.992" transform="translate(69.547 96.625)" fill="#e0e0e0"/><rect width="152.348" height="3.992" transform="translate(69.547 111.288)" fill="#e0e0e0"/><rect width="52.321" height="3.992" transform="translate(69.546 142.447)" fill="#6c63ff" opacity="0.5"/><rect width="52.321" height="3.992" transform="translate(69.546 158.408)" fill="#e0e0e0"/><rect width="136.571" height="3.992" transform="translate(69.546 150.427)" fill="#69f0ae" opacity="0.5"/><rect width="52.321" height="3.992" transform="translate(69.546 181.022)" fill="#6c63ff" opacity="0.5"/><rect width="52.321" height="3.992" transform="translate(69.546 196.986)" fill="#e0e0e0"/><rect width="136.571" height="3.992" transform="translate(69.546 189.002)" fill="#e0e0e0"/><rect width="52.321" height="3.992" transform="translate(69.546 219.6)" fill="#6c63ff" opacity="0.5"/><rect width="52.321" height="3.992" transform="translate(69.546 235.561)" fill="#e0e0e0"/><rect width="111.955" height="3.992" transform="translate(69.546 227.58)" fill="#e0e0e0"/><path d="M109.91,82.591h32.658V48.5Z" transform="translate(-69.62 -30.721)" fill="url(#c)"/><path d="M111.91,83.125H143.1V50.5Z" transform="translate(-70.887 -31.988)" fill="#f2eafc"/></g></g></g></svg>