<svg xmlns="http://www.w3.org/2000/svg" xmlns:xlink="http://www.w3.org/1999/xlink" width="463" height="396" viewBox="0 0 463 396"><defs><linearGradient id="a" x1="0.5" y1="1" x2="0.5" gradientUnits="objectBoundingBox"><stop offset="0" stop-color="gray" stop-opacity="0.251"/><stop offset="0.54" stop-color="gray" stop-opacity="0.122"/><stop offset="1" stop-color="gray" stop-opacity="0.102"/></linearGradient><linearGradient id="b" x1="0.5" y1="1" x2="0.5" gradientUnits="objectBoundingBox"><stop offset="0" stop-color="#b3b3b3" stop-opacity="0.251"/><stop offset="0.54" stop-color="#b3b3b3" stop-opacity="0.102"/><stop offset="1" stop-color="#b3b3b3" stop-opacity="0.051"/></linearGradient></defs><path d="M812.94,308.046S826.88,256.27,799,203" transform="translate(-468.428 -127.825)" fill="none" stroke="#e0e0e0" stroke-linecap="round" stroke-linejoin="round" stroke-width="10" stroke-dasharray="0 23"/><line transform="translate(149.649 174.496)" stroke-width="10" stroke="#e0e0e0" stroke-linecap="round" stroke-linejoin="round" fill="none"/><path d="M384.017,299.685c4.919-20.093,6.387-61.982-58.577-79.765" transform="translate(-230.63 -136.321)" fill="none" stroke="#e0e0e0" stroke-linecap="round" stroke-linejoin="round" stroke-width="10" stroke-dasharray="0 23.61"/><line transform="translate(89 82)" stroke-width="10" stroke="#e0e0e0" stroke-linecap="round" stroke-linejoin="round" fill="none"/><rect width="404" height="219" transform="translate(35 177)" fill="url(#a)"/><rect width="397.284" height="210.341" transform="translate(38.832 180.222)" fill="#fff"/><ellipse cx="19" cy="19.5" rx="19" ry="19.5" transform="translate(97 194)" fill="url(#b)"/><ellipse cx="17" cy="17.5" rx="17" ry="17.5" transform="translate(99 196)" fill="#6c63ff"/><rect width="98" height="10" transform="translate(156 207)" fill="#bdbdbd"/><rect width="244.942" height="9.957" transform="translate(115.75 271.577)" fill="#e0e0e0"/><rect width="244.942" height="9.957" transform="translate(115.75 249.672)" fill="#e0e0e0"/><rect width="244.942" height="9.957" transform="translate(115.75 293.482)" fill="#e0e0e0"/><rect width="244.942" height="9.957" transform="translate(115.75 315.388)" fill="#e0e0e0"/><rect width="244.942" height="9.957" transform="translate(115.75 337.293)" fill="#e0e0e0"/><rect width="244.942" height="9.957" transform="translate(115.75 359.198)" fill="#e0e0e0"/><line transform="translate(76.335 176.985)" stroke-width="10" stroke="#bdbdbd" stroke-linecap="round" stroke-linejoin="round" fill="none"/><path d="M280.155,346.883c.378-10.763-.936-26.854-10.345-37.543" transform="translate(-202.695 -181.223)" fill="none" stroke="#bdbdbd" stroke-linecap="round" stroke-linejoin="round" stroke-width="10" stroke-dasharray="0 22.87"/><line transform="translate(62.978 124.213)" stroke-width="10" stroke="#bdbdbd" stroke-linecap="round" stroke-linejoin="round" fill="none"/><line transform="translate(301.363 181.466)" stroke-width="10" stroke="#e0e0e0" stroke-linecap="round" stroke-linejoin="round" fill="none"/><path d="M732.155,355.883c.378-10.763-.936-26.854-10.345-37.543" transform="translate(-429.667 -185.743)" fill="none" stroke="#e0e0e0" stroke-linecap="round" stroke-linejoin="round" stroke-width="10" stroke-dasharray="0 22.87"/><line transform="translate(288.006 128.694)" stroke-width="10" stroke="#e0e0e0" stroke-linecap="round" stroke-linejoin="round" fill="none"/><line transform="translate(397.12 176.985)" stroke-width="10" stroke="#bdbdbd" stroke-linecap="round" stroke-linejoin="round" fill="none"/><path d="M930.353,346.883c-.378-10.763.936-26.854,10.345-37.543" transform="translate(-534.359 -181.223)" fill="none" stroke="#bdbdbd" stroke-linecap="round" stroke-linejoin="round" stroke-width="10" stroke-dasharray="0 22.87"/><line transform="translate(410.477 124.213)" stroke-width="10" stroke="#bdbdbd" stroke-linecap="round" stroke-linejoin="round" fill="none"/><rect width="55.261" height="30.085" transform="translate(0 57.143)" fill="#6c63ff" opacity="0.7"/><rect width="55.261" height="30.085" transform="translate(302.692 36.731)" fill="#6c63ff" opacity="0.7"/><rect width="55.261" height="30.085" transform="translate(255.397 90.499)" fill="#6c63ff" opacity="0.7"/><rect width="90.001" height="48.993" transform="translate(41.322 63.516)" fill="#6c63ff"/><rect width="90.001" height="48.993" transform="translate(372.999 66.005)" fill="#6c63ff"/><rect width="90.001" height="48.993" transform="translate(169.124)" fill="#6c63ff"/><line transform="translate(206.11 176.488)" stroke-width="10" stroke="#bdbdbd" stroke-linecap="round" stroke-linejoin="round" fill="none"/><path d="M547.7,286.25c3.052-10.634,5.038-27.626-4.64-45.165-11.948-21.661-1.2-42.765,4.9-51.956" transform="translate(-337.195 -120.86)" fill="none" stroke="#bdbdbd" stroke-linecap="round" stroke-linejoin="round" stroke-width="10" stroke-dasharray="0 24.01"/><line transform="translate(214.324 63.476)" stroke-width="10" stroke="#bdbdbd" stroke-linecap="round" stroke-linejoin="round" fill="none"/></svg>