<svg xmlns="http://www.w3.org/2000/svg" xmlns:xlink="http://www.w3.org/1999/xlink" width="405.364" height="321.777" viewBox="0 0 405.364 321.777"><defs><linearGradient id="a" x1="0.508" y1="0.468" x2="0.508" y2="-0.532" gradientUnits="objectBoundingBox"><stop offset="0" stop-color="gray" stop-opacity="0.251"/><stop offset="0.54" stop-color="gray" stop-opacity="0.122"/><stop offset="1" stop-color="gray" stop-opacity="0.102"/></linearGradient><linearGradient id="b" x1="-6.39" y1="0.315" x2="-6.39" y2="-0.3" xlink:href="#a"/><linearGradient id="c" x1="-7.004" y1="0.126" x2="-7.004" y2="-0.489" xlink:href="#a"/><linearGradient id="d" x1="-0.757" y1="0.537" x2="-0.757" y2="-0.463" xlink:href="#a"/><linearGradient id="e" x1="0.5" y1="1" x2="0.5" y2="0" xlink:href="#a"/></defs><g transform="translate(0.031 -0.005)"><rect width="117.155" height="71.999" transform="translate(-0.031 196.993) rotate(-16.6)" fill="url(#a)"/><rect width="113.184" height="67.195" transform="translate(1.856 198.294) rotate(-16.6)" fill="#fff"/><g transform="translate(8.047 197.664)" opacity="0.6"><rect width="14.399" height="10.656" transform="translate(16.843 10.212) rotate(163.4)" fill="#f55f44"/><rect width="55.296" height="3.454" transform="translate(73.277 15.022) rotate(163.4)" fill="#f55f44"/><rect width="40.32" height="2.304" transform="translate(75.417 22.194) rotate(163.4)" fill="#f55f44"/></g><rect width="71.999" height="117.155" transform="translate(273.434 70.676) rotate(-78.98)" fill="url(#b)"/><rect width="67.195" height="113.184" transform="translate(275.418 67.996) rotate(-78.98)" fill="#fff"/><g transform="translate(290.053 7.996)" opacity="0.6"><rect width="14.399" height="10.656" transform="translate(14.133 13.212) rotate(-168.98)" fill="#f55f44"/><rect width="55.296" height="3.454" transform="translate(61.905 43.643) rotate(-168.98)" fill="#f55f44"/><rect width="40.32" height="2.304" transform="translate(60.476 50.996) rotate(-168.98)" fill="#f55f44"/></g><rect width="71.999" height="117.155" transform="translate(292.658 168.193) rotate(-23.45)" fill="url(#c)"/><rect width="67.195" height="113.184" transform="translate(295.988 168.312) rotate(-23.45)" fill="#fff"/><g transform="translate(329.865 148.115)" opacity="0.6"><rect width="14.399" height="10.656" transform="translate(20.965 17.45) rotate(-113.45)" fill="#47e6b1"/><rect width="55.296" height="3.454" transform="translate(22.913 74.053) rotate(-113.45)" fill="#47e6b1"/><rect width="40.32" height="2.304" transform="translate(16.045 77.03) rotate(-113.45)" fill="#47e6b1"/></g><rect width="117.155" height="71.999" transform="translate(31.245 39.673) rotate(-19.53)" fill="url(#d)"/><rect width="113.184" height="67.195" transform="translate(33.199 40.884) rotate(-19.53)" fill="#fff"/><g transform="translate(39.525 39.256)" opacity="0.6"><rect width="14.399" height="10.656" transform="translate(17.133 10.043) rotate(160.47)" fill="#6c63ff"/><rect width="55.296" height="3.454" transform="translate(73.738 11.969) rotate(160.47)" fill="#6c63ff"/><rect width="40.32" height="2.304" transform="translate(76.24 19.022) rotate(160.47)" fill="#6c63ff"/></g><path d="M279.06,9.21,142.66,137.617V326.7h272.8V137.617Z" transform="translate(-76.264 -4.92)" fill="url(#e)"/><path d="M415.661,325.2H145.63V139.956L280.648,14.16l135.013,125.8Z" transform="translate(-77.851 -7.566)" fill="#fff"/><rect width="188.004" height="221.183" transform="translate(108.792 32.399)" fill="url(#e)"/><rect width="183.256" height="219.339" transform="translate(111.166 34.242)" fill="#fff"/><path d="M145.63,284.38,280.648,377,145.63,469.624Z" transform="translate(-77.851 -151.99)" fill="#f5f5f5"/><path d="M570.673,284.38,435.66,377l135.013,92.622Z" transform="translate(-232.864 -151.99)" fill="#f5f5f5"/><path d="M310.28,668.716,440,567.794a8.561,8.561,0,0,1,10.591,0L580.311,668.716Z" transform="translate(-242.501 -351.087)" fill="url(#e)"/><path d="M310.28,673.871,440,577.357a8.873,8.873,0,0,1,10.591,0l129.725,96.514Z" transform="translate(-242.501 -356.242)" fill="#fff"/><rect width="38.248" height="6.452" transform="translate(138.972 76.633)" fill="#47e6b1"/><rect width="127.644" height="6.452" transform="translate(138.972 93.686)" fill="#f5f5f5"/><rect width="127.644" height="6.452" transform="translate(138.972 104.742)" fill="#f5f5f5"/><rect width="127.644" height="6.452" transform="translate(138.972 115.803)" fill="#f5f5f5"/><rect width="127.644" height="6.452" transform="translate(138.972 126.859)" fill="#f5f5f5"/><rect width="58.061" height="6.452" transform="translate(138.972 137.92)" fill="#f5f5f5"/><rect width="58.061" height="6.452" transform="translate(208.555 137.92)" fill="#6c63ff"/></g></svg>