<svg xmlns="http://www.w3.org/2000/svg" width="16.356" height="14.1" viewBox="0 0 16.356 14.1"><defs><style>.a{fill:none;stroke:#3b44b7;stroke-linecap:round;stroke-linejoin:round;stroke-width:0.8px;}</style></defs><g transform="translate(0.4 0.398)"><g transform="translate(0 0)"><path class="a" d="M772.419,281.44h-3.711c-.565,0-1.136.957-1.136.957v9.738c0,.583,1.136,1.168,1.136,1.168h13.509s.911-.585.911-1.168V282.4s-.345-.957-.911-.957h-3.71" transform="translate(-767.572 -280.001)"/><line class="a" x1="5.079" transform="translate(10.432 6.989)"/><line class="a" x1="4.944" transform="translate(0 6.99)"/><path class="a" d="M778.932,279.928v.54H773.9v-.54a.91.91,0,0,1,.836-.9H778.1A.91.91,0,0,1,778.932,279.928Z" transform="translate(-768.508 -279.03)"/><rect class="a" width="2.337" height="1.438" rx="0.719" transform="translate(6.491 6.164)"/></g></g></svg>