<svg xmlns="http://www.w3.org/2000/svg" width="18.479" height="18.386" viewBox="0 0 18.479 18.386"><defs><style>.a{fill:#146892;}</style></defs><g transform="translate(0 -0.261)"><path class="a" d="M17.055,48.92a.46.46,0,0,0-.46.46v4.086a1.382,1.382,0,0,1-1.381,1.381H2.3A1.382,1.382,0,0,1,.92,53.466V41.473A1.382,1.382,0,0,1,2.3,40.093H6.387a.46.46,0,1,0,0-.92H2.3a2.3,2.3,0,0,0-2.3,2.3V53.466a2.3,2.3,0,0,0,2.3,2.3H15.214a2.3,2.3,0,0,0,2.3-2.3V49.38a.46.46,0,0,0-.46-.46Zm0,0" transform="translate(0 -37.121)"/><path class="a" d="M120.544.867a2.071,2.071,0,0,0-2.929,0L109.4,9.078a.46.46,0,0,0-.118.2l-1.08,3.9a.46.46,0,0,0,.566.566l3.9-1.08a.46.46,0,0,0,.2-.118l8.21-8.211a2.073,2.073,0,0,0,0-2.929Zm-10.137,8.51,6.72-6.72,2.167,2.167-6.72,6.72Zm-.433.869,1.731,1.732-2.395.664Zm10.459-6.56-.488.488-2.167-2.167.488-.488a1.15,1.15,0,0,1,1.627,0l.54.54A1.152,1.152,0,0,1,120.434,3.685Zm0,0" transform="translate(-103.211)"/></g></svg>