<svg xmlns="http://www.w3.org/2000/svg" width="15.367" height="13.207" viewBox="0 0 15.367 13.207"><defs><style>.a{fill:none;stroke:#8e87d6;stroke-linecap:round;stroke-linejoin:round;stroke-width:0.8px;}</style></defs><g transform="translate(0.585 0.617)"><path class="a" d="M23.169,31.293l-.252,2.5a.8.8,0,0,0,.946.863l2.652-.515h0a5.987,5.987,0,1,0-3.351-2.849" transform="translate(-22.459 -22.485)"/><path class="a" d="M92.51,41.32A4.149,4.149,0,0,1,95.2,47.3" transform="translate(-81.331 -38.314)"/><path class="a" d="M84.766,78.78l.142,1.4a.8.8,0,0,1-.946.87l-1.51-.294h0a4.149,4.149,0,0,1-2.362.094" transform="translate(-70.893 -69.796)"/><line class="a" x2="3.99" transform="translate(3.996 4.972)"/><line class="a" x2="3.99" transform="translate(3.996 7.57)"/></g></svg>