<svg xmlns="http://www.w3.org/2000/svg" width="15.491" height="15.492" viewBox="0 0 15.491 15.492"><defs><style>.a{fill:#2b50ed;stroke:#2b50ed;stroke-width:0.5px;fill-rule:evenodd;}</style></defs><g transform="translate(-8.25 -8.25)"><path class="a" d="M21.528,17.959A1.963,1.963,0,1,1,23.491,16,1.963,1.963,0,0,1,21.528,17.959Zm0-3.569A1.606,1.606,0,1,0,23.134,16,1.606,1.606,0,0,0,21.528,14.389Zm0-1.963a1.963,1.963,0,1,1,1.963-1.963A1.963,1.963,0,0,1,21.528,12.426Zm0-3.569a1.606,1.606,0,1,0,1.606,1.606A1.606,1.606,0,0,0,21.528,8.857ZM16,23.491a1.963,1.963,0,1,1,1.963-1.963A1.963,1.963,0,0,1,16,23.491Zm0-3.569A1.606,1.606,0,1,0,17.6,21.528,1.606,1.606,0,0,0,16,19.922Zm0-1.963A1.963,1.963,0,1,1,17.959,16,1.963,1.963,0,0,1,16,17.959Zm0-3.569A1.606,1.606,0,1,0,17.6,16,1.606,1.606,0,0,0,16,14.389Zm0-1.963a1.963,1.963,0,1,1,1.963-1.963A1.963,1.963,0,0,1,16,12.426Zm0-3.569A1.606,1.606,0,1,0,17.6,10.463,1.606,1.606,0,0,0,16,8.857ZM10.463,23.491a1.963,1.963,0,1,1,1.963-1.963A1.963,1.963,0,0,1,10.463,23.491Zm0-3.569a1.606,1.606,0,1,0,1.606,1.606A1.606,1.606,0,0,0,10.463,19.922Zm0-1.963A1.963,1.963,0,1,1,12.426,16,1.963,1.963,0,0,1,10.463,17.959Zm0-3.569A1.606,1.606,0,1,0,12.069,16,1.606,1.606,0,0,0,10.463,14.389Zm0-1.963a1.963,1.963,0,1,1,1.963-1.963A1.963,1.963,0,0,1,10.463,12.426Zm0-3.569a1.606,1.606,0,1,0,1.606,1.606A1.606,1.606,0,0,0,10.463,8.857ZM21.528,19.565a1.963,1.963,0,1,1-1.963,1.963A1.963,1.963,0,0,1,21.528,19.565Zm0,3.569a1.606,1.606,0,1,0-1.606-1.606A1.606,1.606,0,0,0,21.528,23.134Z"/></g></svg>