<svg xmlns="http://www.w3.org/2000/svg" width="17.669" height="15.529" viewBox="0 0 17.669 15.529"><defs><style>.a{fill:#3188fc;}</style></defs><path class="a" d="M17.154,2.071h-4.7V1.553A1.555,1.555,0,0,0,10.9,0H6.764A1.555,1.555,0,0,0,5.211,1.553V2.07H.518A.519.519,0,0,0,0,2.588V13.976a1.555,1.555,0,0,0,1.553,1.553H16.116a1.555,1.555,0,0,0,1.553-1.553V2.6a.5.5,0,0,0-.514-.526ZM6.246,1.553a.518.518,0,0,1,.518-.518H10.9a.518.518,0,0,1,.518.518V2.07H6.246ZM16.433,3.106,14.825,7.928a.517.517,0,0,1-.491.354H11.423V7.764a.518.518,0,0,0-.518-.518H6.764a.518.518,0,0,0-.518.518v.518H3.334a.517.517,0,0,1-.491-.354L1.236,3.106ZM10.387,8.282V9.317H7.281V8.282Zm6.246,5.694a.518.518,0,0,1-.518.518H1.553a.518.518,0,0,1-.518-.518v-8.2l.826,2.478A1.551,1.551,0,0,0,3.334,9.317H6.246v.518a.518.518,0,0,0,.518.518H10.9a.518.518,0,0,0,.518-.518V9.317h2.912a1.551,1.551,0,0,0,1.473-1.062l.826-2.478Zm0,0" transform="translate(0)"/></svg>