<svg xmlns="http://www.w3.org/2000/svg" width="30.61" height="18.979" viewBox="0 0 30.61 18.979"><defs><style>.a{fill:#a5a4a4;}</style></defs><g transform="translate(4.601 -0.02)"><g transform="translate(-4.601 0.02)"><path class="a" d="M19.747,0H0V12.152H19.747ZM1.519,1.519H3.8A2.281,2.281,0,0,1,1.519,3.8Zm0,9.114V8.354A2.281,2.281,0,0,1,3.8,10.633Zm16.709,0H15.949a2.281,2.281,0,0,1,2.278-2.278Zm0-3.8a3.8,3.8,0,0,0-3.8,3.8H5.316a3.8,3.8,0,0,0-3.8-3.8V5.316a3.8,3.8,0,0,0,3.8-3.8H14.43a3.8,3.8,0,0,0,3.8,3.8Zm0-3.038a2.281,2.281,0,0,1-2.278-2.278h2.278Z" transform="translate(5.224 3.383)"/><circle class="a" cx="0.759" cy="0.759" r="0.759" transform="translate(9.022 8.699)"/><circle class="a" cx="0.759" cy="0.759" r="0.759" transform="translate(19.655 8.699)"/><path class="a" d="M60.278,21.8v4.871l3.352-3.352H61.8V21.8A3.8,3.8,0,0,0,58,18v1.519A2.281,2.281,0,0,1,60.278,21.8Z" transform="translate(-33.021 -18)"/><path class="a" d="M10.524,44.043V39.172L7.171,42.524H9.005v1.519a3.8,3.8,0,0,0,3.8,3.8V46.322A2.281,2.281,0,0,1,10.524,44.043Z" transform="translate(-7.171 -28.861)"/><path class="a" d="M19.8,6a3.8,3.8,0,1,0,3.8,3.8A3.8,3.8,0,0,0,19.8,6Zm0,6.076A2.278,2.278,0,1,1,22.076,9.8,2.281,2.281,0,0,1,19.8,12.076Z" transform="translate(-4.7 -0.339)"/></g></g></svg>