<svg xmlns="http://www.w3.org/2000/svg" width="18.942" height="17.225" viewBox="0 0 18.942 17.225"><defs><style>.a{fill:none;stroke:#8e87d6;stroke-linecap:round;stroke-linejoin:round;stroke-miterlimit:10;stroke-width:0.9px;}</style></defs><g transform="translate(-14.529 -15.387)"><g transform="translate(2.575 2.336)"><circle class="a" cx="3.38" cy="3.38" r="3.38" transform="translate(18.044 18.284)"/><path class="a" d="M30.206,22.17l-3.921,6.838a1.63,1.63,0,0,1-1.414.819H18.02a1.63,1.63,0,0,1-1.411-.814l-3.961-6.842a1.63,1.63,0,0,1,.027-1.679l3.879-6.223a1.63,1.63,0,0,1,1.384-.768H24.91a1.63,1.63,0,0,1,1.384.768L30.175,20.5A1.63,1.63,0,0,1,30.206,22.17Z"/><line class="a" y1="2.791" x2="1.74" transform="translate(15.848 16.041)"/><line class="a" y1="0.614" x2="0.383" transform="translate(14.782 19.914)"/></g></g></svg>