<svg xmlns="http://www.w3.org/2000/svg" width="18.219" height="22" viewBox="0 0 18.219 22"><defs><style>.a{fill:#3188fc;}</style></defs><g transform="translate(0)"><g transform="translate(5.199 7.09)"><path class="a" d="M168.914,165a3.908,3.908,0,0,0-3.316,5.979.427.427,0,0,0,.041.064A3.909,3.909,0,1,0,168.914,165Zm-2.824,5.063a3.049,3.049,0,0,1,5.317-2.908l-2.36,2.36-.9-.9a.43.43,0,0,0-.608,0Zm2.824,1.9a3.046,3.046,0,0,1-2.371-1.134l1.3-1.3.9.9a.43.43,0,0,0,.608,0l2.463-2.463a3.049,3.049,0,0,1-2.9,4Z" transform="translate(-165.004 -165.004)"/></g><path class="a" d="M59.72,10.7A12.743,12.743,0,0,0,53.323.057a.43.43,0,0,0-.427,0A12.743,12.743,0,0,0,46.5,10.7,4.129,4.129,0,0,0,44,14.5v3.036a.43.43,0,0,0,.43.43h6.314A5.4,5.4,0,0,0,52.328,21.4l.479.472a.43.43,0,0,0,.6,0l.479-.472a5.4,5.4,0,0,0,1.585-3.443H56.8v2.218a.43.43,0,0,0,.859,0V17.961h4.125a.43.43,0,0,0,.43-.43V14.5A4.129,4.129,0,0,0,59.72,10.7ZM53.109.928a11.86,11.86,0,0,1,3.419,3.111H49.69A11.86,11.86,0,0,1,53.109.928ZM44.859,17.1V14.5a3.27,3.27,0,0,1,1.633-2.829v5.006a1.283,1.283,0,0,0,.074.43Zm8.428,3.69-.178.175-.178-.175a4.533,4.533,0,0,1-1.326-2.831h3.008A4.534,4.534,0,0,1,53.287,20.792Zm5.58-4.12a.43.43,0,0,1-.43.43H47.781a.43.43,0,0,1-.43-.43V11.111a11.853,11.853,0,0,1,.878-4.473h1.946a.43.43,0,0,0,0-.859H48.62q.227-.451.491-.881h8a11.885,11.885,0,0,1,1.759,6.213Zm2.492.43H59.653a1.283,1.283,0,0,0,.074-.43V11.666A3.27,3.27,0,0,1,61.36,14.5Z" transform="translate(-44 0)"/><g transform="translate(7.305 5.779)"><g transform="translate(0)"><path class="a" d="M214.733,134.626a.429.429,0,1,0,.126.3A.433.433,0,0,0,214.733,134.626Z" transform="translate(-214 -134.5)"/></g></g><g transform="translate(4.555 19.111)"><path class="a" d="M150.43,444.751a.43.43,0,0,0-.43.43V446.5a.43.43,0,0,0,.859,0v-1.324A.43.43,0,0,0,150.43,444.751Z" transform="translate(-150 -444.751)"/></g><g transform="translate(12.805 21.141)"><path class="a" d="M342.733,492.126a.429.429,0,1,0,.126.3A.433.433,0,0,0,342.733,492.126Z" transform="translate(-342 -492)"/></g></g></svg>