<svg xmlns="http://www.w3.org/2000/svg" width="20" height="20" viewBox="0 0 20 20"><g transform="translate(0)"><path d="M109.518,111.723a2.2,2.2,0,1,0-2.2-2.2A2.207,2.207,0,0,0,109.518,111.723Zm0-3.538a1.333,1.333,0,1,1-1.333,1.333A1.335,1.335,0,0,1,109.518,108.185Z" transform="translate(-99.518 -99.518)"/><path d="M19.564,9.564H17.837a7.86,7.86,0,0,0-7.4-7.4V.436a.436.436,0,1,0-.872,0v2.15A.436.436,0,0,0,10,3.022a6.973,6.973,0,1,1-3.008.68.436.436,0,1,0-.376-.786A7.846,7.846,0,0,0,2.164,9.564H.436a.436.436,0,0,0,0,.872H2.163a7.86,7.86,0,0,0,7.4,7.4v1.727a.436.436,0,0,0,.872,0V17.837a7.86,7.86,0,0,0,7.4-7.4h1.727a.436.436,0,0,0,0-.872Z"/></g></svg>