<svg xmlns="http://www.w3.org/2000/svg" width="29.632" height="29.632" viewBox="0 0 29.632 29.632"><defs><style>.a{fill:#fff;}</style></defs><g transform="translate(0 0)"><path class="a" d="M26.411,0H3.221A3.225,3.225,0,0,0,0,3.221V21.258a3.225,3.225,0,0,0,3.221,3.221H5.153v4.509a.643.643,0,0,0,.4.6.633.633,0,0,0,.247.049.645.645,0,0,0,.455-.189l4.965-4.965H26.411a3.225,3.225,0,0,0,3.221-3.221V3.221A3.225,3.225,0,0,0,26.411,0Zm1.933,21.258a1.935,1.935,0,0,1-1.933,1.933H10.951a.641.641,0,0,0-.455.189L6.442,27.433v-3.6A.643.643,0,0,0,5.8,23.19H3.221a1.935,1.935,0,0,1-1.933-1.933V3.221A1.935,1.935,0,0,1,3.221,1.288h23.19a1.935,1.935,0,0,1,1.933,1.933Zm0,0"/><path class="a" d="M128.644,70.442a.643.643,0,0,0,.644-.644V64.644a.644.644,0,1,0-1.288,0V69.8A.643.643,0,0,0,128.644,70.442Zm0,0" transform="translate(-117.693 -58.847)"/><path class="a" d="M224.644,70.442a.643.643,0,0,0,.644-.644V64.644a.644.644,0,0,0-1.288,0V69.8A.643.643,0,0,0,224.644,70.442Zm0,0" transform="translate(-205.963 -58.847)"/><path class="a" d="M82.681,160a.643.643,0,0,0-.644.644,4.515,4.515,0,0,1-4.509,4.509H69.8a4.515,4.515,0,0,1-4.509-4.509.644.644,0,0,0-1.288,0,5.8,5.8,0,0,0,5.8,5.8h7.73a5.8,5.8,0,0,0,5.8-5.8A.643.643,0,0,0,82.681,160Zm0,0" transform="translate(-58.847 -147.116)"/></g></svg>