<?xml version="1.0" standalone="no"?>
<!DOCTYPE svg PUBLIC "-//W3C//DTD SVG 1.1//EN" "http://www.w3.org/Graphics/SVG/1.1/DTD/svg11.dtd">
<svg xmlns="http://www.w3.org/2000/svg">
<metadata>Generated by Fontastic.me</metadata>
<defs>
<font id="simplifyhire" horiz-adv-x="512">
<font-face font-family="simplifyhire" units-per-em="512" ascent="480" descent="-32"/>
<missing-glyph horiz-adv-x="512" />

<glyph glyph-name="right-arrow" unicode="&#97;" d="M344 463c-3 4-7 6-12 6-6 0-10-2-13-6-7-9-7-22 0-31l130-156-431 0c-11-1-19-11-18-21-1-11 7-21 18-22l431 0-130-156c-7-9-7-22 0-31 3-4 7-7 12-7 6 0 10 3 13 7l162 193c7 9 7 22 0 31z"/>
<glyph glyph-name="twitter" unicode="&#98;" d="M518 419c-19-8-40-14-61-16 22 13 39 34 47 59-21-13-44-22-68-26-33 35-85 43-127 21-43-23-65-71-54-118-85 4-165 44-219 111-28-49-14-111 33-142-17 0-33 5-48 13 0 0 0-1 0-1 0-51 36-94 85-104-15-5-32-5-48-2 14-44 54-73 99-74-37-30-84-46-132-46-8 0-16 1-25 2 93-60 211-64 308-11 97 53 157 155 157 266 0 4 0 9 0 13 21 15 39 34 53 55z"/>
<glyph glyph-name="vendor" unicode="&#99;" d="M506 122l-30 0 0 37c13 7 21 21 20 36 0 21-12 37-27 37-14 0-26-17-26-37-2-15 6-29 19-36l0-37-42 0 0 166c0 7-5 13-11 15l-44 13c-4 1-9 0-12-3-4-2-6-7-6-11l0-180-18 0 0 207c0 2-1 4-3 6-2 2-4 3-7 3l-7 0c-10-21-31-35-54-35-24 0-45 14-55 35l-8 0c-2 0-4-1-6-3-2-2-3-4-3-6l0-207-18 0 0 180c0 4-2 8-6 11-3 3-8 4-12 3l-44-13c-7-2-11-8-11-15l0-166-42 0 0 37c13 7 20 21 19 36 0 21-12 37-26 37-15 0-27-16-27-37-1-15 7-29 20-36l0-37-30 0c-2 0-5-1-6-3-2-1-3-4-3-6l0-3c0-2 1-5 3-7 1-1 4-2 6-2l498 0c2 0 4 1 6 2 2 2 3 5 3 7l0 3c-1 5-5 9-10 9z m-135 155c0 1 0 2 1 2 0 1 1 1 2 1l19 0c1 0 2 0 2-1 1 0 1-1 1-2l0-21c0-1 0-2-1-2 0-1-1-1-2-1l-19 0c-1 0-2 0-2 1-1 0-1 1-1 2z m0-58c0 0 0 1 1 1 0 1 1 1 2 1l19 0c1 0 2 0 2-1 1 0 1-1 1-1l0-22c0 0 0-1-1-2 0 0-1 0-2 0l-19 0c-1 0-2 0-2 0-1 1-1 2-1 2z m0-59c0 1 0 1 1 2 0 0 1 1 2 1l19 0c1 0 2-1 2-1 1-1 1-1 1-2l0-21c0-1 0-2-1-2 0-1-1-1-2-1l-19 0c-1 0-2 0-2 1-1 0-1 1-1 2z m-99 117c0 1 1 1 1 2 1 0 1 1 2 1l21 0c1 0 2 0 2-1 1-1 1-1 1-2l0-21c0-1 0-2-1-2 0-1-1-1-2-1l-21 0c-1 0-1 0-2 1-1 0-1 1-1 2z m0-59c0 1 1 2 1 2 1 1 1 1 2 1l21 0c1 0 2 0 2-1 1 0 1-1 1-2l0-21c0 0 0-1-1-2 0 0-1 0-2 0l-21 0c-1 0-1 0-2 0-1 1-1 2-1 2z m0-58c0 1 1 1 1 2 1 0 1 1 2 1l21 0c1 0 2-1 2-1 1-1 1-1 1-2l0-21c0-1 0-2-1-2 0-1-1-1-2-1l-21 0c-1 0-1 0-2 1-1 0-1 1-1 2z m-56 117c0 1 0 2 1 2 0 1 1 1 2 1l21 0c0 0 1 0 2-1 0 0 0-1 0-2l0-21c0-1 0-2 0-2-1-1-2-1-2-1l-21 0c-1 0-2 0-2 1-1 0-1 1-1 2z m0-58c0 0 0 1 1 1 0 1 1 1 2 1l21 0c0 0 1 0 2-1 0 0 0-1 0-1l0-22c0 0 0-1 0-2-1 0-2 0-2 0l-21 0c-1 0-2 0-2 0-1 1-1 2-1 2z m0-59c0 1 0 1 1 2 0 0 1 1 2 1l21 0c0 0 1-1 2-1 0-1 0-1 0-2l0-21c0-1 0-2 0-2-1-1-2-1-2-1l-21 0c-1 0-2 0-2 1-1 0-1 1-1 2z m-97 117c0 1 0 2 1 2 0 1 1 1 1 1l20 0c1 0 1 0 2-1 0 0 1-1 1-2l0-21c0-1-1-2-1-2-1-1-1-1-2-1l-19 0c-1 0-1 0-2 1 0 0-1 1-1 2l0 21z m0-58c0 0 0 1 1 1 0 1 1 1 1 1l20 0c1 0 1 0 2-1 0 0 1-1 1-1l0-22c0 0-1-1-1-2-1 0-1 0-2 0l-19 0c-1 0-1 0-2 0 0 1-1 2-1 2l0 21z m0-59c0 1 0 1 1 2 0 0 1 1 1 1l20 0c1 0 1-1 2-1 0-1 1-1 1-2l0-21c0-1-1-2-1-2-1-1-1-1-2-1l-19 0c-1 0-1 0-2 1 0 0-1 1-1 2l0 21z m139 157c25 0 45 20 45 45 0 25-20 46-45 46-26 0-46-21-46-46 0-25 20-45 46-45z m-5 67l0 5c0 1 1 2 2 2l5 0c1 0 2-1 2-2l0-4c5-1 10-5 10-10 0-1 0-2 0-2-1 0-1-1-2 0l-5 0c-1-1-1 0-2 0 0 0 0 1 0 1 0 1-2 2-3 2l-5 0c-2 0-4-1-4-3 0-2 0-3 1-4 0-1 2-1 3-1l4 0c3 0 7-2 9-5 3-2 4-6 4-10-1-6-5-11-11-12l0-5c0-1-1-1-2-1l-5 0c-1 0-2 0-2 1l0 5c-5 0-10 4-10 10 0 0 0 1 0 1 1 1 1 1 2 1l5 0c1 0 1 0 2 0 0-1 0-1 0-2 1-1 2-2 3-2l5 0c2 0 4 2 5 4-1 1-1 2-2 3 0 1-2 2-3 2l-3 0c-7 0-13 5-14 12-1 7 4 13 11 14z"/>
<glyph glyph-name="google" unicode="&#100;" d="M504 301c-82 0-163 0-244 0 0-34 0-67 0-101l141 0c-6-33-25-62-52-80-17-12-37-19-57-23-21-4-42-4-62 0-21 5-41 13-58 25-28 20-48 48-59 80-11 33-11 68 0 101 7 23 20 44 37 61 40 41 99 57 154 40 21-6 40-18 56-33 16 16 32 32 48 48 8 9 17 17 25 26-24 22-53 40-84 51-124 46-262-9-321-127-37-73-37-160 0-233 17-34 41-63 70-87 28-22 60-38 94-47 44-11 89-12 133-2 83 18 150 81 172 163 13 45 15 92 7 138z"/>
<glyph glyph-name="facebook" unicode="&#101;" d="M304 320l96 0 0-96-96 0 0-224-96 0 0 224-96 0 0 96 96 0 0 40c-1 41 12 80 36 113 22 25 55 40 89 39l67 0 0-96-67 0c-16 0-29-13-29-29z"/>
<glyph glyph-name="looking-for-hire" unicode="&#102;" d="M245 153c0 54 32 104 81 126 50 23 108 15 149-21l0 118c0 7-3 14-8 19-5 5-12 8-19 8l-106 0 0 16c0 28-23 50-50 50l-109 0c-14 0-26-5-36-14-9-10-14-22-14-36l0-16-106 0c-7 0-14-3-19-8-5-5-8-12-8-19l0-298c0-8 3-15 8-20 5-5 12-8 19-8l264 0c-29 27-46 64-46 103z m-82 266c0 11 9 20 20 20l109 0c10 0 19-9 19-20l0-16-148 0z m221-147c-66 0-119-53-119-119 0-65 53-118 119-118 65 0 118 53 118 118 0 66-53 119-118 119z m-16-159l-40 40 14 15 26-26 53 54 15-15z"/>
<glyph glyph-name="job" unicode="&#103;" d="M315 209l0-4c0-33-26-59-59-59-32 0-58 26-58 59l0 4-187 36c-4 1-8 2-11 4l0-163c0-40 32-72 72-72l369 0c40 0 72 32 72 72l0 163c-3-2-7-3-11-4z m127 186l-66 0 0 27c0 42-34 76-76 76l-87 0c-42 0-76-34-76-76l0-27-66 0c-39 0-71-32-71-71l0-30c0-10 7-18 16-20l182-35c0 32 26 57 58 57 32 0 59-25 59-57l181 35c10 2 17 10 17 20l0 31c0 39-32 70-71 70z m-249 28c0 10 8 19 19 19l88 0c11 0 19-9 20-19l0-27-127 0z m93-218l0 32c0 16-14 29-30 29-16 0-29-13-29-29l0-32c0-16 13-29 29-29 16 0 30 13 30 29z"/>
<glyph glyph-name="email" unicode="&#104;" d="M184 384c-16 0-28-13-28-28l0-200c0-16 12-28 28-28l300 0c16 0 28 12 28 28l0 200c0 15-12 28-28 28z m0-22l300 0c2 0 3-1 4-2 1-1 2-2 2-4l0-200c0-2-1-3-2-4-1-1-2-2-4-2l-300 0c-2 0-3 1-4 2-1 1-2 2-2 4l0 200c0 2 1 3 2 4 1 1 2 2 4 2z m-173-28c-6 0-11-5-11-11 0-6 5-11 11-11l111 0c7 0 12 5 12 11 0 6-5 11-12 11z m216-5c-4-1-8-4-9-8-2-4-1-9 2-12l56-55-55-51c-5-4-5-11-1-16 4-4 11-5 16 0l56 51 17-17c14-13 36-13 50 0l16 17 57-51c5-5 12-4 16 0 4 5 4 12-1 16l-56 51 56 55c5 5 5 12 1 16-5 5-12 5-16 0l-89-88c-6-4-13-4-18 0l-89 88c-2 3-6 4-9 4z m-194-62c-6 0-11-5-11-11 0-6 5-11 11-11l89 0c7 0 12 5 12 11 0 6-5 11-12 11z m23-67c-6 0-11-5-11-11 0-6 5-11 11-11l66 0c7 0 12 5 12 11 0 6-5 11-12 11z"/>
<glyph glyph-name="edit" unicode="&#105;" d="M485 184c-7 0-13-6-13-13l0-116c0-22-18-40-39-40l-368 0c-21 0-39 18-39 40l0 341c0 21 18 39 39 39l117 0c7 0 13 6 13 13 0 7-6 13-13 13l-117 0c-36 0-65-29-65-65l0-341c0-37 29-66 65-66l368 0c36 0 65 29 65 66l0 116c0 7-6 13-13 13z m8 311c-23 23-60 23-83 0l-234-234c-2-1-3-3-3-5l-31-111c-1-5 0-10 3-13 4-3 9-5 13-3l111 30c2 1 4 2 6 4l233 233c23 23 23 60 0 83z m-288-242l191 191 61-62-191-191z m-13-25l50-49-69-19z m298 187l-14-14-62 61 14 14c13 13 34 13 47 0l15-15c13-13 13-34 0-46z"/>
<glyph glyph-name="file" unicode="&#106;" d="M165 376c-4 4-11 4-15 0l-41-40c-3-3-4-7-3-11 0-4 3-7 7-8 4-1 8 0 11 3l23 22 0-74c0-6 5-11 11-11 6 0 11 5 11 11l0 74 23-22c4-4 11-4 15 1 4 4 4 10 0 15z m-14-215l112 0c6 0 11 5 11 11 0 6-5 11-11 11l-112 0c-6 0-11-5-11-11 0-6 5-11 11-11z m-11-35c0-6 5-11 11-11l253 0c6 0 11 5 11 11 0 6-5 11-11 11l-253 0c-3 0-5-1-7-4-3-2-4-4-4-7z m264-36l-253 0c-6 0-11-5-11-11 0-6 5-11 11-11l253 0c6 0 11 5 11 11 0 6-5 11-11 11z m-355 130l34 0 0-170c0-30 24-54 54-54l282 0c29 0 53 24 53 54l0 332c0 2-1 5-3 7l-115 120c-2 2-5 3-8 3l-209 0c-30 0-54-24-54-54l0-43-34 0c-3 0-6-1-8-3-2-2-3-5-3-7l0-175c0-2 1-5 3-7 2-2 5-3 8-3z m308 254l79-81-68 0c-3 0-6 1-8 3-2 2-3 5-3 7z m-252-16c0 18 14 32 32 32l199 0 0-87c0-8 3-16 9-23 6-6 14-9 23-9l83 0 0-321c0-9-4-17-10-23-6-6-14-10-22-10l-282 0c-18 0-32 15-32 33l0 170 162 0c6 0 11 5 11 11l0 174c0 6-5 10-11 10l-162 0z m-45-64l196 0 0-152-196 0z"/>
<glyph glyph-name="notification" unicode="&#107;" d="M226 13c8-8 19-13 31-13 11 0 22 5 30 13 8 8 13 19 13 31l-86 0c-1-12 4-23 12-31z m285 70c-20 29-35 61-45 95-13 47-22 96-28 145-4 32-16 62-36 87-9 10-18 20-29 27-18 13-38 23-59 29-3 13-10 25-20 33-11 8-24 13-37 13-28 0-51-19-57-46-21-6-42-15-59-29-11-8-20-17-29-27-20-25-32-55-36-88-5-48-15-97-28-144-10-34-25-66-45-95-2-2-3-5-3-9 0-2 1-5 2-7 3-5 8-8 14-8l482 0c6 0 11 3 14 8 1 3 2 5 2 8 0 3-1 6-3 8z m-467 7c17 30 30 62 38 95 11 44 19 89 25 134 3 38 24 74 56 96 16 11 35 19 55 24 7 1 11 7 11 14l0 1c0 15 13 27 28 27 7 0 14-3 19-8 5-5 8-12 8-19l0-1c0-7 5-13 12-14 20-5 39-13 55-24 9-7 18-14 25-22 17-22 28-47 31-74 5-45 14-90 25-134 8-33 21-65 38-95z"/>
<glyph glyph-name="down-arrow" unicode="&#108;" d="M532 404c-8 7-20 7-27 0l-236-236-237 236c-4 5-11 7-18 6-7-2-12-7-14-14-2-7 0-14 6-19l249-249c4-4 8-6 13-6 5 1 10 3 14 6l249 249c4 4 6 9 6 14 0 5-2 9-5 13z"/>
<glyph glyph-name="envelope-2" unicode="&#109;" d="M453 448l-390 0c-35 0-63-28-63-63l0-266c0-35 28-63 63-63l390 0c34 0 63 28 63 63l0 266c0 35-28 63-63 63z m34-329c0-19-15-35-34-35l-390 0c-19 0-34 16-34 35l0 266c0 19 15 34 34 34l390 0c19 0 34-15 34-34l0-266z m-162 136l126 113c6 6 6 14 1 20-5 6-14 6-20 2l-174-157-34 31c0 0 0 0 0 0-1 1-2 2-2 2l-138 124c-6 5-15 4-20-2-6-6-5-14 0-20l128-114-127-119c-6-5-6-14-1-20 3-3 7-5 11-5 3 0 7 2 10 4l129 121 35-32c5-4 13-4 19 1l36 32 128-122c6-6 15-5 20 0 6 6 6 15 0 21z"/>
<glyph glyph-name="female" unicode="&#110;" d="M319 174c-1 3-1 8-1 13 45 5 76 15 76 28 0 0 0 0 0 1-33 30 29 245-87 241-11 8-25 12-39 11-158-12-88-215-124-253 0-12 30-23 74-28 0-3 0-6-1-13-18-49-140-35-146-129l393 0c-6 94-127 80-145 129z"/>
<glyph glyph-name="male" unicode="&#111;" d="M320 171l0 42c20 16 34 38 40 63 7 1 19 8 23 35 2 10-2 20-10 26 7 15 11 31 11 47 0 52-20 96-64 96-14 22-38 34-64 32-90 0-128-58-128-128 1-16 5-32 11-47-8-6-12-16-10-26 4-27 16-34 23-35 6-25 20-47 40-63l0-42c-21-64-192-22-192-171l512 0c0 149-171 107-192 171z"/>
<glyph glyph-name="calendar" unicode="&#112;" d="M414 5l-321 0c-37 0-66 30-66 66l0 322c0 36 29 65 66 65l321 0c37 0 66-29 66-65l0-322c0-36-29-66-66-66z m-321 429c-23 0-42-18-42-41l0-322c0-23 19-42 42-42l321 0c23 0 42 19 42 42l0 322c0 23-19 41-42 41z m254-53c-6 0-12 5-12 12l0 107c0 7 6 12 12 12 7 0 13-5 13-12l0-107c0-4-2-7-4-9-2-2-5-3-9-3z m-187 0c-7 0-12 5-12 12l0 107c0 7 5 12 12 12 6 0 12-5 12-12l0-107c0-4-1-7-4-9-2-2-5-3-8-3z m308-94l-429 0c-7 0-12 5-12 12 0 7 5 12 12 12l429 0c7 0 12-5 12-12 0-7-5-12-12-12z"/>
<glyph glyph-name="move" unicode="&#113;" d="M412 166l-25 25 67 70-67 70 26 25 91-94z m-124 113l193 0 0-36-193 0z m-106 117l-24 25 94 91 95-91-24-25-71 67z m88 95l0-195-35 0 0 195z m-18-481l-94 91 24 25 70-67 71 67 24-25z m-17 216l35 0 0-195-35 0z m-144-60l-91 94 91 96 26-25-68-70 67-70z m-49 113l175 0 0-36-175 0z"/>
<glyph glyph-name="edit-1" unicode="&#114;" d="M473 114c0-21-9-42-24-57-15-15-36-23-57-23l-262 0c-21 0-42 8-57 23-15 15-24 36-23 57l0 262c-1 21 8 42 23 57 15 15 36 24 57 24l184 0 0 33-184 0c-63 0-114-51-114-114l0-262c0-63 51-114 114-114l262 0c63 0 114 51 114 114l0 217-33 0z m-258 107l71 1 211 211-1 0c7 9 10 19 10 30 0 13-5 26-14 35-9 9-22 14-35 14-11 0-21-4-30-10l-210-211z m35 56l178 179 9-7 9 25c3 3 7 5 11 5 4 0 8-2 11-5 3-3 5-7 5-11-1-4-2-8-5-11-1-1-2-2-3-2l-23-11 7-6-177-178-22-1z"/>
<glyph glyph-name="trash" unicode="&#115;" d="M342 14c47 0 86 37 88 85l10 310 47 0c7 0 12 5 12 12 0 7-5 13-12 13l-132 0 0 28c0 28-23 50-50 50l-96 0c-27 0-50-23-50-50l0-28-132 0c-7 0-13-6-13-13 0-7 6-13 13-13l47 0 10-310c1-47 40-84 88-84z m-158 448c0 14 11 25 25 25l96 0c14 0 25-11 25-25l0-28-146 0z m-74-362l-10 309 315 0-11-309c-1-34-28-61-62-61l-170 0c-34 0-61 27-62 61z m147 19c7 0 13 6 13 13l0 187c0 7-6 13-13 13-7 0-13-6-13-13l0-187c0-7 6-13 13-13z m-75 0c7 0 12 6 12 13l0 187c0 7-5 13-12 13-7 0-13-6-13-13l0-187c0-7 6-13 13-13z m150 0c7 0 13 6 13 13l0 187c0 7-6 13-13 13-7 0-12-6-12-13l0-187c0-7 5-13 12-13z"/>
<glyph glyph-name="calendar-1" unicode="&#116;" d="M423 4l-323 0c-36 0-66 29-66 66l0 322c0 37 30 66 66 66l323 0c36 0 66-29 66-66l0-322c0-37-30-66-66-66z m-323 430c-23 0-42-19-42-42l0-323c0-23 19-41 42-41l323 0c23 0 42 19 42 42l0 322c0 23-19 42-42 42z m256-54c-7 0-12 6-12 12l0 108c0 6 5 11 12 11 6 0 11-5 12-11l0-108c0-6-6-12-12-12z m-189 0c-6 0-12 6-12 12l0 108c0 4 2 9 6 11 4 2 9 2 13 0 3-2 6-7 5-11l0-108c0-6-5-12-12-12z m310-94l-431 0c-4 0-8 2-11 6-2 4-2 9 0 12 3 4 7 7 11 6l431 0c6 0 11-5 11-12 0-6-5-12-11-12z"/>
<glyph glyph-name="plus-1" unicode="&#117;" d="M500 386c-11 47-43 86-88 106-50 15-102 22-155 20-52 2-105-5-155-20-44-20-77-59-88-106-10-43-15-87-14-130-1-44 4-88 13-131 12-47 44-86 88-106 51-15 103-21 156-20 52-2 105 5 155 19 45 20 77 60 88 107 10 42 15 86 14 130 1 44-4 88-14 131z m-162-159l-58 0 0-58c0-9-4-18-11-22-8-5-17-5-25 0-7 4-11 13-10 22l0 58-59 0c-9-1-17 4-22 11-4 7-4 17 0 24 5 8 13 12 22 11l59 0 0 59c1 12 11 21 23 21 12 0 21-9 23-21l0-59 58 0c9 1 17-3 22-11 5-7 5-17 0-24-5-7-13-12-22-11z"/>
<glyph glyph-name="download" unicode="&#118;" d="M260 445c77 0 141-58 150-134 64-6 112-61 109-126-3-64-56-115-120-115l-296 0c-37 0-72 19-91 51-18 32-18 72 0 104 19 32 54 51 91 51l7 0c-5 42 8 85 37 118 28 32 70 51 113 51z m0-127c-7 0-12-6-12-12l0-130-46 42c-6 4-13 4-18-1-4-5-4-12 1-17l67-60c2-3 5-4 8-3 3 0 6 1 8 3l66 60c5 5 6 12 1 17-4 5-12 5-17 1l-46-42 0 130c0 6-5 12-12 12z"/>
<glyph glyph-name="job-1" unicode="&#119;" d="M499 423l-136 0 0 15c0 25-21 46-46 46l-120 0c-25 0-45-21-45-46l0-15-137 0c-8 0-15-6-15-15l0-331c0-12 5-24 13-32 9-9 20-14 32-14l424 0c25 0 46 21 46 46l0 331c0 4-2 8-5 11-2 3-6 4-10 4z m-317 15c0 9 7 15 15 15l121 0c8 0 15-6 15-15l0-15-151 0z m296-45l-46-140c-2-6-8-11-15-11l-84 0 0 16c0 8-7 15-16 15l-120 0c-8 0-15-7-15-15l0-16-85 0c-6 0-12 5-14 11l-47 140z m-176-151l0-30-90 0 0 30z m182-165c0-9-6-15-15-15l-424 0c-8 0-15 6-15 15l0 238 24-72c6-18 24-31 43-31l85 0 0-15c0-8 7-15 15-15l121 0c8 0 15 7 15 15l0 15 84 0c20 0 37 13 43 31l24 72z"/>
<glyph glyph-name="refer" unicode="&#120;" d="M403 364c0 71-50 131-118 145-69 14-138-22-166-87-27-64-5-139 53-179-103-36-172-133-172-241l40 0c0 119 96 215 215 215 82 0 148 66 148 147z m-148-107c-59 0-108 48-108 107 0 60 49 108 108 108 60 0 108-48 108-108 0-59-48-107-108-107z m256-112l-94-94-28 29 46 46-34 0c-48 0-87-39-87-86l0-38-40 0 0 38c0 70 57 126 127 126l32 0-44 45 28 28z"/>
<glyph glyph-name="start" unicode="&#121;" d="M252 351c-32 0-62-18-78-46-16-29-15-63 3-91 0 0 0-1 0-1 24-36 69-50 108-34 40 16 63 58 54 99-8 42-44 72-87 73z m-64-116c-14 33 0 70 31 87 31 17 70 8 90-21l-54-53-20 20c-4 4-10 4-14 0z m64-43c-21 0-41 9-54 26l30 29 20-20c4-4 10-4 14 0l56 56c7-21 3-44-10-62-13-18-34-29-56-29z m151 76c-3 101-59 193-146 243-3 1-7 1-10 0-87-50-142-142-146-243-34-15-56-49-56-86l0-69c0-6 4-10 9-10l144 0c2-30 15-58 36-79l11-10c4-4 10-4 14 0l11 10c21 21 34 49 36 79l30 0 0-51c0-5 5-10 10-10 5 0 10 5 10 10l0 51 94 0c5 0 10 4 10 10l0 69c0 37-23 71-57 86z m-151 223c30-18 57-43 78-71l-156 0c21 28 48 53 78 71z m-188-369l0 60c0 26 14 51 37 64l0-114c0-3 1-6 2-10z m192-84l-4-4-4 4c-17 17-28 40-30 65l68 0c-2-25-12-48-30-65z m127 94c0-5-4-10-9-10l-243 0c-6 0-10 5-10 10l0 127c0 35 7 69 20 102l44 0c6 0 10 4 10 10 0 5-4 9-10 9l-35 0c3 7 7 14 11 20l182 0c26-42 40-91 40-141z m57-10l-39 0c1 3 2 7 2 10l0 114c23-13 37-38 37-64z m-212 255c-4 4-9 4-13 2-4-3-5-8-3-12 2-5 6-7 11-6 4 1 8 5 8 10 0 2-1 5-3 6z m-70-300c-5 0-10-5-10-10l0-30c0-6 5-10 10-10 6 0 10 4 10 10l0 30c0 5-4 10-10 10z m195-50c-3 4-8 4-12 2-4-3-6-8-4-12 2-5 6-7 11-6 5 1 8 5 8 9 0 3-1 6-3 7z"/>
<glyph glyph-name="female-1" unicode="&#122;" d="M432 342c1 92-72 167-163 171-92 3-170-66-177-158-7-91 59-172 151-182l0-69-79 0 0-40 79 0 0-77 39 0 0 77 79 0 0 40-80 0 0 69c86 9 152 82 151 169z m-301 0c0 72 59 131 131 131 73 0 132-59 132-131 0-73-59-131-132-131-35-1-68 13-93 38-24 25-38 58-38 93z"/>
<glyph glyph-name="invitation" unicode="&#65;" d="M519 308c0 1-1 2-1 2l-1 1c0 1-1 1-1 2l-1 0-65 54 0 28c0 36-29 65-65 65l-47 0-52 43c-15 12-36 12-51 0l-52-43-47 0c-36 0-65-29-65-65l0-28-65-54-1 0c0-1-1-1-1-2l-1-1c0 0-1-1-1-2l-1-1c0-1-1-4-1-6l0-238c0-36 29-65 65-65l391 0c36 0 65 29 65 65l0 238c0 2-1 5-2 6z m-69 19l30-25-30-22z m-196 152c4 3 9 3 12 0l23-19-57 0z m-38-169l29 0 0 29c0 6 3 11 8 14 4 3 10 3 15 0 5-3 8-8 8-14l0-29 29 0c6 0 11-3 14-8 3-4 3-11 0-15-3-5-8-8-14-8l-29 0 0-29c0-9-7-15-16-15-8 0-15 6-15 15l0 29-29 0c-6 0-11 3-14 8-3 4-3 11 0 15 3 5 8 8 14 8z m-145 17l0-48-30 23z m419-264c0-18-15-34-34-34l-391 0c-19 0-34 16-34 34l0 207 43-32c2-2 4-3 7-4l155-117c15-10 34-10 48 0l157 117c2 1 4 2 6 4l43 32z"/>
<glyph glyph-name="location" unicode="&#66;" d="M388 384c0 68-53 124-121 128-68 4-127-46-135-113-7-68 39-130 106-141 0-1 0-1 0-2l0-149c0-12 10-21 22-21 12 0 21 9 21 21l0 149c0 1 0 1 0 2 62 11 107 64 107 126z m-128-85c-47 0-86 38-86 85 0 47 39 85 86 85 47 0 85-38 85-85 0-47-38-85-85-85z m-244-211c0-60 126-88 244-88 117 0 243 28 243 88 0 54-94 75-151 83-11 1-22-8-23-19-2-12 6-22 18-24 83-11 112-33 114-40-3-12-68-45-201-45-133 0-199 33-201 45 1 7 31 30 115 40 7 1 14 6 17 13 3 8 2 16-3 22-4 6-12 9-20 8-57-8-152-28-152-83z"/>
<glyph glyph-name="male-1" unicode="&#67;" d="M209-18c-115 0-209 94-209 209 0 116 94 209 209 209 116 0 209-93 209-209 0-115-93-209-209-209z m0 367c-87 0-157-71-157-158 0-87 70-157 157-157 87 0 158 70 158 157-1 87-71 157-158 157z m300 138c-1-15-13-26-27-25l-246 0c-15-1-26 10-27 25 1 14 12 25 27 25l246 0c14 0 26-11 27-25z m-26 25c15 0 26-12 26-27l0-246c0-14-11-26-26-26-14 0-25 12-25 26l0 247c0 14 11 26 25 26z m-28-17l37-37-146-145-36 36z"/>
<glyph glyph-name="rocket" unicode="&#68;" d="M302 165l2 2z m92-33c0-7 6 2-124-128-3-3-8-4-12-2-4 1-6 5-6 10l0 84c-45-21-49-25-56-18l-119 119c-7 7-2 11 18 55l-84 0c-5 0-8 3-10 7-2 4-1 9 2 12 130 130 122 123 128 123l95 0c71 76 171 118 274 118 3 0 6-1 8-3 2-2 3-5 3-8 0-104-42-203-117-275z m-289 142l99 99-68 0-99-99z m134-160l-126 126-15-33 108-108z m133 91l-99-99 0-68 99 98z m13 43c64 64 102 151 104 242-91-3-177-40-242-105l-124-124 137-137 33 33-4-4 3 2z m-88-88l-3-3z m5 5l-4-4z m78 140c-21-20-55-20-75 0-21 21-21 54 0 75 20 21 54 21 75 0 20-21 20-54 0-75z m-16 60c-12 12-32 12-44 0-12-12-12-32 0-44 12-12 32-12 44 0 6 6 9 14 9 22 0 8-3 16-9 22z m-272-257l-59-59c-4-4-4-11 0-15 4-5 11-5 15-1l59 60c5 4 4 11 0 15-4 4-11 4-15 0z m45-34l-50-50c-3-3-4-7-3-10 1-4 4-7 8-8 4-1 8 0 11 3l49 49c4 4 4 11 0 15-4 5-11 5-15 1z m-80 79l-49-50c-3-2-4-6-3-10 1-4 4-7 8-8 4-1 8 0 10 3l50 49c4 5 4 11 0 16-4 4-11 4-16 0z"/>
<glyph glyph-name="suitcase" unicode="&#69;" d="M308 404l-103 0 0 44 103 0z m40 0l0 84-182 0 0-84-166 0 0-104 257-90 256 90 0 104z m-72-284l-39 0 0 56-237 82 0-238 513 0 0 238-237-82z"/>
<glyph glyph-name="tick" unicode="&#70;" d="M256 512c-141 0-256-115-256-256 0-141 115-256 256-256 141 0 256 115 256 256 0 141-115 256-256 256z m131-194l-150-151c-5-5-12-8-19-8-7 0-14 3-18 8l-76 76c-10 10-10 27 1 37 10 11 26 11 37 1l56-57 132 132c5 5 12 8 19 8 7 0 14-3 19-8 10-11 10-28-1-38z"/>
<glyph glyph-name="verified" unicode="&#71;" d="M463 316l8 70-64 28-29 64-69-7-57 41-57-41-69 7-28-64-64-28 7-70-41-56 41-57-7-69 64-29 28-64 70 8 56-41 57 41 69-8 29 64 64 29-8 69 41 57z m-15-169l-57-26-26-57-62 6-51-36-51 36-62-6-26 57-57 26 7 62-37 51 37 51-7 62 57 26 26 57 62-7 51 37 51-37 62 7 26-57 57-26-6-62 36-51-36-51z m-237 44l-66 66-15-15 81-80 184 184-15 15z"/>
<glyph glyph-name="editpencil" unicode="&#72;" d="M328 424l108-107-272-272-107 107z m189 26l-48 48c-18 19-48 19-67 0l-46-46 108-107 53 53c7 7 11 17 11 26 0 10-4 19-11 26z m-517-449c-1-4 1-8 4-11 3-3 7-4 11-3l120 29-108 107z"/>
<glyph glyph-name="phone-call" unicode="&#73;" d="M392 205c-9 10-22 16-36 16-13 0-26-6-36-16l-33-33c-2 1-5 3-8 4-3 2-7 4-10 6-33 21-62 47-86 78-11 14-21 29-28 45 8 8 16 16 24 24 3 3 6 6 9 9 10 9 16 22 16 36 0 14-6 27-16 36l-29 29c-3 3-7 6-10 9-6 7-13 14-19 20-10 10-22 15-36 15-13 0-26-6-35-15l0 0-36-36c-13-13-21-30-23-49-1-26 4-53 14-78 19-48 46-94 80-133 45-54 101-98 164-129 29-14 60-24 92-27 2 0 5 0 7 0 23-1 45 9 60 26 0 0 0 0 0 0 6 7 12 13 19 19 4 5 9 9 13 14 10 10 16 23 16 36 0 14-6 27-16 36z m37-110c-4-5-8-9-13-13-7-7-13-14-20-21-10-11-24-17-39-17-2 0-4 0-5 0-28 3-56 11-82 25-59 29-112 70-154 121-32 37-58 80-76 125-8 21-12 44-11 66 1 12 6 23 14 31l36 36c4 4 10 7 16 7 6 0 11-3 15-7l0 0c7-6 13-13 19-19 4-4 7-7 10-10l29-29c5-4 8-10 8-16 0-7-3-13-8-16-3-3-6-6-9-9-9-9-17-18-27-26 0 0 0 0 0 0-7-7-9-16-6-24l1-1c8-20 20-39 34-55 26-34 57-62 93-85 4-3 8-5 13-7 3-2 7-4 10-6 0 0 1 0 1 0 3-2 7-3 10-3 6 0 12 3 16 7l36 36c4 5 10 7 16 8 6-1 11-3 15-8l58-58c5-4 8-10 8-16 0-7-3-13-8-17z m-161 299c56-10 100-54 109-110 2-6 7-11 14-11 1 0 2 0 3 0 3 0 7 2 9 6 2 3 3 6 2 10-11 68-65 121-132 133-8 1-15-4-17-12 0-3 0-7 3-10 2-3 5-5 9-6z m227-101c-19 112-107 199-218 219-8 1-15-4-17-12-1-8 4-15 12-16 100-17 178-96 195-196 1-6 7-11 14-11 1 0 2 0 3 0 3 1 7 3 9 6 2 3 3 7 2 10z"/>
<glyph glyph-name="plus" unicode="&#75;" d="M262 512c-145 0-262-117-262-262 0-145 117-262 262-262 145 0 262 117 262 262 0 145-117 262-262 262z m126-282l-106 0 0-111c0-11-9-20-20-20-11 0-20 9-20 20l0 111-106 0c-11 0-20 9-20 20 0 11 9 20 20 20l106 0 0 101c0 11 9 20 20 20 11 0 20-9 20-20l0-101 106 0c11 0 20-9 20-20 0-11-9-20-20-20z"/>
<glyph glyph-name="document" unicode="&#77;" d="M342 496l0-99 99 0z m-236-53l-45 0 0-445 327 0 0 46-282 0z m214-68l0 137-191 0 0-445 328 0 0 308z m-145 65l97 0 0-23-97 0z m235-295l-235 0 0 23 235 0z m0 136l-235 0 0 23 235 0z"/>
<glyph glyph-name="contract" unicode="&#78;" d="M74 159l-74 0 2-90c0 0 0-1 0-1 0-36 30-66 66-66l300-1c-19 17-29 42-29 67l0 91z m358-157c37-1 68 29 68 66l0 405c0 14-12 26-27 26l-356 0c-14 0-26-12-26-26l-3-288 264 0c7 0 13-6 13-13l0-104c0-37 31-67 67-66z m-263 402l248 0c7 0 13-5 13-13 0-7-6-13-13-13l-248 0c-7 0-13 6-13 13 0 8 6 13 13 13z m0-128c-7 0-13 6-13 13 0 8 6 14 13 14l246 0c7 0 13-6 13-14 0-7-6-13-13-13z"/>
<glyph glyph-name="communication" unicode="&#79;" d="M275 99l12 0c41 0 81 14 113 41l88-27c5-1 11 1 15 5 3 4 4 10 1 15l-48 87c24 73-2 153-64 199-63 45-147 45-209 0l-2 0c-63 0-121-34-152-89-31-55-30-122 3-176l-31-72c-2-5-1-11 3-15 4-4 10-5 15-3l73 30c27-15 57-24 89-24 33 0 66 10 94 29z m162 177c0-18-3-36-9-53-2-4-1-8 1-12l35-63-63 19c-5 2-10 0-14-3-27-25-63-39-100-39-5 0-10 0-15 1-61 6-112 48-129 107-18 59 3 122 51 160 45 36 106 43 158 18 52-25 85-78 85-135z m-218-75l136 0c8 0 14 6 14 14 0 8-6 14-14 14l-136 0c-8 0-14-6-14-14 0-8 6-14 14-14z m0 110l136 0c8 0 14 6 14 14 0 7-6 14-14 14l-136 0c-8 0-14-7-14-14 0-8 6-14 14-14z m0-55l136 0c8 0 14 6 14 14 0 8-6 14-14 14l-136 0c-8 0-14-6-14-14 0-8 6-14 14-14z"/>
<glyph glyph-name="close" unicode="&#80;" d="M213 256l-205 207c-11 12-11 29 0 41 5 5 13 8 20 8 8 0 15-3 20-8l204-208 205 208c5 5 12 8 20 8 7 0 14-3 20-8 11-12 11-29 0-41l-205-207 204-207c11-12 11-29 0-41-5-5-12-8-20-8-7 0-14 3-20 8l-204 208-204-208c-5-5-13-8-20-8-8 0-15 3-20 8-11 11-11 29 0 41z"/>
<glyph glyph-name="check-mark" unicode="&#81;" d="M507 252c-15 16-19 40-8 60 7 14 8 31 1 45-7 14-19 25-35 29-21 5-37 23-39 45-1 16-10 30-23 39-13 9-30 10-45 5-20-8-44-1-57 17-10 13-24 20-40 20-16 0-31-7-40-20-14-18-37-25-58-17-15 5-31 4-44-5-14-9-22-23-23-39-2-22-18-40-40-45-15-4-28-15-34-29-7-14-6-31 1-45 10-20 7-44-9-60-11-11-16-27-13-43 2-16 11-29 25-37 19-11 29-33 25-55-3-16 1-32 11-44 10-12 26-18 42-17 22 1 42-12 50-33 5-15 18-26 33-31 15-4 31-1 44 8 18 13 42 13 60 0 13-9 29-12 44-8 15 5 27 16 33 31 8 21 28 34 50 33 16-1 31 5 42 17 10 12 14 28 11 44-4 22 6 44 25 55 14 8 23 21 25 37 3 16-3 32-14 43z m-289-129l-111 112 47 48 64-65 147 149 47-48z"/>
<glyph glyph-name="caret-down" unicode="&#82;" d="M281 117c-14-15-37-15-51 0l-219 219c-11 10-14 26-8 39 5 14 19 23 33 23l439 0c15 0 28-9 34-22 6-14 2-30-8-40z"/>
<glyph glyph-name="location-1" unicode="&#83;" d="M249 512c-93 0-169-76-169-169 0-38 22-95 69-180 33-58 65-107 66-109l24-35c2-3 6-5 10-5 4 0 8 2 11 5l23 35c1 2 33 51 66 109 47 85 69 142 69 180 0 93-75 169-169 169z m78-336c-32-58-64-106-65-108l-13-19-13 19c-1 2-33 50-65 108-44 78-66 135-66 167 4 77 67 137 144 137 77 0 140-60 144-137 0-32-22-89-66-167z m-78 262c-52 0-94-42-94-94 0-52 42-94 94-94 52 0 94 42 94 94 0 52-42 94-94 94z m0-163c-38 0-68 31-68 69 0 38 30 68 68 68 38 0 69-30 69-68 0-38-31-69-69-69z"/>
<glyph glyph-name="linkedin" unicode="&#84;" d="M403 133l0 100c0 54-29 79-68 79-21 1-41-10-52-29l0 25-59 0c1-16 0-175 0-175l59 0 0 98c0 4 0 9 2 14 4 13 16 21 30 21 21 0 29-16 29-39l0-94 59 0z m-240 199c17 0 30 14 31 30 0 17-14 31-31 31-16 0-30-13-30-30-1-17 13-31 30-31z m95-336c-143 0-258 116-258 258 0 143 116 258 258 258 142 0 258-115 258-258 0-142-116-258-258-258z m-66 137l0 175-58 0 0-175z"/>
<glyph glyph-name="git" unicode="&#85;" d="M253 502c-124 0-230-90-250-212-20-123 52-242 170-281 13-2 17 6 17 12 0 6 0 26 0 47-70-15-85 30-85 30-5 15-15 29-28 37-23 16 1 16 1 16 17-3 31-12 39-27 7-12 19-21 33-25 13-4 28-3 41 4 1 13 7 25 16 34-56 7-115 28-115 125-1 25 9 50 26 68-8 22-7 46 2 67 0 0 21 7 70-26 41 12 85 12 126 0 49 33 70 26 70 26 9-21 10-45 3-67 17-18 26-43 26-68 0-97-60-118-116-125 12-12 18-29 17-46 0-34 0-61 0-70 0-7 4-14 17-12 118 39 190 158 170 281-20 122-126 212-250 212z"/>
<glyph glyph-name="facebook-1" unicode="&#86;" d="M221 114l58 0 0 140 39 0 5 48-44 0 0 25c0 12 2 19 20 19l24 0 0 48-39 0c-46 0-63-23-63-62l0-30-29 0 0-48 29 0z m37-118c-143 0-258 116-258 258 0 143 115 258 258 258 142 0 258-115 258-258 0-142-116-258-258-258z"/>
<glyph glyph-name="behance" unicode="&#87;" d="M258-4c142 0 258 116 258 258 0 143-116 258-258 258-143 0-258-115-258-258 0-142 115-258 258-258z m46 345l0-20 80 0 0 20z m-200 11l92-1c0 0 50 2 57-38 6-20-5-42-25-49 24-7 39-31 34-56-6-46-60-47-60-47l-98 0z m42-76l38-1c4 0 9 1 14 2 3 1 7 2 9 5 3 2 4 5 5 8 1 3 2 6 2 9 0 3-1 6-2 9-1 2-2 4-5 6-2 2-5 4-8 4-4 2-8 2-12 2l-41 1z m0-80l41-1c5 0 11 1 16 2 3 1 7 3 10 5 3 3 4 6 5 9 2 4 2 7 2 11 0 3 0 6-2 9-1 3-3 5-5 7-3 2-6 4-9 5-4 1-9 2-13 2l-45 0z m167 25c0-1 0-28 23-35 15-5 31 3 38 17l34 0c-1-4-14-60-90-42-46 12-44 66-44 71 1 18 7 35 19 48 13 14 32 22 51 22 18 0 36-6 50-19 13-18 19-41 17-63z m60 24c0 4-1 8-3 12-1 3-3 7-6 9-2 3-5 5-9 7-4 1-8 2-12 2-4 0-7-1-11-3-3-1-6-3-9-6-2-3-4-6-6-10-1-3-2-7-3-11z"/>
<glyph glyph-name="diploma" unicode="&#88;" d="M426 117l-166 55c1 11-4 23-13 29-9 7-21 9-32 5l-116 101c-2 1-5 2-7 2-3-1-5-2-6-4l-13-23c-23 8-50-1-62-22l-4-8c-7-12-9-26-5-39 3-13 12-24 24-31l129-66c-2-10 0-20 6-28l-26-47c-2-3-2-6 0-9 2-3 6-4 9-3l27 7 7-27c1-3 4-5 7-6 0 0 1 0 1 0 3 0 6 2 8 4l36 64 89-58c12-7 26-8 39-5 13 4 24 12 31 24l4 7 38 66c2 2 2 5 1 8-1 2-3 4-5 5z m-191 72c4-2 7-6 8-10 1-5 0-9-2-13l-38-66c-5-8-15-11-23-6-8 4-11 15-7 23l39 66c2 4 6 7 10 8 4 1 9 0 13-2z m-139 98l84-73-92 60z m-78-69c-2 9-1 18 4 26l4 7c9 16 30 22 46 13l121-79-31-53-128 65c-8 5-14 12-16 21z m171-184l-4 15c-1 4-6 7-10 5l-15-4 15 27c12-5 26-3 36 6l5-3z m139-6l-107 69 32 55 113-58c16-9 22-30 12-46l-4-8c-9-16-30-21-46-12z m69 52c-4 12-12 23-23 29l-44 22 81-26z m101 339l11 32c1 4-1 9-5 10l-30 16-16 30c-2 4-6 6-10 5l-32-11-33 11c-4 1-8-1-10-5l-16-30-30-16c0 0 0 0 0 0l-149 0c-23 0-42-19-42-42l0-117c0-3 1-6 4-8 2-1 6-1 9 0 2 2 4 5 4 8l0 117c0 14 11 25 25 25l147 0 8-25-10-33c-2-4 0-8 4-10l30-16 16-30c2-4 6-6 10-4l33 10 8-2 0-187c0-3 2-6 4-7 3-2 6-2 9 0 3 1 4 4 4 7l0 181 7-2c4-1 8 0 10 4l16 30 30 16c4 2 6 6 5 10z m-17-3l9-28-26-14c-2-1-3-2-4-3l-14-27-28 9c-1 1-3 1-5 0l-28-9-14 27c-1 1-2 2-3 3l-27 14 9 28c1 2 1 4 0 5l-9 28 27 14c1 1 2 2 3 4l14 26 28-9c2-1 4-1 5 0l28 9 14-26c1-2 2-3 4-4l26-13-9-29c-1-1-1-3 0-5z m-65 45c-24 0-43-19-43-42 0-24 19-43 43-43 23 0 42 19 42 43 0 11-4 22-12 30-8 8-19 12-30 12z m0-68c-14 0-26 12-26 26 0 14 12 25 26 25 14 0 25-11 25-25 0-14-11-26-25-26z m-204-102l144 0c3 0 6 2 8 5 2 2 2 6 0 8-2 3-5 5-8 4l-144 0c-3 1-6-1-8-4-1-2-1-6 0-8 2-3 5-5 8-5z m144-25l-119 0c-4 0-8-4-8-8 0-5 4-9 8-9l119 0c5 0 8 4 8 9 0 4-3 8-8 8z m0-42l-59 0c-3 0-6-2-8-5-1-2-1-6 0-8 2-3 5-5 8-4l59 0c3-1 6 1 8 4 2 2 2 6 0 8-2 3-5 5-8 5z m-127 152l51 0c4 0 8 4 8 9 0 4-4 8-8 8l-51 0c-14 0-25-11-25-25 0-14 11-26 25-26l51 0c4 1 8 4 8 9 0 4-4 8-8 8l-51 0c-5 1-8 4-8 9 0 4 3 8 8 8z"/>
<glyph glyph-name="envelope" unicode="&#90;" d="M447 448l-385 0c-34 0-62-28-62-62l0-263c0-35 28-63 62-63l385 0c34 0 62 28 62 63l0 263c0 34-27 62-62 62z m34-325c0-19-15-34-34-34l-385 0c-18 0-34 15-34 34l0 263c0 18 16 33 34 33l385 0c19 0 34-15 34-33l0-263z m-160 134l125 112c6 5 6 15 1 20-6 6-15 7-20 1l-172-154-34 30c0 0 0 0 0 0-1 1-1 2-2 2l-137 122c-3 4-9 5-14 4-5-2-9-6-10-11-1-5 1-10 5-14l126-112-125-118c-6-5-6-14-1-20 3-3 7-5 11-5 3 0 7 2 9 4l128 119 35-31c5-4 13-4 19 0l35 32 127-120c5-5 14-5 20 0 5 6 5 15-1 21z"/>
<glyph glyph-name="graduation-cap" unicode="&#48;" d="M521 61c0-18-14-32-32-32-18 0-33 14-33 32 0 18 15 66 33 66 18 0 32-48 32-66z m-48 245l0-147c0-9 7-16 16-16 9 0 16 7 16 16l0 147c0 9-7 16-16 16-9 0-16-7-16-16z m11 34l-44-10 0-138c0-43-50-82-179-82-130 0-180 39-180 82l0 138-43 10c-22 5-38 24-38 47 0 23 16 43 38 48l212 49c3 1 7 1 11 1 3 0 7 0 10-1l213-49c22-5 37-25 37-48 0-22-15-42-37-47z m-77-18l-135-31c-7-2-15-2-22 0l-136 31 0-130c0-18 49-49 147-49 97 0 146 31 146 49z m69 49c8 2 13 9 13 16 0 8-5 14-13 16l-212 49-3 0-4 0-212-49c-7-2-12-8-12-16 0-7 5-14 12-16l212-48 4-1 3 1z"/>
<glyph glyph-name="travel" unicode="&#49;" d="M102 326l-11 19c-11-6-23-13-33-20l13-19c10 7 20 14 31 20z m68 27l-6 22c-13-4-25-8-38-13l9-21c11 5 23 9 35 12z m223-2c-12 6-24 11-36 16l-8-22c12-4 23-9 34-14z m94-70l-17-16c8-9 16-18 23-28l19 13c-8 11-16 21-25 31z m-72 32c10-7 20-14 29-22l15 17c-10 8-21 16-32 23z m-415-42l17-14c8 9 17 18 26 26l-16 17c-9-9-18-19-27-29z m181 71l12 0 13 21 45 0-20-68c0-2 1-4 3-4l19 0 38 71 34-1c7-1 13 2 16 8 3 5 3 12 0 17-3 6-9 9-16 8l-35-1-37 70-19 0c-2 0-3-1-3-3l19-68-44 0-13 20-12 0c-1 0-2-1-2-3l0-64c0-1 0-1 0-2 1 0 2-1 2-1z m111-86c-15 4-30 6-45 6-94 0-175-65-196-157-4-17-5-35-5-53l23 0c-1 16 1 32 4 48 8-2 41-11 40-22-2-8-3-17-2-26l21 0c3 2 6 3 8 0l0 0 164 0c-23 16-39 40-44 68-2 1 5 32-7 36-12 3-20 0-37 8-17 8-11 18-8 44 1 10 4 19 8 28 23 4 48 4 71-1 83-19 142-95 139-180-1-1-3-2-5-3l28 0c4 97-62 183-157 204z"/>
<glyph glyph-name="pdf" unicode="&#50;" d="M247 124c-5 0-9 0-13-1l0-80c3-1 7-1 10-1 25 0 41 14 41 43 1 11-2 21-10 29-7 7-18 11-28 10z m-107 1c-4 0-8-1-12-2l0-36c3 0 6-1 9 0 15 0 24 7 24 20 0 11-8 18-21 18z m301 264c0 2-1 4-2 6l-100 114c0 0 0 0 0 0 0 0-1 1-2 1l0 1c-1 0-2 0-2 0l-1 1c-1 0-2 0-2 0l-244 0c-12 0-21-9-21-20l0-475c0-11 9-20 21-20l333 0c11 0 20 9 20 20l0 370c0 1 0 1 0 2z m-264-311c-11-9-25-14-39-13-4 0-7 0-10 1l0-44-27 0 0 121c12 2 25 3 37 2 13 1 27-2 38-9 8-7 13-18 13-29 0-11-4-21-12-29z m117-42c-16-11-36-17-56-15-11 0-21 0-32 2l0 120c13 2 25 3 38 2 18 2 35-3 50-13 14-11 22-28 21-46 1-19-7-37-21-49z m114 86l-47 0 0-28 44 0 0-23-44 0 0-49-28 0 0 123 75 0z m-320 47l0 323 234 0 0-104c0-5 4-10 10-10l89 0 0-209z m270 126c-1 0-15 1-37 1-7 0-14 0-20 0-34 26-67 53-98 83 1 2 1 3 1 5 2 26 0 44-8 52-6 6-14 8-21 6-8-2-14-8-17-16-3-11 2-24 16-39 0 0 4-5 13-13-6-27-20-83-27-110-15-8-29-18-40-31l-1-1-1-1c-3-7-4-16-2-24 2-4 5-7 10-9l1 0c1 0 2 0 3 0 8 0 29 4 40 45l3 11c39 16 81 25 123 26 18-13 36-25 54-36l0-1c6-2 12-4 18-4 12 0 23 9 25 22l1 1c1 7-1 14-6 20-8 8-19 13-30 13z m-228-82c0 0 0 0 0 0 0 4 0 7 2 11 6 7 14 14 22 19-8-28-21-30-24-30z m55 184c-14 15-13 22-13 25 2 4 7 5 7 5 3 1 4 1 6-1 5-10 6-22 4-34-3 4-4 5-4 5z m-7-124l0 0c7 26 16 64 22 88l0 0 0 0c18-16 45-41 77-66l0 0 0-1c-34-2-67-9-99-21z m201-9c-3-9-7-10-11-10-4 0-7 1-11 3-12 7-24 15-36 24l0 0c21 0 35-1 36-1 7 0 14-3 19-8 2-2 3-5 3-8z"/>
<glyph glyph-name="skills" unicode="&#51;" d="M382 512c-4-1-7-3-8-6l-55-103-54-103c-2-3-2-8 0-12 2-3 6-6 10-6l217 0c4 0 8 3 10 6 2 4 2 9 0 12l-55 103-54 103c-2 4-7 6-11 6z m-308 0c-41-1-74-34-74-75l0-91c0-41 33-75 74-75l92 0c41 0 74 34 74 75l0 91c0 41-33 74-74 75z m0-23l92 0c13 0 27-6 36-15 10-10 15-23 15-37l0-91c0-14-5-27-15-37-9-10-23-15-36-15l-92 0c-13 0-26 6-36 15-10 10-15 23-15 37l0 91c0 14 5 27 15 37 10 9 23 15 36 15z m309-13l45-85 45-85-179 0 44 85z m-263-228c-66 0-120-53-120-120 0-66 54-120 120-120 66 0 120 54 120 120 0 67-54 120-120 120z m218 0c-42 0-75-33-75-74l0-91c0-42 33-75 75-75l91 0c41 0 74 33 74 75l0 91c0 41-33 74-74 74z m-218-22c54 0 97-44 97-98 0-53-43-97-97-97-54 0-97 44-97 97 0 26 10 51 28 69 19 18 43 29 69 29z m218 0l91 0c14 0 27-6 37-15 9-10 15-23 15-37l0-91c0-14-6-27-15-37-10-10-23-15-37-15l-91 0c-14 0-27 5-37 15-10 10-15 23-15 37l0 91c0 14 5 27 15 37 10 9 23 15 37 15z"/>
<glyph glyph-name="birthday" unicode="&#53;" d="M255 386c14 0 28 6 38 16 20 22 20 55 0 77l-30 30c-2 2-5 3-8 3-3 0-6-1-8-3l0 0-30-30c-20-22-20-55 0-77 10-10 24-16 38-16z m-21 76l21 22 21-22c12-12 12-31 0-43-11-12-29-12-41-2l-1 2c-11 12-12 31 0 43z m178-189l-99 0 0 76c0 19-15 34-34 35l-47 0c-20-1-35-16-35-35l0-76-99 0c-32 0-58-26-58-58l0-133c0-3 1-6 3-8 2-3 5-4 8-4l14 0 11-36c7-25 30-42 55-42l248 0c25 1 48 17 55 42l12 36 13 0c3 0 5 1 8 3 2 2 3 5 3 8l0 134c0 32-26 58-58 58z m-192 76c0 6 5 11 12 11l47 0c3 0 6-1 8-3 2-2 3-5 3-8l0-76-70 0z m-122-99l314 0c10 0 18-4 25-10 6-7 10-16 10-25l0-63c-12 1-24 4-35 10-35 17-76 17-111 0-29-14-63-14-92 0-35 17-76 17-111 0-11-6-22-9-34-10l0 63c-1 19 15 35 34 35z m-34-157l0 35c15 2 30 6 44 13 29 14 62 14 91 0 36-17 77-17 112 0 14 7 30 11 46 10 16 1 32-3 46-10 14-7 28-11 44-13l0-35z m348-52c-4-15-18-25-33-25l-248 0c-15 0-28 10-33 25l-9 29 332 0z"/>
<glyph glyph-name="currency" unicode="&#54;" d="M494 57c5 0 9 2 13 5 3 3 5 8 5 13l0 268c0 4-2 9-5 12-4 4-8 6-13 6l-476 0c-5 0-9-2-13-6-3-3-5-8-5-12l0-269c0-5 2-9 5-13 4-3 8-5 13-5l476 0z m-470 49l6 0c13 0 24-10 24-24l0-1-31 0 0 25z m54 230l0 1 360 0 0-1c1-27 22-48 48-48l2 0 0-158-6 0c-26 0-48-21-48-48l0-1-356 0 0 1c0 27-21 48-48 48l-5 0 0 157 5 0c27 0 48 22 48 49z m380-255l0 1c0 14 10 24 24 24l5 0 0-25z m30 230l-2 0c-13 0-23 11-24 24l0 2 26 0z m-434 26l0-2c0-13-10-24-23-24l-6 0 0 26z m60-65c0-11-9-21-21-21-11 0-21 10-21 21 0 12 10 21 21 21 12 0 21-9 21-21z m326-127c0-11-10-21-21-21-12 0-21 10-21 21 0 12 9 21 21 21 11 0 21-9 21-21z m-184-43c43 0 82 26 99 66 16 40 7 86-24 116-20 20-47 32-75 32-43 0-82-26-99-66-16-40-7-86 24-117 19-20 46-32 75-31z m-59 165c16 16 37 25 59 25 22 0 43-9 59-25 23-23 30-59 18-90-13-31-44-51-77-51-22-1-43 8-59 24-32 32-32 85 0 117z m-137 140l392 0 0-24-392 0z m51 48l290 0 0-24-290 0z"/>
<glyph glyph-name="resume" unicode="&#55;" d="M257 512c-11 0-21-3-30-8-9-6-16-14-23-22l-54 0c-6 0-12-5-12-11l0-18-78 0c-6-1-11-6-11-12l0-439c0-6 6-12 12-12l391 0c7 0 12 6 12 12l0 439c0 6-5 11-12 12l-77 0 0 17c0 7-5 12-11 12l-54 0c-7 8-15 15-24 21-8 6-19 9-29 9z m0-24c6 1 12-1 17-4 8-6 15-13 21-21 2-3 6-4 9-4l48 0 0-42-190 0 0 42 47 0c4 0 7 1 9 4 7 8 14 15 22 21 5 3 11 5 17 4z m-184-59l65 0 0-24c0-6 5-11 12-12l213 0c7 1 12 6 12 12l0 24 65 0 0-415-367 0z m184-60c-23 0-42-18-42-41 0-23 19-41 42-41 23 0 41 18 41 41 0 23-18 41-41 41z m0-23c10 0 18-8 18-18 0-10-8-18-18-18-10 0-18 8-18 18 0 5 2 10 5 13 3 3 8 5 13 5z m-48-59c-2 0-3-1-5-2-8-4-16-9-22-16-10-12-15-26-14-41 0-2 0-35 0-42 0-6 5-12 12-12l154 0c6 0 11 6 12 12 0 7 0 40 0 42 0 15-5 29-14 41-7 7-14 12-23 16-5 3-12 1-15-5-3-6-1-13 5-16 5-2 10-6 15-10 6-8 9-17 8-27 0 0 0-17 0-29l-130 0c0 12 0 29 0 29-1 10 2 19 8 27 4 4 9 8 15 10 5 3 8 8 6 14-1 5-6 9-12 9z m-66-149c-7 0-12-5-11-12 0-6 6-12 12-11l225 0c7 0 12 5 12 12 0 6-5 11-12 11z m0-65c-7 0-12-6-11-12 0-7 6-12 12-11l225 0c7 0 12 5 12 11 0 7-5 12-12 12z"/>
<glyph glyph-name="back-arrow" unicode="&#56;" d="M515 94c-39 126-140 223-268 256l0 83-247-161 247-154 0 83c202 22 256-104 259-110z"/>
<glyph glyph-name="twitter2" unicode="&#57;" d="M254 512c-140 0-254-114-254-254 0-140 114-254 254-254 140 0 254 114 254 254 0 140-114 254-254 254z m128-203c0-2 0-5 0-8 0-66-36-128-95-160-58-32-129-29-185 7 5-1 10-1 15-1 29 0 57 10 80 27-28 1-52 19-60 45 4-1 8-1 12-1 5 0 11 0 17 2-30 6-52 32-52 63 0 0 0 0 0 0 9-5 19-7 29-8-28 19-36 57-19 86 32-40 80-64 131-67-6 28 7 57 32 71 26 14 58 8 77-13 15 3 28 8 41 16-5-15-15-28-28-36 13 2 25 5 37 11-9-13-20-25-32-34z"/>
<glyph glyph-name="dribble" unicode="&#33;" d="M373 241c35-44 64-91 87-141 36 47 55 105 53 164-48 7-97-1-140-23z m-365-45c22-97 99-172 196-192-9 94 31 187 106 245-25 28-38 40-50 52-59-77-156-117-252-105z m101 269c51-27 99-59 142-97 23 44 30 94 22 143-59 4-117-12-164-46z m-109-225c88-15 176 20 229 91-47 41-100 76-156 104-51-52-77-123-73-195z m248-241c66-2 131 22 180 66-23 55-54 106-91 152-67-51-101-135-89-218z m36 339c22-20 42-42 62-64 49 27 105 39 162 34-21 97-96 174-193 197 8-58-3-116-31-167z"/>
<glyph glyph-name="left-arrow" unicode="&#74;" d="M167 463c3 4 8 6 13 6 5 0 10-2 13-6 7-9 7-22 0-31l-131-156 431 0c11-1 19-11 18-21 1-11-7-21-18-22l-431 0 131-156c7-9 7-22 0-31-3-4-8-7-13-7-5 0-10 3-13 7l-162 193c-7 9-7 22 0 31z"/>
<glyph glyph-name="building" unicode="&#76;" d="M171 478l0-444 307 0 0 444-307 0m-34 34l375 0 0-512-375 0z m-103-239l0-239 103 0 0 239-103 0m-34 34l171 0 0-307-171 0z m307 68l0-68 34 0 0 68-34 0m-34 35l102 0 0-137-102 0z m34-205l0-68 34 0 0 68-34 0m-34 34l102 0 0-137-102 0z"/>
</font>
</defs>
</svg>
