<svg xmlns="http://www.w3.org/2000/svg" width="144.954" height="23.231" viewBox="0 0 144.954 23.231"><defs><style>.a{fill:#e8e8e8;}</style></defs><g transform="translate(-139 -31)"><g transform="translate(139 31)"><path class="a" d="M147.3,52.953c-4.522,0-7.809-3.145-7.809-8.033,0-4.916,3.2-8.034,7.809-8.034a7.306,7.306,0,0,1,7.669,7.7,9.193,9.193,0,0,1-.112,1.517H143.485a3.64,3.64,0,0,0,3.736,3.595,3.206,3.206,0,0,0,3.117-1.881h4.242A7.234,7.234,0,0,1,147.3,52.953Zm-3.792-9.494H150.9a3.458,3.458,0,0,0-3.708-3.343A3.614,3.614,0,0,0,143.513,43.459Z" transform="translate(-139.496 -36.885)"/><path class="a" d="M165.7,36.885c3.877,0,6.489,2.023,7.332,5.506h-4.242a3.057,3.057,0,0,0-3.118-2.163c-2.191,0-3.652,1.657-3.652,4.691s1.461,4.662,3.652,4.662a2.967,2.967,0,0,0,3.118-2.134h4.242a7.1,7.1,0,0,1-7.332,5.505c-4.495,0-7.7-3.145-7.7-8.033S161.208,36.885,165.7,36.885Z" transform="translate(-140.673 -36.885)"/><path class="a" d="M183.989,52.953a7.617,7.617,0,0,1-7.894-8.033,8.006,8.006,0,1,1,16.012,0A7.78,7.78,0,0,1,183.989,52.953Zm0-3.426c2.079,0,4.073-1.517,4.073-4.607,0-3.118-1.938-4.607-4.017-4.607s-3.961,1.489-3.961,4.607C180.084,48.01,181.882,49.527,183.989,49.527Z" transform="translate(-141.823 -36.885)"/><path class="a" d="M202.183,52.953c-3.9,0-6.63-2.275-6.8-5.169h3.961a2.582,2.582,0,0,0,2.808,2.08c1.546,0,2.389-.7,2.389-1.6,0-2.781-8.793-1.011-8.793-6.714,0-2.584,2.3-4.663,6.152-4.663,3.763,0,6.039,2.051,6.264,5.141H204.4A2.318,2.318,0,0,0,201.79,40c-1.461,0-2.22.59-2.22,1.489,0,2.837,8.624,1.068,8.737,6.77C208.306,50.93,205.975,52.953,202.183,52.953Z" transform="translate(-143.05 -36.885)"/><path class="a" d="M221.708,36.885c3.989,0,7.107,3.118,7.107,7.978s-3.118,8.09-7.107,8.09a6.354,6.354,0,0,1-5.141-2.472v9.636h-3.932V37.138h3.932v2.247A6.22,6.22,0,0,1,221.708,36.885Zm-1.039,3.455c-2.106,0-4.1,1.629-4.1,4.579s2,4.578,4.1,4.578c2.136,0,4.13-1.685,4.13-4.634S222.8,40.34,220.668,40.34Z" transform="translate(-144.147 -36.885)"/><path class="a" d="M239,36.885a6.154,6.154,0,0,1,5.141,2.472V37.138H248.1V52.7h-3.961V50.425a6.137,6.137,0,0,1-5.168,2.527c-3.934,0-7.079-3.23-7.079-8.09S235.04,36.885,239,36.885Zm1.011,3.455c-2.107,0-4.1,1.573-4.1,4.523s1.994,4.634,4.1,4.634c2.164,0,4.13-1.628,4.13-4.578S242.177,40.34,240.013,40.34Z" transform="translate(-145.372 -36.885)"/><path class="a" d="M259.931,36.885c3.877,0,6.489,2.023,7.332,5.506h-4.242a3.057,3.057,0,0,0-3.118-2.163c-2.191,0-3.652,1.657-3.652,4.691s1.461,4.662,3.652,4.662a2.967,2.967,0,0,0,3.118-2.134h4.242a7.1,7.1,0,0,1-7.332,5.505c-4.495,0-7.7-3.145-7.7-8.033S255.437,36.885,259.931,36.885Z" transform="translate(-146.665 -36.885)"/><path class="a" d="M278.1,52.953c-4.523,0-7.81-3.145-7.81-8.033,0-4.916,3.2-8.034,7.81-8.034a7.306,7.306,0,0,1,7.668,7.7,9.3,9.3,0,0,1-.111,1.517H274.283a3.64,3.64,0,0,0,3.736,3.595,3.207,3.207,0,0,0,3.118-1.881h4.241A7.233,7.233,0,0,1,278.1,52.953Zm-3.792-9.494H281.7a3.458,3.458,0,0,0-3.708-3.343A3.614,3.614,0,0,0,274.311,43.459Z" transform="translate(-147.814 -36.885)"/><path class="a" d="M291.578,53.671a2.305,2.305,0,1,1,2.388-2.3A2.314,2.314,0,0,1,291.578,53.671Z" transform="translate(-149.012 -37.659)"/></g><path class="a" d="M191.523,59.772c-.88-3.39-3.474-5.422-7.295-5.422a7.816,7.816,0,0,0-7.332,5.291h4.167a3.808,3.808,0,0,1,3.137-1.807,2.9,2.9,0,0,1,3.053,1.835c.028.047.047-.028.066-.028h4.242C191.551,59.641,191.532,59.819,191.523,59.772Z" transform="translate(-2.874 -6.996)"/></g></svg>