<svg xmlns="http://www.w3.org/2000/svg" width="45.082" height="45.081" viewBox="0 0 45.082 45.081"><defs><style>.a{fill:#55acee;}.b{fill:#fff;}</style></defs><rect class="a" width="45.081" height="45.081" rx="22.541"/><path class="b" d="M109.822,672.306a5.939,5.939,0,0,0-5.613,7.267,16.806,16.806,0,0,1-12.2-6.185,5.922,5.922,0,0,0,1.833,7.9,5.907,5.907,0,0,1-2.682-.742c0,.025,0,.051,0,.077a5.922,5.922,0,0,0,4.749,5.8,5.953,5.953,0,0,1-1.56.207,5.86,5.86,0,0,1-1.114-.106,5.923,5.923,0,0,0,5.527,4.112,11.865,11.865,0,0,1-7.348,2.534A12,12,0,0,1,90,693.093a16.747,16.747,0,0,0,9.073,2.66c10.889,0,16.842-9.02,16.842-16.842,0-.257,0-.514-.016-.769a11.988,11.988,0,0,0,2.953-3.063,11.769,11.769,0,0,1-3.4.933,5.931,5.931,0,0,0,2.6-3.275,11.856,11.856,0,0,1-3.76,1.438,5.912,5.912,0,0,0-4.321-1.869C109.925,672.306,109.873,672.3,109.822,672.306Z" transform="translate(-81.885 -661.491)"/></svg>