<svg xmlns="http://www.w3.org/2000/svg" width="43.982" height="43.982" viewBox="0 0 43.982 43.982"><defs><style>.a{fill:#346da6;}.a,.b{fill-rule:evenodd;}.b{fill:#fff;}</style></defs><path class="a" d="M21.991,43.982A21.991,21.991,0,1,0,0,21.991,21.991,21.991,0,0,0,21.991,43.982Z"/><path class="b" d="M20.327,36.436V23.023H16.181V36.436Zm0-18.168A2.039,2.039,0,0,0,18.2,16.154a2.115,2.115,0,1,0-.05,4.229h.025A2.046,2.046,0,0,0,20.327,18.268ZM27.09,36.436V28.794a3.11,3.11,0,0,1,.15-1.11,2.6,2.6,0,0,1,5.012,1.11v7.642h4.174V28.589c0-4.2-2.244-6.159-5.237-6.159a4.53,4.53,0,0,0-4.129,2.306l.03-1.794H22.923c.06,1.284,0,13.495,0,13.495Z" transform="translate(-4.286 -4.313)"/></svg>