<svg xmlns="http://www.w3.org/2000/svg" width="17.65" height="25.2" viewBox="0 0 17.65 25.2">
  <g id="placeholder" transform="translate(-8.203)">
    <path id="Path_212" data-name="Path 212" d="M23.779,12A3.222,3.222,0,1,0,27,15.222,3.226,3.226,0,0,0,23.779,12Zm0,5.523a2.3,2.3,0,1,1,2.3-2.3A2.3,2.3,0,0,1,23.779,17.523Z" transform="translate(-6.669 -6.477)" fill="#9a9fa8"/>
    <path id="Path_213" data-name="Path 213" d="M23.269,2.585a8.825,8.825,0,0,0-12.481,0,10.052,10.052,0,0,0-.83,12.4L17.028,25.2,24.088,15A10.056,10.056,0,0,0,23.269,2.585Zm.073,11.88-6.314,9.118L10.7,14.451a9.082,9.082,0,0,1,.735-11.215,7.9,7.9,0,0,1,11.179,0A9.086,9.086,0,0,1,23.342,14.465Z" transform="translate(0 0)" fill="#9a9fa8"/>
  </g>
</svg>
